<?xml version="1.0" encoding="UTF-8" standalone="no"?>
<svg
   xmlns:svg="http://www.w3.org/2000/svg"
   xmlns="http://www.w3.org/2000/svg"
   width="1024.0"
   height="320.0"

>
    <g transform="scale(3.0976756447143696, -3.0976756447143696)   translate(115.95846030133909,117.51657401524545)" stroke-width="0.8933333333333335"  fill="none">
       <!-- hidden lines -->
       <g  stroke="rgb(32,64,32)" fill="none" stroke-dasharray="0.8933333333333335,0.8933333333333335" >

       </g>

       <!-- solid lines -->
       <g  stroke="rgb(64,192,64)" fill="none">
			<path d="M100.4091629284897,-178.662313379801 L100.4091629284897,-168.76281844309509 " />
			<path d="M100.4091629284897,-168.76281844309506 L99.87883284259979,-168.58604174779842 " />
			<path d="M98.39981758444237,-165.18995846874506 L98.36688370468399,-165.3004147888693 L98.33955227314826,-165.41518538903054 L98.31792456514304,-165.53384499227806 L98.30208072110237,-165.65595391114678 L98.29207944962995,-165.7810596768982 L98.28795780995725,-165.9086987161214 L98.28973107462225,-166.0383980684823 L98.29739267287786,-166.16967713925533 L98.31091421503943,-166.30204948014412 L98.33024559768141,-166.4350245917924 L98.3553151892932,-166.56810974130582 L98.3860300957062,-166.7008117880499 L98.42227650430883,-166.83263901095913 L98.46392010577352,-166.96310293058576 L98.51080659173367,-167.09172011913694 L98.56276222656572,-167.2180139917931 L98.61959449115831,-167.3415165726703 L98.6810927962825,-167.4617702288823 L98.74702926292011,-167.5783293662773 L98.81715956665848,-167.69076208056563 L98.89122384302283,-167.79865175772042 L98.96894765039164,-167.90159861772088 L99.05004298692685,-167.99922119591798 L99.1342093577509,-168.09115775653333 L99.22113488841607,-168.17706763305387 L99.31049748054026,-168.25663249055515 L99.40196600532707,-168.32955750527626 L99.49520153054772,-168.39557245707496 L99.58985857643812,-168.4544327307156 L99.68558639585753,-168.5059202222791 L99.78203027396535,-168.54984414733642 L99.87883284259979,-168.58604174789133 " />
			<path d="M100.40916132547862,-164.520177221733 L100.40916132547862,-157.213407149472 " />
			<path d="M100.4091613254786,-157.21340714947203 L100.4072449080361,-157.10868008789595 L100.40150027252605,-157.00292771135588 L100.39194125827859,-156.8964047865897 L100.37859089379629,-156.78936793665352 L100.36148134127656,-156.6820750226941 L100.34065381913003,-156.57478452273895 L100.31615850268182,-156.46775490900004 L100.2880544032948,-156.36124402519147 L100.25640922620602,-156.25550846536163 L100.22129920741888,-156.15080295573551 L100.1828089300439,-156.0473797410569 L100.14103112053066,-155.94548797690874 L100.09606642528153,-155.84537312947555 L100.04802316818585,-155.7472763841938 L99.99701708965804,-155.6514340647152 L99.94317106780888,-155.55807706358212 L99.88661482242135,-155.4674302859874 L99.82748460244434,-155.37971210795797 L99.76592285775698,-155.29513385026794 L99.70207789599436,-155.21389926934825 L99.63610352526156,-155.13620406641965 L99.56815868359634,-155.06223541603126 L99.49840705607353,-154.9921715151408 L99.42701668047334,-154.92618115382237 L99.35415954246368,-154.86442330863647 L99.28001116127153,-154.80704675964148 L99.2047501668418,-154.75418973196952 L99.12855786950219,-154.70597956283 L99.05161782317062,-154.66253239474307 L98.97411538315785,-154.6239528957422 L98.89623725963031,-154.59033400721964 L98.81817106780889,-154.5617567200225 " />
			<path d="M7.247844507162114,-124.03831453314021 L98.81817106780888,-154.56175672002254 " />
			<path d="M7.247844507162116,-124.03831453314021 L7.155688763974203,-124.01115759823094 L7.0638424753665285,-123.99121514731759 L6.972614056785647,-123.97855414619703 L6.882309848900095,-123.97321710990576 L6.7932330889230785,-123.97522195995653 L6.705682892356402,-123.9845619641587 L6.619953248574911,-124.00120575922466 L6.536332033624242,-124.0250974560862 " />
			<path d="M93.33809511662427,-157.92051446499562 L7.071067811865518,-129.16483869674263 " />
			<path d="M93.33809511662427,-178.19090885900994 L93.33809511662427,-157.9205144649956 " />
			<path d="M93.33809511662426,-178.19090885901 L97.58073580374354,-179.60512242138307 " />
			<path d="M97.58073580374355,-179.60512242138304 L97.58073580374355,-169.70562748467714 " />
			<path d="M97.58073580374355,-169.7056274846771 L97.05040571785364,-169.52885078938047 " />
			<path d="M97.05040411484256,-165.28620956801848 L96.958248344154,-165.25905260924762 L96.86640202759024,-165.23911013856167 L96.77517358087348,-165.22644912186334 L96.6848693449473,-165.22111207426647 L96.59579255729778,-165.2231169173324 L96.50824233369597,-165.2324569188899 L96.42251266378075,-165.2491007156418 L96.33889142385522,-165.27299241848127 " />
			<path d="M96.3388914238552,-165.27299241848127 L96.27998807124808,-165.29470279428858 L96.22243338825885,-165.3201118293737 L96.16632812859694,-165.34917504335024 L96.1117705086496,-165.38184155892262 L96.05885603554681,-165.4180541909506 L96.00767733996902,-165.45774954655602 L95.95832401399039,-165.50085813609672 L95.91088245424118,-165.54730449481326 L95.86543571066413,-165.59700731493558 L95.82206334112946,-165.64987958801814 L95.78084127216289,-165.70582875725472 L95.7418416660307,-165.7647568795059 L95.7051327944144,-165.82656079675567 L95.67077891889606,-165.89113231669717 L95.63884017846377,-165.95835840213132 L95.6093724842338,-166.0281213688467 L95.58242742157417,-166.10029909163453 L95.55805215980064,-166.1747652180776 L95.53628936960331,-166.2513893897398 L95.51717714834852,-166.33003747036798 L95.50074895338649,-166.41057178070727 L95.4870335434819,-166.49285133951886 L95.47605492846941,-166.5767321103781 L95.46783232722282,-166.66206725382065 L95.4623801340109,-166.74870738439603 L95.45970789329925,-166.8365008321776 L95.45982028304194,-166.9252939082721 L95.46271710649245,-167.01493117386332 L95.46839329254809,-167.1052557123192 L95.4768389046273,-167.19610940388597 L95.48803915806444,-167.28733320248827 L95.50197444599134,-167.37876741415124 L95.51862037366062,-167.4702519765564 L95.53794780115055,-167.56162673924266 L95.55992289437648,-167.65273174396137 L95.58450718432003,-167.74340750469503 L95.6116576343719,-167.83349528684943 L95.64132671567056,-167.92283738513007 L95.67346249030513,-168.01127739961694 L95.70800870223643,-168.09866050955424 L95.74490487577735,-168.18483374437528 L95.78408642145999,-168.26964625148884 L95.82548474910428,-168.35294956035776 L95.86902738789014,-168.43459784240747 L95.91463811322299,-168.51444816630973 L95.9622370801705,-168.59236074819435 L96.011740963237,-168.6681991963512 L96.06306310223098,-168.7418307499939 L96.11611365397005,-168.81312651166746 L96.17079974955804,-168.88196167289257 L96.22702565695894,-168.94821573265227 L96.28469294858276,-169.01177270833762 L96.34370067359032,-169.0725213387839 L96.40394553461513,-169.13035527904154 L96.46532206859307,-169.18517328654067 L96.52772283138316,-169.23687939832374 L96.59103858585648,-169.28538309903567 L96.65515849312386,-169.33059947937784 L96.71997030656743,-169.3724493847478 L96.78536056833661,-169.4108595538054 L96.8512148079645,-169.4457627467222 L96.91741774275674,-169.47709786288956 L96.98385347960246,-169.50481004787991 L97.05040571785364,-169.52885078947338 " />
			<path d="M97.05040411484256,-165.28620956801842 L97.58073420073248,-165.46298626331506 " />
			<path d="M97.58073420073248,-165.46298626331506 L97.58073420073248,-158.15621619105406 " />
			<path d="M97.58073420073246,-158.15621619105409 L97.57881778328996,-158.051489129478 L97.57307314777991,-157.94573675293793 L97.56351413353245,-157.83921382817175 L97.55016376905014,-157.73217697823557 L97.53305421653042,-157.62488406427616 L97.51222669438388,-157.517593564321 L97.48773137793567,-157.4105639505821 L97.45962727854865,-157.30405306677352 L97.42798210145988,-157.19831750694368 L97.39287208267274,-157.09361199731757 L97.35438180529776,-156.99018878263894 L97.31260399578451,-156.8882970184908 L97.2676393005354,-156.7881821710576 L97.21959604343971,-156.69008542577586 L97.1685899649119,-156.59424310629726 L97.11474394306273,-156.50088610516417 L97.05818769767521,-156.41023932756946 L96.9990574776982,-156.32252114954002 L96.93749573301083,-156.23794289185 L96.87365077124822,-156.1567083109303 L96.80767640051542,-156.0790131080017 L96.7397315588502,-156.0050444576133 L96.66997993132739,-155.93498055672285 L96.5985895557272,-155.86899019540442 L96.52573241771753,-155.80723235021853 L96.45158403652539,-155.74985580122353 L96.37632304209566,-155.69699877355157 L96.30013074475605,-155.64878860441206 L96.22319069842447,-155.60534143632512 L96.14568825841171,-155.56676193732426 L96.06781013488417,-155.5331430488017 L95.98974394306275,-155.50456576160454 " />
			<path d="M4.419417382415931,-124.98112357472228 L95.98974394306269,-155.50456576160462 " />
			<path d="M4.419417382415932,-124.98112357472228 L4.327261639228019,-124.953966639813 L4.235415350620345,-124.93402418889966 L4.144186932039463,-124.9213631877791 L4.053882724153911,-124.91602615148783 L3.9648059641768936,-124.9180310015386 L3.8772557676102153,-124.92737100574077 L3.7915261238287252,-124.94401480080673 L3.7079049088780573,-124.96790649766827 " />
			<path d="M3.707904908878044,-124.96790649766827 L3.6591061634845854,-124.98559213015075 L3.6112174571695603,-125.00581148540687 L3.564296109347805,-125.0285403622898 L3.5183982815740458,-125.0537515559318 L3.4735789103214643,-125.08141489030645 L3.4298916412266047,-125.11149725434726 L3.3873887648793155,-125.14396264157928 L3.3461211542345897,-125.17877219321635 L3.3061382037212166,-125.21588424467231 L3.267487770120119,-125.25525437543058 L3.2302161152831537,-125.2968354622124 L3.1943678507609277,-125.3405777353801 L3.1599858844059043,-125.38642883850778 L3.1271113690147256,-125.43433389104841 L3.0957836530712037,-125.48423555402188 L3.0660402336489536,-125.53607409864571 L3.0379167115300323,-125.5897874778263 L3.0114467485933045,-125.6453114004249 L2.9866620275235416,-125.70257940820952 L2.9635922138894735,-125.76152295540082 L2.9422649206361893,-125.82207149071665 L2.9227056750343836,-125.88415254181683 L2.9049378881260077,-125.94769180204754 L2.8889828267028985,-126.0126132193812 L2.874859587851922,-126.07883908744526 L2.8625850760971057,-126.1462901385314 L2.85217398316611,-126.21488563847335 L2.843638770405263,-126.28454348328002 L2.832234592067998,-126.42671153355714 L2.8284271247462,-126.572113832392 " />
			<path d="M2.828427124746201,-130.57905225911577 L2.828427124746201,-126.57211383239199 " />
			<path d="M100.40916132547862,-164.520177221733 L97.58073420073248,-165.46298626331506 " />
			<path d="M100.4091629284897,-168.76281844309506 L97.58073580374356,-169.7056274846771 " />
			<path d="M100.4091629284897,-182.43354954612926 L100.4091629284897,-178.662313379801 " />
			<path d="M100.4091629284897,-182.43354954612926 L97.58073580374355,-183.3763585877113 " />
			<path d="M-50.73491155013477,-165.87546575334426 L-46.31549416771885,-164.4023266258723 " />
			<path d="M44.017397128862584,-197.45956864634337 L97.58073580374358,-179.60512242138302 " />
			<path d="M44.017397128862584,-197.45956864634337 L43.93741451959865,-197.48495190446968 L43.85379176056105,-197.5089964004755 L43.76673030630083,-197.53164420906393 L43.67643989548696,-197.55284076968036 L43.5831380456276,-197.57253501795367 L43.48704952905135,-197.59067950871471 L43.2874445940143,-197.62214820983692 L43.07954739501539,-197.6469438122526 L42.86536009572914,-197.6648275207559 L42.64694543693437,-197.6756271054576 L42.42640687119285,-197.67923856045346 L42.20586830545134,-197.6756271054576 L41.98745364665656,-197.6648275207559 L41.77326634737031,-197.6469438122526 L41.5653691483714,-197.62214820983692 L41.36576421333436,-197.59067950871471 L41.26967569675811,-197.57253501795367 L41.17637384689875,-197.55284076968036 L41.08608343608488,-197.53164420906393 L40.999021981824654,-197.5089964004755 L40.915399222787066,-197.48495190446968 L40.83541661352314,-197.45956864634337 " />
			<path d="M40.83541661352312,-197.45956864634337 L-50.73491155013474,-166.936125925124 " />
			<path d="M-50.73491155013477,-166.9361259251241 L-50.811061324513695,-166.90946505536942 L-50.883194812531194,-166.8815908023569 L-50.95113823829649,-166.8525703176035 L-51.014727920145766,-166.8224735139989 L-51.07381066496565,-166.7913728973791 L-51.128244137248835,-166.75934339185366 L-51.177897201992785,-166.7264621593069 L-51.22265024061543,-166.692808413508 L-51.262395439126834,-166.65846322927834 L-51.29703704786251,-166.62350934717503 L-51.326491612152765,-166.58803097416163 L-51.350688173372305,-166.55211358074627 L-51.369568439885796,-166.5158436950757 L-51.38308692747748,-166.47930869448135 L-51.39121106892667,-166.44259659497973 L-51.39392129246504,-166.40579583923417 " />
			<path d="M-51.39392129246504,-166.40579583923417 L-51.39121106892667,-166.3689950834886 L-51.38308692747748,-166.332282983987 L-51.369568439885796,-166.29574798339266 L-51.350688173372305,-166.25947809772208 L-51.326491612152765,-166.22356070430672 L-51.29703704786251,-166.18808233129332 L-51.262395439126834,-166.15312844919 L-51.22265024061543,-166.11878326496034 L-51.177897201992785,-166.08512951916146 L-51.128244137248835,-166.05224828661468 L-51.07381066496565,-166.02021878108926 L-51.014727920145766,-165.98911816446946 L-50.95113823829649,-165.95902136086485 L-50.883194812531194,-165.93000087611145 L-50.811061324513695,-165.9021266230989 L-50.73491155013477,-165.87546575334426 " />
			<path d="M39.951533137039945,-195.98642951887138 L-46.31549416771881,-167.2307537506184 " />
			<path d="M39.951533137039945,-195.98642951887138 L93.3380951166243,-178.1909088590099 " />
			<path d="M79.37273618818996,-185.0851999755788 L79.27835179628262,-185.11442618034874 L79.17777310397527,-185.14125874658367 L79.07154515591593,-185.1655522662823 L78.960243610559,-185.1871750907565 L78.84447162062224,-185.20601004404702 L78.7248565645499,-185.22195505791007 L78.60204664669457,-185.234923724934 L78.47670738464173,-185.24484576678853 L78.34951800271213,-185.25166741506922 L78.22116775118648,-185.25535170267298 L78.09235217119841,-185.2558786641261 L77.96376932553677,-185.25324544377875 L77.83611601578298,-185.2474663112802 L77.7100840062828,-185.23857258425014 L77.58635627541544,-185.2266124585659 L77.4656033144746,-185.21165074718488 L77.34847949421794,-185.19376852891736 L77.23561951877537,-185.17306270905345 L77.12763498613228,-185.14964549422507 L77.02511107382713,-185.12364378434825 L76.92860336782364,-185.09519848494165 L76.83863485174233,-185.0644637435474 L76.75569307276695,-185.031606114392 L76.68022749958405,-184.99680365581474 L76.61264708667326,-184.960244965354 L76.55331805814748,-184.92212815772098 L76.50256192315271,-184.8826597911987 L76.46065373358215,-184.84205374828508 L76.42782059354609,-184.8005300766448 L76.41486471810887,-184.77949428786047 L76.40424042867514,-184.75831379665226 L76.39596212360938,-184.73701730747473 L76.3900410219258,-184.71563368198645 L76.38648514808389,-184.69419189993576 L76.38529932111351,-184.67272101988664 " />
			<path d="M76.38529932111351,-184.67272101988664 L76.38740727275446,-184.6440982098623 L76.39372604943716,-184.6155443546944 L76.40424042867514,-184.58712824312101 L76.41892508040786,-184.5589183320439 L76.43774462802305,-184.53098258160972 L76.46065373358215,-184.5033882914882 L76.48759720704322,-184.47620193874118 L76.51851013921876,-184.44948901767367 L76.55331805814748,-184.4233138820523 L76.59193710850388,-184.39773959007147 L76.63427425361303,-184.3728277524406 L76.68022749958405,-184.34863838395853 L76.72968614102238,-184.32522975893272 L76.78253102772872,-184.30265827079117 L76.89786245403705,-184.26024206419447 L77.02511107382713,-184.22179825542503 L77.1630514133292,-184.18769707937682 L77.31035503166801,-184.15826694901676 L77.4656033144746,-184.1337912925884 L77.6273011359182,-184.11450582404285 L77.79389125758529,-184.10059627298475 L77.96376932553677,-184.09219659599452 L78.13529932111351,-184.0893876865533 L78.30682931669024,-184.09219659599452 L78.47670738464173,-184.10059627298475 L78.64329750630881,-184.11450582404285 L78.80499532775241,-184.1337912925884 L78.960243610559,-184.15826694901676 L79.10754722889781,-184.18769707937682 L79.24548756839988,-184.22179825542503 L79.37273618818996,-184.26024206419447 L79.48806761449829,-184.30265827079117 L79.54091250120463,-184.32522975893272 L79.59037114264297,-184.34863838395853 L79.63632438861399,-184.3728277524406 L79.67866153372313,-184.39773959007147 L79.71728058407953,-184.4233138820523 L79.75208850300825,-184.44948901767367 L79.78300143518379,-184.47620193874118 L79.80994490864487,-184.5033882914882 L79.83285401420396,-184.53098258160972 L79.85167356181915,-184.5589183320439 L79.86635821355188,-184.58712824312101 L79.87687259278985,-184.6155443546944 L79.88319136947256,-184.6440982098623 L79.88529932111351,-184.67272101988664 " />
			<path d="M79.88529932111351,-184.67272101988664 L79.88319136947256,-184.70134382991097 L79.87687259278985,-184.72989768507887 L79.86635821355188,-184.75831379665226 L79.85167356181915,-184.78652370772937 L79.83285401420396,-184.81445945816355 L79.80994490864487,-184.84205374828508 L79.78300143518379,-184.8692401010321 L79.75208850300825,-184.8959530220996 L79.71728058407953,-184.92212815772098 L79.67866153372313,-184.9477024497018 L79.63632438861399,-184.97261428733268 L79.59037114264297,-184.99680365581474 L79.54091250120463,-185.02021228084055 L79.48806761449829,-185.0427837689821 L79.37273618818998,-185.0851999755788 " />
			<path d="M58.15953275259355,-192.15626778744428 L58.065148360686194,-192.18549399221422 L57.96456966837884,-192.21232655844915 L57.85834172031951,-192.23662007814778 L57.747040174962585,-192.258242902622 L57.63126818502582,-192.2770778559125 L57.51165312895347,-192.29302286977554 L57.388843211098155,-192.30599153679947 L57.26350394904531,-192.315913578654 L57.13631456711572,-192.3227352269347 L57.00796431559007,-192.32641951453846 L56.87914873560199,-192.32694647599158 L56.750565889940354,-192.32431325564423 L56.62291258018656,-192.31853412314567 L56.49688057068637,-192.3096403961156 L56.37315283981903,-192.29768027043139 L56.25239987887818,-192.28271855905035 L56.13527605862153,-192.26483634078284 L56.02241608317895,-192.24413052091893 L55.91443155053586,-192.22071330609054 L55.81190763823071,-192.19471159621372 L55.71539993222722,-192.16626629680712 L55.62543141614591,-192.13553155541288 L55.542489637170526,-192.10267392625747 L55.46702406398764,-192.06787146768022 L55.399443651076844,-192.03131277721948 L55.34011462255106,-191.99319596958645 L55.28935848755629,-191.95372760306418 L55.24745029798572,-191.91312156015056 L55.21461715794966,-191.87159788851028 L55.20166128251246,-191.85056209972595 L55.19103699307872,-191.82938160851774 L55.18275868801297,-191.8080851193402 L55.17683758632938,-191.78670149385192 L55.17328171248748,-191.76525971180124 L55.17209588551709,-191.7437888317521 " />
			<path d="M55.17209588551709,-191.7437888317521 L55.17420383715804,-191.71516602172778 L55.18052261384074,-191.68661216655988 L55.19103699307872,-191.6581960549865 L55.20572164481143,-191.62998614390938 L55.224541192426635,-191.6020503934752 L55.24745029798572,-191.57445610335367 L55.2743937714468,-191.54726975060666 L55.305306703622335,-191.52055682953915 L55.34011462255106,-191.49438169391777 L55.378733672907465,-191.46880740193694 L55.42107081801661,-191.44389556430608 L55.46702406398764,-191.419706195824 L55.51648270542596,-191.3962975707982 L55.569327592132296,-191.37372608265665 L55.68465901844063,-191.33130987605995 L55.81190763823071,-191.2928660672905 L55.94984797773279,-191.2587648912423 L56.09715159607159,-191.22933476088224 L56.25239987887818,-191.20485910445387 L56.414097700321776,-191.18557363590833 L56.58068782198886,-191.17166408485022 L56.750565889940354,-191.16326440786 L56.92209588551709,-191.16045549841877 L57.09362588109382,-191.16326440786 L57.263503949045315,-191.17166408485022 L57.4300940707124,-191.18557363590833 L57.591791892155996,-191.20485910445387 L57.747040174962585,-191.22933476088224 L57.894343793301395,-191.2587648912423 L58.03228413280347,-191.2928660672905 L58.15953275259355,-191.33130987605995 L58.27486417890188,-191.37372608265665 L58.32770906560822,-191.3962975707982 L58.37716770704654,-191.419706195824 L58.423120953017566,-191.44389556430608 L58.46545809812671,-191.46880740193694 L58.50407714848311,-191.49438169391777 L58.53888506741184,-191.52055682953915 L58.56979799958737,-191.54726975060666 L58.59674147304845,-191.57445610335367 L58.61965057860754,-191.6020503934752 L58.63847012622274,-191.62998614390938 L58.65315477795546,-191.6581960549865 L58.66366915719343,-191.68661216655988 L58.669987933876136,-191.71516602172778 L58.67209588551709,-191.7437888317521 " />
			<path d="M58.67209588551709,-191.7437888317521 L58.669987933876136,-191.77241164177644 L58.66366915719343,-191.80096549694434 L58.65315477795546,-191.82938160851774 L58.63847012622274,-191.85759151959485 L58.61965057860754,-191.88552727002903 L58.59674147304845,-191.91312156015056 L58.56979799958737,-191.94030791289757 L58.53888506741184,-191.96702083396508 L58.50407714848311,-191.99319596958645 L58.46545809812671,-192.01877026156728 L58.423120953017566,-192.04368209919815 L58.37716770704654,-192.06787146768022 L58.32770906560822,-192.09128009270603 L58.27486417890188,-192.11385158084758 L58.15953275259355,-192.15626778744428 " />
			<path d="M39.951533137039945,-195.98642951887138 L39.951533137039945,-175.71603512485703 " />
			<path d="M39.951533137039945,-175.71603512485706 L93.3380951166243,-157.9205144649956 " />
			<path d="M7.071067811865484,-129.16483869674266 L-46.315494167718875,-146.96035935660413 " />
			<path d="M39.951533137039945,-175.71603512485706 L-46.31549416771881,-146.96035935660407 " />
			<path d="M-46.31549416771885,-167.23075375061848 L-46.31549416771885,-146.96035935660413 " />
			<path d="M44.017397128862584,-201.23080481267164 L97.58073580374358,-183.37635858771128 " />
			<path d="M44.017397128862584,-201.23080481267164 L43.93741451959865,-201.25618807079795 L43.85379176056105,-201.28023256680376 L43.76673030630083,-201.3028803753922 L43.67643989548696,-201.32407693600862 L43.5831380456276,-201.34377118428193 L43.48704952905135,-201.36191567504298 L43.2874445940143,-201.3933843761652 L43.07954739501539,-201.41817997858087 L42.86536009572914,-201.43606368708416 L42.64694543693437,-201.44686327178587 L42.42640687119285,-201.45047472678172 L42.20586830545134,-201.44686327178587 L41.98745364665656,-201.43606368708416 L41.77326634737031,-201.41817997858087 L41.5653691483714,-201.3933843761652 L41.36576421333436,-201.36191567504298 L41.26967569675811,-201.34377118428193 L41.17637384689875,-201.32407693600862 L41.08608343608488,-201.3028803753922 L40.999021981824654,-201.28023256680376 L40.915399222787066,-201.25618807079795 L40.83541661352314,-201.23080481267164 " />
			<path d="M40.83541661352312,-201.23080481267164 L-50.73491155013474,-170.70736209145227 " />
			<path d="M-50.73491155013477,-170.70736209145235 L-50.811061324513695,-170.6807012216977 L-50.883194812531194,-170.65282696868516 L-50.95113823829649,-170.62380648393176 L-51.014727920145766,-170.59370968032715 L-51.07381066496565,-170.56260906370736 L-51.128244137248835,-170.53057955818193 L-51.177897201992785,-170.49769832563516 L-51.22265024061543,-170.46404457983627 L-51.262395439126834,-170.4296993956066 L-51.29703704786251,-170.3947455135033 L-51.326491612152765,-170.3592671404899 L-51.350688173372305,-170.32334974707453 L-51.369568439885796,-170.28707986140395 L-51.38308692747748,-170.2505448608096 L-51.39121106892667,-170.213832761308 L-51.39392129246504,-170.17703200556244 " />
			<path d="M7.247844507162114,-124.03831453314021 L4.41941738241593,-124.98112357472228 " />
			<path d="M98.81817106780888,-154.5617567200225 L95.98974394306273,-155.50456576160454 " />
			<path d="M100.40916132547862,-157.21340714947203 L97.58073420073248,-158.15621619105409 " />
			<path d="M99.8788328425998,-168.58604174779842 L97.05040571785366,-169.52885078938047 " />
			<path d="M-50.73491155013477,-170.70736209145235 L-50.73491155013477,-166.9361259251241 " />
			<path d="M44.017397128862584,-201.23080481267164 L44.017397128862584,-197.45956864634337 " />
			<path d="M40.83541661352312,-201.23080481267164 L40.83541661352312,-197.45956864634337 " />
			<path d="M3.7079049088780454,-124.96790649766827 L6.536332033624229,-124.0250974560862 " />
			<path d="M-51.39392129246504,-166.40579583923417 L-51.39392129246504,-170.17703200556244 " />

       </g>
    </g>
    
</svg>
