<?xml version="1.0" encoding="UTF-8" standalone="no"?>
<svg
   xmlns:svg="http://www.w3.org/2000/svg"
   xmlns="http://www.w3.org/2000/svg"
   width="1024.0"
   height="320.0"

>
    <g transform="scale(48.72049626064837, -48.72049626064837)   translate(8.008791348846444,-2.8735339486490052)" stroke-width="0.05388602645769841"  fill="none">
       <!-- hidden lines -->
       <g  stroke="rgb(32,64,32)" fill="none" stroke-dasharray="0.05388602645769841,0.05388602645769841" >

       </g>

       <!-- solid lines -->
       <g  stroke="rgb(64,192,64)" fill="none">
			<path d="M-0.6901835730205417,1.1674785879642207 L-0.596120795155505,1.1744796267159479 L-0.4996050964240843,1.1793748751052906 L-0.40130414357145267,1.182152761254043 L-0.30189743971292826,1.182829918436877 L-0.10245375281494574,1.1780819781965 L0.09360686790525885,1.1657654759915501 L0.22824381555145531,1.1525140495658155 L0.36373324039758026,1.134607812143999 L0.49839638569327804,1.112021733920408 L0.6304672775826313,1.0848494971952758 L0.7581626748026544,1.0533078207630147 L0.879758149252265,1.017733132898174 L0.9936638457199327,0.9785703707537127 L1.0984931176386712,0.9363546115956456 " />
			<path d="M1.0984931176390167,0.9363546115954949 L1.1900896918432342,0.8932333108239476 L1.2714047227471255,0.848400376369721 " />
			<path d="M-0.6901835730205418,1.2499743791026514 L-0.596120795155505,1.2569754178543786 L-0.49960509642408435,1.2618706662437216 L-0.4013041435714526,1.2646485523924738 L-0.3018974397129282,1.2653257095753079 L-0.10245375281494563,1.2605777693349312 L0.09360686790525896,1.2482612671299813 L0.18668601985050923,1.2395752185395033 L0.28041205946946574,1.228668766186289 L0.37424639992977643,1.215516223748078 L0.46762145229457125,1.2001179412037961 L0.5599505078881469,1.1825018504286884 L0.6506388611699232,1.1627242611497524 L0.7390957772822035,1.140869820382303 L0.8247468311297704,1.1170505907046202 L0.9070460972602182,1.0914042512993956 L0.98548765840508,1.0640914765231788 L1.0596159280975257,1.0352925952681542 L1.1290343478317075,1.0052036760361753 L1.1934121160982678,0.974032213613829 L1.252488726161671,0.9419926108723807 L1.3060762202502296,0.9093016523877098 L1.3540591978388938,0.8761741557581384 " />
			<path d="M-1.4655920437705285,0.9514311404318399 L-1.3394460468375327,0.9836117831959523 L-1.2010665533739089,1.0119954018309498 L-1.0517850563907842,1.036114149816254 L-0.8932468756357984,1.0555903153043362 " />
			<path d="M-1.5051117965535927,0.8573435158687346 L-1.3724852238572605,0.8933315131547165 L-1.225155192645749,0.9250101739058831 L-1.0647263903529436,0.9517634056825736 L-0.8932468756358007,0.9730945241659094 " />
			<path d="M-1.6642242231758786,0.9266241260730232 L-1.6090205134503697,0.9004032609782251 L-1.5501018756571032,0.87509659171031 L-1.4876043419345282,0.8507625466455349 L-1.4216722074238513,0.8274573085523966 L-1.3524576971184847,0.8052346848761043 L-1.2801206144049482,0.7841459835072309 L-1.1267536068825674,0.7455623767633013 L-0.9629867505031375,0.712062612033943 L-0.7903316007156392,0.6839558895629402 L-0.6103817512314319,0.6615016322301303 L-0.42479812527727145,0.6449070910982422 " />
			<path d="M-1.6138645718975222,1.5632356732650985 L-1.5431100898404113,1.5878636322129285 L-1.4662560939773406,1.6112092246368432 L-1.3835032214944447,1.6331016129264149 L-1.2951249729512535,1.6533783299497378 L-1.2014663786743707,1.6718886617662507 L-1.1029406261562207,1.6884968932715356 L-1.0000236605767587,1.70308528362784 L-0.893246875635812,1.7155566444117782 " />
			<path d="M-1.8594932725783453,1.3578096488377822 L-1.8181940630645286,1.3846161447817857 L-1.7723373676823613,1.410513036112145 L-1.722254328375647,1.4354204802698898 L-1.668296512700255,1.4592702199384295 L-1.5955304314266516,1.4874484350437478 L-1.5152002278560408,1.5142187317798264 L-1.4275099389049575,1.5393459187244831 L-1.3327717282865075,1.5626040926225309 L-1.2314055574356275,1.5837822235549743 L-1.1239352226865444,1.6026896160414668 L-1.0109806886807462,1.6191609802970959 L-0.8932468756357984,1.6330608532733513 " />
			<path d="M-0.8932468756352235,1.0555903153043964 L-0.771509289106177,1.0668165979421145 L-0.6465970922477526,1.0753030219890312 L-0.5193743902884786,1.0810204229949634 L-0.39072060728083724,1.0839767697715499 L-0.2615108752834326,1.084215977463144 L-0.13259732363454357,1.0818156038881988 L-0.004792057068747626,1.0768835902236735 L0.12114754039775932,1.0695542523299326 L0.26889507443923233,1.0575081337310994 L0.41766670221404645,1.0412499897820773 L0.5661556287075771,1.0207245875400766 L0.7129832752149698,0.9959520317268267 L0.8567371271184685,0.9670321485772665 L0.9960128388584569,0.9341454681551218 L1.129458154498158,0.8975504970594109 L1.2558158752482487,0.8575772740551435 " />
			<path d="M-0.8932468756352259,0.9730945241659698 L-0.7715092891061239,0.9843208068036922 L-0.6465970922477025,0.9928072308506076 L-0.5193743902884321,0.9985246318565383 L-0.39072060728079516,1.0014809786331236 L-0.26151087528339567,1.001720186324716 L-0.13259732363451257,0.9993198127497698 L-0.0047920570687231155,0.9943877990852432 L0.1211475403977168,0.9870584611915056 L0.2521678624155286,0.9765789574196789 L0.3841071931898097,0.962790845605581 L0.516062903383755,0.9456469537213538 L0.6470829313800579,0.9251459937472141 L0.7761857768679524,0.90133546470889 L0.90238293423787,0.8743129696889386 L1.0247027878503774,0.8442257662371755 L1.1422148210730139,0.811268477642532 " />
			<path d="M-0.893246875635237,1.7155566444118384 L-0.7715092891061368,1.7267829270495616 L-0.6465970922477173,1.7352693510964778 L-0.5193743902884492,1.7409867521024094 L-0.3907206072808149,1.7439430988789955 L-0.26151087528341815,1.744182306570589 L-0.13259732363453763,1.7417819329956432 L-0.004792057068750895,1.7368499193311178 L0.12114754039774611,1.7295205814373766 L0.2796117321846482,1.716443306432009 L0.43914688036261706,1.698517834148639 L0.5981315126504788,1.6756859287048484 L0.754856262640566,1.64798989881645 L0.9075787152602842,1.6155779655212403 L1.054583947901587,1.5787043412965343 L1.1942466342706286,1.5377236393317342 L1.3250901474374854,1.4930797705654524 " />
			<path d="M-0.8932468756352235,1.6330608532734114 L-0.771509289106177,1.6442871359111293 L-0.6465970922477526,1.6527735599580462 L-0.5193743902884786,1.6584909609639784 L-0.3907206072808373,1.661447307740565 L-0.2615108752834327,1.6616865154321592 L-0.13259732363454368,1.659286141857214 L-0.004792057068747739,1.654354128192689 L0.1211475403977591,1.6470247902989483 L0.3235818931898268,1.6294909622194578 L0.4253926595925357,1.61776030394481 L0.5270398510087069,1.6040313884615405 L0.6280834593106874,1.588307904637929 L0.7280736566756355,1.570610867332585 L0.826556907048724,1.5509789944942316 L0.9230824207743427,1.529468715555385 L1.0172087710010635,1.5061537942205785 L1.1085104755732846,1.481124563668412 L1.196584342822258,1.4544867878796417 L1.281055384715829,1.4263601782804012 L1.3615821161815358,1.3968766091390465 L1.4378610842284023,1.3661780872394973 L1.5096305031575872,1.334414540499257 L1.5766729104717825,1.3017414958682116 " />
			<path d="M-1.8161787654100237,1.413738698976558 L-1.8018604294951928,1.4361237336938748 L-1.785059857624781,1.45831623378301 L-1.7441079712634269,1.502001648218974 L-1.6935486892494265,1.5445543017578012 L-1.6336605167179121,1.5857397936712383 L-1.5647733468738367,1.6253312542227316 L-1.4872666437796251,1.663110594376366 L-1.4015673520824135,1.6988697071374306 L-1.3081475451951181,1.7324116139070398 " />
			<path d="M-1.816178765410024,1.4137386989765572 L-1.79491494992706,1.4379300637160126 L-1.770090843322584,1.4616679626139102 L-1.7417133422554714,1.4849536499423401 L-1.7097893433845976,1.5077883799733922 L-1.6743257433688383,1.5301734069791566 L-1.6353294388670692,1.552109985231723 L-1.5472134665433792,1.5943440758317373 " />
			<path d="M-1.5472134665433785,1.5943440758317375 L-1.4869782006850556,1.6188012170411348 L-1.4221770172999455,1.6420092927460985 L-1.352902007082701,1.663859025984598 L-1.2792452607279758,1.684241139794602 " />
			<path d="M-1.3081475451951132,1.7324116139070416 L-1.192473790957456,1.7678266122545117 L-1.068205021377012,1.7998434295332797 L-0.9362369307568955,1.8282312975387742 L-0.7975207079385201,1.8527856045110498 L-0.6530561804002416,1.873329369918745 L-0.5038846077823934,1.8897145200849232 L-0.35108117678096923,1.901822955460445 L-0.19574725150463695,1.909567401852269 L-0.03900243515233415,1.9128920394712605 L0.11802349977136443,1.911772905265518 L0.2741987545383698,1.9062180656393024 L0.4283976618836527,1.896267558312668 L0.5795087994979569,1.881993103740848 L0.7264430008468811,1.8634975881734055 L0.8681412055766042,1.8409143220791166 L1.0035820929227355,1.814406079281643 L1.1317894431028281,1.784163923731641 L1.2518391736337193,1.7504058323715994 L1.3628659998578885,1.7133751240194104 L1.4640696716716486,1.6733387055948359 L1.5547207415025817,1.630585148329578 L1.6341658219622648,1.5854226078270894 L1.6695039010896724,1.5620390786307954 L1.7018322952786027,1.5381766029637443 L1.7310927247724095,1.5138781987150005 L1.7572324405635085,1.4891876696404278 L1.7802043194862325,1.4641495263958144 L1.7999669491677461,1.438808906295641 L1.8164847026838724,1.4132114919421457 L1.8297278027852488,1.3874034288713721 L1.8396723755780267,1.3614312423646717 L1.846300493562346,1.3353417535756205 L1.8496002079509914,1.3091819951235548 L1.8495655702099771,1.2829991263058906 L1.8461966427822158,1.2568403480820713 L1.839499498974953,1.2307528179824132 L1.8294862120111581,1.204783565095241 L1.8161748332646201,1.1789794052855718 L1.7995893597179742,1.1533868567981835 L1.7797596907023316,1.1280520563972192 L1.7567215739964985,1.1030206761934989 L1.7305165413829517,1.0783378413094882 " />
			<path d="M1.730516541382949,1.0783378413094857 L1.6934340270809722,1.0480836471317847 L1.6515950738298593,1.0185268068896611 L1.605117196940896,0.9897503384650592 L1.554130941318917,0.9618350678677586 L1.49877951479383,0.9348594022150256 L1.4392183858851066,0.90889910950534 L1.3756148471290177,0.8840271058047549 L1.3081475451951192,0.8603132504436346 " />
			<path d="M-1.2792452607279743,1.6842411397946024 L-1.1455793807731052,1.7151010197184011 L-1.0019268115606916,1.7412461686136829 L-0.8503423639073614,1.7623323098387866 L-0.6906902151797738,1.7783927325678865 L-0.5244328248046877,1.789216942386592 L-0.3547341458479957,1.7946283847052655 L-0.18260325714802078,1.7946337635822645 L-0.007997389250453756,1.7891776884739308 L0.1654848932644151,1.7781531041008742 L0.33597842515294984,1.761389396636156 L0.5026067944450239,1.7387038371073555 L0.6640501745864098,1.710034371164594 L0.8170555289318483,1.67603798441379 L0.9613267211217692,1.636834047430432 L1.0959132591442535,1.5926263428590204 L1.1585374146224194,1.5689652306609954 L1.217780205325586,1.544388238563364 " />
			<path d="M1.2177802053255888,1.544388238563363 L1.2813882282132123,1.5151775306842832 L1.3406072300473992,1.4847738518912925 L1.3953690473448206,1.4532009875247072 L1.4453256665632177,1.4206263949812048 L1.4900799998372594,1.3872669847746815 L1.5292673164013806,1.3532823536078082 L1.5628380569171632,1.3184243368607254 L1.5907359782315529,1.2827681088752796 L1.6128695122930228,1.246481706968345 L1.6291470910500467,1.2097331684567958 L1.6394771464510984,1.1726905306575057 L1.6437681104446518,1.1355218308873485 L1.6419550080034255,1.0982956660431087 L1.6340804024262485,1.0609613069231292 L1.6201825862859671,1.023764474379705 L1.6003132125401034,0.9869727782203348 " />
			<path d="M-0.9058666578588224,0.16944896817142352 L-0.6828161270564475,0.15211293837156759 L-0.45684167277018084,0.13967676057255773 L-0.22891095230550274,0.13219368839696588 L-6.821918810194549e-16,0.1296957655086699 L0.22891095230550138,0.13219368839696588 L0.45684167277017934,0.13967676057255773 L0.682816127056446,0.15211293837156759 L0.9058666578588211,0.16944896817142352 L1.1250381285610653,0.19161061443104654 L1.3393920132778123,0.2185029775788352 L1.5480104157665011,0.25001090038719975 L1.7499999999999978,0.28599946109349106 L1.9444958155686067,0.3263145511557004 L2.130665001530522,0.3707835351688956 L2.307710352850242,0.41921599011653 L2.474873734152894,0.4714045207910238 " />
			<path d="M2.474873734152916,0.47140452079103135 L2.6314393261764195,0.5271256478919227 L2.7767366910193223,0.586140764998496 L2.9101436430589085,0.6481971603191347 L2.9722076353430267,0.6802832730832413 L3.0310889132455356,0.7130290988420043 L3.0867244252192436,0.7463995725450072 L3.13905459536441,0.7803589602531699 L3.1880233872241153,0.8148708974035433 L3.233578363789504,0.8498984277493993 L3.2756707436506405,0.8854040429338985 L3.3142554532328696,0.9213497226549817 L3.349291175062731,0.9576969753784643 L3.380740392011739,0.9944068795557297 L3.408569427470668,1.031440125301902 L3.432748481411307,1.0687570564898548 L3.4532516622970766,1.1063177132149833 L3.4700570148083365,1.144081874585277 L3.483146543352689,1.18200910179085 L3.492506231335112,1.2200587814068362 L3.49812605616728,1.2581901688832646 L3.5,1.296362432175337 L3.49812605616728,1.3345346954674093 L3.492506231335112,1.3726660829438377 L3.483146543352689,1.4107157625598241 L3.4700570148083365,1.448642989765397 L3.4532516622970766,1.4864071511356907 L3.4327484814113074,1.5239678078608192 L3.4085694274706686,1.5612847390487719 L3.380740392011748,1.5983179847949343 " />
			<path d="M3.380740392011739,1.5983179847949451 L3.3316086123299815,1.6538822924237961 L3.2742632718036906,1.7085651906594754 L3.208845746416174,1.7622318673544357 L3.1355173128621434,1.814750015696669 L3.054458750945204,1.8659901603914912 L2.965869897893479,1.9158259768626675 L2.869969155692122,1.96413460268593 L2.766992952647326,2.0107969404871002 " />
			<path d="M2.766992952647324,2.0107969404871016 L2.6776708064216197,2.047663455766148 L2.583930895650487,2.0832904344236636 L2.485927877453578,2.117619097164301 L2.383823442453241,2.150592806723769 L2.2777860480086827,2.182157161312022 L2.167990640286005,2.2122600843682427 L2.0546183656226615,2.240851910479538 L1.9378562716625376,2.2678854673215953 L1.8178969987547424,2.293316153486106 L1.6949384621252526,2.3171020120665546 L1.569183525345788,2.339203799880969 L1.4408396656386366,2.3595850522174198 L1.3101186315696332,2.3782121429954532 L1.1772360936940478,2.3950543402442 L1.0424112887317665,2.4100838568056213 L0.9058666578588277,2.42327589617925 " />
			<path d="M0.9058666578588201,2.4232758961792507 L0.6828161270564467,2.4406119259791064 L0.45684167277017856,2.4530481037781167 L0.228910952305499,2.4605311759537085 L-1.5166344462263572e-15,2.4630290988420045 L-0.22891095230550204,2.460531175953708 L-0.4568416727701816,2.4530481037781167 L-0.6828161270564498,2.4406119259791064 L-0.9058666578588241,2.42327589617925 L-1.1250381285610673,2.4011142499196274 L-1.3393920132778157,2.3742218867718385 L-1.5480104157665056,2.3427139639634738 L-1.7500000000000007,2.3067254032571824 L-1.9444958155686083,2.2664103131949735 L-2.1306650015305224,2.2219413291817784 L-2.307710352850241,2.1735088742341446 L-2.4748737341529052,2.1213203435596464 " />
			<path d="M-2.4748737341529163,2.121320343559643 L-2.626171413190062,2.06759691939864 L-2.7669929526473136,2.010796940487106 " />
			<path d="M-2.766992952647323,2.0107969404871016 L-2.8856982231839496,1.9565598575896344 L-2.994847500119537,1.9001365300176567 L-3.0940793354746767,1.8417138036973624 L-3.1830651228912767,1.7814851455666265 L-3.2615101858129654,1.7196500029089776 L-3.2966973793456056,1.6881938002429762 L-3.3291547533069084,1.6564131428836453 L-3.3588554314736476,1.6243343467012235 L-3.3857748202956093,1.591983974438834 L-3.4098906292601985,1.5593888137172929 L-3.4311828893500276,1.526575854853705 L-3.4496339695781955,1.4935722685122208 L-3.46522859158757,1.460405383205455 L-3.4779538423019813,1.427102662665202 L-3.4877991846188525,1.3936916831011787 L-3.494756466134414,1.3602001103666372 L-3.4988199258942743,1.3266556770497424 L-3.4999861991637604,1.2930861595096925 L-3.498254320214074,1.2595193548765962 L-3.493625723121962,1.2259830580341478 L-3.486104240582233,1.1925050386041645 L-3.475696100734105,1.1591130179520412 L-3.4624099220040194,1.1258346462321644 L-3.4462567059691755,1.09269747949229 L-3.427249828247715,1.0597289568558486 L-3.4054050274230816,1.026956377801068 L-3.380740392011743,0.9944068795557337 " />
			<path d="M-3.380740392011739,0.9944068795557286 L-3.349291175062731,0.9576969753784632 L-3.31425545323287,0.921349722654981 L-3.27567074365064,0.8854040429338974 L-3.2335783637895035,0.8498984277493984 L-3.188023387224115,0.8148708974035423 L-3.139054595364409,0.7803589602531682 L-3.086724425219243,0.746399572545006 L-3.0310889132455356,0.7130290988420032 L-2.972207635343026,0.6802832730832402 L-2.9101436430589085,0.6481971603191339 L-2.7767366910193236,0.5861407649984959 L-2.6314393261764204,0.5271256478919226 L-2.474873734152916,0.471404520791031 L-2.3077103528502407,0.41921599011652955 L-2.130665001530521,0.3707835351688952 L-1.9444958155686078,0.3263145511557004 L-1.7499999999999991,0.2859994610934913 L-1.5480104157665022,0.25001090038719975 L-1.3393920132778134,0.2185029775788352 L-1.1250381285610664,0.19161061443104677 L-0.9058666578588525,0.16944896817142618 " />
			<path d="M1.3081475451951134,0.8603132504436328 L1.2349016074197683,0.8371943414344027 L1.1579842240024432,0.815440570081127 L1.0776240755039557,0.7951166118110232 L0.9940600780575741,0.7762828911207263 " />
			<path d="M0.9940600780575393,0.7762828911207962 L0.8404399980653943,0.7393718627247863 L0.6773411206945675,0.708025984942266 L0.5050478016853465,0.6822764205657377 L0.32525018844676507,0.6623938234970254 L0.14091840383426665,0.6487950245078343 L-0.046392971103884406,0.6414544131216317 L-0.23539484469771482,0.6402118238242539 L-0.424798125277244,0.6449070911015372 " />
			<path d="M-1.6642242231758808,0.9266241260730226 L-1.7073991494991516,0.9547604691970549 L-1.7464885075475243,0.98338800371685 L-1.7813817596885362,1.012520019126108 L-1.8119683682897234,1.0421698049185288 L-1.8381413767181922,1.0724019992892302 L-1.8597867887351125,1.103146160134519 L-1.876783507299118,1.1342129564998802 L-1.8890104353688413,1.165413057430799 L-1.8964553976913001,1.1966270608064087 L-1.8991811895023156,1.227861810467972 L-1.8971791694937283,1.259117344404167 L-1.8904406963573788,1.2903937006036723 L-1.8789063931882644,1.3216567600645819 L-1.8626036404637445,1.352753829036452 L-1.8416539329492032,1.3835070833851533 L-1.8161787654100248,1.4137386989765564 " />
			<path d="M2.474873734152916,-2.121320343559643 L2.626171413190061,-2.06759691939864 L2.7669929526473043,-2.0107969404871096 " />
			<path d="M2.766992952647323,-2.010796940487101 L2.79998225202986,-1.9963703200926246 " />
			<path d="M2.4748737341529172,-2.121320343559643 L2.307710352850242,-2.173508874234144 L2.1306650015305233,-2.221941329181778 L1.9444958155686078,-2.2664103131949735 L1.7499999999999991,-2.306725403257183 L1.5480104157665022,-2.342713963963474 L1.3393920132778134,-2.374221886771839 L1.1250381285610664,-2.4011142499196274 L0.9058666578588226,-2.4232758961792507 L0.6828161270564477,-2.4406119259791064 L0.45684167277018095,-2.4530481037781167 L0.22891095230550285,-2.460531175953708 L8.195749711542852e-16,-2.4630290988420045 L-0.22891095230550126,-2.460531175953708 L-0.45684167277017923,-2.4530481037781167 L-0.6828161270564458,-2.4406119259791064 L-0.9058666578587911,-2.4232758961792538 " />
			<path d="M-0.9058666578588209,-2.4232758961792507 L-1.0424112887317656,-2.4100838568056213 L-1.1772360936940487,-2.3950543402442 L-1.3101186315696354,-2.3782121429954532 L-1.4408396656386373,-2.3595850522174193 L-1.5691835253457873,-2.339203799880969 L-1.6949384621252503,-2.317102012066555 L-1.8178969987547389,-2.2933161534861064 L-1.937856271662536,-2.267885467321596 L-2.0546183656226615,-2.240851910479538 L-2.167990640286004,-2.2122600843682427 L-2.27778604800868,-2.1821571613120225 L-2.3838234424532376,-2.15059280672377 L-2.485927877453574,-2.1176190971643023 L-2.583930895650485,-2.0832904344236645 L-2.6776708064216184,-2.0476634557661484 L-2.7669929526473025,-2.0107969404871104 " />
			<path d="M-3.903742750776437,1.3503015964916825 L-3.903742750776437,-0.6529651181387539 " />
			<path d="M-2.789223919209788,2.0011513959606453 L-2.9300178020146332,1.9375874854782686 L-3.070417126149104,1.868397295638077 L-3.2104365119755345,1.7937665719189508 L-3.3501936739540827,1.7138722079885982 L-3.489609669066465,1.629104795239821 L-3.628477707069664,1.5399380669134932 L-3.766590997720661,1.4468457562504888 L-3.903742750776425,1.3503015964916911 " />
			<path d="M-3.903742750776437,-0.6529651181387535 L-3.839451420082784,-0.797270051023372 L-3.7748962802373396,-0.9352141926453861 L-3.710054383794294,-1.0662442494142987 L-3.6449027833078387,-1.189806927739613 L-3.5794185313321645,-1.305348934030832 L-3.513578680421462,-1.4123169746974584 L-3.4473602831299237,-1.5101577561489954 L-3.38074039201174,-1.598317984794944 " />
			<path d="M-3.380740392011739,-1.5983179847949454 L-3.3326731055669714,-1.6553841121871107 L-3.284679705919838,-1.7070177524267707 L-3.2368114509289505,-1.7533354567996928 L-3.1891195984529213,-1.7944537765916448 L-3.1416554063503623,-1.8304892630883949 L-3.0944579945008885,-1.8615824676613864 L-3.0474711159450147,-1.8880710885227554 L-3.0006699296629407,-1.9102450742056984 " />
			<path d="M-3.0006699296629398,-1.910245074205699 L-2.964795250321977,-1.9245295596524203 L-2.9290184933924994,-1.9365387782142838 L-2.857738033247043,-1.954212701730898 " />
			<path d="M-2.8577380332470406,0.04905401289953598 L-2.8577380332470406,-1.9542127017308988 " />
			<path d="M-3.380740392011739,0.9944068795557289 L-3.314206181924914,0.906425323009807 L-3.2478513936428848,0.8085622776630887 L-3.181812070404148,0.7014655619136121 L-3.116224255447201,0.5857829941594146 L-3.051096438330451,0.4621043454333322 L-2.9863262710224077,0.33100540340875007 L-2.921883540376721,0.19311301144453058 L-2.857738033247043,0.04905401289954092 " />
			<path d="M-3.903742750776437,1.3503015964916827 L-3.839451420082784,1.3346475209530182 L-3.7748962802373396,1.3119762880464232 L-3.710054383794294,1.2816775101589588 L-3.6449027833078387,1.2431407996776862 L-3.5794185313321645,1.1957557689896656 L-3.513578680421462,1.1389120304819587 L-3.4473602831299237,1.071999196541626 L-3.38074039201174,0.9944068795557304 " />
			<path d="M-2.8577380332470406,-1.9542127017308983 L-2.617799520612116,-2.0399685739684266 L-2.376876458819202,-2.1191234082746178 L-2.1348832068346364,-2.1911030131963574 L-2.0134584966974645,-2.224222669808959 L-1.8917341236247553,-2.25533319728053 L-1.7696993824873022,-2.28436282167943 L-1.6473435681558968,-2.311239769074021 L-1.5246559755013307,-2.335892265532662 L-1.4016258993943966,-2.3582485371237145 L-1.2782426347058866,-2.378236809915539 L-1.1544954763065924,-2.395785309976496 L-1.0303737190673066,-2.4108222633749463 L-0.905866657858825,-2.42327589617925 " />
			<path d="M-0.905866657858821,-2.4232758961792507 L-0.7816601627220257,-2.4330566343907356 L-0.6575576053733394,-2.4402420938241014 L-0.5336224508475236,-2.4448864282992453 L-0.4099181641793408,-2.4470437916360637 L-0.2865082104035531,-2.446768337654453 L-0.16345605455492285,-2.4441142201743102 L-0.04082516166821215,-2.4391355930155316 L0.08132100322181685,-2.4318866099980143 L0.20302505767419615,-2.422452185860048 L0.32438132568756844,-2.4109373411327746 L0.5661068808959074,-2.3820036399470097 L0.8066104258440658,-2.3457600065141215 L1.046004717529268,-2.302880940907513 " />
			<path d="M1.0460047175293974,-0.2996142262768207 L1.0460047175293976,-2.302880940907471 " />
			<path d="M-0.905866657858821,0.1694489681714234 L-0.7816601627220257,0.15704235300517175 L-0.6575576053733394,0.1420590257583927 L-0.5336224508475236,0.12456447718752411 L-0.4099181641793408,0.10462419804900414 L-0.2865082104035531,0.08230367909927076 L-0.16345605455492285,0.057668411094762076 L-0.04082516166821215,0.030783884791916016 L0.08132100322181685,0.001715590947170706 L0.20302505767419615,-0.029459168594868183 L0.32438132568756844,-0.06265222266256804 L0.5661068808959074,-0.13476603538703724 L0.8066104258440658,-0.21397148925041037 L1.046004717529268,-0.299614226276858 " />
			<path d="M-2.8577380332470406,0.049054012899535926 L-2.617799520612116,0.09194899800796213 L-2.376876458819202,0.12806707241719031 L-2.1348832068346364,0.15681874637689946 L-2.0134584966974645,0.16824796764120906 L-1.8917341236247553,0.1776145301367685 L-1.7696993824873022,0.18484474764478767 L-1.6473435681558968,0.18986493394647647 L-1.5246559755013307,0.19260140282304472 L-1.4016258993943966,0.1929804680557023 L-1.2782426347058866,0.19092844342565907 L-1.1544954763065924,0.18637164271412493 L-1.0303737190673066,0.1792363797023098 L-0.905866657858825,0.1694489681714238 " />
			<path d="M1.0460047175292762,-2.3028809409075115 L1.2214332189939932,-2.308697932747566 L1.398337846002855,-2.3076801297817 L1.5762871859893606,-2.299126822610573 L1.6655188069221976,-2.2918053832607423 L1.7548498263870076,-2.2823373018348434 L1.8442886221142734,-2.2706315170636144 L1.9338817961033266,-2.2566214292393894 L2.0236327581866274,-2.240256142029641 L2.113544918196634,-2.221484759101844 L2.2036216859658064,-2.2002563841234717 L2.2938664713266053,-2.1765201207619977 L2.3842826841114886,-2.150225072684897 L2.47487373415291,-2.1213203435596446 " />
			<path d="M2.4748737341529163,-2.1213203435596424 L2.63192256732678,-2.06503670385023 L2.7892239220201533,-2.001020291030121 " />
			<path d="M2.7892239220201596,-2.0010202910301187 L2.9317970725743074,-1.936628387573207 L3.0736685938577435,-1.86668137849382 L3.2144082427298746,-1.791569970120695 L3.354002588892804,-1.7116562815822318 L3.49266782089915,-1.627256892350139 L3.6304693306286873,-1.5386875100243766 L3.7674725099611908,-1.446263842204905 L3.9037427507764244,-1.350301596491692 " />
			<path d="M3.903742750776436,0.6529651181387528 L3.903742750776436,-1.3503015964916836 " />
			<path d="M2.4748737341529163,0.47140452079103184 L2.565746034016201,0.5003685456409857 L2.656784619432839,0.5267771205541684 L2.7478772230072765,0.5506567306969844 L2.8389115773439597,0.572033861235838 L2.9297754150473354,0.5909349973371338 L3.020356468721851,0.6073866241672763 L3.1105424709719527,0.6214152268926698 L3.2002211544020875,0.6330472906797191 L3.2894080506142265,0.642387117920601 L3.378204839050312,0.6495834591907521 L3.554695910051949,0.6579183135840365 L3.7298300023222426,0.6587971133899206 L3.9037427507764244,0.6529651181387534 " />
			<path d="M1.0460047175292762,-0.299614226276861 L1.221433218993993,-0.1768449001269957 L1.3983378460028548,-0.05992628508695358 L1.5762871859893601,0.05015330106625632 L1.7548498263870074,0.15240554055562472 L1.8442886221142731,0.20032561960257325 L1.9338817961033266,0.2460443144377168 L2.0236327581866274,0.28951300195016916 L2.113544918196634,0.33068305902904327 L2.203621685965807,0.3695058625634531 L2.2938664713266053,0.40593278944251227 L2.3842826841114886,0.43991521655533394 L2.4748737341529106,0.4714045207910298 " />
			<path d="M3.3807403920117376,1.5983179847949454 L3.33267310556697,1.6553841121871107 L3.2846797059198365,1.7070177524267707 L3.236811450928949,1.7533354567996926 L3.18911959845292,1.7944537765916446 L3.141655406350361,1.8304892630883947 L3.0944579945008877,1.8615824676613864 L3.047471115945014,1.8880710885227554 L3.00066992966294,1.9102450742056987 " />
			<path d="M3.903742750776436,0.6529651181387528 L3.839451420082783,0.7972700510233716 L3.7748962802373383,0.9352141926453859 L3.7100543837942928,1.0662442494142987 L3.6449027833078373,1.189806927739613 L3.579418531332163,1.305348934030832 L3.513578680421461,1.4123169746974584 L3.447360283129922,1.5101577561489954 L3.380740392011739,1.598317984794944 " />
			<path d="M-1.5396024865156415,0.870839984208286 L-1.5438992477967437,0.8882651085603711 L-1.545336663013177,0.9057493359617619 " />
			<path d="M-1.5453366630131773,0.905749335961892 L-1.5442637640241323,0.9208456518411717 L-1.5410447032321264,0.9359183002865106 L-1.528201568927491,0.9658672064292628 L-1.5069623310363336,0.9953491786574454 L-1.4776181417475172,1.0241282344321967 L-1.4405852179191503,1.051985439413279 L-1.3963891846038041,1.0787241607422602 L-1.3456458768977801,1.104174172173795 L-1.289039882926363,1.1281944643076953 L-1.2328158363184156,1.1485785490201443 L-1.1707472319559273,1.1678088951165484 L-1.1029917227027637,1.185710494951342 L-1.0297905075742864,1.202116655345045 L-0.951468077471726,1.2168732080886582 L-0.8684291532346979,1.22984258294728 L-0.7811527619083339,1.2409075417648676 L-0.690183573020986,1.2499743791026128 " />
			<path d="M-1.5353795781975341,0.8691479985274174 L-1.5236474695872815,0.8908296084782917 L-1.5075006203564476,0.9122317602449161 L-1.4870572010555354,0.9332640821861826 L-1.462470603902889,0.953840964405196 L-1.4339263655874923,0.9738826675396842 L-1.4016385094057537,0.9933162688738464 L-1.3658454402870601,1.012076425009014 L-1.3268055362674276,1.030105938613708 " />
			<path d="M-1.3268055362671871,1.0301059386138125 L-1.2890398829263627,1.0456986731692641 L-1.2328158363184154,1.0660827578817131 L-1.1707472319559271,1.0853131039781174 L-1.1029917227027635,1.103214703812911 L-1.0297905075742861,1.119620864206614 L-0.9514680774717257,1.1343774169502272 L-0.8684291532346976,1.1473467918088494 L-0.7811527619083337,1.158411750626437 L-0.6901835730209859,1.1674785879641822 " />
			<path d="M-2.766992952647324,2.010796940487101 L-2.789252551170987,2.001217934445389 " />
			<path d="M2.766992952647323,2.010796940487102 L3.00066749988257,1.9102394260565838 " />
			<path d="M2.766992952647324,-2.010796940487101 L2.789300160536042,-2.0011974466367244 " />
			<path d="M-2.766992952647323,-2.0107969404871016 L-3.0006674998825735,-1.9102394260565823 " />

       </g>
    </g>
    
</svg>
