<?xml version="1.0" encoding="UTF-8" standalone="no"?>
<svg
   xmlns:svg="http://www.w3.org/2000/svg"
   xmlns="http://www.w3.org/2000/svg"
   width="1024.0"
   height="320.0"

>
    <g transform="scale(48.720496260648375, -48.720496260648375)   translate(8.008791348846664,-2.873533948649005)" stroke-width="0.053886026457693345"  fill="none">
       <!-- hidden lines -->
       <g  stroke="rgb(32,64,32)" fill="none" stroke-dasharray="0.053886026457693345,0.053886026457693345" >

       </g>

       <!-- solid lines -->
       <g  stroke="rgb(64,192,64)" fill="none">
			<path d="M-0.6901835730207034,1.1674785879640854 L-0.5961207951556291,1.1744796267157949 L-0.4996050964241697,1.179374875105133 L-0.4013041435714529,1.1821527612538933 L-0.3018974397128945,1.1828299184367466 L-0.10245375281481851,1.1780819781964413 L0.0936068679053409,1.1657654759916136 L0.22824381557787896,1.1525140495627966 L0.363733240450326,1.134607812136084 L0.49839638577140377,1.1120217339057914 L0.6304672776840878,1.0848494971722729 L0.7581626749243618,1.0533078207301512 L0.8797581493902198,1.0177331328542754 L0.993663845869307,0.9785703706980005 L1.0984931177942787,0.9363546115276996 " />
			<path d="M1.0984931177946247,0.936354611527549 L1.1900896919129471,0.8932333107883454 L1.2714047227470016,0.8484003763696922 " />
			<path d="M-0.6901835730207034,1.2499743791025157 L-0.5961207951556291,1.2569754178542252 L-0.4996050964241697,1.2618706662435633 L-0.4013041435714529,1.2646485523923237 L-0.3018974397128945,1.2653257095751769 L-0.10245375281481851,1.260577769334872 L0.0936068679053409,1.2482612671300444 L0.18668601985053576,1.2395752185395355 L0.280412059469491,1.2286687661862885 L0.37424639992980707,1.2155162237480477 L0.46762145229465824,1.2001179412037293 L0.5599505078882921,1.1825018504285865 L0.6506388611700804,1.162724261149627 L0.7390957772823711,1.1408698203821577 L0.8247468311299025,1.117050590704472 L0.907046097260313,1.0914042512992512 L0.9854876584051726,1.0640914765230314 L1.059615928097608,1.0352925952680097 L1.1290343478317697,1.00520367603604 L1.1934121160982996,0.9740322136137104 L1.2524887261616617,0.9419926108722859 L1.3060762202501686,0.9093016523876468 L1.3540591978387695,0.876174155758115 " />
			<path d="M-1.4655920437710908,0.9514311404315277 L-1.3394460468379779,0.9836117831957112 L-1.201066553374248,1.0119954018307666 L-1.0517850563910363,1.0361141498161122 L-0.8932468756359919,1.0555903153042165 " />
			<path d="M-1.5051117965533594,0.857343515868647 L-1.3724852238570302,0.8933315131546256 L-1.225155192645588,0.9250101739057858 L-1.0647263903529223,0.9517634056824654 L-0.8932468756359919,0.9730945241657861 " />
			<path d="M-1.6642242231755968,0.9266241260728827 L-1.6090205134500664,0.9004032609780885 L-1.5501018756567793,0.8750965917101778 L-1.487604341934184,0.8507625466454076 L-1.421672207423487,0.8274573085522744 L-1.3524576971181013,0.8052346848759875 L-1.2801206144045454,0.7841459835071196 L-1.1267536068821313,0.7455623767632026 L-0.9629867505026719,0.7120626120338582 L-0.7903316007151464,0.6839558895628699 L-0.6103817512309161,0.6615016322300756 L-0.42479812527673855,0.644907091098204 " />
			<path d="M-1.613864571898292,1.563235673264665 L-1.5431100898410741,1.5878636322125612 L-1.4662560939779332,1.6112092246365262 L-1.3835032214949703,1.6331016129261449 L-1.2951249729516676,1.65337832994952 L-1.2014663786746742,1.671888661766077 L-1.102940626156471,1.6884968932713886 L-1.0000236605769663,1.703085283627712 L-0.893246875635992,1.715556644411661 " />
			<path d="M-1.8594932725787494,1.357809648837403 L-1.818194063064968,1.3846161447814278 L-1.772337367682798,1.410513036111815 L-1.7222543283760685,1.435420480269578 L-1.6682965127006517,1.4592702199381258 L-1.5955304314269552,1.4874484350434845 L-1.51520022785626,1.5142187317796019 L-1.4275099389051467,1.5393459187242815 L-1.3327717282866394,1.5626040926223612 L-1.2314055574357172,1.5837822235548302 L-1.123935222686662,1.6026896160413335 L-1.010980688680917,1.6191609802969686 L-0.893246875635992,1.6330608532732305 " />
			<path d="M-0.8932468756354172,1.055590315304277 L-0.7715092891063976,1.0668165979420006 L-0.6465970922479719,1.0753030219889312 L-0.5193743902886097,1.081020422994887 L-0.3907206072809199,1.0839767697715017 L-0.26151087528344963,1.0842159774631315 L-0.1325973236344201,1.0818156038882272 L-0.004792057068536357,1.0768835902237506 L0.12114754039800413,1.0695542523300698 L0.26889507443935745,1.0575081337311867 L0.41766670221419216,1.0412499897821075 L0.5661556287076993,1.0207245875400597 L0.7129832752150218,0.995952031726779 L0.8567371271185197,0.9670321485771851 L0.996012838858512,0.9341454681550133 L1.1294581544982172,0.8975504970592841 L1.2558158752483073,0.8575772740550073 " />
			<path d="M-0.8932468756354172,0.9730945241658464 L-0.7715092891063902,0.9843208068035703 L-0.6465970922478962,0.9928072308505049 L-0.5193743902885867,0.9985246318564573 L-0.3907206072808889,1.0014809786330714 L-0.26151087528341094,1.0017201863247005 L-0.13259732363443538,0.999319812749797 L-0.0047920570685439185,0.9943877990853205 L0.12114754039800413,0.9870584611916393 L0.25216786241568395,0.9765789574197704 L0.38410719318990927,0.96279084560563 L0.5160629033838132,0.945646953721364 L0.6470829313800273,0.9251459937472 L0.7761857768678454,0.9013354647088598 L0.9023829342376973,0.8743129696889003 L1.0247027878502035,0.8442257662371234 L1.1422148210728416,0.8112684776424728 " />
			<path d="M-0.8932468756354172,1.7155566444117214 L-0.7715092891063976,1.7267829270494448 L-0.6465970922479114,1.735269351096379 L-0.5193743902886098,1.740986752102331 L-0.39072060728091995,1.7439430988789457 L-0.26151087528344974,1.7441823065705755 L-0.13259732363448176,1.7417819329956732 L-0.00479205706853647,1.736849919331195 L0.1211475403980039,1.729520581437514 L0.279611732185193,1.7164433064320532 L0.4391468803634721,1.698517834148573 L0.5981315126517125,1.6756859287046464 L0.7548562626421679,1.647989898816093 L0.9075787152622252,1.6155779655207143 L1.0545839479037658,1.578704341295844 L1.1942466342729363,1.5377236393308928 L1.3250901474399557,1.4930797705644319 " />
			<path d="M-0.8932468756354172,1.6330608532732906 L-0.7715092891063976,1.6442871359110143 L-0.6465970922479719,1.652773559957945 L-0.5193743902886098,1.6584909609639007 L-0.39072060728091995,1.6614473077405154 L-0.26151087528344974,1.661686515432145 L-0.1325973236344202,1.6592861418572409 L-0.00479205706853647,1.6543541281927643 L0.1211475403980039,1.6470247902990836 L0.3235818931898673,1.629490962219532 L0.4253926595924873,1.6177603039448607 L0.5270398510085178,1.6040313884615809 L0.6280834593103669,1.5883079046379662 L0.7280736566752524,1.5706108673326158 L0.8265569070482861,1.55097899449426 L0.9230824207738005,1.52946871555543 L1.017208771000427,1.5061537942206475 L1.1085104755726172,1.4811245636684978 L1.1965843428215643,1.4544867878797487 L1.2810553847150652,1.4263601782805526 L1.361582116180711,1.396876609139249 L1.437861084227569,1.3661780872397395 L1.5096305031567476,1.3344145404995436 L1.5766729104709005,1.3017414958685685 " />
			<path d="M-1.8161787654100305,1.4137386989765461 L-1.8018604294952,1.4361237336938637 L-1.785059857624789,1.4583162337829998 L-1.7441079712634358,1.5020016482189653 L-1.6935486892494354,1.5445543017577943 L-1.6336605167179203,1.585739793671233 L-1.5647733468738438,1.6253312542227278 L-1.4872666437796302,1.6631105943763638 L-1.4015673520824163,1.6988697071374295 L-1.3081475451951181,1.7324116139070398 " />
			<path d="M-1.816178765410109,1.413738698976551 L-1.7949149499271726,1.4379300637159473 L-1.7700908433226965,1.4616679626138216 L-1.741713342255571,1.4849536499422495 L-1.7097893433846865,1.5077883799733072 L-1.674325743368933,1.5301734069790707 L-1.6353294388672004,1.552109985231616 L-1.5472134665436645,1.5943440758316278 " />
			<path d="M-1.5472134665436639,1.5943440758316283 L-1.4869782006853338,1.6188012170411785 L-1.4221770173002142,1.64200929274632 L-1.3529020070829634,1.6638590259849695 L-1.2792452607282423,1.684241139795044 " />
			<path d="M-1.308147545195113,1.7324116139070416 L-1.1924737909574707,1.7678266122545074 L-1.0682050213770438,1.7998434295332721 L-0.9362369307569457,1.8282312975387645 L-0.7975207079385905,1.8527856045110385 L-0.653056180400333,1.8733293699187334 L-0.5038846077825064,1.8897145200849126 L-0.3510811767811039,1.9018229554604367 L-0.19574725150479216,1.9095674018522635 L-0.0390024351525091,1.9128920394712594 L0.11802349977117009,1.9117729052655221 L0.2741987545381577,1.906218065639313 L0.4283976618834249,1.896267558312686 L0.5795087994977157,1.8819931037408741 L0.7264430008466297,1.8634975881734412 L0.8681412055763458,1.8409143220791624 L1.003582092922473,1.8144060792816994 L1.1317894431025666,1.7841639237317084 L1.2518391736334615,1.7504058323716785 L1.3628659998576385,1.7133751240195012 L1.4640696716714103,1.6733387055949385 L1.5547207415023598,1.6305851483296927 L1.6341658219620634,1.5854226078272158 L1.6695039010894832,1.5620390786309275 L1.7018322952784266,1.538176602963882 L1.7310927247722476,1.5138781987151435 L1.7572324405633617,1.4891876696405761 L1.7802043194861021,1.4641495263959676 L1.7999669491676331,1.4388089062957994 L1.816484702683778,1.4132114919423087 L1.8297278027851736,1.3874034288715396 L1.839672375577972,1.3614312423648431 L1.8463004935623124,1.3353417535757959 L1.8496002079509801,1.309181995123734 L1.849565570209989,1.2829991263060727 L1.8461966427822512,1.256840348082256 L1.8394994989750126,1.2307528179826004 L1.8294862120112432,1.2047835650954306 L1.8161748332647314,1.1789794052857632 L1.7995893597181118,1.1533868567983765 L1.7797596907024964,1.128052056397413 L1.7567215739966908,1.1030206761936934 L1.7305165413831725,1.078337841309683 " />
			<path d="M1.7305165413831696,1.0783378413096805 L1.693434027081192,1.0480836471319515 L1.65159507383007,1.0185268068898004 L1.6051171969410902,0.9897503384651724 L1.5541309413190862,0.961835067867846 L1.4987795147939666,0.9348594022150887 L1.4392183858852048,0.9088991095053804 L1.3756148471290697,0.8840271058047742 L1.308147545195119,0.8603132504436346 " />
			<path d="M-1.2792452607282407,1.6842411397950445 L-1.1455793807734882,1.7151010197186194 L-1.0019268115610267,1.7412461686137517 L-0.8503423639076725,1.7623323098387376 L-0.6906902151800662,1.778392732567689 L-0.524432824804864,1.7892169423862974 L-0.35473414584804897,1.7946283847050246 L-0.18260325714801748,1.7946337635820713 L-0.00799738925049695,1.7891776884739063 L0.16548489326441843,1.7781531041010021 L0.3359784251530722,1.7613893966363106 L0.5026067944452303,1.738703837107365 L0.664050174586542,1.7100343711643997 L0.8170555289318829,1.6760379844137705 L0.9613267211221306,1.6368340474302272 L1.0959132591446161,1.592626342858844 L1.158537414622575,1.5689652306607067 L1.217780205325539,1.544388238563199 " />
			<path d="M1.2177802053255418,1.544388238563198 L1.2813882282130664,1.515177530684448 L1.3406072300473861,1.4847738518916274 L1.3953690473449591,1.4532009875248566 L1.4453256665631098,1.4206263949810944 L1.4900799998368366,1.387266984774378 L1.5292673164008848,1.3532823536074858 L1.5628380569167253,1.318424336860445 L1.5907359782312172,1.2827681088750646 L1.612869512292797,1.2464817069682173 L1.6291470910499013,1.209733168456775 L1.6394771464509668,1.1726905306576099 L1.6437681104444297,1.1355218308875947 L1.641955008003098,1.0982956660434404 L1.6340804024260354,1.0609613069233683 L1.6201825862859447,1.023764474379806 L1.600313212540176,0.9869727782203768 " />
			<path d="M-0.9058666578590474,0.16944896817144395 L-0.6828161270566606,0.15211293837158202 L-0.45684167277038107,0.13967676057256684 L-0.22891095230568884,0.1321936883969701 L-1.7476516214224399e-13,0.12969576550867012 L0.22891095230534003,0.13219368839696255 L0.45684167277003446,0.13967676057255152 L0.6828161270563179,0.15211293837155937 L0.9058666578587099,0.16944896817141375 L1.125038128560971,0.1916106144310361 L1.3393920132777346,0.21850297757882453 L1.5480104157664394,0.25001090038718976 L1.7499999999999492,0.28599946109348195 L1.9444958155685703,0.3263145511556925 L2.1306650015304975,0.3707835351688896 L2.307710352850228,0.4192159901165261 L2.474873734152894,0.47140452079102413 " />
			<path d="M2.474873734152916,0.47140452079103135 L2.6314393261764315,0.5271256478919274 L2.7767366910193414,0.5861407649985042 L2.9101436430589325,0.6481971603191466 L2.9722076353430524,0.6802832730832554 L3.031088913245564,0.7130290988420204 L3.086724425219273,0.7463995725450254 L3.13905459536444,0.7803589602531902 L3.1880233872241477,0.814870897403567 L3.2335783637895363,0.8498984277494251 L3.275670743650672,0.8854040429339267 L3.314255453232901,0.9213497226550131 L3.3492911750627625,0.957696975378499 L3.380740392011769,0.9944068795557668 L3.4085694274706952,1.0314401253019414 L3.4327484814113323,1.0687570564898974 L3.453251662297099,1.1063177132150295 L3.470057014808355,1.1440818745853252 L3.483146543352704,1.1820091017909005 L3.4925062313351227,1.2200587814068902 L3.498126056167285,1.2581901688833206 L3.5,1.296362432175395 L3.4981260561672736,1.3345346954674695 L3.4925062313351,1.3726660829438997 L3.48314654335267,1.410715762559889 L3.4700570148083103,1.4486429897654638 L3.453251662297043,1.486407151135759 L3.4327484814112648,1.5239678078608905 L3.4085694274706166,1.5612847390488456 L3.380740392011687,1.5983179847950093 " />
			<path d="M3.380740392011679,1.59831798479502 L3.331608612329823,1.65388229242396 L3.2742632718034077,1.708565190659725 L3.20884574641574,1.7622318673547674 L3.135517312861534,1.8147500156970777 L3.0544587509443963,1.8659901603919722 L2.96586989789245,1.9158259768632149 L2.8699691556908498,1.9641346026865374 L2.766992952645791,2.0107969404877606 " />
			<path d="M2.7669929526457886,2.0107969404877615 L2.6776708064201156,2.0476634557667435 L2.583930895649028,2.083290434424196 L2.485927877452175,2.1176190971647726 L2.383823442451907,2.150592806724182 L2.2777860480074295,2.1821571613123796 L2.167990640284844,2.212260084368548 L2.0546183656216033,2.2408519104797935 L1.9378562716615915,2.267885467321805 L1.817896998753917,2.293316153486273 L1.694938462124558,2.3171020120666825 L1.5691835253452322,2.3392037998810613 L1.4408396656382256,2.359585052217481 L1.3101186315693736,2.378212142995488 L1.177236093693946,2.395054340244212 L1.042411288731827,2.4100838568056147 L0.9058666578590544,2.42327589617923 " />
			<path d="M0.9058666578590467,2.4232758961792302 L0.6828161270566624,2.440611925979092 L0.4568416727703819,2.4530481037781073 L0.22891095230568898,2.4605311759537036 L1.741206480494734e-13,2.463029098842004 L-0.22891095230534142,2.4605311759537116 L-0.4568416727700367,2.4530481037781224 L-0.6828161270563209,2.440611925979115 L-0.9058666578587105,2.4232758961792604 L-1.1250381285609692,2.4011142499196385 L-1.3393920132777337,2.3742218867718496 L-1.5480104157664398,2.342713963963484 L-1.7499999999999494,2.306725403257192 L-1.9444958155685708,2.2664103131949815 L-2.130665001530499,2.221941329181784 L-2.3077103528502305,2.1735088742341473 L-2.4748737341529052,2.1213203435596464 " />
			<path d="M-2.474873734152916,2.121320343559643 L-2.6261714131892333,2.067596919398953 L-2.7669929526457793,2.0107969404877655 " />
			<path d="M-2.766992952645789,2.0107969404877615 L-2.885698223182628,1.9565598575902756 L-2.994847500118417,1.9001365300182738 L-3.094079335473745,1.8417138036979495 L-3.1830651228905187,1.7814851455671787 L-3.261510185812366,1.7196500029094903 L-3.2966973793450793,1.6881938002434675 L-3.3291547533064514,1.6564131428841145 L-3.3588554314732555,1.6243343467016693 L-3.3857748202952775,1.5919839744392559 L-3.4098906292599223,1.55938881371769 L-3.4311828893498024,1.5265758548540767 L-3.4496339695780174,1.4935722685125663 L-3.465228591587434,1.4604053832057742 L-3.477953842301882,1.427102662665494 L-3.487799184618786,1.3936916831014432 L-3.494756466134375,1.3602001103668737 L-3.498819925894258,1.3266556770499505 L-3.4999861991637617,1.2930861595098724 L-3.4982543202140883,1.2595193548767474 L-3.493625723121984,1.2259830580342703 L-3.4861042405822578,1.1925050386042584 L-3.475696100734128,1.1591130179521068 L-3.462409922004035,1.1258346462322013 L-3.44625670596918,1.0926974794922986 L-3.4272498282477026,1.0597289568558292 L-3.405405027423048,1.026956377801021 L-3.380740392011683,0.9944068795556597 " />
			<path d="M-3.380740392011679,0.9944068795556547 L-3.349291175062668,0.9576969753783948 L-3.3142554532328052,0.9213497226549179 L-3.275670743650574,0.8854040429338395 L-3.2335783637894373,0.8498984277493453 L-3.188023387224049,0.8148708974034943 L-3.1390545953643447,0.7803589602531251 L-3.0867244252191814,0.7463995725449678 L-3.0310889132454775,0.71302909884197 L-2.972207635342973,0.6802832730832122 L-2.9101436430588605,0.6481971603191103 L-2.776736691019288,0.5861407649984809 L-2.6314393261764013,0.5271256478919157 L-2.474873734152917,0.47140452079103135 L-2.307710352850263,0.4192159901165361 L-2.1306650015305673,0.3707835351689073 L-1.94449581556868,0.3263145511557167 L-1.750000000000101,0.28599946109351126 L-1.548010415766636,0.25001090038722196 L-1.339392013277977,0.21850297757885806 L-1.1250381285612607,0.19161061443106897 L-0.9058666578590775,0.1694489681714466 " />
			<path d="M1.3081475451951132,0.8603132504436327 L1.2349016074197798,0.8371943414344063 L1.1579842240024671,0.8154405700811336 L1.077624075503993,0.7951166118110321 L0.9940600780576266,0.7762828911207376 " />
			<path d="M0.994060078057801,0.7762828911206359 L0.8404399980654051,0.7393718627246951 L0.6773411206945236,0.708025984942166 L0.5050478016852529,0.6822764205656944 L0.3252501884467519,0.6623938234969928 L0.14091840383423074,0.6487950245077863 L-0.04639297110398766,0.6414544131215251 L-0.2353948446977034,0.6402118238240085 L-0.4247981252767096,0.6449070911010355 " />
			<path d="M-1.6642242231757682,0.9266241260728443 L-1.7073991494990766,0.9547604691969452 L-1.7464885075476333,0.9833880037168422 L-1.7813817596888522,1.0125200191261845 L-1.8119683682901462,1.042169804918621 L-1.838141376718597,1.0724019992892873 L-1.8597867887354402,1.1031461601345405 L-1.8767835072993189,1.1342129564998618 L-1.8890104353688764,1.1654130574307326 L-1.8964553976911613,1.1966270608062943 L-1.8991811895020618,1.2278618104678247 L-1.8971791694934783,1.259117344404011 L-1.8904406963573117,1.2903937006035404 L-1.8789063931884076,1.3216567600644822 L-1.8626036404639572,1.3527538290363728 L-1.8416539329493835,1.3835070833850998 L-1.8161787654101096,1.4137386989765504 " />
			<path d="M2.474873734152916,-2.121320343559643 L2.6261714131892333,-2.0675969193989534 L2.7669929526457695,-2.0107969404877695 " />
			<path d="M2.7669929526457886,-2.0107969404877615 L2.7999822520376285,-1.9963703200891718 " />
			<path d="M2.474873734152917,-2.121320343559643 L2.30771035285023,-2.1735088742341473 L2.1306650015304984,-2.221941329181784 L1.9444958155685714,-2.2664103131949815 L1.7499999999999503,-2.306725403257192 L1.5480104157664407,-2.342713963963484 L1.3393920132777357,-2.374221886771849 L1.125038128560972,-2.4011142499196376 L0.9058666578587113,-2.4232758961792604 L0.6828161270563194,-2.440611925979115 L0.456841672770036,-2.4530481037781224 L0.22891095230534153,-2.4605311759537116 L-1.7326339529007025e-13,-2.463029098842004 L-0.2289109523056873,-2.460531175953704 L-0.45684167277037957,-2.453048103778108 L-0.6828161270566592,-2.440611925979092 L-0.9058666578590159,-2.4232758961792333 " />
			<path d="M-0.905866657859046,-2.4232758961792307 L-1.0424112887318246,-2.410083856805615 L-1.1772360936939459,-2.395054340244212 L-1.310118631569373,-2.378212142995488 L-1.4408396656382236,-2.3595850522174815 L-1.5691835253452313,-2.3392037998810618 L-1.6949384621245567,-2.317102012066683 L-1.8178969987539153,-2.2933161534862734 L-1.937856271661591,-2.267885467321805 L-2.0546183656216046,-2.240851910479793 L-2.1679906402848443,-2.2122600843685474 L-2.277786048007429,-2.18215716131238 L-2.383823442451908,-2.150592806724182 L-2.4859278774521756,-2.1176190971647726 L-2.583930895649027,-2.083290434424196 L-2.6776708064201165,-2.047663455766743 L-2.7669929526457695,-2.01079694048777 " />
			<path d="M-3.9037427507766553,1.3503015964912721 L-3.9037427507766553,-0.6529651181384879 " />
			<path d="M-2.78922391920799,2.0011513959615486 L-2.930017802013086,1.9375874854792081 L-3.0704171261478432,1.8683972956389723 L-3.2104365119745846,1.7937665719196834 L-3.3501936739533997,1.7138722079891846 L-3.489609669065996,1.629104795240311 L-3.628477707069393,1.5399380669138452 L-3.766590997720607,1.446845756250571 L-3.9037427507766433,1.3503015964912803 " />
			<path d="M-3.9037427507766553,-0.6529651181384881 L-3.8394514200829963,-0.7972700510231902 L-3.7748962802375363,-0.9352141926452846 L-3.710054383794473,-1.0662442494142708 L-3.644902783308006,-1.1898069277396481 L-3.5794185313323332,-1.3053489340309157 L-3.5135786804216536,-1.4123169746975732 L-3.4473602831301653,-1.5101577561491197 L-3.3807403920120684,-1.5983179847950533 " />
			<path d="M-3.380740392012067,-1.5983179847950546 L-3.3326731055670074,-1.6553841121873791 L-3.2846797059196793,-1.7070177524271657 L-3.2368114509286636,-1.7533354568001644 L-3.189119598452542,-1.7944537765921251 L-3.141655406349895,-1.8304892630887981 L-3.0944579945003112,-1.86158246766163 L-3.0474711159443086,-1.8880710885228746 L-3.0006699296621,-1.9102450742057318 " />
			<path d="M-3.0006699296620987,-1.910245074205732 L-2.9647952503212722,-1.9245295596523104 L-2.9290184933919328,-1.9365387782140584 L-2.8577380332467737,-1.9542127017304711 " />
			<path d="M-2.8577380332467714,0.049054012899288735 L-2.8577380332467714,-1.9542127017304713 " />
			<path d="M-3.380740392012067,0.9944068795556195 L-3.3142061819249884,0.9064253230096408 L-3.247851393642869,0.8085622776628919 L-3.1818120704041224,0.7014655619133696 L-3.1162242554471633,0.5857829941590712 L-3.0510964383303585,0.4621043454329173 L-2.9863262710222447,0.3310054034083663 L-2.9218835403764927,0.19311301144422216 L-2.8577380332467737,0.0490540128992939 " />
			<path d="M-3.9037427507766553,1.350301596491272 L-3.8394514200829963,1.3346475209528066 L-3.7748962802375363,1.3119762880463266 L-3.710054383794473,1.2816775101589122 L-3.644902783308006,1.2431407996776431 L-3.5794185313323332,1.1957557689895995 L-3.5135786804216536,1.138912030481861 L-3.4473602831301653,1.0719991965415077 L-3.3807403920120684,0.9944068795556209 " />
			<path d="M-2.8577380332467714,-1.9542127017304716 L-2.617799520612051,-2.039968573968153 L-2.37687645881927,-2.1191234082744734 L-2.134883206834782,-2.191103013196318 L-2.013458496697634,-2.224222669808963 L-1.8917341236249425,-2.2553331972805712 L-1.7696993824875014,-2.2843628216795024 L-1.6473435681561053,-2.3112397690741173 L-1.5246559755015485,-2.3358922655327765 L-1.4016258993946247,-2.358248537123841 L-1.2782426347061289,-2.3782368099156708 L-1.1544954763068553,-2.395785309976627 L-1.030373719067598,-2.4108222633750698 L-0.9058666578591557,-2.4232758961793595 " />
			<path d="M-0.9058666578591512,-2.42327589617936 L-0.781660162722004,-2.4330566343908213 L-0.6575576053730456,-2.4402420938241702 L-0.5336224508470315,-2.444886428299298 L-0.40991816417871735,-2.447043791636097 L-0.28650821040285845,-2.4467683376544587 L-0.16345605455421008,-2.4441142201742743 L-0.04082516166752792,-2.439135593015436 L0.08132100322243287,-2.431886609997836 L0.20302505767472795,-2.4224521858597936 L0.32438132568801686,-2.4109373411324784 L0.5661068808961875,-2.3820036399466886 L0.8066104258441668,-2.3457600065137885 L1.0460047175291685,-2.3028809409071003 " />
			<path d="M1.0460047175291765,-0.29961422627733864 L1.0460047175291767,-2.302880940907099 " />
			<path d="M-0.9058666578591512,0.16944896817131416 L-0.781660162722004,0.15704235300509228 L-0.6575576053730456,0.1420590257583445 L-0.5336224508470315,0.12456447718750258 L-0.40991816417871735,0.1046241980489983 L-0.28650821040285845,0.0823036790992634 L-0.16345605455421008,0.057668411094729644 L-0.04082516166752792,0.030783884791828864 L0.08132100322243287,0.0017155909469926932 L0.20302505767472795,-0.02945916859513928 L0.32438132568801686,-0.0626522226629016 L0.5661068808961875,-0.13476603538743348 L0.8066104258441668,-0.21397148925083512 L1.0460047175291685,-0.2996142262773357 " />
			<path d="M-2.8577380332467714,0.0490540128992889 L-2.617799520612051,0.09194899800784403 L-2.37687645881927,0.12806707241713783 L-2.134883206834782,0.1568187463768649 L-2.013458496697634,0.16824796764117056 L-1.8917341236249425,0.17761453013672004 L-1.7696993824875014,0.1848447476447252 L-1.6473435681561053,0.18986493394639783 L-1.5246559755015485,0.19260140282294982 L-1.4016258993946247,0.19298046805559305 L-1.2782426347061289,0.1909284434255392 L-1.1544954763068553,0.18637164271400022 L-1.030373719067598,0.17923637970218792 L-0.9058666578591557,0.16944896817131452 " />
			<path d="M1.0460047175291765,-2.302880940907099 L1.221433218993845,-2.3086979327475943 L1.3983378460026035,-2.307680129781882 L1.5762871859890342,-2.2991268226107766 L1.665518806921871,-2.2918053832609564 L1.75484982638672,-2.2823373018350934 L1.8442886221140484,-2.2706315170638955 L1.9338817961031631,-2.2566214292396594 L2.0236327581865208,-2.240256142029871 L2.1135449181965775,-2.2214847591020157 L2.2036216859657896,-2.200256384123579 L2.293866471326613,-2.1765201207620475 L2.3842826841115037,-2.150225072684907 L2.4748737341529106,-2.121320343559644 " />
			<path d="M2.4748737341529163,-2.1213203435596424 L2.6319225673258453,-2.0650367038505593 L2.789223922018353,-2.0010202910308164 " />
			<path d="M2.7892239220183592,-2.001020291030814 L2.931797072572635,-1.936628387573894 L3.0736685938562434,-1.8666813784945213 L3.2144082427285854,-1.791569970121465 L3.354002588891723,-1.7116562815830547 L3.4926678208982853,-1.6272568923509085 L3.6304693306280855,-1.5386875100249484 L3.7674725099609376,-1.4462638422050955 L3.9037427507766433,-1.3503015964912803 " />
			<path d="M3.9037427507766553,0.6529651181384881 L3.9037427507766553,-1.350301596491272 " />
			<path d="M2.4748737341529163,0.47140452079103184 L2.5657460340160796,0.5003685456409384 L2.65678461943262,0.5267771205540726 L2.7478772230069817,0.550656730696846 L2.8389115773436115,0.5720338612356705 L2.9297754150469535,0.5909349973369579 L3.020356468721452,0.6073866241671197 L3.1105424709715535,0.621415226892568 L3.200221154401702,0.6330472906797142 L3.2894080506138565,0.6423871179207015 L3.3782048390499555,0.6495834591909259 L3.5546959100516493,0.6579183135842459 L3.729830002322108,0.6587971133899936 L3.9037427507766433,0.6529651181384887 " />
			<path d="M1.0460047175291765,-0.2996142262773387 L1.2214332189938448,-0.1768449001270642 L1.3983378460026032,-0.05992628508693759 L1.5762871859890342,0.05015330106624438 L1.7548498263867196,0.15240554055568523 L1.844288622114048,0.20032561960270634 L1.9338817961031627,0.24604431443788016 L2.0236327581865203,0.28951300195033014 L2.113544918196577,0.3306830590291793 L2.203621685965789,0.369505862563551 L2.2938664713266124,0.40593278944256833 L2.3842826841115032,0.4399152165553543 L2.47487373415291,0.47140452079102985 " />
			<path d="M3.380740392012067,1.5983179847950546 L3.3326731055670074,1.6553841121873791 L3.2846797059196793,1.7070177524271655 L3.236811450928664,1.753335456800164 L3.1891195984525424,1.7944537765921247 L3.141655406349896,1.8304892630887977 L3.0944579945003117,1.8615824676616295 L3.0474711159443095,1.8880710885228744 L3.000669929662101,1.9102450742057313 " />
			<path d="M3.9037427507766553,0.6529651181384881 L3.8394514200829963,0.7972700510231902 L3.7748962802375363,0.9352141926452846 L3.710054383794473,1.0662442494142708 L3.644902783308006,1.1898069277396481 L3.5794185313323332,1.3053489340309157 L3.5135786804216536,1.4123169746975732 L3.4473602831301653,1.5101577561491197 L3.3807403920120684,1.5983179847950533 " />
			<path d="M-1.5396024865155804,0.8708399842082588 L-1.5438992477967215,0.8882651085603546 L-1.5453366630131937,0.9057493359617654 " />
			<path d="M-1.5453366630131935,0.9057493359618956 L-1.5442637640241785,0.9208456518411886 L-1.5410447032322065,0.935918300286512 L-1.5282015689276358,0.9658672064292487 L-1.506962331036544,0.9953491786574021 L-1.4776181417477803,1.024128234432122 L-1.4405852179194616,1.051985439413158 L-1.3963891846041818,1.0787241607420663 L-1.3456458768982296,1.104174172173514 L-1.2890398829268654,1.1281944643073243 L-1.2328158363188397,1.1485785490198537 L-1.170747231956276,1.167808895116327 L-1.1029917227030732,1.1857104949511679 L-1.0297905075745313,1.2021166553449136 L-0.9514680774719123,1.2168732080885531 L-0.8684291532348754,1.229842582947179 L-0.7811527619085176,1.2409075417647555 L-0.6901835730211475,1.249974379102477 " />
			<path d="M-1.535379578197628,0.8691479985274592 L-1.523647469590061,0.8908296084742287 L-1.5075006203635568,0.9122317602368762 L-1.4870572010685617,0.9332640821743193 L-1.4624706039233073,0.9538409643897211 L-1.4339263656166537,0.9738826675208506 L-1.401638509444865,0.9933162688519428 L-1.3658454403371698,1.0120764249843581 L-1.3268055363294164,1.0301059385866398 " />
			<path d="M-1.326805536329176,1.030105938586744 L-1.2890398829268654,1.0456986731688938 L-1.2328158363188397,1.066082757881423 L-1.170747231956276,1.0853131039778963 L-1.1029917227030732,1.1032147038127373 L-1.0297905075745313,1.119620864206483 L-0.9514680774719123,1.1343774169501226 L-0.8684291532348754,1.1473467918087488 L-0.7811527619085176,1.1584117506263252 L-0.6901835730211475,1.1674785879640468 " />
			<path d="M-2.76699295264579,2.0107969404877606 L-2.7892525511691457,2.0012179344461947 " />
			<path d="M2.766992952645789,2.0107969404877615 L3.000667499881907,1.9102394260570172 " />
			<path d="M2.76699295264579,-2.0107969404877606 L2.7893001605342755,-2.001197446637498 " />
			<path d="M-2.766992952645789,-2.0107969404877615 L-3.000667499881908,-1.910239426057017 " />

       </g>
    </g>
    
</svg>
