<?xml version="1.0" encoding="UTF-8" standalone="no"?>
<svg
   xmlns:svg="http://www.w3.org/2000/svg"
   xmlns="http://www.w3.org/2000/svg"
   width="1024.0"
   height="320.0"

>
    <g transform="scale(22.71580623187305, -22.71580623187305)   translate(13.66580118881431,-6.163109447709715)" stroke-width="0.06633333333333333"  fill="none">
       <!-- hidden lines -->
       <g  stroke="rgb(32,64,32)" fill="none" stroke-dasharray="0.06633333333333333,0.06633333333333333" >

       </g>

       <!-- solid lines -->
       <g  stroke="rgb(64,192,64)" fill="none">
			<path d="M-1.502547681489835,1.4199434332882837 L-1.5008465694843278,1.3081876269421233 L-1.4967617406589753,1.1957475623390237 L-1.4902965352794126,1.0827151845027925 L-1.4814562401040967,0.9691829228064255 L-1.470248084061196,0.8552436153903251 L-1.4566812323373188,0.7409904332462525 L-1.4407667788829097,0.6265168040291029 L-1.4225177373404518,0.5119163356587981 L-1.4019490304028954,0.39728273977477646 L-1.3790774776109926,0.2827097551056642 L-1.3539217815995515,0.16829107081679606 L-1.3265025128038226,0.054120249898268635 L-1.2968420926385504,-0.05970934734383704 L-1.264964775163421,-0.17310463963048484 L-1.2308966272499227,-0.28597290082454874 L-1.1946655072658183,-0.3982218357552727 L-1.1563010422946673,-0.5097596556903142 L-1.115834603909028,-0.6204951533936635 L-1.073299282517143,-0.7303377777080585 L-1.0287298603040975,-0.8391977076009073 L-0.9821627827895636,-0.9469859256131673 L-0.9336361290253956,-1.0536142906511268 L-0.8831895804574508,-1.1589956100615582 L-0.8308643884770834,-1.2630437109313086 L-0.7767033406888668,-1.3656735105530262 L-0.7207507259221035,-1.4668010859993923 L-0.6630522980147617,-1.5663437427489773 L-0.6036552383994218,-1.6642200823075979 L-0.5426081175218542,-1.7603500687698812 L-0.47996085512376596,-1.8546550942666031 L-0.415764679422189,-1.9470580432442932 L-0.35007208521890876,-2.0374833555245133 " />
			<path d="M1.0811163212161776,-3.2433489636485318 L0.983664349620115,-3.1965736794615096 L0.8866393598331714,-3.145473967065104 L0.7901564810082342,-3.090110461009381 L0.694330199033236,-3.030548855231203 L0.5992742206830229,-2.9668598251022757 L0.5051013386957182,-2.899118943566261 L0.41192329793367144,-2.827406591464469 L0.31985066278781127,-2.7518078621565296 L0.22899268598273825,-2.672412460549228 L0.13945717893822906,-2.589314596653309 L0.05135038384098256,-2.5026128737945554 L-0.03522315242159113,-2.412410171611797 L-0.12016070231595344,-2.31881352398067 L-0.20336147955818618,-2.2219339920079957 L-0.2847267587062714,-2.1218865322474674 L-0.36415999230698337,-2.0187898602930456 " />
			<path d="M-0.36415999230698826,-2.018789860293039 L-0.42941331097026825,-1.9297939582314783 L-0.49317797518313244,-1.8388016465879122 L-0.5554004440329214,-1.7458893283587407 L-0.6160284715333784,-1.651135018701365 L-0.6750111504937408,-1.5546182794276455 L-0.7322989552636863,-1.456420152198688 L-0.7878437833182612,-1.3566230904770484 L-0.8415989956478465,-1.2553108902935106 L-0.8935194559192736,-1.1525686198865457 L-0.9435615683751915,-1.0484825482735496 L-0.9916833144398682,-0.9431400728138276 L-1.0378442880006895,-0.8366296458241526 L-1.0820057293357277,-0.7290407003085099 L-1.124130557658898,-0.6204635748643977 L-1.1641834022553728,-0.5109894378287292 L-1.2021306321811058,-0.4007102107270347 L-1.2379403845015362,-0.2897184910902394 L-1.2715825910457574,-0.1781074747038196 L-1.3030290036536882,-0.06597087735462737 L-1.3322532178950433,0.04659714385890934 L-1.3592306952401916,0.15950206958714208 L-1.3839387836642831,0.2726490975937257 L-1.406356736667347,0.38594322235767364 L-1.4264657306943838,0.49928931484610195 L-1.4442488809408387,0.612592202390683 L-1.4596912555301624,0.7257567486007394 L-1.47277988805158,0.8386879332458733 L-1.483503788447522,0.951290932041066 L-1.4918539522415817,1.063471196267241 L-1.4978233680992534,1.1751345321604512 L-1.5014070237151025,1.2861871800030222 L-1.5026019100214147,1.3965358928502225 " />
			<path d="M-1.5026019100214143,1.3965358928502396 L-1.500913326313498,1.5266731705742123 L-1.4958495788513464,1.6555303058714865 L-1.4874166762411647,1.7829543977949665 L-1.4756246249043514,1.908794245836484 L-1.4604874172039481,2.032900529340234 L-1.4420230148414024,2.155125984685585 L-1.420253327543347,2.275325580029026 L-1.3952041870636693,2.3933566873979117 L-1.366905316531745,2.509079251931779 L-1.3353902951831824,2.6223559580704414 L-1.300696518514947,2.733052392491637 L-1.2628651539121336,2.8410372036049054 L-1.2219410917990425,2.9461822574124454 L-1.1779728923725263,3.0483627895519865 L-1.1310127279808146,3.147457553341277 L-1.0811163212161838,3.2433489636485207 " />
			<path d="M-1.414213562373095,-4.360491817317043 L-1.4857957974402949,-4.3354597519121 L-1.5573349140457229,-4.3081001241222605 L-1.6287878197005545,-4.278429414364264 L-1.7001114738462209,-4.246465495164209 L-1.7712629137804274,-4.212227620391812 L-1.8421992805362808,-4.175736413662602 L-1.91287784469893,-4.137013855915017 L-1.9832560321441646,-4.096083272169914 L-2.0532914496834778,-4.05296931748045 L-2.1229419106001366,-4.007697962080792 L-2.260920400387957,-3.910793411348881 L-2.39685909924024,-3.8056030715247284 L-2.530430518924626,-3.692380355350557 L-2.6613128741916214,-3.571398026266769 L-2.789190857983447,-3.4429475413009274 L-2.91375640103636,-3.307338348922249 L-3.034709414046493,-3.164897143553136 L-3.1517585106112724,-3.015967078533699 L-3.2646217092047825,-2.8609069394353033 L-3.3730271124959637,-2.7000902797147 L-3.476713562373095,-2.533904520791032 L-3.575431269096563,-2.3627500187137005 L-3.6689424130642196,-2.1870390996695734 L-3.7570217177396397,-2.0071950666530873 L-3.8394569923630226,-1.8236511796922543 L-3.9160496431373244,-1.6368496120873095 L-3.9866151516581048,-1.4472403851764992 L-4.05098351943453,-1.2552802841952566 L-4.108999677430622,-1.0614317578405652 L-4.160523859640154,-0.8661618041915393 L-4.205431939795198,-0.6699408456701473 L-4.243615730397176,-0.4732415957523942 L-4.274983243350024,-0.27653792016014933 L-4.299458911567569,-0.08030369527712289 L-4.31698377102126,0.11498833346085346 L-4.327515602789674,0.30886769045098983 L-4.331029034767604,0.5008673033404705 L-4.327515602789674,0.6905246282446628 L-4.31698377102126,0.8773827640558575 L-4.299458911567569,1.060991553158042 L-4.274983243350024,1.240908665896038 L-4.243615730397177,1.416700666186383 L-4.205431939795198,1.5879440557028177 L-4.160523859640155,1.7542262941208464 L-4.1089996774306226,1.915146792963518 L-4.080794722823157,1.9934747123499705 L-4.05098351943453,2.0703178806541485 L-4.019584024418947,2.1456300104248185 L-3.9866151516581048,2.2193657364511075 L-3.952096760368168,2.291480643088814 L-3.9160496431373244,2.361931291014731 L-3.8784955134011048,2.4306752433928653 L-3.8394569923630235,2.497671091436807 L-3.7989575953684085,2.5628784793528308 L-3.757021717739641,2.626258128648718 L-3.713674620081319,2.6877718617936486 L-3.6689424130642205,2.747382625214926 L-3.6228520416972074,2.805054511617652 L-3.575431269096563,2.8607527816139484 L-3.526708659762523,2.9144438846486636 L-3.476713562373096,2.9660954792089678 L-3.4254760921055105,3.0156764523056765 L-3.373027112495964,3.063156938214547 L-3.319398216848581,3.108508336466279 L-3.264621709204783,3.1517033290743637 L-3.2087305848845507,3.1927158969904177 L-3.151758510611272,3.2315213357770873 L-3.0937398042321647,3.268096270489075 L-3.0347094140464934,3.302418669753337 L-2.9747028977540166,3.3344678590399535 L-2.913756401036361,3.3642245331156944 L-2.8519066357842124,3.3916707676727706 L-2.7891908579834483,3.4167900301257648 L-2.7256468452735207,3.439567189570245 L-2.6613128741916228,3.4599885258970557 L-2.5962276971163325,3.4780417380567963 L-2.530430518924627,3.4937159514695137 L-2.4639609733763352,3.5070017245751464 L-2.39685909924024,3.5178910545207613 L-2.329165316176219,3.526377381981178 L-2.260920400387957,3.5324555951100582 L-2.192165460060883,3.5361220326190925 L-2.122941910600137,3.5373744859834226 L-2.0532914496834787,3.5362122007719745 L-1.9832560321441661,3.5326358771018973 L-1.9128778446989319,3.526647669216843 L-1.842199280536283,3.5182511841893294 L-1.7712629137804297,3.507451479747971 L-1.700111473846222,3.4942550612308954 L-1.6287878197005548,3.4786698776671736 L-1.5573349140457227,3.4607053169886153 L-1.485795797440295,3.4403722003748363 L-1.4142135623731085,3.4176827757349835 " />
			<path d="M-1.3435028842544394,3.3469720976163244 L-1.4259656973129524,3.372866520227228 L-1.508359269290596,3.3955528367318175 L-1.590614417245758,3.4150119982398404 L-1.672662074466544,3.431227665587913 L-1.7544333484636239,3.4441862230589315 L-1.8358595788167889,3.4538767898147023 L-1.9168723948266693,3.4602912290321957 L-1.9974037729231653,3.4634241547357436 L-2.0773860937824,3.463272936319453 L-2.156752199104271,3.4598377007560313 L-2.235435448002868,3.4531213324901704 L-2.3133697729624396,3.443129471016584 L-2.390489735311943,3.4298705061447214 L-2.4667305801715527,3.41335557095415 L-2.542028290825014,3.393598532446499 L-2.61631964247219,3.3706159799018454 " />
			<path d="M-2.616319642472213,3.370615979901838 L-2.7216911509487325,3.331778547859793 L-2.824650041470419,3.286324630953697 L-2.925016077074093,3.2343337995431996 L-3.0226135597761,3.175897067328226 L-3.1172716381443077,3.1111167320229374 L-3.208824606385857,3.0401061962761964 L-3.297112194427105,2.9629897691520597 L-3.381979848477946,2.879902448517792 L-3.463279001589367,2.790989684720362 L-3.540867333730608,2.6964071259651243 L-3.6146090209306383,2.5963203458424093 L-3.6843749730478166,2.490904553479011 L-3.750043059751488,2.380344286821975 L-3.811498324319942,2.2648330895916144 L-3.868633184880439,2.1445731724692676 L-3.9213476227390416,2.0197750591129218 L-3.9695493574705507,1.8906572176203582 L-4.013154008462043,1.7574456780849994 L-4.05208524262722,1.6203736369139268 L-4.086274908032981,1.4796810486007508 L-4.1156631532042995,1.3356142056679654 L-4.140198531898544,1.1884253075141253 L-4.159838093165835,1.0383720189206103 L-4.1745474565377805,0.8857170189908411 L-4.1843008722129715,0.7307275413115698 L-4.189081266133857,0.5736749061412078 L-4.188880269876122,0.4148340454441465 L-4.18369823529821,0.2544830216025292 L-4.173544233925375,0.09290254064799586 L-4.158436041069319,-0.06962453913446975 L-4.138400104711229,-0.23281370237036825 L-4.113471499202678,-0.39637927466036693 L-4.083693863865442,-0.5600349226739355 L-4.0491193265977214,-0.7234941553964934 L-4.0098084126204965,-0.8864708256525939 L-3.9658299385237585,-1.0486796310271904 L-3.9172608917981107,-1.2098366133080858 L-3.8641862960626145,-1.3696596555752683 L-3.806699062224805,-1.5278689760669235 L-3.744899825833458,-1.684187617957582 L-3.678896770908792,-1.8383419341910225 L-3.608805440558548,-1.9900620665191777 L-3.5347485347114427,-2.139082417908454 L-3.456855695322094,-2.2851421174865014 L-3.3752632794234305,-2.4279854772154836 L-3.2901141204238717,-2.567362439492431 L-3.2015572780671446,-2.703029014893107 L-3.1097477774924513,-2.8347477092930955 L-3.014846337851788,-2.9622879396183865 L-2.917019090959469,-3.085426437497683 L-2.816437290466416,-3.2039476401097824 L-2.7132770120682785,-3.317644067541849 L-2.6077188452722417,-3.426316685997952 L-2.4999475772620654,-3.529775256222091 L-2.3901518694147867,-3.627838666525729 L-2.278523927035386,-3.7203352498368636 L-2.1652591628875273,-3.80710308421562 L-2.0505558551094274,-3.8879902763102803 L-1.934614800113677,-3.962855227257555 L-1.8176389610786319,-4.031566880561605 L-1.6998331126467403,-4.0940049515178805 L-1.5814034824517602,-4.150060137780185 L-1.4625573901024078,-4.199634310702306 L-1.343502884254453,-4.242640687119281 " />
			<path d="M3.482500897338801,3.4589306713107897 L3.5615344199433956,3.3511406035964755 L3.638764913865808,3.2409325242766296 L3.7141275314167927,3.1283989711419204 L3.787558993296229,3.013634434600378 L3.858997641726482,2.8967352783371765 L3.928383492224242,2.777799658401484 L3.9956582839673587,2.65692744078832 L4.060765528714373,2.534220117584655 L4.123650558235667,2.4097807217501304 L4.184260570216437,2.2837137406039565 L4.242544672592908,2.1561250280906306 L4.298453926284587,2.027121715898165 L4.3519413862866525,1.896812123503441 L4.402962141088007,1.765305667220201 L4.451473350381873,1.6327127683260705 L4.497434281037265,1.4991447603457564 L4.54080634130114,1.3647137955682704 L4.581553113202525,1.229532750876646 L4.619640383131385,1.0937151329692414 L4.655036170566568,0.9573749830522227 L4.6877107549287045,0.8206267810832433 L4.717636700535523,0.6835853496466999 L4.744788879638612,0.5463657575412993 L4.76914449352229,0.40908322316090284 L4.790683091646879,0.2718530177497619 L4.809386588820283,0.13479036861336036 L4.8252392803834905,-0.001989637633849517 L4.838227855397211,-0.138372151702562 L4.8483414078185865,-0.27424265806345793 L4.855571445658624,-0.40948707110181626 L4.859911898112602,-0.5439918309111395 L4.861359120657514,-0.6776439986453081 " />
			<path d="M2.9167360201882087,-4.2718651130498255 L3.024635468335795,-4.232760214560849 L3.1305227189655174,-4.188052973494643 L3.2342710324823507,-4.137796901275801 L3.3357562294486245,-4.082052150889719 L3.434856839218078,-4.020885444883697 L3.5314542453276907,-3.9543699955047433 L3.6254328274732384,-3.8825854170696648 L3.716680099898685,-3.8056176306723213 L3.805086846033708,-3.723558761342117 L3.8905472492182644,-3.6365070277768226 L3.9729590193576954,-3.544566624781689 L4.052223515356772,-3.4478475985556063 L4.128245863186155,-3.3464657149735193 L4.20093506943994,-3.240542321022831 L4.270204130248364,-3.130204199559581 L4.335970135415322,-3.015583417558281 L4.398154367656044,-2.896817168037034 L4.456682396816152,-2.7740476058471315 L4.511484168959319,-2.647421677523693 L4.562494090216909,-2.5170909454009935 L4.609651105299223,-2.3832114062030056 L4.652898770574393,-2.245943304326284 L4.692185321627439,-2.105450940038696 L4.727463735218633,-1.9619024728235361 L4.758691785567014,-1.8154697201044647 L4.785832094891678,-1.666327951592121 L4.808852178150352,-1.5146556794985986 L4.827724481921714,-1.360634444870879 L4.842426417384888,-1.2044486002989707 L4.852940387356686,-1.0462850892588103 L4.859253807354193,-0.8863332223540589 L4.861359120657514,-0.7247844507246642 " />
			<path d="M4.861359120657514,-0.7247844507246227 L4.859882211496296,-0.5883907000625325 L4.855452724120185,-0.45112686825712034 L4.848074377811634,-0.3131082108487442 L4.837753367904691,-0.17445061717788157 L4.824498360582998,-0.03527051307699003 L4.80832048560311,0.1043152368881114 L4.789233326949224,0.24418942754525974 L4.76725291142721,0.3842346115289367 L4.742397695207455,0.5243331978966232 L4.714688548327893,0.6643675508657244 L4.6841487371701644,0.8042200885881454 L4.650803904923677,0.9437733818795656 L4.6146820500539265,1.0829102528205232 L4.575813502793193,1.2215138731465411 L4.534230899673317,1.35946786234466 L4.489969156121978,1.4966563853739925 L4.44306543714545,1.6329642499282615 L4.393559126122479,1.768277003158682 L4.341491791735455,1.902481027775937 L4.286907153066681,2.0354636374505533 L4.2298510428890195,2.167113171431582 L4.1703713691817486,2.2973190883041554 L4.108518074903938,2.4259720588071736 L4.04434309605913,2.552964057633176 L3.9779003180865358,2.678188454133327 L3.9092455306153546,2.801540101851376 L3.8384363806202053,2.922915426811391 L3.765532324017024,3.0422125144851195 L3.690594575740061,3.1593311953659757 L3.613686058341873,3.2741731290778104 L3.5348713491595127,3.3866418869478103 L3.4542166260912612,3.4966430329741764 " />
			<path d="M3.4542166260912355,3.4966430329742093 L3.339353052559768,3.64505316983652 L3.22126151990264,3.7882923314380426 L3.1001330217357888,3.9261288520123823 L2.9761634634669676,4.058339803675718 L2.849553345450997,4.184711356975969 L2.720507438713444,4.305039126726725 L2.5892344537672036,4.419128502566643 L2.4559467030575926,4.5267949637096745 L2.3208597575819043,4.627864377377074 L2.1841920982388205,4.722173280428497 L2.0461647624715154,4.80956914373672 L1.9070009867759756,4.889910618878402 L1.7669258456527044,4.963067766741899 L1.6261658875857725,5.0289222676823755 L1.4849487686379395,5.087367612884368 L1.343502884254472,5.138309276622234 " />
			<path d="M-1.4142135623730951,-5.067598598503591 L-1.3296163754754955,-5.094413373077966 L-1.2450701467599903,-5.1184434199851605 L-1.1606258037133705,-5.139674264423457 L-1.0763342124503092,-5.158093117726037 L-0.9922461470735187,-5.173688885064399 L-0.9084122590893279,-5.1864521721314585 L-0.8248830468971065,-5.196375290800339 L-0.7417088253709206,-5.203452263755402 L-0.6589396955517329,-5.207678828092767 L-0.5766255144684096,-5.209052437888116 L-0.4948158651057094,-5.207572265730271 L-0.41356002653734913,-5.203239203219594 L-0.33290694424213063,-5.196055860430916 L-0.2529052006210155,-5.186026564341334 L-0.1736029857329029,-5.173157356223789 L-0.09504806826673984,-5.157455988008041 L-0.017287766767451584,-5.138931917611192 L0.05963107886698271,-5.11759630324059 L0.13566213560013463,-5.093461996672541 L0.21075960516641246,-5.066543535510882 L0.28487825165822533,-5.036857134430072 L0.3579734287744001,-5.004420675408072 L0.43000110671344793,-4.969253696954924 L0.5009178986954661,-4.931377382343469 L0.5706810870967143,-4.890814546849342 L0.6392486491811136,-4.847589624007901 L0.7065792824131698,-4.801728650896381 L0.7726324293370812,-4.753259252450137 L0.8373683020070235,-4.702210624822399 L0.9007479059539318,-4.648613517797625 L0.9627330636743046,-4.59250021626896 L1.023286437626905,-4.533904520791032 L1.0823715527235014,-4.4728617272197635 L1.1399528183000935,-4.409408605451464 L1.1959955495554015,-4.343583377274023 L1.2504659884436897,-4.275425693343528 L1.3033313240093514,-4.204976609300201 L1.354559712151004,-4.13227856103801 L1.4041202948031848,-4.057375339142871 L1.4519832185240928,-3.9803120625148423 L1.4981196524781888,-3.9011351511901835 L1.5425018058028126,-3.8198922983796604 L1.5851029443483546,-3.7366324417399412 L1.6258974067819167,-3.651405733895379 L1.6648606200447302,-3.5642635122279462 L1.7019691141540543,-3.475258267953518 L1.7372005363406142,-3.3844436145031263 L1.7705336645130734,-3.2918742552282283 L1.8019484200414246,-3.1976059504494616 L1.8314258798516119,-3.101695483868707 L1.8589482878240777,-3.004200628364709 L1.8844990654893907,-2.9051801111928546 L1.9080628220144877,-2.8046935786100735 L1.9296253634735465,-2.70280155994616 L1.9491737013978656,-2.5995654311431684 L1.9666960605996398,-2.4950473777848425 L1.9821818862648888,-2.3893103576383443 L1.9956218503112835,-2.2824180627308475 L2.0070078570070358,-2.1744348809838443 L2.0163330478474624,-2.065425857428268 L2.0235918056862925,-1.9554566550237977 L2.0287797581192257,-1.8445935151059496 L2.031893780117707,-1.7329032174847656 L2.0329319959113246,-1.6204530402191724 L2.0318937801177066,-1.5073107190911665 L2.0287797581192253,-1.3935444068043283 L2.0235918056862925,-1.2792226319311915 L2.0163330478474624,-1.164414257634168 L2.007007857007036,-1.0491884401849738 L1.995621850311284,-0.933614587307469 L1.9821818862648888,-0.8177623163690421 L1.9666960605996402,-0.7017014124457117 L1.929625363473547,-0.4692334322003323 L1.8844990654893903,-0.23677068229753306 L1.8314258798516119,-0.004873185863161655 L1.7705336645130743,0.22590039572204967 L1.701969114154056,0.4549941086866838 L1.625897406781918,0.6818560462099698 L1.542501805802814,0.9059396780136547 L1.4519832185240933,1.1267051670013197 L1.3545597121510031,1.3436206697732165 L1.2504659884436888,1.5561636178836094 L1.1399528183000949,1.7638219767539405 L1.0823715527235018,1.8656626089066344 L1.023286437626906,1.9660954792089678 L0.962733063674305,2.065060090655296 L0.9007479059539323,2.1624968306642103 L0.8373683020070244,2.258347006986923 L0.7726324293370825,2.3525528830612865 L0.7065792824131734,2.4450577127901374 L0.6392486491811167,2.5358057747230265 L0.5706810870967147,2.6247424056207365 L0.5009178986954663,2.711814033382364 L0.43000110671344904,2.7969682093151653 L0.3579734287743985,2.8801536397276815 L0.28487825165822267,2.9613202168271298 L0.21075960516641068,3.0404190489024834 L0.13566213560013285,3.1174024897749937 L0.059631078866980713,3.1922241674984764 L-0.017287766767453583,3.2648390122920348 L-0.09504806826674028,3.3352032836884073 L-0.173602985732902,3.4032745968815963 L-0.25290520062101507,3.4690119482578825 L-0.33290694424212974,3.5323757400948765 L-0.4135600265373487,3.5933278044136983 L-0.4948158651057093,3.65183142596995 L-0.5766255144684089,3.7078513643695934 L-0.6589396955517322,3.7613538752964613 L-0.7417088253709196,3.812306730838556 L-0.8248830468971058,3.8606792389009494 L-0.9084122590893271,3.9064422616935492 L-0.9922461470735178,3.949568233282616 L-1.076334212450307,3.990031176195448 L-1.1606258037133668,4.02780671706824 L-1.2450701467599863,4.062872101327692 L-1.3296163754754946,4.095206206897503 L-1.4142135623730638,4.124789556921517 " />
			<path d="M-1.3435028842544408,4.242640687119285 L-1.1963485571504329,4.189483737386498 L-1.0494518343086867,4.128208827998285 L-0.9030698690366292,4.0589232251026415 L-0.7574589135214356,3.981748218144264 L-0.6128738702420939,3.8968189075386377 L-0.4695678457442396,3.804283968169024 L-0.32779170755888765,3.7043053891203446 L-0.18779364504072693,3.59705819010561 L-0.04981873489475919,3.482730115081288 L0.08589148784814804,3.3615213035879727 L0.2190994526557608,3.233643940391674 L0.3495719693788113,3.099321884039101 L0.4770806364671911,2.958790274977108 L0.6014022408033275,2.8122951239223974 L0.7223191484528384,2.6600928812020266 L0.8396196856484404,2.5024499878185944 L0.9530985093401425,2.339642409026061 L1.0625569666630532,2.171955151232679 L1.167803442693563,1.999681763076702 L1.2686536958850805,1.8231238215483305 L1.3649311805961377,1.6425904040574535 L1.4564673561462869,1.4583975473713306 L1.5431019818587004,1.2708676943694477 L1.6246833975730388,1.0803291295840154 L1.7010687891374994,0.8871154045141968 L1.772124438415289,0.6915647537201616 L1.8377259573678593,0.49401950271911077 L1.8977585058051496,0.29482546871974424 L1.9521169924216155,0.09433135524430936 L2.0007062587661366,-0.10711185830204983 L2.043441245823753,-0.30915153104608006 L2.080247142917604,-0.5114339779696856 L2.1110595186704098,-0.7136050890610525 L2.1358244337962473,-0.9153109492097707 L2.1544985355251614,-1.1161984577607673 L2.167049133495312,-1.3159159466424595 L2.173454256979813,-1.5141137959870652 L2.173702693348069,-1.7104450461654195 L2.1677940076943027,-1.9045660051648143 L2.155738543598881,-2.096136850246645 L2.1375574050211332,-2.2848222228306425 L2.113282419355352,-2.470291815564245 L2.0829560817146406,-2.6522209505494247 L2.046631480540154,-2.8302911477147927 L2.004372204665951,-3.004190682337913 L1.9562522320021627,-3.173615130741909 L1.9023558000313125,-3.3382679032110776 L1.8427772583445396,-3.497860763192571 L1.7776209034758301,-3.6521143318752625 L1.7070007963234148,-3.800758577262508 L1.6310405624779356,-3.9435332868826425 L1.549873175806937,-4.080188523309665 L1.4636407256745259,-4.210485061696721 L1.372494168203681,-4.334194808556473 L1.27659306201668,-4.4511012010551845 L1.226911699032389,-4.50693871016778 L1.1761052889162291,-4.560999586121572 L1.124196069172746,-4.613260166961865 L1.0712067599962467,-4.663697578706786 L1.0171605543263855,-4.712289745359024 L0.9620811076968148,-4.759015398568298 L0.9059925278813774,-4.80385408694032 L0.8489193643423538,-4.846786184988181 L0.7908865974853792,-4.887792901722256 L0.7319196277257507,-4.926856288874843 L0.6720442643709001,-4.9639592487559545 L0.6112867143238894,-4.99908554173683 L0.5496735706128877,-5.032219793357865 L0.4872318007516474,-5.063347501057878 L0.4239887349360607,-5.092455040521754 L0.3599720540819853,-5.119529671643674 L0.2952097777095646,-5.144559544103346 L0.2297302516793578,-5.1675337025527766 " />
			<path d="M0.22973025167932914,-5.167533702552786 L0.13790429529552406,-5.195940708493082 L0.044834454177268945,-5.2203608989466375 L-0.04940112425168697,-5.240773769151133 L-0.14472331373958336,-5.257162179148031 L-0.24105207564613562,-5.269512368174389 L-0.3383065261481264,-5.277813966217286 L-0.43640500415466377,-5.282060002721142 L-0.535265139875085,-5.282246912440658 L-0.634803923981932,-5.278374538434408 L-0.7349377773109156,-5.2704461321966365 L-0.8355826210393625,-5.258468350927082 L-0.9366539472841986,-5.242451251941165 L-1.038066890060202,-5.2224082842252235 L-1.1397362965389433,-5.198356277143879 L-1.2415767985485748,-5.170315426309014 L-1.3435028842544376,-5.1383092766222465 " />
			<path d="M-1.4142135623730945,4.124789556921527 L-1.4988107492705962,4.151604331495873 L-1.5833569779860066,4.1756343784030445 L-1.6678013210325315,4.196865222841324 L-1.752092912295498,4.215284076143896 L-1.8361809776721936,4.230879843482254 L-1.920014865656289,4.243643130549317 L-2.003544077848416,4.253566249218207 L-2.086718299374512,4.260643222173287 L-2.169487429193611,4.2648697865106735 L-2.251801610276844,4.266243396306051 L-2.333611259639456,4.264763224148243 L-2.4148670982077327,4.260430161637608 L-2.49552018050287,4.25324681884898 L-2.575521924123903,4.243217522759451 L-2.6548241390119354,4.230348314641969 L-2.7333790564780225,4.2146469464262895 L-2.811139357977238,4.196122876029514 L-2.8880582036116,4.1747872616589925 L-2.964089260344683,4.150652955091031 L-3.0391867299108983,4.123734493929465 L-3.1133053764026513,4.094048092848752 L-3.1864005535187676,4.061611633826859 L-3.25842823145776,4.026444655373821 L-3.3293450234397284,3.98856834076248 L-3.3991082118409315,3.948005505268472 L-3.4676757739252864,3.904780582427158 L-3.5350064071573035,3.8589196093157727 L-3.6010595540811794,3.810450210869664 L-3.6657954267510924,3.759401583242069 L-3.729175030697973,3.7058044762174434 L-3.7911601884183233,3.6496911746889285 L-3.8517135623709082,3.591095479211155 L-3.9107986774674934,3.530052685640045 L-3.968379943044077,3.4665995638719105 L-4.024422674299381,3.400774335694638 L-4.078893113187672,3.332616651764315 L-4.131758448753341,3.2621675677211623 L-4.1829868368950045,3.189469519459151 L-4.232547419547203,3.1145662975641946 L-4.280410343268134,3.03750302093635 L-4.326546777222259,2.958326109611877 L-4.370928930546915,2.877083256801545 L-4.413530069092495,2.7938234001620184 L-4.454324531526101,2.708596692317648 L-4.493287744788965,2.6214544706504093 L-4.530396238898343,2.53244922637618 L-4.565627661084963,2.4416345729259876 L-4.598960789257488,2.349065213651289 L-4.63037554478591,2.2547969088727218 L-4.659853004596172,2.15888644229217 L-4.687375412568721,2.0613915867883748 L-4.712926190234121,1.96237106961672 L-4.7364899467593125,1.861884537034137 L-4.758052488218468,1.7599925183704257 L-4.777600826142891,1.6567563895676356 L-4.795123185344773,1.5522383362095065 L-4.810609011010136,1.4465013160632032 L-4.824048975056651,1.339609021155904 L-4.8354349817525275,1.2316258394090958 L-4.844760172593084,1.1226168158537098 L-4.852018930432048,1.012647613449427 L-4.857206882865121,0.9017844735317636 L-4.860320904863747,0.7900941759107657 L-4.861359120657514,0.6776439986453958 " />
			<path d="M-4.861359120657514,0.677643998645355 L-4.859911898112602,0.543991830911147 L-4.855571445658624,0.4094870711018215 L-4.8483414078185865,0.2742426580634616 L-4.838227855397211,0.13837215170256734 L-4.825239280383492,0.0019896376338568444 L-4.809386588820285,-0.13479036861335536 L-4.790683091646879,-0.27185301774975856 L-4.769144493522291,-0.4090832231608973 L-4.744788879638613,-0.5463657575412919 L-4.7176367005355235,-0.6835853496466946 L-4.687710754928705,-0.8206267810832402 L-4.65503617056657,-0.9573749830522186 L-4.619640383131387,-1.093715132969236 L-4.581553113202526,-1.229532750876643 L-4.54080634130114,-1.364713795568269 L-4.4974342810372665,-1.4991447603457533 L-4.451473350381875,-1.6327127683260656 L-4.402962141088008,-1.7653056672201983 L-4.3519413862866525,-1.8968121235034396 L-4.298453926284587,-2.027121715898163 L-4.24254467259291,-2.1561250280906274 L-4.184260570216438,-2.2837137406039556 L-4.123650558235667,-2.409780721750131 L-4.060765528714374,-2.534220117584654 L-3.9956582839673604,-2.6569274407883174 L-3.9283834922242424,-2.777799658401483 L-3.8589976417264817,-2.8967352783371774 L-3.7875589932962295,-3.013634434600378 L-3.7141275314167936,-3.1283989711419196 L-3.638764913865807,-3.2409325242766305 L-3.5615344199433943,-3.3511406035964777 L-3.4825008973388125,-3.458930671310774 " />
			<path d="M-3.4825008973388005,-3.4589306713107906 L-3.3699461393557026,-3.604357689844212 L-3.2542283058474624,-3.7447176723180653 L-3.1355345513623574,-3.8797836095642766 L-3.014056843510998,-4.0093370546615175 L-2.8899916524903215,-4.133168476237141 L-2.7635396333253843,-4.251077597349689 L-2.6349053013428896,-4.362873719403879 L-2.5042967014013087,-4.468376030574188 L-2.3719250714125684,-4.5674138982382235 L-2.238004500699497,-4.659827144946903 L-2.102751583741587,-4.745466307485111 L-1.9663850698690715,-4.824192878603846 L-1.829125509471895,-4.895879531032899 L-1.691194897295757,-4.960410323411759 L-1.552816313402153,-5.017680887805669 L-1.4142135623731102,-5.067598598503586 " />
			<path d="M-1.4142135623730956,3.41768277573498 L-1.296934311502354,3.3754447128367384 L-1.1798447405154584,3.3269850045034306 L-1.0631342225202651,3.2723820263367025 L-0.9469915175688077,3.2117240896659642 L-0.8316044673689871,3.145109298719343 L-0.7171596914815243,3.0726453919562444 L-0.6038422854935397,2.99444956781813 L-0.49183552165691347,2.9106482951793304 L-0.3813205524755756,2.821377108804454 L-0.2724761177211561,2.7267803901432157 L-0.1654782553508256,2.627011133817214 L-0.06050001679486727,2.5222307001763 L0.04228881292551456,2.4126085543247875 L0.14272198979752515,2.298321992039534 L0.24063707968911086,2.179555853023199 L0.3358757210594048,2.0565022219564835 " />
			<path d="M0.33587572105942565,2.056502221956456 L0.4027502401863907,1.965295241582805 L0.46809911965920037,1.8720422513890895 L0.5318674883561878,1.7768215525827973 L0.5940018022541724,1.6797130985861073 L0.6544498893874633,1.5807984279018599 L0.7131609936547982,1.4801605956485817 L0.7700858174374363,1.3778841038220584 L0.8251765629926022,1.2740548303420338 L0.8783869725875437,1.1687599569435898 L0.9296723673405025,1.0620878959737508 L0.9789896847359776,0.9541282161547825 L1.0262975147827826,0.8449715673765424 L1.0715561347845304,0.7347096045810065 L1.1147275426933692,0.6234349108028806 L1.1557754890189487,0.5112409194309241 L1.1946655072658179,0.3982218357552736 L1.2313649428737126,0.2844725578666315 L1.2658429806364229,0.1700885969737186 L1.298070670576228,0.05516599720591475 L1.3280209522521518,-0.06019874503156253 L1.3556686774816518,-0.1759087620822375 L1.380990631456652,-0.2918668963746973 L1.4039655522361887,-0.40797578200234397 L1.4245741485993015,-0.5241379264780641 L1.442799116243184,-0.6402557925951834 L1.4586251523129876,-0.7562318803259843 L1.4720389682510868,-0.8719688086890086 L1.4830293009550028,-0.9873693975163806 L1.491586922234629,-1.1023367490525233 L1.4977046465608144,-1.2167743293157498 L1.5013773370987962,-1.330586049154408 L1.502601910021414,-1.4436763449294732 " />
			<path d="M1.502601910021414,-1.4436763449295076 L1.4990884780432356,-1.6333336698333922 L1.4885566462745885,-1.8201918056442659 L1.4710317868206841,-2.003800594746123 L1.4465561186029423,-2.1837177074837872 L1.4151886056499143,-2.359509707773795 L1.3770048150477754,-2.53075309728989 L1.3320967348925876,-2.6970353357075827 L1.2805725526829308,-2.8579558345499136 L1.2523675980754119,-2.9362837539361952 L1.2225563946867326,-3.013126922240207 L1.1911568996711033,-3.088439052010711 L1.158188026910219,-3.1621747780368366 L1.123669635620245,-3.234289684674381 L1.0876225183893684,-3.3047403326001343 L1.0500683886531217,-3.373484284978107 L1.011029867615016,-3.440480133021892 L0.970530470620381,-3.505687520937761 L0.9285945929915989,-3.569067170233493 L0.8852474953332683,-3.6305809033782723 L0.8405152883161628,-3.6901916667994006 L0.794424916949148,-3.7478635532019826 L0.7470041443485069,-3.8035618231981356 L0.6982815350144742,-3.8572529262327113 L0.6482864376250559,-3.908904520792882 L0.5970489673574839,-3.9584854938894596 L0.544599987747957,-4.0059659797982015 L0.4909710921005961,-4.051317378049808 L0.4361945844568238,-4.094512370657774 L0.38030346013662086,-4.135524938573712 L0.32333138586337595,-4.174330377360269 L0.26531267948430637,-4.21090531207215 L0.2062822892986731,-4.24522771133631 L0.14627577300623784,-4.277276900622829 L0.08532927628862907,-4.307033574698477 L0.023479511036530676,-4.3344798092554635 L-0.039236266764183236,-4.359599071708375 L-0.10278027947405732,-4.382376231152778 L-0.1671142505558969,-4.4027975674795155 L-0.23219942763112655,-4.420850779639187 L-0.2979966058227701,-4.436524993051842 L-0.3644661513709977,-4.449810766157417 L-0.4315680255070251,-4.460700096102981 L-0.49926180857097635,-4.469186423563349 L-0.5675067243591692,-4.47526463669219 L-0.6362616646861727,-4.4789310742011885 L-0.7054852141468442,-4.4801835275654875 L-0.7751356750634261,-4.479021242354014 L-0.8451710926026635,-4.475444918683918 L-0.9155492800478218,-4.469456710798849 L-0.9862278442103908,-4.461060225771328 L-1.0571642109661639,-4.450260521329966 L-1.1283156509002912,-4.437064102812894 L-1.1996393050458776,-4.42147891924918 L-1.27109221070063,-4.403514358570636 L-1.3426313273059771,-4.383181241956875 L-1.4142135623730683,-4.360491817317052 " />
			<path d="M1.3435028842544408,5.138309276622246 L1.241576798548577,5.170315426309013 L1.139736296538943,5.198356277143879 L1.0380668900602026,5.2224082842252235 L0.9366539472842004,5.242451251941164 L0.8355826210393623,5.258468350927082 L0.7349377773109159,5.270446132196637 L0.6348039239819331,5.2783745384344085 L0.5352651398750843,5.282246912440658 L0.4364050041546639,5.282060002721142 L0.3383065261481275,5.277813966217286 L0.24105207564613496,5.269512368174389 L0.14472331373958336,5.257162179148031 L0.04940112425168808,5.240773769151133 L-0.044834454177269834,5.2203608989466375 L-0.13790429529552428,5.195940708493082 L-0.2297302516793005,5.167533702552796 " />
			<path d="M-1.34350288425444,-5.138309276622246 L-1.4849487686379406,-5.087367612884367 L-1.6261658875857719,-5.0289222676823755 L-1.7669258456527022,-4.963067766741899 L-1.9070009867759752,-4.889910618878402 L-2.0461647624715167,-4.809569143736718 L-2.18419209823882,-4.722173280428497 L-2.3208597575819034,-4.627864377377076 L-2.455946703057592,-4.5267949637096745 L-2.5892344537672054,-4.419128502566641 L-2.7205074387134434,-4.305039126726726 L-2.8495533454509947,-4.184711356975971 L-2.9761634634669676,-4.058339803675718 L-3.1001330217357914,-3.9261288520123796 L-3.221261519902641,-3.7882923314380417 L-3.339353052559767,-3.6450531698365216 L-3.45421662609123,-3.496643032974217 " />
			<path d="M-4.861359120657514,0.7247844507246258 L-4.859253807354193,0.8863332223540598 L-4.852940387356686,1.0462850892588134 L-4.842426417384887,1.204448600298973 L-4.827724481921714,1.3606344448708794 L-4.808852178150353,1.5146556794985977 L-4.785832094891677,1.66632795159212 L-4.758691785567014,1.8154697201044652 L-4.727463735218632,1.961902472823537 L-4.692185321627439,2.1054509400386965 L-4.652898770574392,2.245943304326287 L-4.609651105299222,2.3832114062030074 L-4.562494090216908,2.517090945400996 L-4.511484168959318,2.647421677523695 L-4.456682396816151,2.7740476058471337 L-4.398154367656044,2.8968171680370354 L-4.335970135415321,3.0155834175582825 L-4.270204130248364,3.1302041995595813 L-4.200935069439941,3.2405423210228297 L-4.128245863186156,3.346465714973518 L-4.052223515356773,3.447847598555605 L-3.9729590193576962,3.5445666247816887 L-3.8905472492182653,3.6365070277768208 L-3.8050868460337073,3.723558761342117 L-3.716680099898684,3.8056176306723213 L-3.6254328274732384,3.8825854170696665 L-3.531454245327689,3.954369995504745 L-3.434856839218078,4.020885444883697 L-3.3357562294486236,4.082052150889719 L-3.2342710324823503,4.137796901275801 L-3.1305227189655183,4.188052973494642 L-3.024635468335796,4.232760214560848 L-2.9167360201882238,4.271865113049821 " />
			<path d="M-2.9167360201882095,4.2718651130498255 L-2.8249100638044053,4.300272118990121 L-2.7318402226861496,4.324692309443677 L-2.637604644257193,4.345105179648172 L-2.542282454769298,4.36149358964507 L-2.445953692862745,4.373843778671429 L-2.3486992423607536,4.382145376714325 L-2.2506007643542176,4.386391413218182 L-2.151740628633796,4.386578322937697 L-2.052201844526948,4.382705948931447 L-1.9520679911979655,4.374777542693677 L-1.851423147469518,4.362799761424121 L-1.7503518212246814,4.346782662438204 L-1.6489388784486791,4.326739694722263 L-1.547269471969937,4.302687687640918 L-1.4454289699603045,4.274646836806053 L-1.3435028842544565,4.24264068711929 " />
			<path d="M-1.3435028842544403,-4.242640687119286 L-1.2610400711959273,-4.2685351097301885 L-1.1786464992182848,-4.291221426234777 L-1.096391351263122,-4.310680587742801 L-1.014343694042336,-4.326896255090873 L-0.9325724200452572,-4.339854812561891 L-0.851146189692091,-4.349545379317663 L-0.7701333736822105,-4.355959818535156 L-0.6896019955857161,-4.359092744238704 L-0.6096196747264799,-4.358941525822414 L-0.5302535694046088,-4.355506290258992 L-0.4515703205060131,-4.348789921993131 L-0.3736359955464399,-4.338798060519544 L-0.296516033196937,-4.325539095647682 L-0.2202751883373284,-4.309024160457111 L-0.1449774776838657,-4.289267121949459 L-0.07068612603667845,-4.266284569404802 " />
			<path d="M-0.07068612603666713,-4.266284569404799 L0.016127091994168286,-4.234835942708406 L0.1013310236812559,-4.1989049420262425 L0.18482481987733235,-4.158534096038704 L0.2665096555871007,-4.113771188519514 L0.3462888469385563,-4.064669201777855 L0.42406796562002635,-4.011286253947408 L0.4997549506474859,-3.9536855301965144 L0.5732602173298569,-3.891935207940899 L0.6444967633033094,-3.82610837614746 L0.7133802715090749,-3.7562829488246474 L0.7798292099928708,-3.682541572801819 L0.843764928407819,-3.6049715299067344 L0.905111751106632,-3.523664633656964 L0.9637970667128883,-3.4387171205874996 L1.0197514140653638,-3.350229536343192 L1.0729085644337115,-3.258306616670829 L1.123205599908167,-3.1630571634517244 L1.1705829878704923,-3.0645939159215434 L1.214984651458025,-2.9630334172298074 L1.2563580359374178,-2.8584958764969866 L1.2946541709095192,-2.7511050265324832 L1.3298277282717523,-2.640987977381905 L1.3618370758694034,-2.5282750658769704 L1.390644326772308,-2.4130997013661157 L1.4162153841186071,-2.295598207808421 L1.4385199814725038,-2.175909662417729 L1.457531718648249,-2.0541757310479594 L1.473228092957947,-1.9305405005144545 L1.4855905258462088,-1.8051503080498272 L1.4946043848801154,-1.6781535680961728 L1.5002590010684689,-1.5497005966386297 L1.5025476814898353,-1.4199434332882968 " />
			<path d="M0.35007208521889877,2.0374833555245266 L0.25763949893784255,2.155798104971341 L0.16266676736888397,2.2699823007328543 L0.06530456077040259,2.3798547943678883 L-0.034292659797236835,2.4852412777699944 L-0.13596688751766828,2.5859745596999444 L-0.2395568204897236,2.6818948310276323 L-0.3448981176261472,2.7728499182625703 L-0.45182365937382807,2.8586955249707366 L-0.5601638128419737,2.9392954606948307 L-0.669746700917591,3.014521857014732 L-0.7803984749413058,3.0842553704053746 L-0.8919435905109849,3.1483853715702583 L-1.004205085975579,3.2068101209501916 L-1.1170048631773508,3.259436930128833 L-1.2301639699971463,3.306182308878981 L-1.343502884254414,3.346972097616316 " />
			<path d="M3.4825008973387988,3.4589306713107906 L3.454216626091185,3.4966430329741702 " />
			<path d="M4.8613591206575135,-0.6776439986453513 L4.86135912065745,-0.7247844507246235 " />
			<path d="M2.916736020188209,-4.271865113049826 L0.22973025167932892,-5.167533702552786 " />
			<path d="M-0.22973025167932867,5.167533702552785 L-2.9167360201882087,4.2718651130498255 " />
			<path d="M-3.4825008973388494,-3.458930671310828 L-3.4542166260912355,-3.4966430329742075 " />
			<path d="M-4.861359120657576,0.6776439986453511 L-4.861359120657512,0.7247844507246233 " />

       </g>
    </g>
    
</svg>
