<?xml version="1.0" encoding="UTF-8" standalone="no"?>
<svg
   xmlns:svg="http://www.w3.org/2000/svg"
   xmlns="http://www.w3.org/2000/svg"
   width="1024.0"
   height="320.0"

>
    <g transform="scale(24.111018174206905, -24.111018174206905)   translate(11.830496754658586,-5.9243251243058515)" stroke-width="0.06666666666666667"  fill="none">
       <!-- hidden lines -->
       <g  stroke="rgb(32,64,32)" fill="none" stroke-dasharray="0.06666666666666667,0.06666666666666667" >

       </g>

       <!-- solid lines -->
       <g  stroke="rgb(64,192,64)" fill="none">
			<path d="M2.220446049250313e-16,-3.7712361663282534 L-0.11831503686754474,-3.72849691026169 L-0.23642295473025476,-3.6792306514570985 L-0.35411699716004974,-3.6235236340535657 L-0.4711911322476434,-3.5614733772026077 L-0.5874404132762592,-3.493188504353863 L-0.70266133749564,-3.4187885531019124 L-0.8166522023682848,-3.3384037659270946 L-0.9292134586642932,-3.252174862196654 L-1.040148059786679,-3.1602527918253407 L-1.1492618067156504,-3.062798471026695 L-1.2563636879680007,-2.9599825006176124 L-1.3612662139764844,-2.851984867369311 L-1.4637857453038254,-2.738994628927507 L-1.5637428141167988,-2.6212095828533695 L-1.6609624383576116,-2.4988359203646273 L-1.7552744280626196,-2.3720878653829724 L-1.846513683292127,-2.241187299519631 L-1.9345204831497451,-2.106363373655604 L-2.0191407653853313,-1.9678521067965264 L-2.100226396092077,-1.8258959729043702 L-2.177635429025592,-1.6807434764292921 L-2.2512323540910377,-1.5326487172846694 L-2.3208883345633295,-1.3818709460268763 L-2.38648143262511,-1.228674110018487 L-2.447896822827692,-1.0733263913693847 L-2.50502699310129,-0.9160997374646351 L-2.5577719329626536,-0.7572693849009754 L-2.6060393085906264,-0.5971133776653023 L-2.6497446244631613,-0.43591208039862284 L-2.688811371272826,-0.27394768759752886 L-2.723171159861865,-0.11150372961237842 L-2.752763840942347,0.05113542369303137 L-2.7775376103918394,0.21368506075141458 L-2.7974490999402515,0.37586062670013354 L-2.8124634530891273,0.5373782215150066 L-2.822554386130454,0.697955096997772 L-2.827704234158193,0.8573101517472046 L-2.827903981991968,1.0151644232473902 L-2.8231532799587886,1.1712415762117265 L-2.813460444505182,1.3252683863277708 L-2.7988424436386525,1.4769752185561125 L-2.779324867223954,1.6260964991459421 L-2.754941882186196,1.7723711805410616 L-2.725736172699171,1.9155431983624644 L-2.6917588654636315,2.0553619196674844 L-2.6530694402063135,2.191582581700848 L-2.6097356255563837,2.323966720369527 L-2.5618332804815918,2.4522825876913297 L-2.509446261491675,2.576305557486457 L-2.4526662758414917,2.695818518601832 L-2.3915927209908547,2.81061225497983 L-2.3263325106021133,2.9204858119060773 L-2.256999887380073,3.0252468477951693 L-2.1837162230819063,3.124711970898488 L-2.1066098060471328,3.218707060344687 L-2.0258156166196333,3.3070675709508284 L-1.9414750908548226,3.389638821270599 L-1.8537358729256317,3.4662762643753307 L-1.7627515566607386,3.5368457408938307 L-1.6686814166674886,3.601223713868031 L-1.5716901295102144,3.659297485013346 L-1.47194748543203,3.7109653920051446 L-1.3696280911247627,3.756136986445985 L-1.2649110640673638,3.794733192202051 " />
			<path d="M-1.2649110640673524,3.794733192202055 L-1.191081149386907,3.817572995973147 L-1.116251126377254,3.837207319955905 L-1.040483827137892,3.8536196779092684 L-0.9638428707657147,3.86679628896205 L-0.8863926099363255,3.8767260891842485 L-0.8081980768693982,3.88340074087703 L-0.7293249287234392,3.8868146395735983 L-0.6498393924658135,3.886964918745067 L-0.5698082092643284,3.883851452207379 L-0.4892985784470557,3.8774768542272624 L-0.40837810107744943,3.867846477327117 L-0.32711472319215373,3.854968407790701 L-0.2455766787491367,3.838853458873362 L-0.16383243233406797,3.819515161722532 L-0.08195062167305678,3.7969697540161076 L-1.2878587085651816e-14,3.771236166328258 " />
			<path d="M0.7071067811865477,-3.5355339059327373 L0.5949832070658867,-3.495195039045793 L0.48303590015602094,-3.4489909037182533 L0.3714408505616167,-3.396994136539929 L0.2603734946107159,-3.3392864805803995 L0.1500084390548182,-3.275958656882383 L0.04051918657313125,-3.207110221841014 L-0.06792213698749949,-3.13284941069324 L-0.17514505320815954,-3.053292967363388 L-0.28098099910355556,-2.968565960932394 L-0.38526359211648575,-2.8788015890192225 L-0.4878288916845024,-2.7841409683835736 L-0.588515656967568,-2.6847329130790705 L-0.6871656003315287,-2.5807337005056863 L-0.7836236361889133,-2.4723068257291887 L-0.877738124805858,-2.3596227444538505 L-0.9693611106918798,-2.2428586050524655 L-1.058348555197715,-2.1221979700749674 L-1.1445605629555786,-1.9978305276734438 L-1.2278616018058557,-1.8699517933972125 L-1.30812071586447,-1.7387628028267723 L-1.3852117313959984,-1.6044697955298186 L-1.459013455168849,-1.467283890836171 L-1.5294098649807042,-1.3274207559413367 L-1.596290292054682,-1.1851002668604578 L-1.6595495950194907,-1.0405461627656576 L-1.7190883252000604,-0.8939856942501987 L-1.7748128829587984,-0.7456492660724101 L-1.8266356648416942,-0.5957700749410069 L-1.8744752012979449,-0.44458374291124464 L-1.9182562847565907,-0.29232794696823733 L-1.9579100878588225,-0.13924204537976081 L-1.993374271660088,0.014433298594055566 L-2.0245930836318857,0.1684564950425929 L-2.051517445309194,0.32258540720336576 L-2.0741050294457346,0.47657773212034865 L-2.092320326555787,0.6301913815635709 L-2.106134700737929,0.7831848626111391 L-2.1155264346929674,0.9353176572953934 L-2.12048076386526,1.086350600716359 L-2.120989899653781,1.236046257028063 L-2.1170530416564177,1.3841692927066362 L-2.108676378928275,1.5304868465134127 L-2.095873080251977,1.6747688955713829 L-2.078663273435297,1.8167886169795195 L-2.057074013668634,1.956322744396496 L-2.031139240992088,2.093151919033197 L-2.0008997269390187,2.2270610345022446 L-1.9664030104399282,2.357839574982424 L-1.9277033230874738,2.4852819461663533 L-1.8848615038800705,2.609187798471157 L-1.8379449035781295,2.7293623420040034 L-1.787027278823286,2.8456166527873648 L-1.7321886761870684,2.957767969762603 L-1.6735153063312969,3.0656399821049423 L-1.6110994084780401,3.1690631063981574 L-1.5450391054021937,3.267874753233251 L-1.4754382491746427,3.3619195828119866 L-1.4024062578985146,3.4510497491534475 L-1.3260579436951843,3.5351251325197306 L-1.2465133322104576,3.614013559695355 L-1.1638974739246635,3.687591011774115 L-1.0783402475633215,3.7557418191267042 L-0.989976155917415,3.818358843242599 L-0.8989441143942716,3.875343645160357 " />
			<path d="M0.7071067811865468,4.949747468305833 L0.8550005772709768,4.896323398222629 L1.0026354745993646,4.834740574716889 L1.1497530276366088,4.765106802962473 L1.2960956964961,4.687543981898776 L1.4414072977818702,4.602187890837846 L1.585433453056096,4.509187951772907 L1.7279220341469022,4.4087069678043855 L1.8686236045169127,4.300920838141335 L2.0072918559198953,4.1860182501771925 L2.1436840395811085,4.064200349178886 L2.2775613911465484,3.935680386167531 L2.408689548657152,3.8006833446071555 L2.536838962816328,3.659445546554902 L2.6617852988325454,3.512214238962228 L2.783309829133561,3.3592471608513024 L2.90119981626482,3.200812092124235 L3.015248885301706,3.037186384795055 L3.1252573851237266,2.8686564774650236 L3.23103273791821,2.695517393891177 L3.332389776301644,2.51807222652598 L3.429151067468536,2.3366316059321335 L3.5211472238003436,2.1515131570013564 L3.608217199390709,1.9630409429291118 L3.6902085719679336,1.7715448979186277 L3.7669778097211606,1.5773602496072516 L3.83839052256316,1.3808269322263118 L3.9043216973898636,1.182288991521738 L3.964655916924829,0.9820939824771486 L4.019287561765498,0.780592360893797 L4.06812099527758,0.578136869892431 L4.111070731013877,0.37508192241099353 L4.148061582364482,0.17178298077922932 L4.179028794176347,-0.03140406554375258 L4.203918156111861,-0.23412352297965028 L4.222686097547957,-0.43602051649824 L4.235299763849616,-0.6367416108516997 L4.241737073884289,-0.8359354292884891 L4.241986758676507,-1.033253268663719 L4.236048381135033,-1.2283497098691416 L4.2239323368180255,-1.420883222514197 L4.205659835734863,-1.610516762799622 L4.18126286521649,-1.7969183635369108 L4.150784133919293,-1.9797617152808107 L4.114276997060512,-2.158726737557562 L4.071805363016088,-2.333500139188839 L4.02344358144444,-2.503775966730543 L3.969276313132028,-2.6692561400663912 L3.9093983817885376,-2.8296509742186453 L3.8439146080511413,-2.9846796864625564 L3.772939625988412,-3.1340708878567733 L3.6965976824251165,-3.2775630583292705 L3.6150224194391885,-3.4149050044870815 L3.528356640411639,-3.5458562993484453 L3.436752060038931,-3.6701877032275934 L3.3891475018316863,-3.7298024668439047 L3.3403690387454623,-3.7876815650353426 L3.290438020670798,-3.84379966464599 L3.2393763019610895,-3.898132203293019 L3.187206231867137,-3.950655400117434 L3.1339506447550773,-4.001346266192731 L3.0796328501120005,-4.05018261458694 L3.0242766223435877,-4.097143070073648 L2.9679061903682737,-4.142207078487741 L2.9105462270124716,-4.185354915721772 L2.852221838211492,-4.226567696359033 L2.79295855202091,-4.2658273819395225 L2.7327823074431707,-4.303116788855212 L2.6717194430743154,-4.338419595871167 L2.6097966855758217,-4.371720351269192 L2.5470411379765854,-4.403004479610915 L2.4834802678101666,-4.432258288117323 L2.4191418950925025,-4.459468972661965 L2.3540541801453463,-4.484624623375203 L2.2882456112707663,-4.507714229857044 " />
			<path d="M-6.661338147750939e-16,4.714045207910317 L0.14789379608442932,4.660621137827113 L0.2955286934128172,4.5990383143213736 L0.44264624645006134,4.529404542566957 L0.5889889153095524,4.451841721503261 L0.7343005165953227,4.36648563044233 L0.8783266718695486,4.273485691377392 L1.0208152529603547,4.17300470740887 L1.1615168233303652,4.065218577745819 L1.3001850747333479,3.950315989781677 L1.4365772583945613,3.82849808878337 L1.570454609960001,3.699978125772015 L1.7015827674706046,3.5649810842116394 L1.8297321816297805,3.423743286159386 L1.9546785176459982,3.276511978566712 L2.0762030479470135,3.1235449004557863 L2.1940930350782724,2.965109831728719 L2.3081421041151584,2.801484124399539 L2.418150603937179,2.6329542170695075 L2.5239259567316625,2.459815133495661 L2.6252829951150964,2.2823699661304637 L2.7220442862819887,2.1009293455366174 L2.814040442613796,1.9158108966058405 L2.9011104182041616,1.727338682533596 L2.983101790781386,1.5358426375231118 L3.059871028534613,1.3416579892117357 L3.1312837413766124,1.145124671830796 L3.197214916203316,0.9465867311262222 L3.2575491357382815,0.7463917220816327 L3.312180780578951,0.5448901004982811 L3.361014214091032,0.34243460949691495 L3.4039639498273297,0.13937966201547758 L3.4409548011779343,-0.06391927961628663 L3.4719220129897987,-0.26710632593926853 L3.496811374925314,-0.46982578337516623 L3.515579316361409,-0.6717227768937559 L3.5281929826630685,-0.8724438712472156 L3.5346302926977415,-1.071637689684005 L3.5348799774899593,-1.268955529059235 L3.5289415999484857,-1.4640519702646575 L3.5168255556314785,-1.6565854829097129 L3.4985530545483154,-1.8462190231951379 L3.4741560840299424,-2.0326206239324267 L3.4436773527327458,-2.2154639756763266 L3.4071702158739643,-2.394428997953078 L3.36469858182954,-2.569202399584355 L3.3163368002578926,-2.739478227126059 L3.2621695319454806,-2.9049584004619073 L3.20229160060199,-3.0653532346141614 L3.136807826864594,-3.2203819468580726 L3.0658328448018644,-3.3697731482522895 L2.989490901238569,-3.5132653187247866 L2.907915638252641,-3.6506072648825976 L2.8212498592250914,-3.7815585597439614 L2.7296452788523835,-3.9058899636231095 L2.682040720645139,-3.965504727239421 L2.633262257558915,-4.023383825430859 L2.5833312394842505,-4.079501925041506 L2.532269520774542,-4.133834463688535 L2.4800994506805893,-4.18635766051295 L2.42684386356853,-4.2370485265882465 L2.372526068925453,-4.285884874982456 L2.3171698411570403,-4.332845330469164 L2.2607994091817263,-4.377909338883256 L2.203439445825924,-4.421057176117288 L2.1451150570249444,-4.4622699567545485 L2.0858517708343625,-4.501529642335038 L2.0256755262566233,-4.538819049250728 L1.9646126618877682,-4.574121856266682 L1.9026899043892742,-4.607422611664708 L1.839934356790038,-4.63870674000643 L1.7763734866236192,-4.667960548512839 L1.712035113905955,-4.695171233057481 L1.6469473989587986,-4.720326883770719 L1.581138830084219,-4.743416490252559 " />
			<path d="M1.5811388300841902,-4.743416490252569 L1.4888514367336323,-4.771966244966434 L1.395313907971567,-4.796509149944882 L1.300604783922365,-4.8170245973865855 L1.2048035884571426,-4.833495361202564 L1.1079907624204062,-4.845907611480311 L1.0102475960867476,-4.854250926096287 L0.911656160904298,-4.858518299466998 L0.8122992405822663,-4.858706148431334 L0.7122602615804104,-4.854814315259224 L0.6116232230588184,-4.846846067784078 L0.5104726263468116,-4.834808096658897 L0.40889340399019214,-4.818710509738376 L0.30697084843642,-4.7985668235917025 L0.20479054041758493,-4.774393952153165 L0.10243827709132147,-4.746212192520135 L2.220446049250313e-15,-4.714045207910317 " />
			<path d="M-0.8740320488976432,4.979118750648085 L-0.7817446555470859,5.0076685053619485 L-0.6882071267850203,5.032211410340397 L-0.5934980027358177,5.052726857782101 L-0.49769680727059606,5.069197621598079 L-0.4008839812338594,5.081609871875826 L-0.3031408149002002,5.089953186491803 L-0.20454937971775178,5.0942205598625145 L-0.1051924593957193,5.094408408826849 L-0.005153480393862986,5.09051657565474 L0.09548355812772802,5.082548328179593 L0.19663415483973568,5.070510357054411 L0.2982133771963553,5.054412770133892 L0.4001359327501268,5.034269083987218 L0.5023162407689625,5.010096212548681 L0.6046685040952264,4.9819144529156505 L0.707106781186531,4.949747468305838 " />
			<path d="M1.6060508955808088,-3.6396413847648463 L1.496923706998803,-3.648788805281749 L1.3865057162504968,-3.651587780584726 L1.2749773800683286,-3.6480337362929722 L1.1625209698284145,-3.6381324808007136 L1.049320273663432,-3.6219001957845136 L0.9355602960966587,-3.599363409757473 L0.8214269556880578,-3.5705589547135315 L0.7071067811865492,-3.535533905932738 " />
			<path d="M2.220446049250313e-16,-4.714045207910317 L-0.14789379608443065,-4.660621137827112 L-0.2955286934128185,-4.599038314321373 L-0.44264624645006245,-4.529404542566957 L-0.5889889153095542,-4.45184172150326 L-0.734300516595324,-4.366485630442329 L-0.8783266718695504,-4.273485691377391 L-1.020815252960356,-4.173004707408868 L-1.1615168233303665,-4.065218577745818 L-1.3001850747333485,-3.950315989781676 L-1.436577258394563,-3.8284980887833684 L-1.570454609960001,-3.699978125772015 L-1.7015827674706059,-3.564981084211639 L-1.829732181629782,-3.4237432861593833 L-1.9546785176459989,-3.2765119785667114 L-2.076203047947015,-3.123544900455784 L-2.1940930350782746,-2.9651098317287152 L-2.3081421041151593,-2.801484124399539 L-2.418150603937181,-2.6329542170695053 L-2.5239259567316648,-2.459815133495658 L-2.625282995115097,-2.282369966130463 L-2.72204428628199,-2.100929345536615 L-2.8140404426137975,-1.9158108966058367 L-2.901110418204162,-1.7273386825335955 L-2.983101790781387,-1.5358426375231091 L-3.0598710285346145,-1.341657989211731 L-3.1312837413766132,-1.1451246718307944 L-3.197214916203317,-0.9465867311262195 L-3.2575491357382833,-0.746391722081628 L-3.312180780578952,-0.5448901004982785 L-3.361014214091033,-0.3424346094969112 L-3.403963949827331,-0.1393796620154728 L-3.4409548011779343,0.06391927961628929 L-3.4719220129897987,0.2671063259392681 L-3.496811374925314,0.4698257833751669 L-3.5155793163614093,0.6717227768937583 L-3.5281929826630685,0.8724438712472149 L-3.5346302926977415,1.071637689684006 L-3.5348799774899593,1.2689555290592378 L-3.5289415999484857,1.4640519702646584 L-3.516825555631478,1.6565854829097133 L-3.4985530545483154,1.8462190231951405 L-3.4741560840299424,2.032620623932427 L-3.4436773527327453,2.2154639756763275 L-3.407170215873964,2.39442899795308 L-3.36469858182954,2.5692023995843556 L-3.316336800257892,2.7394782271260603 L-3.2621695319454798,2.9049584004619087 L-3.2022916006019897,3.065353234614162 L-3.1368078268645943,3.220381946858071 L-3.0658328448018644,3.3697731482522904 L-2.989490901238569,3.5132653187247875 L-2.9079156382526414,3.6506072648825962 L-2.821249859225091,3.7815585597439623 L-2.729645278852383,3.9058899636231095 L-2.682040720645139,3.965504727239421 L-2.6332622575589157,4.023383825430858 L-2.5833312394842523,4.079501925041504 L-2.532269520774542,4.133834463688535 L-2.480099450680587,4.186357660512953 L-2.4268438635685285,4.237048526588248 L-2.372526068925453,4.2858848749824565 L-2.31716984115704,4.332845330469164 L-2.260799409181727,4.3779093388832555 L-2.2034394458259237,4.421057176117288 L-2.1451150570249418,4.46226995675455 L-2.0858517708343607,4.501529642335038 L-2.025675526256623,4.538819049250728 L-1.964612661887768,4.574121856266682 L-1.902689904389275,4.607422611664708 L-1.8399343567900377,4.63870674000643 L-1.7763734866236158,4.6679605485128395 L-1.7120351139059533,4.695171233057482 L-1.6469473989587982,4.720326883770719 L-1.5811388300842046,4.743416490252565 " />
			<path d="M-1.5811388300841906,4.743416490252569 L-1.4888514367336334,4.771966244966433 L-1.3953139079715677,4.796509149944882 L-1.3006047839223651,4.8170245973865855 L-1.2048035884571435,4.833495361202563 L-1.1079907624204068,4.84590761148031 L-1.0102475960867476,4.854250926096287 L-0.9116561609042992,4.858518299466999 L-0.8122992405822668,4.858706148431334 L-0.7122602615804104,4.854814315259224 L-0.6116232230588194,4.846846067784077 L-0.5104726263468118,4.834808096658896 L-0.40889340399019214,4.818710509738376 L-0.30697084843642064,4.7985668235917025 L-0.20479054041758493,4.774393952153165 L-0.10243827709132103,4.746212192520135 L-1.6431300764452317e-14,4.714045207910322 " />
			<path d="M-4.440892098500626e-16,3.771236166328254 L0.11831503686754363,3.7284969102616907 L0.23642295473025388,3.6792306514570985 L0.35411699716004885,3.623523634053566 L0.47119113224764186,3.561473377202608 L0.5874404132762581,3.493188504353864 L0.7026613374956389,3.418788553101913 L0.8166522023682835,3.338403765927096 L0.9292134586642922,3.2521748621966555 L1.0401480597866781,3.1602527918253416 L1.1492618067156488,3.062798471026696 L1.2563636879680007,2.9599825006176124 L1.3612662139764837,2.8519848673693113 L1.4637857453038243,2.7389946289275087 L1.5637428141167986,2.6212095828533695 L1.6609624383576107,2.498835920364629 L1.7552744280626178,2.372087865382975 L1.8465136832921267,2.2411872995196314 L1.9345204831497436,2.1063633736556056 L2.0191407653853295,1.9678521067965287 L2.100226396092077,1.8258959729043707 L2.17763542902559,1.680743476429294 L2.2512323540910364,1.5326487172846721 L2.320888334563329,1.381870946026877 L2.386481432625109,1.2286741100184893 L2.44789682282769,1.0733263913693885 L2.5050269931012896,0.9160997374646365 L2.5577719329626527,0.7572693849009776 L2.606039308590625,0.5971133776653061 L2.649744624463161,0.43591208039862495 L2.6888113712728257,0.27394768759753196 L2.7231711598618635,0.11150372961238209 L2.7527638409423467,-0.05113542369302937 L2.7775376103918394,-0.2136850607514148 L2.7974490999402515,-0.37586062670013287 L2.812463453089127,-0.5373782215150045 L2.822554386130454,-0.6979550969977725 L2.827704234158193,-0.8573101517472043 L2.8279039819919674,-1.0151644232473882 L2.8231532799587886,-1.171241576211726 L2.8134604445051825,-1.3252683863277706 L2.7988424436386525,-1.4769752185561105 L2.779324867223954,-1.6260964991459417 L2.7549418821861966,-1.7723711805410614 L2.7257361726991713,-1.9155431983624625 L2.6917588654636315,-2.055361919667484 L2.6530694402063135,-2.191582581700847 L2.6097356255563846,-2.3239667203695253 L2.5618332804815918,-2.4522825876913292 L2.5094462614916746,-2.5763055574864584 L2.4526662758414917,-2.695818518601832 L2.3915927209908547,-2.810612254979829 L2.3263325106021124,-2.920485811906078 L2.256999887380073,-3.025246847795169 L2.1837162230819063,-3.124711970898488 L2.106609806047132,-3.2187070603446877 L2.0258156166196337,-3.3070675709508284 L1.941475090854824,-3.3896388212705975 L1.8537358729256321,-3.4662762643753307 L1.762751556660739,-3.5368457408938303 L1.66868141666749,-3.60122371386803 L1.5716901295102146,-3.659297485013346 L1.4719474854320302,-3.7109653920051446 L1.3696280911247642,-3.7561369864459846 L1.2649110640673753,-3.7947331922020475 " />
			<path d="M1.2649110640673522,-3.794733192202055 L1.1910811493869058,-3.817572995973147 L1.1162511263772537,-3.8372073199559056 L1.040483827137892,-3.8536196779092684 L0.9638428707657138,-3.8667962889620506 L0.8863926099363251,-3.8767260891842485 L0.808198076869398,-3.88340074087703 L0.7293249287234386,-3.886814639573598 L0.649839392465813,-3.8869649187450674 L0.5698082092643284,-3.883851452207379 L0.48929857844705493,-3.877476854227262 L0.4083781010774493,-3.867846477327117 L0.32711472319215384,-3.854968407790701 L0.24557667874913602,-3.8388534588733614 L0.16383243233406797,-3.819515161722532 L0.08195062167305744,-3.796969754016108 L1.7763568394002505e-15,-3.7712361663282543 " />
			<path d="M2.2882456112707374,-4.507714229857053 L1.58113883008419,-4.743416490252569 " />
			<path d="M-0.8740320488976424,4.979118750648085 L-1.58113883008419,4.743416490252569 " />

       </g>
    </g>
    
</svg>
