<?xml version="1.0" encoding="UTF-8" standalone="no"?>
<svg
   xmlns:svg="http://www.w3.org/2000/svg"
   xmlns="http://www.w3.org/2000/svg"
   width="1024.0"
   height="320.0"

>
    <g transform="scale(34.09827378018231, -34.09827378018231)   translate(8.340273293359889,-4.223630821642638)" stroke-width="0.04666666666666667"  fill="none">
       <!-- hidden lines -->
       <g  stroke="rgb(32,64,32)" fill="none" stroke-dasharray="0.04666666666666667,0.04666666666666667" >

       </g>

       <!-- solid lines -->
       <g  stroke="rgb(64,192,64)" fill="none">
			<path d="M1.1102230246251565e-16,-2.3570226039551585 L-0.07394689804221533,-2.330310568913556 L-0.14776434670640926,-2.2995191571606863 L-0.22132312322503123,-2.2647022712834786 L-0.2944944576547771,-2.22592086075163 L-0.367150258297662,-2.1832428152211647 L-0.4391633359347752,-2.1367428456886954 L-0.5104076264801781,-2.086502353704434 L-0.5807584116651833,-2.032609288872909 L-0.6500925373666743,-1.975157994890838 L-0.7182886291972813,-1.9142490443916842 L-0.7852273049800005,-1.8499890628860074 L-0.8507913837353029,-1.7824905421058195 L-0.914866090814891,-1.7118716430796916 L-0.9773392588229994,-1.6382559892833557 L-1.0381015239735074,-1.561772450227892 L-1.0970465175391373,-1.4825549158643576 L-1.1540710520575796,-1.4007420621997695 L-1.2090753019685905,-1.3164771085347524 L-1.2619629783658324,-1.229907566747829 L-1.3126414975575484,-1.1411849830652314 L-1.361022143140995,-1.0504646727683076 L-1.4070202213068987,-0.9579054483029183 L-1.450555209102081,-0.8636693412667977 L-1.4915508953906935,-0.7679213187615546 L-1.5299355142673072,-0.6708289946058655 L-1.5656418706883066,-0.5725623359153972 L-1.5986074581016585,-0.47329336556310975 L-1.6287745678691417,-0.3731958610408139 L-1.6560903902894757,-0.27244505024913923 L-1.6805071070455164,-0.1712173047484556 L-1.7019819749136655,-0.06968983100773635 L-1.7204774005889671,0.031959639808144646 L-1.7359610064948994,0.13355316296963404 L-1.748405687462657,0.23491289168758345 L-1.7577896581807047,0.33586138844687924 L-1.7640964913315342,0.43622193562360745 L-1.7673151463488708,0.535818844842003 L-1.7674399887449797,0.6344777645296189 L-1.7644707999742428,0.7320259851323287 L-1.7584127778157392,0.8282927414548567 L-1.7492765272741577,0.9231095115975703 L-1.7370780420149712,1.0163103119662136 L-1.7218386763663729,1.1077319878381635 L-1.703585107936982,1.1972144989765399 L-1.68234929091477,1.2846011997921778 L-1.658168400128946,1.3697391135630301 L-1.6310847659727399,1.4524792002309543 L-1.6011458003009948,1.532676617307081 L-1.5684039134322971,1.6101909734290356 L-1.5329164224009322,1.6848865741261452 L-1.4947454506192845,1.7566326593623938 L-1.4539578191263207,1.8253036324412981 L-1.4106249296125455,1.8907792798719811 L-1.3648226394261915,1.9529449818115547 L-1.3166311287794579,2.011691912715429 L-1.266134760387271,2.0669172318442675 L-1.2134219317842643,2.118524263294124 L-1.15858492057852,2.166422665234582 L-1.1017197229129618,2.210528588058644 L-1.0429258854171803,2.250764821167519 L-0.982306330943884,2.287060928133341 L-0.9199671783950188,2.319353370003215 L-0.8560175569529767,2.347585616528741 L-0.7905694150421023,2.3717082451262823 " />
			<path d="M-0.7905694150420953,2.3717082451262845 L-0.7444257183668167,2.3859831224832164 L-0.6976569539857839,2.398254574972441 L-0.6503023919611826,2.4085122986932928 L-0.6024017942285718,2.4167476806012815 L-0.5539953812102034,2.422953805740155 L-0.5051237980433738,2.4271254630481436 L-0.45582808045214956,2.4292591497334994 L-0.4061496202911334,2.429353074215667 L-0.3561301307902051,2.427407157629612 L-0.3058116115294097,2.4234230338920386 L-0.20444670199509607,2.409355254869188 L-0.10239527020879247,2.3871969760765825 L-8.215650382226158e-15,2.357022603955161 " />
			<path d="M0.7071067811865476,-2.1213203435596424 L0.6393838638480723,-2.0970157653738255 L0.571760376268947,-2.0692863259881604 L0.5043356022272574,-2.0381727373446807 L0.43720853375289026,-2.0037206799419955 L0.3704777257889367,-1.9659807357678767 L0.30424115149482134,-1.9250083140355503 L0.23859605840359543,-1.8808635698327316 L0.17363882564458522,-1.8336113158028378 L0.10946482244101863,-1.783320926988049 L0.04616826809037711,-1.7300662389739245 L-0.016157906366945807,-1.6739254394851166 L-0.07742219458758781,-1.6149809535913386 L-0.13753464927344172,-1.5533193226921314 L-0.19640701423091422,-1.4890310774580917 L-0.25395285394732925,-1.4222106049151166 L-0.31008768049423585,-1.3529560098668039 L-0.3647290775713019,-1.2813689708584695 L-0.41779682150867736,-1.2075545908942498 L-0.46921299905016567,-1.1316212431264663 L-0.5189021217442864,-1.053680411743809 L-0.5667912367752728,-0.9738465282919417 L-0.6128100340712888,-0.8922368036668431 L-0.6568909495326101,-0.8089710560275505 L-0.6989692642282086,-0.7241715348809534 L-0.7389831994151057,-0.6379627415969282 L-0.7768740072409839,-0.550471246617313 L-0.8125860569968935,-0.46182550362710534 L-0.8460669167934147,-0.37215566096071423 L-0.8772674305403598,-0.28159337052014893 L-0.906141790117003,-0.19027159448569603 L-0.9326476026268626,-0.09832441010286325 L-0.9567459526383126,-0.005886812832202992 L-0.9784014593196269,0.0869054818489734 L-0.9975823283845793,0.17991623770200033 L-1.0142603987723329,0.2730088977468354 L-1.0284111839930805,0.3660467847529449 L-1.0400139080787394,0.4588933019067393 L-1.0490515360859116,0.5514121333609413 L-1.055510799106328,0.643467444371445 L-1.05938221374806,0.7349240807278241 L-1.0606600960588901,0.8256477671846931 L-1.0593425698714047,0.9155053046025832 L-1.0554315695575556,1.0043647655089 L-1.0489328371886426,1.0920956877918346 L-1.0398559141048935,1.178569266242856 L-1.0282141269070117,1.2636585416665622 L-1.0140245678902646,1.3472385872802477 L-0.9973080699498329,1.4291866921295042 L-0.9780891759942736,1.5093825412505875 L-0.9563961029119907,1.5877083923150164 L-0.9322607001436305,1.664049248497073 L-0.9057184029212142,1.7382930273104 L-0.8768081802426697,1.810330725165802 L-0.845572477658139,1.880056577408664 L-0.8120571549520665,1.9473682136010093 L-0.7763114188125602,2.0121668078202255 L-0.738387750586877,2.0743572237537804 L-0.6983418292291073,2.1338481543769157 L-0.6562324495531788,2.1905522560082344 L-0.6121214359112024,2.2443862765463662 L-0.5660735514238984,2.2952711776994397 L-0.5181564028963641,2.3431322510279045 L-0.46844034155878966,2.387899227630327 L-0.41699835977785527,2.4295063813111195 " />
			<path d="M0.7071067811865469,3.5355339059327378 L0.810632438445648,3.498137056874495 L0.9139768665755195,3.455029080420478 L1.0169591537015903,3.4062854401923865 L1.119399021903234,3.3519914654477985 L1.2211171428032732,3.292242201705147 L1.3219354514952313,3.22714224435969 L1.4216774582587952,3.156805555581725 L1.520168557517803,3.0813552648175895 L1.6172363334998907,3.0009234532426903 L1.7127108620627403,2.9156509225438754 L1.806425008158548,2.8256869484359264 L1.8982147184159706,2.7311890193436636 L1.9879193083273936,2.632322560707086 L2.075381743538746,2.5292606453922146 L2.160448914749457,2.4221836907145664 L2.2429719057413378,2.311279142605619 L2.3228062540671583,2.1967411474751932 L2.3998122039425733,2.078770212344171 L2.473854950898711,1.9575728538424786 L2.544804877767115,1.8333612366868401 L2.612537781583939,1.7063528022711478 L2.676935091016204,1.576769888019604 L2.7378840739294605,1.444839338169033 L2.7952780347335175,1.3107921066616939 L2.849016501160776,1.1748628528437308 L2.899005400150176,1.0372895306770729 L2.9451572225288682,0.8983129721838712 L2.987391176203344,0.7581764658526586 L3.025633327591813,0.6171253307443128 L3.0598167310502697,0.4754064870433564 L3.0898815460656777,0.3332680238063502 L3.1157751420111013,0.19095876466411527 L3.1374521902794066,0.048727832238027846 L3.1548747436342675,-0.09317578796710052 L3.1680123026395335,-0.23450368343011313 L3.176841869050695,-0.37500844947753503 L3.1813479860749663,-0.5144441223832876 L3.1815227654295186,-0.6525666099459491 L3.177365901150487,-0.7891341187897443 L3.168884670128582,-0.9239075776412833 L3.156093919370368,-1.0566510558410809 L3.139016040007507,-1.187132176357183 L3.1176809280994693,-1.3151225225779128 L3.0921259322983223,-1.4403980381716388 L3.0623957884672253,-1.5627394193135327 L3.0285425413670715,-1.6819324985927255 L2.9906254535483834,-1.7977686199278191 L2.9487109016079405,-1.9100450038343972 L2.9028722599917627,-2.0185651024051348 L2.8531897725478528,-2.123138943381087 L2.799750412053546,-2.2235834627118347 L2.7426477279633956,-2.319722825022302 L2.6819816826441114,-2.4113887314252564 L2.6178584763832156,-2.4984207141406607 L2.550390361477788,-2.5806664174060856 L2.479695445728727,-2.657981864186459 L2.4058974856845183,-2.730231708216257 L2.3291256699964755,-2.7972894709328986 L2.249514393264694,-2.8590377628865853 L2.167203020770601,-2.91536848923901 L2.0823356445079853,-2.9661830389911614 L1.995060830939574,-3.011392457608985 L1.9055313609207163,-3.050917602744721 L1.8139039622455009,-3.0846892827812753 " />
			<path d="M-5.551115123125783e-16,3.2998316455372216 L0.10352565725910057,3.262434796478979 L0.206870085388972,3.219326820024962 L0.30985237251504283,3.1705831797968704 L0.41229224071668646,3.1162892050522824 L0.5140103616167258,3.056539941309631 L0.6148286703086839,2.991439983964174 L0.7145706770722478,2.921103295186209 L0.8130617763312554,2.8456530044220734 L0.9101295523133432,2.765221192847174 L1.0056040808761928,2.6799486621483593 L1.0993182269720005,2.5899846880404103 L1.191107937229423,2.4954867589481475 L1.2808125271408461,2.39662030031157 L1.3682749623521984,2.2935583849966985 L1.4533421335629095,2.1864814303190503 L1.5358651245547903,2.075576882210103 L1.6156994728806109,1.961038887079677 L1.6927054227560259,1.843067951948655 L1.7667481697121636,1.7218705934469627 L1.8376980965805676,1.5976589762913243 L1.9054310003973915,1.470650541875632 L1.9698283098296567,1.341067627624088 L2.030777292742913,1.209137077773517 L2.08817125354697,1.075089846266178 L2.1419097199742287,0.9391605924482149 L2.1918986189636285,0.801587270281557 L2.238050441342321,0.6626107117883553 L2.2802843950167966,0.5224742054571427 L2.3185265464052653,0.38142307034879686 L2.3527099498637223,0.23970422664784047 L2.38277476487913,0.09756576341083423 L2.408668360824554,-0.044743495731400684 L2.430345409092859,-0.1869744281574881 L2.44776796244772,-0.32887804836261647 L2.460905521452986,-0.4702059438256291 L2.4697350878641475,-0.610710709873051 L2.474241204888419,-0.7501463827788036 L2.474415984242971,-0.888268870341465 L2.4702591199639397,-1.0248363791852602 L2.4617778889420348,-1.1596098380367992 L2.4489871381838206,-1.2923533162365968 L2.4319092588209594,-1.4228344367526988 L2.410574146912922,-1.5508247829734287 L2.385019151111775,-1.6761002985671547 L2.355289007280678,-1.7984416797090486 L2.321435760180524,-1.9176347589882414 L2.283518672361836,-2.033470880323335 L2.241604120421393,-2.145747264229913 L2.195765478805215,-2.254267362800651 L2.1460829913613053,-2.358841203776603 L2.0926436308669984,-2.459285723107351 L2.035540946776848,-2.555425085417818 L1.974874901457564,-2.6470909918207726 L1.910751695196668,-2.734122974536177 L1.8432835802912404,-2.8163686778016017 L1.7725886645421793,-2.8936841245819753 L1.6987907044979709,-2.965933968611773 L1.6220188888099283,-3.0329917313284147 L1.5424076120781467,-3.0947400232821014 L1.4600962395840535,-3.1510707496345263 L1.3752288633214378,-3.2018852993866775 L1.2879540497530266,-3.2470947180045013 L1.1984245797341688,-3.286619863140237 L1.1067971810589534,-3.3203915431767914 " />
			<path d="M1.1067971810589332,-3.320391543176798 L1.0421960057135429,-3.340376371476504 L0.9767197355800968,-3.357556404961417 L0.9104233487456554,-3.37191721817061 L0.8433625119199997,-3.3834467528417944 L0.7755935336942845,-3.3921353280362174 L0.7071733172607233,-3.3979756482674013 L0.6381593126330086,-3.4009628096268982 L0.5686094684075865,-3.401094303901934 L0.4985821831062872,-3.398370020681457 L0.4281362561411731,-3.3927922474488543 L0.35733083844276836,-3.3843656676612275 L0.2862253827931347,-3.373097356816863 L0.21487959390549416,-3.358996776514191 L0.14335337829230943,-3.3420757665072154 L0.0717067939639251,-3.322348534764094 L1.6653345369377348e-15,-3.2998316455372225 " />
			<path d="M-0.39969039987238597,3.556093803572314 L-0.3350892245269963,3.57607863187202 L-0.2696129543935498,3.593258665356933 L-0.2033165675591082,3.607619478566126 L-0.13625573073345287,3.61914901323731 L-0.0684867525077375,3.627837588431733 L-6.653607417583807e-05,3.6336779086629174 L0.06894746855353806,3.6366650700224143 L0.1384973127789606,3.63679656429745 L0.20852459808026036,3.634072281076973 L0.2789705250453738,3.628494507844371 L0.349775942743779,3.6200679280567436 L0.4208813983934129,3.6087996172123793 L0.49222718728105275,3.5946990369097076 L0.563753402894238,3.5777780269027315 L0.6353999872226228,3.55805079515961 L0.7071067811865358,3.5355339059327417 " />
			<path d="M1.1241051409643956,-2.1938041209156083 L1.072792208922852,-2.1922329388619697 L1.0211552812402616,-2.188510617163054 L0.9692401080018536,-2.1826404537791104 L0.9170926858171667,-2.174627649648445 L0.8647592170672593,-2.164479304079408 L0.8122860689696072,-2.15220440846044 L0.7597197324969603,-2.1378138382937464 L0.7071067811865486,-2.1213203435596424 " />
			<path d="M3.3306690738754696e-16,-3.299831645537222 L-0.10352565725910168,-3.262434796478978 L-0.2068700853889729,-3.2193268200249614 L-0.3098523725150436,-3.17058317979687 L-0.4122922407166879,-3.116289205052282 L-0.514010361616727,-3.0565399413096306 L-0.6148286703086849,-2.9914399839641734 L-0.7145706770722492,-2.921103295186208 L-0.8130617763312565,-2.845653004422073 L-0.9101295523133439,-2.7652211928471733 L-1.0056040808761937,-2.679948662148358 L-1.0993182269720005,-2.5899846880404103 L-1.191107937229424,-2.495486758948147 L-1.280812527140847,-2.3966203003115685 L-1.3682749623521984,-2.293558384996698 L-1.4533421335629106,-2.186481430319049 L-1.535865124554792,-2.075576882210101 L-1.615699472880611,-1.9610388870796769 L-1.6927054227560268,-1.8430679519486532 L-1.7667481697121648,-1.7218705934469603 L-1.8376980965805678,-1.597658976291324 L-1.9054310003973927,-1.4706505418756302 L-1.969828309829658,-1.3410676276240858 L-2.030777292742913,-1.2091370777735166 L-2.088171253546971,-1.0750898462661762 L-2.1419097199742296,-0.9391605924482116 L-2.191898618963629,-0.8015872702815559 L-2.2380504413423217,-0.6626107117883534 L-2.2802843950167975,-0.5224742054571394 L-2.318526546405266,-0.38142307034879475 L-2.3527099498637227,-0.2397042266478377 L-2.3827747648791315,-0.0975657634108309 L-2.408668360824554,0.04474349573140268 L-2.430345409092859,0.18697442815748777 L-2.4477679624477204,0.3288780483626167 L-2.460905521452986,0.47020594382563097 L-2.469735087864147,0.6107107098730505 L-2.4742412048884184,0.7501463827788042 L-2.474415984242971,0.8882688703414665 L-2.4702591199639397,1.0248363791852606 L-2.4617778889420348,1.1596098380367996 L-2.4489871381838206,1.2923533162365983 L-2.4319092588209594,1.4228344367526988 L-2.410574146912922,1.5508247829734287 L-2.385019151111775,1.6761002985671563 L-2.3552890072806774,1.798441679709049 L-2.321435760180524,1.917634758988242 L-2.2835186723618355,2.0334708803233363 L-2.2416041204213926,2.1457472642299136 L-2.1957654788052157,2.2542673628006495 L-2.146082991361305,2.3588412037766036 L-2.092643630866998,2.459285723107351 L-2.035540946776849,2.5554250854178173 L-1.974874901457564,2.647090991820773 L-1.910751695196668,2.734122974536177 L-1.8432835802912408,2.8163686778016004 L-1.7725886645421793,2.8936841245819753 L-1.69879070449797,2.965933968611774 L-1.622018888809928,3.0329917313284147 L-1.5424076120781465,3.0947400232821014 L-1.4600962395840527,3.151070749634527 L-1.3752288633214376,3.2018852993866775 L-1.2879540497530264,3.247094718004502 L-1.1984245797341675,3.286619863140237 L-1.1067971810589432,3.3203915431767945 " />
			<path d="M-1.1067971810589334,3.320391543176798 L-1.0421960057135438,3.340376371476504 L-0.9767197355800973,3.357556404961417 L-0.9104233487456557,3.37191721817061 L-0.8433625119200003,3.383446752841794 L-0.775593533694285,3.392135328036217 L-0.7071733172607233,3.3979756482674013 L-0.6381593126330094,3.4009628096268982 L-0.5686094684075869,3.401094303901934 L-0.4985821831062871,3.398370020681457 L-0.4281362561411737,3.3927922474488548 L-0.3573308384427685,3.3843656676612275 L-0.2862253827931346,3.373097356816863 L-0.21487959390549471,3.3589967765141915 L-0.14335337829230943,3.3420757665072154 L-0.07170679396392465,3.3223485347640938 L-1.1657341758564144e-14,3.2998316455372256 " />
			<path d="M-3.3306690738754696e-16,2.3570226039551585 L0.07394689804221466,2.3303105689135566 L0.1477643467064086,2.2995191571606868 L0.22132312322503067,2.2647022712834786 L0.2944944576547762,2.2259208607516303 L0.36715025829766135,2.183242815221165 L0.4391633359347745,2.136742845688696 L0.5104076264801773,2.086502353704435 L0.5807584116651826,2.0326092888729095 L0.6500925373666739,1.9751579948908384 L0.7182886291972806,1.914249044391685 L0.7852273049800005,1.8499890628860074 L0.8507913837353023,1.78249054210582 L0.9148660908148902,1.711871643079693 L0.9773392588229991,1.638255989283356 L1.0381015239735067,1.5617724502278931 L1.0970465175391362,1.4825549158643594 L1.1540710520575792,1.4007420621997695 L1.2090753019685896,1.3164771085347537 L1.2619629783658313,1.2299075667478305 L1.3126414975575482,1.1411849830652319 L1.3610221431409943,1.0504646727683087 L1.407020221306898,0.9579054483029202 L1.4505552091020808,0.863669341266798 L1.491550895390693,0.7679213187615559 L1.5299355142673066,0.6708289946058679 L1.5656418706883062,0.572562335915398 L1.598607458101658,0.4732933655631111 L1.6287745678691408,0.37319586104081637 L1.6560903902894755,0.27244505024914056 L1.680507107045516,0.17121730474845748 L1.7019819749136649,0.0696898310077389 L1.7204774005889671,-0.0319596398081432 L1.7359610064948996,-0.13355316296963426 L1.748405687462657,-0.23491289168758323 L1.7577896581807044,-0.33586138844687796 L1.7640964913315342,-0.4362219356236078 L1.7673151463488708,-0.5358188448420025 L1.7674399887449797,-0.6344777645296177 L1.7644707999742426,-0.7320259851323285 L1.7584127778157392,-0.8282927414548564 L1.7492765272741577,-0.9231095115975689 L1.7370780420149712,-1.0163103119662134 L1.7218386763663729,-1.1077319878381633 L1.7035851079369824,-1.197214498976539 L1.68234929091477,-1.2846011997921776 L1.6581684001289463,-1.3697391135630295 L1.6310847659727403,-1.4524792002309537 L1.601145800300995,-1.5326766173070807 L1.568403913432297,-1.6101909734290363 L1.5329164224009322,-1.6848865741261447 L1.4947454506192845,-1.7566326593623933 L1.4539578191263205,-1.8253036324412988 L1.4106249296125457,-1.8907792798719807 L1.3648226394261918,-1.9529449818115547 L1.3166311287794574,-2.0116919127154294 L1.266134760387271,-2.0669172318442675 L1.2134219317842652,-2.1185242632941237 L1.1585849205785201,-2.166422665234582 L1.101719722912962,-2.210528588058644 L1.0429258854171812,-2.250764821167519 L0.9823063309438842,-2.287060928133341 L0.9199671783950191,-2.319353370003215 L0.8560175569529775,-2.3475856165287405 L0.7905694150421095,-2.3717082451262796 " />
			<path d="M0.7905694150420951,-2.3717082451262845 L0.7444257183668161,-2.385983122483217 L0.6976569539857835,-2.398254574972441 L0.6503023919611824,-2.4085122986932928 L0.6024017942285713,-2.416747680601282 L0.5539953812102031,-2.4229538057401556 L0.5051237980433738,-2.4271254630481436 L0.455828080452149,-2.429259149733499 L0.40614962029113316,-2.429353074215667 L0.3561301307902052,-2.427407157629612 L0.3058116115294092,-2.423423033892039 L0.20444670199509607,-2.409355254869188 L0.10239527020879247,-2.3871969760765825 L1.1102230246251565e-15,-2.3570226039551585 " />
			<path d="M1.8139039622454805,-3.0846892827812824 L1.106797181058933,-3.3203915431767985 " />
			<path d="M-0.3996903998723855,3.556093803572314 L-1.106797181058933,3.320391543176798 " />

       </g>
    </g>
    
</svg>
