<?xml version="1.0" encoding="UTF-8" standalone="no"?>
<svg
   xmlns:svg="http://www.w3.org/2000/svg"
   xmlns="http://www.w3.org/2000/svg"
   width="1024.0"
   height="320.0"

>
    <g transform="scale(7.939679113903027, -7.939679113903027)   translate(38.97851713236851,-17.986507820054857)" stroke-width="1.0"  fill="none">
       <!-- hidden lines -->
       <g  stroke="rgb(32,64,32)" fill="none" stroke-dasharray="1.0,1.0" >

       </g>

       <!-- solid lines -->
       <g  stroke="rgb(64,192,64)" fill="none">
			<path d="M8.838834764831843,-12.374368670764582 L8.838834764831843,-7.660323462854265 " />
			<path d="M8.131727983645296,-6.481812160876685 L8.166424068899266,-6.494513177408754 L8.201036568244842,-6.509454905641009 L8.235482097139402,-6.526601349641398 L8.269677673286768,-6.545911202124474 L8.336990247406474,-6.5908299562629065 L8.402326033718396,-6.643778575898864 L8.46505581288417,-6.704247136880592 L8.524575462838847,-6.77165329391036 L8.580311776816615,-6.845347888848016 L8.631727983645296,-6.924621202458749 L8.678328917146175,-7.008709789397283 L8.719665784854977,-7.096803830603907 L8.755340490138632,-7.188054932304697 L8.785009466083485,-7.281584296507347 L8.808386984232474,-7.376491184306236 L8.82524790630637,-7.4718615904904775 L8.835429852408488,-7.56677704591375 L8.838834764831844,-7.660323462854256 " />
			<path d="M8.131727983645295,-6.481812160876687 L-8.131727983645295,-1.06066017177982 " />
			<path d="M-8.838834764831844,-1.7677669529663693 L-8.837142557133268,-1.703143709039785 L-8.832074033427821,-1.6399579089166372 L-8.823653453120341,-1.5785119779172712 L-8.811921119517775,-1.5191000138505324 L-8.796933186926013,-1.4620063793774953 L-8.77876139187932,-1.4075043409703976 L-8.75749270978874,-1.355854760981106 L-8.733228938652912,-1.3073048490792527 L-8.706086211823699,-1.2620869790360176 L-8.676194442158739,-1.2204175765167635 L-8.64369670022134,-1.18249608320587 L-8.608748529503819,-1.1485040022217614 L-8.571517201951835,-1.1186040293910438 L-8.532180917352994,-1.0929392745397224 L-8.490927950421678,-1.0716325765286223 L-8.447955749662377,-1.0547859153114523 " />
			<path d="M-8.447955749662375,-1.0547859153114514 L-8.410790765239826,-1.0441673833729603 L-8.372688701336914,-1.0367701411214008 L-8.333777502862807,-1.032619028142638 L-8.29418783176188,-1.0317279836756157 L-8.25405262825716,-1.0340999998050597 L-8.213506664443402,-1.0397271114141977 L-8.172686091728847,-1.0485904229312435 L-8.1317279836453,-1.0606601717798205 " />
			<path d="M-8.838834764831843,-6.481812160876686 L-8.838834764831843,-1.7677669529663689 " />
			<path d="M-9.54594154601839,-7.188918942063234 L-9.504983437934856,-7.2009886909118075 L-9.464162865220315,-7.2098520024288515 L-9.423616901406573,-7.215479114037991 L-9.383481697901866,-7.217851130167438 L-9.343892026800953,-7.216960085700422 L-9.304980828326858,-7.2128089727216675 L-9.266878764423959,-7.205411730470118 L-9.229713780001424,-7.194793198531642 " />
			<path d="M-9.229713780001422,-7.194793198531641 L-9.186741579242108,-7.177946537314478 L-9.14548861231078,-7.156639839303384 L-9.10615232771193,-7.130975084452068 L-9.068921000159936,-7.101075111621354 L-9.033972829442405,-7.067083030637248 L-9.001475087504996,-7.029161537326354 L-8.971583317840029,-6.987492134807098 L-8.944440591010807,-6.942274264763861 L-8.920176819874971,-6.893724352862004 L-8.898908137784387,-6.842074772872707 L-8.880736342737686,-6.787572734465604 L-8.86574841014592,-6.73047909999256 L-8.85401607654335,-6.671067135925813 L-8.845595496235868,-6.609621204926438 L-8.84052697253042,-6.546435404803281 L-8.838834764831843,-6.481812160876695 " />
			<path d="M-13.081475451951128,-6.010407640085654 L-9.54594154601839,-7.188918942063232 " />
			<path d="M-13.788582233137676,-4.831896338108075 L-13.78517732071432,-4.925442755048588 L-13.774995374612201,-5.020358210471862 L-13.758134452538306,-5.115728616656104 L-13.734756934389317,-5.210635504454993 L-13.705087958444464,-5.304164868657644 L-13.669413253160808,-5.395415970358433 L-13.628076385452006,-5.4835100115650555 L-13.581475451951128,-5.567598598503591 L-13.530059245122446,-5.646871912114324 L-13.474322931144679,-5.72056650705198 L-13.414803281190002,-5.787972664081748 L-13.352073502024227,-5.848441225063476 L-13.286737715712308,-5.901389844699433 L-13.2194251415926,-5.946308598837865 L-13.185229565445235,-5.965618451320941 L-13.150784036550673,-5.98276489532133 L-13.116171537205098,-5.997706623553586 L-13.081475451951132,-6.010407640085654 " />
			<path d="M-13.788582233137676,-4.831896338108076 L-13.788582233137676,14.024284493533191 " />
			<path d="M-13.081475451951128,14.73139127471974 L-13.122433560034626,14.743461023568306 L-13.163254132749131,14.752324335085348 L-13.203800096562839,14.757951446694488 L-13.24393530006751,14.760323462823944 L-13.28352497116839,14.75943241835694 L-13.322436169642453,14.755281305378206 L-13.360538233545324,14.747884063126683 L-13.39770321796783,14.737265531188237 " />
			<path d="M-13.397703217967836,14.737265531188235 L-13.440675418727174,14.720418869971093 L-13.481928385658527,14.699112171960016 L-13.521264670257402,14.673447417108711 L-13.558495997809421,14.643547444278004 L-13.593444168526975,14.609555363293904 L-13.625941910464405,14.57163386998301 L-13.655833680129394,14.529964467463753 L-13.682976406958636,14.484746597420509 L-13.707240178094489,14.436196685518643 L-13.728508860185087,14.384547105529334 L-13.7466806552318,14.330045067122215 L-13.761668587823578,14.272951432649155 L-13.773400921426157,14.213539468582388 L-13.781821501733646,14.152093537582992 L-13.786890025439098,14.088907737459813 L-13.788582233137676,14.024284493533196 " />
			<path d="M-13.08147545195113,14.731391274719734 L-9.54594154601839,13.552879972742156 " />
			<path d="M-8.838834764831843,12.374368670764582 L-8.842239677255199,12.467915087705096 L-8.852421623357317,12.562830543128369 L-8.869282545431215,12.658200949312612 L-8.892660063580202,12.7531078371115 L-8.922329039525055,12.84663720131415 L-8.95800374480871,12.93788830301494 L-8.999340612517512,13.025982344221564 L-9.04594154601839,13.110070931160099 L-9.097357752847072,13.189344244770831 L-9.15309406682484,13.263038839708488 L-9.212613716779517,13.330444996738255 L-9.275343495945291,13.390913557719983 L-9.340679282257211,13.44386217735594 L-9.407991856376919,13.488780931494373 L-9.442187432524284,13.50809078397745 L-9.476632961418844,13.525237227977838 L-9.51124546076442,13.540178956210093 L-9.545941546018383,13.55287997274216 " />
			<path d="M-8.838834764831843,7.660323462854265 L-8.838834764831843,12.374368670764582 " />
			<path d="M-8.131727983645296,6.481812160876685 L-8.166424068899266,6.494513177408754 L-8.201036568244842,6.509454905641009 L-8.235482097139402,6.526601349641398 L-8.269677673286768,6.545911202124474 L-8.336990247406476,6.5908299562629065 L-8.402326033718396,6.643778575898864 L-8.46505581288417,6.704247136880592 L-8.524575462838847,6.77165329391036 L-8.580311776816615,6.845347888848016 L-8.631727983645296,6.924621202458749 L-8.678328917146175,7.008709789397284 L-8.719665784854977,7.096803830603907 L-8.755340490138632,7.188054932304696 L-8.785009466083485,7.281584296507346 L-8.808386984232474,7.376491184306236 L-8.82524790630637,7.4718615904904775 L-8.835429852408488,7.566777045913751 L-8.838834764831844,7.66032346285426 " />
			<path d="M8.131727983645295,1.06066017177982 L-8.131727983645295,6.481812160876687 " />
			<path d="M8.838834764831844,1.7677669529663693 L8.837142557133266,1.7031437090397512 L8.832074033427814,1.6399579089165712 L8.823653453120325,1.578511977917175 L8.811921119517747,1.5191000138504083 L8.796933186925969,1.4620063793773468 L8.778761391879256,1.4075043409702286 L8.757492709788657,1.35585476098092 L8.733228938652804,1.3073048490790538 L8.706086211823562,1.2620869790358102 L8.676194442158573,1.2204175765165526 L8.643696700221144,1.1824960832056606 L8.60874852950359,1.1485040022215585 L8.57151720195157,1.1186040293908524 L8.532180917352695,1.0929392745395479 L8.490927950421343,1.0716325765284709 L8.44795574966201,1.0547859153113295 " />
			<path d="M8.447955749662004,1.0547859153113275 L8.410790765239492,1.0441673833728804 L8.372688701336621,1.036770141121357 L8.333777502862558,1.032619028142622 L8.294187831761679,1.0317279836756195 L8.254052628257007,1.034099999805075 L8.2135066644433,1.0397271114142161 L8.172686091728796,1.0485904229312568 L8.131727983645296,1.0606601717798214 " />
			<path d="M8.838834764831843,1.7677669529663689 L8.838834764831843,6.481812160876686 " />
			<path d="M9.54594154601839,7.188918942063234 L9.504983437934838,7.200988690911812 L9.46416286522028,7.209852002428859 L9.42361690140652,7.215479114037996 L9.383481697901795,7.21785113016744 L9.343892026800866,7.216960085700417 L9.304980828326755,7.212808972721652 L9.266878764423842,7.20541173047009 L9.229713780001296,7.194793198531599 " />
			<path d="M9.22971378000129,7.194793198531597 L9.186741579241989,7.177946537314424 L9.145488612310675,7.156639839303323 L9.106152327711838,7.130975084452 L9.068921000159854,7.101075111621282 L9.033972829442336,7.067083030637173 L9.00147508750494,7.02916153732628 L8.97158331783998,6.987492134807026 L8.944440591010768,6.942274264763791 L8.920176819874941,6.8937243528619385 L8.898908137784364,6.842074772872648 L8.880736342737672,6.787572734465551 L8.865748410145912,6.730479099992516 L8.854016076543346,6.671067135925779 L8.845595496235866,6.609621204926414 L8.84052697253042,6.546435404803269 L8.838834764831843,6.4818121608766885 " />
			<path d="M13.081475451951126,6.010407640085645 L9.54594154601839,7.188918942063226 " />
			<path d="M13.788582233137676,4.831896338108075 L13.78517732071432,4.925442755048588 L13.774995374612201,5.020358210471862 L13.758134452538304,5.115728616656104 L13.734756934389317,5.210635504454992 L13.705087958444464,5.304164868657643 L13.669413253160808,5.395415970358433 L13.628076385452006,5.4835100115650555 L13.581475451951128,5.567598598503591 L13.530059245122446,5.646871912114323 L13.474322931144679,5.72056650705198 L13.414803281190002,5.787972664081748 L13.352073502024227,5.848441225063476 L13.286737715712308,5.901389844699433 L13.2194251415926,5.946308598837865 L13.185229565445235,5.965618451320941 L13.150784036550675,5.98276489532133 L13.1161715372051,5.997706623553586 L13.081475451951135,6.010407640085652 " />
			<path d="M13.788582233137678,-14.024284493533195 L13.788582233137674,4.831896338108074 " />
			<path d="M13.081475451951128,-14.73139127471974 L13.122433560034683,-14.74346102356832 L13.16325413274924,-14.752324335085365 L13.203800096563,-14.757951446694504 L13.243935300067724,-14.760323462823948 L13.283524971168653,-14.759432418356925 L13.322436169642764,-14.75528130537816 L13.360538233545677,-14.747884063126598 L13.397703217968225,-14.737265531188106 " />
			<path d="M13.397703217968228,-14.737265531188104 L13.44067541872753,-14.720418869970931 L13.481928385658843,-14.69911217195983 L13.52126467025768,-14.673447417108507 L13.558495997809665,-14.64354744427779 L13.593444168527183,-14.609555363293682 L13.62594191046458,-14.571633869982787 L13.655833680129538,-14.529964467463532 L13.682976406958751,-14.4847465974203 L13.707240178094578,-14.436196685518446 L13.728508860185155,-14.384547105529156 L13.746680655231847,-14.33004506712206 L13.761668587823607,-14.272951432649023 L13.773400921426173,-14.213539468582287 L13.781821501733653,-14.152093537582923 L13.7868900254391,-14.088907737459778 L13.788582233137676,-14.024284493533202 " />
			<path d="M13.08147545195113,-14.731391274719744 L9.545941546018392,-13.552879972742165 " />
			<path d="M8.838834764831843,-12.374368670764582 L8.842239677255199,-12.467915087705096 L8.852421623357317,-12.562830543128369 L8.869282545431213,-12.658200949312612 L8.892660063580202,-12.7531078371115 L8.922329039525055,-12.84663720131415 L8.95800374480871,-12.93788830301494 L8.999340612517512,-13.025982344221564 L9.04594154601839,-13.110070931160099 L9.097357752847072,-13.189344244770831 L9.15309406682484,-13.263038839708488 L9.212613716779517,-13.330444996738255 L9.275343495945291,-13.390913557719983 L9.340679282257211,-13.44386217735594 L9.407991856376919,-13.488780931494373 L9.442187432524284,-13.50809078397745 L9.476632961418845,-13.525237227977838 L9.511245460764421,-13.540178956210093 L9.545941546018387,-13.552879972742161 " />
			<path d="M-9.8924238687998,-4.244997709723241 L-9.895295285829029,-4.12364155451052 L-9.903897934686483,-4.000861472223195 L-9.918197055561354,-3.8771535673172526 L-9.938134871512538,-3.753017693203127 L-9.9636308219218,-3.628955432541039 L-9.994581888006516,-3.505468070549142 L-10.030863009076745,-3.3830545695135084 L-10.072327587854687,-3.2622095526841415 L-10.118808082814763,-3.1434213057032734 L-10.170116685150878,-3.027169803641357 L-10.226046077635559,-2.913924771612707 L-10.286370272304666,-2.804143786807054 L-10.350845523583011,-2.698270429605923 L-10.419211313161242,-2.596732491254432 L-10.491191402644532,-2.49994024533059 L-10.566494949719788,-2.4082847899963555 L-10.644817683331313,-2.32213646772878 L-10.725843133116605,-2.2418433689164385 L-10.809243908134576,-2.167729925367518 L-10.894683019719407,-2.1000955994126196 L-10.981815243114907,-2.0392136738990816 L-11.07028851238757,-1.9853301479659624 L-11.159745342982047,-1.938662743061414 L-11.24982427617108,-1.899400023218716 L-11.340161339563435,-1.8677006331455865 L-11.430391517768554,-1.8436926572053385 L-11.520150227275508,-1.8274731018799788 L-11.609074789586932,-1.819107503806405 L-11.696805896655567,-1.8186296649694658 L-11.782989062702168,-1.826041516121869 L-11.825391062606457,-1.832697959451332 L-11.867276056548594,-1.841313108982791 L-11.908601723775178,-1.8518782599371715 L-11.949326308678591,-1.864382737246717 " />
			<path d="M-11.949326308678604,-1.8643827372467208 L-12.010937254555584,-1.8874718175008762 L-12.070868515290368,-1.9150990510696264 L-12.128975711226486,-1.9471978815274449 L-12.18511885703934,-1.983690979980233 L-12.239162698973107,-2.0244904313573997 L-12.29097704067889,-2.0694979462069685 L-12.340437056869115,-2.1186050974834725 L-12.387423594032597,-2.17169358175821 L-12.431823457485773,-2.2286355042225594 L-12.47352968406862,-2.2892936867977824 L-12.512441799828258,-2.3535219986090246 L-12.54846606206953,-2.421165708027398 L-12.58151568518934,-2.4920618554320235 L-12.611511049750789,-2.566039645794035 L-12.638379894293365,-2.6429208601367615 L-12.662057489417132,-2.722520284880852 L-12.682486793721525,-2.8046461580400113 L-12.699618591223077,-2.8891006311924228 L-12.71341160992104,-2.9756802461149237 L-12.723832621225245,-3.0641764249316874 L-12.730856520006686,-3.1543759725965943 L-12.73446638507798,-3.2460615904987726 L-12.73465351995798,-3.339012399953984 L-12.731417473822374,-3.433004474320722 L-12.724766042589742,-3.5278113784591034 L-12.714715250140522,-3.623204714232955 L-12.70128930971407,-3.718954670740927 L-12.684520565576847,-3.814830577951088 L-12.664449415102245,-3.91060146240523 L-12.641124211449787,-4.006036603654164 L-12.614601147078115,-4.10090609008349 L-12.584944118372448,-4.194981372790816 L-12.552224571712586,-4.288035816180076 L-12.516521331352328,-4.379845243946541 L-12.477920409524934,-4.470188479137163 L-12.43651479923213,-4.558847876985237 L-12.392404250215812,-4.6456098492357 L-12.345695028652191,-4.73026537869795 L-12.296499661147255,-4.812610522786562 L-12.244936663650332,-4.892446904836847 L-12.191130255938775,-4.969582192011602 L-12.135210062361647,-5.04383055864777 L-12.077310799563307,-5.115013133926736 L-12.017571951939209,-5.182958432789796 L-11.956137435605788,-5.247502769060684 L-11.893155251693916,-5.308490649779908 L-11.828777129801226,-5.365775149800906 L-11.763158162462217,-5.419218265745599 L-11.69645643151675,-5.468691248466611 L-11.628832627277053,-5.514074913215246 L-11.560449661410686,-5.555259926767985 L-11.491472274472063,-5.5921470708198004 L-11.422066639028023,-5.6246474810097356 L-11.352399959333566,-5.652682861002946 L-11.282640068522156,-5.6761856711134175 L-11.212955024281005,-5.6950992910129905 L-11.143512703985376,-5.709378156134692 L-11.074480400267293,-5.71898786744176 L-11.006024417992927,-5.7239052742979455 L-10.938309673619612,-5.724118530239418 L-10.871499297897657,-5.719627121513936 L-10.80575424287407,-5.71044186831852 L-10.741232894144993,-5.69658489873265 L-10.678090689290922,-5.678089595409788 " />
			<path d="M-10.678090689290915,-5.678089595409786 L-10.634497143406092,-5.662290430392101 L-10.59171656576467,-5.644227806363309 L-10.549800161710568,-5.62392334301455 L-10.508798102232676,-5.601401343361028 L-10.468759463913704,-5.576688764653011 L-10.429732170188963,-5.549815186109894 L-10.391762933985383,-5.520812773515954 L-10.354897201809429,-5.489716240720167 L-10.319179099350816,-5.456562808086174 L-10.284651378667167,-5.421392157942117 L-10.251355367012813,-5.38424638708369 L-10.219330917372957,-5.345169956387223 L-10.18861636076247,-5.30420963759315 L-10.15924846034635,-5.261414457323518 L-10.131262367436804,-5.216835638400563 L-10.104691579419594,-5.170526538536604 L-10.079567899660024,-5.122542586468601 L-10.055921399436546,-5.072941215613861 L-10.013171348434456,-4.969125559835363 L-9.976646040390577,-4.85957646263707 L-9.946520295881117,-4.744818257346234 L-9.922938305339942,-4.625400209572053 L-9.906012938921895,-4.501893888263289 L-9.895825206273939,-4.3748904300157205 L-9.8924238687998,-4.244997709723258 " />
			<path d="M-9.8924238687998,10.839946955589772 L-9.895295285829029,10.961303110802492 L-9.903897934686483,11.084083193089818 L-9.918197055561354,11.20779109799576 L-9.938134871512538,11.331926972109885 L-9.9636308219218,11.455989232771973 L-9.994581888006516,11.579476594763872 L-10.030863009076745,11.701890095799504 L-10.072327587854687,11.822735112628871 L-10.118808082814763,11.94152335960974 L-10.170116685150878,12.057774861671657 L-10.226046077635559,12.171019893700306 L-10.286370272304666,12.280800878505959 L-10.350845523583011,12.38667423570709 L-10.419211313161242,12.488212174058582 L-10.491191402644532,12.585004419982422 L-10.566494949719788,12.676659875316657 L-10.644817683331313,12.762808197584233 L-10.725843133116605,12.843101296396574 L-10.809243908134576,12.917214739945495 L-10.894683019719407,12.984849065900393 L-10.981815243114907,13.045730991413931 L-11.07028851238757,13.09961451734705 L-11.159745342982047,13.1462819222516 L-11.24982427617108,13.185544642094296 L-11.340161339563435,13.217244032167427 L-11.430391517768554,13.241252008107674 L-11.520150227275508,13.257471563433034 L-11.609074789586932,13.265837161506608 L-11.696805896655567,13.266315000343546 L-11.782989062702168,13.258903149191143 L-11.825391062606457,13.252246705861682 L-11.867276056548594,13.243631556330222 L-11.908601723775178,13.23306640537584 L-11.949326308678591,13.220561928066296 " />
			<path d="M-11.949326308678604,13.220561928066292 L-12.010937254555584,13.197472847812136 L-12.070868515290368,13.169845614243386 L-12.128975711226486,13.137746783785568 L-12.18511885703934,13.10125368533278 L-12.239162698973107,13.060454233955612 L-12.29097704067889,13.015446719106045 L-12.340437056869115,12.96633956782954 L-12.387423594032597,12.913251083554803 L-12.431823457485773,12.856309161090453 L-12.47352968406862,12.79565097851523 L-12.512441799828258,12.731422666703988 L-12.54846606206953,12.663778957285615 L-12.58151568518934,12.59288280988099 L-12.611511049750789,12.518905019518977 L-12.638379894293365,12.442023805176252 L-12.662057489417132,12.362424380432161 L-12.682486793721525,12.280298507273002 L-12.699618591223077,12.19584403412059 L-12.71341160992104,12.10926441919809 L-12.723832621225245,12.020768240381326 L-12.730856520006686,11.930568692716419 L-12.73446638507798,11.838883074814241 L-12.73465351995798,11.745932265359029 L-12.731417473822374,11.65194019099229 L-12.724766042589742,11.55713328685391 L-12.714715250140522,11.461739951080059 L-12.70128930971407,11.365989994572086 L-12.684520565576847,11.270114087361925 L-12.664449415102245,11.174343202907783 L-12.641124211449787,11.078908061658849 L-12.614601147078115,10.984038575229523 L-12.584944118372448,10.889963292522197 L-12.552224571712586,10.796908849132937 L-12.516521331352328,10.705099421366471 L-12.477920409524934,10.61475618617585 L-12.43651479923213,10.526096788327775 L-12.392404250215812,10.439334816077313 L-12.345695028652191,10.354679286615063 L-12.296499661147255,10.27233414252645 L-12.244936663650332,10.192497760476167 L-12.191130255938775,10.115362473301412 L-12.135210062361647,10.041114106665242 L-12.077310799563307,9.969931531386276 L-12.017571951939209,9.901986232523216 L-11.956137435605788,9.83744189625233 L-11.893155251693916,9.776454015533105 L-11.828777129801226,9.719169515512107 L-11.763158162462217,9.665726399567415 L-11.69645643151675,9.616253416846403 L-11.628832627277053,9.570869752097767 L-11.560449661410686,9.529684738545027 L-11.491472274472063,9.492797594493213 L-11.422066639028023,9.460297184303277 L-11.352399959333566,9.432261804310068 L-11.282640068522156,9.408758994199596 L-11.212955024281005,9.389845374300021 L-11.143512703985376,9.375566509178322 L-11.074480400267293,9.365956797871252 L-11.006024417992927,9.361039391015067 L-10.938309673619612,9.360826135073594 L-10.871499297897657,9.365317543799076 L-10.80575424287407,9.374502796994493 L-10.741232894144993,9.388359766580363 L-10.678090689290922,9.406855069903225 " />
			<path d="M-10.678090689290915,9.406855069903227 L-10.634497143406092,9.42265423492091 L-10.59171656576467,9.440716858949704 L-10.549800161710568,9.461021322298464 L-10.508798102232676,9.483543321951984 L-10.468759463913704,9.508255900660002 L-10.429732170188963,9.53512947920312 L-10.391762933985383,9.564131891797059 L-10.354897201809429,9.595228424592847 L-10.319179099350816,9.628381857226838 L-10.284651378667167,9.663552507370895 L-10.251355367012813,9.700698278229323 L-10.219330917372957,9.73977470892579 L-10.18861636076247,9.780735027719862 L-10.15924846034635,9.823530207989496 L-10.131262367436804,9.86810902691245 L-10.104691579419594,9.91441812677641 L-10.079567899660024,9.962402078844411 L-10.055921399436546,10.01200344969915 L-10.013171348434456,10.11581910547765 L-9.976646040390577,10.225368202675943 L-9.946520295881117,10.340126407966778 L-9.922938305339942,10.45954445574096 L-9.906012938921895,10.583050777049724 L-9.895825206273939,10.710054235297292 L-9.8924238687998,10.839946955589754 " />
			<path d="M12.73499312916972,-11.787470042379747 L12.73212171214049,-11.666113887167027 L12.723519063283035,-11.543333804879701 L12.709219942408165,-11.41962589997376 L12.68928212645698,-11.295490025859634 L12.663786176047719,-11.171427765197546 L12.632835109963002,-11.047940403205647 L12.596553988892774,-10.925526902170015 L12.555089410114832,-10.804681885340647 L12.508608915154756,-10.68589363835978 L12.45730031281864,-10.569642136297862 L12.40137092033396,-10.456397104269213 L12.341046725664853,-10.34661611946356 L12.276571474386508,-10.240742762262428 L12.208205684808277,-10.139204823910937 L12.136225595324987,-10.042412577987097 L12.060922048249731,-9.950757122652861 L11.982599314638206,-9.864608800385286 L11.901573864852914,-9.784315701572945 L11.818173089834943,-9.710202258024024 L11.732733978250112,-9.642567932069126 L11.645601754854612,-9.581686006555588 L11.557128485581948,-9.52780248062247 L11.467671654987472,-9.48113507571792 L11.37759272179844,-9.441872355875223 L11.287255658406083,-9.410172965802092 L11.197025480200965,-9.386164989861845 L11.107266770694011,-9.369945434536485 L11.018342208382586,-9.36157983646291 L10.930611101313952,-9.361101997625973 L10.844427935267351,-9.368513848778376 L10.802025935363062,-9.375170292107837 L10.760140941420925,-9.383785441639297 L10.718815274194341,-9.394350592593678 L10.678090689290928,-9.406855069903223 " />
			<path d="M10.678090689290915,-9.406855069903227 L10.616479743413935,-9.429944150157382 L10.556548482679151,-9.457571383726133 L10.498441286743033,-9.48967021418395 L10.442298140930179,-9.526163312636738 L10.388254298996412,-9.566962764013907 L10.33643995729063,-9.611970278863474 L10.286979941100403,-9.66107743013998 L10.239993403936921,-9.714165914414716 L10.195593540483745,-9.771107836879066 L10.1538873139009,-9.831766019454289 L10.114975198141261,-9.89599433126553 L10.07895093589999,-9.963638040683904 L10.04590131278018,-10.034534188088529 L10.01590594821873,-10.108511978450542 L9.989037103676154,-10.185393192793267 L9.965359508552387,-10.264992617537358 L9.944930204247994,-10.347118490696516 L9.927798406746442,-10.431572963848929 L9.914005388048478,-10.51815257877143 L9.903584376744273,-10.606648757588193 L9.896560477962833,-10.6968483052531 L9.89295061289154,-10.788533923155278 L9.892763478011538,-10.88148473261049 L9.895999524147145,-10.975476806977229 L9.902650955379777,-11.070283711115609 L9.912701747828997,-11.16567704688946 L9.926127688255448,-11.261427003397433 L9.942896432392672,-11.357302910607594 L9.962967582867273,-11.453073795061735 L9.986292786519732,-11.54850893631067 L10.012815850891403,-11.643378422739996 L10.04247287959707,-11.737453705447322 L10.075192426256933,-11.830508148836582 L10.110895666617191,-11.922317576603048 L10.149496588444585,-12.012660811793669 L10.190902198737389,-12.101320209641743 L10.235012747753707,-12.188082181892206 L10.281721969317328,-12.272737711354456 L10.330917336822264,-12.355082855443069 L10.382480334319187,-12.434919237493352 L10.436286742030743,-12.512054524668107 L10.492206935607872,-12.586302891304276 L10.550106198406212,-12.657485466583243 L10.60984504603031,-12.725430765446303 L10.67127956236373,-12.78997510171719 L10.734261746275603,-12.850962982436414 L10.798639868168292,-12.908247482457412 L10.864258835507302,-12.961690598402104 L10.930960566452768,-13.011163581123116 L10.998584370692466,-13.056547245871752 L11.066967336558832,-13.097732259424491 L11.135944723497456,-13.134619403476306 L11.205350358941496,-13.167119813666242 L11.275017038635953,-13.19515519365945 L11.344776929447363,-13.218658003769923 L11.414461973688514,-13.237571623669497 L11.483904293984143,-13.251850488791197 L11.552936597702226,-13.261460200098266 L11.621392579976591,-13.266377606954451 L11.689107324349907,-13.266590862895924 L11.755917700071862,-13.262099454170443 L11.82166275509545,-13.252914200975026 L11.886184103824526,-13.239057231389156 L11.949326308678597,-13.220561928066294 " />
			<path d="M11.949326308678604,-13.220561928066292 L11.992919854563427,-13.204762763048608 L12.035700432204848,-13.186700139019814 L12.07761683625895,-13.166395675671055 L12.118618895736843,-13.143873676017535 L12.158657534055815,-13.119161097309517 L12.197684827780556,-13.0922875187664 L12.235654063984136,-13.06328510617246 L12.27251979616009,-13.032188573376672 L12.308237898618703,-12.99903514074268 L12.342765619302352,-12.963864490598624 L12.376061630956706,-12.926718719740196 L12.408086080596561,-12.887642289043729 L12.438800637207049,-12.846681970249657 L12.46816853762317,-12.803886789980023 L12.496154630532715,-12.75930797105707 L12.522725418549925,-12.71299887119311 L12.547849098309495,-12.665014919125108 L12.571495598532973,-12.615413548270368 L12.614245649535063,-12.511597892491869 L12.650770957578942,-12.402048795293576 L12.680896702088402,-12.28729059000274 L12.704478692629577,-12.167872542228558 L12.721404059047623,-12.044366220919795 L12.73159179169558,-11.917362762672226 L12.73499312916972,-11.787470042379764 " />
			<path d="M12.73499312916972,3.297474622933266 L12.73212171214049,3.418830778145986 L12.723519063283035,3.5416108604333116 L12.709219942408165,3.6653187653392543 L12.68928212645698,3.7894546394533797 L12.663786176047719,3.913516900115468 L12.632835109963002,4.037004262107365 L12.596553988892774,4.159417763142999 L12.555089410114832,4.280262779972365 L12.508608915154756,4.3990510269532335 L12.45730031281864,4.51530252901515 L12.40137092033396,4.6285475610438 L12.341046725664853,4.738328545849453 L12.276571474386508,4.844201903050584 L12.208205684808277,4.945739841402075 L12.136225595324987,5.042532087325917 L12.060922048249731,5.134187542660151 L11.982599314638206,5.220335864927726 L11.901573864852914,5.300628963740069 L11.818173089834943,5.374742407288989 L11.732733978250112,5.442376733243887 L11.645601754854612,5.503258658757425 L11.557128485581948,5.557142184690544 L11.467671654987472,5.603809589595093 L11.37759272179844,5.643072309437791 L11.287255658406083,5.67477169951092 L11.197025480200965,5.698779675451169 L11.107266770694011,5.714999230776528 L11.018342208382586,5.723364828850102 L10.930611101313952,5.723842667687041 L10.844427935267351,5.716430816534638 L10.802025935363062,5.709774373205175 L10.760140941420925,5.701159223673716 L10.718815274194341,5.690594072719335 L10.678090689290928,5.67808959540979 " />
			<path d="M10.678090689290915,5.678089595409786 L10.616479743413935,5.65500051515563 L10.556548482679151,5.62737328158688 L10.498441286743033,5.595274451129062 L10.442298140930179,5.558781352676274 L10.388254298996412,5.517981901299107 L10.33643995729063,5.472974386449538 L10.286979941100403,5.423867235173034 L10.239993403936921,5.370778750898297 L10.195593540483745,5.3138368284339474 L10.1538873139009,5.253178645858725 L10.114975198141261,5.188950334047482 L10.07895093589999,5.121306624629109 L10.04590131278018,5.050410477224483 L10.01590594821873,4.976432686862472 L9.989037103676154,4.899551472519745 L9.965359508552387,4.819952047775654 L9.944930204247994,4.737826174616496 L9.927798406746442,4.653371701464084 L9.914005388048478,4.566792086541583 L9.903584376744273,4.478295907724819 L9.896560477962833,4.3880963600599125 L9.89295061289154,4.296410742157734 L9.892763478011538,4.203459932702523 L9.895999524147145,4.109467858335785 L9.902650955379777,4.014660954197403 L9.912701747828997,3.919267618423552 L9.926127688255448,3.82351766191558 L9.942896432392672,3.727641754705419 L9.962967582867273,3.631870870251277 L9.986292786519732,3.5364357290023434 L10.012815850891403,3.4415662425730167 L10.04247287959707,3.347490959865691 L10.075192426256933,3.2544365164764306 L10.110895666617191,3.162627088709966 L10.149496588444585,3.0722838535193437 L10.190902198737389,2.98362445567127 L10.235012747753707,2.8968624834208065 L10.281721969317328,2.8122069539585572 L10.330917336822264,2.7298618098699445 L10.382480334319187,2.6500254278196604 L10.436286742030743,2.5728901406449047 L10.492206935607872,2.4986417740087368 L10.550106198406212,2.4274591987297707 L10.60984504603031,2.3595138998667102 L10.67127956236373,2.2949695635958225 L10.734261746275603,2.233981682876599 L10.798639868168292,2.1766971828556008 L10.864258835507302,2.1232540669109086 L10.930960566452768,2.0737810841898967 L10.998584370692466,2.0283974194412613 L11.066967336558832,1.9872124058885212 L11.135944723497456,1.9503252618367068 L11.205350358941496,1.9178248516467713 L11.275017038635953,1.8897894716535613 L11.344776929447363,1.8662866615430895 L11.414461973688514,1.847373041643516 L11.483904293984143,1.8330941765218154 L11.552936597702226,1.8234844652147473 L11.621392579976591,1.8185670583585616 L11.689107324349907,1.8183538024170887 L11.755917700071862,1.822845211142571 L11.82166275509545,1.832030464337987 L11.886184103824526,1.8458874339238573 L11.949326308678597,1.8643827372467188 " />
			<path d="M11.949326308678604,1.8643827372467208 L11.992919854563427,1.8801819022644053 L12.035700432204848,1.898244526293198 L12.07761683625895,1.9185489896419576 L12.118618895736843,1.9410709892954792 L12.158657534055815,1.965783568003496 L12.197684827780556,1.9926571465466127 L12.235654063984136,2.021659559140553 L12.27251979616009,2.05275609193634 L12.308237898618703,2.085909524570333 L12.342765619302352,2.1210801747143893 L12.376061630956706,2.158225945572817 L12.408086080596561,2.197302376269284 L12.438800637207049,2.2382626950633564 L12.46816853762317,2.281057875332989 L12.496154630532715,2.3256366942559437 L12.522725418549925,2.371945794119903 L12.547849098309495,2.419929746187906 L12.571495598532973,2.4695311170426453 L12.614245649535063,2.573346772821144 L12.650770957578942,2.682895870019437 L12.680896702088402,2.7976540753102728 L12.704478692629577,2.917072123084454 L12.721404059047623,3.0405784443932182 L12.73159179169558,3.1675819026407868 L12.73499312916972,3.297474622933249 " />
			<path d="M15.909902576697318,-13.317177712346645 L15.908210368998741,-13.381800956273253 L15.90314184529329,-13.444986756396421 L15.894721264985805,-13.506432687395806 L15.88298893138323,-13.565844651462564 L15.868000998791459,-13.622938285935616 L15.849829203744752,-13.677440324342728 L15.82856052165416,-13.72908990433203 L15.804296750518317,-13.777639816233892 L15.777154023689084,-13.822857686277132 L15.747262254024106,-13.864527088796388 L15.714764512086687,-13.902448582107281 L15.679816341369143,-13.936440663091386 L15.642585013817138,-13.966340635922096 L15.603248729218274,-13.992005390773405 L15.561995762286935,-14.01331208878449 L15.519023561527614,-14.030158750001641 " />
			<path d="M15.90990257669732,-13.317177712346645 L15.909902576697316,5.539003119294623 " />
			<path d="M-6.717514421272201,-5.774705379690138 L-6.717514421272201,-1.5320646925708514 " />
			<path d="M15.20279579551077,6.7175144212722016 L15.23749188076474,6.704813404740133 L15.272104380110315,6.689871676507877 L15.306549909004875,6.672725232507489 L15.340745485152242,6.653415380024413 L15.408058059271948,6.60849662588598 L15.47339384558387,6.555548006250023 L15.536123624749644,6.495079445268295 L15.59564327470432,6.427673288238527 L15.651379588682088,6.353978693300871 L15.70279579551077,6.274705379690138 L15.749396729011648,6.190616792751603 L15.79073359672045,6.10252275154498 L15.826408302004106,6.01127164984419 L15.856077277948959,5.917742285641539 L15.879454796097946,5.822835397842651 L15.896315718171843,5.727464991658409 L15.906497664273962,5.632549536235136 L15.909902576697318,5.53900311929463 " />
			<path d="M-6.7175144212722,-5.774705379690138 L-6.7192066289707775,-5.839328623616756 L-6.72427515267623,-5.902514423739936 L-6.73269573298372,-5.963960354739332 L-6.744428066586298,-6.023372318806099 L-6.759415999178075,-6.080465953279161 L-6.777587794224788,-6.1349679916862785 L-6.798856476315388,-6.186617571675587 L-6.82312024745124,-6.235167483577453 L-6.850262974280482,-6.280385353620697 L-6.880154743945471,-6.322054756139955 L-6.9126524858829,-6.359976249450847 L-6.9476006566004544,-6.393968330434949 L-6.984831984152474,-6.423868303265655 L-7.024168268751349,-6.449533058116959 L-7.0654212356827015,-6.470839756128036 L-7.108393436442035,-6.487686417345178 " />
			<path d="M15.202795795510768,6.717514421272193 L11.667261889578032,7.896025723249774 " />
			<path d="M11.351034123561194,7.901899979718231 L11.388199107983718,7.912518511656693 L11.426301171886603,7.91991575390823 L11.465212370360684,7.9240668668869745 L11.504802041461579,7.924957911353984 L11.544937244966269,7.9225858952245325 L11.585483208779994,7.916958783615392 L11.626303781494515,7.90809547209835 L11.667261889578029,7.896025723249782 " />
			<path d="M-11.276382874408565,15.444372312374659 L-11.239217889986016,15.454990844313151 L-11.201115826083104,15.46238808656471 L-11.162204627608997,15.466539199543472 L-11.12261495650807,15.467430244010496 L-11.08247975300335,15.465058227881052 L-11.041933789189592,15.459431116271913 L-11.001113216475037,15.450567804754867 L-10.96015510839149,15.43849805590629 " />
			<path d="M8.838834764831843,2.2391714737573993 L-6.010407640085653,7.188918942063234 " />
			<path d="M-10.960155108391486,15.438498055906283 L-7.424621202458747,14.259986753928704 " />
			<path d="M-6.717514421272202,8.367430244040813 L-6.714109508848846,8.273883827100299 L-6.7039275627467285,8.178968371677026 L-6.687066640672831,8.083597965492784 L-6.663689122523843,7.988691077693894 L-6.63402014657899,7.895161713491244 L-6.598345441295334,7.803910611790455 L-6.5570085735865336,7.715816570583832 L-6.5104076400856545,7.6317279836452965 L-6.458991433256973,7.552454670034564 L-6.403255119279206,7.478760075096908 L-6.343735469324528,7.411353918067141 L-6.281005690158753,7.350885357085412 L-6.215669903846833,7.297936737449454 L-6.148357329727126,7.253017983311022 L-6.1141617535797605,7.233708130827947 L-6.079716224685201,7.216561686827557 L-6.045103725339625,7.201619958595302 L-6.010407640085658,7.188918942063234 " />
			<path d="M-7.424621202458749,14.25998675392871 L-7.389925117204778,14.247285737396641 L-7.3553126178592025,14.232344009164386 L-7.3208670889646426,14.215197565163997 L-7.286671512817277,14.195887712680921 L-7.21935893869757,14.150968958542489 L-7.15402315238565,14.098020338906531 L-7.091293373219875,14.037551777924802 L-7.031773723265198,13.970145620895035 L-6.97603740928743,13.89645102595738 L-6.924621202458749,13.817177712346647 L-6.87802026895787,13.733089125408112 L-6.836683401249069,13.644995084201488 L-6.801008695965413,13.553743982500698 L-6.77133972002056,13.460214618298048 L-6.747962201871572,13.36530773049916 L-6.731101279797675,13.269937324314919 L-6.720919333695558,13.175021868891644 L-6.717514421272201,13.081475451951139 " />
			<path d="M-6.717514421272201,8.367430244040813 L-6.717514421272201,13.08147545195113 " />
			<path d="M-10.603419558900693,-2.3665690806477158 L-10.61208922643662,-2.5014642166894183 L-10.61320088471589,-2.6393547921503013 L-10.606748615645088,-2.779506724154033 L-10.592766768926666,-2.9211738911254086 L-10.57132977919273,-3.063602104889751 L-10.54255176974019,-3.2060331257161625 L-10.506585944976836,-3.347708698929893 L-10.463623774812806,-3.487874591604269 L-10.413893975339406,-3.6257846078421876 L-10.357661291221849,-3.7607045612711842 L-10.295225086288035,-3.891916183603838 L-10.226917749816577,-4.018720948455673 L-10.15310292700849,-4.140443790063827 L-10.074173583062894,-4.256436697109294 L-9.990549911162946,-4.366082162510438 L-9.902677095509189,-4.468796470822237 " />
			<path d="M-10.603419558900693,12.718375584665297 L-10.61208922643662,12.583480448623595 L-10.61320088471589,12.445589873162712 L-10.606748615645088,12.30543794115898 L-10.592766768926666,12.163770774187604 L-10.57132977919273,12.021342560423262 L-10.54255176974019,11.87891153959685 L-10.506585944976836,11.73723596638312 L-10.463623774812806,11.597070073708744 L-10.413893975339406,11.459160057470825 L-10.357661291221849,11.324240104041829 L-10.295225086288035,11.193028481709174 L-10.226917749816577,11.06622371685734 L-10.15310292700849,10.944500875249187 L-10.074173583062894,10.82850796820372 L-9.990549911162946,10.718862502802576 L-9.902677095509189,10.616148194490776 " />
			<path d="M12.023997439068825,-9.909041413304221 L12.015327771532899,-10.043936549345924 L12.014216113253628,-10.181827124806807 L12.02066838232443,-10.32197905681054 L12.034650229042853,-10.463646223781915 L12.056087218776788,-10.606074437546257 L12.08486522822933,-10.74850545837267 L12.120831052992683,-10.8901810315864 L12.163793223156713,-11.030346924260774 L12.213523022630113,-11.168256940498694 L12.26975570674767,-11.30317689392769 L12.332191911681484,-11.434388516260345 L12.400499248152942,-11.561193281112178 L12.474314070961029,-11.682916122720332 L12.553243414906625,-11.798909029765799 L12.636867086806573,-11.908554495166943 L12.72473990246033,-12.011268803478742 " />
			<path d="M12.023997439068825,5.175903252008791 L12.015327771532899,5.041008115967087 L12.014216113253628,4.903117540506204 L12.02066838232443,4.762965608502473 L12.034650229042853,4.621298441531097 L12.056087218776788,4.4788702277667545 L12.08486522822933,4.3364392069403435 L12.120831052992683,4.1947636337266125 L12.163793223156713,4.054597741052238 L12.213523022630113,3.9166877248143184 L12.26975570674767,3.7817677713853217 L12.332191911681484,3.650556149052668 L12.400499248152942,3.523751384200833 L12.474314070961029,3.402028542592679 L12.553243414906625,3.2860356355472122 L12.636867086806573,3.1763901701460684 L12.72473990246033,3.0736758618342686 " />
			<path d="M13.788582233137678,-14.024284493533193 L15.90990257669732,-13.317177712346645 " />
			<path d="M-7.424621202458745,-1.2963624321753366 L-8.838834764831843,-1.7677669529663693 " />
			<path d="M15.909902576697318,5.539003119294622 L13.788582233137676,4.831896338108074 " />
			<path d="M-8.838834764831843,-6.481812160876686 L-6.7175144212722,-5.774705379690138 " />
			<path d="M13.081475451951128,6.010407640085653 L15.20279579551077,6.717514421272201 " />
			<path d="M11.667261889578032,7.896025723249781 L9.54594154601839,7.188918942063233 " />
			<path d="M8.131727983645296,1.060660171779821 L8.697413408594535,1.2492219800962339 " />
			<path d="M-10.960155108391486,15.438498055906289 L-13.081475451951128,14.73139127471974 " />
			<path d="M-6.0104076400856545,7.188918942063234 L-8.131727983645296,6.481812160876686 " />
			<path d="M-9.54594154601839,13.552879972742161 L-7.424621202458749,14.25998675392871 " />
			<path d="M-8.838834764831843,7.660323462854265 L-6.717514421272201,8.367430244040813 " />
			<path d="M-6.717514421272201,13.08147545195113 L-8.838834764831843,12.374368670764582 " />
			<path d="M13.397703217967965,-14.737265531188191 L15.519023561527607,-14.030158750001643 " />
			<path d="M-7.108393436441911,-6.487686417345136 L-9.229713780001553,-7.194793198531684 " />
			<path d="M9.229713780001553,7.194793198531683 L11.351034123561195,7.901899979718231 " />
			<path d="M-11.276382874408323,15.444372312374739 L-13.397703217967965,14.737265531188191 " />

       </g>
    </g>
    
</svg>
