<?xml version="1.0" encoding="UTF-8" standalone="no"?>
<svg
   xmlns:svg="http://www.w3.org/2000/svg"
   xmlns="http://www.w3.org/2000/svg"
   width="1024.0"
   height="320.0"

>
    <g transform="scale(22.715806231873042, -22.715806231873042)   translate(13.665801188814253,-6.163109447709716)" stroke-width="1.0"  fill="none">
       <!-- hidden lines -->
       <g  stroke="rgb(32,64,32)" fill="none" stroke-dasharray="1.0,1.0" >

       </g>

       <!-- solid lines -->
       <g  stroke="rgb(64,192,64)" fill="none">
			<path d="M-1.5025476814898338,1.4199434332882004 L-1.5008465694843238,1.3081876269420447 L-1.4967617406589704,1.19574756233895 L-1.4902965352794064,1.0827151845027245 L-1.4814562401040892,0.9691829228063636 L-1.4702480840611885,0.855243615390268 L-1.4566812323373113,0.7409904332462008 L-1.4407667788829013,0.6265168040290569 L-1.4225177373404443,0.5119163356587572 L-1.401949030402887,0.3972827397747418 L-1.379077477610985,0.2827097551056359 L-1.3539217815995443,0.1682910708167732 L-1.3265025128038168,0.05412024989825115 L-1.2968420926385456,-0.05970934734384903 L-1.2649647751634179,-0.1731046396304915 L-1.2308966272499209,-0.2859729008245494 L-1.1946655072658188,-0.39822183575526704 L-1.1563010422946696,-0.5097596556903033 L-1.1158346039090326,-0.6204951533936472 L-1.0732992825171501,-0.7303377777080374 L-1.0287298603041068,-0.8391977076008817 L-0.9821627827895756,-0.946985925613136 L-0.9336361290254112,-1.0536142906510895 L-0.883189580457469,-1.1589956100615164 L-0.8308643884771056,-1.2630437109312629 L-0.7767033406888917,-1.365673510552976 L-0.7207507259221329,-1.4668010859993386 L-0.663052298014795,-1.5663437427489186 L-0.6036552383994591,-1.6642200823075353 L-0.5426081175218955,-1.760350068769815 L-0.4799608551238117,-1.8546550942665343 L-0.41576467942223805,-1.9470580432442213 L-0.3500720852189625,-2.0374833555244387 " />
			<path d="M1.081116321216177,-3.24334896364853 L0.9836643496197948,-3.196573679461348 L0.8866393598325348,-3.1454739670647522 L0.7901564810072861,-3.0901104610088126 L0.6943301990319817,-3.0305488552303914 L0.5992742206814692,-2.966859825101195 L0.5051013386938719,-2.899118943564885 L0.4119232979315417,-2.8274065914627733 L0.31985066278540786,-2.751807862154491 L0.22899268598007216,-2.672412460546824 L0.13945717893531184,-2.589314596650518 L0.05135038383782664,-2.5026128737913576 L-0.03522315242497087,-2.412410171608173 L-0.12016070231954212,-2.318813523976602 L-0.20336147956196893,-2.2219339920034655 L-0.28472675871023223,-2.121886532242461 L-0.36415999231110363,-2.0187898602875487 " />
			<path d="M-0.36415999231110896,-2.018789860287542 L-0.4294133109740459,-1.929793958226206 L-0.493177975186575,-1.8388016465828838 L-0.5554004440360385,-1.7458893283539751 L-0.6160284715361797,-1.6511350186968827 L-0.6750111504962353,-1.554618279423464 L-0.7322989552658872,-1.4564201521948217 L-0.7878437833201801,-1.3566230904735137 L-0.8415989956494949,-1.2553108902903232 L-0.893519455920665,-1.152568619883719 L-0.9435615683763399,-1.0484825482710958 L-0.9916833144407875,-0.9431400728117587 L-1.037844288001393,-0.83662964582248 L-1.0820057293362308,-0.7290407003072437 L-1.1241305576592169,-0.6204635748635456 L-1.1641834022555237,-0.5109894378282992 L-1.202130632181104,-0.40071021072703505 L-1.237940384501398,-0.2897184910906755 L-1.2715825910455008,-0.17810747470469446 L-1.3030290036533307,-0.0659708773559442 L-1.3322532178946023,0.04659714385714753 L-1.3592306952396849,0.15950206958493385 L-1.3839387836637294,0.27264909759107214 L-1.4063567366667635,0.3859432223545757 L-1.4264657306937896,0.499289314842561 L-1.4442488809402525,0.6125922023867022 L-1.4596912555296029,0.7257567485963241 L-1.4727798880510667,0.8386879332410293 L-1.4835037884470734,0.9512909320357976 L-1.4918539522412162,1.0634711962615566 L-1.497823368098991,1.175134532154361 L-1.5014070237149604,1.2861871799965368 L-1.5026019100214125,1.3965358928433507 " />
			<path d="M-1.5026019100214125,1.3965358928433678 L-1.5009133263136631,1.5266731705678276 L-1.4958495788516555,1.6555303058655901 L-1.4874166762415955,1.7829543977895561 L-1.4756246249048808,1.9087942458315554 L-1.4604874172045539,2.032900529335781 L-1.4420230148420623,2.1551259846815998 L-1.420253327544038,2.2753255800255006 L-1.3952041870643697,2.3933566873948355 L-1.3669053165324316,2.5090792519291427 L-1.3353902951838343,2.6223559580682294 L-1.300696518515543,2.7330523924898356 L-1.262865153912651,2.8410372036035 L-1.2219410917994604,2.946182257411419 L-1.1779728923728252,3.048362789551321 L-1.131012727980974,3.147457553340954 L-1.0811163212161847,3.243348963648516 " />
			<path d="M-1.4142135623730947,-4.360491817317041 L-1.4857957974402949,-4.335459751912099 L-1.5573349140457224,-4.30810012412226 L-1.6287878197005543,-4.278429414364262 L-1.7001114738462209,-4.246465495164207 L-1.771262913780427,-4.21222762039181 L-1.8421992805362808,-4.1757364136626 L-1.9128778446989296,-4.137013855915015 L-1.9832560321441646,-4.0960832721699125 L-2.0532914496834773,-4.052969317480448 L-2.122941910600136,-4.007697962080791 L-2.2609204003879566,-3.9107934113488794 L-2.396859099240239,-3.8056030715247275 L-2.530430518924625,-3.6923803553505556 L-2.661312874191621,-3.5713980262667673 L-2.7891908579834457,-3.442947541300926 L-2.913756401036359,-3.3073383489222477 L-3.0347094140464925,-3.164897143553135 L-3.1517585106112715,-3.0159670785336976 L-3.264621709204781,-2.860906939435302 L-3.3730271124959623,-2.700090279714699 L-3.4767135623730936,-2.533904520791031 L-3.5754312690965615,-2.3627500187137 L-3.6689424130642188,-2.1870390996695726 L-3.7570217177396383,-2.0071950666530864 L-3.8394569923630213,-1.8236511796922534 L-3.916049643137323,-1.636849612087309 L-3.9866151516581034,-1.4472403851764988 L-4.050983519434528,-1.2552802841952562 L-4.108999677430621,-1.0614317578405648 L-4.160523859640152,-0.8661618041915391 L-4.205431939795197,-0.6699408456701472 L-4.243615730397175,-0.4732415957523941 L-4.2749832433500226,-0.27653792016014933 L-4.299458911567568,-0.080303695277123 L-4.316983771021258,0.11498833346085335 L-4.327515602789672,0.3088676904509897 L-4.331029034767602,0.5008673033404699 L-4.327515602789672,0.6905246282446623 L-4.316983771021258,0.8773827640558568 L-4.299458911567568,1.0609915531580416 L-4.274983243350023,1.240908665896037 L-4.243615730397176,1.4167006661863821 L-4.205431939795197,1.5879440557028164 L-4.160523859640154,1.754226294120846 L-4.108999677430621,1.9151467929635166 L-4.080794722823156,1.9934747123499696 L-4.050983519434528,2.0703178806541476 L-4.019584024418946,2.145630010424817 L-3.9866151516581034,2.2193657364511066 L-3.952096760368167,2.291480643088813 L-3.916049643137323,2.3619312910147294 L-3.878495513401104,2.4306752433928644 L-3.839456992363022,2.497671091436806 L-3.7989575953684076,2.5628784793528303 L-3.757021717739639,2.626258128648716 L-3.713674620081318,2.6877718617936472 L-3.6689424130642196,2.7473826252149247 L-3.6228520416972065,2.8050545116176506 L-3.575431269096562,2.860752781613947 L-3.526708659762522,2.914443884648662 L-3.4767135623730945,2.9660954792089664 L-3.4254760921055096,3.0156764523056747 L-3.3730271124959637,3.0631569382145463 L-3.3193982168485796,3.1085083364662776 L-3.264621709204782,3.151703329074362 L-3.2087305848845498,3.192715896990416 L-3.151758510611271,3.2315213357770856 L-3.093739804232164,3.2680962704890737 L-3.0347094140464925,3.3024186697533358 L-2.9747028977540158,3.334467859039952 L-2.91375640103636,3.364224533115693 L-2.8519066357842116,3.391670767672769 L-2.7891908579834475,3.416790030125763 L-2.72564684527352,3.4395671895702433 L-2.6613128741916223,3.459988525897054 L-2.596227697116332,3.4780417380567945 L-2.5304305189246263,3.493715951469512 L-2.4639609733763344,3.5070017245751446 L-2.396859099240239,3.5178910545207596 L-2.329165316176219,3.526377381981176 L-2.260920400387957,3.5324555951100565 L-2.192165460060883,3.5361220326190916 L-2.1229419106001366,3.537374485983421 L-2.0532914496834787,3.5362122007719727 L-1.983256032144166,3.5326358771018955 L-1.9128778446989316,3.5266476692168416 L-1.842199280536283,3.518251184189327 L-1.7712629137804292,3.5074514797479686 L-1.700111473846222,3.4942550612308936 L-1.6287878197005545,3.4786698776671714 L-1.5573349140457229,3.460705316988614 L-1.4857957974402953,3.4403722003748345 L-1.4142135623731085,3.4176827757349826 " />
			<path d="M-1.3435028842544414,3.346972097616324 L-1.4259656973129544,3.3728665202272277 L-1.508359269290598,3.395552836731817 L-1.5906144172457597,3.41501199823984 L-1.6726620744665457,3.4312276655879126 L-1.7544333484636256,3.444186223058931 L-1.8358595788167906,3.453876789814702 L-1.916872394826671,3.4602912290321948 L-1.997403772923167,3.463424154735743 L-2.0773860937824016,3.4632729363194525 L-2.1567521991042726,3.459837700756031 L-2.2354354480028698,3.45312133249017 L-2.3133697729624414,3.4431294710165834 L-2.3904897353119448,3.429870506144721 L-2.4667305801715544,3.4133555709541494 L-2.542028290825016,3.3935985324464983 L-2.6163196424721917,3.370615979901845 " />
			<path d="M-2.616319642472215,3.3706159799018374 L-2.7216911509487343,3.3317785478597925 L-2.824650041470421,3.2863246309536964 L-2.925016077074095,3.234333799543199 L-3.0226135597761017,3.1758970673282256 L-3.1172716381443095,3.111116732022937 L-3.2088246063858588,3.040106196276196 L-3.2971121944271067,2.9629897691520592 L-3.3819798484779477,2.8799024485177918 L-3.4632790015893686,2.7909896847203615 L-3.54086733373061,2.696407125965124 L-3.61460902093064,2.596320345842409 L-3.6843749730478184,2.4909045534790106 L-3.7500430597514898,2.3803442868219746 L-3.8114983243199436,2.264833089591614 L-3.8686331848804407,2.1445731724692676 L-3.9213476227390434,2.0197750591129213 L-3.9695493574705525,1.8906572176203578 L-4.0131540084620445,1.757445678084999 L-4.052085242627221,1.6203736369139268 L-4.0862749080329825,1.4796810486007503 L-4.115663153204302,1.3356142056679647 L-4.1401985318985455,1.188425307514125 L-4.159838093165836,1.0383720189206098 L-4.174547456537781,0.885717018990841 L-4.184300872212973,0.7307275413115695 L-4.189081266133859,0.5736749061412072 L-4.188880269876123,0.4148340454441459 L-4.183698235298212,0.25448302160252867 L-4.1735442339253765,0.09290254064799508 L-4.15843604106932,-0.06962453913447031 L-4.138400104711231,-0.2328137023703688 L-4.11347149920268,-0.3963792746603675 L-4.083693863865443,-0.5600349226739361 L-4.049119326597723,-0.723494155396494 L-4.009808412620498,-0.8864708256525946 L-3.9658299385237603,-1.0486796310271909 L-3.9172608917981124,-1.2098366133080862 L-3.8641862960626163,-1.3696596555752687 L-3.8066990622248067,-1.527868976066924 L-3.7448998258334596,-1.6841876179575825 L-3.6788967709087936,-1.8383419341910232 L-3.60880544055855,-1.9900620665191782 L-3.5347485347114445,-2.1390824179084547 L-3.456855695322096,-2.285142117486502 L-3.3752632794234323,-2.4279854772154845 L-3.2901141204238735,-2.5673624394924315 L-3.2015572780671464,-2.7030290148931075 L-3.109747777492453,-2.834747709293096 L-3.0148463378517896,-2.962287939618387 L-2.9170190909594718,-3.0854264374976834 L-2.8164372904664177,-3.203947640109783 L-2.7132770120682803,-3.3176440675418495 L-2.6077188452722435,-3.4263166859979526 L-2.499947577262067,-3.5297752562220914 L-2.390151869414789,-3.62783866652573 L-2.278523927035388,-3.720335249836864 L-2.165259162887529,-3.8071030842156204 L-2.050555855109429,-3.8879902763102807 L-1.9346148001136787,-3.9628552272575557 L-1.8176389610786337,-4.031566880561606 L-1.699833112646742,-4.094004951517881 L-1.581403482451762,-4.150060137780185 L-1.4625573901024096,-4.199634310702306 L-1.3435028842544547,-4.242640687119282 " />
			<path d="M3.482500897343793,3.458930671304135 L3.561534419947971,3.351140603590094 L3.638764913869978,3.240932524270543 L3.7141275314205693,3.1283989711361517 L3.7875589932996223,3.0136344345949526 L3.8589976417295038,2.8967352783321165 L3.9283834922269083,2.7777996583968054 L3.995658283969685,2.656927440784042 L4.060765528716372,2.5342201175807952 L4.123650558237356,2.4097807217467055 L4.184260570217831,2.283713740600983 L4.2425446725940255,2.156125028088122 L4.2984539262854415,2.0271217158961385 L4.3519413862872645,1.896812123501908 L4.402962141088397,1.7653056672191694 L4.451473350382059,1.6327127683255487 L4.497434281037265,1.4991447603457568 L4.540806341300975,1.3647137955687993 L4.581553113202218,1.2295327508777054 L4.619640383130956,1.0937151329708352 L4.655036170566037,0.9573749830543578 L4.6877107549280925,0.8206267810859208 L4.717636700534854,0.6835853496499158 L4.744788879637908,0.5463657575450521 L4.7691444935215745,0.4090832231651903 L4.790683091646173,0.2718530177545798 L4.80938658881961,0.13479036861870375 L4.825239280382873,-0.0019896376279878725 L4.838227855396669,-0.13837215169618622 L4.848341407818147,-0.2742426580565769 L4.855571445658308,-0.4094870710944448 L4.859911898112433,-0.5439918309032902 L4.861359120657515,-0.6776439986369888 " />
			<path d="M2.9167360201882104,-4.2718651130498255 L3.0246354683359713,-4.232760214560779 L3.130522718965861,-4.188052973494488 L3.2342710324828543,-4.137796901275543 L3.335756229449281,-4.0820521508893375 L3.434856839218881,-4.0208854448831755 L3.531454245328627,-3.9543699955040643 L3.6254328274743006,-3.8825854170688125 L3.716680099899862,-3.80561763067128 L3.805086846034988,-3.7235587613408714 L3.8905472492196385,-3.6365070277753566 L3.972959019359151,-3.544566624779993 L4.052223515358298,-3.4478475985536607 L4.128245863187739,-3.346465714971314 L4.2009350694415675,-3.2405423210203534 L4.270204130250022,-3.1302041995568204 L4.335970135416998,-3.0155834175552276 L4.398154367657724,-2.896817168033677 L4.456682396817821,-2.7740476058434616 L4.511484168960965,-2.6474216775197017 L4.562494090218515,-2.517090945396673 L4.6096511053007765,-2.383211406198349 L4.65289877057588,-2.245943304321288 L4.692185321628843,-2.105450940033353 L4.72746373521994,-1.9619024728178451 L4.7586917855682085,-1.815469720098423 L4.785832094892746,-1.6663279515857212 L4.80885217815128,-1.5146556794918442 L4.827724481922484,-1.360634444863774 L4.842426417385488,-1.2044486002915165 L4.8529403873570995,-1.0462850892510054 L4.859253807354409,-0.8863332223459066 L4.861359120657516,-0.7247844507161736 " />
			<path d="M4.861359120657516,-0.7247844507161318 L4.859882211496125,-0.5883907000545205 L4.855452724119864,-0.4511268682495966 L4.848074377811186,-0.31310821084172147 L4.83775336790414,-0.1744506171713739 L4.824498360582369,-0.03527051307100759 L4.808320485602422,0.1043152368935647 L4.789233326948505,0.2441894275501768 L4.76725291142648,0.3842346115333126 L4.742397695206738,0.5243331979004537 L4.714688548327211,0.6643675508690066 L4.684148737169542,0.8042200885908783 L4.650803904923135,0.9437733818817446 L4.6146820500534895,1.08291025282215 L4.5758135027928795,1.2215138731476225 L4.534230899673151,1.3594678623452006 L4.48996915612198,1.496656385373993 L4.443065437145641,1.6329642499277295 L4.393559126122878,1.7682770031576294 L4.341491791736082,1.902481027774373 L4.286907153067555,2.035463637448485 L4.229851042890161,2.1671131714290217 L4.170371369183173,2.297319088301121 L4.108518074905663,2.425972058803679 L4.044343096061171,2.552964057629237 L3.9779003180889108,2.678188454128961 L3.909245530618077,2.8015401018466015 L3.838436380623291,2.9229154268062265 L3.765532324020488,3.042212514479583 L3.6905945757439165,3.1593311953600884 L3.6136860583461328,3.2741731290715954 L3.534871349164188,3.386641886941291 L3.4542166260963594,3.496643032967381 " />
			<path d="M3.4542166260963345,3.4966430329674147 L3.339353052564687,3.6450531698303648 L3.2212615199073564,3.7882923314325043 L3.1001330217402767,3.92612885200744 L2.9761634634712006,4.058339803671352 L2.849553345454954,4.184711356972152 L2.7205074387171084,4.305039126723428 L2.5892344537705574,4.419128502563834 L2.455946703060614,4.526794963707326 L2.3208597575845804,4.627864377375152 L2.18419209824114,4.722173280426965 L2.046164762473467,4.809569143735541 L1.907000986777547,4.88991061887754 L1.7669258456538883,4.963067766741313 L1.6261658875865654,5.028922267682027 L1.484948768638341,5.087367612884213 L1.3435028842544738,5.138309276622234 " />
			<path d="M-1.4142135623730951,-5.067598598503593 L-1.3296163754754955,-5.094413373077967 L-1.2450701467599898,-5.118443419985161 L-1.1606258037133705,-5.139674264423458 L-1.0763342124503092,-5.158093117726038 L-0.9922461470735184,-5.1736888850644 L-0.9084122590893279,-5.186452172131459 L-0.8248830468971063,-5.19637529080034 L-0.7417088253709205,-5.203452263755403 L-0.6589396955517327,-5.207678828092767 L-0.5766255144684095,-5.209052437888117 L-0.4948158651057093,-5.207572265730272 L-0.4135600265373489,-5.203239203219595 L-0.3329069442421304,-5.196055860430917 L-0.25290520062101507,-5.186026564341335 L-0.1736029857329029,-5.17315735622379 L-0.09504806826673962,-5.157455988008042 L-0.017287766767451362,-5.138931917611193 L0.059631078866982934,-5.117596303240591 L0.13566213560013507,-5.093461996672542 L0.2107596051664129,-5.066543535510883 L0.28487825165822556,-5.036857134430073 L0.3579734287744003,-5.004420675408073 L0.43000110671344816,-4.969253696954925 L0.5009178986954665,-4.93137738234347 L0.5706810870967147,-4.890814546849342 L0.639248649181114,-4.8475896240079015 L0.7065792824131703,-4.801728650896382 L0.7726324293370812,-4.753259252450138 L0.8373683020070244,-4.7022106248224 L0.9007479059539323,-4.648613517797626 L0.962733063674305,-4.592500216268961 L1.023286437626906,-4.533904520791033 L1.0823715527235018,-4.472861727219764 L1.1399528183000944,-4.409408605451464 L1.195995549555402,-4.343583377274023 L1.2504659884436897,-4.275425693343529 L1.3033313240093518,-4.204976609300201 L1.354559712151004,-4.13227856103801 L1.4041202948031848,-4.057375339142871 L1.4519832185240933,-3.980312062514843 L1.4981196524781897,-3.9011351511901844 L1.5425018058028126,-3.8198922983796613 L1.585102944348355,-3.736632441739942 L1.6258974067819167,-3.6514057338953796 L1.6648606200447307,-3.5642635122279467 L1.7019691141540552,-3.4752582679535196 L1.737200536340615,-3.384443614503127 L1.7705336645130738,-3.291874255228229 L1.8019484200414246,-3.1976059504494616 L1.8314258798516123,-3.1016954838687076 L1.8589482878240782,-3.0042006283647096 L1.8844990654893907,-2.905180111192856 L1.9080628220144886,-2.804693578610074 L1.929625363473547,-2.70280155994616 L1.949173701397866,-2.599565431143169 L1.9666960605996402,-2.495047377784843 L1.9821818862648892,-2.3893103576383456 L1.9956218503112844,-2.2824180627308484 L2.0070078570070367,-2.1744348809838447 L2.0163330478474633,-2.0654258574282682 L2.023591805686293,-1.9554566550237982 L2.0287797581192266,-1.84459351510595 L2.0318937801177075,-1.732903217484766 L2.0329319959113255,-1.6204530402191724 L2.0318937801177075,-1.507310719091167 L2.0287797581192257,-1.3935444068043286 L2.023591805686293,-1.2792226319311912 L2.016333047847463,-1.1644142576341685 L2.0070078570070367,-1.049188440184974 L1.9956218503112844,-0.9336145873074689 L1.9821818862648892,-0.8177623163690422 L1.9666960605996406,-0.7017014124457114 L1.9296253634735474,-0.4692334322003323 L1.8844990654893907,-0.23677068229753317 L1.8314258798516123,-0.004873185863161544 L1.7705336645130747,0.2259003957220499 L1.7019691141540565,0.454994108686684 L1.6258974067819185,0.6818560462099698 L1.5425018058028144,0.9059396780136549 L1.4519832185240937,1.1267051670013202 L1.3545597121510036,1.3436206697732165 L1.2504659884436893,1.5561636178836094 L1.1399528183000949,1.7638219767539405 L1.0823715527235023,1.8656626089066348 L1.0232864376269064,1.9660954792089682 L0.9627330636743054,2.0650600906552965 L0.9007479059539323,2.1624968306642107 L0.8373683020070244,2.258347006986923 L0.772632429337083,2.3525528830612865 L0.7065792824131729,2.445057712790138 L0.6392486491811167,2.535805774723027 L0.570681087096715,2.624742405620737 L0.5009178986954668,2.7118140333823644 L0.43000110671344927,2.7969682093151658 L0.3579734287743983,2.880153639727682 L0.2848782516582231,2.9613202168271306 L0.2107596051664109,3.040419048902483 L0.1356621356001333,3.1174024897749937 L0.05963107886698116,3.192224167498477 L-0.017287766767453583,3.2648390122920357 L-0.09504806826674006,3.3352032836884082 L-0.17360298573290178,3.4032745968815967 L-0.2529052006210146,3.4690119482578825 L-0.33290694424212974,3.5323757400948774 L-0.41356002653734847,3.593327804413699 L-0.49481586510570885,3.65183142596995 L-0.5766255144684087,3.707851364369595 L-0.6589396955517324,3.7613538752964613 L-0.7417088253709201,3.8123067308385568 L-0.8248830468971058,3.8606792389009503 L-0.9084122590893273,3.906442261693551 L-0.9922461470735182,3.949568233282618 L-1.076334212450307,3.990031176195449 L-1.160625803713367,4.027806717068242 L-1.2450701467599867,4.0628721013276925 L-1.3296163754754948,4.095206206897504 L-1.414213562373064,4.124789556921518 " />
			<path d="M-1.343502884254441,4.242640687119284 L-1.1963485571504333,4.189483737386498 L-1.0494518343086874,4.128208827998286 L-0.9030698690366297,4.0589232251026415 L-0.757458913521436,3.981748218144264 L-0.6128738702420944,3.8968189075386377 L-0.4695678457442396,3.804283968169024 L-0.3277917075588881,3.7043053891203446 L-0.18779364504072737,3.59705819010561 L-0.04981873489475963,3.482730115081288 L0.0858914878481476,3.3615213035879727 L0.21909945265576036,3.233643940391674 L0.34957196937881063,3.0993218840391012 L0.4770806364671907,2.958790274977108 L0.601402240803327,2.8122951239223974 L0.722319148452838,2.6600928812020266 L0.8396196856484399,2.5024499878185944 L0.9530985093401421,2.3396424090260606 L1.0625569666630528,2.171955151232679 L1.1678034426935626,1.999681763076702 L1.26865369588508,1.8231238215483305 L1.3649311805961373,1.6425904040574535 L1.4564673561462864,1.4583975473713306 L1.5431019818587,1.2708676943694475 L1.6246833975730384,1.0803291295840154 L1.701068789137499,0.8871154045141967 L1.7721244384152885,0.6915647537201615 L1.8377259573678588,0.4940195027191106 L1.8977585058051492,0.29482546871974397 L1.952116992421615,0.09433135524430919 L2.0007062587661357,-0.10711185830205 L2.043441245823752,-0.3091515310460801 L2.080247142917603,-0.5114339779696855 L2.111059518670409,-0.7136050890610528 L2.1358244337962464,-0.9153109492097711 L2.1544985355251614,-1.1161984577607675 L2.167049133495312,-1.3159159466424597 L2.173454256979812,-1.5141137959870654 L2.1737026933480683,-1.7104450461654195 L2.167794007694302,-1.9045660051648141 L2.15573854359888,-2.096136850246645 L2.1375574050211332,-2.284822222830643 L2.113282419355351,-2.470291815564245 L2.0829560817146406,-2.6522209505494247 L2.046631480540154,-2.8302911477147927 L2.004372204665951,-3.004190682337913 L1.9562522320021623,-3.173615130741909 L1.902355800031312,-3.3382679032110776 L1.8427772583445392,-3.497860763192571 L1.7776209034758297,-3.6521143318752625 L1.7070007963234144,-3.800758577262508 L1.6310405624779352,-3.9435332868826425 L1.5498731758069366,-4.080188523309665 L1.4636407256745254,-4.210485061696722 L1.3724941682036806,-4.334194808556474 L1.2765930620166797,-4.451101201055185 L1.2269116990323885,-4.50693871016778 L1.1761052889162287,-4.560999586121572 L1.1241960691727455,-4.613260166961865 L1.0712067599962467,-4.6636975787067865 L1.017160554326385,-4.712289745359024 L0.9620811076968143,-4.759015398568298 L0.905992527881377,-4.80385408694032 L0.8489193643423534,-4.846786184988181 L0.7908865974853787,-4.887792901722256 L0.7319196277257503,-4.926856288874843 L0.6720442643708997,-4.9639592487559545 L0.6112867143238889,-4.99908554173683 L0.5496735706128872,-5.032219793357865 L0.48723180075164696,-5.063347501057878 L0.42398873493606026,-5.092455040521754 L0.35997205408198485,-5.119529671643674 L0.29520977770956414,-5.144559544103346 L0.22973025167935734,-5.1675337025527766 " />
			<path d="M0.2297302516793287,-5.167533702552786 L0.13790429529552362,-5.195940708493082 L0.0448344541772685,-5.2203608989466375 L-0.04940112425168741,-5.240773769151133 L-0.1447233137395838,-5.257162179148031 L-0.24105207564613607,-5.269512368174389 L-0.33830652614812684,-5.277813966217286 L-0.4364050041546642,-5.282060002721142 L-0.5352651398750854,-5.282246912440658 L-0.6348039239819324,-5.278374538434408 L-0.734937777310916,-5.2704461321966365 L-0.835582621039363,-5.258468350927082 L-0.936653947284199,-5.242451251941165 L-1.0380668900602024,-5.2224082842252235 L-1.1397362965389437,-5.198356277143879 L-1.2415767985485753,-5.170315426309014 L-1.343502884254438,-5.1383092766222465 " />
			<path d="M-1.4142135623730947,4.124789556921528 L-1.498810749270694,4.1516043314959035 L-1.5833569779861965,4.175634378403096 L-1.667801321032816,4.196865222841392 L-1.7520929122958757,4.2152840761439725 L-1.8361809776726647,4.230879843482334 L-1.9200148656568556,4.243643130549394 L-2.003544077849077,4.253566249218275 L-2.086718299375263,4.260643222173338 L-2.169487429194451,4.264869786510703 L-2.251801610277774,4.266243396306052 L-2.3336112596404712,4.264763224148208 L-2.4148670982088314,4.26043016163753 L-2.49552018050405,4.2532468188488535 L-2.575521924125163,4.243217522759271 L-2.654824139013275,4.230348314641727 L-2.7333790564794374,4.2146469464259795 L-2.8111393579787243,4.196122876029132 L-2.888058203613159,4.1747872616585315 L-2.964089260346308,4.150652955090483 L-3.0391867299125863,4.123734493928826 L-3.1133053764043987,4.0940480928480145 L-3.1864005535205715,4.061611633826018 L-3.25842823145962,4.026444655372871 L-3.329345023441638,3.9885683407614168 L-3.3991082118428864,3.948005505267288 L-3.467675773927286,3.904780582425848 L-3.53500640715934,3.858919609314333 L-3.6010595540832506,3.810450210868088 L-3.665795426753193,3.759401583240354 L-3.729175030700099,3.7058044762155826 L-3.7911601884204726,3.6496911746869185 L-3.8517135623730736,3.5910954792089904 L-3.9107986774696704,3.5300526856377217 L-3.9683799430462634,3.4665995638694245 L-4.02442267430157,3.4007743356919855 L-4.078893113189857,3.3326166517614935 L-4.131758448755519,3.2621675677181687 L-4.18298683689717,3.189469519455981 L-4.232547419549352,3.1145662975608444 L-4.28041034327026,3.037503020932816 L-4.326546777224358,2.958326109608159 L-4.370928930548982,2.8770832567976377 L-4.413530069094524,2.793823400157921 L-4.454324531528086,2.70859669231336 L-4.4932877447909005,2.6214544706459284 L-4.5303962389002255,2.532449226371505 L-4.565627661086786,2.4416345729211137 L-4.598960789259246,2.349065213646218 L-4.630375544787597,2.2547969088674535 L-4.659853004597785,2.1588864422867 L-4.687375412570252,2.061391586782707 L-4.7129261902355655,1.9623710696108536 L-4.736489946760664,1.8618845370280734 L-4.7580524882197235,1.759992518364164 L-4.7776008261440435,1.6567563895611732 L-4.795123185345819,1.5522383362028487 L-4.810609011011069,1.446501316056351 L-4.824048975057465,1.3396090211488545 L-4.835434981753219,1.2316258394018522 L-4.844760172593648,1.122616815846277 L-4.852018930432479,1.012647613441807 L-4.8572068828654125,0.9017844735239592 L-4.860320904863896,0.7900941759027836 L-4.861359120657515,0.6776439986372315 " />
			<path d="M-4.861359120657515,0.6776439986371904 L-4.859911898112436,0.5439918309034407 L-4.855571445658314,0.40948707109458626 L-4.848341407818156,0.2742426580567089 L-4.8382278553966795,0.138372151696308 L-4.825239280382885,0.001989637628100116 L-4.809386588819622,-0.13479036861860172 L-4.790683091646185,-0.2718530177544882 L-4.769144493521589,-0.4090832231651048 L-4.744788879637923,-0.5463657575449734 L-4.717636700534869,-0.6835853496498474 L-4.687710754928107,-0.8206267810858631 L-4.6550361705660475,-0.9573749830543115 L-4.619640383130965,-1.0937151329708006 L-4.581553113202225,-1.2295327508776817 L-4.540806341300979,-1.3647137955687858 L-4.4974342810372665,-1.4991447603457533 L-4.451473350382056,-1.6327127683255553 L-4.4029621410883895,-1.7653056672191862 L-4.351941386287254,-1.8968121235019355 L-4.298453926285426,-2.0271217158961763 L-4.242544672594004,-2.15612502808817 L-4.184260570217805,-2.2837137406010397 L-4.123650558237324,-2.4097807217467717 L-4.060765528716336,-2.534220117580866 L-3.995658283969643,-2.6569274407841177 L-3.928383492226861,-2.7777996583968894 L-3.858997641729449,-2.896735278332208 L-3.7875589932995597,-3.013634434595052 L-3.714127531420499,-3.1283989711362588 L-3.6387649138699,-3.2409325242706566 L-3.5615344199478853,-3.3511406035902134 L-3.4825008973437113,-3.458930671304243 " />
			<path d="M-3.482500897343699,-3.45893067130426 L-3.3699461393604304,-3.6043576898382943 L-3.2542283058519934,-3.744717672312743 L-3.135534551366668,-3.8797836095595275 L-3.0140568435150668,-4.00933705465732 L-2.8899916524941265,-4.133168476233471 L-2.763539633328906,-4.251077597346519 L-2.6349053013461115,-4.36287371940118 L-2.504296701404213,-4.46837603057193 L-2.3719250714151423,-4.567413898236374 L-2.2380045007017273,-4.659827144945429 L-2.102751583743462,-4.745466307483977 L-1.9663850698705825,-4.824192878603015 L-1.8291255094730343,-4.895879531032337 L-1.69119489729652,-4.960410323411424 L-1.5528163134025357,-5.017680887805522 L-1.4142135623731102,-5.0675985985035865 " />
			<path d="M-1.4142135623730954,3.4176827757349777 L-1.2969343115020238,3.3754447128366087 L-1.1798447405148,3.326985004503138 L-1.0631342225192815,3.2723820263362144 L-0.9469915175675039,3.211724089665246 L-0.831604467367369,3.1451092987183618 L-0.7171596914796002,3.07264539195497 L-0.6038422854913204,2.9944495678165324 L-0.49183552165440936,2.9106482951773813 L-0.38132055247280006,2.821377108802125 L-0.2724761177181221,2.7267803901404815 L-0.16547825534754623,2.627011133814048 L-0.06050001679136141,2.5222307001726807 L0.04228881292922848,2.4126085543206934 L0.14272198980143025,2.298321992034943 L0.2406370796931867,2.1795558530180936 L0.3358757210636276,2.0565022219508506 " />
			<path d="M0.33587572106364805,2.056502221950823 L0.4027502401902612,1.965295241577404 L0.4680991196627282,1.8720422513839376 L0.5318674883593824,1.7768215525779145 L0.5940018022570426,1.6797130985815154 L0.654449889390019,1.580798427897577 L0.7131609936570538,1.4801605956446213 L0.7700858174394027,1.3778841038184373 L0.825176562994292,1.274054830338767 L0.878386972588971,1.1687599569406912 L0.9296723673416807,1.0620878959712332 L0.9789896847369217,0.9541282161526589 L1.0262975147835052,0.8449715673748267 L1.0715561347850469,0.7347096045797089 L1.114727542693697,0.6234349108020066 L1.155775489019104,0.5112409194304818 L1.1946655072658166,0.39822183575527315 L1.2313649428735722,0.2844725578670787 L1.2658429806361613,0.17008859697461454 L1.2980706705758625,0.055165997207262785 L1.3280209522517001,-0.06019874502975653 L1.3556686774811322,-0.1759087620799723 L1.3809906314560845,-0.2918668963719764 L1.4039655522355918,-0.4079757819991684 L1.424574148598694,-0.5241379264744364 L1.4427991162425848,-0.6402557925911067 L1.4586251523124156,-0.7562318803214633 L1.472038968250562,-0.8719688086840484 L1.4830293009545432,-0.9873693975109851 L1.4915869222342546,-1.1023367490467004 L1.4977046465605452,-1.2167743293095117 L1.501377337098651,-1.3305860491477652 L1.5026019100214123,-1.4436763449224332 " />
			<path d="M1.5026019100214132,-1.4436763449224679 L1.4990884780434852,-1.6333336698266647 L1.4885566462750726,-1.8201918056378612 L1.4710317868213845,-2.0038005947400452 L1.4465561186038425,-2.1837177074780456 L1.4151886056509952,-2.359509707768396 L1.3770048150490188,-2.530753097284831 L1.3320967348939767,-2.6970353357028642 L1.2805725526844451,-2.8579558345455385 L1.2523675980769813,-2.936283753931994 L1.222556394688354,-3.013126922236172 L1.1911568996727722,-3.0884390520068425 L1.1581880269119296,-3.162174778033135 L1.1236696356219937,-3.234289684670843 L1.087622518391151,-3.3047403325967606 L1.0500683886549305,-3.3734842849748983 L1.01102986761685,-3.440480133018841 L0.9705304706222355,-3.505687520934865 L0.9285945929934671,-3.569067170230755 L0.8852474953351459,-3.6305809033756864 L0.8405152883180493,-3.690191666796963 L0.7944249169510358,-3.7478635531996916 L0.7470041443503916,-3.8035618231959885 L0.6982815350163523,-3.8572529262307045 L0.6482864376269233,-3.9089045207910114 L0.5970489673593367,-3.958485493887722 L0.5445999877497911,-4.005965979796594 L0.49097109210240797,-4.051317378048327 L0.4361945844586095,-4.094512370656413 L0.3803034601383781,-4.135524938572466 L0.32333138586510035,-4.174330377359136 L0.26531267948599147,-4.210905312071127 L0.20628228930032044,-4.24522771133539 L0.1462757730078439,-4.277276900622007 L0.08532927629018605,-4.3070335746977495 L0.023479511038038137,-4.334479809254826 L-0.03923626676272596,-4.35959907170782 L-0.10278027947265578,-4.3823762311523025 L-0.1671142505545533,-4.402797567479113 L-0.23219942762984336,-4.4208507796388545 L-0.29799660582154996,-4.436524993051573 L-0.36446615136984284,-4.449810766157206 L-0.43156802550593776,-4.460700096102822 L-0.4992618085699583,-4.469186423563239 L-0.5675067243582226,-4.4752646366921205 L-0.6362616646852989,-4.478931074201156 L-0.7054852141460451,-4.480183527565485 L-0.7751356750627033,-4.479021242354037 L-0.8451710926020185,-4.4754449186839595 L-0.9155492800472553,-4.469456710798905 L-0.9862278442099041,-4.461060225771392 L-1.0571642109657575,-4.4502605213300335 L-1.1283156508999665,-4.437064102812958 L-1.1996393050456327,-4.421478919249236 L-1.2710922107004643,-4.403514358570678 L-1.3426313273058943,-4.3831812419568985 L-1.414213562373068,-4.360491817317051 " />
			<path d="M1.3435028842544423,5.1383092766222465 L1.2415767985485788,5.170315426309013 L1.1397362965389446,5.19835627714388 L1.0380668900602041,5.222408284225224 L0.9366539472842019,5.242451251941164 L0.8355826210393639,5.258468350927082 L0.7349377773109176,5.270446132196637 L0.6348039239819347,5.278374538434409 L0.5352651398750861,5.282246912440659 L0.43640500415466577,5.282060002721142 L0.3383065261481293,5.277813966217286 L0.24105207564613673,5.269512368174389 L0.14472331373958514,5.257162179148031 L0.049401124251689854,5.240773769151133 L-0.04483445417726806,5.2203608989466375 L-0.1379042952955225,5.195940708493083 L-0.22973025167929872,5.167533702552797 " />
			<path d="M-1.3435028842544405,-5.138309276622246 L-1.484948768638331,-5.087367612884215 L-1.626165887586551,-5.028922267682033 L-1.766925845653866,-4.963067766741323 L-1.9070009867775175,-4.889910618877555 L-2.046164762473431,-4.809569143735561 L-2.1841920982410965,-4.7221732804269925 L-2.3208597575845302,-4.627864377375188 L-2.4559467030605564,-4.526794963707369 L-2.5892344537704926,-4.419128502563886 L-2.720507438717038,-4.305039126723489 L-2.8495533454548774,-4.184711356972224 L-2.976163463471119,-4.058339803671434 L-3.1001330217401906,-3.9261288520075337 L-3.221261519907266,-3.7882923314326096 L-3.339353052564592,-3.645053169830481 L-3.454216626096229,-3.496643032967552 " />
			<path d="M-4.861359120657514,0.7247844507162935 L-4.859253807354403,0.8863332223460625 L-4.852940387357091,1.0462850892511555 L-4.842426417385474,1.2044486002916606 L-4.827724481922468,1.3606344448639103 L-4.808852178151261,1.514655679491973 L-4.785832094892724,1.6663279515858438 L-4.7586917855681845,1.8154697200985366 L-4.727463735219914,1.9619024728179526 L-4.692185321628815,2.1054509400334545 L-4.65289877057585,2.2459433043213837 L-4.609651105300745,2.3832114061984386 L-4.562494090218483,2.517090945396756 L-4.511484168960932,2.647421677519777 L-4.456682396817788,2.7740476058435317 L-4.39815436765769,2.896817168033742 L-4.335970135416964,3.0155834175552854 L-4.27020413024999,3.130204199556873 L-4.2009350694415355,3.2405423210204005 L-4.128245863187708,3.346465714971356 L-4.052223515358268,3.4478475985536976 L-3.9729590193591227,3.544566624780023 L-3.890547249219612,3.6365070277753846 L-3.805086846034963,3.723558761340895 L-3.716680099899838,3.8056176306713008 L-3.6254328274742784,3.88258541706883 L-3.5314542453286064,3.95436999550408 L-3.4348568392188623,4.020885444883185 L-3.3357562294492675,4.082052150889345 L-3.2342710324828463,4.1377969012755464 L-3.1305227189658553,4.18805297349449 L-3.024635468335968,4.2327602145607806 L-2.916736020188224,4.271865113049821 " />
			<path d="M-2.9167360201882104,4.2718651130498255 L-2.8249100638044062,4.300272118990121 L-2.7318402226861505,4.324692309443677 L-2.637604644257194,4.345105179648172 L-2.5422824547692984,4.36149358964507 L-2.445953692862745,4.373843778671429 L-2.3486992423607544,4.382145376714325 L-2.250600764354218,4.386391413218182 L-2.151740628633796,4.386578322937697 L-2.0522018445269485,4.382705948931447 L-1.952067991197966,4.374777542693677 L-1.8514231474695184,4.362799761424121 L-1.7503518212246816,4.346782662438204 L-1.6489388784486794,4.326739694722263 L-1.5472694719699374,4.302687687640918 L-1.445428969960305,4.274646836806053 L-1.343502884254457,4.24264068711929 " />
			<path d="M-1.343502884254442,-4.242640687119286 L-1.261040071195929,-4.268535109730189 L-1.1786464992182866,-4.291221426234778 L-1.0963913512631238,-4.310680587742802 L-1.0143436940423376,-4.326896255090874 L-0.932572420045259,-4.339854812561892 L-0.8511461896920928,-4.3495453793176635 L-0.7701333736822121,-4.3559598185351565 L-0.6896019955857178,-4.359092744238705 L-0.6096196747264817,-4.358941525822415 L-0.5302535694046105,-4.355506290258992 L-0.45157032050601487,-4.348789921993132 L-0.3736359955464418,-4.3387980605195455 L-0.29651603319693876,-4.325539095647683 L-0.22027518833733017,-4.309024160457112 L-0.14497747768386748,-4.28926712194946 L-0.07068612603668023,-4.266284569404803 " />
			<path d="M-0.0706861260366689,-4.2662845694047995 L0.01612709199416873,-4.234835942708406 L0.10133102368125635,-4.1989049420262425 L0.1848248198773328,-4.158534096038704 L0.26650965558710316,-4.113771188519512 L0.3462888469385599,-4.064669201777853 L0.4240679656200306,-4.011286253947404 L0.49975495064749187,-3.953685530196509 L0.5732602173298624,-3.8919352079408926 L0.6444967633033152,-3.8261083761474532 L0.713380271509082,-3.7562829488246385 L0.7798292099928783,-3.6825415728018087 L0.8437649284078266,-3.604971529906722 L0.9051117511066413,-3.5236646336569484 L0.9637970667128972,-3.438717120587484 L1.0197514140653718,-3.350229536343176 L1.0729085644337208,-3.258306616670811 L1.1232055999081763,-3.163057163451702 L1.1705829878705016,-3.0645939159215208 L1.214984651458033,-2.963033417229784 L1.2563580359374267,-2.8584958764969595 L1.2946541709095272,-2.7511050265324535 L1.3298277282717594,-2.6409879773818736 L1.3618370758694114,-2.528275065876936 L1.3906443267723152,-2.4130997013660807 L1.416215384118613,-2.295598207808385 L1.4385199814725091,-2.1759096624176895 L1.457531718648253,-2.054175731047919 L1.4732280929579498,-1.93054050051441 L1.4855905258462105,-1.8051503080497822 L1.4946043848801163,-1.678153568096127 L1.5002590010684689,-1.5497005966385804 L1.502547681489834,-1.4199434332882432 " />
			<path d="M0.35007208521895405,2.037483355524451 L0.25763949893789717,2.15579810497127 L0.16266676736893593,2.2699823007327913 L0.06530456077044922,2.379854794367835 L-0.03429265979719154,2.4852412777699455 L-0.13596688751762387,2.5859745596999004 L-0.23955682048968563,2.6818948310275963 L-0.34489811762611344,2.7728499182625397 L-0.4518236593737964,2.85869552497071 L-0.5601638128419466,2.9392954606948094 L-0.6697467009175682,3.014521857014715 L-0.780398474941288,3.084255370405362 L-0.891943590510972,3.14838537157025 L-1.0042050859755682,3.206810120950185 L-1.1170048631773428,3.2594369301288286 L-1.230163969997143,3.306182308878978 L-1.343502884254416,3.3469720976163155 " />
			<path d="M3.4825008973437925,3.458930671304134 L3.4542166260963327,3.4966430329674147 " />
			<path d="M4.861359120657514,-0.6776439986370297 L4.861359120657515,-0.7247844507161303 " />
			<path d="M2.9167360201882104,-4.2718651130498255 L0.22973025167932848,-5.167533702552786 " />
			<path d="M-0.22973025167932695,5.167533702552786 L-2.916736020188209,4.2718651130498255 " />
			<path d="M-3.482500897343698,-3.4589306713042602 L-3.4542166260962346,-3.496643032967544 " />
			<path d="M-4.8613591206575135,0.6776439986371876 L-4.8613591206575135,0.7247844507162924 " />

       </g>
    </g>
    
</svg>
