<?xml version="1.0" encoding="UTF-8" standalone="no"?>
<svg
   xmlns:svg="http://www.w3.org/2000/svg"
   xmlns="http://www.w3.org/2000/svg"
   width="1024.0"
   height="320.0"

>
    <g transform="scale(16.12100564795582, -16.12100564795582)   translate(55.06722296234384,-48.157969078397365)" stroke-width="0.09000000133333334"  fill="none">
       <!-- hidden lines -->
       <g  stroke="rgb(32,64,32)" fill="none" stroke-dasharray="0.09000000133333334,0.09000000133333334" >

       </g>

       <!-- solid lines -->
       <g  stroke="rgb(64,192,64)" fill="none">
			<path d="M-37.15287401236048,36.9134573942912 L-37.07991025238561,36.935967701267266 L-37.0027721789284,36.957444666626024 L-36.92161361153466,36.977801492044854 L-36.83661704324381,36.99695615686987 " />
			<path d="M-37.30504734486901,36.76364022394388 L-37.23283097736647,36.79162960567993 L-37.15486013246955,36.81853074044582 L-37.07127242642186,36.84420416610735 L-36.9822556078813,36.8685150157594 " />
			<path d="M-29.650284258210895,44.3998245694576 L-29.544906228071433,44.25610447917185 L-29.441932236174885,44.10916037341205 L-29.341448746106906,43.95911563589911 L-29.243540130267657,43.80609625384372 L-29.148288599027318,43.650230712159455 L-29.05577413169697,43.491649885578525 L-28.966074409372816,43.330486928760976 L-28.87926474971013,43.16687716448942 L-28.79541804368174,43.00095797004339 L-28.714604694374046,42.832868661848494 L-28.636892557872084,42.66275037849739 L-28.56234688628318,42.49074596224077 L-28.491030272947093,42.3169998390478 L-28.423002599878618,42.14165789733682 L-28.3583209874868,41.96486736547798 L-28.297039746612942,41.78677668817089 L-28.239210332927776,41.60753540180091 L-28.184881303725927,41.42729400887875 L-28.134098277154116,41.246203851668874 L-28.086903893907206,41.06441698511285 L-28.043337781424356,40.88208604915421 L-28.003436520615264,40.69936414057215 L-27.96723361514448,40.51640468443161 L-27.934759463299574,40.33336130525775 L-27.90604133246679,40.1503876980429 L-27.881103336235583,39.96763749919437 L-27.85996641415131,39.785264157531415 L-27.842648314133015,39.603420805439804 L-27.82916357757118,39.42226013029194 L-27.819523527117795,39.241934246240795 L-27.81373625717916,39.06259456649503 L-27.811806627119275,38.88439167618281 " />
			<path d="M-30.45023997951481,33.95391854182474 L-30.37671147424674,33.97949266124225 L-30.303843743334667,34.0069754392721 L-30.231658592797782,34.03635865156069 L-30.160177624389817,34.06763350504032 L-30.08942222913462,34.100790640560554 L-30.01941358092477,34.135820135688995 L-29.950172630185204,34.17271150768064 L-29.881720097603694,34.211453716614834 L-29.747261983846144,34.29444371973859 L-29.616200176561744,34.38469081186078 L-29.488691547520048,34.48208697355662 L-29.364888715586023,34.58651562846759 L-29.244939864046042,34.6978517828352 L-29.128988563242874,34.815962175109725 L-29.01717359873209,34.94070543545487 L-28.909628805165504,35.0719322549576 L-28.80648290610051,35.20948556434033 L-28.707859359927035,35.35320072196187 L-28.613876212096507,35.502905710881855 L-28.524645953829783,35.658421344752966 L-28.440275387473022,35.81956148229436 L-28.360865498662825,35.98613325008971 L-28.286511335453504,36.15793727344311 L-28.217301894551248,36.33476791501663 L-28.153320014791323,36.516413520963646 L-28.094642277985816,36.702656674263714 L-28.04133891726058,36.89327445495542 L-27.99347373299112,37.088038706955885 L-27.951104016438038,37.28671631114759 L-27.91428048117342,37.489069464405546 L-27.883047202380244,37.69485596423093 L-27.857441564097492,37.90382949865045 L-27.83749421447409,38.11573994103445 L-27.82322902908522,38.33033364948089 L-27.814663082354933,38.547353770406936 L-27.81180662711927,38.76654054598451 " />
			<path d="M-27.81180662711927,38.76654054598457 L-27.81381047371992,38.951597393616545 L-27.819820330963886,39.137834753352536 L-27.829831152588554,39.32509624832872 L-27.843834532864307,39.5132246417515 L-27.861818713652532,39.702061968923566 L-27.883768594278514,39.89144966988124 L-27.90966574421092,40.08122872253164 L-27.939488418537273,40.271239776177836 L-27.973211576222365,40.46132328531993 L-28.010806901134334,40.65131964361971 L-28.0522428258207,40.841069317916464 L-28.097484558014425,41.030412982181204 L-28.146494109847755,41.21919165129707 L-28.199230329749255,41.40724681455348 L-28.255648936997325,41.59442056874188 L-28.315702558901155,41.78055575074148 L-28.379340770577848,41.96549606948346 L-28.44651013729243,42.14908623718302 L-28.51715425932508,42.331172099729045 L-28.591213819327937,42.51160076612174 L-28.6686266321318,42.69022073684977 L-28.74932769696076,42.86688203109899 L-28.833249252011058,43.041436312686 L-28.920320831348235,43.21373701461073 L-29.01046932407487,43.38363946212349 L-29.103619035719184,43.55100099420326 L-29.199691751793008,43.71568108334499 L-29.298606803465663,43.87754145355557 L-29.40028113529873,44.036446196459245 L-29.504629374984713,44.192261885415 L-29.611563905031133,44.34485768755018 L-29.720994936329763,44.4941054736161 " />
			<path d="M-29.7209949363298,44.494105473616145 L-29.876839985844853,44.695465960816264 L-30.037064678394728,44.88981055193391 L-30.201409876912564,45.07682492658251 L-30.285044851638762,45.167488285815324 L-30.369609780091366,45.25620661979407 L-30.455070466350346,45.34294405306648 L-30.541392352273842,45.42766551120647 L-30.628540531472613,45.51033673499735 L-30.716479763425294,45.59092429428539 L-30.80517448772879,45.669395601498124 L-30.894588838477983,45.74571892482196 L-30.984686658769004,45.8198634010337 L-31.07543151532017,45.89179904798085 L-31.166786713204697,45.961496776705665 L-31.258715310689194,46.02892840320797 L-31.351180134171937,46.09406665984207 L-31.444143793214984,46.15688520634307 L-31.537568695663886,46.217358640478245 L-31.631417062849017,46.27546250831905 L-31.725650944862316,46.331173314129664 L-31.82023223590327,46.384468529868066 L-31.915122689687923,46.43532660429584 L-32.01028393491474,46.48372697169291 L-32.10567749078095,46.52965006017382 L-32.20126478254324,46.573077299602105 L-32.29700715711639,46.613991129099574 L-32.39286589870362,46.652375004147515 L-32.48880224445225,46.68821340327685 L-32.584777400128424,46.721491834344626 " />
			<path d="M-38.06485495432421,32.40257951531706 L-37.95205870512741,32.36682648255122 L-37.8393304001734,32.33478642000829 L-37.72673794277791,32.3064786274239 L-37.61434915442717,32.28192015635379 L-37.50223173392477,32.26112579990264 L-37.39045321661252,32.24410808381323 L-37.279080933689556,32.23087725892139 L-37.16818197165465,32.221441294981304 L-37.05782313189573,32.215805875864824 L-36.9480708904513,32.21397439613769 L-36.8389913579677,32.21594795901481 L-36.73065023987655,32.22172537569572 L-36.62311279681626,32.23130316608062 L-36.51644380532144,32.24467556086673 L-36.41070751880395,32.26183450502346 L-36.30596762884907,32.282769662644455 L-36.20228722685002,32.30746842317359 L-36.099728766004105,32.33591590900106 L-35.99835402369324,32.36809498442512 L-35.89822406427153,32.403986265974 L-35.79939920228245,32.44356813408175 L-35.70193896612755,32.48681674611108 L-35.60590206220882,32.533706050715274 L-35.51134633956613,32.58420780353055 L-35.41832875503113,32.63829158418939 L-35.3269053389186,32.69592481464464 L-35.237131161275855,32.75707277879334 L-35.149060298710644,32.82169864338833 L-35.062745801817385,32.88976348022531 L-34.97823966322151,32.96122628959167 L-34.89559278626101,33.03604402496323 L-34.81485495432421,33.1141716189338 L-34.736074800862085,33.19556201036216 L-34.65929978009329,33.28016617271989 L-34.58457613841955,33.36793314362315 L-34.5119488865685,33.45881005553047 L-34.44146177248095,33.55274216758824 L-34.37315725495875,33.64967289860449 L-34.30707647808917,33.74954386113135 L-34.24325924646129,33.852294896635385 L-34.181744001189166,33.957864111734935 L-34.122567796756336,34.066187915482296 L-34.06576627869561,34.17720105766859 L-34.01137366211753,34.29083666812801 L-33.959422711100444,34.407026297017914 L-33.90994471895468,34.52569995605049 L-33.862969489372595,34.646786160651004 L-33.818525318475984,34.77021197301754 L-33.77663897777152,34.89590304605589 L-33.7373356980246,35.02378366816357 L-33.700639154061314,35.153776808835566 L-33.66657145050756,35.285804165064704 L-33.6351531084741,35.41978620850841 L-33.60640305319536,35.55564223339363 L-33.580338602629595,35.69329040513095 L-33.556975457027235,35.832647809608716 L-33.536327689473566,35.973630503137386 L-33.51840773741171,36.116153563014045 L-33.503226395150705,36.26013113867672 L-33.49079280736347,36.40547650341749 L-33.481114463578365,36.552102106623444 L-33.474197193667784,36.69991962651391 L-33.470045164336476,36.848840023342156 L-33.46866087661165,36.99877359302961 L-33.470045164336476,37.14963002120029 L-33.474197193667784,37.30131843758274 L-33.481114463578365,37.45374747074692 L-33.49079280736347,37.606825303142955 L-33.503226395150705,37.76045972640854 L-33.51840773741171,37.914558196911884 L-33.536327689473566,38.069027891496454 L-33.556975457027235,38.22377576339423 L-33.580338602629595,38.37870859827357 L-33.60640305319536,38.53373307038807 L-33.6351531084741,38.68875579879245 L-33.66657145050756,38.8436834035918 L-33.700639154061314,38.9984225621901 L-33.7373356980246,39.15288006550429 L-33.77663897777152,39.306962874109914 L-33.818525318475984,39.46057817428458 L-33.862969489372595,39.61363343391551 L-33.90994471895468,39.76603645823742 L-33.959422711100444,39.917695445367166 L-34.01137366211753,40.0685190416018 L-34.065766278695605,40.21841639644661 L-34.12256779675633,40.36729721734005 L-34.181744001189166,40.515071824042636 L-34.24325924646129,40.661651202656934 L-34.30707647808917,40.80694705924623 L-34.37315725495875,40.950871873019466 L-34.44146177248095,41.09333894905052 L-34.5119488865685,41.234262470499985 L-34.58457613841955,41.373557550308014 L-34.65929978009329,41.5111402823271 L-34.736074800862085,41.64692779186402 L-34.81485495432421,41.78083828560047 L-34.89559278626101,41.912791100862236 L-34.97823966322151,42.04270675420746 L-35.062745801817385,42.17050698930441 L-35.149060298710644,42.29611482407022 L-35.237131161275855,42.41945459704203 L-35.32690533891859,42.54045201295254 L-35.41832875503113,42.659034187482824 L-35.51134633956613,42.77512969116499 L-35.60590206220882,42.88866859240873 L-35.70193896612756,42.99958249962542 L-35.79939920228245,43.10780460242468 L-35.89822406427154,43.21326971185849 L-35.99835402369324,43.3159142996885 L-36.09972876600411,43.415676536653145 L-36.202287226850025,43.512496329711226 L-36.305967628849075,43.60631535823972 L-36.41070751880395,43.69707710916397 L-36.51644380532144,43.78472691099902 L-36.62311279681626,43.86921196678168 L-36.730650239876546,43.950481385873445 L-36.8389913579677,44.02848621461511 L-36.9480708904513,44.103179465814634 L-37.05782313189573,44.174516147050454 L-37.16818197165465,44.24245328777325 L-37.279080933689556,44.30694996518977 L-37.39045321661252,44.36796732891324 L-37.50223173392477,44.42546862436533 L-37.61434915442716,44.47941921491577 L-37.72673794277791,44.529786602746164 L-37.8393304001734,44.57654044842543 L-37.95205870512741,44.61965258918518 L-38.06485495432417,44.65909705588386 " />
			<path d="M-37.88807825902757,44.95372488137827 L-37.78822809491533,44.91904876935161 L-37.68842163431359,44.88160238676594 L-37.588702561604244,44.841402123563036 L-37.48911452292027,44.7984655750332 L-37.389701107042264,44.75281153411399 L-37.290505826319986,44.70445998316473 L-37.19157209762745,44.6534320852204 L-37.092943223359676,44.59975017472874 L-36.9946623724797,44.543437747774725 L-36.89677256162389,44.48451945179649 L-36.7993166362739,44.42302107479738 L-36.70233725200368,44.35896953405882 L-36.60587685580946,44.29239286435879 L-36.509977667531096,44.22332020570131 L-36.41468166137283,44.15178179056213 L-36.32003054753158,44.0778089306562 L-36.22606575394074,44.00143400323286 L-36.132828408137556,43.9226904369046 L-36.04035931926199,43.84161269701568 L-35.94869896019492,43.75823627055689 L-35.85788744984351,43.672597650633314 L-35.76796453558157,43.58473432049156 L-35.678969575852456,43.494684737113715 L-35.59094152294226,43.40248831438505 L-35.5039189059307,43.308185405842956 L-35.41793981382737,43.21181728701451 L-35.33304187890046,43.113426137350615 L-35.24926226020548,43.0130550217644 L-35.16663762732107,42.91074787178211 L-35.085204144299105,42.80654946631465 L-35.00499745383592,42.70050541205832 L-34.9260526616719,42.59266212353311 L-34.848404321226035,42.48306680276754 L-34.77208641847211,42.37176741863872 L-34.697132357063445,42.25881268587685 L-34.62357494371238,42.14425204374318 L-34.55144637383106,42.02813563439092 L-34.48077821743983,41.910514280918484 L-34.41160140534929,41.79143946512465 L-34.34394621562219,41.670963304975466 L-34.27784226032099,41.54913853179269 L-34.21331847254689,41.426018467173776 L-34.089123661498945,41.176108561117225 L-33.971579194451955,40.92167107211969 L-33.8608908414727,40.66315141135554 L-33.757252370505846,40.40100213613518 L-33.66084520816915,40.135682157670914 L-33.571838122153096,39.86765593771974 L-33.490386925780896,39.597392675509546 L-33.41663420524599,39.32536548637202 L-33.35070907000468,39.05205057352018 L-33.29272692676068,38.777926394420234 L-33.24278927743736,38.50347282321736 L-33.220865011026795,38.36627265691588 L-33.20098354149134,38.229170310681326 L-33.18315357076976,38.0922257929662 L-33.1673829028784,37.955499043142865 L-33.15367844049544,37.819049905268685 L-33.14204618193967,37.68293810189277 L-33.132491218545084,37.547223207916 L-33.12501773243243,37.4119646245156 L-33.11962899467874,37.277221553145814 L-33.116327363885624,37.143052969625934 L-33.1151142851469,37.00951759832714 L-33.115990289416125,36.876673886469376 L-33.11895499327419,36.744579978539505 L-33.12400709909711,36.613293690842056 L-33.13114439562405,36.48287248619347 L-33.140363758925076,36.35337344877123 L-33.15166115376857,36.22485325912856 L-33.16503163538735,36.0973681693859 L-33.18046935164297,35.97097397860989 L-33.19796754558715,35.845726008390564 L-33.217518558419236,35.72167907862763 L-33.23911383283837,35.5988874835363 L-33.26274391678895,35.47740496788318 L-33.28839846759772,35.35728470346269 L-33.31606625650066,35.23857926582426 L-33.34573517355769,35.121340611260464 L-33.37739223295313,35.00562005406626 L-33.41102357867942,34.891468244079164 L-33.446614490601796,34.77893514451026 L-33.48414939090117,34.668070010075766 L-33.52361185089239,34.55892136543875 L-33.564984598214885,34.45153698397022 L-33.608249524392704,34.345963866839256 L-33.653387692760376,34.24224822244094 L-33.70037934675129,34.14043544617143 L-33.74920391854506,34.04057010055875 L-33.79984003806976,33.94269589575822 L-33.852265542355504,33.84685567042088 L-33.906457485234924,33.753091372943445 L-33.96239214738651,33.661444043107835 L-34.02004504671635,33.57195379411845 L-34.0793909490737,33.484659795045 L-34.14040387929579,33.3996002536785 L-34.20305713257686,33.31681239980814 L-34.26732328615663,33.23633246892612 L-34.33317421132304,33.158195686367684 L-34.400581085723836,33.082436251893306 L-34.46951440598194,33.009087324719815 L-34.53994400060878,32.93818100900686 L-34.611839043210054,32.86974833980521 L-34.68516806597821,32.803819269473024 L-34.75989897346557,32.74042265456597 L-34.83599905663224,32.67958624320695 L-34.913435007162576,32.621336662941005 L-34.9921729320439,32.5656994090807 L-35.07217836840118,32.51269883354704 L-35.153416298581135,32.46235813421086 L-35.23585116547908,32.41469934473932 L-35.31944688810205,32.36974332495198 L-35.40416687736102,32.327509751690656 L-35.489974052085685,32.28801711020701 L-35.576830855254535,32.25128268607174 L-35.664699270433196,32.217322557608874 L-35.753540838413876,32.18615158885839 " />
			<path d="M-35.75354083841392,32.18615158885837 L-35.878128819437165,32.14760941999465 L-36.00440448326596,32.11447649827375 L-36.13226180073238,32.08678064422745 L-36.26159341461043,32.06454511307588 L-36.39229072976003,32.047788575200926 L-36.52424400431046,32.036525100469355 L-36.65734244180677,32.030764146418896 L-36.79147428424152,32.03051055031704 L-36.92652690589402,32.03576452509939 L-37.062386907898166,32.04652165919084 L-37.19894021345938,32.06277292020983 L-37.336072163640814,32.08450466255253 L-37.473667613638405,32.11169863885054 L-37.61161102946383,32.14433201529257 L-37.749786584954286,32.18237739079716 L-37.88807825902757,32.22580282002041 " />
			<path d="M-37.31994404562718,36.8314420814377 L-37.308776249819424,36.77859765875652 L-37.294695344537345,36.72665434238388 L-37.2776459337334,36.675688493478575 L-37.25757262136004,36.62577647319942 L-37.23436233254986,36.57697028925341 L-37.20800205781121,36.52948834295785 L-37.178586499160126,36.483656585887 L-37.14621035861268,36.439800969615156 " />
			<path d="M-36.72135207006977,37.30502123892445 L-36.812992405343905,37.28010887855564 L-36.897340675039544,37.25344612647638 L-36.974137848178124,37.22525512779712 L-37.0432278187107,37.19576529802042 L-37.108295212250454,37.163437831976374 L-37.166431978141865,37.12951061344805 L-37.21694129913205,37.094146083567665 L-37.259194161998806,37.05753522453998 L-37.29264811927836,37.01989489971008 L-37.30593390049393,37.0007626336716 L-37.316864294785304,36.98146410967113 L-37.32540297250405,36.96203188658136 L-37.33152167402971,36.942499271223774 L-37.33520044977513,36.92290013063101 L-37.33642782957811,36.90326869763708 " />
			<path d="M-37.33642782957812,36.90326869763702 L-37.33539324403558,36.88524306377455 L-37.332293268295864,36.8672458230525 L-37.31994404562721,36.83144208143777 " />
			<path d="M-37.30756719292946,36.77363338778703 L-37.288881801536725,36.80025015312771 L-37.265742648875744,36.82646827177553 L-37.23829712874719,36.85220688395715 L-37.20671764624714,36.877390165537534 L-37.171198951915656,36.9019479968762 L-37.13195522192232,36.92581651210482 L-37.089216962686024,36.94893852254233 L-37.0432278187107,36.97126381207471 L-37.01653055242107,36.98319727654206 " />
			<path d="M-37.01653055242101,36.983197276542086 L-36.95768375138887,37.00715791692328 L-36.89363227847913,37.03020384586762 L-36.824470707911566,37.05220743964137 L-36.75034095652856,37.07304451338341 " />
			<path d="M-36.37101563757298,37.37252620639111 L-36.464702824719154,37.358023820777056 L-36.55454519976138,37.341877991259096 L-36.64019634766701,37.324177070007146 L-36.721352070069614,37.305021238924496 " />
			<path d="M-37.18605676997181,38.41091521559439 L-37.05776844238613,38.45233077345683 L-36.92708755606557,38.487465842473505 L-36.7940109476743,38.51645220441339 L-36.65853545387643,38.539421641045465 " />
			<path d="M-37.18605676997181,38.41091521559439 L-37.2385753395986,38.37338223656786 L-37.287981660691386,38.332197830937254 L-37.33444314721264,38.287673507227254 L-37.37809445663795,38.240090669264475 " />
			<path d="M-36.355558299216,38.487241316946346 L-36.40613145671866,38.44567513369377 L-36.45840977803616,38.40694963093225 L-36.51253259027389,38.37130258081389 L-36.56863922053723,38.338971755490775 L-36.62686899593156,38.31019492711499 L-36.68736124356227,38.28520986783863 L-36.750255290534746,38.26425434981378 L-36.815690463954375,38.24756614519252 L-36.883049026099286,38.2351933102888 L-36.951527301296956,38.226791187433534 L-37.0209857097268,38.222008477804316 L-37.091284671568225,38.22049388257873 L-37.16228460700064,38.221896102934366 L-37.233845936203465,38.2258638400488 L-37.37809445663795,38.24009066926447 " />
			<path d="M-36.355558299216,38.487241316946346 L-36.43264873678946,38.50597677453508 L-36.508860617325794,38.521160808855996 L-36.58413414027735,38.5324326689651 L-36.658535453876425,38.539421641045465 " />
			<path d="M-35.94824040582626,37.94361481271956 L-36.03476763812929,37.96198879059485 L-36.12075955485876,37.977148784314565 L-36.20573131189918,37.98867750919728 L-36.28919806513507,37.99615768056158 L-36.370828199133896,37.99924190156862 L-36.45059755114776,37.99765740649748 L-36.528482456088085,37.9910988573437 L-36.60445924886632,37.97926091610279 L-36.67767858506692,37.96203998814051 L-36.74732001741175,37.93959692913495 L-36.813403226518325,37.912023076550106 L-36.87594789300413,37.87940976784998 L-36.93495046455777,37.841814967615484 L-36.99021270969346,37.79960789608388 L-37.04146229026716,37.75334677420365 L-37.08842686813484,37.7035898229233 " />
			<path d="M-37.735931393911294,37.22938317548904 L-37.66693926793503,37.2986586575455 L-37.59431104400174,37.36550927710383 L-37.518158208269114,37.429718943823495 L-37.43859224689483,37.491071567363974 L-37.35572464603658,37.54935105738472 L-37.26966689185204,37.60434132354521 L-37.1805304704989,37.655826275504914 L-37.088426868134846,37.7035898229233 " />
			<path d="M-37.735931393911294,37.22938317548904 L-37.73642787698152,37.18842914601579 " />
			<path d="M-37.73642787698152,37.188429146015785 L-37.733181905719086,37.08495127426032 " />
			<path d="M-37.31994404562718,36.8314420814377 L-37.52378498619755,36.958934032908736 L-37.733181905719086,37.08495127426031 " />
			<path d="M-36.88590568590383,36.09539425031833 L-36.91809053774429,36.10956333863423 L-36.94814637286779,36.12514498547195 L-36.97605647290006,36.14204767429428 L-37.00180411946681,36.16017988856406 L-37.025372594193776,36.17945011174409 L-37.046745178706665,36.19976682729719 L-37.06590515463121,36.221038518686186 L-37.08283580359313,36.24317366937388 L-37.097588255593266,36.26603579119725 L-37.11026586422965,36.28950912571202 L-37.12964301949714,36.33804774497971 L-37.141460205567505,36.38830615150481 L-37.14621035861268,36.43980096961515 " />
			<path d="M-38.06485495432421,35.702411160854275 L-38.15359123197487,35.7344656029042 L-38.2421721703719,35.77141529700764 L-38.33044270219425,35.813195560060294 L-38.41824830350994,35.85973325269851 L-38.5054352642814,35.91094690733507 L-38.59185095744594,35.96674687077403 L-38.67734410610043,36.027035461155144 L-38.76176504832243,36.09170713895298 L-38.84496599916422,36.16064869173146 L-38.92680130936095,36.233739432330445 L-39.00712772030021,36.31085141013726 L-39.08580461480658,36.391849635073484 L-39.16269426330208,36.47659231390484 L-39.23766206491181,36.56493109846044 L-39.31057678309242,36.656711345327 L-39.381310775371176,36.75177238656324 L-39.44974021679331,36.84994781096074 L-39.51574531668652,36.95106575535876 L-39.57921052836321,37.05494920550307 L-39.64002475139327,37.16141630592219 L-39.698081526093404,37.270280678278496 L-39.75327921989249,37.38135174763696 L-39.805521205246706,37.49443507608031 L-39.85471602879304,37.6093327030866 L-39.900777571444976,37.72584349207343 L-39.943625199150176,37.84376348250199 L-39.9831839040462,37.96288624692473 L-40.01938443576718,38.08300325235149 L-40.05216342267158,38.2039042253015 L-40.08146348277883,38.32537751990232 L-40.10723332422061,38.447210488391185 L-40.129427835030974,38.56918985337024 L-40.14800816211809,38.691102081164026 L-40.1629417792794,38.812733755625565 L-40.17420254414105,38.93387195173672 L-40.18177074392205,39.054304608348794 L-40.18563312994286,39.17382089941087 L-40.185782940818186,39.29221160303601 L-40.1822199142933,39.40926946775926 L-40.1749502877031,39.5247895753463 L-40.1639867870532,39.638569699517554 L-40.14934860474218,39.750410659959925 L-40.13106136596386,39.86011667100627 L-40.10915708384859,39.96749568437232 L-40.083674103421934,40.07235972535108 L-40.05465703447894,40.1745252218761 L-40.0221566734915,40.27381332587761 L-39.9862299146854,40.37005022636897 L-39.94693965044297,40.46306745371531 L-39.90435466120533,40.55270217455184 L-39.85854949506735,40.638797476835336 L-39.80960433727579,40.721202644530024 L-39.757604869859264,40.799773421446844 L-39.70264212163564,40.87437226377433 L-39.644812308859564,40.94486858085898 L-39.58421666678893,41.011138963813586 L-39.52096127246533,41.073067401553416 L-39.45515685901844,41.13054548388197 L-39.38691862181977,41.18347259127084 L-39.31636601682483,41.23175607100149 L-39.24362255145687,41.275311399360476 L-39.16881556839823,41.314062329604326 L-39.09207602266778,41.347941025434956 L-39.01353825237474,41.37688817975201 " />
			<path d="M-39.01353825237472,41.37688817975201 L-38.95816581636439,41.39401803258033 L-38.90204329910715,41.408743775567395 L-38.84521782467763,41.42105304403242 L-38.7877371073985,41.43093550232201 L-38.72964941177646,41.43838285248865 L-38.67100351197626,41.44338884125824 L-38.61184865086679,41.44594926528067 L-38.55223449867357,41.446061974659266 L-38.49221111127246,41.443726874756 L-38.4318288881595,41.43894592627091 L-38.3711385301323,41.4317231435958 L-38.310190996718326,41.422064591443494 L-38.24903746338607,41.409978379755486 L-38.187729278574764,41.39547465689237 L-38.126317920579005,41.37856560111255 L-38.06485495432422,41.35926541034666 " />
			<path d="M-32.584777400128466,46.72149183434464 L-32.723069074201746,46.764917263567895 L-32.86124462969221,46.80296263907248 L-32.999188045517634,46.83559601551451 L-33.136783495515225,46.86278999181252 L-33.27391544569666,46.88452173415522 L-33.41046875125787,46.900772995174215 L-33.54632875326202,46.911530129265664 L-33.68138137491453,46.91678410404801 L-33.81551321734927,46.916530507946156 L-33.94861165484557,46.9107695538957 L-34.08056492939602,46.89950607916413 L-34.21126224454561,46.88274954128917 L-34.34059385842366,46.8605140101376 L-34.46845117589008,46.8328181560913 L-34.594726839718874,46.7996852343704 L-34.719314820742085,46.761143065506694 " />
			<path d="M-37.88807825902757,32.22580282002041 L-37.98405341470379,32.259081251088205 L-38.07998976045242,32.29491965021754 L-38.17584850203965,32.33330352526548 L-38.2715908766128,32.37421735476295 L-38.367178168375084,32.41764459419123 L-38.46257172424129,32.46356768267214 L-38.55773296946811,32.511968050069214 L-38.65262342325277,32.562826124496986 L-38.74720471429372,32.616121340235395 L-38.84143859630702,32.671832146046 L-38.93528696349215,32.72993601388681 L-39.028711865941055,32.79040944802198 L-39.1216755249841,32.85322799452298 L-39.21414034846684,32.918366251157074 L-39.30606894595134,32.98579787765939 L-39.39742414383587,33.055495606384206 L-39.48816900038704,33.12743125333135 L-39.57826682067806,33.201575729543094 L-39.66768117142725,33.27789905286693 L-39.75637589573074,33.35637036007966 L-39.84431512768343,33.4369579193677 L-39.93146330688219,33.519629143158575 L-40.01778519280569,33.60435060129856 L-40.10324587906467,33.69108803457098 L-40.18781080751728,33.77980636854973 L-40.271445782243475,33.87046972778254 L-40.43579098076131,34.05748410243114 L-40.596015673311186,34.25182869354878 L-40.75186072282624,34.45318918074889 " />
			<path d="M-42.66104903203677,40.18075410838049 L-42.658192576801106,40.399940883958116 L-42.64962663007082,40.61696100488416 L-42.63536144468195,40.83155471333061 L-42.61541409505855,41.04346515571461 L-42.5898084567758,41.25243869013412 L-42.55857517798262,41.4582251899595 L-42.521751642718,41.66057834321746 L-42.47938192616492,41.85925594740917 L-42.431516741895464,42.054020199409635 L-42.37821338117023,42.24463798010134 L-42.31953564436471,42.430881133401414 L-42.25555376460479,42.61252673934843 L-42.186344323702535,42.78935738092194 L-42.111990160493214,42.96116140427535 L-42.03258027168302,43.12773317207069 L-41.948209705326256,43.288873309612086 L-41.85897944705953,43.4443889434832 L-41.764996299229004,43.59409393240318 L-41.666372753055526,43.73780909002472 L-41.563226853990535,43.87536239940745 L-41.45568206042395,44.00658921891017 L-41.34386709591316,44.13133247925533 L-41.22791579510999,44.24944287152985 L-41.10796694357001,44.360779025897465 L-40.98416411163599,44.46520768080843 L-40.85665548259429,44.562603842504274 L-40.725593675309895,44.652850934626464 L-40.59113556155234,44.73584093775022 L-40.52268302897084,44.774583146684414 L-40.45344207823127,44.81147451867606 L-40.38343343002142,44.846504013804505 L-40.31267803476622,44.87966114932473 L-40.24119706635826,44.91093600280436 L-40.16901191582137,44.940319215092956 L-40.0961441849093,44.967801993122805 L-40.02261567964125,44.993376112540304 " />
			<path d="M-40.02261567964123,44.99337611254031 L-39.89802769861798,45.031918281404025 L-39.77175203478919,45.06505120312493 L-39.643894717322766,45.09274705717123 L-39.514563103444715,45.1149825883228 L-39.383865788295125,45.13173912619776 L-39.251912513744685,45.14300260092933 L-39.11881407624838,45.14876355497979 L-38.984682233813636,45.149017151081644 L-38.849629612161124,45.143763176299295 L-38.71376961015698,45.133006042207846 L-38.577216304595765,45.11675478118885 L-38.44008435441433,45.09502303884615 L-38.30248890441674,45.06782906254814 L-38.164545488591315,45.035195686106114 L-38.02636993310085,44.997150310601526 L-37.888078259027594,44.95372488137828 " />
			<path d="M-38.06485495432421,41.35926541034666 L-37.97611867667355,41.32721096829673 L-37.88753773827652,41.29026127419329 L-37.799267206454175,41.24848101114064 L-37.71146160513848,41.20194331850242 L-37.62427464436702,41.15072966386587 L-37.53785895120248,41.0949297004269 L-37.452365802548,41.03464111004579 L-37.36794486032599,40.96996943224796 L-37.284743909484206,40.901027879469474 L-37.202908599287476,40.82793713887049 L-37.12258218834821,40.75082516106367 L-37.043905293841846,40.66982693612745 L-36.96701564534634,40.585084257296096 L-36.89204784373661,40.49674547274049 L-36.819133125556,40.40496522587394 L-36.748399133277246,40.309904184637695 L-36.67996969185511,40.21172876024019 L-36.6139645919619,40.11061081584217 L-36.55049938028522,40.00672736569786 L-36.48968515725515,39.900260265278746 L-36.43162838255502,39.79139589292244 L-36.37643068875593,39.68032482356397 L-36.32418870340172,39.567241495120626 L-36.27499387985538,39.45234386811433 L-36.228932337203446,39.33583307912751 L-36.186084709498246,39.21791308869894 L-36.14652600460222,39.0987903242762 L-36.11032547288124,38.978673318849445 L-36.07754648597684,38.857772345899434 L-36.04824642586959,38.736299051298616 L-36.022476584427814,38.614466082809756 L-36.00028207361745,38.492486717830694 L-35.981701746530334,38.37057449003691 L-35.96676812936902,38.24894281557537 L-35.95550736450737,38.127804619464214 L-35.94793916472637,38.00737196285214 L-35.944076778705565,37.887855671790064 L-35.94392696783024,37.769464968164925 L-35.947489994355124,37.652407103441675 L-35.954759620945325,37.53688699585464 L-35.965723121595225,37.42310687168339 L-35.98036130390625,37.31126591124101 L-35.99864854268456,37.201559900194674 L-36.020552824799836,37.09418088682862 L-36.04603580522649,36.98931684584986 L-36.07505287416948,36.88715134932483 L-36.10755323515692,36.78786324532332 L-36.14347999396302,36.69162634483197 L-36.18277025820546,36.59860911748562 L-36.22535524744309,36.508974396649094 L-36.27116041358107,36.4228790943656 L-36.32010557137263,36.34047392667091 L-36.37210503878916,36.26190314975409 L-36.42706778701278,36.1873043074266 L-36.484897599788866,36.116807990341954 L-36.54549324185949,36.05053760738735 L-36.608748636183094,35.98860916964752 L-36.674553049629985,35.93113108731897 L-36.742791286828655,35.87820397993009 L-36.81334389182359,35.82992050019944 L-36.88608735719155,35.78636517184046 L-36.96089434025019,35.74761424159661 L-37.03763388598064,35.71373554576598 L-37.11617165627368,35.68478839144893 " />
			<path d="M-37.1161716562737,35.684788391448926 L-37.17154409228403,35.66765853862061 L-37.227666609541274,35.65293279563354 L-37.28449208397079,35.640623527168515 L-37.34197280124992,35.630741068878926 L-37.400060496871966,35.62329371871228 L-37.45870639667216,35.61828772994269 L-37.51786125778163,35.61572730592027 L-37.57747540997485,35.61561459654167 L-37.63749879737596,35.61794969644493 L-37.69788102048892,35.62273064493002 L-37.75857137851612,35.62995342760513 L-37.819518911930096,35.63961197975744 L-37.880672445262356,35.65169819144545 L-37.94198063007366,35.666201914308566 L-38.00339198806942,35.683110970088386 L-38.06485495432421,35.702411160854275 " />
			<path d="M-36.55996499600194,36.03574956839128 L-36.65055839142463,36.04145369392997 L-36.735890717293124,36.053326771202876 L-36.8148226519138,36.07137369291526 L-36.85143581332407,36.08264978020225 L-36.88590568590382,36.09539425031833 " />
			<path d="M-37.08842686813484,37.7035898229233 L-37.0432278187107,37.72551104534036 L-37.01653055244617,37.7374445097969 " />
			<path d="M-37.01653055244611,37.737444509796916 L-36.92154576794666,37.77475493897147 L-36.813800205956355,37.80961753597392 L-36.69382186612316,37.84154706370386 L-36.56242967832364,37.8700930410748 L-36.42072257276837,37.89485802110184 L-36.27005281085991,37.91551420986741 L-36.11198458329931,37.931817074837646 L-35.94824040582637,37.94361481271956 " />
			<path d="M-38.06485495432421,44.659097055883876 L-38.17765120352088,44.69485008864967 L-38.29037950847476,44.72689015119257 L-38.40297196587013,44.75519794377694 L-38.51536075422075,44.779756414847036 L-38.62747817472301,44.800550771298184 L-38.739256692035134,44.8175684873876 L-38.85062897495797,44.83079931227945 L-38.961527936992766,44.84023527621956 L-39.07188677675157,44.845870695336075 L-39.181639018195874,44.84770217506325 L-39.29071855067936,44.845728612186164 L-39.39905966877039,44.83995119550532 L-39.50659711183058,44.83037340512048 L-39.61326610332529,44.817001010334444 L-39.719002389842665,44.7998420661778 L-39.82374227979745,44.7789069085569 L-39.9274226817964,44.754208148027864 L-40.02998114264222,44.7257606622005 L-40.131355884952995,44.69358158677655 L-40.23148584437462,44.657690305227796 L-40.33031070636362,44.61810843712018 L-40.42777094251844,44.57485982509099 L-40.523807846437094,44.52797052048694 L-40.61836356907972,44.477468767671816 L-40.71138115361466,44.42338498701314 L-40.80280456972714,44.365751756558055 L-40.892578747369825,44.30460379240954 L-40.98064960993499,44.23997792781473 L-41.06696410682821,44.17191309097794 L-41.15147024542405,44.10045028161177 L-41.23411712238452,44.025632546240416 L-41.3148549543213,43.94750495227005 L-41.39363510778341,43.8661145608419 L-41.47041012855219,43.78151039848439 L-41.545133770225924,43.69374342758136 L-41.61776102207698,43.602866515674265 L-41.68824813616454,43.50893440361673 L-41.75655265368676,43.41200367260071 L-41.82263343055635,43.3121327100741 L-41.88645066218427,43.20938167457031 L-41.94796590745643,43.103812459471015 L-42.0071421118893,42.9954886557239 L-42.063943629950074,42.884475513537865 L-42.11833624652822,42.77083990307871 L-42.17028719754537,42.65465027418905 L-42.21976518969121,42.53597661515675 L-42.26674041927337,42.414890410556495 L-42.31118459017007,42.29146459819023 L-42.35307093087463,42.16577352515214 L-42.39237421062165,42.037892903044735 L-42.42907075458504,41.907899762373006 L-42.463138458138914,41.77587240614414 L-42.494556800172504,41.64189036270069 L-42.523306855451374,41.50603433781574 L-42.54937130601727,41.36838616607869 L-42.57273445161978,41.229028761601185 L-42.5933822191736,41.08804606807278 L-42.61130217123562,40.94552300819638 L-42.62648351349679,40.80154543253397 L-42.63891710128419,40.656200067793456 L-42.64859544506948,40.50957446458774 L-42.65551271498025,40.361756944697525 L-42.65966474431175,40.21283654786953 L-42.66104903203677,40.06290297818237 " />
			<path d="M-42.66104903203677,40.062902978182315 L-42.65911940197689,39.88470008787004 L-42.65333213203825,39.70536040812427 L-42.64369208158487,39.52503452407312 L-42.63020734502303,39.34387384892526 L-42.61288924500474,39.16203049683365 L-42.59175232292046,38.9796571551707 L-42.566814326689254,38.79690695632216 L-42.538096195856475,38.61393334910731 L-42.50562204401157,38.43088996993345 L-42.469419138540786,38.247930513792916 L-42.42951787773169,38.065208605210856 L-42.38595176524884,37.88287766925222 L-42.33875738200193,37.70109080269619 L-42.28797435543012,37.52000064548632 L-42.23364532622827,37.33975925256415 L-42.17581591254311,37.16051796619417 L-42.114534671669254,36.98242728888709 L-42.04985305927743,36.805636757028246 L-41.98182538620895,36.63029481531726 L-41.910508772872866,36.456548692124294 L-41.835963101283966,36.284544275867674 L-41.758250964782,36.11442599251657 L-41.67743761547431,35.946336684321665 L-41.593590909445915,35.78041748987564 L-41.50678124978323,35.61680772560408 L-41.417081527459075,35.455644768786534 L-41.32456706012873,35.297063942205604 L-41.22931552888839,35.14119840052134 L-41.13140691304914,34.98817901846595 L-41.03092342298116,34.838134280953 L-40.92794943108461,34.691190175193206 L-40.822571400945165,34.547470084907474 " />
			<path d="M-40.82257140094515,34.54747008490745 L-40.67249839030102,34.35356739352956 L-40.51820794562337,34.16642075023109 L-40.3599496063099,33.98633283390281 L-40.19797932917475,33.813594907106484 L-40.03255907448052,33.64848634500565 L-39.8639563822606,33.49127418352226 L-39.77854664774612,33.4157092210211 L-39.69244393961727,33.34221268745 L-39.60568307563333,33.270814302949816 L-39.518299139695166,33.201542939222925 L-39.4303274676582,33.13442660785829 L-39.34180363304351,33.069492449004215 L-39.25276343265272,33.0067667203936 L-39.163242872092745,32.94627478672597 L-39.07327815121603,32.888041109410615 L-38.9829056494822,32.83208923667503 L-38.89216191124717,32.77844179404259 L-38.80108363098552,32.72712047518338 L-38.70970763845214,32.67814603314182 L-38.61807088378928,32.63153827194464 L-38.52621042258478,32.58731603859266 L-38.43416340088776,32.5454972154395 L-38.34196704018769,32.50609871296045 L-38.24965862236296,32.469136462914285 L-38.157275474605015,32.43462541190085 L-38.06485495432423,32.402579515317065 " />
			<path d="M-37.16752351295322,37.66289782225325 L-37.04648391486146,37.69979493840686 L-36.914292283954794,37.73378202552252 L-36.77173459171631,37.76448745975591 L-36.619798588475334,37.79158261431902 L-36.45965299783338,37.814792643791556 L-36.292618361130664,37.83390535654459 L-36.12013100681389,37.84877759655881 L-35.94370218845758,37.859338737570525 " />
			<path d="M-37.73567531378522,37.13836184224909 L-37.73234092374104,37.161444583166286 L-37.726351405514606,37.18446544424046 L-37.71772439625913,37.20738789643487 L-37.70648583891901,37.23017591072619 L-37.6926697810193,37.25279414491217 L-37.67631811149578,37.27520812296902 L-37.636212718788784,37.3192907466749 L-37.58664809281535,37.362171471130246 L-37.52820247432412,37.40362145722048 L-37.461537479283486,37.44343884698975 L-37.387380197592776,37.48145124956419 L-37.3282795943684,37.508145528728406 L-37.26427647067423,37.53408913747071 L-37.19542398942391,37.55917302759143 L-37.12180955050892,37.58328939038078 L-37.043555483119526,37.60633291398046 L-36.960819190808635,37.628202068426184 L-36.87379271252973,37.6488003897381 L-36.78270167892511,37.6680377325828 L-36.68780366113325,37.68583146030277 L-36.58938592854362,37.70210754161216 L-36.48776265134458,37.71680152504006 L-36.38327160240663,37.729859365233885 L-36.167132587536685,37.750906217351606 L-35.94399368773767,37.76504406187568 " />
			<path d="M-37.37809445663795,38.24009066926447 L-37.28560729599121,38.27999586333115 L-37.18198986925337,38.31801592274876 L-37.067536627306474,38.35377824095155 L-36.942724462189354,38.386924549115356 L-36.808211771042764,38.417121043854515 L-36.664830405765926,38.44406824588875 L-36.513570452145586,38.46751003360499 L-36.35555829921611,38.48724131694634 " />
			<path d="M-37.18605676997182,38.41091521559439 L-37.069612616663505,38.44745988166118 L-36.94238157159111,38.48128924916702 L-36.80506088103317,38.51204891277937 L-36.65853545387653,38.53942164104544 " />
			<path d="M-36.115202167079644,36.76632084251678 L-36.17795067619178,36.78492969175621 L-36.23716019391295,36.80478531462948 L-36.29260816380257,36.82581307792011 L-36.3440861683073,36.84793394257608 " />
			<path d="M-36.34408616830731,36.847933942576084 L-36.391831575702106,36.87129007665889 L-36.435150802543276,36.89558605142112 L-36.473877899291466,36.92072879258343 L-36.507864508177285,36.946621982029875 L-36.53698043153793,36.973166426788296 L-36.561114130585146,37.00026043902397 L-36.58017315269382,37.02780022559056 L-36.59408448557425,37.05568028564635 L-36.60279483697143,37.083793814812296 L-36.60627083881978,37.11203311432377 L-36.604499175071275,37.14029000360861 L-36.597486632707216,37.16845623471083 L-36.58526007573835,37.196423906972505 L-36.56786634229278,37.22408588038521 L-36.5453720651861,37.25133618602751 L-36.5178634166609,37.2780704320162 " />
			<path d="M-36.517863416660894,37.2780704320162 L-36.47394884919954,37.312470848146994 L-36.42173935144323,37.345558535096636 L-36.36158487635258,37.37711171072768 L-36.293888630959955,37.40691887851741 L-36.219104373729124,37.43478024518944 L-36.13773337307578,37.46050905990009 L-36.05032104743545,37.48393286600322 L-35.95745330940001,37.50489465700294 " />
			<path d="M-29.650284258210885,44.3998245694576 L-29.720994936329923,44.49410547361605 " />
			<path d="M-27.811806627119267,38.884391676182744 L-27.811806627119427,38.76654054598456 " />
			<path d="M-30.45023997951481,33.953918541824734 L-35.75354083841391,32.186151588858365 " />
			<path d="M-34.71931482074213,46.76114306550667 L-40.022615679641234,44.993376112540304 " />
			<path d="M-40.82257140094528,34.54747008490735 L-40.751860722826244,34.4531891807489 " />
			<path d="M-42.66104903203693,40.0629029781823 L-42.66104903203677,40.180754108380484 " />
			<path d="M-36.51786341666089,37.278070432016214 L-37.257551070557945,36.62572723865674 " />

       </g>
    </g>
    
</svg>
