<?xml version="1.0" encoding="UTF-8" standalone="no"?>
<svg
   xmlns:svg="http://www.w3.org/2000/svg"
   xmlns="http://www.w3.org/2000/svg"
   width="1024.0"
   height="320.0"

>
    <g transform="scale(13.180194846605364, -13.180194846605364)   translate(21.45863532593281,-5.926808722526511)" stroke-width="0.21333333466666668"  fill="none">
       <!-- hidden lines -->
       <g  stroke="rgb(32,64,32)" fill="none" stroke-dasharray="0.21333333466666668,0.21333333466666668" >

       </g>

       <!-- solid lines -->
       <g  stroke="rgb(64,192,64)" fill="none">
			<path d="M10.325612013112213,-0.2680976175806954 L10.287725800692792,-0.28429876531598275 L10.245977259393078,-0.29940843507596177 " />
			<path d="M12.605682333894125,0.17070212024430287 L10.325612013111197,-0.26809761758031025 " />
			<path d="M11.302512279122805,3.2342520777777697 L11.19896172468367,3.176043268732868 L11.10024267285225,3.1169090943833533 L11.00642949175538,3.0568941023388003 L10.917592853775155,2.996043503756102 L10.833799682309227,2.9344031392804997 L10.755113101355327,2.872019444512405 L10.681592387958002,2.8089394150260167 L10.61329292755337,2.745210570966099 L10.550266172245568,2.6808809212495768 L10.49255960204626,2.6159989273989317 L10.440216689106492,2.5506134670346308 L10.393276864967758,2.4847737970540975 L10.351775490857001,2.4185295165249627 L10.315743831047904,2.351930529320547 L10.285209029308536,2.2850270065257203 L10.26019408845311,2.2178693486414796 " />
			<path d="M10.260194088453396,2.2178693486414716 L10.32561201311221,2.1914280624081077 " />
			<path d="M10.325612013111616,2.1914280624079634 L12.605682333894544,1.7526283245833505 " />
			<path d="M12.605682333894137,1.7526283245831562 L12.67401322283482,1.749338082976971 L12.741146926802765,1.7439673041858155 L12.806514564745212,1.736561499392781 L12.869562220991021,1.7271834242895423 L12.929755639049944,1.7159125472939332 L12.986584748822896,1.7028443761463559 L13.039567988860346,1.688089648591352 L13.08825638704263,1.671773394002375 L13.132237365103123,1.6540338739014189 L13.17113823475529,1.6350214103513836 L13.204629355797962,1.6148971121492028 L13.232426929437525,1.593831509613788 L13.25429540315681,1.572003109537393 L13.270049466752205,1.5495968825455255 L13.279555622624834,1.526802695683294 L13.282733317019412,1.5038137035102228 " />
			<path d="M13.282733317019412,1.5038137035102217 L13.281669336961539,1.4905018957473228 L13.27848041559742,1.477227857312408 L13.26576994378612,1.4509435230695262 L13.244746051941892,1.4252587932681837 L13.215647173503452,1.4004649602387702 " />
			<path d="M13.21564717350328,1.4004649602387955 L13.21564717350328,0.522865484588616 " />
			<path d="M13.215647173503452,0.5228654845886418 L13.244746051941892,0.4980716515592273 L13.265769943786122,0.4723869217578849 L13.278480415597421,0.44610258751500315 L13.28166933696154,0.43282854908008817 L13.282733317019414,0.4195167413171904 " />
			<path d="M13.282733317019414,0.4195167413171893 L13.279121862023562,0.3950124562347992 L13.268322277321836,0.37074416081315736 L13.25043856881857,0.3469455720035739 L13.22564296640288,0.323845883225917 L13.19417426528068,0.30166755711069 L13.156335526246323,0.2806241830622889 L13.112491157041468,0.26091842027627815 L13.063063402909329,0.24274004602055346 " />
			<path d="M13.063063402909325,0.24274004602055232 L13.015552784273053,0.22820972743609447 L12.964473653128653,0.2150933565447787 L12.910203534681209,0.20348787627612916 L12.853143538682154,0.19347906258639933 L12.732358335782651,0.1785349873089984 L12.605682333894144,0.170702120244255 " />
			<path d="M10.245977259393072,-0.2994084350759637 L10.168020205414935,-0.32203603038259937 " />
			<path d="M10.168020205414377,-0.32203603038244705 L10.143570246475548,-0.3902929341477842 L10.114098896205498,-0.4583291044381741 L10.079623931363182,-0.526103502665682 L10.040166146826827,-0.5935752481400882 L9.995749343050713,-0.6607036427276239 L9.946400311709029,-0.7274481953995855 L9.892148819535462,-0.7937686466560303 L9.833027590368266,-0.8596249928098172 L9.769072285411646,-0.9249775101163382 L9.70032148172535,-0.9897867787344002 L9.626816648955455,-1.0540137065037944 L9.548602124320393,-1.1176195525252064 L9.465725085867266,-1.180565950528255 L9.378235524014638,-1.2428149320135609 L9.286186211398917,-1.3043289491548775 L9.189632671042569,-1.3650708974474741 " />
			<path d="M9.189632671042348,-1.3650708974474983 L9.549217205920607,-1.3710085192610588 L9.9092419933589,-1.3707755841646034 L10.268754669809677,-1.3643727083348591 L10.62680422639833,-1.3518168291210086 L10.982443524600477,-1.3331411602407965 L11.33473180168115,-1.3083951039212036 L11.682737159268276,-1.2776441202161113 L12.025539028477482,-1.2409695538466443 L12.362230605067339,-1.198468419022244 L12.691921248183387,-1.1502531428116805 L13.01373883634558,-1.0964512677428586 L13.326832074446969,-1.0372051144181176 L13.630372745660944,-0.9726714050375063 L13.92355790230015,-0.9030208488259077 L14.205611989831652,-0.8284376904606814 L14.475788898429759,-0.7491192226943428 L14.606198789983766,-0.7077493418552236 L14.733373936639545,-0.665275264461545 L14.857230221268981,-0.6217250840323911 L14.977685721930293,-0.5771276058508876 L15.094660766053437,-0.5315123279116034 L15.208077983137724,-0.48490942140976734 L15.317862355926799,-0.4373497107852111 L15.423941270027107,-0.3888646533342419 L15.526244561937041,-0.3394863184029233 L15.624704565455012,-0.28924736617553126 L15.719256156435716,-0.23818102607221103 L15.80983679586505,-0.18632107477013005 L15.896386571225108,-0.13370181386265778 L15.978848236121978,-0.0803580471713492 L16.05716724815007,-0.026325057725746226 L16.131291804967958,0.028361415573788018 L16.201172878561877,0.08366520159475499 L16.26676424767417,0.13954972089710127 L16.32802252837534,0.19597800992786207 L16.384907202759315,0.25291274546986797 L16.43738064574315,0.3103162693283449 L16.485408149953262,0.36815061323907583 L16.52895794868184,0.4263775239816535 L16.568001236898223,0.48495848868120117 L16.60251219030134,0.5438547602818555 L16.6324679824006,0.6030273831751259 L16.65784879961396,0.6624372189661953 L16.67863785437318,0.7220449723611396 L16.69482139622758,0.7818112171579044 L16.70638872093896,0.8416964223238772 L16.713332177561668,0.9016609781427969 L16.715647173503164,0.9616652224136844 " />
			<path d="M16.715647173503164,0.9616652224137057 L16.71410806033679,1.0105928508956885 L16.709491397657494,1.0594989636184726 L16.701799215627073,1.1083620542843413 L16.691034896856564,1.1571606355143824 L16.67720317491876,1.2058732482974897 L16.66031013226661,1.254478471426891 L16.640363197558507,1.3029549309200512 L16.61737114239155,1.351281309417809 L16.591344077444262,1.3994363555586133 L16.562293448030452,1.4473988933237376 L16.53023202906618,1.495147831349363 L16.495173919452043,1.542662172201433 L16.457134535873205,1.5899210216092066 L16.416130606019987,1.63690359765344 L16.372180161231903,1.6835892399051677 L16.325302528568447,1.7299574185110558 L16.275518322310095,1.7759877432213342 L16.222849434893224,1.8216599723563425 L16.167319027282996,1.8669540217077376 L16.108951518788416,1.9118499733704581 L15.983809103122832,2.000368796002042 L15.847642287513509,2.087060753956739 L15.700690561216021,2.17177337401718 L15.54321238191243,2.254357664211825 L15.375484721137703,2.334668375861013 L15.197802577144078,2.412564259039339 L15.010478456060188,2.4879083110050475 L14.813841822257423,2.5605680171595075 L14.608238518890285,2.6304155841129764 L14.394030159629818,2.6973281644467315 L14.17159349265998,2.7611880727762617 L13.941319738055556,2.8218829927355094 L13.703613899706967,2.8793061745181197 L13.458894053002238,2.933356622628265 L13.207590609518883,2.983939273510823 L12.950145560018994,3.0309651627485064 L12.687011697078942,3.074351581531859 L12.41865181872092,3.114022222126946 L12.145537914446965,3.1499073120848644 L11.86815033510709,3.181943736957048 L11.586976948061524,3.2100751513005217 L11.302512279122972,3.23425207777788 " />
			<path d="M9.715647173506696,-13.799758526740185 L9.945592598681621,-13.797876912290697 L10.174984065186457,-13.792236601916368 L10.403268948886065,-13.782851183618922 L10.629897291500225,-13.769743267693103 L10.854323125501281,-13.752944432256495 L11.076005789397746,-13.732495147175069 L11.294411230235184,-13.70844467656773 L11.509013290176563,-13.680850960124745 L11.719294974062564,-13.649780473525949 L11.924749694898207,-13.61530806829501 L12.124882494265291,-13.577516791475558 L12.31921123472058,-13.536497685563573 L12.507267761307128,-13.49234956917805 L12.688599029380587,-13.445178798998274 L12.862768196033425,-13.395099013541284 L13.029355672487723,-13.342230859396725 " />
			<path d="M13.029355672487753,-13.342230859396714 L13.187960134921608,-13.28670170057855 L13.338199491292709,-13.228645311694214 L13.479711801832147,-13.168201555669663 L13.612156150988817,-13.105516046807413 L13.735213468724847,-13.040739799988913 L13.848587299183261,-12.974028866866478 L13.952004514876112,-12.905543959921188 L14.045215974672516,-12.835450065292441 L14.127997124001464,-12.763916045311902 L14.165413016190545,-12.727662717753493 L14.200148535823452,-12.691114231699343 L14.232182759522004,-12.654292602590816 L14.261496391067682,-12.617220010400441 L14.288071773024951,-12.579918786271513 L14.311892897377435,-12.542411399066673 L14.332945415170553,-12.504720441833475 L14.351216645154796,-12.466868618195205 L14.36669558142442,-12.428878728675048 L14.379372900047015,-12.390773656961922 L14.389240964679876,-12.352576356126184 L14.396293831169862,-12.314309834793569 L14.40052725113392,-12.275997143285649 L14.401938674518163,-12.237661359735199 " />
			<path d="M14.401938674518306,-10.328354005949304 L14.40480182691403,-10.304450067352947 L14.413373056891007,-10.28069830441934 L14.42759779885549,-10.257249924040659 L14.447385496202045,-10.234254201735249 L14.47261017780897,-10.211857531339763 L14.503111259987277,-10.190202493046463 L14.538694568777876,-10.169426945718683 L14.579133576088912,-10.149663149262919 " />
			<path d="M18.362251078938083,-10.028522360412119 L21.029355672487924,-10.028522360412119 " />
			<path d="M21.029355672487924,-10.028522360411923 L21.259301097663073,-10.02664074596249 L21.488692564168137,-10.021000435588208 L21.716977447867983,-10.0116150172908 L21.943605790482387,-9.998507101365014 L22.16803162448369,-9.98170826592843 L22.389714288380397,-9.96125898084702 L22.608119729218075,-9.93720851023969 L22.822721789159694,-9.909614793796708 L23.03300347304593,-9.878544307197906 L23.2384581938818,-9.844071901966956 L23.438590993249107,-9.806280625147485 L23.632919733704608,-9.765261519235475 L23.82097626029136,-9.72111340284992 L24.00230752836501,-9.673942632670107 L24.176476695018017,-9.623862847213072 L24.343064171472484,-9.570994693068464 " />
			<path d="M24.343064171472513,-9.570994693068453 L24.50166863390637,-9.51546553425029 L24.651907990277472,-9.457409145365952 L24.79342030081691,-9.396965389341402 L24.92586464997358,-9.334279880479151 L25.048921967709607,-9.269503633660651 L25.16229579816802,-9.202792700538216 L25.265713013860875,-9.134307793592926 L25.358924473657275,-9.06421389896418 L25.441705622986227,-8.99267987898364 L25.479121515175308,-8.956426551425231 L25.513857034808215,-8.919878065371082 L25.545891258506764,-8.883056436262555 L25.575204890052444,-8.84598384407218 L25.601780272009712,-8.808682619943252 L25.625601396362196,-8.771175232738411 L25.646653914155316,-8.733484275505214 L25.664925144139556,-8.695632451866944 L25.680404080409183,-8.657642562346787 L25.693081399031776,-8.619537490633661 L25.702949463664638,-8.581340189797922 L25.710002330154623,-8.543073668465308 L25.714235750118682,-8.504760976957387 L25.715647173502923,-8.466425193406938 " />
			<path d="M-6.284352826496837,-8.466425193406923 L-6.283148055923149,-8.531873397597439 L-6.279533925636104,-8.597311745529142 L-6.2735109799104265,-8.662730382427531 L-6.2650801257795905,-8.728119456486523 L-6.254242632899217,-8.793469120352082 L-6.241000133355868,-8.858769532605205 L-6.225354621421269,-8.924010859244001 L-6.207308453251965,-8.989183275164654 L-6.186864346534506,-9.05427696564105 L-6.164025380076163,-9.119282127802835 L-6.138794993341277,-9.184188972111698 L-6.111176985933284,-9.24898772383563 L-6.081175517022514,-9.31366862452097 L-6.048795104719831,-9.378221933461992 L-6.014040625396223,-9.442637929167812 L-5.976917312948439,-9.50690691082642 L-5.937430758010782,-9.571019199765576 L-5.895586907113184,-9.634965140910392 L-5.851392061785678,-9.698735104237342 L-5.804852877609408,-9.762319486224511 L-5.704769879223713,-9.888893233273246 L-5.595398198211987,-10.014610138764269 L-5.4768037159851986,-10.139394475534573 L-5.349057869424909,-10.263171078165675 L-5.2122376078523605,-10.385865388260454 L-5.066425346677089,-10.507403499354341 L-4.911708917752952,-10.62771220143382 L-4.74818151647151,-10.746719025035393 L-4.575941645624615,-10.86435228489847 L-4.395093056070003,-10.980541123145901 L-4.205744684235654,-11.095215551966106 L-4.008010586500571,-11.208306495771119 L-3.802009870491476,-11.319745832805133 L-3.587866623336831,-11.429466436178501 L-3.3657098369213863,-11.537402214302475 L-3.1356733301863056,-11.643488150700286 L-2.8978956685216257,-11.747660343170658 L-2.652520080299654,-11.849856042280097 L-2.3996943705995495,-11.950013689160803 L-2.1395708321750764,-12.048072952591431 L-1.8723061537191334,-12.14397476533836 L-1.5980613254803533,-12.237661359735593 L-1.317001542288594,-12.329076302481832 L-1.0292961040477504,-12.41816452863379 L-0.7351183137558177,-12.50487237477526 L-0.4346453731136446,-12.58914761134194 L-0.1280582757852713,-12.670939474082573 L0.1844583016258987,-12.750198694637444 L0.5027161108193834,-12.826877530215782 L0.8265234451913468,-12.900929792354239 L1.1556852553115036,-12.972310874739097 L1.4900032664135878,-13.040977780075437 L1.829276097828668,-13.106889145987108 L2.1732993842893267,-13.170005269931863 L2.5218658990316607,-13.230288133116709 L2.8747656786209292,-13.287701423398982 L3.231786149425681,-13.342210557159436 L3.592712255664159,-13.393782700134123 L3.957326588945861,-13.442386787192522 L4.3254095192302255,-13.48799354105001 L4.696739327123558,-13.530575489903413 L5.071092337434497,-13.570106983978981 L5.448243053907594,-13.606564210982864 L5.827964295053818,-13.639925210444733 L6.210027330996194,-13.670169886945963 L6.59420202124813,-13.697280022224355 L6.98025695334143,-13.721239286148123 L7.367959582220529,-13.74203324655258 L7.757076370318924,-13.75964937793351 L8.147372928233477,-13.774077068992083 L8.53861415591183,-13.785307629026688 L8.930564384267882,-13.7933342931679 L9.322987517140032,-13.798152226453375 L9.715647173506543,-13.79975852674026 " />
			<path d="M10.260194088453364,2.217869348641461 L10.260194088453364,-0.2945389038140709 " />
			<path d="M10.325612013111616,2.19142806240796 L10.325612013111616,-0.26809761758022965 " />
			<path d="M12.605682333894123,0.1707021202442549 L12.605682333894123,1.7526283245831058 " />
			<path d="M13.215647173503282,0.3161679980456107 L13.215647173503282,0.522865484588614 " />
			<path d="M9.189632671042363,-1.3650708974474517 L9.189632671042363,-3.250688980611579 " />
			<path d="M9.189632671042553,-3.2506889806116113 L9.041229939839731,-3.337610488777612 L8.883605790073485,-3.4227092126716827 L8.716961472724094,-3.5058765001511834 L8.541509755519563,-3.58700616508818 L8.357474651278553,-3.665994622945518 L8.165091131895846,-3.7427410230312326 L7.964604828335494,-3.8171473772624496 L7.756271717014741,-3.889118685274368 " />
			<path d="M14.665394641808996,-2.573868683519032 L14.530501291604988,-2.6176398258389755 L14.392125580273447,-2.6601860027695734 L14.250367588561645,-2.7014764426303044 L14.105329843463707,-2.7414812819571512 L13.957117244067568,-2.7801715871014574 L13.805836985686334,-2.817519375156298 L13.494513287565702,-2.888080342808715 L13.172259250334434,-2.952960087896638 L12.840006991141005,-3.0119709462917754 L12.498717546908566,-3.0649422295722575 L12.149378094543561,-3.111720718737488 L11.792999095534652,-3.152171107392844 L11.43061137320119,-3.186176393122305 L11.063263131045248,-3.213638215916981 L10.692016920831634,-3.234477142680625 L10.317946569165652,-3.2486328969892106 L9.942134071458502,-3.2560645334399934 L9.565666462264454,-3.256750556085749 L9.18963267104242,-3.250688980611627 " />
			<path d="M16.715647173503164,-0.9239528607504204 L16.71353890437659,-0.9812157273038822 L16.70721536693937,-1.0384441008477288 L16.696680370253993,-1.0956035091496439 L16.681940260208542,-1.1526595215193953 L16.663003915694134,-1.2095777695485928 L16.639882743256628,-1.266323967812932 L16.61259067022575,-1.3228639345244573 L16.581144136325776,-1.379163612121387 L16.545562083772865,-1.435189087783117 L16.50586594586497,-1.4909066138580362 L16.462079634071245,-1.54628262819185 L16.414229523628627,-1.6012837743441657 L16.36234443765442,-1.6558769216811668 L16.30645562978431,-1.7100291853322669 L16.246596765346336,-1.7637079459987255 L16.18280390108217,-1.8168808696022969 L16.115115463427877,-1.8695159267620645 L16.043572225367264,-1.9215814120877461 L15.96821728187177,-1.9730459632778363 L15.889096023941647,-2.023878580011082 L15.806256111264144,-2.0740486426199167 L15.719747443505067,-2.123525930534605 L15.629622130251114,-2.1722806404869806 L15.53593445962098,-2.2202834044628252 L15.43874086556425,-2.2675053073920592 L15.33809989386768,-2.313917904566098 L15.234072166889408,-2.3594932387718828 L15.126720347042323,-2.40420385713226 L15.016109099048553,-2.4480228276425673 L14.902305050987877,-2.4909237553934642 L14.66539464180902,-2.5738686835190245 " />
			<path d="M13.029355672487753,-5.799758526740204 L12.862768196033425,-5.8526266808847724 L12.688599029380589,-5.902706466341763 L12.50726776130713,-5.949877236521537 L12.31921123472058,-5.994025352907062 L12.124882494265293,-6.035044458819046 L11.924749694898209,-6.072835735638499 L11.719294974062565,-6.107308140869437 L11.509013290176565,-6.138378627468233 L11.294411230235186,-6.165972343911219 L11.076005789397747,-6.1900228145185565 L10.854323125501283,-6.210472099599984 L10.629897291500226,-6.227270935036592 L10.403268948886067,-6.2403788509624105 L10.17498406518646,-6.249764269259857 L9.945592598681623,-6.255404579634186 L9.715647173506738,-6.257286194083674 " />
			<path d="M9.71564717350669,-6.257286194083756 L9.322987517140037,-6.255679893796874 L8.930564384267887,-6.250861960511398 L8.538614155911835,-6.242835296370186 L8.147372928233482,-6.231604736335581 L7.757076370318929,-6.217177045277008 L7.367959582220535,-6.199560913896077 L6.980256953341436,-6.178766953491621 L6.594202021248135,-6.1548076895678525 L6.2100273309962,-6.127697554289463 L5.827964295053825,-6.097452877788231 L5.4482430539076,-6.064091878326361 L5.071092337434503,-6.02763465132248 L4.696739327123563,-5.988103157246911 L4.325409519230232,-5.945521208393509 L3.9573265889458664,-5.899914454536019 L3.592712255664165,-5.851310367477622 L3.2317861494256865,-5.799738224502935 L2.8747656786209346,-5.74522909074248 L2.521865899031666,-5.687815800460208 L2.173299384289332,-5.627532937275362 L1.8292760978286733,-5.564416813330605 L1.4900032664135932,-5.498505447418936 L1.155685255311509,-5.429838542082596 L0.8265234451913521,-5.358457459697738 L0.5027161108193869,-5.28440519755928 L0.18445830162590404,-5.207726361980943 L-0.12805827578526774,-5.128467141426072 L-0.43464537311363927,-5.046675278685437 L-0.7351183137558142,-4.962400042118758 L-1.0292961040477522,-4.8756921959772885 L-1.3170015422885886,-4.786603969825331 L-1.5980613254803497,-4.695189027079092 L-1.8723061537191281,-4.601502432681859 L-2.139570832175062,-4.505600619934933 L-2.399694370599537,-4.407541356504306 L-2.65252008029964,-4.3073837096236005 L-2.8978956685216133,-4.205188010514161 L-3.135673330186295,-4.101015818043788 L-3.3657098369213756,-3.994929881645977 L-3.5878666233368186,-3.8869941035220053 L-3.8020098704914655,-3.7772735001486346 L-4.008010586500561,-3.665834163114622 L-4.205744684235643,-3.55274321930961 L-4.395093056069992,-3.438068790489404 L-4.5759416456246065,-3.321879952241973 L-4.748181516471503,-3.204246692378896 L-4.911708917752945,-3.085239868777324 L-5.066425346677084,-2.9649311666978426 L-5.212237607852359,-2.8433930556039524 L-5.349057869424907,-2.7206987455091745 L-5.476803715985197,-2.596922142878073 L-5.595398198211985,-2.4721378061077686 L-5.704769879223711,-2.3464209006167445 L-5.804852877609406,-2.2198471535680104 L-5.851392061785676,-2.1562627715808427 L-5.895586907113184,-2.0924928082538914 L-5.937430758010782,-2.028546867109074 L-5.976917312948437,-1.9644345781699195 L-6.01404062539622,-1.900165596511314 L-6.048795104719829,-1.835749600805491 L-6.0811755170225155,-1.7711962918644675 L-6.111176985933284,-1.7065153911791293 L-6.138794993341275,-1.6417166394551996 L-6.164025380076163,-1.576809795146335 L-6.186864346534508,-1.5118046329845467 L-6.207308453251965,-1.4467109425081537 L-6.225354621421268,-1.381538526587503 L-6.241000133355868,-1.316297199948705 L-6.254242632899217,-1.2509967876955796 L-6.2650801257795905,-1.185647123830023 L-6.2735109799104265,-1.120258049771034 L-6.279533925636104,-1.0548394128726406 L-6.283148055923149,-0.9894010649409365 L-6.284352826496837,-0.9239528607504707 " />
			<path d="M-6.284352826490102,-0.9239528607504206 L-6.284352826490101,-8.466425193406927 " />
			<path d="M14.40193867451874,-4.695189027078676 L14.40193867451874,-12.237661359735183 " />
			<path d="M14.401938674518163,-4.695189027078673 L14.40052725113392,-4.733524810629136 L14.396293831169862,-4.771837502137056 L14.389240964679876,-4.810104023469672 L14.379372900047015,-4.84830132430541 L14.36669558142442,-4.886406396018537 L14.351216645154796,-4.924396285538692 L14.332945415170554,-4.962248109176962 L14.311892897377437,-4.9999390664101595 L14.288071773024951,-5.037446453615002 L14.261496391067684,-5.074747677743927 L14.232182759522006,-5.111820269934303 L14.200148535823454,-5.148641899042829 L14.165413016190547,-5.185190385096979 L14.127997124001467,-5.22144371265539 L14.045215974672518,-5.292977732635928 L13.952004514876114,-5.363071627264674 L13.848587299183265,-5.431556534209965 L13.73521346872485,-5.4982674673324 L13.61215615098882,-5.563043714150901 L13.47971180183215,-5.625729223013152 L13.33819949129271,-5.686172979037702 L13.18796013492161,-5.744229367922038 L13.029355672487771,-5.799758526740198 " />
			<path d="M-6.284352826496597,-0.923952860750421 L-6.2829414031123525,-0.885617077199939 L-6.27870798314829,-0.8473043856920006 L-6.271655116658299,-0.8090378643593663 L-6.261787052025427,-0.7708405635236095 L-6.24910973340282,-0.7327354918104648 L-6.233630797133181,-0.6947456022902916 L-6.215359567148922,-0.6568937786520035 L-6.194307049355783,-0.6192028214187895 L-6.170485925003276,-0.5816954342139309 L-6.143910543045983,-0.5443942100849886 L-6.114596911500278,-0.5073216178945954 L-6.082562687801696,-0.4704999887860531 L-6.047827168168755,-0.4339515027318876 L-6.0104112759796395,-0.3976981751734616 L-5.927630126650613,-0.32616415519289255 L-5.834418666854122,-0.2560702605641195 L-5.731001451161175,-0.18758535361880369 L-5.617627620702657,-0.12087442049634556 L-5.494570302966515,-0.0560981736778251 L-5.362125953809726,0.006587335184442433 L-5.220613643270163,0.06703109120900619 L-5.070374286898929,0.12508748009335457 L-4.911769824464939,0.18061663891152624 L-4.745182348010304,0.2334847930561479 L-4.571013181357146,0.28356457851318195 L-4.389681913283348,0.3307353486929909 L-4.2016253866964455,0.37488346507854 L-4.007296646240791,0.4159025709905382 L-3.807163846873332,0.45369384780999433 L-3.601709126037306,0.48816625304092476 L-3.3914274421509174,0.5192367396397024 L-3.176825382209148,0.5468304560826573 L-2.9584199413713197,0.5708809266899544 L-2.7367372774744667,0.5913302117713282 L-2.5123114434730263,0.6081290472078715 L-2.28568310085849,0.6212369631336139 L-2.057398217158515,0.6306223814309719 L-1.828006750653329,0.6362626918052021 L-1.5980613254780738,0.6381443062545797 " />
			<path d="M14.401938674518743,-10.328354005949304 L14.401938674518743,-9.860956020509619 " />
			<path d="M14.40193867451874,-2.785881673292802 L14.40193867451874,-4.6951890270786745 " />
			<path d="M14.401938674518743,-9.860956020509622 L14.403997842410599,-9.826459549835086 L14.410121933088197,-9.791386281713642 " />
			<path d="M18.4101219330882,-9.236761558592997 L21.029355672487924,-9.236761558592995 " />
			<path d="M24.343064171472513,-7.530416132671364 L24.283420736973937,-7.639958982790861 L24.220187195722104,-7.745935619494363 L24.153300737412476,-7.848374691313653 L24.0826985517405,-7.947304846780515 L24.008317828401644,-8.04275473442673 L23.930095757091358,-8.13475300278408 L23.847969527505107,-8.223328300384352 L23.76187632933834,-8.308509275759326 L23.672304896383853,-8.38982231665256 L23.579814423443526,-8.466845152645645 L23.484447791726446,-8.539683445027405 L23.386247882441694,-8.608442855086667 L23.28525757679836,-8.673229044112256 L23.181519756005535,-8.734147673393 L23.075077301272298,-8.791304404217724 L22.96597309380774,-8.844804897875257 L22.854676700467603,-8.894573931137138 L22.741672852165607,-8.940538609913007 L22.62702717619779,-8.982808089198832 L22.510805299860195,-9.021491523990576 L22.39307285044886,-9.056698069284211 L22.27389545525983,-9.0885368800757 L22.153338741589142,-9.117117111361013 L22.031468336732843,-9.142547918136113 L21.908505770735733,-9.164888840130963 L21.78469302369478,-9.184147838915985 L21.66012639798426,-9.200356702247845 L21.534902195978454,-9.213547217883207 L21.40911672005164,-9.223751173578739 L21.282866272578094,-9.231000357091103 L21.156247155932096,-9.235326556176966 L21.02935567248794,-9.236761558592995 " />
			<path d="M5.0293556724875845,2.694955990080457 L5.0293556724875845,2.8472833055766564 " />
			<path d="M25.715647173503502,-0.9239528607504202 L25.715647173503502,-8.466425193406927 " />
			<path d="M25.715647173502923,-0.9239528607504196 L25.714235750118682,-0.962288644300883 L25.710002330154623,-1.000601335808803 L25.702949463664638,-1.038867857141419 L25.693081399031776,-1.0770651579771573 L25.680404080409183,-1.1151702296902837 L25.664925144139556,-1.153160119210439 L25.646653914155316,-1.1910119428487094 L25.625601396362196,-1.2287029000819059 L25.601780272009712,-1.266210287286747 L25.575204890052447,-1.3035115114156723 L25.545891258506767,-1.3405841036060488 L25.51385703480822,-1.3774057327145748 L25.479121515175308,-1.4139542187687244 L25.44170562298623,-1.4502075463271349 L25.358924473657282,-1.521741566307674 L25.265713013860875,-1.5918354609364194 L25.162295798168028,-1.66032036788171 L25.048921967709614,-1.7270313010041454 L24.925864649973583,-1.7918075478226456 L24.793420300816916,-1.8544930566848963 L24.65190799027748,-1.914936812709446 L24.501668633906377,-1.9729932015937834 L24.343064171472538,-2.0285223604119427 " />
			<path d="M24.343064171472513,-4.069100920809042 L24.398090594950187,-4.142658340062407 L24.44899115294967,-4.219696792619823 L24.495880763059947,-4.3002361227912544 L24.538874342870013,-4.384296174886667 L24.578086809968852,-4.471896793216024 L24.61363308194545,-4.56305782208929 L24.645628076388803,-4.657799105816429 L24.67418671088789,-4.756140488707407 L24.69922781047632,-4.857458146479716 L24.720675070842677,-4.961112689212473 L24.73865071555842,-5.067100612758079 L24.753276968195024,-5.175418412968939 L24.764652450119783,-5.286211684472166 L24.772788477869092,-5.399438651176824 L24.77767631776806,-5.5148147528582365 L24.779307236141793,-5.632055429291725 L24.777695531528103,-5.750487379213481 L24.772855451632235,-5.869619149307305 L24.76477818653042,-5.989438951269943 L24.753454926298897,-6.109934996798138 L24.738810838346385,-6.2312838092283345 L24.72074978983557,-6.353360755833573 L24.699231020473633,-6.4757023142155035 L24.674213769967757,-6.597844961975774 L24.645729664769572,-6.719215882174014 L24.613767404636306,-6.839467332061678 L24.578221839233546,-6.958473400528155 L24.538987818226865,-7.076108176462835 L24.495960191281842,-7.192245748755106 L24.44903380806406,-7.306760206294359 L24.39810351823909,-7.419525637969982 L24.34306417147252,-7.530416132671356 " />
			<path d="M5.029355672488163,2.8472833055766533 L5.030767095872322,2.885619089127154 L5.035000515836301,2.9239317806351117 L5.0420533823262135,2.9621983019677662 L5.051921446959007,3.0003956028035437 L5.06459876558154,3.0385006745167096 L5.080077701851109,3.0764905640369045 L5.098348931835298,3.114342387675215 L5.119401449628373,3.152033344908452 L5.143222573980816,3.1895407321133336 L5.1697979559380505,3.2268419562422994 L5.1991115874837,3.2639145484327168 L5.2311458111822295,3.3007361775412836 L5.2658813308151196,3.3372846635954736 L5.303297223004188,3.3735379911539245 L5.386078372333131,3.4450720111345436 L5.479289832129551,3.5151659057633675 L5.582707047822438,3.5836508127087345 L5.69608087828091,3.650361745831244 L5.819138196017016,3.715137992649815 L5.951582545173782,3.7778235015121338 L6.093094855713335,3.8382672575367467 L6.243334212084568,3.896323646421144 L6.40193867451857,3.951852805239363 L6.568526150973226,4.00472095938403 L6.742695317626417,4.054800744841108 L6.924026585700256,4.101971515020959 L7.112083112287211,4.146119631406548 L7.306411852742926,4.187138737318584 L7.506544652110453,4.224930014138074 L7.711999372946554,4.259402419369036 L7.922281056833025,4.290472905967843 L8.136883116774882,4.318066622410823 L8.355288557612806,4.342117093018143 L8.576971221509758,4.362566378099537 L8.8013970555113,4.379365213536096 L9.028025398125942,4.392473129461851 L9.256310281826025,4.401858547759218 L9.485701748331321,4.4074988581334535 L9.715647173506685,4.409380472582833 " />
			<path d="M9.715647173506692,4.409380472582914 L10.108306829873234,4.407774172295975 L10.500729962745268,4.402956239010444 L10.892680191101196,4.394929574869179 L11.283921418779425,4.383699014834522 L11.67421797669385,4.369271323775901 L12.063334764792112,4.351655192394923 L12.451037393671076,4.330861231990421 L12.837092325764242,4.306901968066609 L13.221267016016037,4.279791832788178 L13.603330051958272,4.249547156286908 L13.983051293104353,4.216186156825 L14.360202009577304,4.179728929821084 L14.734555019888099,4.140197435745482 L15.105884827781281,4.097615486892049 L15.473967758065491,4.052008733034531 L15.838582091347043,4.003404645976105 L16.19950819758537,3.951832503001394 L16.556528668389966,3.897323369240917 L16.909428447979078,3.8399100789586242 L17.257994962721263,3.7796272157737594 L17.60201824918177,3.716511091828985 L17.941291080596695,3.650599725917302 L18.275609091698623,3.58193282058095 L18.604770901818632,3.5105517381960807 L18.928578236190447,3.436499476057614 L19.24683604538378,3.3598206404792714 L19.559352622794798,3.280561419924397 L19.86593972012302,3.19876955718376 L20.166412660765047,3.11449432061708 L20.460590451056845,3.0277864744756102 L20.74829588929755,2.9386982483236523 L21.029355672489167,2.8472833055774194 L21.303600500727807,2.753596711180194 L21.570865179183617,2.657694898433271 L21.83098871760796,2.5596356350026532 L22.08381442730793,2.4594779881219595 L22.329190015529775,2.357282289012534 L22.566967677194334,2.253110096542175 L22.797004183929296,2.147024160144379 L23.019160970344622,2.039088382020426 L23.233304217499153,1.9293677786470762 L23.43930493350814,1.8179284416130823 L23.63703903124312,1.7048374978080911 L23.826387403077362,1.59016306898791 L24.007235992631877,1.4739742307405037 L24.17947586347868,1.3563409708774539 L24.34300326476003,1.2373341472759094 L24.49771969368409,1.1170254451964552 L24.643531954859284,0.9954873341025929 L24.780352216431755,0.8727930240078456 L24.908098062991975,0.749016421376776 L25.026692545218694,0.6242320846065044 L25.13606422623036,0.4985151791155136 L25.236147224615998,0.3719414320668115 L25.282686408792244,0.3083570500796591 L25.326881254119726,0.24458708675272534 L25.3687251050173,0.18064114560792777 L25.408211659954937,0.11652885666878876 L25.445334972402698,0.0522598750101988 L25.480089451726286,-0.01215612069560379 L25.51246986402895,-0.07670942963660898 L25.542471332939705,-0.14139033032193138 L25.570089340347685,-0.20618908204584507 L25.595319727082554,-0.27109592635469115 L25.618158693540884,-0.3361010885164585 L25.638602800258333,-0.4011947789928353 L25.656648968427625,-0.4663671949134695 L25.67229448036222,-0.5316085215522464 L25.685536979905557,-0.596908933805353 L25.696374472785926,-0.662258597670893 L25.704805326916755,-0.7276476717298657 L25.71082827264243,-0.7930663086282399 L25.71444240292948,-0.8585046565599228 L25.715647173503164,-0.9239528607503957 " />
			<path d="M-0.17677669529663675,-1.3977144041454075 L-0.10874956351812837,-1.3738973604979225 L-0.044310314222495206,-1.3489963611400628 L0.016385812794499577,-1.3230713947603507 L0.07319259524651911,-1.296184916873554 L0.1259731806189499,-1.2684016993598792 L0.17460041585859631,-1.239788674423839 L0.2189571536965238,-1.2104147733487098 L0.25893653486608903,-1.1803507604350312 L0.2944422455362743,-1.1496690625232084 L0.3253887493401424,-1.118443594510911 L0.351701493439436,-1.086749581285608 L0.3733170881288961,-1.0546633765012268 L0.3901834595476128,-1.0222622786355127 L0.40225997512951883,-0.9896243447712261 L0.40951754149079944,-0.9568282025497906 L0.41193867451840305,-0.9239528607504266 " />
			<path d="M0.41193867451840305,-0.9239528607504204 L0.40951754149079944,-0.8910775189510504 L0.40225997512951883,-0.8582813767296148 L0.3901834595476126,-0.825643442865328 L0.3733170881288963,-0.7932423449996144 L0.35170149343943646,-0.7611561402152336 L0.32538874934014284,-0.7294621269899306 L0.29444224553627474,-0.698236658977633 L0.2589365348660895,-0.6675549610658102 L0.21895715369652424,-0.6374909481521314 L0.17460041585859654,-0.6081170470770019 L0.1259731806189499,-0.5795040221409617 L0.07319259524651911,-0.5517208046272869 L0.016385812794499355,-0.52483432674049 L-0.04431031422249587,-0.4989093603607778 L-0.10874956351812926,-0.47400836100291793 L-0.17677669529663653,-0.4501913173554335 L-0.24822782623909,-0.4275156067625978 L-0.3229308243126694,-0.40603585699738654 L-0.4813651571121962,-0.36686822050771506 L-0.6505538844613412,-0.3330656136370226 L-0.8288676264277662,-0.3049535739678584 L-1.0145891242001275,-0.28280283580984045 L-1.205929778229179,-0.2668267228802561 L-1.4010468734191797,-0.25717909388004856 L-1.5980613254815967,-0.25395286075042045 L-1.7950757775440136,-0.25717909388004856 L-1.9901928727340144,-0.2668267228802561 L-2.1815335267630656,-0.28280283580984045 L-2.367255024535427,-0.3049535739678584 L-2.545568766501852,-0.3330656136370227 L-2.7147574938509966,-0.36686822050771517 L-2.873191826650524,-0.40603585699738676 L-2.947894824724104,-0.42751560676259803 L-3.019345955666557,-0.4501913173554337 L-3.087373087445064,-0.47400836100291815 L-3.151812336740698,-0.49890936036077815 L-3.2125084637576933,-0.5248343267404905 L-3.269315246209713,-0.5517208046272872 L-3.3220958315821436,-0.579504022140962 L-3.37072306682179,-0.6081170470770021 L-3.415079804659717,-0.6374909481521314 L-3.455059185829283,-0.6675549610658105 L-3.4905648964994684,-0.6982366589776333 L-3.5215114003033365,-0.7294621269899308 L-3.5478241444026297,-0.7611561402152338 L-3.56943973909209,-0.7932423449996145 L-3.5863061105108063,-0.825643442865328 L-3.5983826260927123,-0.8582813767296149 L-3.605640192453993,-0.8910775189510507 L-3.6080613254815965,-0.9239528607504177 " />
			<path d="M-3.6080613254815965,-0.9239528607504206 L-3.606699318504179,-0.948613700121131 L-3.602615143405764,-0.9732411183621976 L-3.5958143351863323,-0.9978017396373223 L-3.5863061105108063,-1.0222622786355129 L-3.5741033552183414,-1.046589585680365 L-3.5592226068590387,-1.0707506916555234 L-3.5416840322817493,-1.0947128526854455 L-3.5215114003033365,-1.1184435945109104 L-3.4987320494964447,-1.1419107564991366 L-3.473376851139422,-1.1650825352288625 L-3.415079804659718,-1.2104147733487096 L-3.3469361776101065,-1.254194649544376 L-3.269315246209713,-1.2961849168735542 L-3.1826376450110763,-1.3361580264394406 L-3.087373087445065,-1.373897360497923 L-2.9840378204031013,-1.4091984063279035 L-2.873191826650525,-1.4418698645034544 L-2.755435790231467,-1.4717346855619815 L-2.631407841309972,-1.4986310294506031 L-2.5017800980873566,-1.5224131425514158 L-2.367255024535428,-1.5429521475329828 L-2.2285616236833703,-1.5601367417477552 L-2.0864514870871593,-1.573873800390765 L-1.941694721889803,-1.5840888811510112 L-1.795075777544015,-1.5907266276207928 L-1.6473891948126524,-1.5937510692768777 L-1.4994353000834872,-1.5931458164078862 L-1.3520158683311734,-1.5889141489315564 L-1.2059297782291807,-1.5810789986205853 L-1.0619686829570514,-1.5696828248333654 L-0.9209127201632354,-1.5547873844230446 L-0.7835262843315686,-1.5364733970717865 L-0.6505538844613417,-1.5148401078638185 L-0.522716109508532,-1.4900047494677244 L-0.4007057234518068,-1.4621019068424528 L-0.2851839111445056,-1.4312827879097654 L-0.1767766952966492,-1.3977144041454117 " />
			<path d="M11.136931803688123,-5.168950570473661 L11.204958935466632,-5.145133526826176 L11.269398184762265,-5.120232527468316 L11.33009431177926,-5.094307561088604 L11.386901094231279,-5.067421083201807 L11.439681679603709,-5.039637865688132 L11.488308914843355,-5.011024840752092 L11.532665652681283,-4.981650939676963 L11.572645033850849,-4.951586926763284 L11.608150744521033,-4.920905228851462 L11.639097248324902,-4.889679760839164 L11.665409992424195,-4.857985747613861 L11.687025587113656,-4.82589954282948 L11.703891958532372,-4.793498444963766 L11.715968474114279,-4.760860511099479 L11.72322604047556,-4.7280643688780435 L11.725647173503162,-4.69518902707868 " />
			<path d="M11.725647173503162,-4.695189027078674 L11.72322604047556,-4.662313685279304 L11.715968474114279,-4.629517543057868 L11.703891958532372,-4.596879609193581 L11.687025587113656,-4.564478511327867 L11.665409992424197,-4.532392306543486 L11.639097248324902,-4.500698293318184 L11.608150744521033,-4.4694728253058855 L11.572645033850849,-4.4387911273940635 L11.532665652681283,-4.408727114480384 L11.488308914843357,-4.379353213405255 L11.439681679603709,-4.3507401884692145 L11.386901094231279,-4.3229569709555395 L11.33009431177926,-4.2960704930687434 L11.269398184762263,-4.2701455266890305 L11.20495893546663,-4.245244527331171 L11.136931803688123,-4.221427483683686 L11.06548067274567,-4.198751773090851 L10.99077767467209,-4.1772720233256395 L10.832343341872564,-4.138104386835968 L10.663154614523418,-4.104301779965276 L10.484840872556994,-4.076189740296112 L10.299119374784631,-4.054039002138094 L10.107778720755581,-4.0380628892085095 L9.91266162556558,-4.028415260208302 L9.715647173503163,-4.025189027078674 L9.518632721440746,-4.028415260208302 L9.323515626250744,-4.0380628892085095 L9.132174972221694,-4.054039002138094 L8.946453474449333,-4.076189740296112 L8.768139732482908,-4.104301779965276 L8.598951005133763,-4.138104386835968 L8.440516672334235,-4.1772720233256395 L8.365813674260655,-4.1987517730908515 L8.294362543318202,-4.221427483683687 L8.226335411539695,-4.245244527331171 L8.161896162244062,-4.270145526689031 L8.101200035227066,-4.2960704930687434 L8.044393252775047,-4.32295697095554 L7.991612667402616,-4.350740188469215 L7.94298543216297,-4.379353213405255 L7.898628694325042,-4.408727114480384 L7.858649313155476,-4.4387911273940635 L7.823143602485291,-4.469472825305886 L7.792197098681423,-4.500698293318184 L7.76588435458213,-4.532392306543486 L7.74426875989267,-4.564478511327867 L7.727402388473953,-4.596879609193581 L7.715325872892047,-4.629517543057868 L7.708068306530766,-4.662313685279304 L7.705647173503163,-4.695189027078671 " />
			<path d="M7.705647173503163,-4.695189027078674 L7.707009180480581,-4.719849866449384 L7.711093355578996,-4.744477284690451 L7.717894163798427,-4.769037905965575 L7.727402388473953,-4.793498444963766 L7.739605143766418,-4.817825752008618 L7.754485892125721,-4.841986857983777 L7.7720244667030105,-4.865949019013699 L7.792197098681423,-4.889679760839163 L7.814976449488315,-4.91314692282739 L7.840331647845337,-4.9363187015571155 L7.898628694325041,-4.981650939676962 L7.966772321374653,-5.025430815872629 L8.044393252775047,-5.067421083201807 L8.131070853973684,-5.107394192767694 L8.226335411539694,-5.145133526826176 L8.329670678581659,-5.180434572656156 L8.440516672334235,-5.213106030831708 L8.558272708753293,-5.2429708518902345 L8.682300657674787,-5.269867195778856 L8.811928400897402,-5.293649308879669 L8.946453474449331,-5.314188313861235 L9.085146875301389,-5.331372908076008 L9.227257011897601,-5.3451099667190185 L9.372013777094956,-5.355325047479265 L9.518632721440744,-5.361962793949045 L9.666319304172108,-5.36498723560513 L9.814273198901272,-5.364381982736139 L9.961692630653586,-5.360150315259809 L10.10777872075558,-5.3523151649488385 L10.251739816027708,-5.340918991161619 L10.392795778821524,-5.326023550751298 L10.530182214653191,-5.3077095634000395 L10.663154614523418,-5.286076274192071 L10.790992389476227,-5.261240915795978 L10.913002775532952,-5.233338073170706 L11.028524587840254,-5.202518954238018 L11.13693180368811,-5.1689505704736645 " />
			<path d="M11.367288856775257,3.2291180211403137 L11.295285329582851,3.261589056316632 L11.217544487067304,3.292555314767324 L11.134348687391007,3.3219043256784717 L11.046000101360905,3.3495294921504177 L10.952819614930823,3.375330478362395 L10.855145663729548,3.399213573996648 L10.753333003847738,3.4210920345984297 L10.647751423348168,3.44088639663568 L10.538784399179224,3.458524766114076 L10.426827704369733,3.4739430796991786 L10.3122879705639,3.4870853373972883 L10.19558121111728,3.4979038059498846 L10.077131310117958,3.5063591922029245 L9.957368482820865,3.512420785821307 L9.836727713087058,3.5160665708301595 L9.715647173503163,3.517283305577833 L9.594566633919268,3.5160665708301595 L9.47392586418546,3.512420785821307 L9.354163036888368,3.5063591922029245 L9.235713135889045,3.4979038059498846 L9.119006376442425,3.487085337397288 L9.004466642636592,3.4739430796991786 L8.892509947827099,3.458524766114076 L8.783542923658157,3.44088639663568 L8.677961343158588,3.4210920345984293 L8.576148683276775,3.399213573996648 L8.478474732075503,3.375330478362395 L8.385294245645419,3.3495294921504173 L8.296945659615318,3.3219043256784713 L8.213749859939021,3.2925553147673234 L8.136009017423472,3.261589056316631 L8.064005490231073,3.229118021140316 " />
			<path d="M10.241661675963964,2.200633070116402 L10.260194088453346,2.2023398405776273 " />
			<path d="M14.033324651291105,2.798258118627379 L14.069708527525213,2.8092871246127284 L14.109166822609735,2.8190713531695293 L14.195753718136409,2.834539819524366 L14.289742823409982,2.844066388389952 L14.387505876420873,2.847283305569713 " />
			<path d="M14.387505876420875,2.84728330556982 L15.985711646816899,2.84728330556982 " />
			<path d="M15.985711646816899,2.8472833055697158 L16.051204561558897,2.8458473456667503 L16.11556893390691,2.841564209727908 L16.17769566796646,2.834507702690795 L16.236514225749378,2.824799418889339 " />
			<path d="M16.236514225749215,2.8247994188892407 L16.598433768214115,2.752205289209751 L16.953087086723194,2.675730204041222 L17.300099770359665,2.5954548988660373 L17.639105474498407,2.511464121095365 L17.96974630755951,2.4238465406005014 L18.291673208837857,2.332694656103233 L18.604546317009845,2.238104697524048 L18.90803532892828,2.1401765243912876 L19.20181984832656,2.039013520418476 L19.485589724064113,1.934722484361147 L19.75904537755592,1.8274135172683659 L20.02189811904051,1.717199906247997 L20.273870452352526,1.6041980048684161 L20.51469636787808,1.4885271103229258 L20.74412162338367,1.370309337486566 L20.96190401242211,1.2496694899982823 " />
			<path d="M21.029355672463883,0.6333333735554836 L21.029355672463883,1.1660686303541588 " />
			<path d="M21.029355672463176,0.15050135359741823 L21.029355672463176,0.6333333735554838 " />
			<path d="M21.029355672463563,0.6333333735554828 L21.026948035799663,0.6169971835005561 L21.01974831266518,0.6008183198861283 L21.007825840329666,0.5849525940130729 L20.991295438719206,0.569552801494635 L20.97031630463774,0.5547672507511505 L20.945090478614837,0.5407383347188832 L20.915860899144935,0.5276011595282094 L20.88290906305684,0.5154822433577263 " />
			<path d="M7.756271717014673,-3.889118685274391 L7.586349275779111,-3.9441830008602765 " />
			<path d="M20.882909063056836,0.515482243357725 L20.83866909865665,0.5023858843441816 L20.790097749032544,0.49112321236730977 L20.737875169678116,0.48185194114675883 L20.682732645075117,0.4747018983711165 " />
			<path d="M6.7342885538886526,-4.412051686778509 L6.764415359066597,-4.378920720193968 L6.797854721699864,-4.346144743323462 L6.83456910837293,-4.313760544977006 L6.874517309678018,-4.281804474219808 L6.917654486469854,-4.250312399572909 L6.963932220194572,-4.219319668753198 L7.013298567236246,-4.188861068998005 L7.065698117220091,-4.158970788018778 L7.17935822770847,-4.101028706080334 L7.304402391808468,-4.045753494160526 L7.4402693527002315,-3.993393253319344 L7.586349275778992,-3.9441830008602548 " />
			<path d="M19.771664497074937,0.3768252357617241 L20.68273264507485,0.47470189837138654 " />
			<path d="M6.019132768011568,-5.248762185384825 L6.734288553887977,-4.412051686778446 " />
			<path d="M16.929355672487922,-0.9239528607504204 L16.932528599935274,-0.8701962719039295 L16.942042471317045,-0.8165228858653542 L16.957882561353408,-0.7630157766638428 L16.98002435323634,-0.709757760970329 L17.008433576575992,-0.6568312699164155 L17.043066260443343,-0.6043182215099836 L17.083868801427066,-0.5522998938450007 L17.130778046599257,-0.5008567993017659 L17.183721391261596,-0.4500685599323051 L17.242616891320708,-0.4000137842237881 L17.307373390118705,-0.35076994543071083 L17.37789065952269,-0.30241326166415594 L17.45405955505482,-0.2550185779237263 L17.535762184822758,-0.20865925025473808 L17.622872091989183,-0.16340703220997288 L17.715254450497813,-0.11933196379171707 L17.812766273753056,-0.07650226304598462 L17.915256635930298,-0.03498422047670635 L18.022566905574305,0.005157903556689436 L18.13453099112413,0.04386197829949989 L18.250975597984574,0.08106809876583454 L18.37172049674627,0.11671867845772388 L18.496578802139265,0.1507585384957446 L18.62535726228833,0.18313499302320446 L18.757856557822326,0.2137979307517044 L18.893871610374642,0.2426998925218613 L19.03319189999723,0.26979614475914726 L19.175601790996968,0.2950447487111505 L19.32088086568998,0.3184066253590967 L19.468804265557427,0.33984561590316287 L19.619143039274658,0.3593285377279629 L19.77166449707506,0.3768252357615878 " />
			<path d="M6.01913276801472,-5.248762185385121 L5.9979151920124965,-5.268690345774701 L5.969298462683282,-5.287562584417521 L5.933743237223072,-5.305075105850609 L5.891821865122791,-5.320946002630056 " />
			<path d="M17.782909063080588,-1.041803990948178 L17.727205324733532,-1.057820782663861 L17.665054040900312,-1.0709397381418126 L17.597800599183426,-1.080876871614257 L17.52690083349538,-1.0874170741509586 L17.453889509651024,-1.0904187701179489 L17.380347102322535,-1.089816981862453 L17.307865582535683,-1.0856247362828442 L17.23801395630477,-1.0779327828356347 L17.172304300390703,-1.0669076290837989 L17.112159030405493,-1.0527879363108763 L17.058880109809834,-1.0358793532249233 L17.01362086633604,-1.0165478995870205 L16.977361025925592,-0.9952120429888006 L16.950885504621212,-0.9723336402928306 L16.94150460746805,-0.9604697341098986 L16.934767417504926,-0.9484079398263138 L16.93071044414797,-0.9362136213503648 L16.929355672487315,-0.9239528607504217 " />
			<path d="M5.891821865122795,-5.3209460026300555 L5.840024517166571,-5.335987180851151 L5.782531103093726,-5.348519831426773 L5.720426891271938,-5.358307383099982 L5.65488418530635,-5.365165082183783 L5.587140195174199,-5.368963480044611 L5.518473683161153,-5.369630876625813 L5.450180825439877,-5.367154673886205 L5.383550744937207,-5.3615816136056695 " />
			<path d="M17.929355672487315,-0.9239528607504202 L17.926948035823415,-0.9402890508053469 L17.91974831268893,-0.9564679144197749 L17.907825840353418,-0.9723336402928305 L17.891295438742958,-0.9877334328112685 L17.870316304661493,-1.002518983554753 L17.84509047863859,-1.0165478995870205 L17.815860899168683,-1.0296850747776944 L17.78290906308059,-1.0418039909481775 " />
			<path d="M5.383550744936126,-5.361581613606773 L4.99375182236782,-5.317176231818975 L4.60804094674416,-5.268967355450355 L4.226752052650595,-5.216996722009922 L3.850215246280224,-5.161309325800481 L3.4787565196397123,-5.1019533789641915 L3.1126974683171706,-5.038980269742226 L2.7523550130563024,-4.972444517984691 L2.398041125377805,-4.902403727949295 L2.050062557485666,-4.828918538429662 L1.7087205766921691,-4.752052570256444 L1.3743107045914744,-4.671872371216697 L1.0471224612076764,-4.588447358439208 L0.7274391143388286,-4.501849758295641 L0.41553743431384405,-4.4121545438695495 L0.11168745437471905,-4.319439370047373 L-0.18384776310850093,-4.223784506287645 L-0.4708123543876841,-4.125272767126571 L-0.7489578758542148,-4.023989440480197 L-1.0180435191324904,-3.920022213805202 L-1.2778363195631908,-3.8134610981822523 L-1.5281113578956589,-3.704398350387654 L-1.7686519550148976,-3.592928393020755 L-1.9992498595345491,-3.4791477327562563 L-2.2197054280934534,-3.36315487679221 L-2.429827798199643,-3.245050247566044 L-2.629435053472246,-3.124936095812422 L-2.8183543811381444,-3.0029164120382412 L-2.9964222216470127,-2.8790968364914034 L-3.163484410275334,-2.75358456770128 L-3.242842810571025,-2.6902275761597574 L-3.3193963105966358,-2.6264882696700917 L-3.3931283401396524,-2.562380444777882 L-3.4640229397024935,-2.497917977795538 L-3.5320647639569813,-2.433114821798709 L-3.5972390850658496,-2.367985003606143 " />
			<path d="M17.929355672487922,-0.9239528607504204 L17.931886908228968,-0.8822032706791253 L17.93947648180411,-0.8405218599978705 L17.952111999019877,-0.7989766967559808 L17.969772825377696,-0.7576356265031757 L17.992430119771186,-0.716566161494034 L18.02004688158527,-0.6758353704367468 L18.052578011120236,-0.6355097689662079 L18.089970383242036,-0.5956552110203022 L18.13216293413857,-0.5563367812967817 L18.179086761040267,-0.5176186889663549 L18.230665234742116,-0.4795641628155584 L18.286814124743408,-0.44223534799065123 L18.347441736800796,-0.405693204511153 L18.412449062670063,-0.3699974077187602 L18.48172994179207,-0.3352062508242123 L18.55517123465881,-0.3013765497112535 L18.632653007576494,-0.26856355015315236 L18.714048728523906,-0.23682083759329708 L18.799225473786187,-0.20620024963720351 L18.88804414502662,-0.176751791398837 L18.9803596964419,-0.14852355383949523 L19.076021371629974,-0.12156163523260843 L19.174872949783552,-0.09591006588270867 L19.276753000807357,-0.07161073622150738 L19.488928344466757,-0.027225251477832946 L19.711161992159926,0.01130500156131986 L19.94200285719529,0.043728437512781104 L20.179943651587422,0.06983334578774958 " />
			<path d="M-3.5972390850625824,-2.367985003605741 L-3.607925274030681,-2.3553734697612763 L-3.615605810867865,-2.342521055108141 L-3.6202332098346144,-2.3295072210729684 L-3.621778861542467,-2.3164124270749693 " />
			<path d="M-3.621778861542467,-2.316412427074968 L-3.6201464729431008,-2.30295581405044 L-3.6152599659151585,-2.289587066712661 L-3.607151247172094,-2.2763934770245995 L-3.5958732630340324,-2.2634611932478217 L-3.5814996537118984,-2.2508746574327305 L-3.5641242724696474,-2.238716054049607 L-3.5208408676450498,-2.215996893036884 L-3.4671516885540243,-2.1958961255671796 L-3.4044567118158113,-2.178937890861149 L-3.3343907454692636,-2.165564384767081 L-3.2587808004009395,-2.1561243292465684 " />
			<path d="M22.690075147406368,0.3082186077467779 L20.179943651587237,0.06983334578797529 " />
			<path d="M-3.2587808004000447,-2.15612432924762 L-0.7486493045809102,-1.9177390672888173 " />
			<path d="M22.906626599144893,0.35065557537731473 L22.85901390880586,0.33668178467704296 L22.806476344505782,0.32483004285685646 L22.74985962857642,0.31529113308040335 L22.690075147406734,0.3082186077463541 " />
			<path d="M0.5939696961967011,-1.65462986797652 L0.4504965889225634,-1.6995107582475908 L0.29877101609443923,-1.7412673703182677 L0.13940419307246876,-1.7797314907344224 L-0.02696188256632448,-1.8147481696034655 L-0.19965701726826768,-1.8461763447986446 L-0.3779855213286909,-1.8738894102174917 L-0.5612290114269645,-1.897775725805236 L-0.7486493045810748,-1.9177390672885883 " />
			<path d="M23.028533432071736,0.5200792821058454 L23.039219621039834,0.507467748261381 L23.04690015787702,0.49461533360824533 L23.051527556843766,0.481601499573073 L23.05307320855162,0.46850670557507346 " />
			<path d="M23.05307320855162,0.46850670557507273 L23.05066557188772,0.4521705155201459 L23.043465848753236,0.435991651905718 L23.031543376417723,0.42012592603266236 L23.015012974807263,0.40472613351422443 L22.9940338407258,0.38994058277073973 L22.968808014702894,0.37591166673847237 L22.93957843523299,0.36277449154779845 L22.906626599144897,0.3506555753773153 " />
			<path d="M1.5019386745179824,-1.8183800517504984 L1.5019386745179821,-0.9239528607504237 " />
			<path d="M1.5019386745184033,-0.9239528607504203 L1.498204588754438,-0.9746561242220855 L1.4870113272022136,-1.0252372390909659 L1.4683858554092244,-1.0755743510209603 L1.4423730437684186,-1.125546193500419 L1.4090355594214903,-1.1750323799837923 L1.3684537152882519,-1.223913693913364 L1.3207252765857693,-1.27207237592238 L1.2659652253033937,-1.319392407527679 L1.2043054832010789,-1.365759790628378 L1.1358945939983052,-1.411062822137284 L1.0608973655192484,-1.4551923630834156 L0.9794944726562957,-1.498042101537342 L0.8918820221084052,-1.5395088087259339 L0.7982710799428911,-1.5794925877195198 L0.6988871631187803,-1.6178971140923384 L0.5939696961967145,-1.654629867976515 " />
			<path d="M14.047743602071916,3.513675892105745 L14.437542524640094,3.4692705103179433 L14.823253400263628,3.421061633949323 L15.20454229435707,3.3690910005088908 L15.581079100727328,3.3134036042994515 L15.952537827367728,3.2540476574631656 L16.318596878690155,3.1910745482412066 L16.678939333950904,3.124538796483682 L17.033253221629284,3.0544980064482976 L17.38123178952131,2.9810128169286774 L17.722573770314707,2.9041468487554734 L18.056983642415307,2.8239666497157434 L18.384171885799,2.7405416369382736 L18.70385523266775,2.653944036794729 L19.01575691269264,2.56424882236866 L19.319606892631683,2.471533648546508 L19.615142110114824,2.375878784786804 L19.902106701393933,2.277367045625757 L20.18025222286039,2.1760837189794104 L20.4493378661386,2.0721164923044464 L20.70913066656923,1.965555376681531 L20.95940570490164,1.8564926288869659 L21.199946302020834,1.7450226715200996 L21.430544206540446,1.631242011255634 L21.650999775099304,1.5152491552916256 L21.861122145205456,1.3971445260654982 L22.06072940047803,1.2770303743119156 L22.24964872814391,1.1550106905377735 L22.42771656865277,1.0311911149909734 L22.594778757281084,0.9056788462008876 L22.674137157576773,0.8423218546593854 L22.750690657602384,0.7785825481697393 L22.8244226871454,0.7144747232775526 L22.89531728670825,0.6500122562952289 L22.96335911096274,0.5852091002984197 L23.028533432071633,0.520079282105856 " />
			<path d="M1.5019386745190095,-0.9239528607504206 L1.504346311182911,-0.9076166706954939 L1.5115460343173943,-0.8914378070810659 L1.5234685066529052,-0.8755720812080102 L1.539998908263366,-0.8601722886895723 L1.560978042344832,-0.8453867379460877 L1.5862038683677369,-0.8313578219138202 L1.615433447837641,-0.8182206467231463 L1.6483852839257358,-0.8061017305526627 L1.6847420324371867,-0.7951177851899645 L1.7241535580092084,-0.7853745920333297 L1.8105969583364647,-0.7699729386652061 L1.9043935135109453,-0.7604886473498822 L2.0019386745190095,-0.7572861940837539 L2.0994838355270735,-0.7604886473498822 L2.1932803907015543,-0.7699729386652061 L2.2797237910288106,-0.7853745920333296 L2.3191353166008324,-0.7951177851899643 L2.3554920651122835,-0.8061017305526627 L2.388443901200378,-0.8182206467231463 L2.417673480670282,-0.8313578219138202 L2.442899306693187,-0.8453867379460875 L2.463878440774653,-0.8601722886895722 L2.480408842385114,-0.8755720812080101 L2.4923313147206247,-0.8914378070810658 L2.499531037855108,-0.9076166706954938 L2.5019386745190095,-0.9239528607504198 " />
			<path d="M13.412161578993476,3.400856463884106 L13.428331664822993,3.41670635121038 L13.449190407454536,3.4319355442504493 L13.474527347011673,3.4463903839778824 L13.504086839649403,3.4599250244116164 L13.53757063694126,3.472402904168085 L13.574640895136787,3.483698124333915 L13.65801226032167,3.5022978039373864 L13.750844631723917,3.514975290915807 L13.849400831590527,3.521220224264885 L13.949713256465957,3.5207812000225243 L14.04774360207195,3.5136758921057747 " />
			<path d="M2.501938674518403,-0.9239528607504202 L2.5007038311728405,-0.9574925397317335 L2.49700004495961,-0.9910120156645579 L2.4908295469010326,-1.0244910976699653 L2.48219605387441,-1.05790961920082 L2.471104766373114,-1.0912474501893497 L2.457562365374004,-1.1244845091727484 L2.441577008313062,-1.157600775389499 L2.4231583241716477,-1.1905763008391292 L2.40231740767637,-1.2233912222981425 L2.379066812616033,-1.256025773284881 L2.325394051020459,-1.320675252998186 L2.2622693417687874,-1.3843689937197885 L2.189844757814678,-1.446953551649377 L2.10829477632452,-1.5082781551051396 L2.017815858346658,-1.5681950677459513 L1.9186259755195167,-1.6265599444811576 L1.810964084958837,-1.683232179210544 L1.6950895535890464,-1.7380752435567466 L1.5712815333056227,-1.79095701577407 L1.4398382884737324,-1.8417500990413467 L1.3010764773832584,-1.890332128372032 " />
			<path d="M13.412161578994757,3.4008564638839838 L13.07674165906425,3.008425368463795 " />
			<path d="M1.3010764773832486,-1.8903321283720356 L1.124462315025244,-1.9458174433684121 L0.9383087693013161,-1.9977222722831924 L0.7432680990242706,-2.0458647470678515 L0.5400237023832113,-2.0900761824936107 L0.32928772240150317,-2.130201667203445 L0.1117985516764124,-2.1661006065021624 L-0.11168175485647813,-2.1976472149826844 L-0.34037015006871085,-2.224730957262426 " />
			<path d="M-0.3403701500686136,-2.2247309572625644 L-1.2514382980668308,-2.322607619872045 " />
			<path d="M-1.5980613254561402,-3.672689944507174 L-1.5980613254561404,-2.481239095056087 " />
			<path d="M-1.5980613254515772,-2.4812390950560874 L-1.5965141548630521,-2.468137878606697 L-1.5918822180440217,-2.4551177414243743 L-1.58419418058015,-2.442259261002368 L-1.5734976212932397,-2.4296420143915864 L-1.5598587377910156,-2.417344085723506 L-1.5433619367911589,-2.405441582972286 L-1.5022200110632267,-2.383114595426746 L-1.4510887256216773,-2.3632128951715585 L-1.391231863285188,-2.346228381180665 L-1.3241288719797706,-2.3325808499989775 L-1.251438298068212,-2.3226076198706167 " />
			<path d="M9.263274141591948,2.2453664752098597 L9.287724100530776,2.3136233789751968 L9.317195450800826,2.381659549265586 L9.351670415643142,2.449433947493093 L9.391128200179498,2.5169056929674998 L9.435545003955612,2.5840340875550356 L9.484894035297296,2.6507786402269975 L9.539145527470863,2.717099091483443 L9.598266756638058,2.782955437637229 L9.662222061594678,2.848307954943749 L9.730972865280975,2.9131172235618115 L9.80447769805087,2.977344151331206 L9.882692222685932,3.040949997352618 L9.96556926113906,3.103896395355667 L10.053058822991687,3.166145376840972 L10.145108135607407,3.227659393982288 L10.241661675963773,3.2884013422748946 " />
			<path d="M10.241661675963964,3.288401342274863 L10.241661675963964,1.4027832591107359 " />
			<path d="M10.241661675963773,1.4027832591107703 L10.26019408845336,1.414042267093319 " />
			<path d="M9.26327414159172,-1.3190732831425716 L9.26327414159172,2.2453664752098694 " />
			<path d="M9.67217853786359,-1.0149411985730563 L9.710633424475956,-0.9425538995389595 L9.751447565932642,-0.8756248962495619 L9.794369149509956,-0.8145129864046508 L9.839133602954465,-0.7595741014043844 L9.885678230678847,-0.710757776286972 L9.934071472654743,-0.6678670379634305 L9.98433520145018,-0.6308376760039744 L10.03633623820119,-0.5996871593197555 " />
			<path d="M-1.5980613254575553,-3.013974351855004 L-1.5980613254575553,-3.6726899445065273 " />
			<path d="M-1.5980613254575555,-2.481239095056088 L-1.5980613254575555,-3.013974351854999 " />
			<path d="M9.105682333894716,-0.26809761758069506 L9.105682333894716,2.1914280624079607 " />
			<path d="M9.105682333894109,2.191428062408107 L9.14037474052524,2.206365020497319 L9.17835164852466,2.220386163220179 L9.263274141591392,2.245366475210012 " />
			<path d="M6.825612013112202,1.7526283245831094 L9.10568233389513,2.1914280624077227 " />
			<path d="M6.825612013112201,1.7526283245831058 L6.825612013112201,0.1707021202442549 " />
			<path d="M3.1947801212580016,-4.672705140390255 L2.83286057879298,-4.600111010710753 L2.4782072602837752,-4.523635925542207 L2.1311945766471823,-4.443360620367003 L1.792188872508329,-4.359369842596312 L1.4615480394471128,-4.271752262101424 L1.1396211381686605,-4.180600377604129 L0.8267480299965779,-4.08601041902492 L0.523259018078047,-3.9880822458921292 L0.2294744986796733,-3.8869192419192853 L-0.05429537705795617,-3.7826282058619247 L-0.32775103054983923,-3.6753192387691076 L-0.5906037720345019,-3.5651056277487014 L-0.8425761053465752,-3.4521037263690837 L-1.0834020208721853,-3.336432831823553 L-1.3128272763778241,-3.2182150589871514 L-1.5306096654162715,-3.097575211498844 " />
			<path d="M6.215647173502875,1.4004649602387695 L6.186548295064434,1.4252587932681844 L6.165524403220205,1.4509435230695265 L6.1528139314089065,1.4772278573124082 L6.149625010044788,1.490501895747323 L6.148561029986913,1.50381370351022 " />
			<path d="M6.148561029986913,1.5038137035102221 L6.151738724381492,1.5268026956832945 L6.161244880254119,1.5495968825455257 L6.176998943849515,1.5720031095373932 L6.198867417568802,1.5938315096137883 L6.226664991208364,1.614897112149203 L6.260156112251035,1.635021410351384 L6.299056981903202,1.654033873901419 L6.343037959963695,1.6717733940023751 L6.39172635814598,1.6880896485913524 L6.4447095981834295,1.7028443761463563 L6.501538707956382,1.7159125472939336 L6.561732126015304,1.7271834242895427 L6.624779782261113,1.7365614993927811 L6.69014742020356,1.7439673041858157 L6.757281124171506,1.7493380829769714 L6.825612013112187,1.7526283245831564 " />
			<path d="M3.4455827001894295,-4.695189027068904 L3.380089785448508,-4.693753067165767 L3.315725413101603,-4.6894699312268475 L3.2535986790431406,-4.68241342418975 L3.1947801212612355,-4.6727051403883975 " />
			<path d="M5.043788470586161,-4.6951890270706595 L3.445582700189428,-4.69518902707066 " />
			<path d="M5.397341861184386,-4.64637349059976 L5.360985112672457,-4.657357435962588 L5.321573587099884,-4.6671006291193216 L5.235130186771371,-4.6825022824875315 L5.141333631595535,-4.691986573802781 L5.043788470586167,-4.695189027068668 " />
			<path d="M6.215647173503045,0.5228654845886167 L6.215647173503045,1.4004649602387962 " />
			<path d="M6.2156471735030445,0.5228654845886123 L6.2156471735030445,0.3161679980456107 " />
			<path d="M5.519682896142575,-4.579648017940879 L5.498232767815614,-4.5980288594747325 L5.47041895415424,-4.6154363859257534 L5.436630938224192,-4.631626835800045 L5.3973418611843895,-4.646373490599758 " />
			<path d="M6.825612013112189,0.17070212024425477 L6.757281124171507,0.17399236185044006 L6.6901474202035605,0.17936314064159553 L6.624779782261114,0.18676894543463002 L6.561732126015304,0.1961470205378686 L6.501538707956382,0.2074178975334778 L6.4447095981834295,0.22048606868105508 L6.39172635814598,0.23524079623605904 L6.343037959963695,0.25155705082503615 L6.299056981903202,0.269296570925992 L6.260156112251035,0.28830903447602707 L6.226664991208364,0.3084333326782079 L6.198867417568802,0.32949893521362295 L6.176998943849515,0.3513273352900181 L6.161244880254119,0.3737335622818855 L6.151738724381492,0.39652774914411676 L6.148561029986913,0.41951674131718686 " />
			<path d="M6.148561029986913,0.41951674131718913 L6.149625010044788,0.43282854908008805 L6.1528139314089065,0.44610258751500304 L6.165524403220205,0.47238692175788477 L6.186548295064434,0.49807165155922706 L6.215647173502874,0.5228654845886416 " />
			<path d="M5.813312883962011,-4.275958635273843 L5.51968289613357,-4.579648017939915 " />
			<path d="M6.899478986190986,-3.7019229924025625 L6.718217298716054,-3.762724303543739 L6.548746868122066,-3.8271937342229583 L6.468643590585476,-3.860725278280834 L6.391734355336661,-3.895077675298434 L6.318094817158078,-3.9302171331945503 L6.247797414466561,-3.966109085664704 L6.180911298056428,-4.002718226183647 L6.117502263076598,-4.040008542736008 L6.057632684308615,-4.077943353240925 L6.0013614548092455,-4.116485341635807 L5.948743927978024,-4.155596594583742 L5.899831863106703,-4.1952386387684415 L5.854673374464205,-4.235372478740017 L5.813312883967143,-4.275958635274384 " />
			<path d="M9.105682333894713,-0.2680976175805516 L6.825612013111785,0.17070212024406123 " />
			<path d="M9.171100258552965,-0.2945389038140478 L9.171100258552965,-3.2619479885941605 " />
			<path d="M8.128782067883517,-1.3109216329503601 L8.232332622322648,-1.252712823905459 L8.331051674154072,-1.1935786495559446 L8.424864855250942,-1.1335636575113917 L8.513701493231164,-1.0727130589286928 L8.597494664697093,-1.011072694453091 L8.676181245650994,-0.9486889996849964 L8.749701959048322,-0.8856089701986064 L8.818001419452951,-0.8218801261386883 L8.881028174760756,-0.757550476422166 L8.938734744960065,-0.6926684825715188 L8.991077657899833,-0.6272830222072182 L9.038017482038565,-0.5614433522266858 L9.07951885614932,-0.4951990716975522 L9.115550515958418,-0.42860008449313636 L9.14608531769779,-0.36169656169830955 L9.17110025855321,-0.29453890381408 " />
			<path d="M8.128782067883458,-1.3109216329503486 L8.128782067883458,-3.196539716114475 " />
			<path d="M7.049164935828123,-3.653416424878876 L7.201434993224078,-3.6011370769564106 L7.349004077461761,-3.547380725673361 L7.491743307402746,-3.49219431975064 L7.6295280201167825,-3.4356260568636534 L7.762237879757607,-3.3777253415483024 L7.889756982659619,-3.3185427420529767 L8.011973958563663,-3.2581299461741957 L8.128782067883483,-3.1965397161145046 " />
			<path d="M9.171100258552926,-0.2945389038140601 L9.105682333894114,-0.2680976175806973 " />
			<path d="M22.450640302672884,-1.397714404145407 L22.51866743445139,-1.373897360497922 L22.583106683747026,-1.3489963611400624 L22.64380281076402,-1.3230713947603503 L22.70060959321604,-1.2961849168735535 L22.75339017858847,-1.2684016993598788 L22.802017413828118,-1.2397886744238387 L22.846374151666044,-1.2104147733487094 L22.88635353283561,-1.1803507604350307 L22.921859243505796,-1.149669062523208 L22.952805747309664,-1.1184435945109106 L22.979118491408958,-1.0867495812856076 L23.000734086098415,-1.0546633765012263 L23.017600457517133,-1.0222622786355122 L23.02967697309904,-0.9896243447712256 L23.03693453946032,-0.9568282025497902 L23.039355672487922,-0.9239528607504262 " />
			<path d="M23.039355672487922,-0.9239528607504199 L23.03693453946032,-0.8910775189510499 L23.02967697309904,-0.8582813767296144 L23.017600457517133,-0.8256434428653275 L23.00073408609842,-0.793242344999614 L22.979118491408958,-0.7611561402152331 L22.952805747309664,-0.7294621269899302 L22.921859243505796,-0.6982366589776325 L22.88635353283561,-0.6675549610658098 L22.846374151666044,-0.6374909481521309 L22.802017413828118,-0.6081170470770014 L22.75339017858847,-0.5795040221409613 L22.70060959321604,-0.5517208046272865 L22.64380281076402,-0.5248343267404896 L22.583106683747026,-0.4989093603607774 L22.51866743445139,-0.4740083610029175 L22.450640302672884,-0.45019131735543305 L22.37918917173043,-0.42751560676259737 L22.30448617365685,-0.4060358569973861 L22.146051840857325,-0.3668682205077146 L21.97686311350818,-0.33306561363702214 L21.798549371541753,-0.30495357396785794 L21.612827873769394,-0.28280283580984 L21.421487219740342,-0.26682672288025566 L21.226370124550343,-0.2571790938800481 L21.029355672487924,-0.25395286075042 L20.83234122042551,-0.2571790938800481 L20.637224125235505,-0.26682672288025566 L20.445883471206454,-0.28280283580984 L20.260161973434094,-0.30495357396785794 L20.081848231467667,-0.33306561363702225 L19.912659504118523,-0.3668682205077147 L19.754225171318996,-0.4060358569973863 L19.679522173245417,-0.4275156067625976 L19.608071042302964,-0.4501913173554333 L19.540043910524457,-0.4740083610029177 L19.47560466122882,-0.4989093603607777 L19.41490853421183,-0.52483432674049 L19.358101751759808,-0.5517208046272868 L19.305321166387376,-0.5795040221409615 L19.25669393114773,-0.6081170470770016 L19.212337193309803,-0.6374909481521309 L19.172357812140238,-0.66755496106581 L19.13685210147005,-0.6982366589776329 L19.105905597666183,-0.7294621269899304 L19.07959285356689,-0.7611561402152334 L19.05797725887743,-0.7932423449996141 L19.041110887458714,-0.8256434428653275 L19.029034371876808,-0.8582813767296145 L19.02177680551553,-0.8910775189510503 L19.019355672487926,-0.9239528607504173 " />
			<path d="M19.019355672487926,-0.9239528607504202 L19.020717679465342,-0.9486137001211306 L19.024801854563755,-0.9732411183621972 L19.03160266278319,-0.9978017396373219 L19.041110887458714,-1.0222622786355124 L19.053313642751178,-1.0465895856803646 L19.06819439111048,-1.070750691655523 L19.08573296568777,-1.094712852685445 L19.105905597666183,-1.11844359451091 L19.128684948473076,-1.1419107564991362 L19.1540401468301,-1.165082535228862 L19.212337193309803,-1.2104147733487092 L19.280480820359415,-1.2541946495443757 L19.358101751759808,-1.2961849168735537 L19.444779352958445,-1.3361580264394401 L19.540043910524457,-1.3738973604979225 L19.64337917756642,-1.409198406327903 L19.754225171318996,-1.441869864503454 L19.871981207738052,-1.471734685561981 L19.996009156659547,-1.4986310294506027 L20.125636899882164,-1.5224131425514154 L20.26016197343409,-1.5429521475329824 L20.39885537428615,-1.5601367417477547 L20.540965510882362,-1.5738738003907646 L20.68572227607972,-1.5840888811510108 L20.832341220425505,-1.5907266276207923 L20.98002780315687,-1.5937510692768773 L21.12798169788603,-1.5931458164078858 L21.275401129638347,-1.588914148931556 L21.42148721974034,-1.5810789986205849 L21.565448315012468,-1.569682824833365 L21.706504277806285,-1.5547873844230442 L21.84389071363795,-1.536473397071786 L21.97686311350818,-1.514840107863818 L22.10470088846099,-1.490004749467724 L22.226711274517715,-1.4621019068424523 L22.342233086825015,-1.431282787909765 L22.45064030267287,-1.3977144041454113 " />
			<path d="M21.029355672463563,1.1660686303541614 L21.028277540167114,1.1770077036809892 L21.025047792754666,1.187899601934828 L21.012198384938138,1.2093543927174994 L20.9910288638268,1.230063304070682 L20.96190401242243,1.2496694899983216 " />
			<path d="M14.665394641808998,-2.5738686835190308 L14.730800064204448,-2.5541086770434913 L14.801700999596825,-2.53658077122184 L14.877414633219901,-2.521453769368868 L14.957211801392607,-2.5088733527816793 L15.040324013763867,-2.4989606777491646 L15.125950854294793,-2.4918112087507054 L15.213267689702676,-2.487493799081055 L15.301433611130301,-2.4860500277554674 " />
			<path d="M15.301433611130305,-2.4860500277556135 L21.029355672487924,-2.486050027755613 " />
			<path d="M24.343064171472516,-2.0285223604119507 L24.17647669501802,-2.0813905145565688 L24.00230752836501,-2.1314703000136026 L23.82097626029136,-2.1786410701934154 L23.632919733704608,-2.2227891865789715 L23.438590993249107,-2.2638082924909817 L23.2384581938818,-2.3015995693104534 L23.03300347304593,-2.3360719745414036 L22.822721789159694,-2.367142461140205 L22.608119729218078,-2.394736177583188 L22.389714288380397,-2.418786648190517 L22.16803162448369,-2.4392359332719273 L21.943605790482387,-2.456034768708511 L21.716977447867983,-2.4691426846342983 L21.488692564168137,-2.478528102931705 L21.259301097663077,-2.484168413305987 L21.029355672487966,-2.4860500277554207 " />
			<path d="M-1.598061325452285,-3.0139743518549986 L-1.5969831931555447,-3.0249134251816487 L-1.593753445742877,-3.0358053234353055 L-1.5809040379261177,-3.0572601142176072 L-1.559734516814825,-3.077969025570428 L-1.5306096654107664,-3.0975752114977304 " />
			<path d="M6.899478986191075,-3.701922992402594 L7.049164935828077,-3.653416424878891 " />
			<path d="M8.128782067883371,-3.196539716114597 L7.844317398944802,-3.1723627896372375 L7.563144011899242,-3.144231375293764 L7.285756432559369,-3.1121949504215807 L7.012642528285413,-3.0763098604636627 L6.74428264992739,-3.0366392198685763 L6.4811487869873385,-2.9932528010852235 L6.223703737487449,-2.9462269118475404 L5.972400294004093,-2.895644260964982 L5.727680447299363,-2.841593812854837 L5.489974608950774,-2.784170631072226 L5.259700854346349,-2.723475711112979 L5.037264187376513,-2.659615802783449 L4.8230558281160425,-2.5927032224496935 L4.617452524748904,-2.5228556554962243 L4.420815890946141,-2.450195949341764 L4.233491769862251,-2.374851897376056 L4.055809625868627,-2.2969560141977303 L3.888081965093898,-2.2166453025485424 L3.730603785790307,-2.1340610123538974 L3.5836520594928185,-2.049348392293456 L3.447485243883495,-1.9626564343387594 L3.322342828217911,-1.8741376117071753 L3.263975319723328,-1.8292416600444534 L3.2084449121131033,-1.7839476106930592 L3.155776024696232,-1.738275381558052 L3.1059918184378787,-1.6922450568477725 L3.0591141857744244,-1.6458768782418838 L3.01516374098634,-1.599191235990157 L2.974159811133121,-1.5522086599459244 L2.9361204275542834,-1.5049498105381498 L2.901062317940145,-1.4574354696860787 L2.8690008989758757,-1.4096865316604543 L2.839950269562065,-1.361723993895331 L2.813923204614774,-1.3135689477545258 L2.7909311494478164,-1.2652425692567668 L2.7709842147397152,-1.2167661097636076 L2.754091172087567,-1.1681608866342073 L2.740259450149761,-1.119448273851099 L2.7294951313792533,-1.0706496926210567 L2.721802949348831,-1.021786601955189 L2.7171862866695324,-0.9728804892324059 L2.7156471735031626,-0.9239528607504428 " />
			<path d="M2.715647173503166,0.6381443062547717 L-1.59806132547806,0.6381443062547714 " />
			<path d="M14.401938674518306,-2.785881673292801 L14.40302215556268,-2.7711696317565213 L14.406269988495067,-2.756493032816925 L14.419222217504018,-2.7273874210142974 L14.440670624499395,-2.698845140837322 L14.47040864959694,-2.6711410700469016 L14.508149899358505,-2.6445420139893336 L14.553530904917421,-2.6193041361149745 L14.606114622382375,-2.595670490984183 L14.665394641808993,-2.573868683519032 " />
			<path d="M14.401938674518743,-3.253279658732489 L14.403268678901135,-3.2481483831613716 L14.407231018941026,-3.243759572042377 L14.422886667349553,-3.23713969128325 L14.448573542456847,-3.2332807127000938 L14.483943936870961,-3.2320425927888903 " />
			<path d="M14.483943936870961,-3.2320425927888903 L15.301433611130303,-3.2778108295747366 " />
			<path d="M15.301433611130305,-3.2778108295745025 L21.029355672487924,-3.277810829574502 " />
			<path d="M21.029355672487924,-3.2778108295747357 L21.282394382729713,-3.2789698122289668 L21.53288839738449,-3.2827090500655385 L21.78083403838214,-3.2894219778952745 L22.026227627652545,-3.299502030528997 L22.26930594559876,-3.3136210792186436 L22.507701773692457,-3.33272613110317 L22.738305656235696,-3.3576675005416177 L22.85048369130017,-3.3726877860199536 L22.96056730013251,-3.389624381739555 L23.068543839367617,-3.4086478343935713 L23.17438611757699,-3.4299750427191187 L23.278063446094954,-3.4538379670835417 L23.37954513625585,-3.4804685678541842 L23.478664016154568,-3.510103614075637 L23.574991808685645,-3.54286326297018 L23.668106167382884,-3.578804557171689 L23.757584745780086,-3.6179845393140426 L23.843325547784996,-3.6605417987351463 L23.925525670660132,-3.706717832933717 L24.00421140797144,-3.756724046784849 L24.07940905328487,-3.8107718451636368 L24.151054020647994,-3.8690430386195813 L24.218971195599035,-3.931550058415625 L24.2830210789399,-3.998250240497026 L24.343064171472513,-4.069100920809042 " />
			<path d="M10.241661675963973,3.2884013422749088 L9.865627884741881,3.294462917749033 L9.489160275547833,3.2937768951032775 L9.113347777840682,3.2863452586524953 L8.7392774261747,3.2721895043439098 L8.368031215961084,3.251350577580266 L8.00068297380514,3.22388875478559 L7.638295251471677,3.1898834690561286 L7.281916252462767,3.149433080400773 L6.93257680009776,3.1026545912355417 L6.591287355865322,3.04968330795506 L6.259035096671893,2.9906724495599226 L5.936781059440622,2.9257927044719994 L5.625457361319987,2.855231736819581 L5.474177102938754,2.817883948764741 L5.325964503542615,2.7791936436204345 L5.180926758444675,2.7391888042935877 L5.039168766732877,2.6978983644328567 L4.900793055401339,2.65535218750226 L4.765899705197352,2.611581045182324 " />
			<path d="M4.765899705197331,2.6115810451823167 L4.528989296018451,2.528636117056749 L4.415185247957773,2.485735189305852 L4.304573999964004,2.4419162187955448 L4.197222180116918,2.3972056004351674 L4.093194453138647,2.3516302662293826 L3.9925534814420756,2.3052176690553434 L3.8953598873853448,2.2579957661261103 L3.801672216755213,2.209993002150265 L3.711546903501259,2.161238292197889 L3.625038235742183,2.1117610042832013 L3.542198323064678,2.0615909416743667 L3.4630770651345557,2.010758324941121 L3.3877221216390607,1.9592937737510308 L3.3161788835784494,1.9072282884253493 L3.2484904459241557,1.8545932312655815 L3.1846975816599903,1.8014203076620103 L3.1248387172220173,1.7477415469955515 L3.0689499093519057,1.6935892833444517 L3.0170648233777007,1.6389961360074505 L2.9692147129350834,1.5839949898551349 L2.925428401141355,1.528618975521321 L2.8857322632334634,1.4729014494464017 L2.8501502106805496,1.4168759737846717 L2.818703676780574,1.3605762961877421 L2.7914116037496965,1.304036329476217 L2.7682904313121925,1.2472901312118774 L2.7493540867977853,1.1903718831826802 L2.734613976752331,1.1333158708129285 L2.724078980066956,1.0761564625110134 L2.7177554426297332,1.018928088967167 L2.7156471735031626,0.9616652224137154 " />
			<path d="M2.7156471735031626,0.9616652224137051 L2.7171862866695324,0.9127375939317222 L2.721802949348831,0.8638314812089382 L2.7294951313792533,0.8149683905430694 L2.74025945014976,0.7661698093130282 L2.7540911720875663,0.7174571965299208 L2.7709842147397152,0.6688519734005195 L2.7909311494478164,0.6203755139073592 L2.813923204614774,0.5720491354096013 L2.8399502695620633,0.5238940892687971 L2.869000898975875,0.4759315515036728 L2.901062317940145,0.42818261347804754 L2.9361204275542825,0.38066827262597724 L2.97415981113312,0.33340942321820366 L3.015163740986339,0.28642684717397027 L3.0591141857744244,0.23974120492224238 L3.105991818437878,0.19337302631635445 L3.1557760246962303,0.147342701606076 L3.2084449121131025,0.10167047247106775 L3.263975319723328,0.056376423119672614 L3.322342828217911,0.011480471456951857 L3.447485243883494,-0.0770383511746322 L3.5836520594928167,-0.16373030912932918 L3.730603785790305,-0.2484429291897703 L3.888081965093897,-0.33102721938441504 L4.055809625868625,-0.4113379310336034 L4.233491769862248,-0.4892338142119286 L4.420815890946136,-0.564577866177636 L4.617452524748898,-0.6372375723320958 L4.823055828116036,-0.7070851392855653 L5.037264187376507,-0.7739977196193204 L5.259700854346343,-0.8378576279488508 L5.489974608950767,-0.8985525479080985 L5.727680447299356,-0.9559757296907088 L5.9724002940040855,-1.0100261778008541 L6.223703737487441,-1.0606088286834128 L6.4811487869873305,-1.107634717921096 L6.744282649927381,-1.1510211367044487 L7.012642528285405,-1.1906917772995356 L7.28575643255936,-1.2265768672574535 L7.563144011899233,-1.258613292129637 L7.8443173989448,-1.2867447064731112 L8.128782067883307,-1.3109216329504658 " />
			<path d="M14.410121933088197,-5.47311362650701 L14.410121933088199,-5.249282125293371 L14.410121933088195,-5.035660723436391 L14.410121933088199,-4.833628665889151 L14.410121933088199,-4.64449037109153 L14.410121933088197,-4.469467009002473 L14.410121933088197,-4.3096886166254595 L14.410121933088197,-4.166186801933202 L14.410121933088194,-4.039888083298639 L14.410121933088199,-3.931607907436121 L14.410121933088197,-3.842045384475899 L14.410121933088199,-3.771778774164914 L14.410121933088197,-3.721261752337141 L14.410121933088195,-3.6908204817590162 L14.410121933088199,-3.6806515062620444 " />
			<path d="M14.7601219330882,-3.3306515062620425 L14.760121933088195,-3.3419503679253486 L14.760121933088199,-3.375774001901041 L14.760121933088199,-3.431904026154122 L14.760121933088199,-3.509978037610774 L14.760121933088199,-3.609491952011022 L14.760121933088199,-3.729803258524934 L14.760121933088197,-3.8701351681188902 L14.760121933088197,-4.029581628888064 L14.760121933088197,-4.207113175973637 L14.7601219330882,-4.401583578294816 L14.760121933088199,-4.6117372391810605 L14.760121933088197,-4.836217303122435 L14.7601219330882,-5.073574416296861 L14.760121933088199,-5.322276084311995 " />
			<path d="M14.410121933088199,-9.980651506262047 L14.410121933088199,-9.948037155731768 L14.410121933088199,-9.850869466592068 L14.410121933088199,-9.691160541112026 L14.410121933088195,-9.472217555722384 L14.410121933088197,-9.198574277579745 L14.410121933088197,-8.875897181473697 L14.410121933088199,-8.51086811116328 L14.410121933088199,-8.111045914936009 L14.410121933088197,-7.684709920574459 L14.410121933088197,-7.240688490976265 L14.410121933088195,-6.788176210616261 L14.410121933088195,-6.336543488466459 L14.410121933088197,-5.8951425200259955 L14.410121933088197,-5.473113626507024 " />
			<path d="M14.760121933088199,-5.3222760843120085 L14.760121933088197,-5.791197077110881 L14.7601219330882,-6.281642597600287 L14.760121933088199,-6.783456733322282 L14.760121933088199,-7.28624815594451 L14.760121933088197,-7.779605299942501 L14.760121933088199,-8.253311960344226 L14.7601219330882,-8.69755884504119 L14.760121933088199,-9.103146700941657 L14.7601219330882,-9.461676807726153 L14.760121933088197,-9.765724894551308 L14.7601219330882,-10.008994878317578 L14.7601219330882,-10.18644923996207 L14.7601219330882,-10.294413339006187 L14.7601219330882,-10.330651506262045 " />
			<path d="M18.060121933088197,-5.322276084312006 L18.060121933088197,-5.073574416296852 L18.060121933088197,-4.8362173031224245 L18.060121933088194,-4.611737239181049 L18.060121933088194,-4.401583578294807 L18.06012193308819,-4.207113175973632 L18.060121933088194,-4.029581628888058 L18.060121933088194,-3.8701351681188827 L18.060121933088197,-3.7298032585249263 L18.060121933088194,-3.609491952011018 L18.060121933088194,-3.5099780376107708 L18.060121933088194,-3.43190402615412 L18.060121933088194,-3.3757740019010383 L18.060121933088194,-3.341950367925347 L18.060121933088194,-3.3306515062620448 " />
			<path d="M18.060121933088197,-10.330651506262043 L18.060121933088197,-10.294413339006184 L18.060121933088197,-10.186449239962066 L18.060121933088194,-10.008994878317573 L18.060121933088197,-9.765724894551305 L18.060121933088194,-9.461676807726153 L18.060121933088197,-9.103146700941654 L18.060121933088194,-8.697558845041188 L18.060121933088194,-8.253311960344226 L18.060121933088194,-7.779605299942504 L18.060121933088194,-7.286248155944509 L18.060121933088197,-6.783456733322284 L18.060121933088197,-6.281642597600285 L18.060121933088197,-5.791197077110885 L18.060121933088197,-5.32227608431202 " />
			<path d="M18.410121933088195,-3.680651506262042 L18.4101219330882,-3.690820481759018 L18.410121933088192,-3.7212617523371394 L18.410121933088195,-3.7717787741649165 L18.410121933088195,-3.842045384475898 L18.4101219330882,-3.931607907436123 L18.4101219330882,-4.039888083298643 L18.410121933088192,-4.166186801933205 L18.4101219330882,-4.309688616625463 L18.4101219330882,-4.469467009002479 L18.4101219330882,-4.6444903710915355 L18.4101219330882,-4.833628665889154 L18.410121933088195,-5.035660723436395 L18.4101219330882,-5.249282125293376 L18.410121933088195,-5.473113626506997 " />
			<path d="M18.410121933088195,-5.4731136265070095 L18.4101219330882,-5.895142520025999 L18.4101219330882,-6.336543488466463 L18.410121933088195,-6.78817621061626 L18.4101219330882,-7.24068849097626 L18.410121933088195,-7.684709920574456 L18.4101219330882,-8.111045914936005 L18.410121933088195,-8.510868111163273 L18.410121933088195,-8.875897181473693 L18.4101219330882,-9.198574277579748 L18.410121933088195,-9.472217555722379 L18.410121933088195,-9.691160541112023 L18.4101219330882,-9.850869466592062 L18.4101219330882,-9.948037155731768 L18.4101219330882,-9.980651506262044 " />
			<path d="M1.3719876108335058,0.8722997258274274 L1.3719811394114378,0.8722964589100006 " />
			<path d="M1.3719811394114378,0.8722964589100006 L1.3717779613584502,0.8684053208567648 L1.3716034969809736,0.8571780755189762 L1.3713421126030891,0.8128248436575283 L1.3711758954473185,0.6381443062512746 " />
			<path d="M9.7156471735067,-6.25728619408269 L9.7156471735067,-13.799758526739197 " />
			<path d="M21.029355672487924,-9.236761558592992 L21.029355672487924,-10.028522360412115 " />
			<path d="M20.682732645075127,0.4747018983711069 L20.682732645075127,0.1175828306744231 " />
			<path d="M19.771664497074937,0.3768252357617268 L19.771664497074937,0.020517179200751023 " />
			<path d="M-3.25878080040019,-2.677179053611084 L-3.25878080040019,-2.156124329247449 " />
			<path d="M-0.7486493045812572,-1.9177390672884123 L-0.7486493045812571,-2.2685926608513904 " />
			<path d="M23.028533432071672,0.5200792821058391 L23.028533432071672,0.4169341290442352 " />
			<path d="M14.047743602071932,2.8028921006592498 L14.047743602071932,3.513675892105753 " />
			<path d="M13.41216157899424,2.9431288018585384 L13.41216157899424,3.400856463884036 " />
			<path d="M3.1947801212601035,-5.053498072284966 L3.1947801212601035,-4.672705140389046 " />
			<path d="M-1.5306096654127097,-3.0975752114981105 L-1.5306096654127097,-3.703275462335565 " />
			<path d="M3.445582700189429,-5.096432692277326 L3.445582700189429,-4.695189027070665 " />
			<path d="M5.043788470586161,-5.3231161178050925 L5.043788470586161,-4.695189027070192 " />
			<path d="M5.519682896140006,-5.36964635805759 L5.519682896140005,-4.5796480179406025 " />
			<path d="M5.813312883966731,-5.342279231721747 L5.81331288396673,-4.27595863527435 " />
			<path d="M6.899478986190658,-4.26324294752591 L6.899478986190657,-3.7019229924024444 " />
			<path d="M15.301433611130305,-3.277810829574735 L15.301433611130305,-2.4860500277556117 " />
			<path d="M21.029355672487924,-2.486050027755608 L21.029355672487924,-3.2778108295747312 " />
			<path d="M16.71564717350316,0.961665222413705 L16.71564717350316,-0.9239528607504208 " />
			<path d="M2.715647173503166,0.9616652224137046 L2.715647173503166,-0.9239528607504213 " />
			<path d="M14.41012193308804,-3.68065150626189 L14.760121933088199,-3.330651506262046 " />
			<path d="M14.410121933088043,-9.980651506262202 L14.7601219330882,-10.330651506262045 " />
			<path d="M18.060121933088197,-3.3306515062620488 L14.760121933088197,-3.33065150626205 " />
			<path d="M18.0601219330882,-10.330651506262049 L14.7601219330882,-10.33065150626205 " />
			<path d="M18.4101219330882,-3.6806515062620475 L18.06012193308804,-3.3306515062622033 " />
			<path d="M18.410121933088195,-9.980651506262047 L18.060121933088038,-10.33065150626189 " />
			<path d="M1.3719876108335076,0.8722997258274244 L2.715647173503166,0.8774724997306582 " />
			<path d="M1.1396253648902,0.6381443062547718 L1.3719811394115937,0.8722964589098434 " />

       </g>
    </g>
    
</svg>
