<?xml version="1.0" encoding="UTF-8" standalone="no"?>
<svg
   xmlns:svg="http://www.w3.org/2000/svg"
   xmlns="http://www.w3.org/2000/svg"
   width="1024.0"
   height="320.0"

>
    <g transform="scale(9.46443928386901, -9.46443928386901)   translate(57.28442707964604,-34.369642556939105)" stroke-width="0.14000000133333337"  fill="none">
       <!-- hidden lines -->
       <g  stroke="rgb(32,64,32)" fill="none" stroke-dasharray="0.14000000133333337,0.14000000133333337" >

       </g>

       <!-- solid lines -->
       <g  stroke="rgb(64,192,64)" fill="none">
			<path d="M-27.881144717270708,7.392706959531534 L-27.829222028353147,7.309544356948832 L-27.77256682887817,7.23214961402231 L-27.711761020335768,7.1613176466051325 L-27.64742913482396,7.097775964753947 L-27.58023192052438,7.042177200525278 L-27.54577353812196,7.017538219077074 L-27.510859555205123,6.995092404838483 L-27.47557967915056,6.974897429691794 L-27.44002455745439,6.957005182252725 L-27.404285544824056,6.94146163454872 L-27.368454468453162,6.9283067238992295 " />
			<path d="M-6.829897941567681,17.376544619411096 L-6.820819759889792,17.433710563255612 L-6.81469910667729,17.492522545639577 L-6.811561938327972,17.552731157364807 L-6.811421558910342,17.614081066423022 L-6.814278563743867,17.676312100804942 L-6.820120836874353,17.73916035183486 L-6.828923602455143,17.8023592933516 L-6.840649529816259,17.865640911989683 L-6.855248891775886,17.928736843767417 L-6.872659775522845,17.991379512161878 L-6.892808345175762,18.05330326284443 L-6.9156091549054395,18.114245490264654 L-6.94096551129258,18.173947751305004 L-6.968769883384156,18.232156861283524 L-6.998904358709478,18.288625967656607 L-7.031241143322076,18.343115596868497 " />
			<path d="M-6.8298979415674985,17.37654461941098 L-6.879144800264964,17.130002453259834 L-6.933772212355891,16.88714992131065 L-6.993739230493334,16.64816905977019 L-7.059000904894702,16.41323900273754 L-7.129508317035,16.182535847929678 L-7.205208616314929,15.956232524682974 L-7.286045059676384,15.734498664329713 L-7.371957054135633,15.517500473046638 L-7.462880202202308,15.305400607270967 L-7.558746350150167,15.098358051777158 L-7.659483639103415,14.896528000505908 L-7.765016558900337,14.70006174023462 L-7.875266004693834,14.509106537176619 L-7.990149336246436,14.323805526594061 L-8.10958043987538,14.1442976055073 L-8.233469793001259,13.970717328581173 L-8.36172453125194,13.803194807266133 L-8.494248518071378,13.641855612269978 L-8.63094241678116,13.486820679433169 L-8.77170376504084,13.338206219078334 L-8.916427051651128,13.196123628901907 L-9.065003795642474,13.060679410473194 L-9.217322627589688,12.931975089403444 L-9.373269373091688,12.810107139244794 L-9.532727138353797,12.695166909176079 L-9.695576397808402,12.587240555529778 L-9.861695083708351,12.486408977211367 L-10.0309586776259,12.392747755059522 L-10.20324030378861,12.306327095192598 L-10.378410824182271,12.22721177638388 L-10.556338935349546,12.155461101505013 L-10.736891266811703,12.091128853074087 " />
			<path d="M-7.368293870201143,19.115533721488774 L-9.489614213760786,19.82264050267532 " />
			<path d="M-7.0312411433218385,18.343115596868763 L-7.0845232338498105,18.432055015131247 L-7.134883422706324,18.52370681911467 L-7.182178464438243,18.61781031273169 L-7.2262738321536375,18.714097826263618 L-7.267044100172561,18.812295477725087 L-7.304373300790177,18.912123951899066 L-7.338155254137444,19.01329929482621 L-7.368293870201101,19.11553372148878 " />
			<path d="M-27.36845446845316,6.928306723899229 L-27.327639355140168,6.91627359709714 L-27.28696034091296,6.907424417015675 L-27.24655307103128,6.901788691482235 L-27.206552284616098,6.899385212974179 " />
			<path d="M-28.376195129016153,20.630131114150398 L-28.376195129016153,25.84443123871855 " />
			<path d="M-27.53721882114299,19.945952195248044 L-27.63625406312664,20.048645602074494 L-27.73728033078821,20.14672130187792 L-27.84013927534305,20.240025570599958 L-27.944669675464894,20.328412162933347 L-28.050707689984492,20.411742541547163 L-28.158087114694617,20.489886094230513 L-28.266639642858884,20.562720338614383 L-28.376195129016068,20.630131114150753 " />
			<path d="M-27.53721882114294,19.945952195248143 L-27.49103133126967,19.899667818767846 L-27.447874886852013,19.84739389113356 " />
			<path d="M-26.07856849308932,16.22868076637748 L-26.081607952522152,16.34873461946223 L-26.087465355361758,16.46954043298765 L-26.096134858665433,16.59097769937277 L-26.107607814332226,16.71292528114262 L-26.121872777729678,16.83526153176667 L-26.13891551911022,16.95786441700503 L-26.158719037805785,17.080611636641443 L-26.181263579186496,17.203380746481564 L-26.20652665436654,17.32604928049489 L-26.234483062637537,17.44849487297845 L-26.265104916607022,17.57059538062043 L-26.298361670017005,17.692229004341947 L-26.334220148214822,17.813274410795447 L-26.37264458124587,17.933610853398527 L-26.413596639535278,18.053118292782393 L-26.45703547212285,18.171677516534942 L-26.50291774741317,18.289170258118833 L-26.551197696400234,18.405479314846076 L-26.601827158323466,18.52048866479139 L-26.654755628709573,18.634083582527687 L-26.70993030975236,18.746150753568305 L-26.767296162980177,18.856578387401726 L-26.82679596415851,18.965256329006124 L-26.888370360372978,19.07207616873245 L-26.95195792923569,19.176931350446452 L-27.017495240156016,19.279717277821746 L-27.08491691761459,19.38033141867794 L-27.154155706377423,19.47867340725967 L-27.22514253858512,19.574645144354612 L-27.297806602650223,19.668150895150497 L-27.372075413893988,19.759097384733597 L-27.447874886852098,19.84739389113333 " />
			<path d="M-26.0785684930896,16.228680766377565 L-26.07553744763345,16.158893425207758 L-26.0785684930896,16.091126781008718 " />
			<path d="M-27.44787488685212,13.385284585427941 L-27.372075413893988,13.42304810985561 L-27.297806602650223,13.464482058609534 L-27.225142538585118,13.509545100028685 L-27.154155706377423,13.558192282318496 L-27.08491691761459,13.61037507839167 L-27.017495240156016,13.666041434275478 L-26.95195792923569,13.725135821037224 L-26.888370360372978,13.787599290176084 L-26.826795964158514,13.8533695324261 L-26.767296162980177,13.922380939911607 L-26.709930309752362,13.99456467159315 L-26.654755628709573,14.069848721938577 L-26.601827158323463,14.148157992750804 L-26.551197696400234,14.229414368080631 L-26.502917747413168,14.313536792149833 L-26.45703547212285,14.40044135020684 L-26.413596639535278,14.49004135223434 L-26.372644581245872,14.582247419425268 L-26.334220148214822,14.67696757334098 L-26.298361670017005,14.774107327662609 L-26.26510491660702,14.873569782444138 L-26.234483062637533,14.975255720773127 L-26.206526654366538,15.079063707742687 L-26.181263579186496,15.184890191635983 L-26.158719037805785,15.292629607222295 L-26.13891551911022,15.402174481061664 L-26.121872777729678,15.513415538712996 L-26.107607814332226,15.626241813738744 L-26.096134858665433,15.740540758397401 L-26.087465355361758,15.856198355913403 L-26.081607952522152,15.97309923421242 L-26.07856849308932,16.091126781008587 " />
			<path d="M-27.447874886852013,13.385284585427662 L-27.46907422837889,13.372531822067478 L-27.49103133126967,13.36178162073848 L-27.51374619552435,13.353033981440584 L-27.53721882114294,13.3462889041737 " />
			<path d="M-28.376195129016097,13.221427523853176 L-28.281013649846166,13.216194018826364 L-28.186571395588082,13.215553387479254 L-28.09297997739499,13.219506386905199 L-28.00035000090829,13.2280483454789 L-27.90879093554475,13.241169168377295 L-27.818410985126334,13.258853349509543 L-27.729316960005736,13.281079989842006 L-27.64161415083872,13.307822822096568 " />
			<path d="M-27.64161415083871,13.307822822096572 L-27.537218821143,13.346288904173827 " />
			<path d="M-28.37619512901615,8.007127399285434 L-28.37619512901615,13.221427523853585 " />
			<path d="M-27.881144717269216,7.392706959532929 L-27.9345287583341,7.481544427258791 L-27.990677564107568,7.567407614325558 L-28.049431423887402,7.650052289894979 L-28.11062321710756,7.729243377922462 L-28.174078888699004,7.804755625811731 L-28.239617944175173,7.876374245127483 L-28.307053963033816,7.94389552254358 L-28.37619512901493,8.007127399288997 " />
			<path d="M-21.679140346485,12.426797151105143 L-21.728387205182464,12.180254984954 L-21.78301461727339,11.937402453004816 L-21.842981635410833,11.698421591464355 L-21.9082433098122,11.463491534431707 L-21.9787507219525,11.232788379623843 L-22.054451021232428,11.00648505637714 L-22.135287464593883,10.78475119602388 L-22.221199459053132,10.567753004740805 L-22.312122607119807,10.355653138965133 L-22.407988755067667,10.148610583471324 L-22.508726044020914,9.946780532200075 L-22.614258963817836,9.750314271928787 L-22.72450840961133,9.559359068870785 L-22.839391741163936,9.374058058288227 L-22.958822844792877,9.194550137201466 L-23.08271219791876,9.02096986027534 L-23.21096693616944,8.853447338960299 L-23.343490922988877,8.692108143964145 L-23.48018482169866,8.537073211127336 L-23.620946169958337,8.3884587507725 L-23.765669456568627,8.246376160596073 L-23.914246200559973,8.11093194216736 L-24.066565032507185,7.982227621097611 L-24.222511778009185,7.86035967093896 L-24.381969543271296,7.745419440870245 L-24.5448188027259,7.637493087223945 L-24.710937488625852,7.536661508905533 L-24.8802010825434,7.443000286753689 L-25.05248270870611,7.356579626886765 L-25.22765322909977,7.277464308078047 L-25.405581340267045,7.20571363319918 L-25.5861336717292,7.141381384768254 " />
			<path d="M-25.58613367172926,7.141381384768234 L-25.683035751342434,7.1102505600324335 L-25.780619267219958,7.081232079505586 L-25.87886359049138,7.054332077609782 L-25.977747952593514,7.029556240926908 L-26.07725144966081,7.006909806996525 L-26.17735304694441,6.9863975632086746 L-26.278031583258812,6.968023845791823 L-26.379265775455277,6.9517925388962 L-26.48103422292105,6.937707073772717 L-26.58331541210336,6.925770428047587 L-26.686087721057337,6.915985125092879 L-26.789329424016827,6.908353233493079 L-26.89301869598715,6.902876366607792 L-26.99713361735884,6.8995556822306945 L-27.101652178541404,6.898391882344772 L-27.206552284616052,6.8993852129739235 " />
			<path d="M-21.880483548239578,13.393368128562667 L-21.84814676362698,13.338878499350772 L-21.818012288301656,13.282409392977689 L-21.79020791621008,13.224200282999167 L-21.76485155982294,13.164498021958817 L-21.74205075009326,13.103555794538595 L-21.721902180440345,13.04163204385604 L-21.704491296693384,12.97898937546158 L-21.689891934733758,12.915893443683844 L-21.678166007372642,12.852611825045763 L-21.669363241791853,12.789412883529023 L-21.663520968661366,12.726564632499105 L-21.66066396382784,12.664333598117183 L-21.66080434324547,12.60298368905897 L-21.66394151159479,12.542775077333738 L-21.67006216480729,12.483963094949775 L-21.679140346485177,12.426797151105266 " />
			<path d="M-21.88048354823931,16.12771612225647 L-21.931191207381342,16.07705802530843 L-21.97926610765458,16.0221831382814 L-22.024584726251597,15.963232455749766 L-22.06703062230687,15.900357444565556 L-22.10649473607791,15.833719654682154 L-22.142875669161437,15.763490304070682 L-22.17607994502467,15.689849838795553 L-22.206022249182308,15.612987469379485 L-22.232625648402053,15.533100684649321 L-22.255821788375524,15.45039474431168 L-22.27555106934662,15.365082151562262 L-22.291762799246087,15.27738210708386 L-22.30441532393884,15.187519945835945 L-22.31347613424936,15.095726558082992 L-22.3189219494902,15.002237796149052 L-22.32073877727899,14.90729386842293 L-22.318921949490203,14.811138722170949 L-22.313476134249363,14.714019416743113 L-22.304415323938848,14.616185488783149 L-22.291762799246094,14.517888311073401 L-22.27555106934663,14.419380446662016 L-22.255821788375535,14.320914999931867 L-22.232625648402067,14.222744966278581 L-22.206022249182325,14.125122582068588 L-22.17607994502469,14.02829867654743 L-22.142875669161455,13.932522027363472 L-22.10649473607793,13.838038721362985 L-22.067030622306895,13.745091522298889 L-22.024584726251618,13.653919247077827 L-21.979266107654606,13.564756152148183 L-21.93119120738137,13.477831331605662 L-21.88048354823934,13.393368128562933 " />
			<path d="M-21.880483548239578,16.127716122256935 L-21.84814676362698,16.16064789506043 L-21.818012288301656,16.19702735121663 L-21.79020791621008,16.2367002131341 L-21.764851559822937,16.279498236583024 L-21.74205075009326,16.32523992418346 L-21.721902180440345,16.373731295097404 L-21.704491296693384,16.42476670766056 L-21.689891934733758,16.47812973146521 L-21.678166007372642,16.53359406519588 L-21.669363241791853,16.590924496325428 L-21.663520968661366,16.649877898601687 L-21.66066396382784,16.710204263094592 L-21.66080434324547,16.771647758431225 L-21.66394151159479,16.83394781572267 L-21.67006216480729,16.896840233581635 L-21.679140346485177,16.960058298544734 " />
			<path d="M-27.206552284616212,26.17241152876343 L-27.08160268756638,26.09004923205043 L-26.957200807178012,26.00498950588144 L-26.833383980369014,25.91725787935622 L-26.710189368464327,25.82688068349588 L-26.587653946042618,25.733885043340102 L-26.465814489839037,25.63829886980609 L-26.344707567707403,25.54015085131161 L-26.22436952764499,25.439470445164687 L-26.104836486883393,25.336287868722557 L-25.98614432104858,25.230634090322475 L-25.868328653393505,25.122540819987137 L-25.751424844106445,25.012040499907535 L-25.635467979698298,24.89916629470599 L-25.52049286247201,24.783952081482454 L-25.406534000077308,24.666432439646876 L-25.293625595153866,24.54664264054087 L-25.181801535066043,24.42461863685167 L-25.0710953817322,24.30039705182159 L-24.961540361551698,24.17401516825624 L-24.853169355432623,24.045510917334763 L-24.746014888923206,23.914922867225542 L-24.640109122449864,23.782290211510634 L-24.53548384166485,23.64765275742257 L-24.432170447906387,23.511050913896945 L-24.33019994877411,23.372525679444408 L-24.22960294882274,23.232118629845733 L-24.130409640376694,23.08987190567364 L-24.032649794468394,22.94582819964505 L-23.93635275190307,22.800030743807675 L-23.84154741445265,22.652523296564723 L-23.748262236181414,22.5033501295416 L-23.65652521490606,22.352556014298628 L-23.566363883792672,22.200186208893697 L-23.477805303093138,22.04628644429887 L-23.39087605202353,21.89090291067511 L-23.30560222078683,21.734082243509107 L-23.22200940274246,21.57587150961659 L-23.1401226867249,21.416318193016004 L-23.05996664951374,21.255470180677126 L-22.981565348457405,21.093375748148645 L-22.9049423142528,20.93008354506916 L-22.830120543883005,20.765642580565878 L-22.757122493715165,20.600102208545472 L-22.6859700727606,20.433512112881395 L-22.61668463609926,20.265922292502182 L-22.549286978470374,20.097383046385215 L-22.483797328031276,19.927944958460394 L-22.420235340286332,19.757658882428316 L-22.358620092187685,19.586575926497513 L-22.29897007640968,19.41474743804524 L-22.2413031957986,19.242224988206495 L-22.18563675799948,19.069060356395923 L-22.131987470261542,18.895305514767198 L-22.080371434423807,18.721012612614523 L-22.030804142082445,18.546233960720983 L-21.98330046994125,18.371022015658458 L-21.937874675346663,18.19542936404372 L-21.89454039200871,18.019508706755545 L-21.853310625909096,17.843312843117566 L-21.81419775139769,17.66689465505148 L-21.777213507478603,17.490307091205533 L-21.742368994286938,17.313603151062992 L-21.70967466975729,17.136835869035288 L-21.679140346485013,16.960058298544833 " />
			<path d="M-27.88114471727071,26.12881807064216 L-27.836962814383682,26.170948468517285 L-27.78924790001946,26.206576033810137 L-27.738359791332957,26.235432099808204 L-27.684682234470003,26.257299063531214 " />
			<path d="M-27.68468223447,26.257299063531217 L-27.628642019212236,26.272007751015444 L-27.57064124604599,26.279457114328725 L-27.51111696076457,26.27959102123831 L-27.450517689086883,26.272408462732628 L-27.389300056939067,26.257963560624347 L-27.327925349699672,26.236365159733225 L-27.26685603633506,26.207776007721684 L-27.206552284616258,26.17241152876321 " />
			<path d="M-28.37619512901617,25.844431238718627 L-28.324675663283287,25.856642316568283 L-28.27406968287239,25.87185608486449 " />
			<path d="M-28.274069682872387,25.871856084864493 L-28.219744445708834,25.8919526571207 L-28.166714569146478,25.915590012310513 L-28.115080074641757,25.942723567213193 L-28.064938351773474,25.973302144306643 L-28.016383974553005,26.007268068295076 L-27.969508523045036,26.04455727489234 L-27.924400410635283,26.08509943165577 L-27.881144717270985,26.12881807064258 " />
			<path d="M-29.43685530079718,8.360680789883087 L-29.48837476652944,8.34846971203352 L-29.53898074693973,8.333255943737479 " />
			<path d="M-29.53898074693974,8.333255943737475 L-29.59330598410357,8.313159371481152 L-29.64633586066619,8.289522016291189 L-29.69797035517116,8.262388461388321 L-29.74811207803968,8.231809884294648 L-29.79666645526036,8.19784396030596 L-29.843541906768525,8.160554753708407 L-29.888650019178453,8.120012596944658 L-29.931905712542907,8.076293957957493 " />
			<path d="M-29.43685530079597,8.360680789878703 L-28.376195129016153,8.714234180471976 " />
			<path d="M-18.478877575586864,13.249549851226071 L-18.404678495313103,13.273033905212486 L-18.331426581813908,13.293716039253733 L-18.25912578570134,13.311612558263176 L-18.187780057587457,13.326739767154178 L-18.11739334808432,13.3391139708401 L-18.047969607803992,13.348751474234305 L-17.97951278735853,13.355668582250155 L-17.91202683736,13.359881599801012 L-17.84552690139459,13.36137091590176 L-17.780106874981843,13.360099646027658 L-17.715894225901106,13.356099947965498 L-17.65301653865621,13.34940520664252 L-17.591601397750992,13.340048806985966 L-17.53177638768929,13.328064133923073 L-17.473669092974944,13.313484572381086 L-17.417407098111788,13.296343507287242 " />
			<path d="M-17.417407098111788,13.296343507287242 L-17.363060320870815,13.276677038094245 L-17.31053370091335,13.254514699619056 L-17.259850737963603,13.229871626544833 L-17.21104492790829,13.20276228326564 L-17.164141568946036,13.17318340733069 L-17.119208973751203,13.141144670985785 L-17.076425689059885,13.106795296014415 L-17.035977047411503,13.070294738870858 L-16.998019467879207,13.031793204062783 L-16.962525269184592,12.991354565905317 L-16.929498570281382,12.94901356054629 L-16.898958244658445,12.904807233387027 L-16.87092316580465,12.858772629828856 L-16.84541220720887,12.810946795273104 L-16.822444242359975,12.761366775121097 L-16.802038144746838,12.710069614774163 L-16.784223240882483,12.657113306102424 L-16.76911124763619,12.602754033369806 L-16.75672139654687,12.547125975281126 L-16.7470456378396,12.490315021103681 L-16.74007592173946,12.43240706010476 L-16.735804198471527,12.373487981551659 L-16.734222418260877,12.313643674711667 L-16.735322531332596,12.252960028852081 L-16.73909806026624,12.191516292808634 L-16.745569797625254,12.129247303475104 L-16.75471327118283,12.066204780343027 L-16.766484224250593,12.002512877507653 L-16.78083840014017,11.938295749064237 L-16.797731542163177,11.873677549108024 L-16.81711939363125,11.808782431734269 L-16.838957697856003,11.743734551038225 L-16.86320210555494,11.678657606938462 L-16.889797221976682,11.613581699116752 L-16.918704822662875,11.548487540699979 L-16.949900314247056,11.483394606807307 L-17.01905659664353,11.353290313070922 L-17.097069322234383,11.223424618860914 L-17.183613344342653,11.094136161771202 L-17.27757043468831,10.966790428714228 L-17.37848071570573,10.841645390089301 L-17.486048369762262,10.718711796359727 L-17.599980981545166,10.597999565207239 L-17.72006245337247,10.479508133026224 L-17.846141237130485,10.363236833225722 L-17.97806642941533,10.249186423885137 L-18.115664974186906,10.13737879038209 L-18.258363282583577,10.028172415183343 L-18.40558435409762,9.921828898173821 L-18.55683045254842,9.81852182591624 " />
			<path d="M-23.637870344940467,7.790827024698244 L-23.602321212204497,7.806809942098577 L-23.555688524095846,7.8352285409646845 L-23.499559526639683,7.876061417230526 L-23.435219464355676,7.929394035522005 L-23.363200842817985,7.995575810303122 L-23.283826295129625,8.075090687561291 L-23.19713748217903,8.168553296214565 L-23.10351265581673,8.276042469694067 L-23.00359019229024,8.39722025276934 L-22.897173541376688,8.532338167918347 L-22.78365534151467,8.682046180467696 L-22.662428231142783,8.846994255743994 L-22.532901750632774,9.027799903864924 L-22.39498748927498,9.224007305810712 L-22.094611410889097,9.657610140449732 L-21.755182065192436,10.145728187696887 L-21.570840724022396,10.405406693407647 L-21.377014964390693,10.671882102673113 L-21.171962431419956,10.944790259681817 L-20.95672447917036,11.21976307821277 L-20.846158049455376,11.35595350522057 L-20.733756322703826,11.49067553549832 L-20.619307849744366,11.623821342296253 L-20.5026217276396,11.755227023505608 L-20.38350705345215,11.884728677017614 L-20.26191560981369,12.012002429090241 L-20.138750501605454,12.135717958944563 L-20.01432928431691,12.255300590126486 L-19.888802942270456,12.37037024558732 L-19.76232245978848,12.480546848278372 L-19.634830335270145,12.585597672838388 L-19.505962270299527,12.685561956903488 L-19.37626737245362,12.779897760883236 L-19.246367105994008,12.868014553292461 L-19.116882935182275,12.949321802645995 L-18.988229966632996,13.023469336690736 L-18.860225871893764,13.090619455456162 L-18.732745457374932,13.150721944898088 L-18.6056691997236,13.203718258870172 L-18.47887757558689,13.249549851226062 " />
			<path d="M-11.370277041479683,13.04847713549576 L-11.293975399194768,13.071613292672955 L-11.22239591116099,13.088655923173588 L-11.155737152494213,13.09970621862193 L-11.094169973717165,13.10494348902754 L-11.03783438066614,13.104622539878742 L-10.986835589923762,13.099070464185216 L-10.941239259777873,13.088682849469754 L-10.90104834864899,13.073911585588695 L-10.866058436584101,13.0551568664404 L-10.836095814221302,13.032784455984565 L-10.811023997246698,13.007141205188924 L-10.790720043406443,12.978547945001152 L-10.775074500435567,12.947299583167677 L-10.763991584758374,12.913665493274468 L-10.757389560009644,12.877890160015676 L-10.755201284425832,12.84019404469604 " />
			<path d="M-10.755201284425832,12.840194044696037 L-10.757456533163854,12.80002497112314 L-10.764200116847972,12.758253233190722 L-10.775412631650456,12.715042341000844 L-10.791093934138871,12.67053531884776 L-10.811261057266236,12.624862782403381 L-10.835940427737603,12.578155213772472 L-10.865168486945581,12.530534196179243 L-10.898991613780987,12.482111715351062 L-10.937465490720541,12.432991025264785 L-10.980654411521957,12.38326740843861 L-11.028630530526446,12.333028830769408 L-11.081473053568645,12.28235649091563 L-11.139276141555612,12.23131776715288 L-11.202092294149521,12.180013002029572 L-11.269931150556546,12.12856219816826 L-11.342788103233461,12.077075544539547 L-11.420644017560907,12.025652936871781 L-11.503464948924062,11.974383500451024 L-11.591201859793289,11.92334511292089 L-11.68375241086848,11.872624161407973 L-11.78086085663912,11.822360287853014 L-11.882209238742286,11.772685171184436 L-11.987442381389464,11.723709979580955 L-12.096169512643398,11.675527229670879 L-12.322332143473648,11.581843954562105 L-12.556480433066577,11.492239723870705 L-12.794299664159555,11.407008290100203 L-13.031365768663997,11.326304039135296 " />
			<path d="M-13.031365768664006,11.326304039135293 L-14.947799194275449,10.687492884940506 " />
			<path d="M-14.94779919427545,10.687492884940504 L-14.953344509715613,10.685857737570625 L-14.955201292651216,10.685924748603773 " />
			<path d="M-14.955201292651214,10.685924748603773 L-14.95344789851221,10.687691309693218 L-14.948179174269983,10.691202857892522 L-14.927098178326407,10.703710698040098 L-14.843505293070425,10.752065399481273 L-14.70867085993169,10.832609191051048 L-14.530577452096702,10.944049228857963 L-14.319209106591357,11.082549870330018 L-14.083334224562535,11.243610128021956 L-13.830614455863907,11.422201822485837 L-13.56639305441252,11.61389060910225 L-13.016859563327024,12.020661404982212 L-12.735934800266035,12.227688244165337 L-12.453000768978749,12.431000502401895 L-12.31132223079565,12.52942181368755 L-12.16896573726973,12.625085064499457 L-12.027000354773401,12.716392762239792 L-11.886891703474232,12.80148825958026 L-11.749979846314703,12.878664963833431 L-11.617493975845209,12.946397048559762 L-11.490570998886728,13.003365292295959 L-11.429530892572796,13.027462279738764 L-11.370277041479707,13.048477135495753 " />
			<path d="M-29.93190571254141,8.076293957955102 L-29.97608761542844,8.034163560079977 L-30.02380252979266,7.998535994787125 L-30.074690638479165,7.9696799287890565 L-30.128368195342116,7.9478129650660465 " />
			<path d="M-30.128368195342123,7.947812965066045 L-30.165533179764648,7.9371944331275825 L-30.20363524366753,7.929797190876046 L-30.24254644214161,7.9256460778973015 L-30.282136113242508,7.924755033430292 L-30.322271316747198,7.9271270495597435 L-30.36281728056092,7.932754161168884 L-30.403637853275445,7.941617472685926 L-30.44459596135896,7.953687221534495 " />
			<path d="M-30.44459596135896,7.953687221534495 L-30.48541107467195,7.968864170274402 L-30.52609008889916,7.987134333011076 L-30.56649735878084,8.008436787398756 L-30.606498145196024,8.032700499834155 " />
			<path d="M-30.60649814519607,8.032700499833929 L-30.731447742245894,8.115062796546932 L-30.85584962263426,8.200122522715919 L-30.979666449443247,8.287854149241134 L-31.102861061347927,8.378231345101478 L-31.225396483769636,8.471226985257255 L-31.347235939973206,8.566813158791264 L-31.46834286210484,8.664961177285743 L-31.588680902167248,8.765641583432666 L-31.70821394292884,8.868824159874794 L-31.826906108763648,8.974477938274875 L-31.944721776418714,9.082571208610208 L-32.06162558570576,9.193071528689808 L-32.1775824501139,9.305945733891347 L-32.29255756734019,9.421159947114884 L-32.40651642973489,9.538679588950462 L-32.51942483465833,9.658469388056462 L-32.63124889474614,9.780493391745656 L-32.74195504807998,9.904714976775733 L-32.85151006826048,10.031096860341083 L-32.95988107437955,10.159601111262555 L-33.067035540888966,10.290189161371773 L-33.1729413073623,10.422821817086671 L-33.2775665881473,10.557459271174727 L-33.38087998190577,10.694061114700354 L-33.48285048103804,10.83258634915289 L-33.583447480989406,10.972993398751557 L-33.682640789435446,11.115240122923641 L-33.78040063534374,11.259283828952224 L-33.87669767790906,11.405081284789592 L-33.97150301535948,11.552588732032541 L-34.06478819363071,11.701761899055663 L-34.15652521490606,11.852556014298624 L-34.24668654601945,12.004925819703551 L-34.33524512671897,12.158825584298372 L-34.422174377788586,12.314209117922134 L-34.507448209025284,12.471029785088124 L-34.59104102706964,12.629240518980636 L-34.6729277430872,12.78879383558121 L-34.753083780298354,12.949641847920077 L-34.83148508135469,13.111736280448557 L-34.908108115559294,13.275028483528043 L-34.98292988592908,13.439469448031314 L-35.05592793609693,13.605009820051707 L-35.12708035705148,13.771599915715775 L-35.19636579371282,13.939189736094981 L-35.26376345134171,14.107728982211945 L-35.32925310178081,14.277167070136764 L-35.392815089525755,14.447453146168831 L-35.454430337624395,14.618536102099625 L-35.5140803534024,14.790364590551896 L-35.571747234013486,14.962887040390637 L-35.6274136718126,15.1360516722012 L-35.68106295955054,15.309806513829912 L-35.73267899538827,15.484099415982577 L-35.78224628772963,15.658878067876108 L-35.82974995987083,15.834090012938631 L-35.87517575446542,16.009682664553367 L-35.91851003780337,16.18560332184153 L-35.959739803902984,16.361799185479498 L-35.99885267841439,16.538217373545574 L-36.03583692233347,16.71480493739151 L-36.070681435525145,16.89150887753405 L-36.103375760054796,17.06827615956175 L-36.13391008332708,17.245053730052263 " />
			<path d="M-35.93256688157219,18.07739590634065 L-35.964903666184846,18.044464133537165 L-35.995038141510214,18.00808467738096 L-36.02284251360184,17.968411815463483 L-36.048198869989015,17.925613792014545 L-36.07099967971873,17.879872104414087 L-36.091148249371685,17.831380733500115 L-36.10855913311867,17.780345320936927 L-36.12315849507832,17.72698229713224 L-36.134884422439455,17.671517963401524 L-36.14368718802026,17.61418753227193 L-36.149529461150756,17.555234129995622 L-36.152386465984286,17.494907765502663 L-36.152246086566656,17.433464270165977 L-36.14910891821733,17.371164212874476 L-36.14298826500482,17.308271795015457 L-36.13391008332691,17.245053730052295 " />
			<path d="M-35.93256688157081,18.077395906338253 L-35.8818592224286,18.128054003286277 L-35.833784322155196,18.182928890313306 L-35.78846570355802,18.241879572844958 L-35.74601980750259,18.30475458402921 L-35.70655569373141,18.371392373912673 L-35.670174760647754,18.44162172452422 L-35.6369704847844,18.515262189799447 L-35.607028180626656,18.592124559215627 L-35.58042478140682,18.672011343945915 L-35.55722864143326,18.754717284283693 L-35.5374993604621,18.840029877033263 L-35.521287630562576,18.92772992151183 L-35.50863510586978,19.01759208275992 L-35.499574295559235,19.10938547051305 L-35.49412848031839,19.20287423244718 L-35.4923116525296,19.2978181601735 L-35.4941284803184,19.39397330642568 L-35.49957429555928,19.491092611853713 L-35.508635105869836,19.58892653981388 L-35.52128763056265,19.68722371752383 L-35.53749936046219,19.785731581935416 L-35.557228641433376,19.88419702866576 L-35.58042478140695,19.982367062319238 L-35.6070281806268,20.079989446529417 L-35.63697048478456,20.176813352050754 L-35.67017476064793,20.272590001234875 L-35.70655569373161,20.367073307235522 L-35.746019807502805,20.460020506299763 L-35.788465703558245,20.551192781520953 L-35.83378432215544,20.640355876450716 L-35.88185922242886,20.727280696993336 L-35.93256688157107,20.811743900036138 " />
			<path d="M-28.85636193652118,18.264346223481244 L-26.81530283837708,18.944699256195943 " />
			<path d="M-19.389109150372448,15.108595294765003 L-7.368293870201143,19.115533721488774 " />
			<path d="M-11.370277041479682,18.281067316276207 L-11.299203918726016,18.305950794713876 L-11.231879329909685,18.331966764192238 L-11.168465465862077,18.359052549962087 L-11.109115096136087,18.38714289999307 L-11.05397120097086,18.416170142171534 L-11.003166626839887,18.44606434732859 L-10.956823766412201,18.47675349770559 L-10.91505426369773,18.508163660451228 L-10.877958745087088,18.540219165732235 L-10.845626576933794,18.572842789028666 L-10.81813565026289,18.605955937174503 L-10.79555219312465,18.6394788376955 L-10.777930611045392,18.673330730988038 L-10.765313355959819,18.707430064876096 L-10.75773082394057,18.741694691077598 L-10.755201281971432,18.776042063106782 " />
			<path d="M-10.755201281971432,18.77604206310679 L-10.75726444751756,18.807063630231166 L-10.763449890201592,18.838024242471274 L-10.773745456126164,18.8688630647143 L-10.788130915332328,18.89951950115497 L-10.8065780015498,18.929933314361445 L-10.829050467737904,18.960044743637027 L-10.85550415730809,18.989794622445114 L-10.885887090888081,19.019124494666706 L-10.920139568457165,19.04797672946195 L-10.95819428665192,19.076294634510127 L-10.999976471011921,19.104022567405487 L-11.045404022905535,19.131106044990112 L-11.094387680847133,19.157491850408938 L-11.146831195888726,19.18312813767658 L-11.202631520741406,19.207964533550545 L-11.261679012254984,19.231952236510587 " />
			<path d="M-14.222931802182831,18.244867973201305 L-14.068320129860467,18.20465557579949 L-13.903129263067422,18.169426044485082 L-13.728799774842049,18.139486603948832 L-13.546851933013928,18.11509834580953 L-13.35887244246822,18.096473951723308 L-13.166500608035152,18.083775838659683 L-12.971414038673391,18.077114742518724 L-12.775314017616221,18.076548752441145 L-12.579910666062467,18.082082804232797 L-12.386908029794544,18.093668637321173 L-12.197989218778128,18.11120521561936 L-12.014801729335929,18.1345396086272 L-11.838943076895873,18.16346832508584 L-11.671946864605543,18.19773908755542 L-11.515269409303768,18.23705303244029 L-11.370277041479696,18.2810673162762 " />
			<path d="M-7.368293870201083,20.52974728386182 L-7.338155254137423,20.61188929981528 L-7.304373300790154,20.690543340510914 L-7.267044100172537,20.76548568093981 L-7.226273832153613,20.836503153721996 L-7.182178464438217,20.903393755443656 L-7.134883422706297,20.965967221239392 L-7.084523233849784,21.024045565985134 L-7.031241143321816,21.077463590562296 " />
			<path d="M-7.368293870201143,20.52974728386187 L-19.389109150372448,16.5228088571381 " />
			<path d="M-19.38910915037241,15.108595294765015 L-19.413068376676655,15.201356905908494 L-19.433946064918064,15.294527877871792 L-19.4516940227199,15.387893142275223 L-19.466271282123508,15.481237182250046 L-19.477644194155456,15.574344529920294 L-19.48578650650012,15.667000263771474 L-19.49067942409841,15.758990504758126 L-19.4923116525328,15.850102910004999 L-19.49067942409841,15.94012716296228 L-19.485786506500112,16.028855458883402 L-19.47764419415545,16.116082984504807 L-19.466271282123497,16.20160839082042 L-19.451694022719888,16.285234257859504 L-19.43394606491805,16.366767550395043 L-19.413068376676637,16.446020063530735 L-19.389109150372395,16.522808857138042 " />
			<path d="M-28.376195129016153,25.84443123871855 L-28.175914418270434,25.91119147563379 " />
			<path d="M-28.376195129016153,13.221427523853583 L-27.002112189349987,13.679455170408971 " />
			<path d="M-6.82989794156768,21.90980576685058 L-6.820819759889792,21.84658770188747 L-6.81469910667729,21.783695284028507 L-6.811561938327972,21.721395226737062 L-6.811421558910342,21.65995173140043 L-6.814278563743867,21.599625366907524 L-6.820120836874353,21.540671964631265 L-6.828923602455143,21.48334153350172 L-6.840649529816259,21.427877199771046 L-6.855248891775886,21.374514175966397 L-6.872659775522845,21.32347876340324 L-6.892808345175762,21.274987392489297 L-6.9156091549054395,21.22924570488886 L-6.94096551129258,21.186447681439937 L-6.968769883384156,21.146774819522467 L-6.998904358709478,21.110395363366266 L-7.031241143322076,21.077463590562775 " />
			<path d="M-12.357309879698713,31.122158997069263 L-12.23236028264888,31.039796700356263 L-12.107958402260511,30.954736974187277 L-11.984141575451515,30.867005347662055 L-11.86094696354683,30.776628151801713 L-11.738411541125119,30.683632511645936 L-11.616572084921538,30.588046338111923 L-11.495465162789902,30.489898319617442 L-11.375127122727491,30.38921791347052 L-11.255594081965892,30.28603533702839 L-11.13690191613108,30.18038155862831 L-11.019086248476007,30.072288288292974 L-10.902182439188948,29.961787968213365 L-10.786225574780799,29.848913763011822 L-10.67125045755451,29.733699549788284 L-10.557291595159807,29.61617990795271 L-10.444383190236367,29.496390108846704 L-10.332559130148546,29.374366105157502 L-10.221852976814702,29.250144520127428 L-10.112297956634201,29.123762636562077 L-10.003926950515122,28.995258385640597 L-9.896772484005707,28.864670335531375 L-9.790866717532365,28.732037679816468 L-9.686241436747352,28.597400225728403 L-9.582928042988888,28.46079838220278 L-9.480957543856611,28.32227314775024 L-9.380360543905242,28.181866098151566 L-9.281167235459193,28.039619373979473 L-9.183407389550895,27.895575667950883 L-9.087110346985572,27.749778212113508 L-8.99230500953515,27.602270764870557 L-8.899019831263915,27.453097597847435 L-8.807282809988564,27.302303482604465 L-8.717121478875171,27.149933677199527 L-8.628562898175641,26.99603391260471 L-8.541633647106032,26.84065037898094 L-8.45635981586933,26.683829711814944 L-8.372766997824963,26.52561897792242 L-8.290880281807404,26.36606566132184 L-8.210724244596241,26.20521764898296 L-8.132322943539906,26.04312321645448 L-8.055699909335303,25.879831013374993 L-7.980878138965508,25.71539004887171 L-7.907880088797665,25.549849676851306 L-7.836727667843101,25.38325958118723 L-7.767442231181763,25.215669760808016 L-7.700044573552875,25.047130514691048 L-7.634554923113777,24.877692426766224 L-7.570992935368832,24.70740635073415 L-7.509377687270188,24.536323394803347 L-7.449727671492182,24.364494906351073 L-7.392060790881101,24.191972456512328 L-7.33639435308198,24.018807824701756 L-7.2827450653440415,23.845052983073032 L-7.231129029506308,23.670760080920356 L-7.181561737164947,23.495981429026816 L-7.13405806502375,23.32076948396429 L-7.088632270429164,23.145176832349552 L-7.045297987091211,22.96925617506138 L-7.004068220991596,22.793060311423403 L-6.964955346480189,22.616642123357312 L-6.927971102561103,22.440054559511367 L-6.893126589369439,22.263350619368826 L-6.860432264839792,22.08658333734112 L-6.8298979415675145,21.909805766850667 " />
			<path d="M-21.199061299972694,21.651609639932083 L-21.270766398796038,21.808652947265767 L-21.337115618273625,21.965212795867266 L-21.39821227902249,22.12082522077037 L-21.45413266618744,22.275070755350843 L-21.50492587391882,22.42756775804418 L-21.550613386767928,22.577966103250958 L-21.59118839800008,22.725941236429712 L-21.62661486482532,22.87118859337739 L-21.656826300546722,23.013418383697367 L-21.68172493634865,23.152354621171682 L-21.701195220021336,23.28785847100585 L-21.71506409377253,23.419797253314805 L-21.72308810491977,23.547960827742262 L-21.72495841910381,23.672088279127575 L-21.72029941748699,23.791861666715498 L-21.708667460496557,23.906899538947748 L-21.70007912028512,23.962504438107608 L-21.689549352114295,24.01675252962933 L-21.67700328671164,24.069574032692113 L-21.662365001292663,24.12088425479661 L-21.645556106728982,24.170595026666255 L-21.62649569168666,24.21861503830405 L-21.60510034284591,24.26484979343105 L-21.581291532136383,24.309188749215934 L-21.55500122919931,24.351505292679587 L-21.52616511379508,24.391675991244337 L-21.494721712852048,24.429581829307455 L-21.460607542559995,24.465112207252186 L-21.423805292400314,24.498120955412958 L-21.384325274597707,24.528465864789716 L-21.342193708146628,24.55602357293073 L-21.29745282350989,24.58068910807048 L-21.250160967317164,24.602375433267515 L-21.20039270706341,24.62101299054231 L-21.148285263712364,24.636537156469934 L-21.094005046536772,24.648910190163225 L-21.037688678500814,24.658130324584974 L-20.97949020648629,24.664212491398825 L-20.919580921670562,24.66718880794019 L-20.858149147912386,24.667109074918862 L-20.795400030137614,24.66404127412174 L-20.731552049033247,24.658071722443996 L-20.666777685065306,24.649296091800124 L-20.601200699234223,24.637807781131684 L-20.53494254073349,24.62369897187648 L-20.46812391878013,24.607061040003078 L-20.400864690022296,24.587984838134503 L-20.333283745946822,24.566560977671912 " />
			<path d="M-20.333283745946815,24.566560977671912 L-20.233673358191968,24.531023080234544 L-20.13398797736046,24.490902389901684 L-20.034443880285632,24.446422310192105 L-19.93521485106271,24.39776841574732 L-19.836496801797182,24.345119690106895 L-19.738468496661312,24.288633653377335 L-19.64129357661444,24.228447141375714 L-19.54512261701709,24.164677043780955 L-19.450095218138895,24.09742100129269 L-19.356342128560318,24.026758061797782 L-19.26398740146816,23.952749295544415 L-19.17315477047086,23.87544202923702 L-19.083990934732235,23.794891005183047 L-18.996653261667966,23.711151776389638 L-18.91130237696665,23.624275247962565 L-18.828103241142628,23.534308827032444 L-18.747226213567128,23.441297637147848 L-18.668848091914874,23.34528578738952 L-18.59315312702625,23.246317696205672 L-18.520333995166546,23.14443944387733 L-18.45058237142947,23.03968406463261 L-18.384149097617623,22.932166408356853 L-18.321312939410856,22.822059342895137 L-18.26234479159849,22.709545774090575 L-18.207507566978084,22.594818922198773 L-18.15705608525419,22.478082598302315 L-18.11123696193716,22.35955148072525 L-18.070291777263904,22.239461663014836 L-18.03448616049793,22.118186250648886 L-18.004069313266218,21.99618453992114 L-17.979241531353374,21.873920330090677 L-17.960154473333294,21.751859673702373 L-17.946911696412315,21.630469368813472 L-17.93956919227233,21.510215451220127 L-17.938135032436936,21.39162713231762 L-17.942556863475772,21.275232178080948 L-17.952730481348652,21.161469447930028 L-17.968507706069808,21.050762961862166 L-17.98969754730213,20.943519758177317 L-18.016067366996083,20.84012767225142 L-18.04734937671603,20.74093707541766 L-18.083278932159118,20.64617800988131 L-18.123594919113305,20.556028619926185 L-18.168031607577404,20.470653675916342 L-18.216319052462797,20.390204083615068 L-18.268183508994458,20.31481634198863 L-18.323348456404023,20.244611267111367 L-18.38156890720219,20.179657858817595 L-18.442632891191106,20.119993341329725 L-18.50633538655832,20.06565955366538 L-18.572481822243525,20.01669785131594 L-18.640887619460088,19.97314946001329 L-18.711377733216597,19.935055829496598 L-18.783786193838445,19.90245898727909 L-18.85795587471631,19.87540181916133 L-18.933757393639095,19.853923760448588 L-19.011063052399333,19.838072853873186 L-19.089739128833664,19.827904040785235 L-19.169657560409235,19.82347418763944 L-19.250695528892912,19.824842024192893 L-19.332735045020467,19.832068081702786 L-19.415662533165776,19.84521463112416 L-19.499368276764898,19.86434558502449 L-19.58372544154626,19.88951949670923 " />
			<path d="M-19.58372544154627,19.889519496709234 L-19.6398732082879,19.909537652251863 L-19.69619799752523,19.93223493882771 L-19.752658057317706,19.957619093344043 L-19.809212418520556,19.985695710558623 L-19.86581634997078,20.016465754233646 L-19.922414840730926,20.049920400325846 L-19.978952659722815,20.08604528152586 L-20.035376066201366,20.124821384992963 L-20.09163355569259,20.166225632383814 L-20.14767889134836,20.21023383038938 L-20.203441943446197,20.256796683283856 L-20.25884895636121,20.305852106213873 L-20.313829283838714,20.357330476900525 L-20.368315233605248,20.41115491771814 L-20.475547068483657,20.525499914982536 L-20.580052223026197,20.648132920117554 L-20.68120613815907,20.777971393325007 L-20.778565498877864,20.91397488024127 L-20.87183628391317,21.05518683073849 L-20.960751302155163,21.200607454736506 L-21.045068465240025,21.349200383399914 L-21.124569814170794,21.499898599927203 L-21.19906129997268,21.65160963993205 " />
			<path d="M-15.400785694243005,29.89828557619863 L-15.304216746953212,29.928696981191816 L-15.204777488621657,29.95650834578127 L-15.102486582132354,29.981712965189413 L-14.997362690369325,30.004304134638677 L-14.889424476216584,30.024275149351478 L-14.77869060255815,30.041619304550245 L-14.665154167680372,30.056309879659775 L-14.548873992298272,30.068232417838832 L-14.430187954444229,30.07731285381117 L-14.309454251364691,30.083484369358906 L-14.187031080306117,30.086680146264175 L-14.063276638514958,30.0868333663091 L-13.938538704065591,30.083878353052175 L-13.812753237662953,30.07778149776612 L-13.685807326336464,30.068479085023544 L-13.557715352685687,30.055887678236125 L-13.42841144044204,30.0398874160238 L-13.298363255638103,30.020450227629368 L-13.168383278346338,29.997629746952423 L-13.039075185268414,29.971473897414945 L-12.910395751867624,29.941965018706856 L-12.782358966544514,29.90904700118968 L-12.65498636727797,29.872663364041003 L-12.528299492046878,29.832757626438397 L-12.402319878830124,29.789273307559448 L-12.277142229206007,29.742176685557098 L-12.153490979444221,29.691657516259845 L-12.031648754200882,29.637819648358278 L-11.911743660969883,29.58072386509134 L-11.793903807245117,29.52043094969799 L-11.678257300520482,29.457001685417172 L-11.564932245287974,29.390496853230776 L-11.45382013255476,29.32081061358807 L-11.344870126543956,29.24792531490196 L-11.238291675912258,29.172030136553335 L-11.134294229316364,29.0933142579231 L-11.033087235412971,29.01196685839215 L-10.934880142858779,28.928177117341377 L-10.839812668128445,28.842102692526822 L-10.74770323545396,28.753730255745808 L-10.658484725853668,28.663065497895968 L-10.572113338791091,28.570123082929065 L-10.48854527372975,28.47491767479687 L-10.407736730133163,28.377463937451143 L-10.329657348292718,28.27779435902976 L-10.254677507947362,28.17648915833437 L-10.182917413987598,28.073840764707615 L-10.114290265993025,27.96987419241468 L-10.048709263543241,27.864614455720755 L-9.986087606217845,27.758086568891024 L-9.926338493596434,27.65031554619068 L-9.86938084897292,27.54132317654503 L-9.815161837956396,27.431120949328403 L-9.763635928520438,27.319720893187267 L-9.714757514744846,27.207135143526088 L-9.668480990709421,27.093375835749338 L-9.62476075049396,26.97845510526148 L-9.583561336198805,26.86240643528131 L-9.544935669103204,26.745470650732173 L-9.508880888039634,26.62781098744485 L-9.475373770877889,26.509551668139828 L-9.444391095487749,26.39081691553759 L-9.415909639739004,26.271730952358624 L-9.389906178317553,26.15241799584107 " />
			<path d="M-9.3554837730161,25.97370873512558 L-9.33169512497303,25.830524375113193 L-9.311161909929082,25.686904213248887 L-9.293862470329607,25.54286332253039 L-9.27977514861996,25.398416775955422 L-9.268878287245492,25.25357964652169 L-9.26115022865156,25.108367007226924 L-9.25656931528352,24.962793931068838 L-9.25511388958672,24.816875491045167 " />
			<path d="M-9.25511388958672,24.81687549104515 L-9.25843572300263,24.60713203320581 L-9.268172294540353,24.39718560960817 L-9.284489426854135,24.187843824965668 L-9.30750468166072,23.97958726474066 L-9.337333195343069,23.772883947850865 L-9.374170872022807,23.567894129769893 L-9.395397165432517,23.46613535822427 L-9.418606869829183,23.364944648621044 L-9.4438838159181,23.26437997866958 L-9.471311834404569,23.16449932607924 L-9.50097475599388,23.065360668559393 L-9.532916577186345,22.967285907279233 L-9.567228300183267,22.870698961230072 L-9.60407321541633,22.775768891386452 L-9.643619515837582,22.68265613491671 L-9.6861448294703,22.591439789916883 L-9.73182880799919,22.50264810399197 L-9.780791982118362,22.41695440581819 L-9.833144154360646,22.335032400693795 L-9.88904647683528,22.257553256053626 L-9.948889702604113,22.185178905013956 L-10.013089549323185,22.118570316429732 L-10.046918140499901,22.087677213189497 L-10.081713201116075,22.058785459180402 L-10.1174311874108,22.032025435430786 L-10.15406500983085,22.007480111563176 L-10.191607578823005,21.985232457200105 L-10.23005180483404,21.965365441964106 L-10.269390598310736,21.94796203547771 L-10.30961686969985,21.933105207363443 " />
			<path d="M-10.309616869699862,21.93310520736344 L-10.370484119531987,21.91599805731135 L-10.432189558626083,21.90480074750687 L-10.494618948147375,21.89928941288983 L-10.55765804926108,21.899240188400057 L-10.621192623132423,21.904429208977387 L-10.684774381291854,21.914500536831568 L-10.747947435026624,21.928970878359046 L-10.810718415888916,21.947466324056975 L-10.873095317142754,21.96961338971579 L-10.935086132052168,21.995038591125912 L-10.996771515943985,22.023437843310703 L-11.058212181495394,22.054593722157264 L-11.119316482842635,22.088216066228405 L-11.179991264931388,22.124013681473567 L-11.299749031681756,22.20101425507671 L-11.4177342178139,22.284144877503063 L-11.534441984161738,22.372560626917622 L-11.650358939453547,22.465514325383015 L-11.76576582183401,22.562507620102906 L-11.880676890606074,22.663017655195276 L-11.995104320330173,22.766520514209567 L-12.222522707304368,22.980431864281197 L-12.448063357746738,23.20132748612144 L-12.672446680908841,23.42811812382775 L-12.896420610134934,23.659970276064076 L-13.120403708260655,23.896521081424446 L-13.344798526641048,24.137574538289655 L-13.570043124380136,24.383245455671595 L-13.795153851423915,24.63238581640986 L-14.018741758196748,24.88334583467494 L-14.23982664533222,25.135202765207186 L-14.45807863498962,25.388145971028887 L-14.673178466328464,25.64238276505943 L-14.88480687850826,25.898120460218205 L-15.09205727605087,26.15503376051883 L-15.292173021067452,26.411092244524895 L-15.48276476766926,26.664584590439755 L-15.662612445404061,26.915432309401282 L-15.748182060169992,27.040095473813423 L-15.830616180080202,27.164322479687456 L-15.909660656631704,27.288045365990776 L-15.984444116721745,27.410254572110137 L-16.05460932557398,27.53071862177892 L-16.119956466350583,27.649445183620223 L-16.18028572221372,27.766441926257155 L-16.235403934429165,27.881752827545917 L-16.28513567750457,27.99567213676009 L-16.32914424238558,28.107927468438813 L-16.36705934479508,28.21809797839477 L-16.39851070045595,28.325762822440645 L-16.423143386690036,28.430519998062262 L-16.44088984176058,28.53240189672938 L-16.45165034894123,28.631587550322507 L-16.455256054603005,28.728195216072557 " />
			<path d="M-16.45525605460301,28.728195216072578 L-16.454211283860786,28.778324125353933 L-16.451089899274102,28.827781522724294 L-16.44586686565661,28.87658494166417 L-16.438518634756335,28.92469057717616 L-16.429039433534705,28.971911231563478 L-16.417435180166375,29.018230059052147 L-16.403711997145756,29.063644388130097 L-16.38787600696726,29.10815154728526 L-16.369933332125306,29.15174886500556 L-16.34989009511431,29.194433669778917 L-16.327752418428688,29.236203290093272 L-16.30352642456285,29.27705505443655 L-16.27721715221291,29.31698727625192 L-16.248741119631525,29.35608033912419 L-16.21807782308932,29.39436257845291 L-16.18527649752086,29.431799973302375 L-16.150386377860713,29.46835850273689 L-16.113456699043436,29.50400414582076 L-16.074536696003598,29.53870288161828 L-16.033675603675764,29.572420689193763 L-15.946327090894368,29.636777435935798 L-15.851789393818072,29.696944207116438 L-15.75012783251333,29.753129913563235 L-15.641182293385222,29.80538660315767 L-15.52478937957977,29.853757437002038 L-15.40078569424303,29.89828557619862 " />
			<path d="M-12.357309879698759,31.122158997069036 L-12.417613631417563,31.157523476027514 L-12.478682944782177,31.186112628039055 L-12.54005765202157,31.207711028930177 L-12.601275284169386,31.222155931038458 L-12.661874555847074,31.22933848954414 L-12.721398841128494,31.229204582634555 L-12.779399614294737,31.221755219321274 L-12.835439829552497,31.207046531837047 " />
			<path d="M-16.83339417243988,29.874395084207922 L-16.885709934734756,29.890543024525158 " />
			<path d="M-14.00496704769369,30.817204125789985 L-14.057282809988564,30.833352066107224 " />
			<path d="M-29.43685530079597,13.57498091444686 L-29.43685530079597,8.360680789878707 " />
			<path d="M-30.275831608669137,14.259159833349218 L-30.176796366685487,14.156466426522767 L-30.075770099023917,14.058390726719335 L-29.972911154469074,13.9650864579973 L-29.868380754347232,13.87669986566391 L-29.762342739827634,13.793369487050093 L-29.65496331511751,13.715225934366744 L-29.54641078695324,13.642391689982874 L-29.43685530079604,13.574980914446494 " />
			<path d="M-30.275831608669186,14.259159833349116 L-30.322019098542455,14.305444209829409 L-30.36517554296011,14.357718137463696 " />
			<path d="M-31.7344819367228,17.976431262219776 L-31.73144247728997,17.85637740913502 L-31.725585074450365,17.735571595609603 L-31.716915571146686,17.614134329224484 L-31.705442615479896,17.492186747454635 L-31.691177652082445,17.369850496830587 L-31.674134910701902,17.247247611592226 L-31.654331392006338,17.124500391955813 L-31.631786850625627,17.001731282115692 L-31.606523775445584,16.87906274810237 L-31.57856736717459,16.75661715561881 L-31.547945513205104,16.63451664797683 L-31.514688759795117,16.51288302425531 L-31.4788302815973,16.391837617801805 L-31.44040584856625,16.27150117519873 L-31.399453790276844,16.151993735814862 L-31.356014957689272,16.033434512062314 L-31.310132682398955,15.915941770478426 L-31.26185273341189,15.799632713751183 L-31.21122327148866,15.68462336380587 L-31.15829480110255,15.571028446069569 L-31.10312012005976,15.458961275028951 L-31.045754266831946,15.348533641195532 L-30.98625446565361,15.239855699591134 L-30.924680069439145,15.133035859864806 L-30.861092500576433,15.028180678150804 L-30.795555189656106,14.92539475077551 L-30.728133512197534,14.82478060991932 L-30.658894723434702,14.72643862133759 L-30.587907891227005,14.630466884242647 L-30.5152438271619,14.536961133446761 L-30.440975015918138,14.446014643863663 L-30.365175542960014,14.357718137463916 " />
			<path d="M-31.734481936722524,17.976431262219695 L-31.73751298217867,18.0462186033895 L-31.734481936722524,18.11398524758854 " />
			<path d="M-30.365175542960003,20.819827443169313 L-30.440975015918134,20.782063918741645 L-30.5152438271619,20.740629969987722 L-30.587907891227,20.69556692856857 L-30.6588947234347,20.646919746278762 L-30.728133512197534,20.594736950205586 L-30.795555189656106,20.539070594321778 L-30.861092500576433,20.479976207560036 L-30.92468006943914,20.417512738421173 L-30.98625446565361,20.351742496171155 L-31.045754266831946,20.28273108868565 L-31.10312012005976,20.210547357004106 L-31.15829480110255,20.13526330665868 L-31.21122327148866,20.056954035846452 L-31.26185273341189,19.975697660516627 L-31.31013268239895,19.891575236447427 L-31.356014957689272,19.804670678390416 L-31.399453790276844,19.715070676362917 L-31.44040584856625,19.622864609171987 L-31.4788302815973,19.528144455256278 L-31.514688759795117,19.43100470093465 L-31.547945513205104,19.33154224615312 L-31.578567367174585,19.229856307824132 L-31.606523775445584,19.12604832085457 L-31.631786850625627,19.020221836961273 L-31.654331392006338,18.91248242137496 L-31.674134910701902,18.802937547535592 L-31.691177652082445,18.691696489884258 L-31.705442615479896,18.57887021485851 L-31.71691557114669,18.464571270199855 L-31.725585074450365,18.348913672683853 L-31.73144247728997,18.23201279438484 L-31.7344819367228,18.113985247588648 " />
			<path d="M-30.36517554296011,20.819827443169594 L-30.343976201433232,20.832580206529776 L-30.322019098542455,20.843330407858772 L-30.29930423428777,20.85207804715667 L-30.275831608669186,20.85882312442356 " />
			<path d="M-29.43685530079603,20.98368450474408 L-29.53203677996596,20.98891800977089 L-29.62647903422404,20.989558641118002 L-29.720070452417133,20.985605641692057 L-29.81270042890383,20.977063683118356 L-29.904259494267368,20.96394286021996 L-29.994639444685784,20.946258679087713 L-30.083733469806386,20.92403203875525 L-30.171436278973392,20.89728920650069 " />
			<path d="M-30.171436278973413,20.897289206500684 L-30.275831608669133,20.858823124423424 " />
			<path d="M-29.436855300795973,26.197984629311826 L-29.436855300795973,20.98368450474367 " />
			<path d="M-29.931905712541145,26.812405069065974 L-29.87852167147627,26.723567601340388 L-29.822372865702835,26.63770441427389 L-29.76361900592305,26.555059738704735 L-29.702427212702958,26.475868650677512 L-29.638971541111587,26.40035640278849 L-29.573432485635507,26.328737783472974 L-29.505996466776963,26.261216506057103 L-29.436855300795955,26.19798462931189 " />
			<path d="M-29.931905712541415,26.812405069065726 L-29.964688738297184,26.866448457134453 L-29.999506949245667,26.918233827884375 L-30.036212688706662,26.967541570493474 L-30.074650295390143,27.01416258123749 L-30.114656763522888,27.05789915025464 L-30.156062434121576,27.098565799991427 L-30.19869171448068,27.13599007177374 L-30.242363822824075,27.170013257167707 L-30.286893554962358,27.200491071028623 L-30.332092069704714,27.227294263383794 L-30.377767689694533,27.25030916755438 L-30.423726714272593,27.269438182191767 L-30.46977424092066,27.284600185184285 L-30.515714991801914,27.295730877678945 L-30.56135414189301,27.302783056759306 L-30.606498145195864,27.30572681562308 " />
			<path d="M-36.13391008332709,21.778314877492306 L-36.08466322462962,22.024857043643443 L-36.03003581253869,22.267709575592615 L-35.97006879440124,22.50669043713307 L-35.90480711999987,22.74162049416571 L-35.83429970785957,22.972323648973568 L-35.75859940857964,23.19862697222026 L-35.677762965218186,23.42036083257351 L-35.59185097075894,23.63735902385658 L-35.50092782269226,23.849458889632245 L-35.4050616747444,24.05650144512604 L-35.304324385791155,24.25833149639729 L-35.198791465994226,24.45479775666857 L-35.088542020200734,24.64575295972656 L-34.97365868864813,24.831053970309117 L-34.85422758501919,25.010561891395866 L-34.73033823189331,25.184142168321983 L-34.60208349364264,25.351664689637012 L-34.4695595068232,25.51300388463316 L-34.33286560811342,25.668038817469963 L-34.19210425985375,25.81665327782479 L-34.047380973243456,25.958735868001217 L-33.898804229252114,26.094180086429926 L-33.74648539730491,26.22288440749967 L-33.5905386518029,26.344752357658315 L-33.4310808865408,26.45969258772703 L-33.2682316270862,26.567618941373325 L-33.10211294118625,26.66845051969173 L-32.93284934726871,26.762111741843576 L-32.760567721106,26.848532401710493 L-32.58539720071234,26.927647720519214 L-32.407469089545074,26.99939839539808 L-32.22691675808289,27.06373064382901 " />
			<path d="M-32.226916758082865,27.06373064382902 L-32.13001467846968,27.094861468564826 L-32.03243116259215,27.123879949091673 L-31.934186839320713,27.15077995098748 L-31.835302477218573,27.17555578767036 L-31.735798980151266,27.198202221600738 L-31.635697382867658,27.218714465388594 L-31.535018846553246,27.237088182805444 L-31.43378465435677,27.253319489701067 L-31.332016206890987,27.26740495482455 L-31.229735017708666,27.279341600549678 L-31.126962708754682,27.289126903504382 L-31.02372100579518,27.296758795104186 L-30.92003173382485,27.30223566198947 L-30.815916812453146,27.305556346366565 L-30.711398251270573,27.306720146252484 L-30.606498145195946,27.305726815623327 " />
			<path d="M-35.93256688157255,20.81174390003459 L-35.96490366618516,20.866233529246497 L-35.995038141510484,20.922702635619594 L-36.022842513602065,20.980911745598128 L-36.04819886998921,21.040614006638492 L-36.07099967971889,21.101556234058727 L-36.091148249371805,21.163479984741297 L-36.10855913311877,21.22612265313577 L-36.12315849507839,21.289218584913524 L-36.134884422439505,21.352500203551617 L-36.14368718802029,21.415699145068373 L-36.14952946115077,21.478547396098303 L-36.152386465984286,21.540778430480234 L-36.15224608656665,21.60212833953846 L-36.14910891821732,21.6623369512637 L-36.14298826500481,21.721148933647672 L-36.13391008332691,21.778314877492193 " />
			<path d="M-26.365716086282635,14.598693985951305 L-29.43685530079597,13.57498091444686 " />
			<path d="M-26.560811770183225,14.213466602698709 L-26.63788737700958,14.15783542144713 L-26.713636825201366,14.09713613264817 L-26.78783871155646,14.031546150358668 L-26.86027615614194,13.961257183329678 L-26.930737436198527,13.886474674673272 L-26.999016604971455,13.807417201386045 L-27.064914093659034,13.724315835484433 L-27.128237294719476,13.637413468619155 " />
			<path d="M-28.856361936521466,18.26434622348127 L-28.876424354749165,18.429412466405264 L-28.89141055396215,18.593782039754835 L-28.901293348899586,18.757156773883274 L-28.90605481197661,18.91924030380182 " />
			<path d="M-28.90605481197661,19.0567942891707 L-28.901293348899586,19.21570351037125 L-28.89141055396215,19.3724897145414 L-28.87642435474917,19.526868488415644 L-28.85636193652147,19.678559785854493 " />
			<path d="M-28.906054811976333,18.919240303801757 L-28.906054811976333,19.056794289170604 " />
			<path d="M-27.663830975800874,20.07607010609444 L-28.85636193652118,19.67855978585434 " />
			<path d="M-17.37767435316536,32.013478112134855 L-17.28077227355218,32.04460893687066 L-17.183188757674646,32.07362741739751 L-17.084944434403216,32.100527419293314 L-16.986060072301072,32.12530325597619 L-16.886556575233765,32.14794968990657 L-16.786454977950157,32.168461933694424 L-16.68577644163575,32.18683565111128 L-16.58454224943927,32.2030669580069 L-16.482773801973487,32.217152423130386 L-16.380492612791166,32.229089068855515 L-16.27772030383718,32.23887437181022 L-16.174478600877684,32.24650626341002 L-16.07078932890735,32.2519831302953 L-15.966674407535649,32.2553038146724 L-15.862155846353076,32.25646761455832 L-15.757255740278445,32.25547428392916 " />
			<path d="M-15.75725574027837,32.255474283928905 L-15.712111736975512,32.25253052506514 L-15.666472586884414,32.24547834598477 L-15.62053183600316,32.23434765349011 L-15.574484309355093,32.2191856504976 L-15.528525284777034,32.200056635860214 L-15.482849664787217,32.17704173168963 L-15.437651150044859,32.15023853933445 L-15.393121417906576,32.11976072547353 L-15.349449309563182,32.08573754007957 L-15.306820029204076,32.04831326829726 L-15.265414358605389,32.00764661856047 L-15.225407890472644,31.96391004954332 L-15.186970283789165,31.917289038799304 L-15.150264544328168,31.867981296190205 L-15.115446333379687,31.816195925440283 L-15.08266330762392,31.762152537371563 " />
			<path d="M-14.057282809988564,30.833352066107224 L-14.128944962730353,30.859661887406205 L-14.200422987991018,30.890748982814213 L-14.271533231383364,30.92653347769235 L-14.342092983492487,30.966923427985726 L-14.411920949326158,31.011815056462908 L-14.480837714130995,31.061093019359316 L-14.548666204377593,31.114630702739472 L-14.615232142730152,31.17229054781665 L-14.680364495831611,31.233924404393985 L-14.74389591375377,31.299373911519016 L-14.805663159983254,31.368470904373545 L-14.865507530838567,31.441037846353364 L-14.923275263240544,31.516888285227726 L-14.978817929788523,31.595827332206404 L-15.031992820127105,31.67765216268358 L-15.082663307623642,31.762152537371797 " />
			<path d="M-29.43685530079597,20.983684504743678 L-28.376195129016153,21.337237895336948 " />
			<path d="M-16.885709934734756,29.89054302452516 L-16.953636181561315,29.915361411379862 L-17.02140563290173,29.944475118624396 L-17.088861855203948,29.97781694251802 L-17.155849137948646,30.01530991947552 L-17.22221285307886,30.056867503723737 L-17.287799811930977,30.10239376707689 L-17.352458618843098,30.151783620369475 L-17.416040020624646,30.204923056035653 " />
			<path d="M-17.416040020624667,30.204923056035593 L-17.416040020624667,29.680179801479657 " />
			<path d="M-17.416040020624663,30.204923056035593 L-29.436855300795973,26.197984629311822 " />
			<path d="M-27.76789613880894,28.527390100298682 L-27.711487307175545,28.563393333809646 L-27.68865244268616,28.5751420155165 L-27.66976966905778,28.58276796787722 " />
			<path d="M-27.669769669057775,28.58276796787722 L-27.65628885317177,28.586132428491727 L-27.647436438653273,28.58582077761202 " />
			<path d="M-27.64743643865327,28.58582077761202 L-27.644479535204812,28.58363899476309 L-27.643886851596523,28.579883702121144 L-27.650851981481466,28.567577813926825 L-27.671106193649944,28.54865922948988 L-27.708258201416264,28.52271417326307 L-27.766802987301187,28.489534850278844 L-27.852533354463002,28.448804924641237 L-27.97211561249694,28.40027572733412 L-28.1276973968184,28.345217048903923 " />
			<path d="M-28.127697396818412,28.345217048903915 L-30.27863867649769,27.713132140023667 " />
			<path d="M-20.27982248443018,31.03105955621701 L-21.588582272282938,30.609842131408456 " />
			<path d="M-19.672148799712573,31.24865331175142 L-20.27982248443016,31.031059556217016 " />
			<path d="M-18.7232937397602,13.154903581558962 L-18.67342416770798,13.068737273510338 L-18.626445701882155,12.979214374951578 L-18.58242294236346,12.886457988805976 L-18.54141642484138,12.790595664365082 L-18.50348253737151,12.691759221895698 L-18.46867344283636,12.590084571373836 L-18.437037007216176,12.48571152559495 L-18.40861673376846,12.378783607917367 L-18.38345170320662,12.269447854903353 L-18.3615765199601,12.157854614129153 L-18.343021264589837,12.044157337442066 L-18.327811452424484,11.92851236994883 L-18.315967998474278,11.811078735025497 L-18.307507188670833,11.692017915644415 L-18.302440657472335,11.571493632319013 L-18.300775371865015,11.44967161797176 " />
			<path d="M-19.286630686296302,8.486765063323002 L-19.350198840813125,8.403850019527352 L-19.41520675685728,8.323180824935402 L-19.48158878513373,8.24483894463753 L-19.549277888678,8.168903493448141 L-19.61820571055451,8.095451156010306 L-19.688302642887944,8.024556109354524 L-19.759497897157903,7.956289947989855 L-19.8317195756858,7.890721611603051 " />
			<path d="M-19.83171957568581,7.89072161160304 L-19.955150599353868,7.786829884555057 L-20.08092020221338,7.691032932411319 L-20.144570215638446,7.6462562190819945 L-20.208670023664038,7.603603713442332 L-20.2731739575885,7.563105803797928 L-20.338036060785694,7.524791343385787 L-20.403210121447326,7.488687629817482 L-20.468649705507165,7.454820385630637 L-20.53430818972354,7.423213739962579 L-20.60013879489665,7.393890211359237 L-20.666094619196997,7.36687069173153 L-20.73212867158116,7.342174431470664 L-20.798193905271155,7.31981902573295 L-20.864243251273482,7.299820401903919 L-20.930229651914036,7.282192808250659 L-20.996106094364897,7.266948803770463 L-21.061825644139233,7.25409924924301 L-21.127341478530337,7.243653299492477 L-21.192606919971034,7.2356183968650605 L-21.257575469289733,7.230000265926595 L-21.322200838839287,7.2268029093840065 L-21.386436985475232,7.226028605233541 L-21.450238143359787,7.227677905137776 L-21.513558856568295,7.231749634032578 L-21.576354011474844,7.238240890964297 L-21.638578868894054,7.247147051156586 L-21.700189095956034,7.258461769305372 L-21.761140797691915,7.2721769840996595 L-21.82139054830733,7.288282923964902 L-21.880895422121682,7.30676811402488 " />
			<path d="M-21.880895422121693,7.306768114024884 L-21.969141541621376,7.339119418761147 L-22.055453863981736,7.376800347396343 L-22.139692509968288,7.419749833569285 L-22.221720960982157,7.467898272603803 L-22.301406280304462,7.52116763431128 L-22.378619328535844,7.57947158944772 L-22.453234972882015,7.642715649620398 L-22.525132289946104,7.710797320417388 L-22.5941947616992,7.783606267511758 L-22.66031046431146,7.861024495471284 L-22.723372249537825,7.942926538983876 L-22.783277918364274,8.029179666188824 L-22.839930386633323,8.119644093784332 L-22.893237842380287,8.214173213562741 L-22.943113894625306,8.312613830006315 L-22.98947771338007,8.414806408558517 " />
			<path d="M-19.678674199847332,8.082086297897114 L-19.613674689172214,8.141097800645245 L-19.549598960329252,8.202537345873449 L-19.48651172122916,8.266342887863651 L-19.424476681540302,8.332449991557702 L-19.36355648835046,8.400791897628153 L-19.303812662901652,8.471299589896237 L-19.245305538461913,8.543901865028992 L-19.188094199396776,8.618525404445071 " />
			<path d="M-19.188094199396772,8.618525404445077 L-19.08755136194327,8.759179123342328 L-18.991820714107725,8.905798449474036 L-18.901221973024317,9.057893709868942 L-18.81605771650396,9.214956943264111 L-18.73661237249784,9.376463596572297 L-18.66315126917707,9.541874276761966 L-18.59591974880098,9.710636552299132 L-18.53514234833352,9.882186798134635 L-18.481022049544258,10.055952078075034 L-18.433739601098555,10.231352058250467 L-18.393452914900863,10.407800945288958 L-18.360296538707285,10.584709442724133 L-18.334381206768725,10.761486719102418 L-18.315793470005353,10.937542381216728 L-18.304595406947534,11.112288445876516 L-18.300824416408613,11.28514130362894 " />
			<path d="M-18.300824416408613,11.285141303628953 L-18.30312510565288,11.420537811746899 L-18.3101035209093,11.554094767801116 L-18.321744993134356,11.685531427134105 L-18.338025051261695,11.814571502078062 L-18.358909473641784,11.94094374272797 L-18.384354359977845,12.064382507125025 L-18.41430622360687,12.184628319651802 L-18.4487021039318,12.301428416465441 L-18.487469698768404,12.414537276822246 L-18.53052751632879,12.52371713917689 L-18.577785046521974,12.6287385009713 L-18.62914295121148,12.72938060106268 L-18.684493273029993,12.825431883776544 L-18.74371966231217,12.916690443609319 L-18.80669762166854,13.002964449645708 L-18.87329476768642,13.084072548798666 " />
			<path d="M-22.63621870783054,8.883236102847444 L-22.596718204964404,8.754274294371982 L-22.551834636148737,8.629974242248275 L-22.501684818455487,8.510659458365291 L-22.446399275259147,8.396640479609026 L-22.38612189652763,8.288214059637786 L-22.32100956432432,8.185662396530653 L-22.251231744495986,8.089252398319296 L-22.17697004560927,7.999234988314711 L-22.09841774628373,7.915844452036923 L-22.01577929215155,7.839297827447321 L-21.92926976375325,7.769794340070684 L-21.88463333014113,7.737741031648671 L-21.83911431675424,7.707514884477105 L-21.79274234614292,7.679135568920072 L-21.74554759593914,7.652621553473292 L-21.697560779217728,7.627990092745307 L-21.648813124509097,7.605257216228656 L-21.599336355476574,7.584437717868309 L-21.549162670271485,7.565545146434158 L-21.498324720579483,7.548591796703856 L-21.446855590371673,7.533588701461694 L-21.394788774374486,7.520545624318764 L-21.34215815627219,7.509471053359068 L-21.288997986656327,7.500372195615698 L-21.235342860736303,7.493254972380694 L-21.1812276958258,7.488124015351621 L-21.1266877086195,7.484982663617393 L-21.016475493314925,7.484675657150515 L-20.904993060735762,7.492334752016265 L-20.792530562750287,7.507940014126078 L-20.679380702012594,7.531450828148451 L-20.565837970154494,7.5628060032172035 L-20.45219788132127,7.601923932191051 L-20.338756203046174,7.648702804049978 L-20.225808186465475,7.703020868875619 L-20.113647797877448,7.764736754725995 L-20.00256695364544,7.8336898355798805 L-19.892854760436194,7.909700649393167 L-19.7847967627709,7.992571365179151 L-19.67867419984735,8.082086297897096 " />
			<path d="M-19.55766249508213,9.872239836020915 L-19.510889394801033,9.974597081055242 L-19.468473565510592,10.079398672523883 L-19.430596638303633,10.186195833922735 L-19.39742080799742,10.294531243410889 L-19.369088138590577,10.403940992132963 L-19.34571995492321,10.51395657074804 L-19.32741632314534,10.624106875658587 L-19.31425562221825,10.733920226348397 L-19.30629420828379,10.842926385190964 L-19.30356617333868,10.950658571079193 L-19.30608319924737,11.056655458253765 L-19.313834507718504,11.16046315177086 L-19.3267869064592,11.261637131149993 L-19.344884931309565,11.359744153878944 L-19.36805108374873,11.45436411062473 L-19.396186162755413,11.545091824206235 " />
			<path d="M-20.06118610633059,9.190937217946205 L-19.988134134150737,9.259219008025841 L-19.9173957977197,9.33300850327534 L-19.849274009454017,9.411989725747667 L-19.7840604773093,9.495824465722784 L-19.722034455641946,9.58415372997357 L-19.663461549399152,9.676599279029952 L-19.608592576757715,9.77276524685837 L-19.557662495082134,9.872239836020912 " />
			<path d="M-20.689907710959773,8.872566858437892 L-20.61015108383221,8.88847714305333 L-20.53004452038115,8.911482706421765 L-20.44993104920947,8.941485035188974 L-20.37015372849998,8.978355654777136 L-20.291054176987583,9.021936679532693 L-20.212971111095445,9.072041488816962 L-20.136238894499247,9.128455526144357 L-20.06118610633059,9.190937217946203 " />
			<path d="M-21.660676594511553,9.545745869039433 L-21.627693067665028,9.459298908620523 L-21.590002333504344,9.377502880520307 L-21.54776578953956,9.300708047888666 L-21.50116429913621,9.229243257988685 L-21.450397417030594,9.16341453402219 L-21.395682534805754,9.103503764691414 L-21.337253949987364,9.049767497108302 L-21.275361862745736,9.002435838220388 L-21.210271304500285,8.961711469457516 L-21.142261003014298,8.927768778818848 L-21.071622188839875,8.900753114116679 L-20.99865734822398,8.880780160574778 L-20.92367892781589,8.86793544544652 L-20.84700799672269,8.862273971774037 L-20.768972871642063,8.863819982856763 L-20.689907710959783,8.87256685843789 " />
			<path d="M-21.753272781419547,10.148443526571638 L-21.753297549385202,10.138676980262733 " />
			<path d="M-21.753297549385202,10.13867698026272 L-21.75185288123895,10.059197018097198 L-21.74747466605759,9.980882929345242 L-21.74017340202196,9.903922497254392 L-21.72996659626383,9.828500259244414 L-21.716878722886932,9.754797064419419 L-21.70094116428243,9.682989639923893 L-21.6821921358795,9.61325016718245 L-21.66067659451156,9.545745869039445 " />
			<path d="M-19.396186162755413,11.545091824206242 L-19.42056740715725,11.610575483705022 L-19.44763651877863,11.673474891271969 L-19.477327823331322,11.733637442201017 L-19.509569284639163,11.790917171867763 L-19.54428267941013,11.845175109864575 L-19.581383787019416,11.896279617166542 L-19.620782593843035,11.944106705510222 L-19.66238351164626,11.988540338210363 L-19.706085609497013,12.029472711684704 L-19.751782858641512,12.066804517003892 L-19.79936438974819,12.100445180831892 L-19.848714761895586,12.130313085172387 L-19.89971424265175,12.156335765387967 L-19.95223909856559,12.178450086011717 L-20.00616189536534,12.196602393924644 L-20.061351807135868,12.210748648527314 " />
			<path d="M-19.557662495082326,9.872239836021052 L-19.582611887939127,9.98231684005177 L-19.604333966926905,10.092638594138858 L-19.62239467614269,10.203238015814406 L-19.63635995968353,10.31414802261051 L-19.6457025257865,10.42577315506132 L-19.649911236092628,10.537907662144473 L-19.648576264804852,10.649669024057298 L-19.641287786126128,10.760174720997119 L-19.627780803086818,10.868330202842266 L-19.608392484099657,10.97362616753763 L-19.58361625144114,11.076057967380386 L-19.553945527387754,11.175620954667712 L-19.519873734215995,11.272310481696787 L-19.48189429420236,11.366121900764782 L-19.440500629623337,11.457050564168878 L-19.39618616275542,11.545091824206244 " />
			<path d="M-20.28785353702081,9.426994247956932 L-20.210524729473455,9.491553044083952 L-20.128303896760595,9.553306141508422 L-20.041506765625822,9.61243461740923 L-19.95044906281272,9.669119548965261 L-19.855696097541294,9.723430099475753 L-19.758125021182465,9.77535085580461 L-19.658519323706162,9.824936030477742 L-19.557662495082333,9.87223983602105 " />
			<path d="M-20.689907710959737,8.872566858438224 L-20.657675710311747,8.942818277908904 L-20.621123862317784,9.01347730701694 L-20.579850905186305,9.084139287452972 L-20.53345557712575,9.154399560907645 L-20.481484880749473,9.223948459734926 L-20.423490484235877,9.292654981173627 L-20.35907812414098,9.36038246424166 L-20.28785353702081,9.42699424795693 " />
			<path d="M-21.660676594511553,9.545745869039433 L-21.611320407044694,9.487773270413394 L-21.58035708180709,9.45625856495522 L-21.54451402800925,9.422780855322774 L-21.502992098795435,9.386956610450618 L-21.45529687931831,9.348628558542295 L-21.341146238952206,9.26498638899851 L-21.203070405819393,9.173533526125699 L-21.045451746550313,9.076447329462187 L-20.87287070148406,8.975525779926766 L-20.689907710959737,8.872566858438224 " />
			<path d="M-21.752458646940827,10.198752963468829 L-21.749328769413538,10.117176811455717 L-21.74345889989693,10.03533764419885 L-21.73502719452475,9.953359864350025 L-21.724211809430752,9.871367874561042 L-21.711190900748683,9.789486077483692 L-21.696142624612293,9.707838875769776 L-21.660676594511553,9.545745869039436 " />
			<path d="M-19.396186162755416,11.545091824206246 L-19.644619590098138,11.68571791611542 L-19.76081510358385,11.754273576649199 L-19.87079585290841,11.82164455410561 L-19.972739453742694,11.887046911301667 L-20.064225830321192,11.949264142415615 L-20.143278082507177,12.007141097693127 L-20.210392476511405,12.060646484409592 " />
			<path d="M-21.14849503889124,10.401561530363246 L-19.557662495082322,9.872239836021054 " />
			<path d="M-20.39144439321035,11.876246586473727 L-19.396186162755413,11.545091824206244 " />
			<path d="M-21.14849503889124,10.401561530363246 L-21.08521686275662,11.057106657195057 " />
			<path d="M-22.273100624500906,9.399346599478534 L-20.689907710959737,8.872566858438223 " />
			<path d="M-21.726982914564758,9.890807597327662 L-21.14849503889124,10.40156153036324 " />
			<path d="M-29.42278737377165,29.080233286652632 L-29.504505214355266,29.105060805465023 L-29.58759918101861,29.125408057082183 " />
			<path d="M-29.587599181018618,29.125408057082183 L-29.661965335787855,29.139617976027772 L-29.7372385227237,29.15030424216943 L-29.813340247303795,29.1574557119195 L-29.890191151010658,29.161064927759245 L-29.967711094086365,29.1611281260155 L-30.04581923910191,29.15764524078543 L-30.12443413525409,29.150619904005232 L-30.203473803302032,29.14005944166278 L-30.28285582105473,29.125974866158124 L-30.362497409320543,29.10838086481981 L-30.442315518228916,29.08729578458899 L-30.52222691383442,29.062741612887333 L-30.602148264912685,29.034743954688643 L-30.68199622985783,29.00333200581812 L-30.76168754359069,28.968538522507068 L-30.84113910438723,28.93039978723488 L-30.92026806053665,28.888955570893827 L-30.99899189673874,28.84424909131616 L-31.077228520150456,28.796326968206774 L-31.15489634599193,28.74523917452837 L-31.231914382622715,28.691038984389916 L-31.308202315999466,28.633782917492653 L-31.383680593427044,28.573530680191602 L-31.458270506515703,28.510345103234076 L-31.531894273257812,28.44429207624008 L-31.60447511913857,28.375440478992907 L-31.675937357196105,28.303862109611643 L-31.74620646694747,28.229631609680414 L-31.815209172098264,28.152826386412524 L-31.882873516954803,28.07352653193055 L-31.949128941459165,27.99181473974667 L-32.013906354768864,27.90777621853028 " />
			<path d="M-32.01390635476888,27.90777621853026 L-32.094922009264586,27.796433929671437 L-32.173242530984645,27.681581469831052 L-32.2487328820567,27.563416864143143 L-32.32126290430294,27.44214384844333 L-32.39070754365491,27.317971517993676 L-32.456947065767906,27.19111396696696 L-32.519867262463336,27.06178991931197 L-32.579359648643,26.930222351636353 " />
			<path d="M-32.61346708418073,26.915546272891113 L-32.56055311188343,27.03122901580236 L-32.5046929093002,27.144946871738917 L-32.44597886710137,27.256511755651854 L-32.38450809610043,27.365739143426843 L-32.32038226663646,27.4724483770801 L-32.25370744041517,27.57646296355987 L-32.184593895086905,27.677610866659297 L-32.113155941851495,27.775724791557796 " />
			<path d="M-10.159678664523543,22.003969659567172 L-10.264834508627164,21.949829953705116 " />
			<path d="M-10.779748837133214,21.937846851177067 L-10.649386856454946,21.971454036484282 L-10.523915343209408,22.007069469326268 L-10.403612477801161,22.044614187432945 L-10.288744981328108,22.084004951154117 L-10.179567524239438,22.12515442800846 L-10.07632216171083,22.167971386306622 L-9.97923779698872,22.212360897419206 L-9.888529673893457,22.258224546241127 " />
			<path d="M-9.58125106854382,26.401010186901356 L-9.528713481309055,26.351310458846616 L-9.482962136866627,26.300870638518493 L-9.444090370815541,26.249793626299518 L-9.412177483985381,26.198183622483445 L-9.38728858065766,26.146145914700178 L-9.369474435749032,26.0937866631224 L-9.358771391227279,26.041212683892226 L-9.355201281971437,25.98853123120958 " />
			<path d="M-9.355201281971437,25.988531231209574 L-9.359206602461414,25.9327327835633 L-9.371213396735785,25.877062044868833 L-9.391194184189336,25.821646431783538 L-9.419103233703556,25.766612777044873 L-9.454876668313943,25.712087039181394 L-9.498432611408706,25.65819401422458 L-9.54967137412422,25.605057050081363 L-9.608475683508376,25.552797764221037 " />
			<path d="M-9.60847568350838,25.55279776422103 L-9.67458881009523,25.501624406476417 L-9.747956162948235,25.45156156826488 L-9.828410408453866,25.40272343110306 L-9.915768049469317,25.355221383253603 L-10.009829843836169,25.30916376567482 L-10.11038125880471,25.26465562492053 L-10.217192960332518,25.22179847355366 L-10.330021336141264,25.180690058620065 L-10.448609051338819,25.141424138710594 L-10.572685635339393,25.104090270119848 L-10.701968098743105,25.06877360258944 L-10.836161578768003,25.035554685101527 L-10.97496001176246,25.00450928216559 L-11.11804683126413,24.97570820101746 L-11.265095690013306,24.94921713012477 L-11.415771204274002,24.925096489367004 L-11.569729718765082,24.903401292232076 L-11.72662009045683,24.8841810203435 L-11.886084489445322,24.867479510604525 L-12.047759215077967,24.853334855216474 L-12.211275525468848,24.841779314799453 L-12.376260478511913,24.83283924481347 L-12.542337782473902,24.826535035447865 L-12.70912865422695,24.822881065116093 L-12.876252683163504,24.821885667661967 L-13.043328698823112,24.82355111335211 L-13.209975640252278,24.827873603698034 L-13.375813425114538,24.834843280119586 L-13.54046381656856,24.84444424643003 L-13.703551285937088,24.85665460509152 L-13.864703869199223,24.8714465071582 L-14.02355401535251,24.888786215793072 " />
			<path d="M-9.933148243354687,25.92635427547361 L-9.881611640215336,25.972061794797963 L-9.836505787626002,26.018518560159134 L-9.797928232498428,26.065624103131622 L-9.765962403504272,26.113276552229152 L-9.740677430650404,26.161372853214196 L-9.722127995776855,26.20980899196535 L-9.710354214300636,26.25848021942056 L-9.705381548461276,26.30728127810974 L-9.7072207522556,26.356106629786943 L-9.715867848180917,26.404850683669643 L-9.731304135836844,26.453408024791727 L-9.753496232367203,26.501673641976225 L-9.78239614465453,26.54954315493478 L-9.817941373111049,26.59691304000277 L-9.860055046841646,26.643680854021877 L-9.90864608988657,26.689745455885895 " />
			<path d="M-9.908646089886581,26.6897454558859 L-9.949986956567114,26.724337253049782 L-9.994981380711124,26.75841869298593 L-10.04357277795142,26.79194691534557 L-10.095700040417066,26.824879755498724 L-10.151297613581784,26.857175797559865 L-10.210295578704432,26.88879442647196 L-10.27261974075784,26.919695879083417 L-10.338191721735457,26.949841294153654 L-10.478745310079319,27.007713368295768 L-10.63124953300868,27.062119623935516 L-10.794937482883535,27.11278646489102 L-10.968986011748218,27.159459099611745 L-11.15251987074762,27.20190282246489 L-11.344616111546527,27.23990419401449 L-11.544308727618338,27.273272114357777 L-11.750593512063228,27.301838784121394 L-11.962433107526966,27.32546054828471 L-12.17876222282551,27.344018618586922 L-12.398492990042215,27.357419670885097 L-12.620520435158097,27.365596314459196 L-12.84372803470463,27.368507430904067 L-13.066993330496002,27.36613838090416 L-13.289193574205632,27.358501077851173 L-13.509211373401767,27.345633927934447 L-13.725940310649541,27.32760163700531 L-13.938290507422366,27.304494885186678 L-14.145194104843066,27.276429870864177 L-14.345610633693429,27.243547726351963 L-14.538532246687613,27.206013808171722 L-14.722988786697611,27.164016865513865 L-14.898052665443798,27.117768091062512 L-15.062843528116844,27.067500058957496 L-15.216532680473671,27.013465555234035 L-15.358347256144654,26.955936306621616 L-15.424576284952101,26.92595091225042 L-15.487574103195659,26.895201614094578 L-15.547261485688045,26.863727082047312 L-15.60356337040031,26.831566898046 " />
			<path d="M-14.485309698473198,25.420043685769542 L-14.337108693354628,25.391964617518607 L-14.184567712796618,25.36659908133459 L-14.028133494634506,25.344021363777646 L-13.868264178600572,25.324297586886782 L-13.705427964597034,25.307485514532154 L-13.540101741506419,25.29363438324537 L-13.372769690555032,25.282784758023354 L-13.203921867319739,25.27496841352803 L-13.034052766530928,25.27020824102971 L-12.86365987387474,25.268518181366787 L-12.69324220903587,25.269903184118007 L-12.523298864247856,25.274359193106932 L-12.35432754263089,25.281873158281023 L-12.186823100597826,25.292423073930582 L-12.021276098597207,25.305978043135553 L-11.858171364437599,25.322498368251555 L-11.697986573400781,25.341935667170024 L-11.541190849302135,25.36423301501207 L-11.3882433905952,25.389325110841042 L-11.239592125544064,25.41713846890555 L-11.095672400402078,25.447591633852866 L-10.95690570443879,25.480595419282476 L-10.823698435549018,25.51605316894105 L-10.69644071005912,25.55386103979394 L-10.575505220216172,25.593908306144215 L-10.461246142706003,25.636077683908507 L-10.353998101396693,25.680245674100046 L-10.254075187345236,25.726282924512905 L-10.161770038937464,25.774054608548234 L-10.077352984855146,25.823420820073014 L-10.00107125238021,25.874236983154965 L-9.933148243354697,25.9263542754736 " />
			<path d="M-11.140299238323255,26.399556895376303 L-11.159872274462955,26.436770030489622 L-11.186704969684456,26.47347677682011 L-11.220682422267384,26.509519950444652 L-11.26165913554347,26.544745208960343 L-11.309459640935604,26.579001712402338 L-11.36387924934123,26.612142769163746 L-11.424684927642504,26.6440264641516 L-11.491616296589884,26.674516266489096 L-11.564386745786045,26.703481614161742 L-11.64268466099561,26.730798473103963 L-11.726174758525131,26.756349868332006 L-11.814499520959357,26.780026384848785 L-11.907280728105679,26.80172663617569 L-12.004121076591067,26.821357698505054 L-12.104605881176107,26.83883550861417 L-12.208304850500852,26.854085223836904 " />
			<path d="M-11.248488797750614,26.10288225193977 L-11.235016107369155,26.11439025053153 " />
			<path d="M-11.23501610736915,26.114390250531535 L-11.199790830391091,26.148672561890663 L-11.171086939140967,26.183623954510193 L-11.14901751079946,26.219106739569334 L-11.133669486496412,26.254981134860085 L-11.12510332881169,26.291105815450475 L-11.123352783586645,26.327338470425286 L-11.12842474698448,26.36353636351098 L-11.140299238323253,26.399556895376296 " />
			<path d="M-11.787195669793594,25.863986067302896 L-11.700299626775735,25.88824288370161 L-11.618349049949147,25.914342188771457 L-11.541694864265084,25.942172221281286 L-11.470665314714807,25.971613808759347 L-11.405564560734149,26.002540877808105 L-11.346671373746101,26.034820993969884 L-11.294237943418793,26.06831592883154 L-11.24848879775062,26.102882251939764 " />
			<path d="M-13.50209771344202,25.78294356768969 L-13.395628634284366,25.769987248975095 L-13.28684536223619,25.759379807714467 L-13.176213723969118,25.75116666659977 L-13.064207461142683,25.74538299556216 L-12.951306201769823,25.742053561168944 L-12.837993406376091,25.74119262056934 L-12.72475429774746,25.74280386044317 L-12.61207378313186,25.74688038121393 L-12.500434377791906,25.753404726593843 L-12.390314138800456,25.762348958334353 L-12.282184617926836,25.77367477586201 L-12.176508842379775,25.787333680287382 L-12.073739332053805,25.803267182084774 L-11.974316161769606,25.821407051553326 L-11.878665076806058,25.841675610987092 L-11.787195669793606,25.863986067302893 " />
			<path d="M-14.57010332561962,26.237471896150293 L-14.554100053189229,26.206095059172764 L-14.532934021171252,26.175059851736467 L-14.506669550722771,26.144460586296894 L-14.475386456573727,26.11439025053154 " />
			<path d="M-14.475386456573725,26.114390250531535 L-14.441599333858939,26.086771909137408 L-14.403578366085378,26.059772051723854 L-14.36142502519216,26.03346273663258 L-14.315251811767544,26.00791417925723 L-14.265181954802685,25.98319456464965 L-14.211349082812983,25.95936986554476 L-14.153896867204741,25.936503666289788 L-14.09297863883895,25.914656993147734 L-14.02875697881551,25.893888151427927 L-13.961403284570036,25.874252569878397 L-13.818026697929817,25.838587639964388 L-13.66437845526291,25.80804268556397 L-13.502097713442033,25.782943567689692 " />
			<path d="M-13.923206894149281,26.7730427242237 L-14.01010293716714,26.748785907824985 L-14.092053513993728,26.72268660275514 L-14.16870769967779,26.69485657024531 L-14.239737249228067,26.66541498276725 L-14.304838003208726,26.63448791371849 L-14.363731190196773,26.602207797556712 L-14.416164620524082,26.568712862695055 L-14.46191376619226,26.534146539586825 L-14.500782722336023,26.4986568465343 L-14.532605046117894,26.462395755851595 L-14.557244469461983,26.42551854309593 L-14.57459548257482,26.38818312215381 L-14.584583785754479,26.350549369029544 L-14.587166607553314,26.31277843723166 L-14.582332887931859,26.275032067688805 L-14.570103325619622,26.237471896150296 " />
			<path d="M-12.208304850500856,26.854085223836908 L-12.314773929658507,26.8670415425515 L-12.423557201706682,26.87764898381213 L-12.534188839973757,26.885862124926827 L-12.646195102800192,26.891645795964436 L-12.759096362173052,26.89497523035765 L-12.872409157566784,26.895836170957256 L-12.985648266195415,26.894224931083425 L-13.098328780811013,26.890148410312666 L-13.209968186150967,26.883624064932754 L-13.32008842514242,26.874679833192243 L-13.428217946016039,26.863354015664587 L-13.5338937215631,26.849695111239214 L-13.636663231889068,26.833761609441822 L-13.736086402173267,26.81562173997327 L-13.831737487136818,26.795353180539504 L-13.923206894149276,26.7730427242237 " />
			<path d="M-11.140299238323596,26.399556895376282 L-11.203254219475532,26.38038800262058 L-11.267024832070842,26.36570530164983 L-11.331720774037128,26.3561121604986 L-11.397451743301993,26.35221194720146 L-11.464576501063053,26.354788140228358 L-11.533072977669212,26.36451738193408 L-11.60247962477499,26.381842786180457 L-11.67233489403491,26.40720746682933 L-11.742016273868286,26.440825361957806 L-11.811139331742178,26.482160766322718 L-11.879599637882738,26.53053232880549 L-11.947292762516117,26.585258698287532 L-12.014114275868465,26.64565852365028 L-12.079959748165939,26.71105045377514 L-12.144724749634685,26.780753137543545 L-12.208304850500856,26.854085223836904 " />
			<path d="M-11.354314192987625,26.03035202908589 L-11.2990437474677,26.109201888527064 L-11.244755073804672,26.198513163768972 L-11.191760858647056,26.29603284585123 L-11.140299238323598,26.39955689537628 " />
			<path d="M-13.923206894149072,26.773042724223608 L-13.961207231723359,26.695796738600656 L-14.000083956662307,26.621538519246904 L-14.039740077859463,26.55116636629188 L-14.08007860420838,26.485578579865116 L-14.12095511944288,26.425727117237624 L-14.162313682999423,26.372281543463966 L-14.204190017325507,26.325716570348973 L-14.246619844868631,26.28650690969748 L-14.28906907262294,26.25544499498372 L-14.330977838324554,26.232653829991467 L-14.372343210533957,26.217603981989857 L-14.413162257811633,26.209766018248025 L-14.453443492621638,26.208554863619852 L-14.49311239862364,26.213253594920328 L-14.532041501171552,26.22313500736022 L-14.570103325619277,26.237471896150307 " />
			<path d="M-12.208304850500856,26.854085223836904 L-12.309391983943478,26.803346411407777 L-12.411788780943056,26.756684777550216 L-12.515671384019901,26.71464868027893 L-12.621215935694321,26.677786477608638 L-12.728998500646284,26.646701740685142 L-12.83898364152491,26.622082179090828 L-12.950430247804237,26.604602358495306 L-13.006470003429795,26.598750652843844 L-13.062597208958293,26.594936844568174 L-13.118642664304563,26.59323529717795 L-13.17448495497569,26.593611745134496 L-13.285476200582991,26.6002841356328 L-13.395403262361166,26.614325033152898 L-13.504098456891185,26.6351054547846 L-13.611394100754016,26.66199641761771 L-13.717122510530627,26.694368938742045 L-13.82111600280199,26.731594035247408 L-13.92320689414907,26.773042724223608 " />
			<path d="M-12.208304850500854,25.782943567689692 L-12.208304850500854,26.854085223836904 " />
			<path d="M-13.923206894149068,25.86398606730284 L-13.923206894149068,26.773042724223608 " />
			<path d="M-28.37619512901615,8.594864152463815 L-29.931905712541564,8.076293957955345 " />
			<path d="M-7.031241143322225,18.343115596868348 L-21.880483548239724,13.393368128562512 " />
			<path d="M-6.82989794156761,17.37654461941105 L-21.679140346485106,12.426797151105216 " />
			<path d="M-7.031241143322227,21.077463590562076 L-21.880483548239724,16.12771612225624 " />
			<path d="M-6.82989794156761,21.909805766850578 L-21.679140346485106,16.960058298544745 " />
			<path d="M-12.357309879698743,31.12215899706912 L-27.20655228461624,26.172411528763288 " />
			<path d="M-15.082663307624067,31.76215253737141 L-29.931905712541564,26.812405069065573 " />
			<path d="M-15.757255740278392,32.25547428392901 L-30.60649814519589,27.305726815623174 " />
			<path d="M-25.586133671729264,7.141381384768233 L-23.637862961677687,7.790804954785426 " />
			<path d="M-18.710517694069182,9.433253377321595 L-14.947799205530336,10.687492873501212 " />
			<path d="M-13.031365748699931,11.326304025778013 L-10.736891266811767,12.091128853074068 " />
			<path d="M-28.376195129016153,8.53187065384137 L-30.128368195342123,7.9478129650660465 " />
			<path d="M-12.835439829552504,31.207046531837044 L-27.684682234470003,26.25729906353121 " />
			<path d="M-32.22691675808286,27.06373064382902 L-30.27864604803128,27.713154213846213 " />
			<path d="M-27.669773280115542,28.582778469818127 L-21.588582288717095,30.60984213361761 " />
			<path d="M-19.672148780173597,31.24865330313211 L-17.37767435316536,32.013478112134855 " />
			<path d="M-21.88089542212169,7.306768114024886 L-23.527811572592604,7.854750647195578 " />
			<path d="M-18.300824416408616,11.285141303628958 L-18.30077537186524,11.449671617971758 " />
			<path d="M-19.188094199396772,8.618525404445078 L-19.28663068629648,8.486765063323134 " />
			<path d="M-29.42278737377165,29.08023328665263 L-27.724461810971725,28.512880160496376 " />
			<path d="M-32.113155941851474,27.77572479155782 L-32.0139063547687,27.907776218530117 " />
			<path d="M-9.355201281971437,25.988531231209574 L-9.355201281971437,23.668176000109685 " />
			<path d="M-9.908646089886581,26.6897454558859 L-9.581251068543965,26.401010186901193 " />

       </g>
    </g>
    
</svg>
