<?xml version="1.0" encoding="UTF-8" standalone="no"?>
<svg
   xmlns:svg="http://www.w3.org/2000/svg"
   xmlns="http://www.w3.org/2000/svg"
   width="1024.0"
   height="320.0"

>
    <g transform="scale(9.897970520435326, -9.897970520435326)   translate(36.77718225324985,-44.93647949607779)" stroke-width="1.0"  fill="none">
       <!-- hidden lines -->
       <g  stroke="rgb(32,64,32)" fill="none" stroke-dasharray="1.0,1.0" >

       </g>

       <!-- solid lines -->
       <g  stroke="rgb(64,192,64)" fill="none">
			<path d="M-14.480650612634774,24.157600487351267 L-14.538993068636085,24.093033928646676 L-14.594524975429808,24.02230254234701 L-14.646846273630128,23.9455670584491 L-14.695574015947278,23.863060657713053 L-14.740350234728924,23.775088443850215 L-14.780849567240372,23.68202490788131 L-14.816786329743836,23.584309362701436 L-14.84792074102048,23.482439429189238 " />
			<path d="M-14.528666872874247,24.151026015205048 L-14.569134343961908,24.108652254869522 L-14.608398813232032,24.063382859570357 L-14.646330882488586,24.01525270508023 L-14.682803380920337,23.964312139373828 L-14.717692521114168,23.9106271941003 L-14.750879066492372,23.854279607846948 L-14.782249490020503,23.79536665100032 L-14.811697103107159,23.734000746157516 L-14.839123133282966,23.670308882620404 L-14.864437729553368,23.604431828368792 L-14.887560875291044,23.53652314788388 L-14.908423190161084,23.466748039093353 L-14.926966604817776,23.395282007342164 L-14.943144894904966,23.32230939847553 L-14.956924064138251,23.248021816678804 L-14.968282569825309,23.172616455513793 " />
			<path d="M-14.135596308404304,24.135612278093134 L-14.174734970642977,24.073339225537907 L-14.21159757819763,24.007653310837036 " />
			<path d="M-14.214550885881179,24.002050365628627 L-14.25493217938188,23.91943670963579 L-14.291598995845227,23.832551044803576 L-14.324331990664671,23.741749753418365 L-14.35294599419099,23.647431011462167 " />
			<path d="M-15.413355972052067,22.05963325287346 L-15.44216829302948,22.17709425048617 L-15.466017982554039,22.295033769779316 L-15.484817109520604,22.413016981097748 L-15.498496363676386,22.530608893698766 L-15.507005311160004,22.647375959513745 L-15.510312580445424,22.762887671590768 L-15.508405978005223,22.876718151325033 L-15.501292533266742,22.988447718625036 L-15.488998472695386,23.097664439225575 L-15.471569123100611,23.203965643442732 L-15.449068744521119,23.306959410771416 L-15.421580293305356,23.406266014851887 L-15.389205116260857,23.501519323477876 L-15.352062577000044,23.592368148484542 L-15.310289615860087,23.678477540539514 L-15.264040245019398,23.75953002406313 L-15.213484980672158,23.835226767724972 L-15.158810214354418,23.905288686201136 L-15.100217525739604,23.969457469130244 L-15.037922939437085,24.027496533474483 L-14.9721561285339,24.079191895774493 L-14.903159567816077,24.124352961082145 L-14.83118763979156,24.162813225662546 L-14.756505696810697,24.194430890874454 L-14.679389082742164,24.219089385965816 L-14.6001221178113,24.236697797856937 L-14.518997050343618,24.247191206326704 L-14.436312979278325,24.250530923366096 L-14.352374751424389,24.246704635816496 L-14.267491837524863,24.235726450766904 L-14.181977191273308,24.21763684354271 L-14.09614609548894,24.192502508477737 " />
			<path d="M-15.413355972053928,22.059633252873112 L-15.436008443520349,22.175014719848257 L-15.453943663941754,22.290006782444387 L-15.467052322601324,22.40462594604784 L-15.475225108782242,22.518888716044945 L-15.478340235803236,22.632519714610687 L-15.476382838356512,22.744819027291776 L-15.469403987785453,22.855166354532113 L-15.457454755433451,22.962941396775598 L-15.440496399121828,23.068199102315518 L-15.418549691060727,23.170961689680517 L-15.391754974176752,23.270559764667556 L-15.360252591396511,23.366323933073595 L-15.324255314772092,23.457709380805458 L-15.283869255780537,23.54460380903514 L-15.239074766485892,23.62698659645733 L-15.189852198952206,23.704837121766708 L-15.13654622610533,23.777600759155277 L-15.07960206739331,23.844629741274193 L-15.019150894663486,23.9057637345069 L-14.955323879763192,23.960842405236836 L-14.887902612103526,24.009776261893172 L-14.816969005692398,24.052371485522993 L-14.743104719272374,24.08831125143661 L-14.666891411586018,24.117278734944342 L-14.588525219072102,24.139203454900652 L-14.50798238632245,24.1541686689875 L-14.425514734309203,24.162088160756436 L-14.341374084004508,24.16287571375902 L-14.25630626584677,24.15654146366144 L-14.170890064477321,24.14316638706541 L-14.085126732172702,24.122770528925756 L-13.999017521209456,24.095373934197312 " />
			<path d="M-14.096146095488933,24.192502508477734 L-14.03928342840007,24.17202344767858 L-13.982512727315498,24.14852783151697 L-13.925925809499628,24.122053660284603 L-13.869614194977691,24.092643751595748 L-13.813668958517155,24.060345671136766 L-13.758180582329278,24.02521165573646 L-13.703238809729028,23.9872985288816 L-13.64893249999004,23.946667608814284 L-13.595349484629375,23.903384609359776 L-13.542576425354492,23.857519533645213 L-13.490698673902196,23.809146560881068 L-13.439800133996265,23.758343926388477 L-13.389963125646979,23.705193795066506 L-13.341268252012053,23.649782128503933 L-13.293794269034304,23.592198545950527 L-13.247617958066883,23.5325361793727 " />
			<path d="M-13.247617958066872,23.532536179372684 L-13.183509643594265,23.44310104212789 L-13.122465918699744,23.349850543799157 L-13.064691765293391,23.253097815102162 L-13.010381186220531,23.153167747074733 L-12.95971655380944,23.050395900108285 L-12.912867997473803,22.945127377152055 L-12.86999283242626,22.837715664873908 L-12.831235031421452,22.728521446669003 L-12.796724741302384,22.617911391502183 L-12.766577845973563,22.506256922651133 L-12.740895577268367,22.393932970484766 L-12.719764175017401,22.28131671346495 L-12.703254597459267,22.16878631159929 L-12.691422282966187,22.05671963659789 L-12.684306963884596,21.945493002998198 L-12.681932533115837,21.835479904518824 " />
			<path d="M-12.681932533115837,21.835479904518806 L-12.68363601528709,21.74352483789876 L-12.688742357962811,21.65292695386926 L-12.69723925951623,21.56390451066838 L-12.709106250167268,21.476671971159227 L-12.72431474129602,21.39143948617015 L-12.742828094315247,21.308412388222973 L-12.764601708935952,21.227790696868958 L-12.78958313061337,21.14976863682421 L-12.817712176914561,21.0745341700653 L-12.848921082503178,21.002268543012406 L-12.88313466239208,20.933145849890828 L-12.920270493070557,20.86733261332272 L-12.96023911106979,20.80498738315954 L-13.002944228488184,20.74626035452154 L-13.048282964957352,20.691293005964592 L-13.096146095489933,20.640217758645942 L-13.14641831361216,20.593157657310044 L-13.198978509147253,20.55022607386299 L-13.253700059980437,20.511526434249674 L-13.310451137102712,20.477151969291604 L-13.369095022198486,20.447185490085715 L-13.429490437011966,20.42169918850517 L-13.49149188369885,20.40075446328281 L-13.554949995343389,20.384401772096233 L-13.619711895796353,20.372680510010838 L-13.685621567967083,20.36561891457365 L-13.752520229682311,20.3632339977866 L-13.820246716206336,20.365531505123123 L-13.888637868500984,20.372505901686804 L-13.957528926290019,20.384140385545436 L-14.026753924981081,20.400406928208348 L-14.09614609548892,20.421266342149476 " />
			<path d="M-13.84865872207364,20.833745297841634 L-13.77436720364441,20.812138346190594 L-13.700377208390385,20.796932865216665 " />
			<path d="M-13.999017521209453,24.095373934197312 L-13.905982084794624,24.057970208760185 L-13.813616604615333,24.01272676216056 L-13.72293444865131,23.960177320323034 L-13.634023372070013,23.90045865567757 L-13.546712567835883,23.833396684001396 L-13.461127001325254,23.75896089449445 L-13.378148957515503,23.6778689005289 L-13.298629184564644,23.59102873042455 " />
			<path d="M-12.682663820624391,21.896355285381276 L-12.685600412483343,21.828907039600928 L-12.690793302276722,21.762333213452163 L-12.698257939119022,21.696719807802502 L-12.707959809635733,21.63236627272228 L-12.719864363887188,21.56957218439234 L-12.733929314977685,21.508616982859856 L-12.750094527836863,21.449579416339876 L-12.768351948395733,21.392454412284124 L-12.788699971098655,21.337240431029013 L-12.811137788057268,21.283935673049903 L-12.835700444471659,21.232565171402644 L-12.862310390612237,21.183312046648588 L-12.890831691049247,21.136402001366868 L-12.92112841035294,21.09206073813663 L-12.953141328958843,21.050412274047595 L-12.986973337993522,21.011324259340835 L-13.022533262153457,20.974878014922815 L-13.059716005084091,20.941171999081305 L-13.098416470430863,20.910304670104075 L-13.138529561839212,20.882374486278895 L-13.179950182954576,20.857479905893534 L-13.222573237422397,20.835719387235763 L-13.266293628888112,20.817191388593347 L-13.311080731277327,20.8019284544911 L-13.356961860958718,20.789870161697976 L-13.403838754361123,20.781036037315484 L-13.451610805332287,20.775447403443152 L-13.50017740771995,20.7731255821805 L-13.549437955371854,20.774091895627063 L-13.599291842135742,20.778367665882357 L-13.649638461859354,20.785974215045915 L-13.700377208390423,20.79693286521726 " />
			<path d="M-13.050619722144159,23.228108486339384 L-13.043700513646213,23.126316233417977 L-13.032329809961688,23.025714256767646 L-13.01250540696163,22.902363979440892 L-12.986022030746277,22.777570958879792 L-12.952805052002015,22.65245286404964 L-12.912904940499494,22.528200336004076 L-12.866504025037372,22.406043436388824 L-12.813917323320878,22.287213795522383 L-12.755586960739015,22.172904729741756 L-12.692070244475914,22.06423193740504 " />
			<path d="M-13.457036182542364,23.755174897109857 L-13.487707024200692,23.65120660043137 L-13.512191029787612,23.54314369710368 L-13.530326902239862,23.431890236964904 L-13.542058026661048,23.318389602485446 L-13.547431535082781,23.20359845533715 L-13.546593310009225,23.088461085226818 L-13.53977940148887,22.97388553706318 L-13.52730455679227,22.860722674490788 L-13.511278073842833,22.75825789325052 L-13.490659697272838,22.65466945928588 L-13.465389002279514,22.55058777961479 L-13.435463892403185,22.44668313152822 L-13.400944209000807,22.343653209659802 L-13.36195350739711,22.242208919998447 L-13.318678786696022,22.143058965673685 L-13.271368073496733,22.046893884364014 L-13.220325889064423,21.95437026708193 L-13.16590676293369,21.866095902825187 L-13.108507080319391,21.782616549230205 L-13.048555653538028,21.704404929015567 L-12.986503478803234,21.63185240551698 L-12.922813173029992,21.565263613201175 L-12.857948579090026,21.504854128998733 L-12.792364985367907,21.450751086311648 L-12.757692866032931,21.424768870715003 " />
			<path d="M-12.721188609852922,21.56332479764521 L-12.781231425278577,21.620076206842057 L-12.840228928144395,21.68212940748143 L-12.8978108865985,21.749308692869143 L-12.953608090878989,21.82137244515496 L-13.007259486838533,21.89801469002413 L-13.058419434388044,21.978868589307428 L-13.10676480331173,22.063511831381724 L-13.1520016127197,22.151473774646675 L-13.193870934264305,22.242244099600885 L-13.232153812866196,22.33528263892299 L-13.266675009711031,22.43002999023129 L-13.297305436471955,22.525918478511436 L-13.323963221520897,22.622383027419048 L-13.346613422103335,22.718871520531845 L-13.36526646498023,22.814854281925932 L-13.379975456640398,22.90983237454141 L-13.390582989819173,23.00218662522339 L-13.397451732701583,23.095584643396062 L-13.400399036384407,23.18957189624382 L-13.399275283486702,23.2836652343944 L-13.39396847329444,23.37735994268467 L-13.384408078149658,23.470137826138487 L-13.3705679740506,23.561476093288167 L-13.352468281666136,23.650856741385628 " />
			<path d="M-13.753043677362967,23.978542016274123 L-13.794843825389755,23.9192630156135 L-13.834077205778868,23.855715342040906 L-13.870489475482803,23.788101164380546 L-13.903846158037464,23.716668417269815 L-13.933937139252903,23.641708297307936 L-13.960580725533378,23.563551609150014 L-13.983627109798599,23.482564045820798 L-14.002961111738017,23.399140539145154 L-14.018504089378059,23.313698861462207 L-14.030214955698915,23.226672695237824 L-14.038090274703846,23.138504410146925 L-14.042163452973966,23.049637796087335 L-14.042503082348334,22.96051099508274 L-14.039210524237737,22.871549856054607 L-14.03241685403061,22.783161906015792 L-14.022279303622852,22.695731092213926 L-14.00625282067342,22.593266310973682 L-13.985634444103427,22.489677877009044 L-13.960363749110103,22.38559619733796 L-13.930438639233778,22.281691549251388 L-13.8959189558314,22.178661627382965 L-13.856928254227704,22.077217337721613 L-13.813653533526594,21.978067383396798 L-13.766342820327315,21.881902302087152 L-13.71530063589502,21.78937868480509 L-13.660881509764259,21.70110432054831 L-13.603481827149961,21.617624966953326 L-13.543530400368596,21.539413346738687 L-13.481478225633802,21.466860823240104 L-13.417787919860558,21.4002720309243 L-13.352923325920594,21.339862546721864 L-13.28733973219849,21.28575950403479 L-13.216991352121976,21.234802125383446 L-13.144639799561403,21.18949008004878 L-13.070721423471534,21.15040235224307 L-12.995719447441449,21.118058389385943 " />
			<path d="M-12.867333082614168,21.174644423402718 L-12.93743761353281,21.206385860137434 L-13.006507324597258,21.243968721511546 L-13.074150069152354,21.28695669487387 L-13.140010632045911,21.33486920408565 L-13.205594225768088,21.388972246772695 L-13.270458819708129,21.44938173097511 L-13.33414912548144,21.51597052329089 L-13.396201300216314,21.58852304678946 L-13.456152726997756,21.6667346670041 L-13.513552409612112,21.750214020599064 L-13.567971535742902,21.838488384855786 L-13.619013720175246,21.93101200213783 L-13.666324433374571,22.02717708344746 L-13.70959915407571,22.126327037772235 L-13.748589855679446,22.227771327433594 L-13.783109539081849,22.330801249302006 L-13.8130346489582,22.434705897388568 L-13.838305343951538,22.53878757705965 L-13.85892372052154,22.642376011024282 L-13.87495020347098,22.744840792264547 L-13.884196194534683,22.823225864170137 L-13.890764782053147,22.90241219564743 L-13.894539704762973,22.982125422874564 L-13.8954211447533,23.062075257925652 L-13.893327859409863,23.14195841971701 L-13.888199075074523,23.221461988292557 L-13.879996075356532,23.300267117332933 L-13.868703423707286,23.37805302222108 L-13.854329769873175,23.45450114612256 L-13.836908202816295,23.52929939541503 L-13.816496128047143,23.6021463293049 L-13.793174664245472,23.672755187194397 L-13.767047571607725,23.74085764155291 L-13.738239741532615,23.806207173556764 L-13.70689529303377,23.86858198306901 L-13.673175334745215,23.927787362769607 " />
			<path d="M-13.952261427629955,24.077597321710574 L-13.970222177392586,24.067196472139987 " />
			<path d="M-14.0371449962686,24.02313663656348 L-14.080904307786197,23.9893414527898 L-14.122513340301964,23.953046789029855 L-14.177889913085739,23.89762290605609 L-14.230720759345477,23.835928231170918 L-14.280551638424548,23.76809982949713 L-14.326943954339388,23.69436313226385 L-14.3694854536061,23.61503232719905 L-14.407800757326088,23.530507801349113 L-14.441561220149664,23.4412705485902 L-14.470493614595304,23.34787363848177 L-14.494387185937976,23.250931032716615 L-14.513098708533667,23.151104211537888 L-14.526555292187002,23.049087216916817 L-14.534754826023825,22.945590816993974 L-14.537764093663466,22.84132653768428 L-14.535714732934702,22.73699128963047 L-14.528797332891452,22.633253246068932 L-14.517254050453438,22.530739509937064 L-14.501227567504007,22.428274728696824 L-14.480609190934,22.324686294732132 L-14.455338495940673,22.220604615061042 L-14.425413386064344,22.116699966974476 L-14.390893702661964,22.013670045106053 L-14.35190300105827,21.912225755444705 L-14.308628280357176,21.813075801119936 L-14.261317567157898,21.716910719810294 L-14.210275382725602,21.624387102528228 L-14.155856256594872,21.53611273827149 L-14.09845657398057,21.4526333846765 L-14.038505147199208,21.37442176446186 L-13.976452972464413,21.30186924096327 L-13.912762666691172,21.235280448647465 L-13.847898072751176,21.174870964445002 L-13.782314479029072,21.120767921757928 L-13.711966098952558,21.069810543106584 L-13.639614546391986,21.02449849777192 L-13.565696170302118,20.98541076996621 L-13.490694194272033,20.95306680710909 " />
			<path d="M-13.343365094119818,21.00217650715958 L-13.418367070149934,21.034520470016936 L-13.49228544623958,21.07360819782272 L-13.564636998800022,21.11892024315743 L-13.634985378876493,21.169877621808787 L-13.70056897259867,21.223980664495834 L-13.76543356653871,21.284390148698247 L-13.829123872312024,21.350978941014027 L-13.891176047046896,21.4235314645126 L-13.951127473828338,21.501743084727238 L-14.008527156442694,21.5852224383222 L-14.062946282573483,21.673496802578924 L-14.113988467005827,21.76602041986097 L-14.161299180205152,21.862185501170597 L-14.204573900906292,21.961335455495373 L-14.243564602510029,22.062779745156735 L-14.278084285912431,22.165809667025144 L-14.308009395788782,22.26971431511171 L-14.33328009078212,22.373795994782792 L-14.353898467352122,22.47738442874742 L-14.369924950301563,22.57984920998769 L-14.3814682327395,22.682362946119554 L-14.38838563278269,22.786100989681113 L-14.390434993511393,22.890436237734946 L-14.38742572587171,22.994700517044656 L-14.379226192034853,23.098196916967513 L-14.36576960838149,23.200213911588616 L-14.347058085785777,23.300040732767375 L-14.323164514443096,23.396983338532525 L-14.294232119997464,23.490380248640957 L-14.260471657173893,23.579617501399888 L-14.22215635345392,23.664142027249827 L-14.179614854187262,23.743472832314577 L-14.13322253827249,23.817209529547803 L-14.083391659193481,23.885037931221582 L-14.030560812933809,23.946732606106725 L-13.975184240150092,24.00215648908048 L-13.954241686902419,24.02096217016874 " />
			<path d="M-14.99619613907613,23.05286837481775 L-15.006010358273302,22.971970554817123 L-15.012354582709976,22.889326000843504 L-15.015209791005903,22.805182499447074 L-15.014567422618617,22.719792331352064 L-15.01042940350983,22.63341151506367 L-15.002808140370973,22.546299039268266 L-14.991726483425206,22.45871608632835 L-14.977217657917418,22.370925249200383 L-14.959325164497645,22.283189744123334 L-14.93810264879655,22.195772621438525 L-14.913613740584012,22.10893597690683 L-14.8859318629931,22.022940165887963 L-14.855140012381357,21.938043022737805 L-14.821330509489467,21.85449908776433 L-14.784604722643376,21.772558844059773 L-14.745072763829748,21.692467966497205 L-14.702853158556014,21.614466585143248 L-14.658072490484827,21.538788565295317 L-14.610865021908408,21.46566080630201 L-14.561372291200652,21.39530256126897 L-14.509742688453965,21.32792477968984 L-14.45613101057312,21.26372947497328 L-14.40069799716009,21.202909118762356 L-14.343609848581375,21.145646063862195 L-14.285037727662734,21.09211199750618 L-14.225157246505406,21.042467426599867 L-14.164147939962387,20.996861196485973 L-14.10219272735346,20.955430044673296 L-14.039477364032846,20.9182981908676 L-13.976189884453792,20.885576964533602 L-13.912520038399919,20.85736447110477 L-13.848658722073646,20.833745297841638 " />
			<path d="M-13.77656247009643,23.992251766791387 L-13.843576982961755,24.006862448979877 L-13.910649232780228,24.01691385928316 L-13.97748328368248,24.022309096870412 L-14.04378163804081,24.022991275772053 L-14.109249604555394,24.018944836131215 L-14.173599646883089,24.01019595607429 L-14.236555578787582,23.996812045964738 L-14.29785647790011,23.97890034426954 " />
			<path d="M-14.297856477900465,23.978900344269423 L-14.342357477296792,23.96267700857445 L-14.385709825772274,23.94408726912181 L-14.427828167047979,23.923213802090512 L-14.468634973875643,23.900148255700014 L-14.508060920161785,23.874990256110713 L-14.546045142748529,23.847846358223798 L-14.58253539381227,23.818828961023257 L-14.617488087132546,23.78805520675299 L-14.650076955573914,23.756488652863343 L-14.681864527855119,23.722775566261287 L-14.71275956470743,23.6869324008168 L-14.742671623203877,23.64898559844459 L-14.771511761058974,23.60897180843902 L-14.799193257923157,23.566938003016954 L-14.825632343213169,23.522941481677158 L-14.850748919269067,23.47704975889857 L-14.87446726813555,23.429340331885207 L-14.89671673006511,23.379900327461915 L-14.917432341956983,23.32882602976511 L-14.936555424390455,23.27622229297568 L-14.969823780493243,23.166884497841423 L-14.996196139079215,23.05286837482007 " />
			<path d="M-13.8383398409504,20.837184924882713 L-13.91334181698053,20.86952888774008 L-13.987260193070172,20.90861661554586 L-14.05961174563061,20.95392866088057 L-14.129960125707079,21.004886039531925 L-14.195543719429256,21.05898908221897 L-14.260408313369311,21.1193985664214 L-14.324098619142635,21.185987358737197 L-14.386150793877494,21.258539882235755 L-14.446102220658918,21.33675150245037 L-14.503501903273277,21.420230856045336 L-14.557921029404064,21.508505220302055 L-14.60896321383642,21.601028837584117 L-14.656273927035754,21.69719391889377 L-14.699548647736881,21.79634387321852 L-14.73853934934061,21.897788162879856 L-14.773059032743014,22.000818084748268 L-14.802984142619362,22.10472273283483 L-14.828254837612707,22.208804412505934 L-14.848873214182715,22.31239284647059 L-14.864899697132149,22.414857627710827 L-14.876442979570086,22.51737136384267 L-14.883360379613272,22.62110940740423 L-14.88540974034198,22.725444655458066 L-14.882400472702296,22.829708934767798 L-14.874200938865433,22.933205334690687 L-14.860744355212068,23.035222329311754 L-14.842032832616361,23.135049150490495 L-14.818139261273684,23.231991756255653 L-14.78920686682805,23.325388666364084 L-14.755446404004482,23.414625919123015 L-14.717131100284504,23.499150444972955 L-14.67458960101785,23.578481250037704 L-14.628197285103077,23.652217947270938 L-14.578366406024067,23.720046348944713 L-14.525535559764393,23.78174102382986 L-14.470158986980678,23.83716490680362 L-14.413886215640753,23.88525863272666 L-14.353794799891036,23.928741768653207 L-14.290090420271378,23.967161513591314 L-14.223033426361424,24.000103566796295 " />
			<path d="M-14.150528610223382,24.028009633494015 L-14.098228328497159,24.043600956159874 L-14.04469143141847,24.055895865420137 L-13.99007866626778,24.06482204915101 L-13.934559514978215,24.070328189822927 " />
			<path d="M-12.995719447441104,21.118058389385816 L-12.92045788751176,21.09298744138056 " />
			<path d="M-13.49069419427169,20.953066807108957 L-13.441446525537167,20.935822038721025 L-13.39211029979719,20.92173827010235 L-13.34284014864953,20.910900159475773 L-13.293792586751588,20.903373087576316 L-13.245124389513569,20.899202159287313 L-13.196990940685053,20.898411510393185 L-13.149544585983241,20.90100393937095 L-13.102933029197585,20.90696087482009 " />
			<path d="M-13.052400097417191,20.947475110283417 L-13.124162385494474,20.950158022389747 L-13.196918920738732,20.960274306226275 L-13.270156926256005,20.977690933133577 L-13.343365094119646,21.00217650715951 " />
			<path d="M-13.700377208390435,20.79693286521726 L-13.769384851965139,20.81392951193698 L-13.838339840950228,20.83718492488265 " />
			<path d="M-9.146438110439604,22.55985668886852 L-9.147966096568144,22.651820842493493 L-9.151711380146676,22.74441038102142 L-9.157670043545073,22.837528454225012 L-9.16583585390038,22.931077659020737 L-9.176200269636503,23.02496014135411 L-9.188752449398839,23.11907769855669 L-9.203479263394513,23.213331882067745 L-9.220365307126372,23.30762410041309 L-9.23939291750634,23.401855722333476 L-9.260542191331323,23.495928179954532 L-9.28379100610228,23.589743071890453 L-9.309115043164743,23.68320226617349 L-9.336487813146535,23.776208002901686 L-9.365880683666111,23.868662996497378 L-9.397262909282505,23.96047053746954 L-9.43060166365559,24.051534593573585 L-9.465862073882983,24.1417599102627 L-9.503007256977694,24.23105211032572 L-9.541998358448351,24.319317792607297 L-9.582794592941665,24.406464629707084 L-9.625353286904593,24.492401464555773 L-9.669629923221603,24.57703840576692 L-9.715578187780329,24.66028692166487 L-9.763150017916924,24.742059932890395 L-9.81229565269041,24.822271903487167 L-9.862963684933476,24.90083893037382 L-9.915101115025244,24.977678831108015 L-9.968653406329768,25.052711229850647 L-10.023564542242283,25.12585764144034 L-10.079777084783526,25.197041553490266 L-10.137232234680829,25.266188506421393 L-10.195869892873143,25.33322617134844 " />
			<path d="M-15.201243032946877,19.67989767867549 L-15.3506224205005,19.86098483665413 L-15.49459264133122,20.046598467994652 " />
			<path d="M-16.570549426714244,23.436164788801836 L-16.564326149182822,23.571730632326368 L-16.550118898461257,23.711615693525992 L-16.5397077590981,23.783347542876957 L-16.526924397570124,23.856362731194285 L-16.511643404254897,23.930729103327167 L-16.49373936952999,24.006514504124805 L-16.47307068835762,24.083795539929355 L-16.449480448674404,24.162657097969596 L-16.42282028031953,24.243179444424644 L-16.392941813132197,24.32544284547363 L-16.35962434347721,24.409641295295692 L-16.32284128465068,24.49562735383692 L-16.282735441888697,24.582969135926852 L-16.239449620427372,24.67123475639503 " />
			<path d="M-16.239449620427372,24.67123475639503 L-16.193379419452818,24.759622399818443 L-16.144317585614676,24.848705574013472 L-16.092336600029594,24.938467427698786 L-16.037508943814217,25.02889110959305 L-15.919603543959154,25.211656552883095 L-15.791181234982657,25.396867093632935 L-15.653704985946979,25.58334723421311 L-15.508903867944028,25.769854306679598 L-15.357756882951445,25.956152745309865 L-15.201243032946882,26.142006984381386 " />
			<path d="M-16.57101982964185,23.367544597100974 L-16.570549426712397,23.436164788801157 " />
			<path d="M-15.11189909865595,26.18100266563535 L-13.202710789452272,26.817398768703242 " />
			<path d="M-15.111899098655947,26.18100266563535 L-15.024729484813529,26.10215567405677 L-14.927808433287138,26.024305455008474 L-14.82045440977419,25.948083883972416 L-14.762652054053197,25.910781302547086 L-14.701985879972092,25.874122836430548 L-14.638315838471943,25.838136876386667 L-14.571464044565165,25.8028190275966 L-14.501288552570948,25.76819909612152 L-14.427647416808489,25.73430688802261 L-14.35026636260448,25.701130214367737 L-14.269094101694682,25.66872160123574 L-14.1843231680119,25.637207927204237 L-14.096146095488939,25.606716070850833 " />
			<path d="M-14.096146095488933,25.60671607085083 L-13.910901187813728,25.549292469365977 L-13.715243130879934,25.496721578817084 L-13.509782998198716,25.44871862818711 L-13.29513186328124,25.404998846459016 L-13.071763431878534,25.365224124742497 L-12.842104631149805,25.32928111399551 L-12.609024635487696,25.297067318539533 L-12.373286311135375,25.268131736461825 " />
			<path d="M-12.37328631113537,25.268131736461825 L-10.464098001931692,25.904527839529717 " />
			<path d="M-13.202710789452276,26.817398768703246 L-10.464098001931694,25.904527839529717 " />
			<path d="M-15.20124303294752,26.14200698438303 L-15.111899098656577,26.181002665637035 " />
			<path d="M-12.283942376844443,25.169573432347246 L-10.374754067640765,25.805969535415137 " />
			<path d="M-12.28394237684444,25.169573432347246 L-12.277719099313018,24.929807485367963 L-12.271676175412217,24.809798872264373 L-12.263511848591452,24.689699332406263 L-12.253100709228296,24.569503490534718 L-12.240317347700318,24.449205971390825 L-12.225036354385091,24.32880139971567 L-12.207132319660186,24.20828440025033 L-12.186463638487814,24.087648903574273 L-12.1628733988046,23.966888184183116 L-12.136213230449728,23.845995882692215 L-12.10633476326239,23.724965639716917 L-12.073017293607297,23.603652852245403 L-12.036234234779991,23.482349548309625 L-11.996128392015912,23.361704315090613 L-11.9528425705505,23.242365739769408 " />
			<path d="M-11.952842570550498,23.242365739769404 L-11.906772369578276,23.125415672345785 L-11.857710535741887,23.010009356240115 L-11.805729550158063,22.896109389530267 L-11.750901893943528,22.78367837029411 L-11.693300048215011,22.672678896609508 L-11.632996494089241,22.56307356655434 L-11.570063712682947,22.454824978206474 L-11.504574185112855,22.347895729643774 L-11.436812856839527,22.242516832264453 L-11.367097936077174,22.138903334183993 L-11.295551798073005,22.036993888556182 L-11.222296818074222,21.93672714853481 L-11.147455371328032,21.838041767273662 L-11.07114983308164,21.740876397926524 L-10.914635983077078,21.55086030758945 " />
			<path d="M-10.914635983077076,21.550860307589446 L-9.005447673873398,22.187256410657337 " />
			<path d="M-10.374754067636754,25.805969535416885 L-9.005447673872109,22.1872564106579 " />
			<path d="M-12.373286311134752,25.268131736463104 L-12.28394237684382,25.169573432348486 " />
			<path d="M-10.464098001931077,25.904527839531 L-10.374754067640145,25.805969535416377 " />
			<path d="M-10.914635983077076,21.413306322220897 L-9.005447673873398,22.04970242528879 " />
			<path d="M-10.914635983077073,21.4133063222209 L-11.07093613825919,21.227714852812802 L-11.2212707759023,21.04245399597266 L-11.364890260923021,20.85756529692784 L-11.501044958237975,20.673090300905713 L-11.628925391570997,20.48907386956803 L-11.747630587014152,20.30556593543029 L-11.803302093488492,20.213916140001917 L-11.856277961579812,20.122532478372346 L-11.90623313827239,20.031907584972217 L-11.952842570550496,19.942534094232187 " />
			<path d="M-11.952842570550498,19.942534094232183 L-11.995686206551978,19.855221972466463 L-12.035170919418816,19.769331171928535 L-12.071378088956246,19.68482725692577 L-12.104389094969509,19.601675791765548 L-12.134285317263839,19.51984234075523 L-12.161148135644476,19.439292468202197 L-12.185058929916655,19.35999173841382 L-12.206099079885615,19.281905715697476 L-12.224334454534631,19.205192385958938 L-12.239867462205018,19.129994864022724 L-12.252834291739067,19.05625640757432 L-12.263371131979069,18.98392027429921 L-12.271614171767316,18.912929721882872 L-12.2776995999461,18.843228008010794 L-12.28394237684444,18.70746412664135 " />
			<path d="M-12.283942376844443,18.707464126641344 L-10.374754067640765,19.343860229709236 " />
			<path d="M-9.005447673872109,22.049702425287368 L-10.374754067636752,19.34386022970481 " />
			<path d="M-10.914635983078917,21.550860307590014 L-10.914635983078915,21.413306322221594 " />
			<path d="M-9.005447673875242,22.18725641065791 L-9.00544767387524,22.04970242528949 " />
			<path d="M-12.37328631113537,18.668468445387383 L-10.464098001931692,19.304864548455274 " />
			<path d="M-12.373286311135367,18.668468445387383 L-12.60902463548801,18.697404027465133 L-12.842104631150193,18.729617822921128 L-13.071763431878646,18.765560833668076 L-13.295131863281094,18.80533555538455 L-13.509782998198524,18.84905533711262 L-13.71524313087977,18.8970582877426 L-13.910901187813637,18.949629178291513 L-14.096146095488928,19.007052779776387 " />
			<path d="M-14.096146095488933,19.007052779776387 L-14.184323168011728,19.03754463612973 L-14.269094101694362,19.06905831016118 L-14.350266362604046,19.101466923293117 L-14.427647416807986,19.134643596947942 L-14.501288552570417,19.168535805046826 L-14.571464044564635,19.203155736521886 L-14.638315838471447,19.238473585311954 L-14.70198587997165,19.27445954535585 L-14.762652054052818,19.311118011472406 L-14.820454409773875,19.34842059289776 L-14.927808433286941,19.424642163933882 L-15.024729484813436,19.502492382982247 L-15.111899098655945,19.581339374560905 " />
			<path d="M-12.283942376843797,18.707464126639707 L-12.373286311134729,18.668468445385706 " />
			<path d="M-10.374754067640122,19.343860229707598 L-10.464098001931054,19.304864548453597 " />
			<path d="M-15.111899098656565,19.581339374559636 L-15.201243032947515,19.679897678674276 " />
			<path d="M-9.898412576982453,26.09308964784613 L-12.637025364503035,27.00596057701966 " />
			<path d="M37.83129515310951,42.00299222454346 L-9.898412576982444,26.093089647846135 " />
			<path d="M36.815542149942495,42.57727881932798 L36.903550713336415,42.54685127996603 L36.98781295439694,42.515530516769545 L37.06843566225545,42.48334199113483 L37.14552562604337,42.45031116445819 L37.2191896348921,42.41646349813594 L37.289534477933046,42.38182445356437 L37.356666944297615,42.346419492139795 L37.420693823117205,42.31027407525851 L37.48178297816393,42.273381870947134 L37.54001798826677,42.2358179314576 L37.64784702050772,42.15926499788136 L37.74448840687574,42.081571665994026 L37.8312951531095,42.00299222454346 " />
			<path d="M35.09268236558893,42.915863153716984 L35.329223340324255,42.88680661576937 L35.56277399746893,42.85449959859384 L35.791438710577026,42.8187149240895 L36.01332185320262,42.77922541415546 L36.227233279704464,42.73571813568648 L36.43276969842643,42.687779259767595 L36.62952555878739,42.63492815472978 L36.81554214994249,42.57727881932798 " />
			<path d="M35.09268236558893,42.91586315371699 L-12.637025364503025,27.005960577019664 " />
			<path d="M-9.809068642690882,25.99453134373276 L-9.898412576981814,26.093089647847385 " />
			<path d="M37.92063908740043,41.90443392042888 L-9.809068642691521,25.994531343731552 " />
			<path d="M37.83129515311012,42.002992224544734 L37.92063908740106,41.90443392043011 " />
			<path d="M-8.439762248922868,22.375818218974313 L-9.809068642687514,25.9945313437333 " />
			<path d="M39.289945481167805,38.285720795671075 L-8.439762248924147,22.37581821897375 " />
			<path d="M38.95884567488093,40.212928488246554 L39.001689310880046,40.094902899165234 L39.04117402374505,39.976304209402436 L39.07738119328111,39.85714630401 L39.1103921992934,39.73744306803976 L39.14028842158709,39.61720838654355 L39.167151239967346,39.496456144573216 L39.191062034239344,39.37520022718058 L39.21210218420826,39.25345451941749 L39.23033755885731,39.13156697083007 L39.24587056652778,39.00989283505232 L39.25883739606194,38.88845695326784 L39.26937423630207,38.76728416666025 L39.27761727609045,38.64639931641317 L39.28370270426935,38.5258272437102 L39.289945481167805,38.28572079567108 " />
			<path d="M37.92063908740043,41.90443392042887 L38.0700184749538,41.72334676245038 L38.21398869578415,41.53773313110998 " />
			<path d="M38.21398869578415,41.53773313110998 L38.32444951925572,41.386156284819826 L38.430727173284104,41.23107889842319 L38.53248938611551,41.07222292183936 L38.62935646751319,40.909270624477266 L38.72092942235801,40.74188812112499 L38.8068519829442,40.56960645698424 L38.88652985444213,40.392630224623325 L38.95884567488093,40.21292848824656 " />
			<path d="M-8.439762248926,22.238264233605864 L-8.439762248926,22.375818218974285 " />
			<path d="M39.289945481167805,38.148166810302534 L-8.439762248924147,22.238264233605207 " />
			<path d="M39.28994548116596,38.285720795671644 L39.29041588409541,38.21678700200243 " />
			<path d="M39.29041588409541,38.21678700200239 L39.28994548116596,38.14816681030322 " />
			<path d="M-9.809068642687512,19.53242203802122 L-8.439762248922868,22.23826423360378 " />
			<path d="M37.92063908740043,35.44232461472298 L-9.809068642691521,19.53242203802565 " />
			<path d="M38.95884567488093,36.913096842709336 L38.91277547390634,36.82470919928591 L38.86371364006812,36.73562602509086 L38.811732654482924,36.645864171405506 L38.756904998267416,36.5554404895112 L38.63899959841211,36.37267504622107 L38.5105772894355,36.18746450547119 L38.37310104039993,36.000984364891046 L38.22829992239723,35.81447729242465 L38.07715293740489,35.62817885379446 L37.92063908740044,35.442324614722985 " />
			<path d="M39.289945481167805,38.14816681030253 L39.28372220363597,38.01260096677786 L39.26951495291419,37.87271590557817 L39.25910381355098,37.800984056227186 L39.24632045202298,37.72796886790985 L39.23103945870774,37.653602495776965 L39.213135423982834,37.57781709497932 L39.19246674281046,37.500536059174635 L39.16887650312725,37.42167450113413 L39.14221633477238,37.341152154678895 L39.11233786758504,37.25888875363003 L39.079020397930165,37.17469030380815 L39.04223733910388,37.08870424526692 L39.002131496342145,37.001362463177074 L38.95884567488093,36.913096842709336 " />
			<path d="M-9.898412576981837,19.493426356769998 L-9.809068642690892,19.532422038024002 " />
			<path d="M37.83129515310951,35.40332893346902 L-9.898412576982444,19.493426356771693 " />
			<path d="M37.92063908740108,35.442324614721336 L37.83129515311015,35.403328933467336 " />
			<path d="M-10.241236062880038,19.607700852070884 L-9.898412576982453,19.493426356771693 " />
			<path d="M-12.726369298797973,26.966964895770122 L-12.859887303554688,26.70312427340405 " />
			<path d="M-12.637025364503652,27.00596057702134 L-12.726369298794605,26.966964895767333 " />
			<path d="M38.95884567487856,40.21292848824553 L38.99818592267001,40.10542911932756 L39.03518894084035,39.99704312660362 L39.06981510563089,39.887886572509494 L39.10202733847708,39.778076344617375 L39.13179114571317,39.66773003046974 L39.15907465550887,39.55696579166366 L39.183848651998495,39.44590223732037 L39.20608660656611,39.33465829707571 L39.22576470625294,39.22335309372726 L39.24286187925697,39.11210581567465 L39.25735981749711,39.001035589289664 L39.269242996217955,38.89026135135271 L39.278498690614086,38.77990172169238 L39.28511698945612,38.670074876164314 L39.289090805703886,38.560898420105566 L39.29041588409541,38.45248926239989 " />
			<path d="M38.300466390431104,41.422337743394145 L38.39844354748347,41.28645092701903 L38.49239082955692,41.145449430746446 L38.5820690582655,40.9996922272848 L38.6672499237154,40.849550396796204 L38.74771656575417,40.695406182171425 L38.82326412607043,40.537652015885804 L38.89370026973824,40.376689520913786 L38.95884567487855,40.21292848824556 " />
			<path d="M-14.096146095488933,19.007052779776387 L-14.195655762894443,19.042891136174905 L-14.295004489792447,19.08400846445773 L-14.394031595970219,19.130338264114364 L-14.492576921383607,19.181805604319862 L-14.590481085189547,19.23832724512308 L-14.687585743518332,19.299811772073618 L-14.78373384556877,19.366159744069627 L-14.878769887611996,19.437263854187428 L-14.972540164493157,19.513009103232815 L-15.064893018224206,19.5932729857333 L-15.155679083265722,19.677925688070555 L-15.244751528101101,19.766830298432588 L-15.331966292712355,19.859843028246036 L-15.417182321573474,19.956813444730543 L-15.500261791784533,20.057584714199 L-15.581070335977536,20.161993855710218 " />
			<path d="M-15.581070335977541,20.161993855710225 L-15.679047493029907,20.297880672085334 L-15.772994775103355,20.43888216835792 L-15.862673003811945,20.584639371819573 L-15.947853869261841,20.734781202308167 L-16.02832051130061,20.888925416932945 L-16.103868071616866,21.04667958321857 L-16.174304215284682,21.20764207819059 L-16.239449620425,21.37140311085884 " />
			<path d="M-11.952842570552862,19.942534094234798 L-11.994477921442638,19.863793362733002 L-12.038363791254232,19.78766875433378 L-12.084453185899033,19.714241785174515 L-12.132696751698834,19.643591082692932 L-12.183042828235013,19.575792301430855 L-12.235437503667782,19.510918042021434 L-12.289824672466343,19.44903777344657 L-12.346146095488097,19.39021775864778 L-12.404341462342574,19.334520983570194 L-12.464348455973312,19.282007089715613 L-12.52610281938852,19.232732310276912 L-12.589538424469072,19.18674940992211 L-12.654587342780165,19.144107628292655 L-12.721179918310767,19.104852627276372 L-12.789244842063042,19.069026442111586 L-12.858709228411792,19.036667436374714 L-12.929498693152224,19.007810260899603 L-13.00153743315241,18.98248581667255 L-13.074748307525189,18.96072122174274 L-13.149052920232542,18.94253978218357 L-13.22437170403406,18.927960967135906 L-13.300624005689516,18.917000387960073 L-13.377728172324385,18.909669781518772 L-13.455601638865785,18.905976997609006 L-13.53416101645523,18.90592599055627 L-13.613322181743493,18.909516814980194 L-13.693000366972017,18.91674562573605 L-13.773110250744336,18.927604682032214 L-13.853566049390375,18.942082355719215 L-13.934281608825742,18.960163143741447 L-14.015170496807697,18.981827684738214 L-14.09614609548891,19.00705277977638 " />
			<path d="M-11.952842570552864,23.242365739768374 L-11.91350232276156,23.134866370850823 L-11.876499304591356,23.026480378127303 L-11.841873139800926,22.9173238240336 L-11.809660906954822,22.807513596141906 L-11.779897099718802,22.6971672819947 L-11.75261358992316,22.58640304318904 L-11.727839593433558,22.475339488846185 L-11.70560163886596,22.36409554860196 L-11.685923539179118,22.25279034525393 L-11.66882636617506,22.14154306720174 L-11.654328427934871,22.03047284081717 L-11.642445249213958,21.91969860288063 L-11.633189554817735,21.809338973220694 L-11.62657125597559,21.699512127693016 L-11.622597439727693,21.590335671634644 L-11.621272361336016,21.481926513929302 L-11.622597439727693,21.374400741818413 L-11.62657125597559,21.267873496591974 L-11.633189554817735,21.162458850292392 L-11.642445249213958,21.058269683563275 L-11.654328427934871,20.95541756477401 L-11.66882636617506,20.85401263054956 L-11.685923539179118,20.75416346783341 L-11.70560163886596,20.655976997609947 L-11.727839593433558,20.559558360410783 L-11.75261358992316,20.46501080372766 L-11.779897099718802,20.37243557145243 L-11.809660906954822,20.28193179546257 L-11.841873139800924,20.193596389468283 L-11.876499304591356,20.107523945234863 L-11.91350232276156,20.02380663129148 L-11.952842570552852,19.94253409423482 " />
			<path d="M-14.096146095488933,25.60671607085083 L-14.015170496807697,25.577957433434843 L-13.934281608825746,25.54569604911031 L-13.853566049390375,25.50996646417563 L-13.773110250744338,25.47080693876527 L-13.693000366972019,25.428259405879892 L-13.613322181743493,25.382369426483397 L-13.53416101645523,25.333186140715146 L-13.455601638865787,25.280762215269448 L-13.377728172324383,25.225153786998742 L-13.300624005689516,25.166420402800867 L-13.224371704034061,25.104624955854728 L-13.149052920232544,25.039833618272723 L-13.07474830752519,24.97211577024198 L-13.001537433152413,24.90154392573032 L-12.929498693152226,24.828193654836475 L-12.858709228411794,24.752143502867746 L-12.789244842063043,24.673474906231707 L-12.721179918310769,24.59227210523207 L-12.654587342780165,24.508622053862048 L-12.589538424469074,24.422614326691868 L-12.526102819388521,24.33434102295003 L-12.464348455973312,24.24389666790119 L-12.404341462342575,24.15137811162612 L-12.346146095488097,24.056884425312216 L-12.289824672466343,23.96051679516559 L-12.235437503667782,23.862378414058348 L-12.183042828235013,23.762574371027082 L-12.132696751698834,23.661211538740886 L-12.084453185899033,23.558398459059436 L-12.038363791254234,23.45424522680364 L-11.99447792144264,23.348863371863356 L-11.952842570552875,23.242365739768406 " />
			<path d="M-16.239449620425006,24.67123475639242 L-16.19781426953523,24.749975487894215 L-16.153928399723632,24.826100096293438 L-16.107839005078837,24.899527065452702 L-16.059595439279033,24.970177767934285 L-16.009249362742857,25.037976549196358 L-15.956854687310086,25.10285080860578 L-15.902467518511525,25.164731077180647 L-15.846146095489772,25.223551091979438 L-15.787950728635295,25.279247867057023 L-15.727943735004557,25.331761760911604 L-15.666189371589349,25.381036540350305 L-15.602753766508794,25.427019440705106 L-15.537704848197706,25.46966122233456 L-15.471112272667101,25.508916223350845 L-15.403047348914827,25.54474240851563 L-15.333582962566076,25.577101414252503 L-15.262793497825644,25.605958589727614 L-15.190754757825456,25.631283033954666 L-15.11754388345268,25.653047628884476 L-15.043239270745326,25.671229068443647 L-14.96792048694381,25.685807883491307 L-14.891668185288353,25.696768462667144 L-14.814564018653485,25.704099069108445 L-14.736690552112083,25.70779185301821 L-14.65813117452264,25.707842860070947 L-14.578970009234375,25.704252035647023 L-14.49929182400585,25.69702322489117 L-14.41918194023353,25.686164168595003 L-14.338726141587491,25.671686494908002 L-14.258010582152123,25.65360570688577 L-14.17712169417017,25.631941165889003 L-14.096146095488946,25.606716070850833 " />
			<path d="M-16.239449620425003,21.371403110858846 L-16.278789868216453,21.47890247977681 L-16.315792886386788,21.58728847250075 L-16.350419051177326,21.696445026594876 L-16.382631284023518,21.806255254486995 L-16.412395091259608,21.91660156863463 L-16.439678601055306,22.02736580744072 L-16.464452597544938,22.138429361784006 L-16.486690552112545,22.24967330202866 L-16.50636865179938,22.360978505377112 L-16.52346582480341,22.47222578342972 L-16.53796376304355,22.58329600981471 L-16.549846941764393,22.694070247751657 L-16.559102636160524,22.804429877411987 L-16.56572093500256,22.914256722940056 L-16.569694751250324,23.023433178998804 L-16.57101982964185,23.131842336704498 " />
			<path d="M-16.57101982964185,23.131842336704512 L-16.569694751250022,23.23936810881494 L-16.565720935001995,23.345895354040913 L-16.559102636159736,23.451310000340033 L-16.549846941763423,23.55549916706869 L-16.53796376304244,23.658351285857503 L-16.523465824802205,23.759756220081503 L-16.506368651798116,23.859605382797213 L-16.486690552111266,23.957791853020247 L-16.46445259754368,24.054210490218985 L-16.439678601054112,24.1487580469017 L-16.41239509125852,24.241333279176533 L-16.382631284022573,24.331837055166012 L-16.35041905117656,24.420172461159936 L-16.315792886386237,24.506244905393 L-16.278789868216162,24.589962219336048 L-16.23944962042501,24.67123475639241 " />
			<path d="M-15.173528410524861,23.7282724804543 L-15.212319585438332,23.656964684262448 L-15.24825792994292,23.581980600614923 L-15.281163744267742,23.503551839352816 L-15.310877428071718,23.42194039860094 L-15.337261891251641,23.337435880490126 L-15.360204577791063,23.25035212685333 L-15.379619041884409,23.161023355176777 L-15.395446030652973,23.06979989402857 L-15.407654045089533,22.97704363179759 L-15.41623936945582,22.88312330200332 L-15.421225578154292,22.788409732189322 L-15.42266254704748,22.693271181394778 L-15.420625012335668,22.598068883705523 L-15.415210733621882,22.503152903070426 L-15.406538328102306,22.40885838836558 L-15.394744849582551,22.315502298729804 L-15.377883070249055,22.210985922788087 L-15.357028935713751,22.10542704257145 L-15.332131467610745,21.99927743129938 L-15.303175224061523,21.89301550674779 L-15.270182494351271,21.787140258241305 L-15.23321473156095,21.682164310685337 L-15.192373124502447,21.578606300158523 L-15.147798241907319,21.476982778589733 L-15.099668719548022,21.37779989859588 L-15.048199002546003,21.28154515056518 L-14.993636197768465,21.188679430329746 L-14.936256131921024,21.099629706251907 L-14.876358746759378,21.01478252956172 L-14.814262991194802,20.934478592983634 L-14.750301389024575,20.859008492920317 L-14.684814469481589,20.78860979344699 " />
			<path d="M-14.99619613907931,23.052868374819585 L-15.022217225071527,22.987245090988583 L-15.045588139316921,22.920098781444384 L-15.06630250899878,22.85150265310218 L-15.084353961300398,22.781529912877172 L-15.099736123405062,22.710253767684552 L-15.112442622496069,22.63774742443952 L-15.122467085756705,22.56408409005727 L-15.129803140370264,22.489336971453003 L-15.13438514361579,22.413929810692043 L-15.136334164655265,22.338237026552232 L-15.135923898496392,22.262257841017547 L-15.133428040146871,22.185991476071962 L-15.128944064988664,22.109340801410433 L-15.12240577983832,22.03243493908236 L-15.113841376855428,21.955612489603393 L-15.103279048199576,21.87921205348916 L-15.090726024084184,21.80334139259201 L-15.07619218529015,21.727961171741857 L-15.05970969982829,21.65318934592072 L-15.04131073570941,21.579143870110606 L-15.021027460944323,21.50594269929353 L-14.99889204354384,21.43370378845151 L-14.974936651518771,21.362545092566556 L-14.94919345287993,21.29258456662068 L-14.921737925020675,21.223991692958712 L-14.892639256781043,21.156892408992665 L-14.861920183341853,21.09133935230532 L-14.829603439883922,21.02738516047946 L-14.795711761588073,20.965082471097876 L-14.760267883635127,20.90448392174335 L-14.7232945412059,20.845642149998664 L-14.684814469481216,20.788609793446607 " />
			<path d="M-14.096146095488933,20.421266342149483 L-14.172003208444286,20.449266604203984 L-14.247641911834473,20.48261536272439 L-14.322844424944229,20.521216599188982 L-14.397394222947499,20.564959172019304 L-14.471076660330752,20.61371713658157 L-14.543679588905341,20.667350107809394 L-14.614993968629513,20.725703664403724 L-14.684814469481347,20.788609793446255 " />
			<path d="M-14.684814469481347,20.78860979344626 L-14.745908750622851,20.848660681787507 L-14.805502586078662,20.912078931283574 L-14.863458360501703,20.97871809516947 L-14.919642241190134,21.048424288876486 L-14.973924487136651,21.121036545385685 L-15.026179748629175,21.196387186936352 L-15.076287356711063,21.27430221223104 L-15.124131601832417,21.354601698243037 L-15.169602001049023,21.43710021569844 L-15.212593553151917,21.521607257273367 L-15.253006981138387,21.607927677517484 L-15.29074896146454,21.695862143488036 L-15.325732339550008,21.785207595053684 L-15.357876331037136,21.875757713805275 L-15.387106708339953,21.967303399490664 L-15.413355972052065,22.059633252873457 " />
			<path d="M-14.150527154602603,24.028010118701662 L-14.297856435808384,23.978900358299732 " />
			<path d="M39.2904158840954,38.45248926240054 L39.29041588409508,38.21678700200429 " />
			<path d="M38.30046639043069,41.422337743394685 L38.21394463957061,41.53770007787447 " />
			<path d="M-15.581070335977133,20.16199385570968 L-15.494548585117101,20.046631521229962 " />
			<path d="M-16.57101982964185,23.131842336703837 L-16.57101982964153,23.367544597100103 " />

       </g>
    </g>
    
</svg>
