<?xml version="1.0" encoding="UTF-8" standalone="no"?>
<svg
   xmlns:svg="http://www.w3.org/2000/svg"
   xmlns="http://www.w3.org/2000/svg"
   width="1024.0"
   height="320.0"

>
    <g transform="scale(10.890947138187551, -10.890947138187551)   translate(34.934895575464594,-40.98101466197195)" stroke-width="0.37333333466666685"  fill="none">
       <!-- hidden lines -->
       <g  stroke="rgb(32,64,32)" fill="none" stroke-dasharray="0.37333333466666685,0.37333333466666685" >

       </g>

       <!-- solid lines -->
       <g  stroke="rgb(64,192,64)" fill="none">
			<path d="M-14.480650612629425,24.15760048735208 L-14.538993068631427,24.093033928647852 L-14.594524975425795,24.022302542348605 L-14.646846273626725,23.945567058451083 L-14.695574015944485,23.863060657715383 L-14.740350234726675,23.77508844385292 L-14.780849567238638,23.682024907884365 L-14.816786329742575,23.584309362704822 L-14.847920741019653,23.482439429192933 " />
			<path d="M-14.528666872867742,24.151026015206764 L-14.569134343956827,24.108652254870552 L-14.60839881322831,24.063382859570577 L-14.646330882486177,24.01525270507947 L-14.682803380919122,23.964312139371987 L-14.717692521114081,23.91062719409722 L-14.750879066493304,23.8542796078425 L-14.782249490022316,23.79536665099444 L-14.811697103109749,23.734000746150045 L-14.839123133286202,23.670308882611245 L-14.864437729557096,23.604431828357917 L-14.887560875295122,23.53652314787122 L-14.908423190165388,23.466748039078798 L-14.926966604822145,23.395282007325722 L-14.943144894909253,23.32230939845716 L-14.956924064142319,23.248021816658447 L-14.968282569829002,23.1726164554915 " />
			<path d="M-14.135596308402116,24.135612278092875 L-14.174734970641035,24.073339225538067 L-14.211597578195954,24.007653310837604 " />
			<path d="M-14.214550885879948,24.00205036562842 L-14.254932179380251,23.91943670963748 L-14.291598995843298,23.83255104480738 L-14.324331990662573,23.741749753424426 L-14.35294599418885,23.647431011470584 " />
			<path d="M-15.413355972051786,22.059633252872406 L-15.44216829302925,22.177094250485144 L-15.46601798255386,22.295033769778318 L-15.484817109520472,22.413016981096785 L-15.4984963636763,22.530608893697842 L-15.50700531115996,22.64737595951286 L-15.510312580445419,22.762887671589926 L-15.508405978005255,22.876718151324237 L-15.501292533266808,22.98844771862429 L-15.488998472695481,23.09766443922488 L-15.471569123100736,23.203965643442086 L-15.449068744521266,23.306959410770816 L-15.421580293305524,23.40626601485134 L-15.389205116261044,23.501519323477375 L-15.352062577000243,23.592368148484095 L-15.310289615860297,23.678477540539113 L-15.264040245019615,23.759530024062776 L-15.21348498067238,23.835226767724663 L-15.158810214354641,23.905288686200873 L-15.100217525739824,23.96945746913002 L-15.037922939437301,24.0274965334743 L-14.972156128534108,24.079191895774343 L-14.903159567816274,24.124352961082028 L-14.831187639791745,24.162813225662457 L-14.756505696810867,24.19443089087439 L-14.679389082742318,24.219089385965773 L-14.600122117811434,24.236697797856912 L-14.518997050343733,24.247191206326693 L-14.43631297927842,24.250530923366096 L-14.35237475142446,24.246704635816503 L-14.267491837524911,24.23572645076691 L-14.181977191273331,24.217636843542714 L-14.09614609548894,24.192502508477737 " />
			<path d="M-15.413355972051793,22.059633252872406 L-15.43600844351945,22.175014719848278 L-15.453943663941168,22.290006782444845 L-15.467052322600278,22.40462594604833 L-15.475225108780108,22.518888716044945 L-15.478340235800985,22.632519714610417 L-15.476382838355681,22.744819027291896 L-15.469403987786196,22.85516635453276 L-15.45745475543453,22.96294139677637 L-15.440496399122527,23.068199102316093 L-15.418549691061463,23.170961689680972 L-15.391754974177491,23.27055976466789 L-15.36025259139676,23.366323933073744 L-15.324255314772328,23.457709380805635 L-15.283869255781848,23.54460380903567 L-15.239074766488365,23.626986596458227 L-15.189852198954922,23.704837121767685 L-15.136546226106738,23.77760075915585 L-15.079602067392676,23.844629741274137 L-15.01915089466125,23.90576373450638 L-14.955323879760979,23.960842405236395 L-14.887902612102625,24.0097762618932 L-14.816969005692808,24.052371485523448 L-14.743104719273823,24.088311251437403 L-14.666891411587962,24.117278734945344 L-14.588525219073372,24.139203454901565 L-14.50798238632207,24.154168668988007 L-14.425514734307141,24.162088160756422 L-14.341374084001677,24.162875713758552 L-14.256306265844088,24.156541463660833 L-14.170890064475152,24.143166387065044 L-14.085126732171503,24.12277052892596 L-13.999017521209783,24.095373934198367 " />
			<path d="M-14.096146095488933,24.192502508477734 L-14.03928342840009,24.172023447678587 L-13.982512727315534,24.148527831516983 L-13.925925809499683,24.12205366028463 L-13.869614194977764,24.092643751595787 L-13.813668958517244,24.06034567113682 L-13.758180582329384,24.02521165573653 L-13.703238809729148,23.987298528881688 L-13.64893249999018,23.94666760881439 L-13.59534948462953,23.903384609359904 L-13.54257642535466,23.857519533645366 L-13.49069867390238,23.809146560881242 L-13.43980013399646,23.75834392638868 L-13.389963125647183,23.705193795066734 L-13.341268252012268,23.649782128504185 L-13.29379426903453,23.59219854595081 L-13.247617958067115,23.53253617937301 " />
			<path d="M-13.247617958067105,23.532536179372997 L-13.183509643594487,23.443101042128212 L-13.122465918699955,23.349850543799494 L-13.064691765293592,23.25309781510251 L-13.010381186220716,23.153167747075095 L-12.959716553809614,23.050395900108654 L-12.912867997473963,22.94512737715243 L-12.869992832426405,22.837715664874292 L-12.831235031421581,22.728521446669394 L-12.7967247413025,22.617911391502577 L-12.766577845973663,22.506256922651534 L-12.74089557726845,22.393932970485164 L-12.719764175017469,22.28131671346535 L-12.703254597459317,22.168786311599693 L-12.691422282966219,22.056719636598288 L-12.684306963884614,21.945493002998592 L-12.681932533115837,21.835479904519215 " />
			<path d="M-12.681932533115837,21.835479904519197 L-12.683636015287076,21.74352483789913 L-12.688742357962784,21.652926953869617 L-12.697239259516191,21.563904510668717 L-12.709106250167219,21.476671971159547 L-12.72431474129596,21.39143948617045 L-12.742828094315179,21.308412388223253 L-12.764601708935874,21.22779069686922 L-12.789583130613284,21.149768636824454 L-12.81771217691447,21.074534170065522 L-12.848921082503084,21.00226854301261 L-12.883134662391981,20.933145849891012 L-12.920270493070456,20.867332613322887 L-12.960239111069688,20.804987383159688 L-13.002944228488081,20.746260354521674 L-13.048282964957247,20.69129300596471 L-13.09614609548983,20.640217758646045 L-13.14641831361206,20.593157657310133 L-13.198978509147155,20.550226073863065 L-13.253700059980341,20.511526434249735 L-13.310451137102621,20.477151969291654 L-13.369095022198401,20.447185490085758 L-13.429490437011886,20.4216991885052 L-13.491491883698776,20.40075446328283 L-13.554949995343321,20.384401772096247 L-13.619711895796293,20.372680510010845 L-13.68562156796703,20.365618914573652 L-13.752520229682267,20.3632339977866 L-13.8202467162063,20.36553150512312 L-13.888637868500956,20.3725059016868 L-13.957528926289998,20.384140385545432 L-14.02675392498107,20.400406928208348 L-14.09614609548892,20.421266342149476 " />
			<path d="M-13.84865872207364,20.833745297841634 L-13.77436720364301,20.812138346190245 L-13.700377208387602,20.796932865216213 " />
			<path d="M-13.99901752120978,24.095373934198367 L-13.905982084793154,24.057970208759965 L-13.81361660461522,24.01272676216081 L-13.722934448652676,23.96017732032424 L-13.634023372069855,23.900458655678346 L-13.546712567835069,23.833396684001777 L-13.461127001326094,23.75896089449531 L-13.378148957516192,23.677868900529802 L-13.298629184566288,23.591028730425947 " />
			<path d="M-12.682663820625084,21.89635528541032 L-12.685600412482824,21.828907039628405 L-12.690793302274757,21.762333213478076 L-12.698257939116568,21.69671980782722 L-12.707959809633207,21.632366272745877 L-12.719864363884474,21.569572184414632 L-12.733929314974272,21.508616982880504 L-12.750094527832616,21.4495794163589 L-12.768351948390562,21.39245441230157 L-12.788699971092445,21.33724043104491 L-12.811137788049885,21.28393567306426 L-12.835700444463642,21.232565171415647 L-12.862310390604284,21.183312046660443 L-12.890831691041628,21.136402001377668 L-12.921128410345492,21.092060738146344 L-12.953141328951194,21.050412274056193 L-12.986973337985876,21.0113242593484 L-13.022533262146023,20.974878014929413 L-13.059716005077018,20.941171999087008 L-13.09841647042424,20.910304670108957 L-13.138529561833069,20.88237448628303 L-13.179950182948886,20.857479905897005 L-13.222573237417075,20.835719387238655 L-13.26629362888301,20.817191388595745 L-13.311080731272309,20.80192845449308 L-13.356961860953792,20.789870161699554 L-13.403838754356316,20.781036037316674 L-13.451610805327638,20.77544740344396 L-13.500177407715508,20.773125582180942 L-13.549437955367686,20.774091895627144 L-13.599291842131926,20.77836766588209 L-13.649638461855982,20.785974215045307 L-13.700377208387595,20.796932865216316 " />
			<path d="M-13.050619722143736,23.228108486338634 L-13.043700513645623,23.126316233417498 L-13.03232980996098,23.02571425676741 L-13.012505406960791,22.902363979441365 L-12.98602203074538,22.77757095888098 L-12.952805052001155,22.65245286405156 L-12.912904940498754,22.528200336006705 L-12.866504025036827,22.406043436392103 L-12.813917323320597,22.287213795526235 L-12.755586960739066,22.17290472974609 L-12.692070244476334,22.064231937409712 " />
			<path d="M-13.457036182543442,23.755174897110916 L-13.48770702420151,23.651206600432353 L-13.512191029788179,23.54314369710456 L-13.530326902240184,23.431890236965625 L-13.542058026661138,23.31838960248602 L-13.547431535082652,23.203598455337556 L-13.546593310008888,23.088461085227003 L-13.53977940148834,22.97388553706316 L-13.527304556791563,22.86072267449055 L-13.511278073841893,22.758257893250207 L-13.490659697271658,22.654669459285493 L-13.465389002278092,22.550587779614336 L-13.43546389240152,22.4466831315277 L-13.400944208998897,22.343653209659216 L-13.361953507394952,22.2422089199978 L-13.318678786693622,22.143058965672985 L-13.271368073494093,22.046893884363264 L-13.220325889061552,21.954370267081135 L-13.165906762930588,21.866095902824352 L-13.108507080316073,21.78261654922934 L-13.048555653534502,21.704404929014668 L-12.98650347879951,21.631852405516064 L-12.922813173026084,21.565263613200248 L-12.857948579085942,21.504854128997795 L-12.792364985363665,21.450751086310706 L-12.757692866033345,21.424768870717415 " />
			<path d="M-12.721188609854234,21.563324797648306 L-12.781231425279605,21.620076206845315 L-12.84022892814512,21.68212940748477 L-12.89781088659895,21.74930869287255 L-12.95360809087917,21.821372445158378 L-13.007259486838421,21.898014690027452 L-13.058419434387677,21.978868589310643 L-13.106764803311124,22.063511831384783 L-13.152001612718859,22.15147377464948 L-13.193870934263277,22.242244099603447 L-13.232153812865006,22.335282638925257 L-13.266675009709704,22.430029990233198 L-13.297305436470527,22.52591847851296 L-13.323963221519406,22.622383027420163 L-13.346613422101825,22.718871520532552 L-13.36526646497875,22.814854281926284 L-13.379975456638984,22.90983237454141 L-13.390582989818041,23.002186625223576 L-13.39745173270073,23.09558464339638 L-13.400399036383833,23.189571896244257 L-13.399275283486407,23.283665234395 L-13.393968473294423,23.377359942685374 L-13.38440807814991,23.470137826139275 L-13.370567974051111,23.56147609328909 L-13.352468281666912,23.650856741386622 " />
			<path d="M-13.753043677364948,23.978542016275583 L-13.794843825391546,23.91926301561501 L-13.834077205780511,23.855715342042384 L-13.870489475484272,23.788101164381995 L-13.903846158038757,23.716668417271222 L-13.93393713925402,23.64170829730929 L-13.9605807255343,23.56355160915132 L-13.983627109799334,23.48256404582205 L-14.002961111738577,23.399140539146288 L-14.018504089378448,23.313698861463205 L-14.030214955699126,23.22667269523872 L-14.038090274703894,23.13850441014765 L-14.042163452973858,23.049637796087886 L-14.04250308234806,22.960510995083084 L-14.039210524237312,22.871549856054752 L-14.032416854030043,22.78316190601577 L-14.022279303622145,22.69573109221369 L-14.006252820672481,22.593266310973377 L-13.985634444102248,22.489677877008663 L-13.960363749108684,22.385596197337502 L-13.930438639232113,22.281691549250866 L-13.89591895582949,22.17866162738238 L-13.856928254225547,22.077217337720963 L-13.813653533524196,21.978067383396098 L-13.76634282032468,21.881902302086402 L-13.715300635892147,21.78937868480429 L-13.660881509761161,21.701104320547472 L-13.603481827146645,21.617624966952455 L-13.543530400365071,21.539413346737792 L-13.481478225630081,21.466860823239188 L-13.417787919856652,21.400272030923364 L-13.352923325916514,21.339862546720923 L-13.287339732194251,21.285759504033845 L-13.21699135211795,21.234802125382572 L-13.144639799558028,21.189490080048127 L-13.070721423469264,21.150402352242786 L-12.995719447440749,21.11805838938618 " />
			<path d="M-12.867333082613063,21.174644423402764 L-12.937437613530605,21.20638586013692 L-13.006507324594297,21.24396872151065 L-13.074150069148956,21.286956694872753 L-13.140010632042376,21.33486920408447 L-13.205594225764635,21.388972246771544 L-13.270458819704766,21.449381730973993 L-13.334149125478179,21.515970523289816 L-13.396201300213162,21.588523046788442 L-13.456152726994722,21.666734667003134 L-13.513552409609204,21.75021402059816 L-13.567971535740126,21.838488384854955 L-13.61901372017261,21.931012002137077 L-13.666324433372079,22.027177083446787 L-13.709599154073366,22.12632703777165 L-13.748589855677256,22.2277713274331 L-13.783109539079813,22.330801249301604 L-13.813034648956318,22.43470589738827 L-13.838305343949816,22.538787577059452 L-13.858923720519973,22.64237601102418 L-13.874950203469567,22.74484079226455 L-13.884196194533509,22.823225864170304 L-13.890764782052216,22.90241219564781 L-13.894539704762277,22.982125422875097 L-13.895421144752836,23.062075257926335 L-13.893327859409629,23.141958419717838 L-13.888199075074512,23.22146198829352 L-13.879996075356727,23.300267117334066 L-13.868703423707691,23.378053022222332 L-13.854329769873782,23.454501146123917 L-13.836908202817078,23.52929939541652 L-13.816496128048108,23.602146329306468 L-13.793174664246607,23.672755187196028 L-13.767047571609016,23.740857641554587 L-13.738239741534054,23.80620717355847 L-13.70689529303533,23.868581983070776 L-13.673175334746903,23.927787362771372 " />
			<path d="M-13.952261427629814,24.077597321711092 L-13.970222177394607,24.067196472139408 " />
			<path d="M-14.037144996271127,24.02313663656321 L-14.080904307788817,23.989341452790093 L-14.122513340304792,23.953046789030797 L-14.177889913088334,23.8976229060571 L-14.23072075934783,23.835928231171984 L-14.280551638426662,23.76809982949823 L-14.326943954341255,23.69436313226496 L-14.369485453607721,23.61503232720015 L-14.407800757327465,23.53050780135019 L-14.441561220150795,23.441270548591223 L-14.470493614596197,23.347873638482724 L-14.494387185938637,23.25093103271748 L-14.513098708534098,23.151104211538648 L-14.526555292187217,23.049087216917453 L-14.534754826023832,22.945590816994464 L-14.537764093663274,22.841326537684612 L-14.535714732934327,22.73699128963062 L-14.528797332890907,22.633253246068893 L-14.517254050452731,22.53073950993683 L-14.501227567503067,22.428274728696515 L-14.480609190932825,22.32468629473175 L-14.455338495939253,22.22060461506059 L-14.425413386062681,22.116699966973954 L-14.390893702660055,22.013670045105464 L-14.351903001056113,21.91222575544406 L-14.308628280354778,21.813075801119236 L-14.261317567155261,21.71691071980954 L-14.210275382722733,21.624387102527432 L-14.155856256591774,21.536112738270656 L-14.098456573977256,21.452633384675632 L-14.038505147195684,21.374421764460966 L-13.976452972460693,21.301869240962358 L-13.912762666687264,21.235280448646535 L-13.847898072747096,21.17487096444406 L-13.782314479024834,21.120767921756983 L-13.711966098948531,21.069810543105714 L-13.63961454638861,21.024498497771262 L-13.565696170299848,20.985410769965924 L-13.490694194271331,20.953066807109323 " />
			<path d="M-13.343365094119116,21.002176507159817 L-13.418367070147976,21.03452047001655 L-13.492285446236737,21.073608197821887 L-13.56463699879666,21.118920243156335 L-13.634985378872962,21.169877621807608 L-13.70056897259522,21.223980664494682 L-13.76543356653535,21.284390148697135 L-13.829123872308763,21.350978941012958 L-13.891176047043746,21.42353146451158 L-13.951127473825306,21.50174308472628 L-14.008527156439786,21.585222438321303 L-14.062946282570708,21.673496802578097 L-14.113988467003193,21.76602041986022 L-14.16129918020266,21.86218550116993 L-14.204573900903949,21.96133545549479 L-14.243564602507838,22.06277974515624 L-14.278084285910397,22.165809667024746 L-14.308009395786904,22.269714315111408 L-14.3332800907804,22.373795994782586 L-14.353898467350557,22.47738442874732 L-14.369924950300152,22.57984920998769 L-14.381468232738397,22.682362946119703 L-14.3883856327819,22.786100989681408 L-14.390434993510913,22.890436237735365 L-14.387425725871545,22.994700517045203 L-14.379226192034995,23.09819691696817 L-14.365769608381935,23.200213911589366 L-14.347058085786523,23.30004073276821 L-14.323164514444132,23.396983338533435 L-14.294232119998778,23.490380248641923 L-14.260471657175474,23.57961750140089 L-14.22215635345575,23.664142027250858 L-14.17961485418933,23.743472832315614 L-14.133222538274774,23.817209529548837 L-14.083391659195966,23.885037931222598 L-14.030560812936475,23.94673260610771 L-13.975184240152924,24.002156489081422 L-13.954241686905576,24.020962170168964 " />
			<path d="M-14.996196139076014,23.05286837481855 L-15.006010358273224,22.971970554817915 L-15.012354582709934,22.88932600084429 L-15.015209791005892,22.80518249944784 L-15.014567422618637,22.719792331352814 L-15.01042940350988,22.633411515064402 L-15.00280814037105,22.546299039268977 L-14.991726483425305,22.458716086329037 L-14.97721765791754,22.37092524920104 L-14.959325164497788,22.283189744123963 L-14.938102648796706,22.195772621439126 L-14.913613740584184,22.1089359769074 L-14.885931862993283,22.022940165888496 L-14.855140012381549,21.938043022738306 L-14.821330509489666,21.854499087764797 L-14.784604722643579,21.772558844060203 L-14.745072763829953,21.6924679664976 L-14.702853158556218,21.61446658514361 L-14.65807249048503,21.538788565295643 L-14.610865021908605,21.465660806302303 L-14.561372291200842,21.39530256126923 L-14.509742688454146,21.32792477969007 L-14.45613101057329,21.263729474973477 L-14.400697997160249,21.202909118762523 L-14.343609848581519,21.145646063862333 L-14.285037727662864,21.092111997506294 L-14.22515724650552,21.042467426599956 L-14.164147939962483,20.99686119648604 L-14.102192727353538,20.955430044673342 L-14.039477364032907,20.91829819086763 L-13.976189884453833,20.885576964533623 L-13.912520038399938,20.85736447110478 L-13.848658722073646,20.833745297841638 " />
			<path d="M-13.776562470096772,23.992251766791867 L-13.843576982969362,24.00686244898154 L-13.910649232795171,24.016913859285 L-13.97748328370473,24.02230909687137 L-14.043781638070206,24.02299127577108 L-14.109249604591705,24.01894483612727 L-14.173599646926034,24.01019595606636 L-14.236555578836763,23.99681204595187 L-14.297856477955042,23.97890034425083 " />
			<path d="M-14.297856477955401,23.978900344250718 L-14.342357477343807,23.962677008555552 L-14.385709825811757,23.94408726910353 L-14.427828167080275,23.92321380207365 L-14.468634973901088,23.90014825568537 L-14.50806092018085,23.874990256099007 L-14.546045142761706,23.847846358215687 L-14.582535393820015,23.81882896101938 L-14.617488087135374,23.788055206753935 L-14.65007695557664,23.756488652864256 L-14.681864527857707,23.72277556626215 L-14.712759564709836,23.686932400817607 L-14.742671623206068,23.64898559844532 L-14.771511761060903,23.608971808439666 L-14.799193257924786,23.566938003017498 L-14.825632343214457,23.522941481677588 L-14.850748919269972,23.477049758898872 L-14.874467268136032,23.42934033188537 L-14.896716730065132,23.379900327461918 L-14.917432341956502,23.32882602976495 L-14.936555424389434,23.276222292975337 L-14.96982378049103,23.166884497840684 L-14.996196139075671,23.052868374818885 " />
			<path d="M-13.83833984094971,20.83718492488296 L-13.91334181697858,20.86952888773969 L-13.987260193067332,20.90861661554503 L-14.059611745627247,20.953928660879477 L-14.129960125703544,21.004886039530746 L-14.195543719425803,21.05898908221782 L-14.260408313365948,21.119398566420287 L-14.324098619139372,21.185987358736124 L-14.386150793874341,21.258539882234736 L-14.446102220655884,21.336751502449406 L-14.503501903270367,21.420230856044437 L-14.557921029401287,21.508505220301227 L-14.608963213833784,21.601028837583367 L-14.65627392703326,21.697193918893102 L-14.699548647734536,21.796343873217936 L-14.738539349338417,21.897788162879362 L-14.773059032740976,22.000818084747866 L-14.802984142617483,22.104722732834528 L-14.828254837610984,22.20880441250573 L-14.848873214181147,22.31239284647049 L-14.864899697130735,22.414857627710827 L-14.87644297956898,22.517371363842816 L-14.883360379612478,22.62110940740452 L-14.8854097403415,22.72544465545849 L-14.882400472702125,22.829708934768345 L-14.874200938865576,22.933205334691344 L-14.860744355212514,23.03522232931251 L-14.842032832617106,23.135049150491334 L-14.818139261274718,23.231991756256562 L-14.789206866829362,23.325388666365047 L-14.755446404006058,23.41462591912402 L-14.717131100286336,23.499150444973985 L-14.674589601019912,23.578481250038745 L-14.628197285105362,23.652217947271975 L-14.57836640602655,23.720046348945733 L-14.525535559767059,23.781741023830843 L-14.470158986983506,23.83716490680456 L-14.413886215643041,23.88525863272699 L-14.353794799892958,23.928741768653012 L-14.290090420273096,23.967161513590717 L-14.223033426363104,24.000103566795424 " />
			<path d="M-14.150528610318851,24.028009633461796 L-14.098228328570064,24.043600956140185 L-14.044691431467507,24.05589586541004 L-13.990078666291863,24.06482204914744 L-13.934559514976494,24.07032818982273 " />
			<path d="M-12.995719447440406,21.11805838938605 L-12.920457887511143,21.092987441380846 " />
			<path d="M-13.490694194270988,20.95306680710919 L-13.44144652553662,20.93582203872132 L-13.392110299796705,20.921738270102686 L-13.342840148649085,20.910900159476178 L-13.293792586751122,20.90337308757679 L-13.245124389512993,20.899202159287853 L-13.196990940684348,20.8984115103938 L-13.149544585982357,20.901003939371655 L-13.102933029196434,20.906960874820882 " />
			<path d="M-13.052400097416049,20.947475110284046 L-13.124162385493596,20.95015802239022 L-13.196918920738039,20.960274306226637 L-13.27015692625537,20.977690933133857 L-13.343365094118942,21.00217650715975 " />
			<path d="M-13.700377208387609,20.796932865216323 L-13.769384851965322,20.813929511937395 L-13.838339840949537,20.83718492488289 " />
			<path d="M-9.146438110439577,22.55985668886193 L-9.15069354192992,22.723911298361667 L-9.161957043350826,22.889706424604913 " />
			<path d="M-10.171915591062435,25.30625783707328 L-10.195869892877402,25.333226171353182 " />
			<path d="M-15.201243032949705,19.679897678676436 L-15.350622420502098,19.860984836654524 L-15.494592641332305,20.046598467994794 " />
			<path d="M-16.57054942671212,23.43616478880128 L-16.564326149181504,23.571730632326066 L-16.55011889845976,23.711615693525744 L-16.539707759096416,23.783347542876715 L-16.52692439756833,23.856362731194068 L-16.51164340425318,23.930729103327018 L-16.493739369528647,24.006514504124784 L-16.473070688356742,24.083795539929596 L-16.449480448673846,24.162657097970165 L-16.4228202803192,24.243179444425447 L-16.392941813132047,24.325442845474388 L-16.35962434347694,24.40964129529625 L-16.322841284649808,24.495627353837243 L-16.282735441886917,24.58296913592673 L-16.239449620424544,24.671234756394085 " />
			<path d="M-16.239449620424544,24.67123475639409 L-16.193379419450633,24.759622399817733 L-16.144317585612878,24.84870557401294 L-16.092336600028,24.93846742769838 L-16.037508943812703,25.02889110959273 L-15.919603543957724,25.211656552882882 L-15.791181234981641,25.396867093632807 L-15.653704985946296,25.583347234212976 L-15.508903867943458,25.769854306679434 L-15.357756882951728,25.956152745309964 L-15.20124303294971,26.142006984382327 " />
			<path d="M-16.57101982964185,23.3675445971002 L-16.570549426712397,23.436164788801364 " />
			<path d="M-15.111899098658775,26.181002665636292 L-13.202710789455097,26.817398768704187 " />
			<path d="M-15.111899098658775,26.181002665636296 L-15.024729484815502,26.102155674057503 L-14.927808433287401,26.02430545500878 L-14.82045440977314,25.948083883972398 L-14.762652054052033,25.910781302547043 L-14.70198587997139,25.874122836430626 L-14.638315838471883,25.838136876386894 L-14.571464044565445,25.802819027596872 L-14.501288552571314,25.768199096121762 L-14.427647416808727,25.734306888022765 L-14.350266362605053,25.70113021436798 L-14.269094101696018,25.668721601236214 L-14.184323168013389,25.637207927204738 L-14.096146095488939,25.606716070850833 " />
			<path d="M-14.096146095488933,25.60671607085083 L-13.910901187813307,25.549292469365874 L-13.715243130879978,25.496721578817226 L-13.50978299819953,25.44871862818763 L-13.295131863282547,25.404998846459836 L-13.071763431879889,25.365224124743207 L-12.842104631148743,25.329281113995393 L-12.609024635485618,25.297067318539046 L-12.373286311132542,25.268131736460884 " />
			<path d="M-12.373286311132537,25.26813173646088 L-10.464098001928859,25.904527839528775 " />
			<path d="M-13.202710789455104,26.817398768704187 L-10.46409800192886,25.904527839528775 " />
			<path d="M-15.201243032949598,26.142006984382054 L-15.111899098658743,26.18100266563616 " />
			<path d="M-12.283942376841607,25.169573432346297 L-10.374754067637928,25.805969535414192 " />
			<path d="M-12.283942376841605,25.1695734323463 L-12.27771909931099,24.929807485367363 L-12.271676175410171,24.80979887226384 L-12.263511848589248,24.68969933240576 L-12.253100709225903,24.56950349053423 L-12.240317347697816,24.44920597139037 L-12.225036354382667,24.328801399715278 L-12.207132319658134,24.208284400250072 L-12.18646363848623,24.08764890357413 L-12.162873398803335,23.966888184183034 L-12.13621323044869,23.845995882692183 L-12.106334763261534,23.72496563971697 L-12.07301729360642,23.60365285224543 L-12.036234234779206,23.48234954830956 L-11.996128392016104,23.361704315090744 L-11.952842570553324,23.242365739770353 " />
			<path d="M-11.952842570553322,23.24236573977035 L-11.906772369579643,23.12541567234626 L-11.857710535742067,23.01000935624024 L-11.805729550157313,22.89610938953014 L-11.750901893942101,22.783678370293813 L-11.693300048213157,22.672678896609124 L-11.632996494087198,22.56307356655392 L-11.570063712680948,22.454824978206066 L-11.504574185111128,22.347895729643408 L-11.436812856838056,22.242516832264105 L-11.367097936075785,22.13890333418362 L-11.29555179807164,22.036993888555788 L-11.222296818072946,21.93672714853443 L-11.14745537132703,21.838041767273374 L-11.071149833081217,21.740876397926453 L-10.914635983079199,21.55086030759031 " />
			<path d="M-10.914635983079195,21.550860307590302 L-9.005447673875517,22.187256410658197 " />
			<path d="M-10.374754067638163,25.805969535414093 L-9.005447673874805,22.187256410658506 " />
			<path d="M-12.373286311132585,25.268131736460784 L-12.283942376841738,25.16957343234612 " />
			<path d="M-10.46409800192891,25.904527839528676 L-10.374754067638063,25.80596953541401 " />
			<path d="M-10.914635983079195,21.41330632222145 L-9.005447673875517,22.049702425289347 " />
			<path d="M-10.914635983079194,21.413306322221455 L-11.070936138260285,21.227714852813175 L-11.221270775903102,21.042453995973137 L-11.364890260923678,20.857565296928435 L-11.501044958238042,20.673090300906157 L-11.628925391570526,20.489073869568212 L-11.74763058701329,20.305565935430334 L-11.803302093487805,20.213916140002002 L-11.856277961580082,20.122532478372634 L-11.90623313827397,20.031907584972814 L-11.95284257055332,19.942534094233128 " />
			<path d="M-11.952842570553322,19.942534094233125 L-11.995686206554103,19.85522197246719 L-12.035170919420418,19.769331171929135 L-12.071378088957474,19.684827256926305 L-12.104389094970472,19.60167579176605 L-12.134285317264618,19.519842340755723 L-12.16114813564512,19.439292468202677 L-12.185058929917185,19.359991738414255 L-12.206099079886013,19.281905715697814 L-12.22433445453498,19.20519238595919 L-12.23986746220544,19.12999486402295 L-12.252834291739573,19.056256407574537 L-12.263371131979559,18.983920274299397 L-12.271614171767576,18.912929721882968 L-12.277699599945803,18.843228008010698 L-12.283942376841605,18.707464126640406 " />
			<path d="M-12.283942376841607,18.7074641266404 L-10.374754067637928,19.343860229708294 " />
			<path d="M-9.005447673874805,22.04970242528856 L-10.374754067638163,19.343860229708547 " />
			<path d="M-10.914635983078918,21.550860307590217 L-10.914635983078917,21.41330632222139 " />
			<path d="M-9.005447673875244,22.187256410658108 L-9.005447673875242,22.049702425289283 " />
			<path d="M-12.373286311132537,18.668468445386434 L-10.464098001928859,19.30486454845433 " />
			<path d="M-12.373286311132535,18.668468445386438 L-12.609024635485932,18.697404027464646 L-12.84210463114913,18.72961782292101 L-13.071763431880001,18.765560833668783 L-13.295131863282398,18.80533555538537 L-13.509782998199332,18.849055337113146 L-13.715243130879808,18.89705828774274 L-13.910901187813211,18.949629178291406 L-14.096146095488926,19.007052779776387 " />
			<path d="M-14.096146095488933,19.007052779776387 L-14.184323168013215,19.037544636130235 L-14.269094101695696,19.069058310161648 L-14.35026636260462,19.101466923293355 L-14.427647416808224,19.134643596948095 L-14.501288552570783,19.16853580504706 L-14.571464044564916,19.203155736522156 L-14.638315838471383,19.238473585312175 L-14.701985879970948,19.27445954535592 L-14.762652054051657,19.31111801147236 L-14.820454409772823,19.348420592897742 L-14.927808433287202,19.424642163934184 L-15.024729484815412,19.50249238298298 L-15.111899098658771,19.58133937456185 " />
			<path d="M-12.283942376841715,18.707464126640684 L-12.373286311132562,18.66846844538658 " />
			<path d="M-10.37475406763804,19.343860229708575 L-10.464098001928887,19.30486454845447 " />
			<path d="M-15.11189909865873,19.581339374561956 L-15.201243032949591,19.679897678676635 " />
			<path d="M-10.252691012750198,26.21118245976871 L-12.637025364505867,27.0059605770206 " />
			<path d="M26.51758665412757,38.23175605821426 L-8.367473313637195,26.603402735626 " />
			<path d="M25.50183365095772,38.80604265299972 L25.589842214352018,38.77561511363766 L25.674104455412635,38.744294350441194 L25.75472716327103,38.712105824806585 L25.831817127058667,38.67907499813011 L25.905481135907,38.645227331808044 L25.975825978947494,38.610588287236645 L26.042958445311605,38.5751833258122 L26.1069853241308,38.539037908930965 L26.168074479177395,38.50214570461961 L26.22630948928061,38.46458176513005 L26.33413852152403,38.388028831552994 L26.43077990789306,38.310335499665285 L26.517586654127562,38.231756058214266 " />
			<path d="M23.778973866601326,39.14462698738967 L24.015514841337712,39.11557044944192 L24.2490654984839,39.08326343226589 L24.477730211593112,39.047478757761155 L24.699613354218567,39.00798924782728 L24.91352478071984,38.964481969358644 L25.11906119944203,38.91654309343969 L25.315817059801606,38.863691988402095 L25.501833650957714,38.80604265299972 " />
			<path d="M23.77897386660133,39.14462698738967 L-9.575158770811647,28.026582774918673 " />
			<path d="M-11.858507974161,27.26546637380222 L-12.637025364505867,27.005960577020602 " />
			<path d="M26.6069305884185,38.133197754099676 L-8.299416237911426,26.497748811989695 " />
			<path d="M26.51758665412752,38.23175605821416 L26.60693058841836,38.1331977540995 " />
			<path d="M27.97623698218091,34.51448462934368 L-6.988984882220784,22.859410674543106 " />
			<path d="M27.645137175893332,36.44169232191924 L27.687980811893876,36.323666732837445 L27.72746552476001,36.20506804307427 L27.763672694296925,36.08591013768156 L27.796683700309828,35.96620690171113 L27.826579922603916,35.845972220214826 L27.853442740984384,35.72521997824446 L27.87735353525644,35.60396406085187 L27.898393685225276,35.48221835308888 L27.916629059874257,35.36033080450155 L27.932162067544727,35.2386566687238 L27.945128897078867,35.1172207869393 L27.955665737318856,34.996048000331704 L27.963908777106873,34.87516315008468 L27.9699942052851,34.754591077381896 L27.976236982180904,34.514484629343684 " />
			<path d="M26.606930588418496,38.133197754099676 L26.75630997597089,37.952110596121585 L26.90028019680109,37.76649696478131 " />
			<path d="M26.90028019680109,37.76649696478131 L27.010741020272775,37.614920118491106 L27.117018674301068,37.45984273209449 L27.218780887131896,37.30098675551083 L27.31564796852913,37.13803445814886 L27.407220923373686,36.97065195479665 L27.493143483959795,36.79837029065591 L27.57282135545762,36.621394058295 L27.645137175893332,36.44169232191924 " />
			<path d="M27.97623698218091,34.37693064397483 L-6.972806942160787,22.727249335860925 " />
			<path d="M27.976236982181184,34.5144846293436 L27.976707385110636,34.44555083567595 " />
			<path d="M27.976707385110636,34.445550835675924 L27.976236982181184,34.376930643974774 " />
			<path d="M-9.79139831098912,19.567339810512546 L-8.654588705758758,21.813752601822834 " />
			<path d="M26.6069305884185,31.67108844839378 L-7.045583640618222,20.453583705381533 " />
			<path d="M-9.321760048383883,19.694858236126308 L-9.779885586736174,19.542149723342213 " />
			<path d="M27.645137175893332,33.14186067638202 L27.599066974919417,33.05347303295837 L27.55000514108166,32.96438985876316 L27.498024155496765,32.87462800507772 L27.44319649928146,32.78420432318336 L27.32529109942646,32.60143887989321 L27.196868790450395,32.41622833914329 L27.059392541415075,32.22974819856313 L26.914591423412244,32.04324112609667 L26.763444438420517,31.856942687466145 L26.606930588418503,31.671088448393785 " />
			<path d="M27.976236982180907,34.37693064397483 L27.970013704650295,34.24136480045004 L27.955806453928542,34.10147973925036 L27.94539531456519,34.02974788989938 L27.93261195303709,33.95673270158203 L27.917330959721923,33.88236632944908 L27.899426924997368,33.8065809286513 L27.878758243825413,33.72929989284648 L27.855168004142442,33.65043833480588 L27.828507835787754,33.56991598835058 L27.79862936860063,33.48765258730165 L27.76531189894561,33.40345413747981 L27.728528840118543,33.317468078938845 L27.688422997355694,33.23012629684937 L27.645137175893332,33.14186067638202 " />
			<path d="M26.51758665412757,31.632092767139813 L-7.047537225984076,20.443718140435927 " />
			<path d="M-9.330886429333443,19.682601739319466 L-9.775980479723177,19.534237055856224 " />
			<path d="M26.606930588418386,31.671088448394062 L26.51758665412754,31.63209276713996 " />
			<path d="M-12.726369298796564,26.96696489576638 L-12.743799782451145,26.932521079264284 " />
			<path d="M-12.637025364505817,27.005960577020467 L-12.726369298796685,26.96696489576636 " />
			<path d="M27.645137175893083,36.441692321919135 L27.6844774236846,36.33419295300111 L27.721480441854997,36.225806960277104 L27.7561066066456,36.11665040618291 L27.78831883949185,36.00684017829073 L27.818082646727998,35.896493864143025 L27.845366156523745,35.78572962533686 L27.87014015301343,35.674666070993496 L27.892378107581084,35.56342213074877 L27.912056207267963,35.45211692740024 L27.929153380272034,35.34086964934755 L27.943651318512206,35.229799422962486 L27.955534497233085,35.11902518502546 L27.96479019162925,35.00866555536504 L27.97140849047131,34.898838709836895 L27.975382306719094,34.78966225377806 L27.976707385110636,34.681253096072304 " />
			<path d="M26.98675789144592,37.65110157706643 L27.084735048498217,37.515214760691464 L27.1786823305716,37.37421326441903 L27.268360559280136,37.22845606095754 L27.35354142472999,37.07831423046911 L27.434008066768726,36.9241700158445 L27.509555627084957,36.76641584955905 L27.579991770752763,36.60545335458721 L27.645137175893073,36.44169232191916 " />
			<path d="M-13.369511919735094,23.567398269196644 L-13.35516702872211,23.442080170449806 L-13.33693560583352,23.31640387497901 L-13.314851595389962,23.19060337420094 L-13.288956114683053,23.06491289078494 L-13.259297377420822,22.939566442563635 L-13.225930603960645,22.81479740682498 L-13.18891791849677,22.690838085796862 L-13.148328233393896,22.567919274133374 L-13.104237120882125,22.4462698292079 L-13.056726672352216,22.32611624501321 L-13.00588534551306,22.207682230461806 L-12.951807799695983,22.09118829287167 L-12.894594719612531,21.97685132741298 L-12.834352627893812,21.864884213280078 L-12.771193686760501,21.755495417340644 L-12.705235489192699,21.648888606 " />
			<path d="M-14.096146095488933,19.007052779776387 L-14.195655762894411,19.042891136174894 L-14.295004489792383,19.084008464457703 L-14.394031595970123,19.130338264114318 L-14.492576921383481,19.181805604319795 L-14.590481085189388,19.23832724512299 L-14.687585743518145,19.299811772073497 L-14.783733845568555,19.36615974406947 L-14.878769887611753,19.43726385418724 L-14.972540164492889,19.51300910323259 L-15.064893018223911,19.593272985733034 L-15.155679083265404,19.67792568807025 L-15.244751528100762,19.766830298432236 L-15.331966292711995,19.85984302824564 L-15.417182321573094,19.9568134447301 L-15.500261791784139,20.057584714198505 L-15.581070335977127,20.161993855709675 " />
			<path d="M-15.581070335977131,20.161993855709678 L-15.679047493029426,20.297880672084645 L-15.772994775102813,20.438882168357075 L-15.86267300381135,20.584639371818565 L-15.947853869261202,20.73478120230699 L-16.02832051129994,20.8889254169316 L-16.10386807161617,21.04667958321705 L-16.174304215283975,21.207642078188897 L-16.239449620424296,21.371403110856967 " />
			<path d="M-11.95284257055357,19.9425340942334 L-11.994477921443362,19.86379336273169 L-12.03836379125497,19.78766875433255 L-12.084453185899779,19.714241785173375 L-12.132696751699587,19.643591082691874 L-12.18304282823577,19.57579230142988 L-12.235437503668539,19.51091804202054 L-12.289824672467097,19.449037773445745 L-12.346146095488844,19.39021775864703 L-12.404341462343314,19.33452098356951 L-12.464348455974042,19.282007089715 L-12.526102819389235,19.23273231027637 L-12.589538424469772,19.186749409921628 L-12.654587342780845,19.144107628292232 L-12.721179918311424,19.104852627276006 L-12.789244842063678,19.06902644211127 L-12.858709228412403,19.036667436374447 L-12.929498693152809,19.007810260899383 L-13.001537433152967,18.982485816672373 L-13.074748307525711,18.9607212217426 L-13.149052920233032,18.94253978218346 L-13.224371704034514,18.92796096713583 L-13.300624005689933,18.917000387960023 L-13.377728172324764,18.909669781518748 L-13.455601638866124,18.905976997608995 L-13.534161016455528,18.905925990556277 L-13.61332218174375,18.90951681498021 L-13.693000366972234,18.916745625736073 L-13.77311025074451,18.92760468203224 L-13.853566049390505,18.942082355719243 L-13.934281608825831,18.960163143741468 L-14.01517049680774,18.981827684738228 L-14.09614609548891,19.00705277977638 " />
			<path d="M-11.952842570553571,23.242365739770243 L-11.913502322762184,23.134866370852585 L-11.876499304591901,23.026480378128962 L-11.8418731398014,22.91732382403515 L-11.809660906955227,22.807513596143348 L-11.779897099719145,22.697167281996027 L-11.752613589923444,22.586403043190252 L-11.727839593433789,22.475339488847276 L-11.705601638866145,22.364095548602933 L-11.68592353917926,22.252790345254784 L-11.668826366175164,22.141543067202473 L-11.654328427934946,22.030472840817776 L-11.642445249214006,21.919698602881116 L-11.633189554817761,21.80933897322106 L-11.626571255975602,21.69951212769326 L-11.622597439727695,21.59033567163477 L-11.621272361336016,21.481926513929302 L-11.622597439727695,21.37440074181829 L-11.626571255975602,21.267873496591736 L-11.633189554817761,21.162458850292044 L-11.642445249214004,21.05826968356282 L-11.654328427934944,20.955417564773448 L-11.668826366175164,20.854012630548898 L-11.68592353917926,20.75416346783265 L-11.705601638866144,20.655976997609095 L-11.727839593433789,20.559558360409845 L-11.752613589923442,20.46501080372664 L-11.779897099719143,20.372435571451334 L-11.809660906955227,20.2819317954614 L-11.841873139801399,20.193596389467046 L-11.876499304591901,20.10752394523357 L-11.913502322762184,20.023806631290135 L-11.952842570553559,19.942534094233423 " />
			<path d="M-14.096146095488933,25.60671607085083 L-14.015170496807741,25.57795743343486 L-13.934281608825835,25.54569604911035 L-13.853566049390508,25.50996646417569 L-13.773110250744512,25.47080693876536 L-13.693000366972235,25.42825940588001 L-13.613322181743753,25.38236942648355 L-13.53416101645553,25.333186140715338 L-13.455601638866126,25.280762215269682 L-13.377728172324765,25.225153786999023 L-13.300624005689933,25.166420402801197 L-13.224371704034516,25.10462495585511 L-13.149052920233032,25.039833618273157 L-13.074748307525711,24.972115770242468 L-13.001537433152967,24.901543925730866 L-12.929498693152809,24.828193654837087 L-12.858709228412405,24.75214350286842 L-12.78924484206368,24.673474906232446 L-12.721179918311426,24.592272105232873 L-12.654587342780847,24.50862205386293 L-12.589538424469774,24.422614326692816 L-12.526102819389235,24.33434102295105 L-12.464348455974044,24.243896667902288 L-12.404341462343314,24.15137811162729 L-12.346146095488846,24.056884425313463 L-12.289824672467098,23.960516795166914 L-12.235437503668539,23.86237841405975 L-12.18304282823577,23.762574371028563 L-12.132696751699589,23.661211538742446 L-12.084453185899779,23.558398459061074 L-12.038363791254971,23.45424522680536 L-11.994477921443362,23.348863371865146 L-11.952842570553582,23.24236573977027 " />
			<path d="M-16.239449620424296,24.671234756393815 L-16.197814269534504,24.749975487895526 L-16.153928399722897,24.826100096294663 L-16.10783900507809,24.899527065453842 L-16.05959543927828,24.970177767935343 L-16.009249362742096,25.03797654919734 L-15.956854687309328,25.102850808606682 L-15.90246751851077,25.16473107718147 L-15.84614609548902,25.223551091980188 L-15.787950728634552,25.279247867057705 L-15.727943735003825,25.331761760912215 L-15.666189371588631,25.38103654035085 L-15.602753766508094,25.42701944070559 L-15.53770484819702,25.469661222334988 L-15.471112272666439,25.50891622335121 L-15.403047348914189,25.544742408515948 L-15.333582962565464,25.57710141425277 L-15.262793497825058,25.605958589727834 L-15.190754757824902,25.631283033954844 L-15.117543883452157,25.653047628884618 L-15.043239270744836,25.671229068443758 L-14.967920486943353,25.685807883491385 L-14.891668185287934,25.696768462667194 L-14.814564018653103,25.70409906910847 L-14.73669055211174,25.70779185301822 L-14.658131174522339,25.70784286007094 L-14.578970009234116,25.704252035647006 L-14.499291824005633,25.697023224891144 L-14.419181940233354,25.686164168594978 L-14.338726141587358,25.671686494907973 L-14.258010582152034,25.65360570688575 L-14.177121694170125,25.63194116588899 L-14.096146095488946,25.606716070850833 " />
			<path d="M-16.239449620424296,21.371403110856974 L-16.27878986821581,21.478902479774998 L-16.31579288638621,21.587288472498997 L-16.35041905117681,21.696445026593192 L-16.382631284023063,21.80625525448538 L-16.41239509125921,21.916601568633084 L-16.439678601054958,22.027365807439246 L-16.464452597544643,22.138429361782606 L-16.486690552112297,22.249673302027336 L-16.506368651799175,22.360978505375865 L-16.523465824803246,22.472225783428552 L-16.537963763043418,22.583296009813623 L-16.549846941764297,22.69407024775065 L-16.55910263616046,22.804429877411064 L-16.56572093500252,22.91425672293921 L-16.569694751250307,23.02343317899804 L-16.57101982964185,23.131842336703816 " />
			<path d="M-16.57101982964185,23.13184233670383 L-16.569694751250037,23.239368108814425 L-16.565720935002012,23.34589535404056 L-16.559102636159754,23.451310000339838 L-16.549846941763427,23.555499167068653 L-16.537963763042427,23.658351285857616 L-16.523465824802162,23.759756220081766 L-16.50636865179804,23.859605382797618 L-16.48669055211115,23.95779185302079 L-16.464452597543513,24.05421049021966 L-16.43967860105389,24.1487580469025 L-16.412395091258233,24.241333279177454 L-16.382631284022214,24.331837055167043 L-16.350419051176125,24.42017246116107 L-16.31579288638572,24.506244905394233 L-16.27878986821555,24.589962219337366 L-16.239449620424303,24.671234756393808 " />
			<path d="M-15.173528410502527,23.728272480489977 L-15.212319585419026,23.656964684297886 L-15.248257929926533,23.581980600649725 L-15.281163744254139,23.503551839386596 L-15.310877428060687,23.42194039863341 L-15.337261891242974,23.337435880520975 L-15.36020457778453,23.25035212688227 L-15.379619041879753,23.1610233552036 L-15.395446030649936,23.069799894052977 L-15.407654045087847,22.977043631819388 L-15.416239369455194,22.8831233020224 L-15.421225578154452,22.78840973220555 L-15.422662547048144,22.693271181407997 L-15.42062501233656,22.59806888371568 L-15.415210733622729,22.503152903077492 L-15.406538328102846,22.408858388369506 L-15.394744849582551,22.31550229873075 L-15.377883070249148,22.210985922789 L-15.357028935713938,22.10542704257233 L-15.332131467611026,21.99927743130023 L-15.3031752240619,21.893015506748608 L-15.270182494351744,21.787140258242093 L-15.233214731561517,21.682164310686094 L-15.19237312450311,21.578606300159247 L-15.147798241908076,21.476982778590425 L-15.09966871954887,21.377799898596543 L-15.04819900254694,21.28154515056581 L-14.99363619776949,21.188679430330346 L-14.936256131922134,21.09962970625248 L-14.876358746760568,21.014782529562265 L-14.81426299119607,20.934478592984153 L-14.750301389025916,20.859008492920807 L-14.684814469483,20.78860979344746 " />
			<path d="M-14.996196139075767,23.052868374818406 L-15.022217225069468,22.987245090988072 L-15.04558813931612,22.92009878144443 L-15.066302508998985,22.851502653102663 L-15.084353961301327,22.78152991287796 L-15.099736123406407,22.7102537676855 L-15.112442622497493,22.637747424440473 L-15.122467085757846,22.56408409005806 L-15.129803140370727,22.489336971453447 L-15.13438514361557,22.413929810692224 L-15.13633416465466,22.33823702655238 L-15.135923898495557,22.262257841017735 L-15.13342804014582,22.185991476072097 L-15.128944064988074,22.10934080141072 L-15.122405779839031,22.032434939083185 L-15.113841376857378,21.9556124896048 L-15.103279048201802,21.879212053490868 L-15.090726024086075,21.80334139259374 L-15.076192185291976,21.727961171743562 L-15.059709699830192,21.653189345922346 L-15.041310735711413,21.5791438701121 L-15.021027460946328,21.505942699294835 L-14.998892043545633,21.433703788452558 L-14.97493665152001,21.36254509256728 L-14.949193452880156,21.29258456662101 L-14.921737925019773,21.22399169295867 L-14.892639256779335,21.15689240899236 L-14.861920183339683,21.091339352304868 L-14.829603439881655,21.027385160478975 L-14.795711761586094,20.965082471097464 L-14.760267883633842,20.90448392174312 L-14.723294541205739,20.84564214999873 L-14.684814469482628,20.78860979344708 " />
			<path d="M-14.096146095488933,20.421266342149483 L-14.172003208444448,20.44926660420405 L-14.247641911834792,20.48261536272454 L-14.322844424944705,20.52121659918924 L-14.397394222948126,20.564959172019694 L-14.471076660331526,20.613717136582114 L-14.543679588906258,20.667350107810105 L-14.61499396863056,20.725703664404623 L-14.684814469482516,20.78860979344736 " />
			<path d="M-14.684814469482518,20.78860979344736 L-14.745908750623878,20.848660681788562 L-14.805502586079552,20.912078931284558 L-14.86345836050246,20.978718095170372 L-14.919642241190761,21.048424288877293 L-14.973924487137154,21.121036545386385 L-15.026179748629563,21.19638718693693 L-15.07628735671134,21.27430221223149 L-15.124131601832593,21.354601698243343 L-15.169602001049107,21.4371002156986 L-15.212593553151915,21.521607257273363 L-15.253006981138313,21.607927677517317 L-15.290748961464402,21.695862143487698 L-15.325732339549816,21.785207595053173 L-15.357876331036902,21.875757713804582 L-15.387106708339688,21.96730339948979 L-15.413355972051784,22.059633252872402 " />
			<path d="M-12.839854672897868,18.014448359830563 L-12.864040583865505,18.082021859111624 L-12.88306970214934,18.15111680320974 L-12.89670206105596,18.220861870342166 L-12.904765749725307,18.290377540349734 L-12.907159081012558,18.358787185885674 L-12.903851873813858,18.42522812712467 L-12.894885833665116,18.488862510586646 L-12.880374026814355,18.548887874887996 " />
			<path d="M-15.933986745463528,26.11440887256611 L-15.944987441844233,26.056586875997994 L-15.951097786202427,25.99593676135579 L-15.952250571664996,25.9331256112653 L-15.948433118896409,25.868844277296702 L-15.939687415557069,25.80379978137909 L-15.926109654486552,25.738707539359357 L-15.907849175691235,25.674283492237485 L-15.88510682377323,25.611236231625753 " />
			<path d="M-12.827297204608325,18.727452165396432 L-12.88037402681233,18.54888787488635 " />
			<path d="M-12.535442390678925,17.63628645214051 L-12.581592485099065,17.666149319582793 L-12.62635143833203,17.701913317340846 L-12.66922695254414,17.74318508191199 L-12.709747445599529,17.78951067059151 L-12.747467237929978,17.84038055432871 L-12.7819714545058,17.895235221969855 L-12.812880587991677,17.95347133424768 L-12.839854672897866,18.014448359830556 " />
			<path d="M-12.535442390678885,17.636286452140816 L-12.449395942240589,17.58807459740346 L-12.363072850836119,17.542077098790305 L-12.276507892348233,17.49831248672691 L-12.189735940097597,17.456798392104307 L-12.102791950793813,17.417551539176273 L-12.01571095045286,17.380587738821838 L-11.928528020286597,17.345921882175773 L-11.841278282570066,17.313567934629575 L-11.753996886492203,17.283538930205403 L-11.666718993995744,17.25584696630524 L-11.579479765611989,17.230503198837365 L-11.49231434629612,17.207517837722115 L-11.405257851268791,17.186900142778732 L-11.318345351869729,17.168658419994998 L-11.23161186142897,17.15280001818109 L-11.145092321161503,17.13933132600907 L-11.058821586090929,17.12825776943916 L-10.972834411007884,17.119583809533843 L-10.887165436468802,17.11331294066071 L-10.801849174840724,17.109447689084714 L-10.716919996397738,17.107989611950458 L-10.632412115474672,17.10893929665488 L-10.548359576683588,17.112296360610614 L-10.464796241198677,17.11805945140013 L-10.381755773115035,17.126226247320545 L-10.29927162588683,17.136793458318955 L-10.217377028850352,17.14975682731786 L-10.13610497383732,17.16511113193014 L-10.055488201883888,17.182850186562938 L-9.975559190040684,17.20296684490959 L-9.896350138289195,17.225453002828537 L-9.817892956569782,17.25029960160815 " />
			<path d="M-9.817892956569764,17.250299601608155 L-9.723023094383944,17.283875347766166 L-9.629381853513333,17.320945294923106 L-9.537025639939966,17.361487113528938 L-9.446010085593473,17.405476382708088 L-9.356390014840503,17.452886604969674 L-9.26821941146057,17.50368922216858 L-9.18155138612824,17.55785363270784 L-9.096438144421242,17.615347209971887 L-9.012930955373793,17.676135321979594 L-8.931080120594043,17.74018135224531 L-8.850934943964258,17.807446721835227 L-8.772543701942023,17.877890912605928 L-8.695953614480295,17.951471491610963 L-8.62121081658387,18.028144136660902 L-8.54836033051939,18.107862663021336 L-8.477446038695604,18.19057905123286 L-8.408510657230249,18.276243476036175 L-8.341595710219465,18.364804336384978 L-8.276741504725216,18.456208286528497 L-8.213987106495836,18.550400268144987 L-8.153370316434284,18.64732354350678 L-8.094927647828284,18.746919729656994 L-8.03869430435609,18.849128833577236 L-7.984704158881112,18.95388928832515 L-7.93298973304816,19.061137990120038 L-7.883582177693631,19.17081033635423 L-7.836511254081403,19.28284026450726 L-7.791805315975763,19.39716029193949 L-7.749491292562165,19.513701556541086 L-7.709594672226089,19.632393858212012 L-7.6721394871997965,19.753165701147935 L-7.637148299086205,19.875944336906617 L-7.604642185268633,20.000655808228867 L-7.574640726214557,20.127224993587628 L-7.547161993681089,20.25557565243836 L-7.522222539829211,20.385630471143514 L-7.499837387253375,20.517311109543364 L-7.480020019932458,20.650538248145196 L-7.462782375107516,20.7852316359024 L-7.448134836091235,20.921310138554695 L-7.43608622601341,21.058691787500397 L-7.426643802506227,21.1972938291712 L-7.4198132533325305,21.337032774879876 L-7.415598692959732,21.477824451110703 L-7.414002660081409,21.619584050222453 L-7.415026116088086,21.762226181533364 L-7.4186684444881354,21.90566492275726 L-7.424927451279125,22.049813871759948 L-7.4337993662694,22.19458619860463 L-7.445278845349116,22.339894697854994 L-7.45935897370932,22.48565184110453 L-7.4760312700071765,22.63176982970036 L-7.495285691474814,22.778160647629846 L-7.51711063996871,22.924736114538184 L-7.541492968955979,23.071407938844917 L-7.568417991433352,23.218087770927486 L-7.59786948877408,23.364687256339764 L-7.629829720497429,23.51111808903345 L-7.664279434954877,23.657292064550315 L-7.701197880926594,23.80312113315332 L-7.740562820121196,23.948517452864433 L-7.78235054057126,24.093393442377376 L-7.826535870916533,24.237661833813338 L-7.873092195566212,24.38123572528785 L-7.921991470731177,24.524028633257267 L-7.973204241316534,24.665954544613196 L-8.02669965866425,24.806927968493593 L-8.082445499135236,24.946863987779246 L-8.140408183519664,25.085678310244678 L-8.200552797263828,25.22328731933264 L-8.262843111501358,25.3596081245216 L-8.327241604876143,25.494558611255854 L-8.393709486143784,25.628057490408334 L-8.46220671753801,25.760024347246084 L-8.532692038887896,25.89037968986909 L-8.605122992471479,26.019044997093264 L-8.67945594859069,26.14594276574864 L-8.75564613185225,26.27099655736439 L-8.833647648138697,26.394131044212514 L-8.913413512253284,26.515272054682423 L-8.994895676222107,26.634346617959167 L-9.078045058236405,26.751283007978312 L-9.162811572217608,26.866010786631048 L-9.249144157987319,26.978460846193457 L-9.336990812024052,27.088565450954434 L-9.426298618788215,27.196258278017158 L-9.517013782596445,27.30147445724949 L-9.609081660026124,27.40415061035936 L-9.702446792830528,27.504224889071427 L-9.797052941344802,27.601637012382223 L-9.892843118362634,27.696328302871137 L-9.989759623463215,27.788241722045516 L-10.087744077767809,27.877321904698512 L-10.186737459105021,27.963515192259017 L-10.28668013756354,28.046769665113583 L-10.38751191141095,28.127035173880838 L-10.489172043357032,28.204263369619632 L-10.591599297139624,28.278407732952594 L-10.694731974411038,28.34942360208769 L-10.798507951902874,28.41726819972081 L-10.90286471884672,28.481900658803205 L-11.007739414628322,28.543282047158293 L-11.11306886665246,28.60137539093293 L-11.218789628395754,28.656145696869068 L-11.324838017624485,28.70755997338241 L-11.431150154754384,28.75558725043529 L-11.537662001329315,28.800198598191862 L-11.644309398595633,28.841367144444362 L-11.751028106149029,28.879068090799926 L-11.85775384063054,28.913278727618195 L-11.96442231444845,28.943978447690768 L-12.07096927450272,28.971148758654202 L-12.177330540888661,28.99477329412915 L-12.283442045556507,29.01483782357881 L-12.389239870903609,29.031330260880907 L-12.494660288276014,29.0442406716079 L-12.599639796356223,29.05356127901112 L-12.704115159414002,29.059286468705185 L-12.808023445397234,29.061412792049904 L-12.911302063839818,29.0599389682276 L-13.013888803563843,29.054865885014635 L-13.11572187015327,29.046196598246645 L-13.216739923176558,29.033936329977813 L-13.316882113135883,29.0180924653353 L-13.416088118120566,28.998674548070724 L-13.51429818014276,28.975694274811367 L-13.61145314113341,28.949165488014554 L-13.707494478576841,28.919104167629484 " />
			<path d="M-13.707494478576876,28.91910416762947 L-13.806578784111458,28.88394507809278 L-13.904319354902313,28.844973325753276 L-14.000651932247717,28.80221453225599 L-14.095513183119191,28.755696809003744 L-14.188840741799249,28.705450738675545 L-14.280573250883212,28.65150935512029 L-14.370650401618107,28.59390812163892 L-14.459012973552138,28.53268490766938 L-14.545602873468665,28.467879963889708 L-14.6303631735791,28.39953589575553 L-14.713238148949582,28.3276976354895 L-14.794173314136867,28.25241241254097 L-14.873115459009314,28.173729722535423 L-14.950012683729428,28.091701294733966 L-15.024814432874969,28.00638105802439 L-15.097471528676172,27.917825105466086 L-15.167936203347267,27.826091657412114 L-15.236162130490985,27.731241023232776 L-15.302104455555462,27.633335561665703 L-15.36571982532347,27.53243963981864 L-15.42696641641463,27.42861959085186 L-15.485803962781828,27.321943670367972 L-15.542193782183785,27.212482011537883 L-15.596098801616368,27.10030657899232 L-15.647483581685913,26.985491121509327 L-15.696314339908557,26.868111123528738 L-15.742558972920243,26.748243755525586 L-15.786187077582793,26.625967823275044 L-15.827169970972207,26.501363716042228 L-15.86548070923599,26.374513353730975 L-15.901094105307166,26.245500133026297 L-15.933986745463294,26.114408872565946 " />
			<path d="M-15.885106823773228,25.61123623162575 L-15.862362824483533,25.55908913930253 L-15.836723598370039,25.508864498247362 L-15.808394205283905,25.460963999890936 L-15.777601220750617,25.415770747413507 " />
			<path d="M-13.25031663371383,26.801530153951276 L-13.260920068973816,26.840344176356204 L-13.268937937410648,26.87948925759755 L-13.274296374062256,26.918604771910022 L-13.276946014097684,26.957330365914935 L-13.276862447592741,26.995309278391424 L-13.274046444407492,27.032191626954717 L-13.26852394709389,27.067637631362828 L-13.260345831898881,27.101320743756844 L-13.249587440064774,27.13293065699729 L-13.236347883744754,27.16217616338215 L-13.220749132927866,27.188787837410516 L-13.202934891785171,27.212520517876747 L-13.183069274788824,27.23315556642873 L-13.161335294800345,27.250502881783245 L-13.137933177056663,27.26440265104229 L-13.113078514586414,27.274726821976373 " />
			<path d="M-13.113078514586412,27.274726821976373 L-13.108666790502495,27.27613683450568 " />
			<path d="M-13.108666790502523,27.27613683450577 L-13.020470069228178,27.300884995210765 L-12.931049769497918,27.321531607326836 L-12.840492880347693,27.33805658560613 L-12.74888749649995,27.35044385437081 L-12.656322732664135,27.358681363151682 L-12.562888636844928,27.362761098411 L-12.468676102742583,27.362679091338112 L-12.373776781330545,27.358435421710396 L-12.278282991696392,27.350034217815615 L-12.182287631232825,27.337483652435903 L-12.085884085266079,27.320795934897177 L-11.989166136209667,27.299987299191777 L-11.892227872331834,27.275077988185863 L-11.79516359622547,27.246092233926934 L-11.69806773306952,27.213058234070633 L-11.601034738771162,27.176008124449762 L-11.504159008078059,27.134977947812196 L-11.40753478275014,27.090007618758094 L-11.311256059880193,27.04114088491057 L-11.215416500452474,26.988425284357504 L-11.120109338228277,26.931912099406002 L-11.025427289047144,26.87165630669439 L-10.93146246063187,26.807716523710354 L-10.838306262985123,26.74015495176721 L-10.746049319464808,26.669037315493803 L-10.65478137862467,26.594432798896865 L-10.564591226905941,26.516413978058065 L-10.475566602264923,26.435056750531217 L-10.387794108820556,26.35044026150831 L-10.301359132604986,26.262646826826224 L-10.216345758499125,26.171761852888967 L-10.132836688433969,26.07787375358344 " />
			<path d="M-10.132836688433995,26.077873753583322 L-10.10722587100255,26.045804231943766 L-10.083601404266394,26.010954485941312 L-10.062222411820583,25.97370676299647 L-10.04332338790547,25.934469612600953 L-10.027111625370225,25.893673405166226 L-10.013764941993218,25.851765611530595 L-10.003429730098023,25.809205894901233 L-9.996219350857693,25.766461069064892 L-9.99221289089929,25.723999978167956 L-9.991454294846816,25.682288354226554 L-9.99395188331713,25.64178370877192 L-9.999678261655763,25.602930314661673 L-10.008570620413577,25.56615433309869 L-10.020531424268592,25.531859139306665 L-10.035429481836498,25.500420898132298 L-10.05310138463577,25.472184438102992 " />
			<path d="M-10.05310138463554,25.472184438102666 L-10.18091143674694,25.293694944615353 " />
			<path d="M-9.274443260988422,22.8981403048862 L-9.013423752599648,22.878569842557056 " />
			<path d="M-9.01342375259959,22.878569842556644 L-8.982620448582363,22.874048269894455 L-8.951535345242565,22.865105765269256 L-8.920509397735712,22.85184041402507 L-8.889882912369986,22.834397716398684 L-8.859991813976217,22.812968991608717 L-8.831163961335825,22.787789279381865 L-8.803715551080767,22.759134761933264 L-8.777947649509098,22.72731973467786 L-8.754142890356711,22.692693158899353 L-8.732562374745584,22.655634834188582 L-8.713442807311239,22.61655123263369 L-8.696993899921662,22.575871040454583 L-8.683396071464824,22.53404045598296 L-8.672798468934559,22.49151829556174 L-8.665317331520399,22.448770961044595 L-8.661034715644762,22.40626732409422 " />
			<path d="M-8.661034715644664,22.406267324094195 L-8.654229507454284,22.274854404072155 L-8.650448246910464,22.144229312449394 L-8.649694612464405,22.014519122729634 L-8.651969337259864,21.88585001839013 L-8.65727020841992,21.758347170129 L-8.665592069199706,21.632134614097815 L-8.676926824002933,21.507335131237895 L-8.69126344625738,21.384070127837678 L-8.708587989141662,21.262459517427363 L-8.728883599152843,21.14262160412573 L-8.752130532501713,21.024672967552625 L-8.778306174319763,20.908728349419015 L-8.807385060659161,20.794900541905044 L-8.83933890326437,20.68330027793455 L-8.87413661709126,20.574036123452895 L-8.91174435054698,20.467214371812826 L-8.952125518421154,20.362938940371166 L-8.995240837476368,20.261311269396856 L-9.041048364663329,20.162430223388803 L-9.08950353792352,20.066391994899387 L-9.14055921953965,19.97329001095732 L-9.19416574199174,19.883214842180827 L-9.250270956274218,19.79625411466956 L-9.308820282627039,19.712492424760974 L-9.369756763631475,19.63201125673411 L-9.433021119618893,19.55488890354079 L-9.498551806338671,19.481200390641387 L-9.566285074829107,19.41101740301926 L-9.636155033433102,19.344408215444815 L-9.708093711898268,19.28143762605706 L-9.782031127499142,19.22216689332729 L-9.857895353117101,19.166653676466186 " />
			<path d="M-9.857895353117165,19.16665367646626 L-9.88159636149777,19.152480142105507 L-9.906794775689791,19.14198297843444 " />
			<path d="M-9.906794775689793,19.14198297843444 L-9.93192753108822,19.135502349707437 L-9.957983083284702,19.13249177874818 L-9.984738147256964,19.132977064871863 L-10.011963443463738,19.1369540493824 L-10.039425662673109,19.144388651210683 L-10.0668894653236,19.15521715897488 L-10.094119498284318,19.169346776959934 L-10.120882411731376,19.186656420337446 L-10.146948858856844,19.20699775281125 L-10.172095461273521,19.23019645779653 L-10.19610672327292,19.256053732238936 L-10.218776878531985,19.284347990272376 L-10.239911653443166,19.314836762115835 L-10.259329931956751,19.34725877193647 L-10.276865307668537,19.381336176872594 L-10.292367509852081,19.416776948029067 " />
			<path d="M-10.292367509852085,19.416776948029064 L-10.312472790248318,19.466932252977863 " />
			<path d="M-9.999373774765255,20.085637117971753 L-9.797392763021497,19.581768530305926 " />
			<path d="M-9.797392763021495,19.58176853030593 L-9.78199456251138,19.54654671272036 L-9.764587784856722,19.5126693250108 L-9.745319729610612,19.480423044250326 L-9.724353446820743,19.450080744766346 L-9.701866357268043,19.42189918902475 L-9.678048751097377,19.396116854855755 L-9.653102177545154,19.37295191740793 L-9.627237739390328,19.35260040290745 " />
			<path d="M-12.726397768198737,27.352835811618853 L-12.749198807623912,27.31084508698954 L-12.766305033483775,27.263037350122268 L-12.777347318014696,27.210444223254378 L-12.782087384589925,27.15420059046037 L-12.78042294938668,27.095520108484973 L-12.772389928523996,27.03566901777525 L-12.758161663044518,26.975938818831985 L-12.738045178463976,26.917618403485427 " />
			<path d="M-12.738045178463972,26.917618403485424 L-12.620010588959119,26.62316536853886 " />
			<path d="M-9.322918209739179,17.415291183885017 L-9.228048347553358,17.448866930043028 L-9.134407106682747,17.48593687719997 L-9.04205089310938,17.5264786958058 L-8.951035338762887,17.57046796498495 L-8.861415268009917,17.617878187246536 L-8.773244664629985,17.66868080444544 L-8.686576639297654,17.7228452149847 L-8.601463397590656,17.78033879224875 L-8.517956208543207,17.841126904256456 L-8.436105373763457,17.90517293452217 L-8.355960197133673,17.97243830411209 L-8.277568955111438,18.04288249488279 L-8.20097886764971,18.116463073887825 L-8.126236069753284,18.193135718937764 L-8.053385583688804,18.2728542452982 L-7.982471291865018,18.35557063350972 L-7.913535910399663,18.441235058313037 L-7.846620963388879,18.52979591866184 L-7.781766757894629,18.62119986880536 L-7.719012359665251,18.71539185042185 L-7.658395569603699,18.81231512578364 L-7.599952900997698,18.911911311933856 L-7.543719557525504,19.014120415854098 L-7.489729412050526,19.118880870602013 L-7.438014986217574,19.2261295723969 L-7.388607430863045,19.33580191863109 L-7.341536507250817,19.447831846784123 L-7.296830569145177,19.56215187421635 L-7.254516545731579,19.67869313881795 L-7.214619925395503,19.797385440488874 L-7.177164740369211,19.918157283424797 L-7.14217355225562,20.04093591918348 L-7.109667438438047,20.16564739050573 L-7.079665979383972,20.29221657586449 L-7.052187246850504,20.42056723471522 L-7.027247792998625,20.550622053420376 L-7.004862640422789,20.682302691820226 L-6.985045273101872,20.815529830422058 L-6.967807628276931,20.95022321817926 L-6.953160089260649,21.086301720831557 L-6.941111479182824,21.22368336977726 L-6.931669055675641,21.362285411448063 L-6.924838506501945,21.50202435715674 L-6.9206239461291466,21.642816033387565 L-6.919027913250823,21.784575632499315 L-6.9200513692575,21.927217763810226 L-6.92369369765755,22.070656505034123 L-6.929952704448539,22.21480545403681 L-6.938824619438814,22.35957778088149 L-6.95030409851853,22.504886280131856 L-6.964384226878734,22.650643423381393 L-6.981056523176591,22.796761411977222 L-7.000310944644228,22.94315222990671 L-7.022135893138124,23.089727696815046 L-7.0465182221253935,23.23639952112178 L-7.073443244602766,23.383079353204348 L-7.102894741943494,23.529678838616626 L-7.134854973666843,23.67610967131031 L-7.169304688124291,23.822283646827177 L-7.206223134096009,23.96811271543018 L-7.24558807329061,24.113509035141295 L-7.287375793740674,24.25838502465424 L-7.3315611240859475,24.4026534160902 L-7.378117448735626,24.546227307564713 L-7.427016723900591,24.68902021553413 L-7.478229494485948,24.83094612689006 L-7.531724911833664,24.971919550770455 L-7.58747075230465,25.111855570056107 L-7.645433436689079,25.25066989252154 L-7.705578050433242,25.388278901609503 L-7.767868364670773,25.524599706798462 L-7.832266858045556,25.659550193532716 L-7.898734739313199,25.793049072685196 L-7.967231970707424,25.925015929522946 L-8.03771729205731,26.05537127214595 L-8.110148245640893,26.184036579370126 L-8.184481201760104,26.3109343480255 L-8.260671385021665,26.435988139641253 L-8.338672901308112,26.559122626489376 L-8.418438765422698,26.680263636959285 L-8.499920929391521,26.79933820023603 L-8.58307031140582,26.916274590255174 L-8.667836825387022,27.03100236890791 L-8.754169411156733,27.14345242847032 L-8.842016065193466,27.253557033231296 L-8.931323871957629,27.36124986029402 L-9.022039035765859,27.466466039526352 L-9.114106913195538,27.56914219263622 L-9.207472045999943,27.66921647134829 L-9.302078194514216,27.766628594659085 L-9.397868371532049,27.861319885148 L-9.494784876632629,27.953233304322378 L-9.592769330937223,28.042313486975374 L-9.691762712274436,28.12850677453588 L-9.791705390732954,28.211761247390445 L-9.892537164580364,28.2920267561577 L-9.994197296526446,28.369254951896494 L-10.096624550309038,28.443399315229456 L-10.199757227580452,28.51441518436455 L-10.303533205072288,28.58225978199767 L-10.407889972016134,28.646892241080067 L-10.512764667797736,28.708273629435155 L-10.618094119821874,28.76636697320979 L-10.723814881565168,28.82113727914593 L-10.829863270793899,28.87255155565927 L-10.936175407923798,28.920578832712152 L-11.042687254498729,28.965190180468724 L-11.149334651765047,29.006358726721224 L-11.256053359318443,29.044059673076788 L-11.362779093799954,29.078270309895057 L-11.469447567617864,29.10897002996763 L-11.575994527672135,29.136140340931064 L-11.682355794058076,29.159764876406012 L-11.788467298725921,29.17982940585567 L-11.894265124073023,29.19632184315777 L-11.999685541445428,29.20923225388476 L-12.104665049525638,29.218552861287982 L-12.209140412583416,29.224278050982047 L-12.313048698566648,29.226404374326766 L-12.416327317009232,29.22493055050446 L-12.518914056733257,29.219857467291497 L-12.620747123322683,29.211188180523507 L-12.721765176345972,29.198927912254675 L-12.821907366305297,29.183084047612162 L-12.92111337128998,29.163666130347586 L-13.019323433312174,29.14068585708823 L-13.116478394302824,29.114157070291416 L-13.212519731746255,29.084095749906346 " />
			<path d="M-13.120707436131395,26.790064317596286 L-12.73804517846397,26.917618403485427 " />
			<path d="M-10.292367509852081,19.416776948029064 L-9.797392763021499,19.581768530305926 " />
			<path d="M-14.150527154602637,24.028010118701644 L-14.29785643580825,23.978900358299775 " />
			<path d="M27.97670738511064,34.681253096072275 L27.97670738511032,34.44555083567591 " />
			<path d="M26.98675789144592,37.65110157706643 L26.900236140585772,37.7664639115463 " />
			<path d="M-15.581070335977133,20.16199385570968 L-15.494548585116984,20.046631521229806 " />
			<path d="M-16.57101982964185,23.131842336703837 L-16.57101982964153,23.367544597100196 " />
			<path d="M-13.212519731746287,29.084095749906336 L-13.707494478576871,28.919104167629474 " />
			<path d="M-9.322918209739177,17.41529118388502 L-9.817892956569763,17.25029960160816 " />

       </g>
    </g>
    
</svg>
