<?xml version="1.0" encoding="UTF-8" standalone="no"?>
<svg
   xmlns:svg="http://www.w3.org/2000/svg"
   xmlns="http://www.w3.org/2000/svg"
   width="1024.0"
   height="320.0"

>
    <g transform="scale(16.767143191229767, -16.767143191229767)   translate(38.55550741379015,-13.839850873900158)" stroke-width="0.2733333333333333"  fill="none">
       <!-- hidden lines -->
       <g  stroke="rgb(32,64,32)" fill="none" stroke-dasharray="0.2733333333333333,0.2733333333333333" >

       </g>

       <!-- solid lines -->
       <g  stroke="rgb(64,192,64)" fill="none">
			<path d="M-1.7242425416280192,8.853342901944627 L-1.7637066856938572,8.838522089534333 L-1.797614619836403,8.822244705791702 L-1.8254869771482114,8.804740869103574 L-1.8469297175302417,8.786258036599786 " />
			<path d="M-7.07106781186547,6.128258770283413 L-7.138756500202293,6.104560219390394 L-7.202875156217849,6.079783105601479 L-7.263269312453666,6.053987119154003 L-7.319793474097466,6.027234404838783 L-7.372311469492919,5.999589412287863 L-7.420696778189085,5.971118740709714 L-7.464832835739261,5.941890978445903 L-7.504613314514948,5.911976537735775 L-7.539942379858417,5.881447485087195 L-7.570734920956793,5.850377367662023 L-7.596916755881463,5.8188410360945575 L-7.618424810298836,5.786914464169801 L-7.635207269421937,5.754674565795956 L-7.647223702836769,5.722199009712089 L-7.65444516190272,5.689566032377327 L-7.656854249492375,5.656854249492384 " />
			<path d="M-7.656854249492375,5.6568542494923815 L-7.653309711634112,5.617181158017702 L-7.64268866180795,5.577648689317709 L-7.625028746727095,5.538396967724339 L-7.600392562629122,5.499565122450784 L-7.568867433401251,5.461290794442721 L-7.530565101057516,5.423709648504774 L-7.48562132966497,5.386954892431477 L-7.434195424122806,5.3511568048472045 L-7.376469665500115,5.31644227342865 L-7.312648664933731,5.28293434514666 L-7.242958638376314,5.250751790121582 L-7.16764660476534,5.2200086806380765 L-7.0869795104551265,5.190813986811591 L-7.001243283015373,5.1632711903396515 L-6.910741817750061,5.137477917707077 L-6.815795900529055,5.113525594145202 L-6.716742070750432,5.091499119571683 L-6.613931428463847,5.0714765676595315 L-6.507728389883116,5.053528909102019 L-6.398509395699155,5.037719760054371 L-6.286661576771688,5.024105156643891 L-6.172581381929266,5.012733356347795 L-6.056673172741389,5.003644666942748 L-5.939347790243606,4.996871303632428 L-5.821021098695916,4.992437274859518 L-5.702112511536152,4.990358297206867 L-5.583043504753173,4.990641739689471 L-5.464236122949271,4.993286597634719 L-5.346111483387088,4.998283496243496 L-5.229088283323547,5.005614723819509 L-5.113581315921569,5.015254294549067 L-5.000000000000016,5.027168040608779 " />
			<path d="M-12.727922061357848,8.01387685344754 L-12.795610749694672,7.990178302554521 L-12.859729405710228,7.965401188765606 L-12.920123561946044,7.9396052023181305 L-12.976647723589846,7.91285248800291 L-13.029165718985299,7.88520749545199 L-13.077551027681464,7.856736823873841 L-13.12168708523164,7.82750906161003 L-13.161467564007328,7.797594620899902 L-13.196796629350796,7.767065568251322 L-13.227589170449171,7.735995450826151 L-13.253771005373842,7.704459119258685 L-13.275279059791215,7.672532547333928 L-13.292061518914316,7.6402926489600835 L-13.304077952329148,7.607817092876216 L-13.3112994113951,7.575184115541454 L-13.313708498984754,7.542472332656511 " />
			<path d="M-13.313708498984754,7.542472332656509 L-13.312353268161454,7.517934184028936 L-13.308289412342134,7.4934292902567305 L-13.301522438989466,7.468990861127253 L-13.292061518914316,7.444652016352934 L-13.279919473847187,7.420445740686414 L-13.265112759061811,7.3964048392185955 L-13.247661441074458,7.3725618929201655 L-13.227589170449171,7.348949214486867 L-13.179694096654233,7.30254230829985 L-13.121687085231642,7.257435603702987 L-13.053882481202177,7.213873537836652 L-12.976647723589846,7.172092177310107 L-12.890401354237968,7.132317938936091 L-12.795610749694672,7.094766362758496 L-12.692789588458888,7.059640944022197 L-12.582495067312045,7.027132030414684 L-12.465324881820447,6.997415790555452 L-12.341913987371198,6.970653259322994 L-12.212931158293967,6.946989465192832 L-12.079075363714935,6.926552644315651 L-11.941071979782539,6.909453545594484 L-11.799668858791284,6.895784830526813 L-11.655632276505358,6.885620571063881 L-11.509742779643876,6.879015848208377 L-11.362790956030581,6.876006453525705 L-11.215573150329918,6.876608695186394 L-11.068887148586322,6.880819309590702 L-10.9235278549525,6.888615479054355 L-10.780282984034958,6.899954955459549 L-10.639928792200315,6.9147762892011615 L-10.503225870974775,6.932999162187488 L-10.370915025332758,6.954524823090939 L-10.24371325921056,6.979236622490037 L-10.122309889999888,7.007000645002745 L-10.0073628130772,7.037666434985519 L-9.899494936611672,7.071067811865473 " />
			<path d="M-18.384776310850228,9.899494936611667 L-18.45246499918705,9.875796385718647 L-18.516583655202606,9.851019271929733 L-18.57697781143842,9.825223285482258 L-18.633501973082222,9.798470571167037 L-18.686019968477677,9.770825578616117 L-18.734405277173842,9.742354907037967 L-18.778541334724018,9.713127144774157 L-18.818321813499704,9.68321270406403 L-18.853650878843172,9.65268365141545 L-18.88444341994155,9.621613533990278 L-18.91062525486622,9.590077202422812 L-18.932133309283593,9.558150630498055 L-18.948915768406692,9.52591073212421 L-18.960932201821525,9.493435176040343 L-18.968153660887477,9.460802198705581 L-18.970562748477132,9.42809041582064 " />
			<path d="M-18.970562748477132,9.428090415820636 L-18.96920751765383,9.403552267193064 L-18.965143661834514,9.379047373420857 L-18.958376688481845,9.35460894429138 L-18.948915768406692,9.330270099517062 L-18.936773723339563,9.306063823850542 L-18.92196700855419,9.282022922382723 L-18.904515690566836,9.258179976084293 L-18.88444341994155,9.234567297650994 L-18.83654834614661,9.188160391463978 L-18.778541334724018,9.143053686867114 L-18.710736730694556,9.09949162100078 L-18.633501973082222,9.057710260474234 L-18.547255603730346,9.017936022100217 L-18.45246499918705,8.980384445922624 L-18.349643837951266,8.945259027186324 L-18.239349316804425,8.912750113578811 L-18.122179131312823,8.88303387371958 L-17.998768236863576,8.856271342487121 L-17.869785407786345,8.83260754835696 L-17.73592961320731,8.812170727479778 L-17.59792622927492,8.795071628758611 L-17.456523108283662,8.78140291369094 L-17.312486525997734,8.771238654228009 L-17.166597029136256,8.764633931372504 L-17.01964520552296,8.761624536689833 L-16.872427399822296,8.76222677835052 L-16.7257413980787,8.76643739275483 L-16.580382104444876,8.774233562218482 L-16.437137233527334,8.785573038623676 L-16.29678304169269,8.800394372365288 L-16.160080120467153,8.818617245351614 L-16.027769274825136,8.840142906255066 L-15.900567508702938,8.864854705654164 L-15.779164139492266,8.892618728166873 L-15.664217062569579,8.923284518149647 L-15.55634918610405,8.956685895029599 " />
			<path d="M-24.041630560342607,11.785113019775794 L-24.10931924867943,11.761414468882775 L-24.173437904694985,11.73663735509386 L-24.2338320609308,11.710841368646385 L-24.2903562225746,11.684088654331164 L-24.342874217970056,11.656443661780244 L-24.39125952666622,11.627972990202094 L-24.435395584216398,11.598745227938284 L-24.475176062992084,11.568830787228157 L-24.510505128335552,11.538301734579576 L-24.54129766943393,11.507231617154405 L-24.567479504358598,11.475695285586939 L-24.588987558775973,11.443768713662182 L-24.605770017899072,11.411528815288337 L-24.617786451313904,11.37905325920447 L-24.625007910379857,11.346420281869708 L-24.62741699796951,11.313708498984766 " />
			<path d="M-24.62741699796951,11.313708498984763 L-24.62606176714621,11.28917035035719 L-24.621997911326893,11.264665456584984 L-24.615230937974225,11.240227027455507 L-24.605770017899072,11.215888182681189 L-24.593627972831946,11.191681907014669 L-24.57882125804657,11.16764100554685 L-24.561369940059215,11.14379805924842 L-24.54129766943393,11.120185380815121 L-24.49340259563899,11.073778474628105 L-24.435395584216398,11.028671770031242 L-24.367590980186936,10.985109704164907 L-24.2903562225746,10.943328343638361 L-24.204109853222725,10.903554105264345 L-24.10931924867943,10.866002529086751 L-24.006498087443646,10.830877110350452 L-23.896203566296805,10.798368196742938 L-23.779033380805203,10.768651956883707 L-23.655622486355956,10.741889425651248 L-23.526639657278725,10.718225631521086 L-23.39278386269969,10.697788810643905 L-23.254780478767294,10.680689711922739 L-23.11337735777604,10.667020996855067 L-22.969340775490114,10.656856737392136 L-22.823451278628635,10.650252014536632 L-22.67649945501534,10.64724261985396 L-22.529281649314676,10.647844861514647 L-22.38259564757108,10.652055475918957 L-22.237236353937256,10.65985164538261 L-22.093991483019714,10.671191121787803 L-21.95363729118507,10.686012455529415 L-21.816934369959533,10.704235328515741 L-21.684623524317516,10.725760989419193 L-21.557421758195318,10.750472788818291 L-21.436018388984646,10.778236811330999 L-21.321071312061957,10.808902601313774 L-21.21320343559643,10.842303978193726 " />
			<path d="M-25.45584412271571,12.256517540566822 L-25.591221499389356,12.209120438780785 L-25.719458811420466,12.159566211202954 L-25.840247123892098,12.107974238308003 L-25.9532954471797,12.054468809677562 L-26.058331437970608,11.999178824575722 L-26.15510205536294,11.942237481419424 L-26.24337417046329,11.883781956891802 L-26.322935128014667,11.823953075471547 L-26.393593258701603,11.762894970174386 L-26.455178340898353,11.700754735324043 L-26.507542010747695,11.637682072189111 L-26.530225518123633,11.605843485860586 L-26.55055811958244,11.573828928339598 L-26.568527567525283,11.541657683998494 L-26.584123037828643,11.50934913159191 L-26.597335136364357,11.476922732583715 L-26.608155904658307,11.444398019424174 L-26.61657882468428,11.411794583784316 L-26.62259882279021,11.37913206475465 L-26.626212272754337,11.34643013701531 L-26.62741699796952,11.313708498984765 " />
			<path d="M-26.62741699796952,11.31370849898476 L-26.626212272754337,11.28098686095421 L-26.62259882279021,11.248284933214869 L-26.61657882468428,11.215622414185203 L-26.608155904658307,11.183018978545345 L-26.597335136364357,11.150494265385804 L-26.584123037828643,11.11806786637761 L-26.568527567525283,11.085759313971025 L-26.55055811958244,11.053588069629921 L-26.530225518123633,11.021573512108933 L-26.507542010747695,10.989734925780407 L-26.455178340898353,10.926662262645475 L-26.393593258701603,10.864522027795132 L-26.322935128014667,10.803463922497972 L-26.24337417046329,10.743635041077717 L-26.15510205536294,10.685179516550095 L-26.058331437970608,10.628238173393797 L-25.953295447179702,10.572948188291956 L-25.840247123892098,10.519442759661516 L-25.719458811420466,10.467850786766565 L-25.591221499389356,10.418296559188734 L-25.45584412271572,10.3708994574027 " />
			<path d="M-26.62741699796952,7.542472332656507 L-26.626212272754337,7.509750694625957 L-26.62259882279021,7.477048766886616 L-26.61657882468428,7.444386247856951 L-26.608155904658307,7.411782812217092 L-26.597335136364357,7.379258099057552 L-26.584123037828643,7.346831700049357 L-26.568527567525283,7.314523147642771 L-26.55055811958244,7.282351903301668 L-26.530225518123633,7.250337345780681 L-26.507542010747695,7.218498759452155 L-26.455178340898353,7.155426096317224 L-26.393593258701603,7.09328586146688 L-26.322935128014667,7.03222775616972 L-26.24337417046329,6.972398874749463 L-26.15510205536294,6.913943350221843 L-26.058331437970608,6.857002007065544 L-25.953295447179702,6.801712021963704 L-25.840247123892098,6.748206593333262 L-25.719458811420466,6.696614620438313 L-25.591221499389356,6.647060392860482 L-25.45584412271572,6.599663291074448 " />
			<path d="M-4.762405664952788,7.81443272079243 L-4.817750669372896,7.752649787948856 L-4.865884995192891,7.690199511453695 L-4.906736600255149,7.62717536000286 L-4.940244342376395,7.563671661205092 L-4.966358070858588,7.499783460402786 L-4.985038701548965,7.435606378418592 L-4.9962582753368965,7.3712364684406975 L-5.000000000000001,7.306770072260998 " />
			<path d="M-5.000000000000001,7.306770072260991 L-4.998494093481022,7.2658680247228045 L-4.993977281025863,7.224990615048628 L-4.986452283393452,7.1841624662615455 L-4.975923633360986,7.143408171711723 L-4.962397672993551,7.102752280262297 L-4.945882549823906,7.062219281502054 L-4.926388211944707,7.021833590993822 L-4.903926402016153,6.981619535567443 L-4.878510650192644,6.941601338666207 L-4.85015626597272,6.901803105755551 L-4.8188803289772,6.862248809802827 L-4.784701678661046,6.822962276836887 L-4.747640902965185,6.7839671715961725 L-4.707720325915106,6.745286983273958 L-4.6649639941736964,6.706945011369345 L-4.619397662556435,6.668964351652508 L-4.519946465617217,6.594178249877187 L-4.4096063217417765,6.521108844217661 L-4.288643050001362,6.449932165272288 L-4.157348061512728,6.3808196838949875 L-4.016037657403227,6.313937898106936 L-3.8650522668136857,6.249447931988248 L-3.704755626774796,6.18750514751596 L-3.535533905932739,6.128258770283411 L-3.357794774235092,6.071851530002725 L-3.1719664208182263,6.018419316656429 L-2.9784965224621662,5.968090853126582 L-2.7778511650980113,5.920987385090082 L-2.5705137209661095,5.877222388927204 L-2.3569836841299896,5.836901298347065 L-2.1377754671514126,5.800121250388585 L-1.9134171618254523,5.766970851408846 L-1.6844492669611044,5.737529963622623 L-1.4514233862723172,5.71186951270731 L-1.2149008995163255,5.690051316936751 L-0.9754516100806437,5.672127938255607 L-0.7336523722768077,5.658142555653022 L-0.49008570164780274,5.648128861140663 L-0.24533837163709066,5.642110978585704 L-1.4287651484327417e-15,5.640103405594324 L0.2453383716370878,5.642110978585704 L0.49008570164779997,5.648128861140663 L0.7336523722768049,5.658142555653022 L0.9754516100806411,5.672127938255606 L1.2149008995163224,5.690051316936751 L1.451423386272314,5.71186951270731 L1.6844492669611015,5.737529963622623 L1.9134171618254494,5.766970851408846 L2.1377754671514104,5.800121250388585 L2.3569836841299874,5.836901298347065 L2.5705137209661073,5.877222388927204 L2.7778511650980087,5.920987385090082 L2.978496522462164,5.968090853126582 L3.171966420818224,6.018419316656429 L3.3577947742350878,6.071851530002725 L3.5355339059327364,6.128258770283411 L3.7047556267747965,6.187505147515961 L3.8650522668136857,6.249447931988249 L4.016037657403224,6.313937898106936 L4.157348061512725,6.3808196838949875 L4.288643050001359,6.449932165272288 L4.409606321741773,6.521108844217661 L4.519946465617215,6.594178249877187 L4.619397662556431,6.668964351652507 L4.664963994173692,6.706945011369343 L4.707720325915101,6.745286983273957 L4.7476409029651805,6.783967171596171 L4.784701678661042,6.822962276836885 L4.8188803289771975,6.862248809802826 L4.850156265972718,6.901803105755549 L4.878510650192641,6.941601338666207 L4.90392640201615,6.981619535567443 L4.926388211944705,7.021833590993822 L4.945882549823904,7.062219281502055 L4.962397672993549,7.102752280262298 L4.975923633360984,7.143408171711724 L4.98645228339345,7.1841624662615455 L4.993977281025861,7.224990615048628 L4.99849409348102,7.2658680247228045 L4.999999999999999,7.306770072260976 " />
			<path d="M4.999999999999999,7.306770072260991 L4.997842212029861,7.355729492705615 L4.991370710539014,7.404646655530855 L4.980591081178687,7.453479339590519 L4.9655126280107025,7.5021853966533225 L4.946148365477,7.550722787781665 L4.922515007166679,7.599049619616074 L4.894632951390241,7.647124180534003 L4.8625262635735025,7.694904976651763 L4.826222655486355,7.742350767638531 L4.785753461324321,7.789420602311493 L4.741153610663528,7.836073853981446 L4.69246159831247,7.882270255518302 L4.639719451086539,7.927969934106259 L4.58297269153406,7.97313344565864 L4.522270298645076,8.017721808862676 L4.457664665576838,8.06169653882488 L4.3892115544324835,8.105019680287924 L4.31697004813191,8.147653840390424 L4.241002499416414,8.18956222094126 L4.1613744770310905,8.230708650180675 L4.0781547091314545,8.271057614000657 L3.991415023963129,8.31057428659771 L3.901230287865788,8.349224560531535 L3.8076783406548875,8.38697507616368 L3.710839928436939,8.42379325045074 L3.6107986339163136,8.459647305067296 L3.401455476538783,8.528340129428967 L3.180371461602971,8.592816441142567 L2.948309708292909,8.652853686305239 L2.7060712278254506,8.7082446334102 L2.4544921585872133,8.758798088651014 L2.1944408800225106,8.804339555868275 L1.9268150152343138,8.84471183886074 L1.652538332644426,8.879775583981955 L1.3725575574074351,8.909409761149425 L1.0878391035845518,8.933512081606063 L0.7993657383569439,8.951999350991908 L0.5081331897927458,8.96480775650741 L0.21514670987676676,8.97189308717708 L-0.07858239533365423,8.973230886453207 L-0.37204025644972777,8.968816536632913 L-0.6642139403401837,8.95866527479715 L-0.954094946488552,8.942812140216628 L-1.2406826880503157,8.921311853406213 L-1.5229879455943023,8.894238627245256 " />
			<path d="M-1.522987945594341,8.894238627245278 L-1.5784364431054667,8.887091047117933 L-1.630947953169625,8.877800261347344 L-1.6797801043973144,8.866497616633193 L-1.7242425416280176,8.853342901944627 " />
			<path d="M-1.8469297175303128,8.786258036599794 L-1.884847573785323,8.748670823178886 L-1.9261019942232593,8.711476104121164 L-1.9706564868563143,8.674706780367181 L-2.0184716405866063,8.63839537657005 L-2.069505160067638,8.602574012325457 L-2.123711903117046,8.567274373759961 L-2.181043920647546,8.532527685502744 L-2.2414504990807504,8.498364683065558 L-2.371270933446936,8.43191006944354 L-2.5127139722204532,8.36814561312499 L-2.665279266961555,8.307296878029534 L-2.8284271247461885,8.249579113843055 L-3.0015804173056297,8.195196494581511 L-3.1841266225919913,8.144341396334477 L-3.375419991547646,8.097193716743304 L-3.574783832413699,8.053920238621242 L-3.7815129044969096,8.014674039966675 L-3.9948759129271756,7.979593952456528 L-4.214118095580514,7.948804070335413 L-4.4384638930163725,7.922413311437767 " />
			<path d="M-4.438463893016384,7.922413311437739 L-4.493912390527649,7.91526573131041 L-4.546423900591946,7.905974945539831 L-4.595256051819767,7.894672300825679 L-4.639718489050595,7.881517586137103 L-4.679182633116404,7.86669677372685 L-4.713090567258946,7.850419389984263 L-4.740962924570778,7.83291555329618 L-4.762405664952861,7.814432720792439 " />
			<path d="M-2.1147976432778206,7.839074384555547 L-2.305075485991486,7.972530039339634 " />
			<path d="M-2.2214430391474598,8.003404108484323 L-2.305075485991533,7.972530039339626 " />
			<path d="M-1.803794090798451,7.953885627629496 L-2.221443039147218,8.003404108484148 " />
			<path d="M-1.6512212883879867,7.997660661506682 L-1.8037940907985166,7.953885627629613 " />
			<path d="M-1.6512212883883617,7.997660661506499 L-1.7359539875877255,8.142696953232766 " />
			<path d="M-1.63191480153397,8.165668208798882 L-1.7359539875862768,8.142696953232933 " />
			<path d="M-1.2643312991491853,8.083083752131555 L-1.6319148015347353,8.165668208798692 " />
			<path d="M-1.0838926271811946,8.112835741817776 L-1.264331299148983,8.08308375213189 " />
			<path d="M-1.08389262718171,8.112835741817864 L-1.0577561157506166,8.26033950687061 " />
			<path d="M-0.9398473551770813,8.273964580388416 L-1.0577561157494517,8.260339506870567 " />
			<path d="M-0.6454259220888716,8.163503233045999 L-0.9398473551770863,8.273964580388496 " />
			<path d="M-0.44845900593037924,8.177362751608415 L-0.6454259220885629,8.163503233045876 " />
			<path d="M-0.44845900593006904,8.177362751608255 L-0.31309553700467696,8.318065785948708 " />
			<path d="M-0.18872584297816838,8.321488563939687 L-0.313095537004997,8.318065785948665 " />
			<path d="M0.014033939366445258,8.190091018623377 L-0.18872584297836292,8.32148856393957 " />
			<path d="M0.2151529439800175,8.18718722153972 L0.014033939366773005,8.190091018623566 " />
			<path d="M0.21515294397888973,8.18718722153983 L0.45123798581283725,8.312248636050347 " />
			<path d="M0.5742540080213996,8.305254052785209 L0.4512379858140415,8.312248636050311 " />
			<path d="M0.6726119967992205,8.161176500514193 L0.5742540080214421,8.305254052785243 " />
			<path d="M0.8652460431426782,8.141691844034048 L0.6726119967983286,8.161176500514156 " />
			<path d="M0.8652460431425494,8.141691844034064 L1.1872185664473247,8.243253570097522 " />
			<path d="M1.3011513677372748,8.226281120967219 L1.187218566447467,8.24325357009759 " />
			<path d="M1.288927368776758,8.078576484230657 L1.3011513677356426,8.226281120967052 " />
			<path d="M1.4609725512621574,8.043735260980434 L1.2889273687779548,8.078576484230494 " />
			<path d="M1.4609725512621496,8.04373526098062 L1.8486018382658633,8.115415801830546 " />
			<path d="M1.946292601718131,8.089531928234035 L1.8486018382665212,8.115415801830405 " />
			<path d="M1.8242546938321889,7.9474810325775405 L1.9462926017167606,8.089531928234095 " />
			<path d="M1.9649007809048151,7.899472444751195 L1.8242546938336155,7.947481032577387 " />
			<path d="M1.9649007809049919,7.8994724447508835 L2.3938306579054958,7.936767848383077 " />
			<path d="M2.469141113570114,7.903598929293236 L2.39383065790512,7.9367678483834805 " />
			<path d="M2.2449573873372275,7.7761273549171674 L2.4691411135718813,7.903598929292933 " />
			<path d="M2.3453670680838186,7.717967958651462 L2.2968196078705008,7.747365589575859 L2.244957387336225,7.776127354917523 " />
			<path d="M2.345367068084273,7.7179679586514 L2.7886462934150327,7.718534817692803 " />
			<path d="M2.8368444083906885,7.680164978282081 L2.788646293414536,7.718534817692889 " />
			<path d="M2.5246011518163796,7.575282233012941 L2.8368444083905677,7.680164978281993 " />
			<path d="M2.578465316718153,7.510626397069953 L2.553375744792588,7.543124868161113 L2.5246011518169347,7.575282233012833 " />
			<path d="M2.5784653167177924,7.5106263970698715 L3.0082410263843733,7.47442909368209 " />
			<path d="M3.0262983358480944,7.4332692520752195 L3.008241026384826,7.47442909368217 " />
			<path d="M2.6456149410958014,7.357565504529698 L3.02629833584826,7.433269252074914 " />
			<path d="M2.64954910657115,7.290475792869411 L2.6499999999999995,7.306770072260983 " />
			<path d="M2.6499999999999995,7.306770072260991 L2.6489035084258874,7.332178301568796 L2.6456149410950776,7.357565504529921 " />
			<path d="M2.6495491065707264,7.290475792869343 L3.03881691213036,7.219788736748576 " />
			<path d="M3.0255988089173917,7.178425117169187 L3.038816912130873,7.219788736748785 " />
			<path d="M2.600395013733081,7.136657112224771 L3.0255988089173433,7.178425117169352 " />
			<path d="M2.5541519816982663,7.071349018169293 L2.5791345957730725,7.1038566432966865 L2.6003950137332357,7.136657112224523 " />
			<path d="M2.5541519816986615,7.071349018169373 L2.878452755300827,6.970613737020712 " />
			<path d="M2.8347897814485346,6.931645367811485 L2.8784527553008505,6.970613737020487 " />
			<path d="M2.3917827040747937,6.926437542830428 L2.834789781448399,6.931645367811582 " />
			<path d="M2.2982680943011684,6.867014614115687 L2.346718786489967,6.8964299779306835 L2.3917827040747466,6.926437542830218 " />
			<path d="M2.2982680943017417,6.867014614115833 L2.5372248256471015,6.742560676131943 " />
			<path d="M2.4658604863831446,6.708436083246097 L2.537224825646783,6.742560676132051 " />
			<path d="M2.032885890757348,6.740115665025154 L2.465860486383229,6.708436083246176 " />
			<path d="M1.8979755701007712,6.69031166280504 L2.032885890757645,6.740115665025123 " />
			<path d="M1.8979755700999283,6.690311662804944 L2.036573728935787,6.549958966619242 " />
			<path d="M1.9419921081587321,6.522822323729439 L2.036573728936889,6.549958966619248 " />
			<path d="M1.546255380493057,6.589398767635799 L1.9419921081588845,6.5228223237292395 " />
			<path d="M1.3784262605645294,6.55234306053575 L1.5462553804933645,6.589398767635918 " />
			<path d="M1.3784262605655768,6.552343060535607 L1.407957214844577,6.404910482230302 " />
			<path d="M1.296101223630564,6.3864668844109005 L1.4079572148433919,6.404910482230454 " />
			<path d="M0.9624679579426348,6.483756947623077 L1.296101223630652,6.386466884410708 " />
			<path d="M0.7722653595806864,6.461777882001767 L0.9624679579424222,6.483756947623227 " />
			<path d="M0.7722653595798874,6.461777882001777 L0.6908735708367876,6.3165291526910785 " />
			<path d="M0.5687715324949697,6.307937479023414 L0.6908735708378357,6.316529152690978 " />
			<path d="M0.31820513388507354,6.429828069062222 L0.5687715324950269,6.30793747902359 " />
			<path d="M0.11758018586030566,6.424306670445554 L0.3182051338850537,6.429828069062173 " />
			<path d="M0.1175801858604989,6.4243066704454925 L-0.06962020047933604,6.290368301979341 " />
			<path d="M-0.19429616582229559,6.292168398918373 L-0.06962020047935744,6.290368301979331 " />
			<path d="M-0.3460516890117583,6.431000681729114 L-0.1942961658228467,6.292168398918236 " />
			<path d="M-0.5444929833672314,6.442283879898803 L-0.34605168901139666,6.431000681729166 " />
			<path d="M-0.5444929833675403,6.442283879898789 L-0.8257394785558718,6.328071712558779 " />
			<path d="M-0.945155521470125,6.340150473393397 L-0.8257394785554175,6.328071712558732 " />
			<path d="M-0.9885648115984803,6.487201106057755 L-0.9451555214707783,6.340150473393279 " />
			<path d="M-1.1723536559448051,6.514579936176025 L-0.9885648115975808,6.48720110605775 " />
			<path d="M-1.1723536559452865,6.514579936176101 L-1.529974508337341,6.427270340479195 " />
			<path d="M-1.6366272796646983,6.448868812243439 L-1.529974508336602,6.427270340479073 " />
			<path d="M-1.5689627713850554,6.594898062696668 L-1.6366272796652563,6.448868812243304 " />
			<path d="M-1.7265510367032766,6.636652212174768 L-1.5689627713846694,6.594898062696776 " />
			<path d="M-1.7265510367028005,6.636652212174458 L-2.138075612905301,6.581731171120365 " />
			<path d="M-2.225263726784122,6.611492242400562 L-2.138075612905801,6.581731171120929 " />
			<path d="M-2.05077703000384,6.747324555778819 L-2.2252637267840316,6.611492242400692 " />
			<path d="M-2.1722628660165255,6.800830457844225 L-2.050777030003656,6.747324555778685 " />
			<path d="M-2.172262866016389,6.800830457843912 L-2.6118335634242977,6.7817488624278095 " />
			<path d="M-2.674078670002316,6.817802535660923 L-2.611833563424318,6.781748862428026 " />
			<path d="M-2.403733425597695,6.934903068158082 L-2.6740786700020225,6.817802535660811 " />
			<path d="M-2.4814834304330056,6.996798750202815 L-2.444372281872656,6.965604724989048 L-2.4037334255977876,6.934903068158131 " />
			<path d="M-2.4814834304325437,6.9967987502032125 L-2.921480405501028,7.01475556724228 " />
			<path d="M-2.954871415810447,7.0548364575424465 L-2.921480405500987,7.014755567241921 " />
			<path d="M-2.6056544097482766,7.1458473520364265 L-2.9548714158108518,7.054836457542519 " />
			<path d="M-2.634783264658083,7.212243680721264 L-2.6221109469042676,7.178953284055369 L-2.6056544097480616,7.145847352036349 " />
			<path d="M-2.6347832646585814,7.21224368072077 L-3.0475598892468527,7.266110617359554 " />
			<path d="M-3.0499987233064827,7.307700294983831 L-3.0500000000000003,7.306770072260996 " />
			<path d="M-3.0500000000000003,7.306770072260991 L-3.0475598892465703,7.266110617360242 " />
			<path d="M-2.6438525444078915,7.366903002258843 L-3.049998723306489,7.307700294984187 " />
			<path d="M-2.622529976309664,7.43362805206397 L-2.635092737692401,7.400333042001973 L-2.643852544407312,7.366903002258701 " />
			<path d="M-2.6225299763092482,7.4336280520644795 L-2.982149977008664,7.520020450565528 " />
			<path d="M-2.9534833939065606,7.560505683110417 L-2.982149977009701,7.520020450564952 " />
			<path d="M-2.515927700291951,7.584180279335658 L-2.9534833939069243,7.560505683110295 " />
			<path d="M-2.445493484559182,7.647041469984533 L-2.482501960578253,7.615833894459063 L-2.5159277002921185,7.584180279335643 " />
			<path d="M-2.445493484558923,7.647041469984713 L-2.7293606141366906,7.760530978221213 " />
			<path d="M-2.6713898407155754,7.797367929632951 L-2.7293606141364855,7.7605309782212055 " />
			<path d="M-2.2299178658329715,7.784026852858933 L-2.671389840715804,7.797367929633017 " />
			<path d="M-2.114797643277782,7.83907438455558 L-2.173926455277216,7.811915130310419 L-2.229917865832522,7.784026852858994 " />
			<path d="M-5.0,3.771236166328254 L-4.996936989068398,3.712906902393954 L-4.987751709087978,3.6546491037288797 L-4.972455413903937,3.5965341480426956 L-4.951066844604019,3.538633238033224 L-4.9236122065568555,3.4810173141485894 L-4.89012513730503,3.4237569676706667 L-4.850646665352216,3.366922354226341 L-4.805225159894885,3.3105831078325294 " />
			<path d="M5.0,4.985001358610999e-16 L4.998750586550147,-0.037256727154756766 L4.995002970614177,-0.07449483468711217 L4.9887590251207925,-0.11169571228010579 L4.980021870577783,-0.14884076822301467 L4.968795873512511,-0.18591143870284194 L4.955086644289663,-0.22288919708186972 L4.938901034307391,-0.2597555631566339 L4.920247132573218,-0.2964921123936853 L4.89913426166143,-0.333080485137536 L4.875572973053982,-0.36950239578618177 L4.849575041867225,-0.4057396419296084 L4.821153460967118,-0.4417741134467281 L4.757097370673048,-0.5131628078165597 L4.683532738237989,-0.5835257863342423 L4.600606605513956,-0.652722406651246 L4.508484726229778,-0.720614357749522 L4.4073512346806,-0.7870659363991893 L4.297408277678086,-0.85194431840375 L4.178875610496997,-0.9151198240906521 L4.051990157625769,-0.9764661775165416 L3.917005539199054,-1.0358607588691064 L3.774191564058815,-1.0931848495609964 L3.623833690457245,-1.1483238695259292 L3.4662324554794575,-1.2011676062426764 L3.3017028743264216,-1.2516104350291468 L3.1305738106588783,-1.2995515301662406 L2.953187319260799,-1.3448950664294808 L2.7698979623362425,-1.3875504106256038 L2.5810721008062765,-1.4274323027512443 L2.3870871620224516,-1.4644610264116362 L2.188330885360565,-1.49856256815868 L1.9852005472026588,-1.5296687654298913 L1.7781021668563075,-1.557717442792531 L1.5674496949984418,-1.5826525362205939 L1.3536641862658938,-1.6044242051562407 L1.137172957646428,-1.6229889321316906 L0.9184087343525089,-1.6383096097524503 L0.6978087848850875,-1.6503556148680067 L0.4758140470161683,-1.659102869781742 L0.2528682464371939,-1.6645338903777167 L0.029417009834944267,-1.6666378210681256 L-0.1940930258323362,-1.6654104564915742 L-0.41721510607815415,-1.660854249918805 L-0.6395032518658594,-1.652978308349071 L-0.8605131510367995,-1.641798374306958 L-1.0798030464066968,-1.6273367943760422 L-1.2969346187550759,-1.6096224745322751 L-1.5114738629428872,-1.5886908223663812 L-1.7229919554070914,-1.5645836763107468 L-1.9310661112982137,-1.537349222012271 L-2.1352804295476826,-1.5070418960183292 L-2.335226724175787,-1.4737222769683591 L-2.5305053401785855,-1.437456964508568 L-2.7207259523630394,-1.398318446171776 L-2.9055083455336055,-1.35638495248848 L-3.0844831744708183,-1.3117403006187551 L-3.2572927021828653,-1.2644737268175275 L-3.4235915149545026,-1.2146797080680958 L-3.5830472127640283,-1.1624577732404324 L-3.735341073688362,-1.1079123041517063 L-3.8801686909681825,-1.051152326926675 L-4.017240581459717,-0.9922912940749923 L-4.14628276425706,-0.9314468577209953 L-4.267037308328437,-0.8687406344392516 L-4.3792628480717655,-0.8042979621659277 L-4.48273506575907,-0.738247649671845 L-4.577247139905396,-0.6707217190979909 L-4.662610158666009,-0.6018551420681202 L-4.738653497435626,-0.5317855699058819 L-4.805225159894865,-0.46065305849574584 " />
			<path d="M-4.999749968743435,7.323437572406858 L-19.79898987322333,12.256517540566822 " />
			<path d="M-19.798989873223327,12.256517540566824 L-19.941181178581445,12.301643332791372 L-20.089843861314936,12.344389103468409 L-20.244619779999784,12.384651874292286 L-20.40513606589111,12.422334648721487 L-20.57100602119663,12.45734664565179 L-20.741830050665527,12.4896035181159 L-20.91719662424839,12.519027556482683 L-21.09668326850916,12.545547875666475 L-21.279857584400638,12.569100585895454 L-21.46627828895167,12.589628946627705 L-21.655496278356463,12.607083503244152 L-21.847055709905007,12.621422206189067 L-22.04049510014807,12.632610512271135 L-22.235348436651275,12.640621467881022 L-22.431146300659847,12.645435773924989 L-22.62741699796952,12.647041832318093 L-22.82368769527919,12.645435773924989 L-23.019485559287762,12.640621467881022 L-23.214338895790966,12.632610512271135 L-23.40777828603403,12.621422206189067 L-23.599337717582575,12.607083503244152 L-23.788555706987367,12.589628946627705 L-23.9749764115384,12.569100585895454 L-24.158150727429877,12.545547875666475 L-24.337637371690647,12.519027556482683 L-24.51300394527351,12.4896035181159 L-24.683827974742407,12.45734664565179 L-24.849697930047927,12.422334648721487 L-25.01021421593925,12.384651874292286 L-25.1649901346241,12.344389103468409 L-25.313652817357593,12.301643332791372 L-25.455844122715696,12.256517540566827 " />
			<path d="M-25.45584412271571,10.370899457402697 L-5.567039912271721,3.7412980539213683 " />
			<path d="M-5.567039912271726,3.7412980539213683 L-5.437356187382797,3.6952494046405286 L-5.316652010705189,3.6465637084306604 L-5.205408886910073,3.595435178870693 L-5.104070579297258,3.5420677743197397 L-5.013041339565627,3.486674384300656 L-4.932684295200495,3.429475980256025 L-4.896609718775685,3.400270945127063 L-4.863320000910807,3.3707007340643114 L-4.83284834914161,3.3407948442790363 L-4.805225159894687,3.310583107832544 " />
			<path d="M-4.999999999999999,6.286540458375982 L-5.1337391192991575,6.300312834930216 L-5.270040620925597,6.310933349088397 L-5.408236857283614,6.318349978234057 L-5.547650899771259,6.32252639338653 L-5.687599854589393,6.3234421371517175 L-5.827398207770153,6.321092723928831 L-5.966361183039831,6.315489661882276 L-6.103808096068297,6.306660396571047 L-6.239065688674788,6.294648176511755 L-6.37147142665809,6.279511841333792 L-6.500376745097295,6.261325533564342 L-6.625150225226635,6.240178335454973 L-6.745180687323058,6.216173832628771 L-6.859880184456606,6.189429606685399 L-6.968686882439277,6.160076659249472 L-7.071067811865464,6.1282587702834155 " />
			<path d="M-9.89949493661166,7.071067811865476 L-9.831806248274836,7.094766362758497 L-9.76768759225928,7.1195434765474115 L-9.707293436023464,7.145339462994887 L-9.650769274379664,7.172092177310107 L-9.59825127898421,7.199737169861027 L-9.549865970288044,7.228207841439176 L-9.505729912737868,7.257435603702987 L-9.46594943396218,7.287350044413115 L-9.430620368618714,7.317879097061695 L-9.399827827520337,7.348949214486867 L-9.373645992595666,7.380485546054332 L-9.352137938178293,7.412412117979089 L-9.335355479055192,7.444652016352935 L-9.32333904564036,7.477127572436801 L-9.316117586574409,7.509760549771563 L-9.313708498984754,7.542472332656502 " />
			<path d="M-9.313708498984754,7.542472332656509 L-9.315063729808054,7.567010481284082 L-9.319127585627374,7.591515375056287 L-9.325894558980043,7.615953804185764 L-9.335355479055192,7.6402926489600835 L-9.347497524122321,7.664498924626603 L-9.362304238907697,7.688539826094422 L-9.37975555689505,7.712382772392852 L-9.399827827520337,7.735995450826151 L-9.447722901315277,7.782402357013168 L-9.505729912737868,7.82750906161003 L-9.573534516767332,7.871071127476365 L-9.650769274379664,7.91285248800291 L-9.737015643731542,7.952626726376927 L-9.831806248274836,7.990178302554521 L-9.93462740951062,8.02530372129082 L-10.044921930657463,8.057812634898333 L-10.162092116149063,8.087528874757565 L-10.28550301059831,8.114291405990024 L-10.41448583967554,8.137955200120185 L-10.548341634254575,8.158392020997367 L-10.686345018186971,8.175491119718533 L-10.827748139178226,8.189159834786205 L-10.971784721464152,8.199324094249135 L-11.117674218325632,8.20592881710464 L-11.264626041938929,8.208938211787311 L-11.41184384763959,8.208335970126624 L-11.558529849383186,8.204125355722315 L-11.70388914301701,8.196329186258662 L-11.84713401393455,8.184989709853468 L-11.987488205769194,8.170168376111857 L-12.124191126994734,8.151945503125528 L-12.25650197263675,8.130419842222079 L-12.383703738758948,8.10570804282298 L-12.505107107969621,8.077944020310271 L-12.620054184892307,8.047278230327498 L-12.727922061357843,8.013876853447542 " />
			<path d="M-21.213203435596416,10.842303978193732 L-21.145514747259593,10.866002529086751 L-21.081396091244038,10.890779642875666 L-21.021001935008222,10.916575629323141 L-20.964477773364422,10.943328343638361 L-20.911959777968967,10.970973336189282 L-20.863574469272802,10.999444007767432 L-20.819438411722626,11.028671770031242 L-20.77965793294694,11.05858621074137 L-20.74432886760347,11.08911526338995 L-20.713536326505093,11.120185380815121 L-20.687354491580425,11.151721712382587 L-20.66584643716305,11.183648284307344 L-20.64906397803995,11.215888182681189 L-20.63704754462512,11.248363738765056 L-20.629826085559166,11.280996716099818 L-20.62741699796951,11.313708498984758 " />
			<path d="M-20.62741699796951,11.313708498984763 L-20.628772228792812,11.338246647612335 L-20.63283608461213,11.362751541384542 L-20.6396030579648,11.387189970514019 L-20.64906397803995,11.411528815288337 L-20.66120602310708,11.435735090954857 L-20.676012737892453,11.459775992422676 L-20.693464055879808,11.483618938721106 L-20.713536326505093,11.507231617154405 L-20.761431400300033,11.553638523341421 L-20.819438411722626,11.598745227938284 L-20.887243015752087,11.642307293804619 L-20.964477773364422,11.684088654331164 L-21.050724142716298,11.723862892705181 L-21.145514747259593,11.761414468882776 L-21.248335908495378,11.796539887619074 L-21.358630429642222,11.829048801226588 L-21.47580061513382,11.85876504108582 L-21.599211509583068,11.885527572318278 L-21.7281943386603,11.90919136644844 L-21.862050133239332,11.929628187325621 L-22.00005351717173,11.946727286046787 L-22.141456638162985,11.960396001114459 L-22.28549322044891,11.97056026057739 L-22.43138271731039,11.977164983432894 L-22.578334540923688,11.980174378115565 L-22.725552346624347,11.979572136454879 L-22.872238348367944,11.97536152205057 L-23.017597642001768,11.967565352586917 L-23.16084251291931,11.956225876181723 L-23.301196704753952,11.941404542440111 L-23.43789962597949,11.923181669453783 L-23.570210471621508,11.901656008550333 L-23.697412237743706,11.876944209151235 L-23.818815606954377,11.849180186638526 L-23.933762683877067,11.818514396655752 L-24.0416305603426,11.785113019775796 " />
			<path d="M-15.556349186104038,8.956685895029604 L-15.488660497767214,8.980384445922624 L-15.424541841751658,9.005161559711539 L-15.364147685515842,9.030957546159014 L-15.307623523872042,9.057710260474234 L-15.255105528476587,9.085355253025154 L-15.206720219780422,9.113825924603304 L-15.162584162230246,9.143053686867114 L-15.12280368345456,9.172968127577242 L-15.087474618111091,9.203497180225822 L-15.056682077012715,9.234567297650994 L-15.030500242088044,9.26610362921846 L-15.008992187670671,9.298030201143217 L-14.99220972854757,9.330270099517062 L-14.980193295132738,9.362745655600929 L-14.972971836066787,9.39537863293569 L-14.970562748477132,9.42809041582063 " />
			<path d="M-14.970562748477132,9.428090415820636 L-14.971917979300432,9.452628564448208 L-14.975981835119752,9.477133458220415 L-14.98274880847242,9.501571887349892 L-14.99220972854757,9.52591073212421 L-15.0043517736147,9.55011700779073 L-15.019158488400075,9.574157909258549 L-15.036609806387428,9.598000855556979 L-15.056682077012715,9.621613533990278 L-15.104577150807653,9.668020440177294 L-15.162584162230246,9.713127144774157 L-15.23038876625971,9.756689210640491 L-15.307623523872042,9.798470571167037 L-15.39386989322392,9.838244809541054 L-15.488660497767214,9.875796385718647 L-15.591481659002998,9.910921804454947 L-15.70177618014984,9.94343071806246 L-15.818946365641441,9.973146957921692 L-15.942357260090688,9.99990948915415 L-16.07134008916792,10.023573283284312 L-16.205195883746953,10.044010104161494 L-16.34319926767935,10.06110920288266 L-16.484602388670606,10.074777917950332 L-16.62863897095653,10.084942177413264 L-16.774528467818012,10.091546900268767 L-16.92148029143131,10.094556294951438 L-17.068698097131968,10.093954053290751 L-17.215384098875564,10.089743438886442 L-17.360743392509388,10.08194726942279 L-17.50398826342693,10.070607793017595 L-17.644342455261572,10.055786459275984 L-17.78104537648711,10.037563586289657 L-17.913356222129128,10.016037925386206 L-18.040557988251326,9.991326125987108 L-18.161961357461998,9.963562103474398 L-18.276908434384687,9.932896313491625 L-18.38477631085022,9.899494936611669 " />
			<path d="M-4.805225159894683,-0.46065305849571353 L-4.83284834914161,-0.43044132204921726 L-4.863320000910807,-0.40053543226394217 L-4.896609718775685,-0.37096522120119013 L-4.932684295200495,-0.34176018607222836 L-5.013041339565627,-0.2845617820275974 L-5.104070579297257,-0.2291683920085139 L-5.205408886910073,-0.17580098745756056 L-5.316652010705188,-0.12467245789759329 L-5.437356187382796,-0.075986761687725 L-5.5670399122717225,-0.029938112406886153 " />
			<path d="M-25.45584412271571,6.599663291074443 L-5.567039912271721,-0.029938112406885153 " />
			<path d="M1.3784262605648205,6.5523430605355895 L1.3784262605648205,6.399855826395418 " />
			<path d="M2.298268094301111,6.867014614115696 L2.298268094301111,6.7206983659392865 " />
			<path d="M2.64954910657084,7.29047579286941 L2.64954910657084,7.141485546062725 " />
			<path d="M2.645614941095391,7.35756550452993 L2.645614941095391,7.14109909080317 " />
			<path d="M2.3453670680842715,7.71796795865154 L2.3453670680842715,6.895572185870808 " />
			<path d="M2.2449573873358286,7.776127354917442 L2.2449573873358286,6.72459896638574 " />
			<path d="M1.460972551262323,8.043735260980514 L1.460972551262323,6.569804883541586 " />
			<path d="M1.2889273687782001,8.078576484230643 L1.2889273687782001,6.388558836454614 " />
			<path d="M0.21515294397998883,8.1871872215396 L0.21515294397998896,6.426352922982263 " />
			<path d="M0.014033939366763871,8.19009101862343 L0.014033939366764024,6.3502212714389525 " />
			<path d="M-1.0838926271813007,8.112835741817854 L-1.0838926271813005,6.500704402704223 " />
			<path d="M-1.2643312991487807,8.083083752131756 L-1.2643312991487805,6.4921245038724855 " />
			<path d="M-2.114797643277713,7.839074384555566 L-2.114797643277713,6.774465759966372 " />
			<path d="M-2.229917865832932,7.784026852859077 L-2.229917865832932,6.79832767641034 " />
			<path d="M-2.622529976310288,7.433628052063996 L-2.622529976310288,7.179912092459446 " />
			<path d="M-2.643852544407711,7.366903002258708 L-2.643852544407711,7.2134272126567005 " />
			<path d="M-2.4037334255978373,6.934903068158119 L-2.4037334255978373,6.790782409612495 " />
			<path d="M-1.5689627713848981,6.594898062696659 L-1.5689627713848981,6.434935746638143 " />
			<path d="M-2.050777030003384,6.747324555778757 L-2.050777030003384,6.593381821732205 " />
			<path d="M-2.605654409748083,7.145847352036345 L-2.605654409748083,7.0018663203990865 " />
			<path d="M-2.445493484559441,7.64704146998457 L-2.445493484559441,6.966498674537657 " />
			<path d="M-2.515927700291931,7.584180279335618 L-2.515927700291931,6.998204463167065 " />
			<path d="M-1.6512212883876574,7.997660661506547 L-1.6512212883876574,6.615879483015213 " />
			<path d="M-1.8037940907983838,7.953885627629557 L-1.8037940907983838,6.626343547296472 " />
			<path d="M-0.44845900593030996,8.177362751608278 L-0.44845900593030985,6.436177392913564 " />
			<path d="M-0.6454259220887003,8.16350323304605 L-0.6454259220887002,6.401295743567985 " />
			<path d="M0.8652460431426552,8.141691844034026 L0.8652460431426553,6.471848300487931 " />
			<path d="M0.6726119967982961,8.161176500514118 L0.6726119967982962,6.315133204262596 " />
			<path d="M1.9649007809047612,7.899472444751179 L1.9649007809047612,6.714067699770768 " />
			<path d="M1.824254693833652,7.947481032577402 L1.824254693833652,6.542629781093032 " />
			<path d="M2.5784653167178337,7.510626397069927 L2.5784653167178337,7.102913747451581 " />
			<path d="M2.5246011518167597,7.575282233012812 L2.5246011518167597,6.927998906667343 " />
			<path d="M2.554151981698403,7.071349018169281 L2.554151981698403,6.928346295135679 " />
			<path d="M1.8979755701007792,6.690311662805037 L1.8979755701007792,6.530227409919421 " />
			<path d="M2.7886462934150313,7.718534817692964 L2.7886462934150313,7.6639751951273745 " />
			<path d="M1.8486018382662737,8.115415801830293 L1.8486018382662737,7.9758208634833 " />
			<path d="M0.45123798581394475,8.312248636050112 L0.4512379858139449,6.365112876178863 " />
			<path d="M0.5742540080214193,8.305254052785239 L0.5742540080214195,6.308286091736775 " />
			<path d="M-1.0577561157494806,8.260339506870586 L-1.0577561157494804,6.496855673519811 " />
			<path d="M-0.9398473551771442,8.27396458038848 L-0.9398473551771441,6.339575564133574 " />
			<path d="M-2.221443039147139,8.003404108484222 L-2.221443039147139,7.913872537259357 " />
			<path d="M-2.953483393907002,7.5605056831104545 L-2.953483393907002,7.513133806702102 " />
			<path d="M-3.0499987233060213,7.30770029498383 L-3.0499987233060213,7.305839849370013 " />
			<path d="M-2.67138984071581,7.797367929632992 L-2.67138984071581,7.737354379446245 " />
			<path d="M-1.6319148015341556,8.16566820879898 L-1.6319148015341554,6.610801196796821 " />
			<path d="M-0.3130955370050301,8.318065785948747 L-0.31309553700503,6.4008510191691474 " />
			<path d="M-0.18872584297815445,8.321488563939603 L-0.18872584297815428,6.292051580582296 " />
			<path d="M1.1872185664473593,8.24325357009751 L1.1872185664473596,6.418217916725331 " />
			<path d="M2.393830657905169,7.9367678483834965 L2.393830657905169,7.860777166482443 " />
			<path d="M3.0082410263844146,7.474429093682147 L3.0082410263844146,7.429678325820078 " />
			<path d="M-25.45584412271571,10.370899457402697 L-25.45584412271571,6.599663291074443 " />
			<path d="M-4.805225159895047,3.310583107832506 L-4.805225159895047,-0.46065305849574756 " />
			<path d="M-5.567039912271726,-0.029938112406885153 L-5.567039912271726,3.7412980539213683 " />
			<path d="M-26.62741699796952,11.313708498984761 L-26.62741699796952,7.542472332656509 " />
			<path d="M-5.0,7.306770072260991 L-4.999999999999999,3.7712361663282534 " />
			<path d="M4.999999999999998,7.306770072260989 L4.999999999999999,-1.7763568394002505e-15 " />

       </g>
    </g>
    
</svg>
