<?xml version="1.0" encoding="UTF-8" standalone="no"?>
<svg
   xmlns:svg="http://www.w3.org/2000/svg"
   xmlns="http://www.w3.org/2000/svg"
   width="1024.0"
   height="320.0"

>
    <g transform="scale(8.583460642374579, -8.583460642374579)   translate(53.56257112935408,-30.329266681079996)" stroke-width="0.16"  fill="none">
       <!-- hidden lines -->
       <g  stroke="rgb(32,64,32)" fill="none" stroke-dasharray="0.16,0.16" >

       </g>

       <!-- solid lines -->
       <g  stroke="rgb(64,192,64)" fill="none">
			<path d="M-26.91277839701239,21.662939057912062 L-26.97724522196722,21.530520857119626 L-27.03811637538871,21.395746853237167 L-27.095281765429817,21.258860799145754 L-27.14863800250413,21.12011026759014 L-27.198088586276757,20.97974620341757 L-27.24354408019526,20.838022469717767 L-27.28492227324503,20.695195388684997 L-27.32214832863648,20.551523278032576 L-27.35515491915523,20.40726598379825 L-27.383882348930406,20.262684410385486 L-27.40827866140086,20.118040048690542 L-27.42829973328406,19.973594503168865 L-27.443909354377638,19.829609018696054 L-27.45507929304935,19.686344008079192 L-27.46178934729693,19.54405858107304 L-27.4640273812855,19.403010075752977 " />
			<path d="M-27.464027381285504,19.40301007575295 L-27.461736539091472,19.261826329362858 L-27.454868253500226,19.12243118175607 L-27.443435239631906,18.985082692389398 L-27.427458663197083,18.850035131782064 L-27.406968101313083,18.71753851078978 L-27.382001487748486,18.587838117764598 L-27.35260504269707,18.461174064457524 L-27.318833187211307,18.337780841504387 L-27.28074844245375,18.217886884318006 L-27.23842131395284,18.101714150190276 L-27.191930161077448,17.98947770738706 L-27.141361051971714,17.881385336996594 L-27.08680760421883,17.777637148268493 L-27.028370811528664,17.678425208155502 L-26.966158856770114,17.583933185743774 L-26.90028691169435,17.49433601222996 " />
			<path d="M-27.464027381285504,19.5680016580304 L-27.461790863282708,19.701801387751292 L-27.455085800648124,19.836823432934057 L-27.44392565848467,19.97279664238539 L-27.42833284858341,20.10944795478442 L-27.4083386844162,20.24650294704435 L-27.383983318251996,20.38368638540871 L-27.355315660523093,20.520722778175635 L-27.322393281603222,20.65733692894015 L-27.285282296194758,20.79325448924342 L-27.244057230557203,20.92820250951918 L-27.19880087284362,21.06190998723088 L-27.149604106845484,21.194108411098842 L-27.096565729479916,21.32453230032444 L-27.03979225238578,21.452919737728493 L-26.979397688027056,21.579012895733207 L-26.915503320733094,21.702558554131315 " />
			<path d="M-3.1947663656936287,22.426786569810133 L-3.15028160655719,22.38331005750006 L-3.1069130571452748,22.337985145106508 L-3.064688268573174,22.290840626580476 L-3.023634065349289,22.24190645182998 L-2.9837765283340953,22.191213707693482 L-2.945140978171525,22.13879459819111 L-2.871633223876447,22.02891156162965 L-2.803297564437507,21.912536523205528 L-2.7403076210289115,21.789965158280413 L-2.682823432904363,21.661508885292015 L-2.6309910507835355,21.527494074529777 L-2.5849421657793794,21.38826121892224 L-2.5447937748090386,21.244164068942826 L-2.5106478833384736,21.09556873383208 L-2.4825912462160336,20.942852751419824 L-2.4606951472534417,20.786404128910547 L-2.4450152181142206,20.6266203570692 L-2.4355912969696987,20.46390740031192 L-2.432447327281727,20.29867866526775 " />
			<path d="M-3.4223968209464433,17.328830184273592 L-3.5032053651394364,17.224421042762415 L-3.5862848353504795,17.12364977329401 L-3.6715008642115814,17.02667935680955 L-3.758715628822813,16.933666626996146 L-3.847788073658171,16.84476201663416 L-3.938574138699665,16.760109314296944 L-4.030926992430687,16.6798454317965 L-4.124697269311822,16.60410018275115 L-4.219733311355021,16.53299607263338 L-4.31588141340543,16.466648100637407 L-4.412986071734188,16.4051635736869 L-4.510890235540096,16.3486419328837 L-4.609435560953454,16.29717459267823 L-4.7084626671311955,16.25084479302161 L-4.807811394029167,16.209727464738805 L-4.907321061434634,16.1738891083403 " />
			<path d="M-4.907321061434642,16.173889108340298 L-4.995564155923118,16.146572983941464 L-5.083695029396411,16.12348807902263 " />
			<path d="M-4.659833688019351,16.421376481755587 L-4.57027498735442,16.453631002514246 L-4.480861133146246,16.490636597968773 L-4.391736737586279,16.53233341765973 L-4.303045944714258,16.578654023844656 L-4.21493219728894,16.62952350056753 L-4.127538004793059,16.684859574822987 L-4.04100471294769,16.744572749619365 L-3.9554722751088116,16.808566448725358 L-3.8710790259157903,16.87673717286617 L-3.787961457557871,16.94897466711657 L-3.706253999020527,17.025162099220065 L-3.6260887986687047,17.105176248545853 L-3.5475955105185957,17.188887705377915 L-3.4709010845436046,17.276161080213928 L-3.396129561353666,17.366855222735495 L-3.323401871579976,17.460823450095546 " />
			<path d="M-3.323401871579972,17.460823450095553 L-3.222431276285598,17.601683791256086 L-3.12628740957671,17.74855332612382 L-3.035293117961687,17.900938873821566 L-2.94975395592191,18.058328730964746 L-2.869957159874422,18.220194389936893 L-2.796170683645771,18.38599231359294 L-2.728642298695869,18.55516576043101 L-2.667598762113272,18.727146654103727 L-2.6132450551757187,18.90135749099146 L-2.5657636950327993,19.07721327943186 L-2.5253141218220896,19.254123504093887 L-2.492032163276794,19.431494108900097 L-2.466029578622706,19.608729491838506 L-2.4473936832960765,19.785234504965718 L-2.436187055742548,19.960416452885237 L-2.4324473272817264,20.133687082990274 " />
			<path d="M-2.4324473272817264,20.13368708299029 L-2.4362623950713806,20.306162106829927 L-2.447694529542181,20.475502921634895 L-2.4667045687698628,20.641129433444494 L-2.4790319609418954,20.72237197203259 L-2.493227391956694,20.80247427201581 L-2.5092787022418426,20.881367719083233 L-2.527172142509308,20.958984734407434 L-2.5468923855328525,21.035258832531397 L-2.5684225392770834,21.11012467831886 L-2.5917441613668943,21.183518142919326 L-2.616837274884897,21.255376358699767 L-2.643680385483323,21.325637773096016 L-2.6722504997957253,21.394242201337665 L-2.7025231451327185,21.46113087800136 L-2.734472390444881,21.526246507348297 L-2.7680708685348665,21.589533312402796 L-2.8032897994996917,21.650937082729943 L-2.8400990153831285,21.71040522087137 L-2.878466986017081,21.76788678739935 L-2.9183608460298025,21.82333254455068 L-2.9597464229978376,21.876694998402957 L-3.002588266717554,21.92792843955706 L-3.0468496795712046,21.976988982291083 L-3.0924927479615,22.023834602152117 L-3.1394783747877746,22.068425171953717 L-3.187766312935918,22.11072249614817 L-3.2373151997533878,22.15069034354419 L-3.2880825924797814,22.188294478341945 L-3.3400250046025928,22.22350268945888 " />
			<path d="M-5.253200569140157,16.330906974657772 L-5.180512856246752,16.33010011306616 L-5.10723364109985,16.33277075231827 L-5.0334461703963385,16.338915858512937 L-4.959234268221883,16.34852845068302 L-4.884682240825036,16.361597608725937 L-4.809874780843603,16.37810848580912 L-4.734896871092065,16.398042325236315 L-4.659833688019352,16.421376481755587 " />
			<path d="M-4.047461252323745,18.18113554559758 L-3.979401894430924,18.260251369420953 L-3.914256249940039,18.34421019580114 L-3.852303282502141,18.43265250015399 L-3.793808284234993,18.525199558954352 L-3.73902173970149,18.62145507148836 L-3.6881782532963077,18.721006856873927 L-3.641495544633867,18.823428619082566 L-3.5991735162395213,18.928281772404425 L-3.5613933975362504,19.03511731953963 L-3.5283169687924514,19.143477774273656 L-3.5000858683539913,19.25289912050353 L-3.476820986127065,19.362912799226027 L-3.458621945909057,19.47304771497925 L-3.4455666787841497,19.58283225314572 L-3.4377110894104526,19.691796299478586 L-3.435088816627675,19.799473253202976 " />
			<path d="M-4.659833688019351,17.75823180088352 L-4.5797315409218,17.78842888029307 L-4.499972403515625,17.825489378593378 L-4.420897816672046,17.869254597041092 L-4.342846389911677,17.91953712625186 L-4.26615235142658,17.97612164871609 L-4.19114411686383,18.038765860821577 L-4.118142882999298,18.107201510434763 L-4.047461252323746,18.18113554559758 " />
			<path d="M-5.272206123714956,17.772887255133845 L-5.201524493039403,17.74607430708806 L-5.128523259174872,17.726306146717896 L-5.053515024612122,17.71366742432091 L-4.9768209861270245,17.708212260846746 L-4.898769559366656,17.709964016142887 L-4.8196949725230755,17.71891518892423 L-4.739935835116903,17.7350274488947 L-4.659833688019361,17.758231800883514 " />
			<path d="M-5.795108682170368,18.400118154711777 L-5.7751113642317184,18.344641375076257 L-5.753201644584668,18.290959205234977 L-5.729417092514587,18.23916369569294 L-5.703798492140965,18.189343661839406 L-5.6763897724836045,18.141584531653322 L-5.647237932136143,18.09596819921731 L-5.616392958676088,18.052572884291294 L-5.583907742949549,18.011472998186623 L-5.549837988377637,17.972739016170646 L-5.514242115440054,17.93643735662056 L-5.477181161499667,17.90263026713373 L-5.438718676139814,17.871375717789782 L-5.398920612193839,17.842727301747473 L-5.3578552126536945,17.816734143346824 L-5.315592893651533,17.793440813874064 L-5.272206123714966,17.77288725513385 " />
			<path d="M-4.047461252323746,21.00956267034433 L-4.115159545366799,21.035401714046802 L-4.18500059696082,21.054772534793052 L-4.256709651065835,21.067598927401775 L-4.330004602884063,21.0738304325978 " />
			<path d="M-3.4350888166276747,19.799473253202983 L-3.4377110894104526,19.905402025072192 L-3.44556667878415,20.00912901182259 L-3.4586219459090577,20.110210038572458 L-3.4768209861270654,20.20821226084701 L-3.500085868353992,20.302716018084887 L-3.5283169687924523,20.39331663068912 L-3.5613933975362513,20.47962613292728 L-3.5991735162395218,20.561274934260304 L-3.6414955446338677,20.637913401985934 L-3.688178253296308,20.70921335841961 L-3.7390217397014904,20.774869486201727 L-3.793808284234994,20.834600635713397 L-3.8523032825021417,20.888151029002326 L-3.9142562499400393,20.935291355063242 L-3.9794018944309246,20.97581975178284 L-4.047461252323741,21.00956267034433 " />
			<path d="M-4.047461252323866,18.181135545597822 L-4.045835404498188,18.288020982740765 L-4.040637587597451,18.395107570060997 L-4.031387391495646,18.502422361147485 L-4.017604406066764,18.60999240958919 L-3.9986098290021737,18.71820364379402 L-3.973901788417029,18.826851113128416 L-3.943265269821003,18.93507555261914 L-3.906485258723768,19.042017697292955 L-3.8635595376945595,19.146614544291705 L-3.8149876045146898,19.24837659105502 L-3.7613070175119465,19.34730482305633 L-3.703055335014117,19.443400225769068 L-3.6407701153489875,19.536663784666672 L-3.574988916844346,19.62709648522257 L-3.5062492978279796,19.714699312910195 L-3.4350888166276765,19.79947325320298 " />
			<path d="M-4.823918387631913,18.031706300236845 L-4.7405215513576175,18.057467308725233 L-4.652311272293938,18.080925058838574 L-4.559598205551151,18.102228200725314 L-4.4626930062395305,18.121525384533903 L-4.362169022688746,18.13893717405679 L-4.258924117837078,18.154580581864593 L-4.04746125232387,18.18113554559782 " />
			<path d="M-5.272206123714835,17.772887255134165 L-5.234535643297106,17.80836609974106 L-5.192421049423854,17.8434580208105 L-5.145479240381196,17.877874472014234 L-5.093327114455249,17.911326907024034 L-5.035522297785587,17.943573582940584 L-4.97161519437309,17.97447541409916 L-4.901211869295839,18.003897840023377 L-4.823918387631915,18.031706300236845 " />
			<path d="M-5.781800879821286,18.51616097050177 L-5.740065347411691,18.42788138019522 L-5.690537313234298,18.337272443531926 L-5.633945897700867,18.245008324306205 L-5.571067330069162,18.15148980152928 L-5.502677839596944,18.057117654212387 L-5.429553655541976,17.96229266136675 L-5.352471007162019,17.8674156020036 L-5.272206123714837,17.772887255134165 " />
			<path d="M-4.047461252323866,21.00956267034401 L-4.255186248563575,20.98353694382972 L-4.356684920016041,20.96824830704391 L-4.4556006323500945,20.95126145851081 " />
			<path d="M-3.435088816627675,19.799473253202983 L-3.573588846128461,19.96500404625709 L-3.6385292930528,20.047588623001527 L-3.7001238773486183,20.13003281486833 L-3.758105209280604,20.212585412740967 L-3.811946108396801,20.295049902174917 L-3.8609022755638844,20.376743446411275 L-3.9042294116485285,20.456983208691128 L-3.941211428565021,20.53494414304131 L-3.971906972691201,20.610283697369276 L-3.9967338465890716,20.68304277573705 L-4.016109852820635,20.753262282206656 L-4.030452793947893,20.82098312084013 L-4.04018047253285,20.886246195699492 L-4.045710691137506,20.949092410846777 L-4.047461252323866,21.009562670344007 " />
			<path d="M-5.6384515099935975,18.711465631487734 L-4.047461252323866,18.181135545597822 " />
			<path d="M-5.022089251887202,20.32847339828949 L-3.435088816627675,19.79947325320298 " />
			<path d="M-5.6384515099935975,18.711465631487734 L-5.031168218719649,20.316354082010513 " />
			<path d="M-5.757680636178277,18.671722589426174 L-5.638451509993598,18.711465631487734 " />
			<path d="M-18.612593929296505,0.8371542709540328 L-18.552154770954594,0.7933045375151214 L-18.486994912373824,0.7502125470312149 L-18.417199705165906,0.7079347448494879 L-18.34286057269415,0.6665265098279399 L-18.264074890319822,0.6260420817957221 L-18.180945857852073,0.5865344905054578 L-18.093582364368554,0.5480554861706168 L-18.00209884558376,0.5106554716789328 L-17.906615133951945,0.47438343657065674 L-17.807256301700967,0.4392868928681257 L-17.70415249700264,0.4054118128407016 L-17.597438773494204,0.37280256878660534 L-17.487254913374258,0.341501874910519 L-17.373745244304803,0.3115507313730954 L-17.25705845035929,0.28298837058565285 L-17.137347377264287,0.2558522058204178 L-17.014768832189887,0.23017778220361773 L-16.889483378351088,0.2059987301556223 L-16.63145151090884,0.16225142717303354 L-16.364603295595895,0.12483943672391806 L-16.090336431383356,0.0939587155265793 L-15.810087474680163,0.06977101078323944 L-15.525324314930428,0.05240301297970018 L-15.237538486094481,0.04194569230525724 L-14.948237354284522,0.038453822168569074 L-14.65893622247456,0.04194569230521328 L-14.3711503936386,0.052403012979612695 L-14.086387233888841,0.06977101078310866 L-13.806138277185612,0.09395871552640611 L-13.531871412973032,0.12483943672370312 L-13.265023197660037,0.1622514271727784 L-13.006991330217732,0.20599873015532832 L-12.881705876378899,0.23017778220330465 L-12.759127331304462,0.25585220582008605 L-12.639416258209422,0.2829883705853029 L-12.52272946426387,0.3115507313727277 L-12.409219795194376,0.3415018749101342 L-12.299035935074388,0.37280256878620355 L-12.192322211565905,0.4054118128402844 L-12.089218406867529,0.4392868928676933 L-11.989859574616503,0.4743834365702094 L-11.89437586298464,0.5106554716784705 L-11.802892344199796,0.5480554861701402 L-11.715528850716225,0.5865344905049678 L-11.632399818248423,0.6260420817952195 L-11.553614135874039,0.6665265098274256 L-11.479275003402226,0.7079347448489621 L-11.40947979619425,0.750212547030678 L-11.344319937613424,0.7933045375145741 L-11.283880779271463,0.8371542709534666 " />
			<path d="M-18.612593929298153,0.8371542709537905 L-21.11605906677807,2.7436730974376564 " />
			<path d="M-21.11605906677352,2.743673097438319 L-21.155407316881597,2.771833756552461 L-21.198648468508352,2.7993528248672894 L-21.245688629014044,2.8261705482395776 L-21.296425656696186,2.852228695407094 L-21.350749382577245,2.877470684430354 L-21.408541849622495,2.901841705553077 L-21.46967756886865,2.9252888402145727 L-21.534023791907153,2.947761175955641 L-21.67178220311484,2.9895884900505285 L-21.820621233552785,3.0269605543593 L-21.979248845172194,3.0595529504219123 L-22.146288027459097,3.087082751000192 " />
			<path d="M-27.86584450691271,3.9215711301586422 L-22.14628802746111,3.08708275099867 " />
			<path d="M-30.261945853268372,5.143023321830157 L-30.25932609277274,5.094774866679292 L-30.25147024285837,5.046589611226818 L-30.238388593747896,4.998530672387085 L-30.220098280835092,4.950661001614813 L-30.196623262239576,4.903043302446215 L-30.16799428742452,4.85573994836488 L-30.13424885691855,4.808812901099972 L-30.095431173194537,4.7623236294637925 L-30.05159208276966,4.7163330288349945 L-30.002789009602548,4.670901341392924 L-29.949085879874776,4.62608807720759 L-29.89055303825522,4.581951936288586 L-29.827267155756964,4.538550731695119 L-29.75931112930746,4.495941313807815 L-29.686773973163476,4.454179495861537 L-29.609750702313075,4.413319980836725 L-29.528342208017364,4.373416289805046 L-29.442655125655033,4.334520691823197 L-29.352801695042757,4.296684135466703 L-29.258899613414492,4.2599561820933785 L-29.16107188125219,4.2243849409238905 L-29.059446641169906,4.190017006024438 L-28.954157010062296,4.156897395274102 L-28.845340904737455,4.125069491396823 L-28.733140861262385,4.094574985135217 L-28.617703848257847,4.065453820640704 L-28.49918107438703,4.037744143151446 L-28.377727790290358,4.011482249026664 L-28.12666967868049,3.963437469133428 L-27.865844506912016,3.921571130159197 " />
			<path d="M-2.0306302016535787,3.921571130159435 L-1.7698050298852301,3.9634374691336927 L-1.5187469182755189,4.011482249026945 L-1.3972936341789226,4.037744143151733 L-1.2787708603081875,4.065453820640993 L-1.163333847303723,4.094574985135509 L-1.0511338038287312,4.125069491397117 L-0.9423176985039636,4.156897395274395 L-0.837028067396429,4.190017006024728 L-0.7354028273142155,4.224384940924178 L-0.6375750951519832,4.259956182093663 L-0.543673013523783,4.2966841354669825 L-0.45381958291157076,4.33452069182347 L-0.3681325005493008,4.37341628980531 L-0.28672400625365313,4.413319980836979 L-0.20970073540330958,4.45417949586178 L-0.13716357925937883,4.495941313808046 L-0.06920755280992719,4.538550731695338 L-0.005921670311720639,4.581951936288792 L0.05261117130779125,4.626088077207782 L0.10631430103552253,4.670901341393101 L0.15511737420259664,4.716333028835155 L0.19895646462744088,4.762323629463938 L0.23777414835142352,4.808812901100102 L0.2715195788573683,4.855739948364992 L0.3001485536724027,4.90304330244631 L0.32362357226790106,4.950661001614889 L0.3419138851806882,4.998530672387142 L0.3549955342911528,5.046589611226855 L0.36285138420551677,5.094774866679311 L0.36547114470114694,5.143023321830145 " />
			<path d="M-2.0306302016528512,3.921571130158886 L-7.750186681106117,3.0870827509986696 " />
			<path d="M-7.75018668110625,3.087082750998769 L-7.917225863392687,3.059552950420513 L-8.075853475011655,3.026960554357951 L-8.2246925054492,2.989588490049255 L-8.36245091665654,2.9477611759544646 L-8.426797139694887,2.9252888402134527 L-8.48793285894091,2.901841705552018 L-8.54572532598604,2.877470684429361 L-8.600049051866998,2.8522286954061697 L-8.650786079549059,2.826170548238726 L-8.697826240054685,2.7993528248665136 L-8.7410673916814,2.7718337565517635 L-8.78041564178945,2.743673097437704 " />
			<path d="M-11.2838807792698,0.8371542709532345 L-8.780415641789153,2.743673097437657 " />
			<path d="M-11.283880779271449,12.150862769938241 L-11.34431993761342,12.107013036499339 L-11.409479796194248,12.063921046015443 L-11.479275003402224,12.021643243833726 L-11.553614135874037,11.980235008812189 L-11.63239981824842,11.939750580779984 L-11.715528850716222,11.900242989489731 L-11.802892344199794,11.861763985154903 L-11.89437586298464,11.824363970663233 L-11.989859574616503,11.788091935554972 L-12.089218406867527,11.752995391852457 L-12.192322211565905,11.719120311825048 L-12.299035935074384,11.686511067770967 L-12.409219795194371,11.655210373894898 L-12.522729464263866,11.625259230357491 L-12.639416258209419,11.596696869570067 L-12.759127331304459,11.56956070480485 L-12.881705876378899,11.543886281188067 L-13.00699133021773,11.51970722914009 L-13.265023197660035,11.475959926157541 L-13.531871412973032,11.438547935708467 L-13.806138277185607,11.40766721451117 L-14.086387233888832,11.383479509767872 L-14.37115039363859,11.366111511964375 L-14.658936222474551,11.355654191289975 L-14.948237354284519,11.352162321153331 L-15.23753848609448,11.35565419129002 L-15.525324314930426,11.366111511964462 L-15.810087474680161,11.383479509768001 L-16.090336431383353,11.407667214511342 L-16.364603295595888,11.43854793570868 L-16.631451510908835,11.475959926157795 L-16.889483378351084,11.519707229140385 L-17.014768832189883,11.54388628118838 L-17.137347377264284,11.56956070480518 L-17.25705845035929,11.596696869570415 L-17.3737452443048,11.625259230357857 L-17.487254913374255,11.655210373895281 L-17.597438773494197,11.686511067771367 L-17.70415249700263,11.719120311825463 L-17.807256301700964,11.752995391852886 L-17.90661513395194,11.788091935555418 L-18.00209884558376,11.824363970663695 L-18.093582364368554,11.86176398515538 L-18.180945857852073,11.90024298949022 L-18.26407489031982,11.939750580780483 L-18.34286057269415,11.980235008812702 L-18.417199705165906,12.02164324383425 L-18.486994912373824,12.063921046015976 L-18.55215477095459,12.107013036499882 L-18.61259392929649,12.150862769938783 " />
			<path d="M-18.612593929298153,12.150862769938552 L-19.733881365444905,13.004781434476277 " />
			<path d="M-19.733881365444905,20.547253767132787 L-21.10678389648442,21.59279040479854 " />
			<path d="M-21.10679440962125,21.59279841109894 L-21.10679440962125,6.507853745785926 " />
			<path d="M-21.106794409621532,6.50785374578588 L-21.11605906677807,6.514909263765909 " />
			<path d="M-21.11605906677352,6.514909263766573 L-21.155407316881597,6.543069922880716 L-21.198648468508352,6.570588991195544 L-21.245688629014044,6.597406714567832 L-21.296425656696186,6.623464861735348 L-21.350749382577245,6.648706850758608 L-21.408541849622495,6.673077871881331 L-21.46967756886865,6.696525006542827 L-21.534023791907153,6.718997342283895 L-21.67178220311484,6.760824656378783 L-21.820621233552785,6.798196720687554 L-21.979248845172194,6.830789116750167 L-22.146288027459097,6.858318917328446 " />
			<path d="M-25.304088513299533,22.40398948308433 L-22.16747860030227,21.94635530607116 " />
			<path d="M-27.86584450691271,15.235279629143404 L-25.304088513299533,14.861517150427822 " />
			<path d="M-22.167454581401195,6.861407136379103 L-22.14628802746111,6.858318917326923 " />
			<path d="M-22.167454581401074,6.861407136379199 L-22.167454581401074,21.946351801692213 " />
			<path d="M-27.865844506911984,15.235279629143951 L-28.12666967868049,15.277145968118187 L-28.377727790290358,15.325190748011423 L-28.499181074387035,15.351452642136206 L-28.617703848257847,15.379162319625461 L-28.733140861262388,15.408283484119975 L-28.845340904737455,15.438777990381581 L-28.9541570100623,15.470605894258862 L-29.059446641169906,15.503725505009196 L-29.16107188125219,15.538093439908648 L-29.258899613414492,15.573664681078137 L-29.35280169504276,15.610392634451463 L-29.442655125655037,15.648229190807957 L-29.52834220801737,15.687124788789806 L-29.60975070231308,15.727028479821485 L-29.68677397316348,15.767887994846296 L-29.759311129307463,15.809649812792573 L-29.827267155756967,15.852259230679877 L-29.89055303825522,15.895660435273346 L-29.94908587987478,15.939796576192348 L-30.00278900960255,15.984609840377683 L-30.051592082769663,16.03004152781975 L-30.09543117319454,16.076032128448553 L-30.134248856918553,16.122521400084732 L-30.167994287424523,16.16944844734964 L-30.19662326223958,16.216751801430977 L-30.220098280835096,16.264369500599575 L-30.2383885937479,16.312239171371843 L-30.251470242858375,16.360298110211577 L-30.259326092772742,16.40848336566405 L-30.261945853268376,16.456731820814905 " />
			<path d="M-30.261945853268376,16.456731820814916 L-30.260741128053194,16.489453458845464 L-30.257127678089066,16.522155386584807 L-30.251107679983136,16.554817905614474 L-30.242684759957164,16.58742134125433 L-30.231863991663214,16.61994605441387 L-30.2186518931275,16.652372453422064 L-30.20305642282414,16.68468100582865 L-30.185086974881298,16.716852250169755 L-30.16475437342249,16.748866807690742 L-30.142070866046552,16.780705394019268 L-30.08970719619721,16.8437780571542 L-30.02812211400046,16.905918292004543 L-29.957463983313524,16.966976397301703 L-29.877903025762148,17.02680527872196 L-29.789630910661796,17.08526080324958 L-29.692860293269465,17.14220214640588 L-29.587824302478555,17.19749213150772 L-29.474775979190955,17.25099756013816 L-29.353987666719323,17.30258953303311 L-29.225750354688213,17.35214376061094 L-29.09037297801457,17.39954086239698 " />
			<path d="M-29.090372978014567,17.39954086239698 L-28.955538963568294,17.442438344422605 L-28.81485615559947,17.483195490586677 L-28.668630028863287,17.521723801950145 L-28.517178094723896,17.557939619204156 L-28.360829211718972,17.591764304325565 L-28.199922871485427,17.62312441132934 L-28.034808461596644,17.65195184574717 L-27.865844506911994,17.67818401248588 " />
			<path d="M-27.86584450691271,17.67818401248643 L-27.094074247223062,17.79078598003515 " />
			<path d="M-25.304088513299533,25.59441882385852 L-22.146288027461107,26.05514472430291 " />
			<path d="M-22.14628802745911,26.05514472430139 L-21.9792488451722,26.082674524879668 L-21.82062123355279,26.115266920942283 L-21.671782203114844,26.152638985251052 L-21.534023791907167,26.194466299345933 " />
			<path d="M-21.534023791907153,26.194466299345937 L-21.469677568868654,26.216938635087004 L-21.40854184962249,26.240385769748503 L-21.35074938257724,26.264756790871225 L-21.296425656696183,26.289998779894482 L-21.245688629014037,26.316056927062 L-21.198648468508345,26.342874650434286 L-21.155407316881586,26.370393718749117 L-21.116059066773516,26.398554377863253 " />
			<path d="M-19.733881365444905,27.451154539810062 L-21.11605906677807,26.398554377863924 " />
			<path d="M-10.162593343123055,27.451154539810624 L-8.789690812082808,26.405617902144314 " />
			<path d="M-8.789680298945978,25.698503114657367 L-8.789680298945978,26.405609895843913 " />
			<path d="M-4.592386195266026,25.59441882385828 L-7.7289961082649565,26.052053000871695 " />
			<path d="M-2.0306302016528512,17.678184012486188 L-2.9693920533383125,17.81515020188298 " />
			<path d="M-2.0306302016535795,17.67818401248564 L-1.7698050298852344,17.636317673511385 L-1.5187469182755216,17.588272893618132 L-1.3972936341789235,17.562010999493342 L-1.2787708603081884,17.534301322004083 L-1.1633338473037242,17.505180157509567 L-1.0511338038287321,17.47468565124796 L-0.9423176985039645,17.44285774737068 L-0.837028067396429,17.409738136620348 L-0.7354028273142137,17.375370201720898 L-0.6375750951519841,17.339798960551413 L-0.5436730135237862,17.303071007178094 L-0.45381958291157387,17.26523445082161 L-0.3681325005493039,17.226338852839767 L-0.2867240062536549,17.1864351618081 L-0.20970073540331047,17.145575646783296 L-0.13716357925938016,17.10381382883703 L-0.06920755280992852,17.06120441094974 L-0.0059216703117215275,17.017803206356284 L0.05261117130779036,16.973667065437294 L0.10631430103552209,16.928853801251975 L0.15511737420259664,16.88342211380992 L0.19895646462743954,16.837431513181137 L0.2377741483514213,16.790942241544975 L0.27151957885736655,16.744015194280085 L0.3001485536724009,16.696711840198766 L0.32362357226789973,16.649094141030186 L0.3419138851806869,16.601224470257936 L0.3549955342911515,16.55316553141822 L0.36285138420551544,16.504980275965764 L0.3654711447011456,16.456731820814927 " />
			<path d="M0.3654711447011456,16.45673182081492 L0.36285138420551544,16.408483365664075 L0.3549955342911515,16.36029811021162 L0.3419138851806869,16.312239171371907 L0.32362357226789973,16.264369500599653 L0.3001485536724009,16.216751801431073 L0.27151957885736655,16.169448447349755 L0.23777414835142174,16.122521400084864 L0.19895646462744,16.076032128448702 L0.15511737420259708,16.030041527819918 L0.10631430103552253,15.984609840377866 L0.052611171307790805,15.939796576192546 L-0.005921670311721083,15.895660435273555 L-0.06920755280992807,15.852259230680101 L-0.13716357925937972,15.80964981279281 L-0.20970073540331002,15.767887994846543 L-0.28672400625365446,15.727028479821742 L-0.36813250054930347,15.687124788790072 L-0.4538195829115734,15.648229190808232 L-0.5436730135237857,15.610392634451744 L-0.6375750951519836,15.573664681078426 L-0.7354028273142132,15.538093439908943 L-0.8370280673964277,15.503725505009491 L-0.9423176985039636,15.470605894259158 L-1.0511338038287312,15.43877799038188 L-1.163333847303723,15.408283484120272 L-1.278770860308187,15.379162319625756 L-1.3972936341789222,15.351452642136497 L-1.5187469182755189,15.325190748011709 L-1.7698050298852304,15.277145968118456 L-2.030630201653546,15.235279629144204 " />
			<path d="M-2.030630201652855,15.235279629143648 L-4.5923861952660285,14.861517150428064 " />
			<path d="M-4.5923861952666,20.817644510639596 L-4.717151687877866,20.690420116230076 L-4.838771920917113,20.555638192772612 L-4.956530707705336,20.413406655548904 L-5.013731295841273,20.33955103662445 L-5.069687242238735,20.263907172593292 L-5.124303493229912,20.18651006341527 L-5.17748459344689,20.107399838293695 L-5.229135023825526,20.026621830697863 L-5.27915955747756,19.944226627968117 L-5.327463631669069,19.860270093595563 L-5.37395373385367,19.774813360432415 L-5.418537799425768,19.687922793288184 L-5.461125618588477,19.599669919602675 L-5.501629249478081,19.510131327156216 L-5.539963434457818,19.419388528079512 L-5.576046016294261,19.327527788756363 L-5.609798350764959,19.234639925568505 L-5.6411457121214905,19.14082006680834 L-5.6700176877523765,19.046167381476625 L-5.696348558359229,18.95078477608228 L-5.720077659980271,18.854778560963197 L-5.7411497242699205,18.75825808804381 L-5.7595151935727,18.661335362329076 L-5.775130507514116,18.564124629798336 L-5.787958358068853,18.466741944698768 L-5.797967910355309,18.369304719539944 L-5.805134986741061,18.271931261351675 L-5.809442212221532,18.174740297981106 L-5.8108791194477245,18.077850498367415 L-5.809442212221532,17.981379990839223 L-5.80513498674106,17.885445883528302 L-5.797967910355309,17.790163790982792 L-5.787958358068853,17.695647370992575 L-5.775130507514116,17.602007875511287 L-5.7595151935727005,17.509353719375188 L-5.74114972426992,17.417790070283285 L-5.720077659980271,17.327418463220123 L-5.696348558359229,17.23833644217861 L-5.6700176877523765,17.150637231681593 L-5.641145712121491,17.064409440214966 L-5.609798350764958,16.979736797279426 L-5.576046016294261,16.89669792535043 L-5.539963434457818,16.815366147614004 L-5.501629249478081,16.73580933192783 L-5.461125618588477,16.6580897710488 L-5.418537799425766,16.582264098777504 L-5.3739537338536705,16.508383241301956 L-5.327463631669069,16.436492402682696 L-5.27915955747756,16.3666310831135 L-5.229135023825528,16.29883312831915 L-5.177484593446889,16.233126808216735 L-5.1243034932299105,16.16953492277113 L-5.069687242238734,16.108074932818763 L-5.013731295841272,16.04875911351672 L-4.956530707705336,15.991594727995441 L-4.898179811133285,15.936584218750557 L-4.838771920917113,15.883725414301413 L-4.7783990566147025,15.833011748666886 L-4.717151687877865,15.784432491260905 L-4.6551185022068315,15.737972984886822 L-4.592386195266621,15.693614889608272 " />
			<path d="M-4.5923861952660285,22.403989483084572 L-7.75018668110612,21.943263582639936 " />
			<path d="M-7.750186681106252,21.94326358264004 L-7.917225863392689,21.915733782061782 L-8.075853475011657,21.88314138599922 L-8.224692505449202,21.845769321690526 L-8.362450916656542,21.803942007595737 L-8.426797139694889,21.781469671854722 L-8.487932858940912,21.758022537193288 L-8.54572532598604,21.73365151607063 L-8.600049051867,21.70840952704744 L-8.65078607954906,21.682351379879997 L-8.697826240054686,21.655533656507785 L-8.741067391681401,21.628014588193032 L-8.780415641789451,21.599853929078975 " />
			<path d="M-10.162593343123055,20.547253767132226 L-8.780415641789155,21.59985392907892 " />
			<path d="M-11.283880779269804,12.150862769937996 L-10.162593343123055,13.00478143447572 " />
			<path d="M-9.99848988597778,1.607489415897419 L-10.222299941771254,1.5361164588070415 L-10.455362981034842,1.4681136387365283 " />
			<path d="M-19.441111727532324,1.4681136387365115 L-19.698675798411973,1.5436266133747523 L-19.944833084055393,1.6232547249526796 L-20.178992509907104,1.7068067699049343 L-20.291396154762598,1.7499919268830788 L-20.400591810754516,1.7940821224905399 L-20.50651391770367,1.8390508853343115 L-20.609098880842964,1.8848712165368005 L-20.708285108999156,1.9315156059457343 L-20.80401305157171,1.9789560486510285 L-20.896225234286476,2.0271640617987075 L-20.98486629370279,2.076110701691777 L-21.069883010453214,2.125766581167785 L-21.15122434119602,2.176101887242627 L-21.228841449261196,2.227086399010027 L-21.30268773397158,2.2786895057859198 L-21.37271885862152,2.330880225486848 L-21.43889277709628,2.383627223231362 L-21.50116975911618,2.4368988301532237 L-21.55951241409033,2.49066306241513 L-21.61388571356563,2.5448876404115532 L-21.66425701225758,2.5995400081491495 L-21.710596067650226,2.6545873527931114 L-21.752875058153535,2.7099966243677254 L-21.791068599807232,2.765734555599308 L-21.825153761521147,2.8217676818896047 L-21.85511007884283,2.87806236140766 L-21.880919566244255,2.9345847952881003 L-21.902566727920174,2.9913010479236926 L-21.92003856709168,3.048177067339989 " />
			<path d="M-7.976436141476078,3.0481770673380177 L-7.991726651344588,2.9977133614356815 L-8.010304193473099,2.9473723629673687 L-8.032159989756765,2.897177858640675 L-8.05728371307751,2.8471535659430054 L-8.085663492183699,2.797323121934793 L-8.117285917299446,2.747710072080709 L-8.152136046460898,2.6983378591241545 L-8.190197412576474,2.649229812010296 L-8.231452031207763,2.600409134862866 L-8.275880409067383,2.5518988960199405 L-8.323461553229784,2.5037220171338874 L-8.374172981050648,2.4559012623406145 L-8.4279907307902,2.40845922750325 L-8.484889372935411,2.361418329535338 L-8.54484202221574,2.314800795808584 L-8.607820350306731,2.2686286536501594 L-8.673794599215483,2.2229237199345406 L-8.742733595341647,2.1777075907747765 L-8.88937414584882,2.088826965650518 L-9.047464877101998,2.00215474695195 L-9.216707025556794,1.9178547298557607 L-9.396780753460984,1.836086226496822 L-9.58734575329132,1.7570037648964143 L-9.788041890874638,1.6807567969315653 L-9.998489885977758,1.607489415897426 " />
			<path d="M-10.16259334312385,13.004781434475838 L-10.20823331682039,12.97241640635364 L-10.259014261131279,12.940913746321206 L-10.314790048016354,12.91036410692612 L-10.375400176198283,12.880855398288862 L-10.440670233023557,12.852472535131271 L-10.510412396355056,12.82529719242461 L-10.58442597505199,12.799407570360398 L-10.662497986481856,12.774878169320305 L-10.744403769402597,12.75177957549269 L-10.829907630451306,12.730178257752689 L-10.918763522379141,12.710136376390329 L-11.010715752080735,12.69171160423711 L-11.105499716380685,12.674956960705758 L-11.202842663459778,12.659920659220745 L-11.30246447772991,12.646645968478566 L-11.404078485899058,12.635171087937074 " />
			<path d="M-11.404078485899248,12.635171087937252 L-11.836131712769186,12.59358977096232 L-12.272555525565242,12.557433782115213 L-12.712737018430806,12.526753898224937 L-13.156058008290112,12.501593205575887 L-13.601895903013503,12.481987039398243 L-14.049624575774807,12.467962934243793 L-14.498615244372761,12.459540585316905 L-14.948237354281522,12.45673182081492 L-15.397859464190274,12.459540585316851 L-15.846850132788237,12.467962934243689 L-16.294578805549566,12.481987039398087 L-16.740416700272966,12.501593205575679 L-17.1837376901323,12.526753898224676 L-17.623919182997906,12.557433782114902 L-18.060342995793988,12.593589770961957 L-18.49239622266387,12.635171087936827 " />
			<path d="M-18.492396222663874,12.635171087936941 L-18.59401023083341,12.646645968478408 L-18.693632045103907,12.659920659220575 L-18.79097499218336,12.674956960705586 L-18.885758956483663,12.691711604236945 L-18.977711186185598,12.710136376390185 L-19.06656707811376,12.730178257752577 L-19.15207093916278,12.751779575492622 L-19.233976722083813,12.774878169320287 L-19.31204873351395,12.799407570360444 L-19.386062312211134,12.825297192424726 L-19.45580447554286,12.852472535131465 L-19.521074532368328,12.880855398289142 L-19.58168466055043,12.910364106926492 L-19.637460447435643,12.940913746321677 L-19.688241391746637,12.972416406354213 L-19.733881365443246,13.004781434476515 " />
			<path d="M-19.733881365443253,20.54725376713302 L-19.688241391746637,20.514888739010715 L-19.637460447435643,20.483386078978178 L-19.581684660550426,20.452836439582995 L-19.521074532368328,20.423327730945644 L-19.45580447554286,20.394944867787967 L-19.386062312211134,20.36776952508123 L-19.31204873351395,20.341879903016945 L-19.233976722083813,20.31735050197679 L-19.15207093916278,20.294251908149125 L-19.06656707811376,20.272650590409082 L-18.977711186185598,20.25260870904669 L-18.885758956483663,20.234183936893448 L-18.79097499218336,20.21742929336209 L-18.693632045103907,20.202392991877076 L-18.594010230833412,20.18911830113491 L-18.492396222663892,20.177643420593444 " />
			<path d="M-3.483555155650617,22.817817864009967 L-3.4191590984019626,22.889631935113936 L-3.358811204725754,22.961835606300028 L-3.302532664359749,23.034403524954193 L-3.250343238184387,23.10731021056547 L-3.202261251284231,23.180530063672876 L-3.1583035865135276,23.25403737485408 L-3.118485678568211,23.327806333752612 L-3.082821508566367,23.4018110381406 L-3.051323599139085,23.476025503013705 L-3.024003010033443,23.55042366971515 L-3.0008693342291366,23.624979415085598 L-2.9819306945701243,23.699666560635677 L-2.9671937409124904,23.774458881737957 L-2.9566636477895045,23.84933011683508 L-2.9503441125946956,23.92425397666093 L-2.9482373542836164,23.99920415347139 " />
			<path d="M-2.9482373542836164,23.999204153471425 L-2.9503441125946956,24.07415433028192 L-2.9566636477895045,24.149078190107765 L-2.9671937409124904,24.223949425204893 L-2.9819306945701243,24.298741746307172 L-3.0008693342291366,24.37342889185725 L-3.024003010033443,24.447984637227698 L-3.0513235991390832,24.522382803929144 L-3.082821508566365,24.59659726880225 L-3.118485678568211,24.670601973190237 L-3.1583035865135276,24.74437093208877 L-3.2022612512842272,24.817878243269973 L-3.250343238184387,24.891098096377384 L-3.302532664359747,24.964004781988656 L-3.358811204725754,25.036572700642818 L-3.4191590984019626,25.108776371828917 L-3.4835551556506132,25.180590442932882 " />
			<path d="M-3.483555155650077,25.180590442932935 L-3.517979797274557,25.214461778989325 L-3.5578038695010967,25.2476690504127 L-3.602912773956139,25.280116699439066 L-3.653176704550188,25.311711354205716 L-3.708451021009846,25.34236209743958 L-3.7685766650969263,25.371980728082193 L-3.83338061831693,25.400482015098426 L-3.902676399799773,25.427783942738674 L-3.9762646029200566,25.45380794654863 L-4.053933469112694,25.478479139447607 L-4.135459497232675,25.501726527224776 L-4.2206080867054485,25.5234832128332 L-4.309134212617223,25.54368658889384 L-4.4007831308024805,25.562278517855535 L-4.495291110899781,25.579205499292495 L-4.592386195266373,25.59441882385801 " />
			<path d="M-11.943033534240788,24.647385369559096 L-7.728969227886221,26.052073471677286 " />
			<path d="M-11.54252880953389,24.513883794656792 L-11.943033534240788,24.64738536955909 " />
			<path d="M-11.542528809533824,24.513883794656852 L-11.439617273513495,24.497945659797203 L-11.345097393540536,24.477014572281792 L-11.261132960973441,24.451569695925706 L-11.223720394458748,24.43733293010298 L-11.189646127148634,24.422193526216596 L-11.159105449702638,24.40623825309251 L-11.132273400632574,24.389558555567483 L-11.109303763100142,24.37225003038907 L-11.090328183535838,24.354411878319745 L-11.075455417130623,24.33614633558518 L-11.064770704524713,24.31755808792536 L-11.05833528326587,24.298753670606672 L-11.056186036837179,24.27984085783383 " />
			<path d="M-11.056186036837179,24.27984085783383 L-11.058957657041638,24.25836801082461 L-11.06725203264553,24.23705386935304 L-11.081007860024835,24.216055965966166 L-11.100123470035305,24.195529495899397 L-11.124457579447801,24.175626170030505 L-11.153830335170849,24.156493093586455 L-11.188024643542514,24.138271678890575 L-11.226787774866906,24.121096600185865 " />
			<path d="M-11.908206149676467,23.273400601517782 L-11.2267877748665,24.121096600185798 " />
			<path d="M-11.90820614967697,23.27340060151784 L-11.900627923112328,23.25301479418612 L-11.898096149923688,23.23249041868478 " />
			<path d="M-11.898096149923688,23.23249041868478 L-11.899198481200807,23.218940995648953 L-11.902502234674179,23.205431401820594 L-11.915668719371439,23.178690316480594 L-11.93744090362229,23.152581358633647 L-11.967562973856031,23.12741129702915 L-12.005681009021172,23.103475868799375 L-12.051347139001818,23.081056304678512 L-12.104024806894177,23.060416024665454 L-12.163095073313738,23.0417975429549 L-12.227863888660291,23.025419618502422 L-12.297570247894889,23.011474684703163 L-12.371395132013703,23.00012658838421 L-12.448471131160405,22.991508664676594 L-12.527892636309746,22.985722170386264 L-12.608726479774525,22.982835094271223 L-12.690022899514707,22.98288135820359 L-12.770826698422853,22.985860418602538 " />
			<path d="M-15.31391469442673,22.758720960332386 L-12.770826698422683,22.985860418602375 " />
			<path d="M-15.313914694426932,22.75872096033252 L-15.385892998099575,22.741278226650742 L-15.463562569983553,22.72680006521286 L-15.545829944454981,22.715490305799904 L-15.631536926048502,22.70750817206706 L-15.719476895030978,22.702966039924622 L-15.80841179471282,22.701927855461598 L-15.89708956134233,22.704408234685182 L-15.98426175119746,22.710372257750322 L-16.068701116713257,22.719735960576322 L-16.149218884200682,22.732367516929248 L-16.224681489913674,22.74808909432833 L-16.294026538846897,22.76667935764809 L-16.356277761589354,22.787876585169375 L-16.41055875866487,22.811382353210245 L-16.456105338860688,22.836865737462862 L-16.492276277839892,22.863967971888158 " />
			<path d="M-16.89278100254662,22.99746954679048 L-16.49227627783972,22.863967971888183 " />
			<path d="M-21.10684530890119,21.592781444672294 L-16.89278100254662,22.997469546790484 " />
			<path d="M-18.492396222663977,20.177643420593345 L-18.060342995793995,20.136062103618464 L-17.623919182997916,20.099906114771407 L-17.183737690132308,20.06922623088118 L-16.740416700272974,20.044065538232182 L-16.294578805549563,20.02445937205459 L-15.846850132788235,20.010435266900195 L-15.397859464190283,20.002012917973357 L-14.948237354281519,19.999204153471425 L-14.498615244372758,20.00201291797341 L-14.049624575774814,20.0104352669003 L-13.601895903013501,20.02445937205475 L-13.15605800829011,20.044065538232392 L-12.712737018430804,20.069226230881444 L-12.272555525565227,20.09990611477172 L-11.836131712769184,20.136062103618826 L-11.404078485899348,20.177643420593746 " />
			<path d="M-11.404078485899076,20.17764342059358 L-11.30246447772991,20.189118301135075 L-11.202842663459778,20.202392991877254 L-11.105499716380685,20.21742929336227 L-11.010715752080735,20.23418393689362 L-10.918763522379141,20.252608709046836 L-10.829907630451306,20.272650590409196 L-10.744403769402597,20.2942519081492 L-10.662497986481858,20.31735050197681 L-10.584425975051992,20.341879903016906 L-10.510412396355058,20.36776952508112 L-10.440670233023557,20.39494486778778 L-10.375400176198285,20.42332773094537 L-10.314790048016354,20.45283643958263 L-10.259014261131279,20.483386078977716 L-10.20823331682039,20.514888739010146 L-10.162593343123858,20.547253767132343 " />
			<path d="M-4.592386195266377,22.40398948308484 L-4.49529111089978,22.419202807650354 L-4.4007831308024805,22.436129789087314 L-4.309134212617223,22.454721718049008 L-4.2206080867054485,22.47492509410965 L-4.135459497232675,22.496681779718074 L-4.053933469112694,22.519929167495242 L-3.976264602920056,22.54460036039422 L-3.9026763997997733,22.570624364204175 L-3.833380618316931,22.59792629184442 L-3.7685766650969272,22.626427578860657 L-3.7084510210098465,22.65604620950327 L-3.653176704550189,22.686696952737133 L-3.602912773956139,22.718291607503783 L-3.557803869501097,22.75073925653015 L-3.517979797274558,22.783946527953525 L-3.483555155650082,22.81781786400991 " />
			<path d="M-22.167454581401074,6.861407136379195 L-21.10679440962125,7.214960526972471 " />
			<path d="M-10.162593343124705,27.45115453981038 L-10.20823331682124,27.48351956793256 L-10.259014261132117,27.515022227964977 L-10.314790048017176,27.545571867360046 L-10.375400176199085,27.575080575997287 L-10.440670233024331,27.60346343915486 L-10.5104123963558,27.630638781861506 L-10.5844259750527,27.65652840392571 L-10.662497986482528,27.681057804965793 L-10.744403769403226,27.704156398793394 L-10.829907630451888,27.725757716533387 L-10.918763522379676,27.74579959789574 L-11.01071575208122,27.764224370048954 L-11.105499716381114,27.7809790135803 L-11.202842663460153,27.796015315065315 L-11.30246447773023,27.809290005807494 L-11.404078485899335,27.82076488634899 " />
			<path d="M-11.404078485899248,27.820764886349092 L-11.836131712769184,27.862346203324023 L-12.272555525565236,27.89850219217113 L-12.712737018430808,27.92918207606141 L-13.15605800829011,27.954342768710458 L-13.6018959030135,27.9739489348881 L-14.049624575774807,27.98797304004255 L-14.498615244372758,27.99639538896944 L-14.948237354281517,27.999204153471425 L-15.397859464190278,27.996395388969493 L-15.846850132788237,27.987973040042654 L-16.29457880554956,27.97394893488826 L-16.74041670027297,27.954342768710667 L-17.1837376901323,27.929182076061668 L-17.623919182997902,27.898502192171442 L-18.06034299579399,27.862346203324385 L-18.492396222663945,27.820764886349508 " />
			<path d="M-18.492396222664137,27.820764886349686 L-18.607216813178216,27.807648108622907 L-18.719438958379364,27.79223380482611 L-18.828649338026402,27.774578746675367 L-18.934445724373862,27.754747958706417 L-19.03643846359859,27.732814478785826 L-19.134251910915864,27.708859089108536 L-19.227525814099497,27.682970018672677 L-19.31591664031031,27.65524261832738 " />
			<path d="M-19.315916640310316,27.65524261832738 L-19.380262863348847,27.6327702825863 L-19.441398582595035,27.609323147924794 L-19.49919104964031,27.584952126802058 L-19.55351477552139,27.559710137778783 L-19.604251803203553,27.533651990611254 L-19.651291963709255,27.50683426723895 L-19.69453311533602,27.47931519892411 L-19.733881365444102,27.451154539809952 " />
			<path d="M-25.304088513299185,25.594418823858256 L-25.47112769558619,25.566889023279973 L-25.629755307205688,25.53429662721735 L-25.778594337643717,25.496924562908568 L-25.91635274885147,25.45509724881366 " />
			<path d="M-25.916352748851477,25.45509724881366 L-25.999534949887366,25.42563364007672 L-26.077202161194943,25.39454233901551 L-26.14906833022681,25.361937856576418 L-26.214868769988584,25.32794027683484 L-26.274361133895432,25.29267481471902 L-26.327326308347672,25.256271354836677 L-26.37356921973805,25.21886397310296 L-26.41291955291839,25.180590442931603 " />
			<path d="M-26.412919552917856,25.180590442931543 L-26.477315610166364,25.108776371827652 L-26.537663503842435,25.036572700641635 L-26.593942044208312,24.964004781987548 L-26.64613147038355,24.891098096376357 L-26.694213457283595,24.81787824326903 L-26.738171122054197,24.744370932087907 L-26.777989029999418,24.67060197318946 L-26.81365320000118,24.596597268801553 L-26.84515110942839,24.522382803928533 L-26.872471698533968,24.447984637227172 L-26.89560537433822,24.373428891856815 L-26.914544013997187,24.29874174630682 L-26.929280967654787,24.22394942520463 L-26.93981106077775,24.14907819010759 L-26.94613059597254,24.074154330281832 L-26.948237354283616,23.999204153471442 " />
			<path d="M-26.948237354283616,23.999204153471425 L-26.94613059597254,23.924253976661017 L-26.93981106077775,23.849330116835258 L-26.929280967654787,23.77445888173822 L-26.914544013997187,23.69966656063603 L-26.89560537433822,23.624979415086035 L-26.872471698533968,23.550423669715677 L-26.84515110942839,23.476025503014316 L-26.81365320000118,23.401811038141293 L-26.777989029999418,23.327806333753387 L-26.738171122054194,23.254037374854935 L-26.694213457283595,23.180530063673817 L-26.646131470383548,23.10731021056649 L-26.59394204420831,23.034403524955295 L-26.53766350384243,22.96183560630121 L-26.477315610166364,22.889631935115194 L-26.412919552917874,22.81781786401132 " />
			<path d="M-26.412919552918392,22.81781786401125 L-26.378494911294,22.78394652795472 L-26.338670839067497,22.7507392565312 L-26.293561934612455,22.7182916075047 L-26.243298004018367,22.686696952737915 L-26.188023687558633,22.656046209503916 L-26.127898043471433,22.626427578861183 L-26.06309409025128,22.597926291844825 L-25.99379830876825,22.570624364204466 L-25.920210105647747,22.54460036039441 L-25.84254123945486,22.519929167495334 L-25.761015211334602,22.496681779718084 L-25.675866621861527,22.474925094109587 L-25.587340495949427,22.45472171804888 L-25.49569157776382,22.436129789087136 L-25.401183597666158,22.419202807650134 L-25.3040885132992,22.403989483084594 " />
			<path d="M-22.16750548068101,21.946334835265567 L-17.953441174326443,23.351022937383757 " />
			<path d="M-18.35394589903334,23.484524512286054 L-17.953441174326443,23.351022937383757 " />
			<path d="M-18.353945899033405,23.484524512285997 L-18.456857435053735,23.500462647145646 L-18.55137731502669,23.521393734661057 L-18.635341747593788,23.546838611017144 L-18.67275431410848,23.56107537683987 L-18.706828581418595,23.576214780726254 L-18.73736925886459,23.59217005385034 L-18.764201307934655,23.608849751375367 L-18.787170945467086,23.62615827655378 L-18.80614652503139,23.643996428623105 L-18.821019291436606,23.662261971357665 L-18.831704004042514,23.68085021901749 L-18.83813942530136,23.699654636336177 L-18.84028867173005,23.718567449109017 " />
			<path d="M-18.84028867173005,23.71856744910902 L-18.83751705152559,23.740040296118238 L-18.8292226759217,23.76135443758981 L-18.815466848542393,23.782352340976683 L-18.796351238531926,23.802878811043453 L-18.772017129119426,23.822782136912345 L-18.74264437339638,23.841915213356394 L-18.708450065024714,23.860136628052274 L-18.669686933700323,23.877311706756984 " />
			<path d="M-17.988268558890766,24.725007705425067 L-18.669686933700735,23.87731170675705 " />
			<path d="M-17.98826855889024,24.72500770542501 L-17.995846785454884,24.745393512756735 L-17.998378558643523,24.765917888258073 " />
			<path d="M-17.998378558643523,24.765917888258077 L-17.99476710364767,24.790422173340467 L-17.983967518945946,24.81469046876211 L-17.96608381044268,24.838489057571692 L-17.94128820802699,24.861588746349348 L-17.90981950690479,24.883767072464575 L-17.871980767870433,24.90481044651298 L-17.828136398665574,24.92451620929899 L-17.778708644533435,24.942694583554715 " />
			<path d="M-17.778708644533435,24.942694583554715 L-17.712161348213062,24.96238827734709 L-17.63908471839638,24.979315976537336 L-17.5605075592943,24.99323936569886 L-17.47753611393376,25.003962425373253 L-17.39133848999277,25.011334191716465 L-17.303128214678374,25.015250881832728 L-17.21414715016891,25.015657354874755 L-17.125648010144367,25.01254788834032 " />
			<path d="M-14.582560014140501,25.239687346610463 L-17.12564801014455,25.012547888340475 " />
			<path d="M-14.582560014140297,25.239687346610328 L-14.510581710467655,25.257130080292107 L-14.432912138583676,25.27160824172999 L-14.350644764112248,25.282918001142946 L-14.264937782518727,25.290900134875788 L-14.176997813536252,25.295442267018228 L-14.08806291385441,25.29648045148125 L-13.9993851472249,25.294000072257667 L-13.91221295736977,25.288036049192527 L-13.827773591853973,25.278672346366527 L-13.747255824366547,25.2660407900136 L-13.671793218653555,25.25031921261452 L-13.602448169720333,25.23172894929476 L-13.540196946977876,25.210531721773474 L-13.485915949902358,25.187025953732604 L-13.44036936970654,25.161542569479987 L-13.404198430727337,25.134440335054688 " />
			<path d="M-13.00369370602061,25.000938760152366 L-13.40419843072751,25.134440335054663 " />
			<path d="M-13.003693706020611,25.00093876015237 L-8.789629399666044,26.40562686227056 " />
			<path d="M-25.304088513299185,14.861517150428087 L-25.401183597666158,14.876730474993627 L-25.49569157776382,14.89365745643063 L-25.587340495949427,14.912249385392373 L-25.675866621861523,14.93245276145308 L-25.761015211334602,14.95420944706158 L-25.84254123945486,14.977456834838831 L-25.920210105647747,15.002128027737903 L-25.99379830876825,15.028152031547963 L-26.063094090251276,15.05545395918832 L-26.127898043471433,15.083955246204676 L-26.18802368755863,15.113573876847413 L-26.243298004018367,15.144224620081408 L-26.293561934612455,15.175819274848193 L-26.338670839067497,15.208266923874696 L-26.378494911293995,15.241474195298213 L-26.41291955291839,15.275345531354738 " />
			<path d="M-26.412919552917856,15.275345531354802 L-26.47731561016636,15.347159602458692 L-26.53766350384243,15.41936327364471 L-26.593942044208305,15.491931192298793 L-26.646131470383544,15.564837877909985 L-26.694213457283592,15.638057731017314 L-26.73817112205419,15.711565042198433 L-26.777989029999414,15.785334001096883 L-26.813653200001177,15.859338705484788 L-26.845151109428386,15.93355317035781 L-26.872471698533964,16.00795133705917 L-26.895605374338217,16.08250708242953 L-26.914544013997187,16.15719422797952 L-26.929280967654783,16.23198654908171 L-26.939811060777746,16.306857784178753 L-26.94613059597254,16.38178164400451 L-26.948237354283613,16.456731820814884 " />
			<path d="M-17.953441174326443,23.351022937383753 L-17.953441174326443,22.643916156197214 " />
			<path d="M-21.10679440962125,17.068668355021863 L-21.136818528105145,17.118548654132134 L-21.165113870433558,17.17048340295909 L-21.191639550602876,17.22439755719674 L-21.216357239723404,17.280213212351857 L-21.23923122140356,17.337849716313876 L-21.2602284433591,17.397223785895 L-21.279318565172762,17.45824962717215 L-21.296474002135366,17.520839059456875 L-21.31166996510496,17.584901642714044 L-21.32488449632647,17.650344808245254 L-21.336098501160038,17.717073992448096 L-21.345295775672284,17.784992773457994 L-21.35246303005054,17.854003010475196 L-21.35758990780628,17.92400498557557 L-21.36066900073994,17.994897547800303 L-21.3616958596456,18.066578259316277 " />
			<path d="M-21.3616958596456,18.066578259316294 L-21.36066900073994,18.138943543436056 L-21.35758990780628,18.21188883428323 L-21.35246303005054,18.285308727887426 L-21.345295775672284,18.359097134490135 L-21.32488449632647,18.50735261926675 L-21.296474002135366,18.655798697515863 L-21.2602284433591,18.803577676928587 L-21.216357239723408,18.94983571956219 L-21.165113870433558,19.09372777514819 L-21.10679440962126,19.234422463626938 " />
			<path d="M-13.003693706020611,22.96506157639249 L-13.003693706020611,25.000938760152366 " />
			<path d="M-2.948237354283613,16.45673182081492 L-2.949506271026758,16.398563108639053 L-2.9533127528979115,16.340406698338654 L-2.9596559948789753,16.282274889187516 L-2.9685346554622907,16.224179975256625 L-2.9799468569343457,16.16613424281415 L-2.9938901857728872,16.108149967727048 L-3.0103616931573445,16.0502394128649 L-3.029357895592467,15.99241482550649 L-3.0508747756450347,15.934688434749658 L-3.0749077827934848,15.87707244892503 L-3.101451834390293,15.81957905301412 L-3.1305013167368774,15.762220406072379 L-3.1620500862708134,15.705008638657716 L-3.196091470865122,15.647955850265062 L-3.232618271239321,15.591074106767488 L-3.271622762481975,15.534375437864462 " />
			<path d="M-3.2716227624819876,15.534375437864444 L-3.3197071082410066,15.469182423070276 L-3.371067087167562,15.404267590427542 L-3.425688231702395,15.339649225753481 L-3.4835551556505955,15.27534553135348 " />
			<path d="M-3.483555155650077,15.275345531353404 L-3.517979797274557,15.241474195297016 L-3.5578038695010967,15.208266923873639 L-3.602912773956139,15.175819274847274 L-3.653176704550188,15.144224620080625 L-3.7084510210098456,15.11357387684676 L-3.768576665096927,15.083955246204148 L-3.83338061831693,15.055453959187911 L-3.902676399799773,15.028152031547664 L-3.9762646029200566,15.00212802773771 L-4.053933469112694,14.977456834838732 L-4.135459497232674,14.954209447061565 L-4.220608086705448,14.93245276145314 L-4.309134212617222,14.912249385392498 L-4.40078313080248,14.893657456430805 L-4.49529111089978,14.876730474993842 L-4.592386195266361,14.861517150428332 " />
			<path d="M-11.943033534240788,24.647385369559093 L-11.943033534240788,23.14725433610209 " />
			<path d="M-4.592386195266599,15.693614889608254 L-4.510290658589754,15.638809651032357 L-4.428968475281587,15.587722229919898 L-4.348514253894255,15.540427496693153 L-4.2690226029799145,15.497000321774404 L-4.190483052851283,15.457497097872016 L-4.113077521362386,15.422072565511046 L-4.037406166438487,15.391005927306797 L-3.9640763337045852,15.364578230774363 " />
			<path d="M-3.964076333704585,15.364578230774363 L-3.8876485158974194,15.341433186566766 L-3.814916236131097,15.324190557782272 L-3.7463577415270395,15.31276954142175 L-3.6824696923626763,15.307084880601868 L-3.6237487489154363,15.3070513184393 L-3.5706915714627483,15.312583598050713 L-3.5237948202820415,15.32359646255278 L-3.483555155650745,15.34000465506217 " />
			<path d="M-3.4835551556507443,21.998911507035633 L-3.5218436567635854,21.940130120188233 L-3.566024164609332,21.879150662567945 L-3.615870097507353,21.815785611218445 L-3.6711548737770183,21.749847443183423 L-3.7967812147204825,21.610188668485286 L-3.9382524982420715,21.462449695547797 L-4.091857525224806,21.307937422657805 L-4.254356258581416,21.14781752009189 L-4.592386195266599,20.817644510639596 " />
			<path d="M-3.4835551556507443,21.998911507035633 L-3.371481039678799,22.176120539996422 L-3.271622762481602,22.32260053725525 " />
			<path d="M-3.271622762481593,15.53437543786441 L-3.3201718731080776,15.472555664171658 L-3.3456572142191954,15.44480045527945 L-3.3718586597198654,15.41928105515755 L-3.398747711696394,15.39603744046599 L-3.4263341134916594,15.37506003917531 L-3.4546069123837477,15.356374045851902 L-3.483555155650739,15.340004655062174 " />
			<path d="M-11.404078485899284,17.80239909929672 L-11.303980480848072,17.777381549778383 L-11.208028093543852,17.74827145714193 " />
			<path d="M-11.208028093543852,17.74827145714193 L-11.142914219609462,17.725079403283647 L-11.08044030597848,17.69974362885489 L-11.020715564866283,17.6722491825409 L-10.963831381786958,17.642605723306733 L-10.909861468266831,17.61084928969687 L-10.858862032275853,17.577044228241153 L-10.810871966376883,17.541285280967138 L-10.765913053592824,17.503699832018782 L-10.723959248313614,17.464419633083406 L-10.684855919373735,17.42347544718257 L-10.648474933949707,17.380914778788775 L-10.614696259849643,17.336788562699212 L-10.583404123880262,17.291147132987582 L-10.5544872943073,17.244039955403462 L-10.527839350110657,17.19551545360869 L-10.503358935541181,17.145620923703436 L-10.48094999848595,17.094402531494453 L-10.460522011148994,17.041905386958128 L-10.44199017155427,16.98817369035094 L-10.425275584377863,16.933250944419854 L-10.397013047597435,16.82000451960927 L-10.375226797281842,16.70251188005367 L-10.35951129938235,16.58113032231931 L-10.349564353972568,16.456243812268447 L-10.34518569702761,16.328238158051207 L-10.346283302804938,16.197453526816965 L-10.35287996875436,16.064299464554573 L-10.365113201830047,15.92917872439447 L-10.383223658331188,15.792619698460177 L-10.407554954191998,15.65518435332785 L-10.438553906860728,15.517474948209891 L-10.476768484294931,15.380150251591617 L-10.498779623208232,15.311857515453553 L-10.52284398712761,15.24394188138128 L-10.54905657171623,15.176508776386319 L-10.577517718994333,15.109670091994188 L-10.608332886037255,15.043544599773018 L-10.64161240001152,14.978258331791633 L-10.677471201541106,14.913944920721306 L-10.71602857839601,14.850745894295462 L-10.75740960761772,14.788808464257887 L-10.80181409163332,14.728196606105701 L-10.849305075514891,14.669183234392408 L-10.899851717256388,14.612120927288915 L-10.953404061483546,14.557324868425662 L-11.009892643215595,14.505073660846348 L-11.06922818205057,14.455610054587885 L-11.131301365835965,14.40914159411523 L-11.195982722886502,14.365841191839817 L-11.263122581810727,14.325847633950259 L-11.332551118008242,14.289266024784016 L-11.404078485899273,14.256168175968723 " />
			<path d="M-14.716727599668754,15.851588839324009 L-14.715458427739472,15.908765042362871 L-14.711657529114847,15.965852969596922 L-14.705338734271505,16.022794188195107 L-14.696521082492499,16.079530791046743 L-14.685228828034631,16.13600541754468 L-14.67149144995056,16.19216127190624 L-14.655343665565637,16.247942139031906 L-14.636825447609514,16.303292397901764 L-14.615982045002504,16.35815703250975 L-14.592864007296702,16.412481640335614 L-14.567527212771852,16.466212438354678 L-14.540032900185981,16.51929626658534 L-14.510447704180782,16.57168058917436 L-14.478843645330635,16.623313570206783 L-14.44527499454466,16.674178004145976 L-14.409786402861792,16.724269078364788 L-14.333277949178948,16.82203382534695 L-14.249782915182417,16.916414736565297 L-14.159756693022228,17.007241977611272 L-14.063597152446423,17.09440084561261 L-13.961682494533383,17.17777700939465 L-13.85437777886689,17.257248732203955 L-13.74203541517569,17.33268620476547 L-13.624982233448987,17.403958537289576 L-13.503503679952964,17.470936915933084 L-13.377913901396266,17.533452984319503 L-13.248527435520817,17.59132002363523 L-13.115658864931584,17.64433328973867 L-12.979625164700261,17.692268635499477 L-12.840710366157934,17.734891836573592 L-12.69892550909465,17.772006606214298 L-12.55483150279313,17.80323025066084 L-12.409143838787653,17.828172194733895 L-12.26257964186383,17.84648181617575 L-12.115852973144698,17.857847955983267 L-11.969670657279202,17.861998726379564 L-11.824728633733141,17.858701616424366 L-11.681708832182496,17.847763895263046 L-11.61112838616126,17.839380620835353 L-11.541276572009192,17.829033313014335 L-11.47223361863091,17.81670942953765 L-11.404078485899294,17.802399099296725 " />
			<path d="M-11.404078485899284,14.25616817596872 L-11.516025528825265,14.211120916611645 L-11.630367094485331,14.171684048156022 L-11.746715527854613,14.137943543610124 L-11.86466907129945,14.10994999553568 L-11.983813365576392,14.08771812453196 L-12.103722974152445,14.071226321884742 L-12.223962930846508,14.060416226380225 L-12.344090310792051,14.055192335283868 L-12.463655824720997,14.05542164948413 L-12.582262569556208,14.0609371885708 L-12.699699308071146,14.071564579251117 L-12.81575837384859,14.087133492525922 L-12.930235664059595,14.107477170273473 L-13.042931479045583,14.132432431898462 L-13.153649870487541,14.161839644142828 L-13.26219800341972,14.195542688262078 " />
			<path d="M-13.262198003419725,14.19554268826208 L-13.338880441640097,14.222375163707772 L-13.414269437072882,14.251298368135648 L-13.488295021580642,14.282257398469282 L-13.56088750177864,14.3151982594034 L-13.631977347264966,14.350067854873117 L-13.701495082861058,14.386813980293324 L-13.769394102366682,14.425398765586195 L-13.835627378017582,14.46578899466734 L-13.900124970165836,14.507941342786673 L-13.96281546056909,14.551813205754712 L-14.023625917115995,14.597362703698384 L-14.082481858551626,14.644548684816826 L-14.139307219202905,14.693330729137191 L-14.194024313704046,14.743669152270426 L-14.24655380172198,14.79552500916707 L-14.296814051963818,14.84885945594527 L-14.344711833692587,14.903622765932575 L-14.39014998176996,14.959759502557446 L-14.433033266183472,15.017214578707778 L-14.473267666948164,15.075932566786697 L-14.51077478300388,15.135881965959978 L-14.545464460223183,15.19701755862303 L-14.577219596212728,15.259240540404997 L-14.60593329936693,15.322450840143325 L-14.631509080888572,15.386547815795153 L-14.653860780762752,15.45143050937814 L-14.672912503521067,15.516997883084878 L-14.688598563796004,15.58314903657084 L-14.70086344166558,15.649783405415937 L-14.709661747788191,15.716800940759622 L-14.7149581983277,15.784102270109587 L-14.716727599668754,15.851588839324 " />
			<path d="M-3.2716227624815937,22.322600537255262 L-3.2148126554690286,22.400438181031316 L-3.163878011661281,22.466009793183105 L-3.1186806636399997,22.51972461373048 L-3.079082443986835,22.5619918826933 L-3.044945185283436,22.593220840091405 L-3.0161307201114527,22.613820725944652 L-2.9925252547873677,22.62413566695919 L-2.9826873558447637,22.625388876419493 L-2.9741394048190695,22.624042548320652 " />
			<path d="M-2.974139404819069,22.624042548320652 L-2.9625601516477436,22.615915806837766 L-2.9544855637697047,22.6005223339663 L-2.9497731515915535,22.577954180872315 L-2.9482372050905297,22.54814775031484 " />
			<path d="M-2.9482372050905297,22.548147750314836 L-2.9515610472805545,22.48937006682486 L-2.961178517783415,22.413327271507388 L-2.9961873640156322,22.207352171620766 " />
			<path d="M-2.9809722866371287,17.99912851280254 L-2.9671873102555675,17.77616333580227 L-2.9568486498507394,17.560504963766643 L-2.9504366501096277,17.353098335966525 L-2.9482368310570966,17.15354183192019 " />
			<path d="M-2.9482368310570966,17.153541831920176 L-2.9493193729231924,17.02054959308842 L-2.9526311596943713,16.891104143138474 L-2.958280504597355,16.76508098428211 L-2.9663805908824767,16.642441543765337 L-2.9770015755799135,16.523497218360774 L-2.9902117272143403,16.408572584831496 L-3.0060777705537354,16.29799431957748 L-3.0245836002810673,16.192151250808973 L-3.045732892826017,16.09125622027141 L-3.06957121798558,15.995438267975382 L-3.096144145556752,15.904826433931477 L-3.1254972453365286,15.819549758150286 L-3.157676087121905,15.739737280642395 L-3.1927262407098778,15.665518041418393 L-3.230693275897442,15.597021080488869 L-3.271622762481589,15.534375437864416 " />
			<path d="M-11.54252880953389,24.513883794656792 L-11.54252880953389,23.72830940571443 " />
			<path d="M-13.40419843072751,25.134440335054666 L-13.40419843072751,22.929289937209166 " />
			<path d="M-11.908206149677065,23.273400601517835 L-11.908206149677065,23.191580235851525 " />
			<path d="M-26.94823863900819,22.548145608932774 L-26.94825784637216,17.15314943714888 " />
			<path d="M-18.669686933700497,23.87731170675703 L-18.669686933700497,23.559823191461128 " />
			<path d="M-17.988268558890162,24.725007705425014 L-17.988268558890162,23.362632065571663 " />
			<path d="M-17.12564801014439,25.012547888340276 L-17.12564801014439,22.919847210924562 " />
			<path d="M-14.58256001414044,25.23968734661038 L-14.58256001414044,22.824042925653472 " />
			<path d="M-21.10679440962125,19.06160842978056 L-21.151022368507626,18.920882987227767 L-21.20206210762665,18.78255202780158 L-21.259638627553873,18.647360871420997 L-21.323441709034345,18.516037920911693 " />
			<path d="M-18.612593929292082,0.8371542709546766 L-18.612593929292082,12.150862769939437 " />
			<path d="M-11.283880779271609,0.8371542709534998 L-11.28388077927161,12.15086276993826 " />
			<path d="M-19.73388136543933,13.004781434477087 L-19.73388136543933,20.547253767133594 " />
			<path d="M-21.116059066777424,6.514909263766004 L-21.116059066777424,2.7436730974377515 " />
			<path d="M-22.146288027460823,3.087082750998884 L-22.146288027460823,6.8583189173271375 " />
			<path d="M-25.304088513297092,22.403989483086182 L-25.304088513297092,14.861517150429675 " />
			<path d="M-27.865844506910047,3.9215711301606646 L-27.865844506910047,15.235279629145426 " />
			<path d="M-2.030630201653647,3.9215711301594887 L-2.030630201653648,15.23527962914425 " />
			<path d="M-4.592386195266599,14.861517150428497 L-4.592386195266599,15.693614889608252 " />
			<path d="M-4.5923861952666,20.817644510639596 L-4.5923861952666,22.403989483085002 " />
			<path d="M-7.7501866811064035,21.943263582640153 L-7.750186681106402,3.087082750998885 " />
			<path d="M-8.780415641789801,21.599853929079018 L-8.7804156417898,2.7436730974377523 " />
			<path d="M-10.162593343124357,20.547253767132418 L-10.162593343124357,13.004781434475913 " />
			<path d="M-18.49239622266158,20.17764342059592 L-18.49239622266158,12.635171087939414 " />
			<path d="M-26.412919552910118,15.275345531355592 L-26.412919552910118,22.8178178640121 " />
			<path d="M-3.4835551556507443,15.340004655062172 L-3.4835551556507443,15.275345531353475 " />
			<path d="M-3.4835551556507447,22.81781786400998 L-3.4835551556507447,21.998911507035636 " />
			<path d="M-11.404078485899284,17.802399099296725 L-11.404078485899284,20.1776434205938 " />
			<path d="M-11.404078485899284,12.635171087937293 L-11.404078485899284,14.256168175968716 " />
			<path d="M-27.464027381285504,19.568001658030397 L-27.464027381285284,19.403010075752942 " />
			<path d="M-2.4324473272817264,20.13368708299029 L-2.432447327281948,20.298678665267744 " />
			<path d="M-3.3234018715799714,17.46082345009555 L-3.4223968209466213,17.32883018427372 " />
			<path d="M-30.261945853268376,16.456731820814916 L-30.261945853268376,5.143023321830157 " />
			<path d="M0.36547114470114533,16.456731820814916 L0.3654711447011463,5.143023321830157 " />
			<path d="M-2.9482373542836173,23.999204153471425 L-2.9482373542836173,22.548148033698556 " />
			<path d="M-2.948237354283617,17.153542130073664 L-2.948237354283617,16.456731820814916 " />
			<path d="M-26.948237354283613,23.999204153471425 L-26.948237354283613,22.548146000256388 " />
			<path d="M-26.948237354283613,17.153149233509243 L-26.948237354283613,16.456731820814916 " />

       </g>
    </g>
    
</svg>
