<?xml version="1.0" encoding="UTF-8" standalone="no"?>
<svg
   xmlns:svg="http://www.w3.org/2000/svg"
   xmlns="http://www.w3.org/2000/svg"
   width="1024.0"
   height="320.0"

>
    <g transform="scale(9.46443928386901, -9.46443928386901)   translate(57.28442707964604,-34.369642556939105)" stroke-width="0.14000000133333337"  fill="none">
       <!-- hidden lines -->
       <g  stroke="rgb(32,64,32)" fill="none" stroke-dasharray="0.14000000133333337,0.14000000133333337" >

       </g>

       <!-- solid lines -->
       <g  stroke="rgb(64,192,64)" fill="none">
			<path d="M-27.881144717270708,7.392706959531534 L-27.829222028353147,7.309544356948832 L-27.77256682887817,7.23214961402231 L-27.711761020335768,7.1613176466051325 L-27.64742913482396,7.097775964753947 L-27.58023192052438,7.042177200525278 L-27.54577353812196,7.017538219077074 L-27.510859555205123,6.995092404838483 L-27.47557967915056,6.974897429691794 L-27.44002455745439,6.957005182252725 L-27.404285544824056,6.94146163454872 L-27.368454468453162,6.9283067238992295 " />
			<path d="M-6.82989794156768,17.376544619411096 L-6.820819759889792,17.433710563255612 L-6.81469910667729,17.492522545639577 L-6.811561938327972,17.552731157364807 L-6.811421558910342,17.614081066423022 L-6.814278563743867,17.676312100804942 L-6.820120836874353,17.73916035183486 L-6.828923602455143,17.8023592933516 L-6.840649529816259,17.865640911989683 L-6.855248891775886,17.928736843767417 L-6.872659775522845,17.991379512161878 L-6.892808345175762,18.05330326284443 L-6.9156091549054395,18.114245490264654 L-6.94096551129258,18.173947751305004 L-6.968769883384156,18.232156861283524 L-6.998904358709478,18.288625967656607 L-7.031241143322076,18.343115596868497 " />
			<path d="M-6.8298979415674985,17.37654461941098 L-6.879144800264964,17.130002453259834 L-6.933772212355891,16.88714992131065 L-6.993739230493334,16.64816905977019 L-7.059000904894702,16.41323900273754 L-7.129508317035,16.182535847929678 L-7.205208616314929,15.956232524682974 L-7.286045059676384,15.734498664329713 L-7.371957054135633,15.517500473046638 L-7.462880202202308,15.305400607270967 L-7.558746350150167,15.098358051777158 L-7.659483639103415,14.896528000505908 L-7.765016558900337,14.70006174023462 L-7.875266004693834,14.509106537176619 L-7.990149336246436,14.323805526594061 L-8.10958043987538,14.1442976055073 L-8.233469793001259,13.970717328581172 L-8.36172453125194,13.803194807266133 L-8.494248518071378,13.641855612269978 L-8.63094241678116,13.486820679433167 L-8.77170376504084,13.338206219078334 L-8.916427051651128,13.196123628901907 L-9.065003795642474,13.060679410473194 L-9.217322627589688,12.931975089403444 L-9.373269373091688,12.810107139244794 L-9.532727138353797,12.695166909176079 L-9.695576397808402,12.587240555529778 L-9.861695083708351,12.486408977211367 L-10.0309586776259,12.392747755059522 L-10.20324030378861,12.306327095192598 L-10.378410824182271,12.22721177638388 L-10.556338935349546,12.155461101505013 L-10.736891266811703,12.091128853074087 " />
			<path d="M-7.368293870201143,19.115533721488774 L-9.489614213760786,19.82264050267532 " />
			<path d="M-7.031241143321839,18.343115596868763 L-7.0845232338498105,18.432055015131247 L-7.134883422706324,18.52370681911467 L-7.182178464438243,18.61781031273169 L-7.2262738321536375,18.714097826263618 L-7.267044100172561,18.812295477725087 L-7.304373300790177,18.912123951899066 L-7.338155254137444,19.01329929482621 L-7.368293870201101,19.11553372148878 " />
			<path d="M-27.36845446845316,6.928306723899229 L-27.327639355140168,6.91627359709714 L-27.28696034091296,6.907424417015675 L-27.24655307103128,6.901788691482235 L-27.206552284616098,6.899385212974179 " />
			<path d="M-28.376195129016153,20.630131114150398 L-28.376195129016153,25.84443123871855 " />
			<path d="M-27.53721882114299,19.945952195248044 L-27.63625406312664,20.048645602074494 L-27.73728033078821,20.14672130187792 L-27.84013927534305,20.240025570599958 L-27.944669675464894,20.328412162933347 L-28.050707689984492,20.411742541547163 L-28.158087114694617,20.489886094230513 L-28.266639642858884,20.562720338614383 L-28.376195129016068,20.630131114150753 " />
			<path d="M-27.53721882114294,19.945952195248143 L-27.49103133126967,19.899667818767846 L-27.447874886852013,19.84739389113356 " />
			<path d="M-26.07856849308932,16.22868076637748 L-26.081607952522152,16.34873461946223 L-26.087465355361758,16.46954043298765 L-26.096134858665433,16.59097769937277 L-26.107607814332226,16.71292528114262 L-26.121872777729678,16.83526153176667 L-26.13891551911022,16.95786441700503 L-26.158719037805785,17.080611636641443 L-26.181263579186496,17.203380746481564 L-26.20652665436654,17.32604928049489 L-26.234483062637537,17.44849487297845 L-26.265104916607022,17.57059538062043 L-26.298361670017005,17.692229004341947 L-26.334220148214822,17.813274410795447 L-26.37264458124587,17.933610853398527 L-26.413596639535278,18.053118292782393 L-26.45703547212285,18.171677516534942 L-26.50291774741317,18.289170258118833 L-26.551197696400234,18.405479314846076 L-26.601827158323466,18.52048866479139 L-26.654755628709573,18.634083582527687 L-26.70993030975236,18.746150753568305 L-26.767296162980177,18.856578387401726 L-26.82679596415851,18.965256329006124 L-26.888370360372978,19.07207616873245 L-26.95195792923569,19.176931350446452 L-27.017495240156016,19.279717277821746 L-27.08491691761459,19.38033141867794 L-27.154155706377423,19.47867340725967 L-27.22514253858512,19.574645144354612 L-27.297806602650223,19.668150895150497 L-27.372075413893988,19.759097384733597 L-27.447874886852098,19.84739389113333 " />
			<path d="M-26.0785684930896,16.228680766377565 L-26.07553744763345,16.158893425207758 L-26.0785684930896,16.091126781008718 " />
			<path d="M-27.44787488685212,13.385284585427941 L-27.372075413893988,13.42304810985561 L-27.297806602650223,13.464482058609534 L-27.22514253858512,13.509545100028685 L-27.154155706377423,13.558192282318494 L-27.08491691761459,13.61037507839167 L-27.017495240156016,13.666041434275478 L-26.95195792923569,13.725135821037224 L-26.88837036037298,13.787599290176082 L-26.826795964158514,13.853369532426099 L-26.767296162980177,13.922380939911605 L-26.709930309752362,13.99456467159315 L-26.654755628709573,14.069848721938577 L-26.601827158323463,14.148157992750804 L-26.551197696400234,14.22941436808063 L-26.50291774741317,14.31353679214983 L-26.45703547212285,14.400441350206838 L-26.413596639535278,14.49004135223434 L-26.372644581245872,14.582247419425268 L-26.334220148214822,14.676967573340978 L-26.298361670017005,14.774107327662605 L-26.26510491660702,14.873569782444134 L-26.234483062637537,14.975255720773124 L-26.206526654366538,15.079063707742687 L-26.181263579186496,15.184890191635981 L-26.158719037805785,15.292629607222294 L-26.13891551911022,15.402174481061664 L-26.121872777729678,15.513415538712996 L-26.107607814332226,15.626241813738744 L-26.096134858665433,15.740540758397401 L-26.087465355361758,15.856198355913403 L-26.081607952522152,15.97309923421242 L-26.07856849308932,16.091126781008583 " />
			<path d="M-27.447874886852013,13.385284585427662 L-27.46907422837889,13.372531822067478 L-27.49103133126967,13.36178162073848 L-27.51374619552435,13.353033981440584 L-27.53721882114294,13.3462889041737 " />
			<path d="M-28.376195129016097,13.221427523853176 L-28.281013649846166,13.216194018826364 L-28.186571395588082,13.215553387479254 L-28.09297997739499,13.219506386905199 L-28.00035000090829,13.2280483454789 L-27.90879093554475,13.241169168377295 L-27.818410985126334,13.258853349509543 L-27.729316960005736,13.281079989842006 L-27.64161415083872,13.307822822096568 " />
			<path d="M-27.64161415083871,13.307822822096572 L-27.537218821143,13.346288904173827 " />
			<path d="M-28.37619512901615,8.007127399285434 L-28.37619512901615,13.221427523853585 " />
			<path d="M-27.881144717269216,7.392706959532929 L-27.9345287583341,7.481544427258791 L-27.990677564107568,7.567407614325558 L-28.049431423887402,7.650052289894979 L-28.11062321710756,7.729243377922462 L-28.174078888699004,7.804755625811731 L-28.239617944175173,7.876374245127483 L-28.307053963033816,7.9438955225435794 L-28.37619512901493,8.007127399288997 " />
			<path d="M-21.679140346485,12.426797151105143 L-21.728387205182464,12.180254984954 L-21.78301461727339,11.937402453004816 L-21.842981635410833,11.698421591464356 L-21.9082433098122,11.463491534431707 L-21.9787507219525,11.232788379623843 L-22.054451021232428,11.00648505637714 L-22.135287464593883,10.78475119602388 L-22.221199459053132,10.567753004740805 L-22.312122607119807,10.355653138965133 L-22.407988755067667,10.148610583471324 L-22.508726044020914,9.946780532200075 L-22.614258963817836,9.750314271928787 L-22.72450840961133,9.559359068870785 L-22.839391741163936,9.374058058288227 L-22.958822844792877,9.194550137201466 L-23.08271219791876,9.020969860275338 L-23.21096693616944,8.853447338960299 L-23.343490922988877,8.692108143964145 L-23.480184821698657,8.537073211127334 L-23.620946169958337,8.3884587507725 L-23.765669456568627,8.246376160596073 L-23.914246200559973,8.11093194216736 L-24.066565032507185,7.982227621097611 L-24.222511778009185,7.86035967093896 L-24.381969543271296,7.745419440870245 L-24.5448188027259,7.637493087223945 L-24.710937488625852,7.536661508905533 L-24.8802010825434,7.443000286753689 L-25.05248270870611,7.356579626886765 L-25.22765322909977,7.277464308078047 L-25.405581340267045,7.20571363319918 L-25.5861336717292,7.141381384768254 " />
			<path d="M-25.58613367172926,7.141381384768234 L-25.683035751342434,7.1102505600324335 L-25.780619267219958,7.081232079505586 L-25.87886359049138,7.054332077609782 L-25.977747952593514,7.029556240926908 L-26.07725144966081,7.006909806996525 L-26.17735304694441,6.9863975632086746 L-26.278031583258812,6.968023845791823 L-26.379265775455277,6.9517925388962 L-26.48103422292105,6.937707073772717 L-26.58331541210336,6.925770428047587 L-26.686087721057337,6.915985125092879 L-26.789329424016827,6.908353233493079 L-26.89301869598715,6.902876366607792 L-26.99713361735884,6.8995556822306945 L-27.101652178541404,6.898391882344772 L-27.206552284616052,6.8993852129739235 " />
			<path d="M-21.880483548239578,13.393368128562667 L-21.84814676362698,13.338878499350772 L-21.818012288301656,13.282409392977689 L-21.79020791621008,13.224200282999167 L-21.76485155982294,13.164498021958817 L-21.74205075009326,13.103555794538595 L-21.721902180440345,13.04163204385604 L-21.704491296693384,12.97898937546158 L-21.689891934733758,12.915893443683844 L-21.678166007372642,12.852611825045763 L-21.669363241791853,12.789412883529023 L-21.663520968661366,12.726564632499105 L-21.66066396382784,12.664333598117183 L-21.66080434324547,12.60298368905897 L-21.66394151159479,12.542775077333738 L-21.67006216480729,12.483963094949775 L-21.679140346485177,12.426797151105266 " />
			<path d="M-21.88048354823931,16.12771612225647 L-21.931191207381342,16.07705802530843 L-21.97926610765458,16.0221831382814 L-22.024584726251597,15.963232455749766 L-22.06703062230687,15.900357444565556 L-22.10649473607791,15.833719654682154 L-22.142875669161437,15.763490304070682 L-22.17607994502467,15.689849838795553 L-22.206022249182308,15.612987469379485 L-22.232625648402053,15.533100684649321 L-22.25582178837552,15.45039474431168 L-22.27555106934662,15.365082151562264 L-22.291762799246087,15.27738210708386 L-22.30441532393884,15.187519945835945 L-22.31347613424936,15.095726558082992 L-22.3189219494902,15.002237796149052 L-22.32073877727899,14.90729386842293 L-22.318921949490203,14.811138722170949 L-22.313476134249363,14.714019416743113 L-22.304415323938848,14.616185488783149 L-22.291762799246094,14.517888311073401 L-22.27555106934663,14.419380446662016 L-22.255821788375535,14.320914999931867 L-22.232625648402067,14.222744966278581 L-22.206022249182325,14.125122582068588 L-22.17607994502469,14.02829867654743 L-22.142875669161455,13.932522027363472 L-22.10649473607793,13.838038721362985 L-22.067030622306895,13.745091522298889 L-22.024584726251618,13.653919247077827 L-21.979266107654606,13.564756152148183 L-21.93119120738137,13.477831331605662 L-21.88048354823934,13.393368128562933 " />
			<path d="M-21.880483548239578,16.127716122256935 L-21.84814676362698,16.16064789506043 L-21.818012288301656,16.19702735121663 L-21.79020791621008,16.2367002131341 L-21.76485155982294,16.279498236583024 L-21.742050750093263,16.32523992418346 L-21.721902180440345,16.373731295097404 L-21.704491296693384,16.42476670766056 L-21.689891934733758,16.47812973146521 L-21.678166007372642,16.53359406519588 L-21.669363241791853,16.590924496325428 L-21.663520968661366,16.649877898601687 L-21.66066396382784,16.710204263094592 L-21.66080434324547,16.771647758431225 L-21.66394151159479,16.83394781572267 L-21.67006216480729,16.896840233581635 L-21.679140346485177,16.960058298544734 " />
			<path d="M-27.206552284616212,26.17241152876343 L-27.08160268756638,26.09004923205043 L-26.957200807178012,26.00498950588144 L-26.833383980369014,25.91725787935622 L-26.710189368464327,25.82688068349588 L-26.587653946042618,25.733885043340102 L-26.465814489839037,25.63829886980609 L-26.344707567707403,25.54015085131161 L-26.22436952764499,25.439470445164687 L-26.104836486883393,25.336287868722557 L-25.98614432104858,25.230634090322475 L-25.868328653393505,25.122540819987137 L-25.751424844106445,25.012040499907535 L-25.635467979698298,24.89916629470599 L-25.52049286247201,24.783952081482454 L-25.406534000077308,24.666432439646876 L-25.293625595153866,24.54664264054087 L-25.181801535066043,24.42461863685167 L-25.071095381732203,24.300397051821594 L-24.961540361551698,24.17401516825624 L-24.853169355432623,24.045510917334767 L-24.746014888923206,23.914922867225542 L-24.640109122449864,23.782290211510634 L-24.53548384166485,23.64765275742257 L-24.432170447906387,23.511050913896945 L-24.33019994877411,23.372525679444408 L-24.22960294882274,23.232118629845733 L-24.130409640376694,23.08987190567364 L-24.032649794468394,22.94582819964505 L-23.93635275190307,22.800030743807675 L-23.84154741445265,22.652523296564723 L-23.748262236181414,22.5033501295416 L-23.65652521490606,22.352556014298628 L-23.566363883792672,22.200186208893694 L-23.477805303093138,22.04628644429887 L-23.39087605202353,21.89090291067511 L-23.30560222078683,21.734082243509107 L-23.22200940274246,21.57587150961659 L-23.1401226867249,21.416318193016004 L-23.05996664951374,21.255470180677126 L-22.981565348457405,21.093375748148645 L-22.9049423142528,20.93008354506916 L-22.830120543883005,20.765642580565878 L-22.757122493715165,20.600102208545472 L-22.6859700727606,20.433512112881395 L-22.61668463609926,20.265922292502182 L-22.549286978470374,20.097383046385215 L-22.483797328031276,19.927944958460394 L-22.420235340286332,19.757658882428316 L-22.358620092187685,19.586575926497513 L-22.29897007640968,19.41474743804524 L-22.2413031957986,19.242224988206495 L-22.18563675799948,19.069060356395923 L-22.131987470261542,18.895305514767198 L-22.080371434423807,18.721012612614523 L-22.030804142082445,18.546233960720983 L-21.98330046994125,18.371022015658458 L-21.937874675346663,18.19542936404372 L-21.89454039200871,18.019508706755545 L-21.853310625909096,17.84331284311757 L-21.81419775139769,17.66689465505148 L-21.777213507478603,17.490307091205533 L-21.742368994286938,17.313603151062992 L-21.70967466975729,17.136835869035288 L-21.679140346485013,16.960058298544833 " />
			<path d="M-27.88114471727071,26.12881807064216 L-27.836962814383625,26.17094846851733 L-27.789247900019344,26.20657603381021 L-27.73835979133277,26.235432099808296 L-27.68468223446974,26.257299063531303 " />
			<path d="M-27.68468223446974,26.257299063531303 L-27.628642019212,26.27200775101549 L-27.57064124604578,26.27945711432874 L-27.51111696076439,26.2795910212383 L-27.450517689086738,26.272408462732603 L-27.389300056938957,26.257963560624315 L-27.3279253496996,26.236365159733193 L-27.266856036335025,26.207776007721662 L-27.206552284616258,26.17241152876321 " />
			<path d="M-28.37619512901617,25.844431238718627 L-28.324675663283287,25.856642316568283 L-28.27406968287239,25.87185608486449 " />
			<path d="M-28.274069682872387,25.871856084864493 L-28.219744445708834,25.8919526571207 L-28.166714569146478,25.915590012310513 L-28.115080074641757,25.942723567213193 L-28.064938351773474,25.973302144306643 L-28.016383974553005,26.007268068295076 L-27.969508523045036,26.04455727489234 L-27.924400410635283,26.08509943165577 L-27.881144717270985,26.12881807064258 " />
			<path d="M-29.43685530079718,8.360680789883087 L-29.488374766529304,8.348469712033555 L-29.538980746939465,8.333255943737566 " />
			<path d="M-29.538980746939476,8.333255943737562 L-29.593305984103345,8.313159371481243 L-29.646335860666003,8.28952201629128 L-29.69797035517101,8.262388461388408 L-29.74811207803956,8.231809884294725 L-29.796666455260276,8.197843960306024 L-29.84354190676847,8.160554753708453 L-29.888650019178428,8.120012596944683 L-29.931905712542907,8.076293957957493 " />
			<path d="M-29.43685530079597,8.360680789878703 L-28.376195129016153,8.714234180471976 " />
			<path d="M-18.478877575586864,13.249549851226071 L-18.404678495313135,13.273033905212476 L-18.33142658181397,13.293716039253717 L-18.259125785701432,13.311612558263155 L-18.187780057587577,13.326739767154153 L-18.11739334808447,13.339113970840076 L-18.04796960780417,13.348751474234284 L-17.979512787358736,13.355668582250138 L-17.912026837360234,13.359881599801003 L-17.845526901394845,13.361370915901759 L-17.780106874982124,13.36009964602767 L-17.71589422590141,13.356099947965523 L-17.653016538656534,13.349405206642562 L-17.591601397751333,13.340048806986024 L-17.53177638768965,13.328064133923153 L-17.473669092975314,13.313484572381189 L-17.417407098112168,13.29634350728737 " />
			<path d="M-17.417407098112168,13.296343507287368 L-17.363060320871178,13.276677038094387 L-17.310533700913698,13.254514699619213 L-17.259850737963934,13.229871626545004 L-17.2110449279086,13.202762283265823 L-17.16414156894633,13.173183407330885 L-17.119208973751476,13.141144670985993 L-17.07642568906014,13.106795296014633 L-17.035977047411738,13.070294738871086 L-16.998019467879423,13.031793204063016 L-16.962525269184795,12.991354565905558 L-16.929498570281563,12.949013560546536 L-16.89895824465861,12.904807233387281 L-16.870923165804797,12.858772629829115 L-16.845412207209,12.810946795273367 L-16.822444242360092,12.761366775121363 L-16.802038144746938,12.710069614774433 L-16.784223240882564,12.657113306102696 L-16.769111247636257,12.602754033370077 L-16.756721396546922,12.5471259752814 L-16.74704563783964,12.490315021103953 L-16.740075921739486,12.432407060105032 L-16.73580419847154,12.373487981551927 L-16.73422241826088,12.313643674711933 L-16.735322531332585,12.252960028852344 L-16.73909806026622,12.191516292808892 L-16.745569797625222,12.12924730347536 L-16.754713271182787,12.066204780343279 L-16.766484224250544,12.0025128775079 L-16.78083840014011,11.938295749064478 L-16.797731542163113,11.87367754910826 L-16.817119393631174,11.8087824317345 L-16.83895769785592,11.743734551038447 L-16.863202105554855,11.678657606938676 L-16.88979722197659,11.613581699116962 L-16.918704822662782,11.548487540700183 L-16.94990031424696,11.483394606807503 L-17.019056596643427,11.353290313071103 L-17.09706932223428,11.223424618861081 L-17.183613344342547,11.094136161771353 L-17.277570434688208,10.966790428714363 L-17.37848071570563,10.84164539008942 L-17.48604836976217,10.71871179635983 L-17.59998098154508,10.597999565207326 L-17.720062453372392,10.479508133026297 L-17.846141237130418,10.36323683322578 L-17.978066429415275,10.249186423885183 L-18.115664974186863,10.137378790382122 L-18.25836328258355,10.028172415183363 L-18.405584354097606,9.92182889817383 L-18.556830452548425,9.818521825916237 " />
			<path d="M-23.637870344940406,7.790827024698261 L-23.602321212204423,7.806809942098617 L-23.555688524095753,7.835228540964746 L-23.499559526639583,7.876061417230606 L-23.435219464355566,7.929394035522103 L-23.363200842817868,7.995575810303237 L-23.2838262951295,8.07509068756142 L-23.1971374821789,8.16855329621471 L-23.103512655816594,8.276042469694227 L-23.0035901922901,8.397220252769513 L-22.897173541376546,8.53233816791853 L-22.783655341514528,8.682046180467887 L-22.662428231142638,8.846994255744196 L-22.532901750632625,9.027799903865136 L-22.39498748927483,9.224007305810925 L-22.094611410888948,9.657610140449949 L-21.755182065192287,10.145728187697099 L-21.57084072402225,10.40540669340785 L-21.37701496439055,10.671882102673305 L-21.17196243141982,10.944790259681994 L-20.956724479170234,11.219763078212932 L-20.84615804945525,11.355953505220723 L-20.73375632270371,11.490675535498463 L-20.619307849744246,11.623821342296388 L-20.50262172763949,11.75522702350573 L-20.383507053452046,11.884728677017726 L-20.26191560981359,12.012002429090344 L-20.138750501605358,12.135717958944657 L-20.014329284316823,12.25530059012657 L-19.88880294227037,12.370370245587395 L-19.762322459788404,12.480546848278435 L-19.634830335270077,12.58559767283844 L-19.505962270299463,12.685561956903532 L-19.376267372453565,12.779897760883273 L-19.24636710599396,12.868014553292491 L-19.116882935182236,12.949321802646018 L-18.988229966632968,13.023469336690754 L-18.860225871893743,13.090619455456173 L-18.732745457374918,13.150721944898095 L-18.605669199723593,13.203718258870174 L-18.47887757558689,13.249549851226062 " />
			<path d="M-11.370277041479683,13.04847713549576 L-11.293975398882289,13.07161329275777 L-11.222395910576804,13.088655923292055 L-11.155737151681432,13.09970621872467 L-11.09416997272076,13.104943489068253 L-11.037834379532368,13.104622539815448 L-10.986835588699503,13.099070463981414 L-10.941239258509855,13.088682849095498 L-10.901048347379998,13.073911585020175 L-10.866058435350373,13.055156865656361 L-10.83609581305987,13.032784454968105 L-10.811023996193411,13.007141203926496 L-10.790720042496192,12.978547943482116 L-10.775074499702512,12.947299581383882 L-10.76399158423619,12.913665491219845 L-10.75738955973179,12.877890157685856 L-10.755201284425828,12.840194042088008 " />
			<path d="M-10.755201284425828,12.840194042088006 L-10.757456533425422,12.800024968742207 L-10.764200117295122,12.758253231073564 L-10.775412632208694,12.715042339178932 L-10.791093934734597,12.670535317348122 L-10.811261057825927,12.62486278124967 L-10.835940428187332,12.578155212984996 L-10.865168487210735,12.530534195775084 L-10.898991613785919,12.4821117153444 L-10.937465490388265,12.432991025667206 L-10.980654410773855,12.383267409259357 L-11.028630529282022,12.333028832015628 L-11.081473051745302,12.282356492592589 L-11.139276139068187,12.231317769264376 L-11.202092290914349,12.180013004574889 L-11.269931146490379,12.128562201144124 L-11.342788098253937,12.077075547940492 L-11.420644011587049,12.02565294069051 L-11.503464941876786,11.974383504678805 L-11.591201851595924,11.923345117547957 L-11.683752401458172,11.87262416641826 L-11.780860845970158,11.822360293224826 L-11.882209226780734,11.772685176895036 L-11.987442368114266,11.723709985607035 L-12.096169498047361,11.675527235988952 L-12.322332126291071,11.58184396138794 L-12.556480413491443,11.492239731102487 L-12.794299642491032,11.407008297649892 L-13.031365745308545,11.326304046920445 " />
			<path d="M-13.031365745308554,11.326304046920441 L-14.947799205273416,10.687492881274492 " />
			<path d="M-14.947799205273416,10.687492881274492 L-14.95334451105984,10.685857737281358 L-14.955201292651218,10.685924747879259 " />
			<path d="M-14.955201292651218,10.685924747879259 L-14.953447901242766,10.687691307648526 L-14.94817917965162,10.691202854519029 L-14.927098188731007,10.703710692009162 L-14.843505312146366,10.75206538833797 L-14.708670885301773,10.83260917556766 L-14.530577481201046,10.944049210224751 L-14.319209137152898,11.082549849875747 L-14.083334254879059,11.243610106941292 L-13.830614484667965,11.422201801834479 L-13.566393080960518,11.613890589646362 L-13.016859584028891,12.02066138963017 L-12.73593481769328,12.227688231439807 L-12.453000782973445,12.431000492546865 L-12.311322243074127,12.529421805285358 L-12.168965747822762,12.625085057548459 L-12.027000363496839,12.716392756774946 L-11.886891710327179,12.801488255558787 L-11.749979851312569,12.878664961140187 L-11.61749397905342,12.946397047014736 L-11.490571000415425,13.00336529166361 L-11.429530893315873,13.027462279459979 L-11.370277041479707,13.048477135495753 " />
			<path d="M-29.93190571254141,8.076293957955102 L-29.97608761542847,8.034163560079953 L-30.02380252979272,7.998535994787087 L-30.07469063847926,7.969679928789011 L-30.128368195342247,7.947812965066003 " />
			<path d="M-30.128368195342254,7.947812965066001 L-30.165533179764765,7.937194433127554 L-30.203635243667634,7.92979719087603 L-30.2425464421417,7.925646077897296 L-30.28213611324258,7.924755033430293 L-30.32227131674725,7.927127049559749 L-30.362817280560957,7.93275416116889 L-30.403637853275463,7.94161747268593 L-30.44459596135896,7.953687221534495 " />
			<path d="M-30.44459596135896,7.953687221534495 L-30.48541107467195,7.968864170274402 L-30.52609008889916,7.987134333011076 L-30.56649735878084,8.008436787398756 L-30.606498145196024,8.032700499834155 " />
			<path d="M-30.60649814519607,8.032700499833929 L-30.731447742245894,8.115062796546932 L-30.85584962263426,8.200122522715919 L-30.97966644944325,8.287854149241136 L-31.10286106134793,8.37823134510148 L-31.225396483769636,8.471226985257255 L-31.34723593997321,8.566813158791264 L-31.46834286210484,8.664961177285745 L-31.588680902167248,8.765641583432666 L-31.70821394292884,8.868824159874794 L-31.826906108763648,8.974477938274877 L-31.944721776418717,9.082571208610208 L-32.06162558570577,9.19307152868981 L-32.17758245011391,9.305945733891349 L-32.2925575673402,9.421159947114887 L-32.40651642973489,9.538679588950462 L-32.51942483465833,9.658469388056462 L-32.63124889474614,9.780493391745658 L-32.74195504807999,9.904714976775734 L-32.85151006826049,10.031096860341087 L-32.95988107437955,10.159601111262557 L-33.067035540888966,10.29018916137177 L-33.1729413073623,10.422821817086673 L-33.27756658814731,10.55745927117473 L-33.38087998190577,10.694061114700355 L-33.48285048103804,10.83258634915289 L-33.583447480989406,10.972993398751559 L-33.68264078943545,11.115240122923646 L-33.780400635343746,11.259283828952228 L-33.876697677909064,11.405081284789592 L-33.97150301535948,11.552588732032547 L-34.06478819363072,11.701761899055667 L-34.15652521490606,11.852556014298628 L-34.24668654601945,12.004925819703553 L-34.33524512671898,12.158825584298377 L-34.422174377788586,12.31420911792214 L-34.507448209025284,12.471029785088128 L-34.59104102706965,12.62924051898064 L-34.6729277430872,12.788793835581213 L-34.75308378029836,12.949641847920082 L-34.83148508135469,13.11173628044856 L-34.9081081155593,13.275028483528049 L-34.98292988592909,13.43946944803132 L-35.05592793609693,13.605009820051713 L-35.12708035705149,13.771599915715779 L-35.19636579371282,13.939189736094985 L-35.26376345134172,14.107728982211949 L-35.32925310178081,14.27716707013677 L-35.392815089525755,14.447453146168836 L-35.454430337624395,14.618536102099629 L-35.514080353402406,14.7903645905519 L-35.571747234013486,14.962887040390642 L-35.627413671812604,15.136051672201205 L-35.68106295955054,15.309806513829919 L-35.73267899538827,15.484099415982584 L-35.782246287729635,15.658878067876113 L-35.82974995987083,15.834090012938638 L-35.87517575446542,16.009682664553377 L-35.91851003780337,16.185603321841537 L-35.959739803902984,16.361799185479505 L-35.998852678414394,16.538217373545585 L-36.03583692233348,16.71480493739152 L-36.070681435525145,16.891508877534058 L-36.103375760054796,17.068276159561762 L-36.13391008332708,17.245053730052273 " />
			<path d="M-35.93256688157219,18.07739590634065 L-35.964903666184846,18.044464133537165 L-35.995038141510214,18.00808467738096 L-36.02284251360184,17.968411815463483 L-36.048198869989015,17.925613792014545 L-36.07099967971873,17.879872104414087 L-36.091148249371685,17.831380733500115 L-36.10855913311867,17.780345320936927 L-36.12315849507832,17.72698229713224 L-36.134884422439455,17.671517963401524 L-36.14368718802026,17.61418753227193 L-36.149529461150756,17.555234129995622 L-36.152386465984286,17.494907765502663 L-36.152246086566656,17.433464270165977 L-36.14910891821733,17.371164212874476 L-36.14298826500482,17.308271795015457 L-36.13391008332691,17.245053730052295 " />
			<path d="M-35.93256688157081,18.077395906338253 L-35.8818592224286,18.128054003286277 L-35.833784322155196,18.182928890313306 L-35.78846570355802,18.241879572844958 L-35.74601980750259,18.30475458402921 L-35.70655569373141,18.371392373912673 L-35.670174760647754,18.44162172452422 L-35.6369704847844,18.515262189799447 L-35.607028180626656,18.592124559215627 L-35.58042478140682,18.672011343945915 L-35.55722864143326,18.754717284283693 L-35.5374993604621,18.840029877033263 L-35.521287630562576,18.92772992151183 L-35.50863510586978,19.01759208275992 L-35.499574295559235,19.10938547051305 L-35.49412848031839,19.20287423244718 L-35.4923116525296,19.2978181601735 L-35.4941284803184,19.39397330642568 L-35.49957429555928,19.491092611853713 L-35.508635105869836,19.58892653981388 L-35.52128763056265,19.687223717523832 L-35.53749936046219,19.785731581935416 L-35.557228641433376,19.88419702866576 L-35.58042478140695,19.982367062319238 L-35.6070281806268,20.079989446529417 L-35.63697048478456,20.176813352050754 L-35.67017476064793,20.272590001234875 L-35.70655569373161,20.367073307235522 L-35.746019807502805,20.460020506299763 L-35.788465703558245,20.551192781520953 L-35.83378432215544,20.640355876450716 L-35.88185922242886,20.727280696993336 L-35.93256688157107,20.811743900036138 " />
			<path d="M-28.85636193652118,18.264346223481244 L-26.81530283837708,18.944699256195943 " />
			<path d="M-19.389109150372448,15.108595294765003 L-7.368293870201143,19.115533721488774 " />
			<path d="M-11.370277041479682,18.281067316276207 L-11.299203918726016,18.305950794713876 L-11.231879329909685,18.331966764192238 L-11.168465465862077,18.359052549962087 L-11.109115096136087,18.38714289999307 L-11.05397120097086,18.416170142171534 L-11.003166626839887,18.44606434732859 L-10.956823766412201,18.47675349770559 L-10.91505426369773,18.508163660451228 L-10.877958745087088,18.540219165732235 L-10.845626576933794,18.572842789028666 L-10.81813565026289,18.605955937174503 L-10.79555219312465,18.6394788376955 L-10.777930611045392,18.673330730988038 L-10.765313355959819,18.707430064876096 L-10.75773082394057,18.741694691077598 L-10.755201281971432,18.776042063106782 " />
			<path d="M-10.755201281971432,18.77604206310679 L-10.75726444751756,18.807063630231166 L-10.763449890201592,18.838024242471274 L-10.773745456126164,18.8688630647143 L-10.788130915332328,18.89951950115497 L-10.8065780015498,18.929933314361445 L-10.829050467737904,18.960044743637027 L-10.85550415730809,18.989794622445114 L-10.885887090888081,19.019124494666706 L-10.920139568457165,19.04797672946195 L-10.95819428665192,19.076294634510127 L-10.999976471011921,19.104022567405487 L-11.045404022905535,19.131106044990112 L-11.094387680847133,19.157491850408938 L-11.146831195888726,19.18312813767658 L-11.202631520741406,19.207964533550545 L-11.261679012254984,19.231952236510587 " />
			<path d="M-14.222931802182831,18.244867973201305 L-14.068320129860467,18.20465557579949 L-13.903129263067422,18.169426044485082 L-13.728799774842049,18.139486603948832 L-13.546851933013928,18.11509834580953 L-13.35887244246822,18.096473951723308 L-13.166500608035152,18.083775838659683 L-12.971414038673391,18.077114742518724 L-12.775314017616221,18.076548752441145 L-12.579910666062467,18.082082804232797 L-12.386908029794544,18.093668637321173 L-12.197989218778128,18.11120521561936 L-12.014801729335929,18.1345396086272 L-11.838943076895873,18.16346832508584 L-11.671946864605543,18.19773908755542 L-11.515269409303768,18.23705303244029 L-11.370277041479696,18.2810673162762 " />
			<path d="M-7.368293870201083,20.52974728386182 L-7.338155254137423,20.61188929981528 L-7.304373300790154,20.690543340510914 L-7.267044100172537,20.76548568093981 L-7.226273832153613,20.836503153721996 L-7.182178464438217,20.903393755443656 L-7.134883422706297,20.965967221239392 L-7.084523233849784,21.024045565985134 L-7.031241143321816,21.077463590562296 " />
			<path d="M-7.368293870201143,20.52974728386187 L-19.389109150372448,16.5228088571381 " />
			<path d="M-19.38910915037241,15.108595294765015 L-19.413068376676655,15.201356905908494 L-19.433946064918064,15.294527877871792 L-19.4516940227199,15.387893142275223 L-19.466271282123508,15.481237182250046 L-19.477644194155456,15.574344529920294 L-19.48578650650012,15.667000263771474 L-19.49067942409841,15.758990504758126 L-19.4923116525328,15.850102910004999 L-19.49067942409841,15.94012716296228 L-19.485786506500112,16.028855458883402 L-19.47764419415545,16.116082984504807 L-19.466271282123497,16.20160839082042 L-19.451694022719888,16.285234257859504 L-19.43394606491805,16.366767550395043 L-19.413068376676637,16.446020063530735 L-19.389109150372395,16.522808857138042 " />
			<path d="M-28.376195129016153,25.84443123871855 L-28.175914418270434,25.91119147563379 " />
			<path d="M-28.376195129016153,13.221427523853583 L-27.002112189349987,13.679455170408971 " />
			<path d="M-6.82989794156768,21.90980576685058 L-6.820819759889792,21.84658770188747 L-6.81469910667729,21.783695284028507 L-6.811561938327972,21.721395226737062 L-6.811421558910342,21.65995173140043 L-6.814278563743867,21.599625366907524 L-6.820120836874353,21.540671964631265 L-6.828923602455143,21.48334153350172 L-6.840649529816259,21.427877199771046 L-6.855248891775886,21.374514175966397 L-6.872659775522845,21.32347876340324 L-6.892808345175762,21.274987392489297 L-6.9156091549054395,21.22924570488886 L-6.94096551129258,21.186447681439937 L-6.968769883384156,21.146774819522467 L-6.998904358709478,21.110395363366266 L-7.031241143322076,21.077463590562775 " />
			<path d="M-12.357309879698713,31.122158997069263 L-12.23236028264888,31.039796700356263 L-12.107958402260511,30.954736974187277 L-11.984141575451515,30.867005347662058 L-11.86094696354683,30.776628151801713 L-11.738411541125119,30.683632511645936 L-11.616572084921538,30.588046338111923 L-11.495465162789902,30.489898319617442 L-11.375127122727491,30.38921791347052 L-11.255594081965892,30.28603533702839 L-11.13690191613108,30.18038155862831 L-11.019086248476007,30.072288288292974 L-10.902182439188948,29.961787968213365 L-10.786225574780799,29.848913763011822 L-10.67125045755451,29.733699549788284 L-10.557291595159807,29.61617990795271 L-10.444383190236367,29.496390108846704 L-10.332559130148546,29.374366105157502 L-10.221852976814702,29.250144520127428 L-10.112297956634201,29.123762636562077 L-10.003926950515124,28.995258385640597 L-9.896772484005709,28.864670335531375 L-9.790866717532365,28.732037679816468 L-9.686241436747352,28.597400225728403 L-9.582928042988888,28.46079838220278 L-9.480957543856611,28.32227314775024 L-9.380360543905242,28.181866098151566 L-9.281167235459193,28.039619373979473 L-9.183407389550895,27.895575667950883 L-9.087110346985572,27.749778212113508 L-8.99230500953515,27.602270764870557 L-8.899019831263915,27.453097597847435 L-8.807282809988564,27.302303482604465 L-8.717121478875171,27.149933677199527 L-8.628562898175641,26.996033912604705 L-8.541633647106032,26.84065037898094 L-8.45635981586933,26.683829711814944 L-8.372766997824963,26.52561897792242 L-8.290880281807404,26.36606566132184 L-8.210724244596241,26.20521764898296 L-8.132322943539908,26.04312321645448 L-8.055699909335303,25.879831013374993 L-7.980878138965508,25.71539004887171 L-7.907880088797665,25.549849676851306 L-7.836727667843101,25.38325958118723 L-7.767442231181763,25.215669760808016 L-7.700044573552875,25.047130514691048 L-7.634554923113777,24.877692426766224 L-7.570992935368832,24.70740635073415 L-7.509377687270188,24.536323394803347 L-7.449727671492182,24.364494906351073 L-7.392060790881101,24.191972456512328 L-7.33639435308198,24.018807824701756 L-7.2827450653440415,23.845052983073032 L-7.231129029506308,23.670760080920356 L-7.181561737164947,23.495981429026816 L-7.13405806502375,23.32076948396429 L-7.088632270429163,23.145176832349552 L-7.045297987091211,22.96925617506138 L-7.004068220991596,22.793060311423403 L-6.964955346480189,22.616642123357312 L-6.927971102561103,22.440054559511367 L-6.893126589369439,22.263350619368826 L-6.860432264839792,22.08658333734112 L-6.8298979415675145,21.909805766850667 " />
			<path d="M-21.199061299972694,21.651609639932083 L-21.270766393587042,21.808652935423574 L-21.337115608655726,21.96521277229209 L-21.39821226577544,22.1208251856712 L-21.454132650078826,22.27507070902402 L-21.504925855712347,22.42756770086345 L-21.550613367231936,22.577966035659784 L-21.591188377916385,22.725941158935733 L-21.62661484499854,22.87118850654881 L-21.656826281814187,23.01341828816115 L-21.68172491958671,23.15235451758627 L-21.701195206150906,23.28785835994762 L-21.71506408381547,23.419797135477616 L-21.723088100009214,23.547960703909112 L-21.724958420505214,23.672088150191485 L-21.72029942661962,23.791861533702974 L-21.70866747895522,23.906899403044967 L-21.700079144065718,23.962504301262243 L-21.68954938169396,24.01675239219887 L-21.677003322587506,24.069573895098607 L-21.662365043984394,24.12088411749704 L-21.645556156780742,24.17059489014599 L-21.62649574966789,24.21861490307779 L-21.60510040934925,24.264849660049492 L-21.581291607737068,24.309188618330253 L-21.555001314471117,24.351505164973908 L-21.526165209316172,24.39167586741848 L-21.494721819219773,24.42958171005918 L-21.46060766032893,24.4651120933484 L-21.423805421968122,24.49812084773822 L-21.384325416306467,24.52846576419674 L-21.34219386227766,24.55602348023622 L-21.297452990278565,24.580689024051168 L-21.25016114686767,24.60237535865636 L-21.20039289946347,24.621012926024886 L-21.148285468574567,24.636537102765615 L-21.094005263687706,24.64891014778889 L-21.03768890767711,24.65813029399087 L-20.979490447320945,24.66421247296469 L-20.919581173688577,24.667188801968063 L-20.85814941052648,24.66710908162574 L-20.795400302644033,24.664041293631993 L-20.731552330686146,24.65807175479062 L-20.66677797542024,24.64929613699234 L-20.601200997870006,24.63780783916629 L-20.5349428472045,24.623699042733634 L-20.46812423261707,24.607061123645288 L-20.40086501073292,24.587984934505464 L-20.333284073016806,24.56656108669527 " />
			<path d="M-20.3332840730168,24.566561086695266 L-20.233673679228545,24.53102320219051 L-20.133988291287512,24.490902523271934 L-20.034444186696184,24.446422453807156 L-19.9352151493677,24.39776856844607 L-19.836497091503396,24.34511985083192 L-19.73846877736061,24.288633821166528 L-19.641293847973575,24.22844731535437 L-19.54512287876815,24.164677223154193 L-19.450095470070362,24.097421185338263 L-19.356342370508766,24.026758249859196 L-19.263987633310617,23.95274948702439 L-19.173154992082253,23.875442223559638 L-19.08399114595901,23.794891201758286 L-18.996653462381868,23.711151974651067 L-18.91130256706369,23.624275447363935 L-18.828103420541797,23.534309027043964 L-18.747226382209504,23.44129783725276 L-18.668848249763155,23.345285987080985 L-18.593153274064683,23.246317894984003 L-18.520334131403697,23.144439641251115 L-18.450582496902577,23.039684260125355 L-18.38414921226349,22.932166601278674 L-18.321313043238042,22.822059532574006 L-18.262344884685348,22.709545959874603 L-18.207507649470728,22.594819103458576 L-18.15705615736446,22.478082774433485 L-18.11123702394054,22.359551651150927 L-18.07029182947722,22.239461827123197 L-18.034486203261753,22.118186407669352 L-18.00406934703276,21.996184689157417 L-17.97924155667769,21.873920470938558 L-17.960154490859185,21.75185980565221 L-17.94691170685848,21.63046949145211 L-17.939569196418656,21.510215564232343 L-17.938135031115564,21.391627235369505 L-17.94255685756492,21.275232271079787 L-17.952730471742708,21.16146953088976 L-17.968507693666087,21.05076303489664 L-17.989697532988217,20.943519821497233 L-18.01606735163758,20.840127726160542 L-18.047349361135556,20.74093712033424 L-18.083278917117184,20.646178046329858 L-18.12359490531832,20.55602864847434 L-18.16803159568443,20.470653697170683 L-18.216319043072257,20.390204098217485 L-18.268183502650977,20.31481635061248 L-18.323348453595106,20.244611270457835 L-18.381568908360123,20.179657857608465 L-18.442632896703884,20.11999333629481 L-18.50633539677211,20.06565954554313 L-18.57248183746551,20.016697840853315 L-18.640887639961157,19.973149447965785 L-18.711377759233862,19.935055816628395 L-18.78378622557761,19.902458974363316 L-18.8579559123558,19.875401806979824 L-18.933757437345545,19.85392374979058 L-19.011063102302124,19.838072845545135 L-19.089739185038077,19.82790403560614 L-19.169657622997736,19.823474186441334 L-19.25069559792631,19.824842027821308 L-19.33273512053892,19.832068091017213 L-19.415662615189657,19.845214646998464 L-19.499368365293044,19.864345608346667 L-19.583725536512883,19.88951952836476 " />
			<path d="M-19.583725536512897,19.889519528364765 L-19.639873300612102,19.909537687308468 L-19.69619808711907,19.932234977016137 L-19.752658144101154,19.95761913439035 L-19.809212502421033,19.985695754184537 L-19.865816430907227,20.016465800147742 L-19.922414918623875,20.04992044822663 L-19.978952734503665,20.08604533110761 L-20.03537613781206,20.1248214359467 L-20.091633624091056,20.166225684402814 L-20.14767895648835,20.210233883155873 L-20.203442005269782,20.256796736459535 L-20.258849014825806,20.30585215946155 L-20.313829338916264,20.357330529886042 L-20.36831528528141,20.411154970112197 L-20.475547113365227,20.525499965233962 L-20.580052261184637,20.64813296698786 L-20.681206169710457,20.777971435605057 L-20.778565524125884,20.913974916982333 L-20.871836303216387,21.055186861130057 L-20.96075131592076,21.20060747811733 L-21.045068473918192,21.34920039926708 L-21.124569818249523,21.499898607943546 L-21.19906129997268,21.65160963993205 " />
			<path d="M-15.400785694243005,29.89828557619863 L-15.304216746953212,29.928696981191816 L-15.204777488621657,29.95650834578127 L-15.102486582132354,29.981712965189413 L-14.997362690369325,30.004304134638677 L-14.889424476216584,30.024275149351478 L-14.77869060255815,30.041619304550245 L-14.665154167680372,30.056309879659775 L-14.548873992298272,30.068232417838832 L-14.430187954444229,30.07731285381117 L-14.309454251364691,30.083484369358906 L-14.187031080306117,30.086680146264175 L-14.063276638514958,30.0868333663091 L-13.938538704065591,30.083878353052175 L-13.812753237662953,30.07778149776612 L-13.685807326336464,30.068479085023544 L-13.557715352685687,30.055887678236125 L-13.42841144044204,30.0398874160238 L-13.298363255638103,30.020450227629368 L-13.168383278346338,29.997629746952423 L-13.039075185268414,29.971473897414945 L-12.910395751867624,29.941965018706856 L-12.782358966544514,29.90904700118968 L-12.65498636727797,29.872663364041003 L-12.528299492046878,29.832757626438397 L-12.402319878830124,29.789273307559448 L-12.277142229206007,29.742176685557098 L-12.153490979444221,29.691657516259845 L-12.031648754200882,29.637819648358278 L-11.911743660969883,29.58072386509134 L-11.793903807245117,29.52043094969799 L-11.678257300520482,29.457001685417172 L-11.564932245287974,29.390496853230776 L-11.45382013255476,29.32081061358807 L-11.344870126543956,29.24792531490196 L-11.238291675912258,29.172030136553335 L-11.134294229316364,29.0933142579231 L-11.033087235412971,29.01196685839215 L-10.934880142858779,28.928177117341377 L-10.839812668128445,28.842102692526822 L-10.74770323545396,28.753730255745808 L-10.658484725853668,28.663065497895968 L-10.572113338791091,28.570123082929065 L-10.48854527372975,28.47491767479687 L-10.407736730133163,28.377463937451143 L-10.329657348292718,28.27779435902976 L-10.254677507947362,28.17648915833437 L-10.182917413987598,28.073840764707615 L-10.114290265993025,27.96987419241468 L-10.048709263543241,27.864614455720755 L-9.986087606217845,27.758086568891024 L-9.926338493596434,27.65031554619068 L-9.86938084897292,27.54132317654503 L-9.815161837956396,27.431120949328403 L-9.763635928520438,27.319720893187267 L-9.714757514744846,27.207135143526088 L-9.668480990709421,27.093375835749338 L-9.62476075049396,26.97845510526148 L-9.583561336198805,26.86240643528131 L-9.544935669103204,26.745470650732173 L-9.508880888039634,26.62781098744485 L-9.475373770877889,26.509551668139828 L-9.444391095487749,26.39081691553759 L-9.415909639739004,26.271730952358624 L-9.389906178317553,26.15241799584107 " />
			<path d="M-9.3554837730161,25.97370873512558 L-9.33169512497303,25.830524375113182 L-9.31116190992908,25.686904213248873 L-9.293862470329605,25.54286332253037 L-9.279775148619956,25.39841677595539 L-9.26887828724549,25.253579646521654 L-9.261150228651559,25.10836700722688 L-9.256569315283517,24.962793931068784 L-9.25511388958672,24.816875491045106 " />
			<path d="M-9.255113889586722,24.816875491045092 L-9.258435723002632,24.607132033205755 L-9.268172294540355,24.397185609608115 L-9.28448942685414,24.187843824965622 L-9.307504681660726,23.979587264740612 L-9.337333195343074,23.772883947850822 L-9.374170872022814,23.567894129769854 L-9.395397165432525,23.466135358224236 L-9.418606869829192,23.364944648621012 L-9.44388381591811,23.26437997866955 L-9.471311834404577,23.164499326079213 L-9.500974755993889,23.065360668559368 L-9.532916577186354,22.96728590727921 L-9.567228300183276,22.870698961230048 L-9.604073215416339,22.77576889138643 L-9.64361951583759,22.68265613491669 L-9.686144829470306,22.591439789916866 L-9.731828807999198,22.502648103991955 L-9.78079198211837,22.416954405818174 L-9.833144154360653,22.335032400693784 L-9.889046476835286,22.257553256053615 L-9.94888970260412,22.185178905013945 L-10.01308954932319,22.11857031642973 L-10.046918140499907,22.087677213189494 L-10.081713201116079,22.0587854591804 L-10.117431187410801,22.032025435430786 L-10.154065009830852,22.007480111563176 L-10.191607578823008,21.985232457200105 L-10.230051804834043,21.965365441964106 L-10.269390598310736,21.94796203547771 L-10.30961686969985,21.933105207363443 " />
			<path d="M-10.309616869699862,21.93310520736344 L-10.37048411953196,21.915998057311356 L-10.432189558626028,21.904800747506876 L-10.494618948147291,21.899289412889832 L-10.55765804926097,21.899240188400054 L-10.621192623132286,21.904429208977373 L-10.684774381291689,21.914500536831536 L-10.747947435026434,21.928970878358996 L-10.810718415888699,21.947466324056904 L-10.873095317142512,21.969613389715693 L-10.935086132051902,21.995038591125795 L-10.996771515943692,22.023437843310564 L-11.058212181495078,22.054593722157097 L-11.119316482842294,22.088216066228213 L-11.179991264931026,22.124013681473343 L-11.299749031681348,22.201014255076434 L-11.417734217813443,22.28414487750273 L-11.534441984161237,22.37256062691723 L-11.650358939452998,22.465514325382564 L-11.765765821833416,22.562507620102394 L-11.880676890605434,22.663017655194707 L-11.995104320329485,22.76652051420894 L-12.222522707303586,22.980431864280447 L-12.448063357745863,23.201327486120565 L-12.672446680907875,23.428118123826764 L-12.896420610133873,23.659970276062968 L-13.120403708259495,23.89652108142321 L-13.344798526639789,24.13757453828829 L-13.570043124378776,24.3832454556701 L-13.795153851422462,24.63238581640824 L-14.018741758195214,24.883345834673207 L-14.23982664533061,25.135202765205335 L-14.458078634987938,25.38814597102692 L-14.673178466326714,25.64238276505734 L-14.88480687850645,25.898120460215992 L-15.092057276049019,26.155033760516503 L-15.292173021065596,26.411092244522475 L-15.482764767667422,26.664584590437258 L-15.662612445402258,26.915432309398696 L-15.748182060168215,27.040095473810794 L-15.830616180078458,27.16432247968478 L-15.909660656630008,27.288045365988065 L-15.984444116720118,27.410254572107416 L-16.054609325572432,27.530718621776188 L-16.11995646634912,27.64944518361748 L-16.18028572221235,27.7664419262544 L-16.2354039344279,27.88175282754315 L-16.285135677503416,27.995672136757307 L-16.329144242384555,28.107927468436028 L-16.367059344794196,28.218097978391995 L-16.398510700455226,28.32576282243789 L-16.42314338668948,28.430519998059545 L-16.4408898417602,28.532401896726686 L-16.451650348941033,28.631587550319843 L-16.45525605460301,28.72819521606992 " />
			<path d="M-16.45525605460301,28.728195216069945 L-16.454211283860893,28.778324125351414 L-16.451089899274308,28.827781522721892 L-16.445866865656907,28.87658494166188 L-16.43851863475672,28.924690577173983 L-16.42903943353517,28.971911231561418 L-16.417435180166912,29.0182300590502 L-16.40371199714636,29.063644388128264 L-16.38787600696792,29.108151547283533 L-16.36993333212602,29.15174886500394 L-16.349890095115068,29.194433669777403 L-16.32775241842948,29.236203290091858 L-16.303526424563675,29.27705505443523 L-16.27721715221376,29.316987276250696 L-16.248741119632392,29.356080339123054 L-16.2180778230902,29.394362578451858 L-16.185276497521745,29.43179997330141 L-16.15038637786159,29.468358502736006 L-16.113456699044303,29.504004145819955 L-16.074536696004447,29.538702881617557 L-16.033675603676585,29.57242068919311 L-15.946327090895112,29.63677743593529 L-15.851789393818713,29.696944207116058 L-15.750127832513847,29.75312991356297 L-15.64118229338559,29.80538660315751 L-15.524789379579968,29.853757437001963 L-15.40078569424303,29.89828557619862 " />
			<path d="M-12.357309879698759,31.12215899706904 L-12.417613631417563,31.157523476027514 L-12.478682944782177,31.186112628039055 L-12.54005765202157,31.207711028930177 L-12.601275284169386,31.222155931038458 L-12.661874555847074,31.22933848954414 L-12.721398841128494,31.229204582634555 L-12.779399614294737,31.221755219321274 L-12.835439829552497,31.207046531837047 " />
			<path d="M-16.83339417243988,29.874395084207922 L-16.885709934734756,29.890543024525158 " />
			<path d="M-14.00496704769369,30.817204125789985 L-14.057282809988564,30.833352066107224 " />
			<path d="M-29.43685530079597,13.57498091444686 L-29.43685530079597,8.360680789878707 " />
			<path d="M-30.275831608669133,14.259159833349212 L-30.176796366685483,14.156466426522764 L-30.075770099023913,14.058390726719333 L-29.97291115446907,13.965086457997296 L-29.86838075434723,13.876699865663909 L-29.762342739827634,13.793369487050093 L-29.65496331511751,13.715225934366744 L-29.54641078695324,13.642391689982874 L-29.43685530079604,13.574980914446494 " />
			<path d="M-30.275831608669186,14.259159833349116 L-30.322019098542455,14.305444209829409 L-30.36517554296011,14.357718137463696 " />
			<path d="M-31.7344819367228,17.976431262219776 L-31.73144247728997,17.85637740913502 L-31.725585074450365,17.735571595609603 L-31.716915571146686,17.614134329224484 L-31.705442615479896,17.492186747454635 L-31.691177652082445,17.369850496830587 L-31.674134910701902,17.247247611592226 L-31.654331392006338,17.124500391955813 L-31.631786850625627,17.001731282115692 L-31.606523775445584,16.87906274810237 L-31.57856736717459,16.75661715561881 L-31.547945513205104,16.63451664797683 L-31.514688759795117,16.51288302425531 L-31.4788302815973,16.391837617801805 L-31.44040584856625,16.27150117519873 L-31.399453790276844,16.151993735814862 L-31.356014957689272,16.033434512062314 L-31.310132682398955,15.915941770478426 L-31.26185273341189,15.799632713751183 L-31.21122327148866,15.68462336380587 L-31.15829480110255,15.571028446069569 L-31.10312012005976,15.458961275028951 L-31.045754266831946,15.348533641195532 L-30.98625446565361,15.239855699591134 L-30.924680069439145,15.133035859864806 L-30.861092500576433,15.028180678150804 L-30.795555189656106,14.92539475077551 L-30.728133512197534,14.82478060991932 L-30.658894723434702,14.72643862133759 L-30.587907891227005,14.630466884242647 L-30.515243827161903,14.536961133446761 L-30.440975015918138,14.446014643863663 L-30.365175542960014,14.357718137463916 " />
			<path d="M-31.734481936722524,17.976431262219695 L-31.73751298217867,18.0462186033895 L-31.734481936722524,18.11398524758854 " />
			<path d="M-30.365175542960003,20.819827443169313 L-30.440975015918134,20.782063918741645 L-30.5152438271619,20.740629969987722 L-30.587907891227,20.69556692856857 L-30.6588947234347,20.646919746278762 L-30.728133512197534,20.594736950205586 L-30.795555189656106,20.539070594321778 L-30.861092500576433,20.479976207560036 L-30.92468006943914,20.417512738421173 L-30.98625446565361,20.351742496171155 L-31.045754266831946,20.28273108868565 L-31.10312012005976,20.210547357004106 L-31.15829480110255,20.13526330665868 L-31.21122327148866,20.056954035846452 L-31.26185273341189,19.975697660516627 L-31.31013268239895,19.891575236447427 L-31.356014957689272,19.804670678390416 L-31.399453790276844,19.715070676362917 L-31.44040584856625,19.622864609171987 L-31.4788302815973,19.528144455256278 L-31.514688759795117,19.43100470093465 L-31.547945513205104,19.33154224615312 L-31.578567367174585,19.229856307824132 L-31.606523775445584,19.12604832085457 L-31.631786850625627,19.020221836961273 L-31.654331392006338,18.91248242137496 L-31.674134910701902,18.802937547535592 L-31.691177652082445,18.691696489884258 L-31.705442615479896,18.57887021485851 L-31.71691557114669,18.464571270199855 L-31.725585074450365,18.348913672683857 L-31.73144247728997,18.23201279438484 L-31.7344819367228,18.113985247588648 " />
			<path d="M-30.36517554296011,20.819827443169594 L-30.343976201433232,20.832580206529776 L-30.322019098542455,20.843330407858772 L-30.29930423428777,20.85207804715667 L-30.275831608669186,20.85882312442356 " />
			<path d="M-29.43685530079603,20.98368450474408 L-29.53203677996596,20.98891800977089 L-29.62647903422404,20.989558641118002 L-29.720070452417133,20.985605641692057 L-29.81270042890383,20.977063683118356 L-29.904259494267368,20.96394286021996 L-29.994639444685784,20.946258679087713 L-30.083733469806386,20.92403203875525 L-30.171436278973392,20.89728920650069 " />
			<path d="M-30.171436278973413,20.897289206500684 L-30.275831608669133,20.858823124423424 " />
			<path d="M-29.436855300795973,26.197984629311826 L-29.436855300795973,20.98368450474367 " />
			<path d="M-29.931905712541145,26.812405069065974 L-29.87852167147627,26.723567601340388 L-29.822372865702835,26.63770441427389 L-29.76361900592305,26.555059738704735 L-29.702427212702958,26.475868650677512 L-29.638971541111587,26.40035640278849 L-29.573432485635507,26.328737783472974 L-29.505996466776963,26.261216506057103 L-29.436855300795955,26.19798462931189 " />
			<path d="M-29.931905712541415,26.812405069065726 L-29.964688738297184,26.866448457134453 L-29.999506949245667,26.918233827884375 L-30.036212688706662,26.967541570493474 L-30.074650295390143,27.01416258123749 L-30.114656763522888,27.05789915025464 L-30.156062434121576,27.098565799991427 L-30.19869171448068,27.13599007177374 L-30.242363822824075,27.170013257167707 L-30.286893554962358,27.200491071028623 L-30.332092069704714,27.227294263383794 L-30.377767689694533,27.25030916755438 L-30.423726714272593,27.269438182191767 L-30.46977424092066,27.284600185184285 L-30.515714991801914,27.295730877678945 L-30.56135414189301,27.302783056759306 L-30.606498145195864,27.30572681562308 " />
			<path d="M-36.13391008332709,21.778314877492306 L-36.08466322462962,22.02485704364344 L-36.03003581253869,22.267709575592615 L-35.97006879440124,22.50669043713307 L-35.90480711999987,22.74162049416571 L-35.83429970785957,22.972323648973568 L-35.75859940857964,23.19862697222026 L-35.677762965218186,23.42036083257351 L-35.59185097075894,23.63735902385658 L-35.50092782269226,23.849458889632245 L-35.4050616747444,24.05650144512604 L-35.304324385791155,24.25833149639729 L-35.198791465994226,24.45479775666857 L-35.088542020200734,24.64575295972656 L-34.97365868864813,24.831053970309117 L-34.85422758501919,25.010561891395866 L-34.73033823189331,25.184142168321983 L-34.60208349364264,25.351664689637012 L-34.4695595068232,25.51300388463316 L-34.33286560811342,25.668038817469963 L-34.19210425985375,25.81665327782479 L-34.047380973243456,25.958735868001217 L-33.898804229252114,26.094180086429926 L-33.74648539730491,26.22288440749967 L-33.5905386518029,26.344752357658315 L-33.4310808865408,26.45969258772703 L-33.2682316270862,26.567618941373325 L-33.10211294118625,26.66845051969173 L-32.93284934726871,26.762111741843576 L-32.760567721106,26.848532401710493 L-32.58539720071234,26.927647720519214 L-32.407469089545074,26.99939839539808 L-32.22691675808289,27.06373064382901 " />
			<path d="M-32.226916758082865,27.06373064382902 L-32.13001467846968,27.094861468564826 L-32.03243116259215,27.123879949091673 L-31.934186839320713,27.15077995098748 L-31.835302477218573,27.17555578767036 L-31.735798980151266,27.198202221600738 L-31.635697382867658,27.218714465388594 L-31.535018846553246,27.237088182805444 L-31.43378465435677,27.253319489701067 L-31.332016206890987,27.26740495482455 L-31.229735017708666,27.279341600549678 L-31.126962708754682,27.289126903504382 L-31.02372100579518,27.296758795104186 L-30.92003173382485,27.30223566198947 L-30.815916812453146,27.305556346366565 L-30.711398251270573,27.306720146252484 L-30.606498145195946,27.305726815623327 " />
			<path d="M-35.93256688157255,20.81174390003459 L-35.96490366618516,20.866233529246497 L-35.995038141510484,20.922702635619594 L-36.022842513602065,20.980911745598128 L-36.04819886998921,21.040614006638492 L-36.07099967971889,21.101556234058727 L-36.091148249371805,21.163479984741297 L-36.10855913311877,21.22612265313577 L-36.12315849507839,21.289218584913524 L-36.134884422439505,21.352500203551617 L-36.14368718802029,21.415699145068373 L-36.14952946115077,21.478547396098303 L-36.152386465984286,21.540778430480234 L-36.15224608656665,21.60212833953846 L-36.14910891821732,21.6623369512637 L-36.14298826500481,21.721148933647672 L-36.13391008332691,21.778314877492193 " />
			<path d="M-26.365716086282635,14.598693985951305 L-29.43685530079597,13.57498091444686 " />
			<path d="M-26.560811770183225,14.213466602698709 L-26.63788737700958,14.15783542144713 L-26.713636825201366,14.09713613264817 L-26.78783871155646,14.031546150358668 L-26.86027615614194,13.961257183329678 L-26.930737436198527,13.886474674673272 L-26.999016604971455,13.807417201386045 L-27.064914093659034,13.724315835484433 L-27.128237294719476,13.637413468619155 " />
			<path d="M-28.856361936521466,18.26434622348127 L-28.876424354749165,18.429412466405264 L-28.89141055396215,18.593782039754835 L-28.901293348899586,18.757156773883274 L-28.90605481197661,18.91924030380182 " />
			<path d="M-28.90605481197661,19.0567942891707 L-28.901293348899586,19.21570351037125 L-28.89141055396215,19.3724897145414 L-28.87642435474917,19.526868488415644 L-28.85636193652147,19.678559785854493 " />
			<path d="M-28.906054811976333,18.919240303801757 L-28.906054811976333,19.056794289170604 " />
			<path d="M-27.663830975800874,20.07607010609444 L-28.85636193652118,19.67855978585434 " />
			<path d="M-17.37767435316536,32.013478112134855 L-17.28077227355218,32.04460893687066 L-17.183188757674646,32.07362741739751 L-17.084944434403216,32.100527419293314 L-16.986060072301072,32.12530325597619 L-16.886556575233765,32.14794968990657 L-16.786454977950157,32.168461933694424 L-16.68577644163575,32.18683565111128 L-16.58454224943927,32.2030669580069 L-16.482773801973487,32.217152423130386 L-16.380492612791166,32.229089068855515 L-16.27772030383718,32.23887437181022 L-16.17447860087768,32.24650626341002 L-16.07078932890735,32.2519831302953 L-15.966674407535649,32.2553038146724 L-15.862155846353076,32.25646761455832 L-15.757255740278445,32.25547428392916 " />
			<path d="M-15.75725574027837,32.255474283928905 L-15.712111736975512,32.25253052506514 L-15.666472586884414,32.24547834598477 L-15.62053183600316,32.23434765349011 L-15.574484309355093,32.2191856504976 L-15.528525284777034,32.200056635860214 L-15.482849664787217,32.17704173168963 L-15.437651150044859,32.15023853933445 L-15.393121417906576,32.11976072547353 L-15.349449309563182,32.08573754007957 L-15.306820029204076,32.04831326829726 L-15.265414358605389,32.00764661856047 L-15.225407890472644,31.96391004954332 L-15.186970283789165,31.917289038799304 L-15.150264544328168,31.867981296190205 L-15.115446333379687,31.816195925440283 L-15.08266330762392,31.762152537371563 " />
			<path d="M-14.057282809988564,30.833352066107224 L-14.128944962730353,30.859661887406205 L-14.200422987991018,30.890748982814213 L-14.271533231383364,30.92653347769235 L-14.342092983492487,30.966923427985726 L-14.411920949326158,31.011815056462908 L-14.480837714130995,31.061093019359316 L-14.548666204377593,31.114630702739472 L-14.615232142730152,31.17229054781665 L-14.680364495831611,31.233924404393985 L-14.74389591375377,31.299373911519016 L-14.805663159983254,31.36847090437354 L-14.865507530838567,31.441037846353364 L-14.923275263240544,31.516888285227726 L-14.978817929788523,31.595827332206404 L-15.031992820127105,31.67765216268358 L-15.082663307623642,31.762152537371797 " />
			<path d="M-29.43685530079597,20.983684504743678 L-28.376195129016153,21.337237895336948 " />
			<path d="M-16.885709934734756,29.89054302452516 L-16.953636181561315,29.915361411379862 L-17.02140563290173,29.944475118624396 L-17.088861855203948,29.97781694251802 L-17.155849137948646,30.01530991947552 L-17.22221285307886,30.056867503723737 L-17.287799811930977,30.10239376707689 L-17.352458618843098,30.151783620369475 L-17.416040020624646,30.204923056035653 " />
			<path d="M-17.416040020624667,30.204923056035593 L-17.416040020624667,29.680179801479657 " />
			<path d="M-17.416040020624663,30.204923056035593 L-29.436855300795973,26.197984629311822 " />
			<path d="M-27.76789613880893,28.52739010029869 L-27.711487307175616,28.563393333809604 L-27.68865244268626,28.57514201551646 L-27.669769669057885,28.582767967877185 " />
			<path d="M-27.66976966905788,28.58276796787718 L-27.65628885317178,28.586132428491727 L-27.64743643865324,28.58582077761201 " />
			<path d="M-27.64743643865324,28.58582077761201 L-27.644479535204802,28.583638994763067 L-27.64388685159653,28.579883702121112 L-27.650851981481505,28.56757781392678 L-27.67110619365001,28.548659229489825 L-27.708258201416353,28.522714173263015 L-27.76680298730129,28.48953485027879 L-27.8525333544631,28.448804924641195 L-27.972115612497007,28.400275727334094 L-28.1276973968184,28.345217048903923 " />
			<path d="M-28.127697396818412,28.345217048903915 L-30.278638676500826,27.713132140022623 " />
			<path d="M-20.27982248443018,31.03105955621701 L-21.58858228921935,30.609842125762984 " />
			<path d="M-19.67214879245458,31.24865331417074 L-20.27982248443016,31.031059556217016 " />
			<path d="M-18.723293739760198,13.154903581558964 L-18.673424167707964,13.068737273510312 L-18.62644570188212,12.979214374951518 L-18.582422942363415,12.88645798880588 L-18.541416424841323,12.79059566436495 L-18.503482537371447,12.691759221895524 L-18.468673442836288,12.590084571373621 L-18.4370370072161,12.485711525594693 L-18.408616733768387,12.378783607917068 L-18.383451703206546,12.26944785490301 L-18.36157651996003,12.157854614128762 L-18.343021264589773,12.044157337441627 L-18.327811452424424,11.928512369948344 L-18.315967998474232,11.811078735024964 L-18.3075071886708,11.692017915643833 L-18.302440657472317,11.57149363231838 L-18.300775371865015,11.449671617971077 " />
			<path d="M-19.28663068629671,8.48676506332246 L-19.350198840813494,8.40385001952689 L-19.4152067568576,8.323180824935019 L-19.481588785134008,8.24483894463722 L-19.549277888678226,8.168903493447903 L-19.61820571055468,8.095451156010135 L-19.68830264288806,8.024556109354414 L-19.759497897157964,7.956289947989804 L-19.831719575685803,7.8907216116030545 " />
			<path d="M-19.83171957568581,7.8907216116030465 L-19.95515059935384,7.786829884555087 L-20.08092020221332,7.691032932411371 L-20.14457021563837,7.646256219082053 L-20.20867002366394,7.6036037134424 L-20.27317395758839,7.563105803798003 L-20.338036060785566,7.524791343385866 L-20.403210121447184,7.488687629817566 L-20.468649705507005,7.454820385630724 L-20.53430818972336,7.423213739962666 L-20.60013879489646,7.3938902113593254 L-20.66609461919679,7.366870691731619 L-20.732128671580938,7.342174431470751 L-20.798193905270914,7.319819025733033 L-20.86424325127323,7.2998204019039985 L-20.930229651913766,7.282192808250733 L-20.996106094364613,7.26694880377053 L-21.061825644138935,7.254099249243071 L-21.12734147853002,7.243653299492529 L-21.192606919970707,7.235618396865102 L-21.25757546928939,7.230000265926625 L-21.322200838838928,7.226802909384024 L-21.38643698547486,7.226028605233546 L-21.450238143359403,7.2276779051377655 L-21.513558856567897,7.2317496340325516 L-21.576354011474436,7.238240890964255 L-21.638578868893635,7.247147051156524 L-21.700189095955604,7.258461769305291 L-21.761140797691475,7.272176984099559 L-21.82139054830688,7.288282923964779 L-21.880895422121224,7.306768114024735 " />
			<path d="M-21.880895422121235,7.306768114024738 L-21.969141541620953,7.339119418760985 L-22.05545386398135,7.376800347396168 L-22.13969250996794,7.419749833569101 L-22.221720960981845,7.467898272603614 L-22.30140628030418,7.52116763431109 L-22.3786193285356,7.579471589447531 L-22.453234972881805,7.642715649620216 L-22.525132289945923,7.710797320417214 L-22.594194761699043,7.783606267511594 L-22.660310464311333,7.861024495471135 L-22.723372249537725,7.942926538983747 L-22.783277918364195,8.029179666188718 L-22.83993038663327,8.119644093784249 L-22.893237842380252,8.214173213562685 L-22.943113894625288,8.312613830006288 L-22.98947771338007,8.414806408558523 " />
			<path d="M-19.678674199847332,8.082086297897124 L-19.61367468917216,8.141097800645305 L-19.54959896032915,8.20253734587356 L-19.486511721229007,8.266342887863821 L-19.424476681540103,8.332449991557933 L-19.363556488350216,8.400791897628446 L-19.303812662901365,8.4712995898966 L-19.245305538461583,8.543901865029422 L-19.18809419939641,8.618525404445576 " />
			<path d="M-19.188094199396403,8.618525404445581 L-19.087551361942918,8.759179123342854 L-18.99182071410739,8.905798449474583 L-18.901221973024,9.057893709869507 L-18.816057716503664,9.214956943264692 L-18.736612372497568,9.376463596572894 L-18.66315126917682,9.541874276762575 L-18.595919748800753,9.710636552299752 L-18.535142348333313,9.882186798135264 L-18.481022049544077,10.05595207807567 L-18.4337396010984,10.231352058251106 L-18.39345291490073,10.407800945289601 L-18.36029653870718,10.584709442724778 L-18.334381206768644,10.761486719103061 L-18.315793470005296,10.937542381217368 L-18.30459540694751,11.11228844587715 L-18.300824416408613,11.285141303629564 " />
			<path d="M-18.300824416408613,11.285141303629576 L-18.3031251056529,11.420537811747476 L-18.31010352090934,11.554094767801647 L-18.321744993134406,11.68553142713459 L-18.33802505126176,11.814571502078502 L-18.358909473641855,11.940943742728367 L-18.38435435997792,12.064382507125375 L-18.414306223606953,12.18462831965211 L-18.448702103931883,12.301428416465706 L-18.487469698768482,12.414537276822472 L-18.530527516328863,12.523717139177075 L-18.57778504652204,12.628738500971448 L-18.629142951211538,12.729380601062793 L-18.68449327303004,12.825431883776625 L-18.7437196623122,12.91669044360937 L-18.806697621668555,13.002964449645734 L-18.873294767686414,13.08407254879867 " />
			<path d="M-22.63621870783054,8.883236102847448 L-22.5967182049644,8.754274294371987 L-22.551834636148737,8.62997424224828 L-22.501684818455484,8.510659458365296 L-22.446399275259143,8.396640479609033 L-22.38612189652763,8.288214059637793 L-22.32100956432432,8.18566239653066 L-22.251231744495982,8.089252398319301 L-22.176970045609266,7.999234988314717 L-22.098417746283722,7.91584445203693 L-22.015779292151542,7.839297827447327 L-21.929269763753247,7.769794340070692 L-21.884633330141128,7.737741031648679 L-21.839114316754234,7.707514884477113 L-21.792742346142912,7.6791355689200795 L-21.745547595939136,7.6526215534733 L-21.697560779217724,7.627990092745316 L-21.648813124509093,7.605257216228666 L-21.59933635547657,7.584437717868318 L-21.549162670271482,7.565545146434168 L-21.498324720579475,7.548591796703866 L-21.44685559037167,7.533588701461703 L-21.39478877437448,7.520545624318774 L-21.342158156272188,7.5094710533590785 L-21.28899798665632,7.500372195615709 L-21.2353428607363,7.493254972380704 L-21.181227695825793,7.488124015351632 L-21.1266877086195,7.484982663617403 L-21.01647549331492,7.484675657150525 L-20.90499306073576,7.4923347520162755 L-20.792530562750283,7.507940014126088 L-20.679380702012594,7.531450828148462 L-20.565837970154494,7.562806003217214 L-20.452197881321265,7.601923932191061 L-20.338756203046174,7.648702804049989 L-20.225808186465475,7.70302086887563 L-20.113647797877448,7.764736754726005 L-20.002566953645438,7.833689835579891 L-19.89285476043619,7.909700649393178 L-19.7847967627709,7.9925713651791614 L-19.67867419984735,8.082086297897106 " />
			<path d="M-19.55766249508213,9.872239836020926 L-19.510889394801033,9.974597081055252 L-19.468473565510592,10.079398672523894 L-19.430596638303633,10.186195833922746 L-19.39742080799742,10.2945312434109 L-19.369088138590577,10.403940992132974 L-19.34571995492321,10.51395657074805 L-19.32741632314534,10.624106875658597 L-19.31425562221825,10.733920226348408 L-19.30629420828379,10.842926385190975 L-19.30356617333868,10.950658571079204 L-19.30608319924737,11.056655458253775 L-19.313834507718504,11.160463151770871 L-19.3267869064592,11.261637131150001 L-19.344884931309565,11.359744153878955 L-19.36805108374873,11.45436411062474 L-19.396186162755413,11.545091824206246 " />
			<path d="M-20.06118610633059,9.190937217946216 L-19.988134134150737,9.259219008025852 L-19.9173957977197,9.33300850327535 L-19.849274009454017,9.411989725747677 L-19.7840604773093,9.495824465722794 L-19.722034455641946,9.58415372997358 L-19.66346154939915,9.676599279029963 L-19.608592576757715,9.77276524685838 L-19.55766249508213,9.872239836020922 " />
			<path d="M-20.689907710959773,8.872566858437903 L-20.61015108383221,8.88847714305334 L-20.53004452038115,8.911482706421776 L-20.44993104920947,8.941485035188984 L-20.37015372849998,8.978355654777147 L-20.291054176987583,9.021936679532704 L-20.212971111095445,9.072041488816973 L-20.136238894499243,9.12845552614437 L-20.06118610633059,9.190937217946214 " />
			<path d="M-21.660676594511553,9.545745869039443 L-21.627693067665028,9.459298908620534 L-21.590002333504344,9.377502880520318 L-21.54776578953956,9.300708047888676 L-21.50116429913621,9.229243257988694 L-21.450397417030594,9.1634145340222 L-21.395682534805754,9.103503764691425 L-21.337253949987364,9.049767497108313 L-21.275361862745736,9.002435838220398 L-21.210271304500285,8.961711469457526 L-21.142261003014298,8.927768778818859 L-21.071622188839875,8.90075311411669 L-20.99865734822398,8.880780160574789 L-20.92367892781589,8.86793544544653 L-20.84700799672269,8.862273971774048 L-20.768972871642063,8.863819982856773 L-20.689907710959783,8.872566858437901 " />
			<path d="M-21.75327278141955,10.148443526571635 L-21.753297549385202,10.138676980262746 " />
			<path d="M-21.753297549385202,10.138676980262732 L-21.75185288123895,10.059197018097208 L-21.74747466605759,9.980882929345253 L-21.74017340202196,9.903922497254403 L-21.72996659626383,9.828500259244425 L-21.716878722886932,9.75479706441943 L-21.70094116428243,9.682989639923903 L-21.6821921358795,9.61325016718246 L-21.66067659451156,9.545745869039456 " />
			<path d="M-19.396186162755413,11.545091824206251 L-19.42056740715725,11.61057548370503 L-19.44763651877863,11.67347489127198 L-19.477327823331322,11.733637442201026 L-19.509569284639163,11.790917171867772 L-19.54428267941013,11.845175109864584 L-19.581383787019416,11.896279617166549 L-19.620782593843035,11.94410670551023 L-19.66238351164626,11.98854033821037 L-19.70608560949701,12.029472711684713 L-19.75178285864151,12.066804517003899 L-19.799364389748185,12.1004451808319 L-19.84871476189558,12.130313085172396 L-19.899714242651747,12.156335765387976 L-19.952239098565588,12.178450086011726 L-20.006161895365334,12.196602393924653 L-20.061351807135857,12.210748648527325 " />
			<path d="M-19.557662495082326,9.872239836021055 L-19.582611887939127,9.982316840051775 L-19.6043339669269,10.092638594138863 L-19.62239467614269,10.203238015814414 L-19.63635995968353,10.314148022610519 L-19.6457025257865,10.425773155061327 L-19.649911236092628,10.53790766214448 L-19.648576264804852,10.649669024057305 L-19.641287786126128,10.760174720997124 L-19.627780803086818,10.86833020284227 L-19.608392484099657,10.973626167537635 L-19.58361625144114,11.076057967380391 L-19.553945527387754,11.17562095466772 L-19.519873734216,11.272310481696794 L-19.48189429420236,11.366121900764789 L-19.440500629623337,11.457050564168883 L-19.39618616275542,11.54509182420625 " />
			<path d="M-20.28785353702081,9.426994247956943 L-20.210524729473455,9.49155304408396 L-20.128303896760595,9.553306141508427 L-20.041506765625822,9.612434617409233 L-19.95044906281272,9.669119548965265 L-19.855696097541294,9.723430099475756 L-19.75812502118246,9.775350855804616 L-19.65851932370616,9.824936030477748 L-19.55766249508233,9.872239836021054 " />
			<path d="M-20.68990771095974,8.872566858438228 L-20.657675710311747,8.94281827790891 L-20.621123862317784,9.013477307016947 L-20.579850905186305,9.084139287452981 L-20.533455577125753,9.154399560907654 L-20.481484880749477,9.223948459734933 L-20.42349048423588,9.292654981173635 L-20.359078124140982,9.360382464241669 L-20.28785353702081,9.42699424795694 " />
			<path d="M-21.660676594511557,9.54574586903944 L-21.611320407044694,9.487773270413399 L-21.58035708180709,9.456258564955226 L-21.54451402800925,9.42278085532278 L-21.502992098795435,9.386956610450625 L-21.45529687931831,9.348628558542302 L-21.341146238952206,9.264986388998514 L-21.203070405819393,9.1735335261257 L-21.045451746550313,9.076447329462189 L-20.872870701484064,8.975525779926768 L-20.68990771095974,8.872566858438228 " />
			<path d="M-21.75245864694083,10.19875296346887 L-21.74932876941354,10.117176811455751 L-21.743458899896936,10.035337644198881 L-21.735027194524754,9.953359864350052 L-21.724211809430756,9.871367874561061 L-21.711190900748687,9.789486077483708 L-21.696142624612296,9.707838875769788 L-21.660676594511557,9.545745869039441 " />
			<path d="M-19.396186162755416,11.545091824206251 L-19.64461959009814,11.685717916115424 L-19.76081510358385,11.754273576649204 L-19.87079585290841,11.821644554105616 L-19.972739453742697,11.887046911301674 L-20.06422583032119,11.94926414241562 L-20.143278082507173,12.00714109769313 L-20.2103924765114,12.060646484409594 " />
			<path d="M-21.14849503889124,10.401561530363248 L-19.557662495082322,9.872239836021055 " />
			<path d="M-20.391444393210346,11.87624658647373 L-19.396186162755413,11.545091824206247 " />
			<path d="M-21.14849503889124,10.401561530363248 L-21.08521686275662,11.05710665719506 " />
			<path d="M-22.2731006245009,9.399346599478537 L-20.68990771095974,8.87256685843823 " />
			<path d="M-21.726982914564758,9.89080759732767 L-21.148495038891244,10.401561530363248 " />
			<path d="M-29.422787373772106,29.080233286652785 L-29.504505214355497,29.105060805465087 L-29.587599181018607,29.125408057082183 " />
			<path d="M-29.587599181018614,29.125408057082183 L-29.661965335787837,29.13961797602777 L-29.737238522723665,29.150304242169426 L-29.813340247303746,29.157455711919496 L-29.890191151010594,29.16106492775924 L-29.967711094086283,29.1611281260155 L-30.04581923910181,29.157645240785435 L-30.124434135253978,29.150619904005243 L-30.203473803301904,29.1400594416628 L-30.282855821054586,29.125974866158153 L-30.36249740932038,29.10838086481985 L-30.44231551822874,29.08729578458904 L-30.522226913834224,29.062741612887397 L-30.602148264912472,29.03474395468872 L-30.681996229857603,29.003332005818212 L-30.761687543590444,28.968538522507174 L-30.841139104386972,28.930399787235004 L-30.92026806053638,28.88895557089397 L-30.998991896738456,28.84424909131633 L-31.077228520150157,28.79632696820696 L-31.154896345991617,28.745239174528578 L-31.23191438262239,28.69103898439015 L-31.308202315999125,28.63378291749291 L-31.383680593426696,28.573530680191883 L-31.458270506515344,28.51034510323439 L-31.531894273257446,28.444292076240416 L-31.604475119138193,28.37544047899327 L-31.675937357195718,28.303862109612034 L-31.746206466947076,28.229631609680837 L-31.815209172097866,28.152826386412976 L-31.8828735169544,28.07352653193103 L-31.949128941458756,27.99181473974718 L-32.01390635476845,27.907776218530824 " />
			<path d="M-32.013906354768466,27.9077762185308 L-32.09492200926424,27.796433929671927 L-32.17324253098435,27.681581469831485 L-32.248732882056466,27.563416864143512 L-32.32126290430276,27.442143848443635 L-32.390707543654784,27.31797151799391 L-32.45694706576782,27.191113966967116 L-32.5198672624633,27.06178991931205 L-32.579359648643,26.93022235163635 " />
			<path d="M-32.61346708418074,26.915546272891113 L-32.56055311188349,27.031229015802225 L-32.50469290930034,27.144946871738657 L-32.44597886710158,27.256511755651474 L-32.384508096100724,27.365739143426342 L-32.320382266636834,27.472448377079488 L-32.253707440415646,27.576462963559155 L-32.184593895087474,27.677610866658487 L-32.11315594185217,27.775724791556904 " />
			<path d="M-10.159678664523593,22.003969659567144 L-10.264834508627139,21.949829953705127 " />
			<path d="M-10.779748837133216,21.937846851177067 L-10.649386856454946,21.971454036484282 L-10.523915343209413,22.007069469326265 L-10.403612477801168,22.04461418743294 L-10.288744981328115,22.084004951154114 L-10.179567524239449,22.125154428008457 L-10.076322161710843,22.16797138630662 L-9.979237796988732,22.2123608974192 L-9.888529673893467,22.258224546241124 " />
			<path d="M-9.581251068543562,26.401010186901132 L-9.52871348130883,26.351310458846385 L-9.482962136866433,26.300870638518262 L-9.44409037081538,26.24979362629928 L-9.41217748398525,26.198183622483207 L-9.387288580657563,26.146145914699936 L-9.369474435748966,26.09378666312216 L-9.358771391227247,26.041212683891985 L-9.355201281971437,25.98853123120934 " />
			<path d="M-9.355201281971437,25.988531231209333 L-9.359206602461445,25.932732783563086 L-9.371213396735836,25.87706204486865 L-9.3911941841894,25.82164643178339 L-9.419103233703625,25.766612777044756 L-9.454876668314009,25.712087039181306 L-9.498432611408758,25.658194014224524 L-9.54967137412425,25.605057050081335 L-9.608475683508376,25.552797764221037 " />
			<path d="M-9.60847568350838,25.55279776422103 L-9.67458881009523,25.501624406476417 L-9.747956162948235,25.45156156826488 L-9.828410408453866,25.40272343110306 L-9.915768049469317,25.355221383253603 L-10.009829843836169,25.30916376567482 L-10.11038125880471,25.26465562492053 L-10.217192960332518,25.22179847355366 L-10.330021336141264,25.180690058620065 L-10.448609051338819,25.141424138710594 L-10.572685635339392,25.104090270119848 L-10.701968098743105,25.06877360258944 L-10.836161578768003,25.035554685101527 L-10.97496001176246,25.00450928216559 L-11.11804683126413,24.97570820101746 L-11.265095690013306,24.94921713012477 L-11.415771204274002,24.925096489367004 L-11.569729718765082,24.903401292232076 L-11.72662009045683,24.8841810203435 L-11.886084489445322,24.867479510604525 L-12.047759215077967,24.853334855216474 L-12.211275525468846,24.841779314799453 L-12.376260478511913,24.83283924481347 L-12.542337782473902,24.826535035447865 L-12.70912865422695,24.822881065116093 L-12.876252683163504,24.821885667661967 L-13.043328698823112,24.82355111335211 L-13.209975640252278,24.827873603698034 L-13.375813425114538,24.834843280119586 L-13.54046381656856,24.84444424643003 L-13.703551285937088,24.85665460509152 L-13.864703869199223,24.8714465071582 L-14.02355401535251,24.888786215793072 " />
			<path d="M-9.933148243354687,25.92635427547361 L-9.881611640215324,25.972061794797973 L-9.83650578762598,26.01851856015916 L-9.7979282324984,26.06562410313166 L-9.76596240350424,26.113276552229205 L-9.740677430650374,26.161372853214264 L-9.722127995776829,26.20980899196543 L-9.71035421430062,26.25848021942065 L-9.705381548461272,26.30728127810985 L-9.707220752255614,26.356106629787064 L-9.71586784818095,26.404850683669775 L-9.7313041358369,26.453408024791877 L-9.753496232367288,26.501673641976385 L-9.782396144654648,26.549543154934952 L-9.8179413731112,26.596913040002953 L-9.860055046841834,26.64368085402207 L-9.908646089886801,26.689745455886097 " />
			<path d="M-9.908646089886812,26.689745455886108 L-9.949986956567361,26.72433725304998 L-9.994981380711387,26.758418692986123 L-10.043572777951699,26.791946915345754 L-10.09570004041736,26.824879755498902 L-10.151297613582093,26.857175797560036 L-10.210295578704752,26.888794426472128 L-10.272619740758172,26.919695879083577 L-10.3381917217358,26.949841294153806 L-10.478745310079681,27.007713368295907 L-10.631249533009054,27.06211962393564 L-10.79493748288392,27.11278646489113 L-10.968986011748608,27.15945909961184 L-11.152519870748012,27.201902822464977 L-11.344616111546921,27.23990419401456 L-11.544308727618727,27.273272114357837 L-11.75059351206361,27.301838784121443 L-11.962433107527339,27.32546054828475 L-12.178762222825869,27.34401861858695 L-12.398492990042557,27.357419670885115 L-12.620520435158422,27.365596314459207 L-12.843728034704938,27.36850743090407 L-13.066993330496286,27.366138380904154 L-13.289193574205894,27.35850107785116 L-13.509211373402007,27.34563392793443 L-13.725940310649758,27.327601637005287 L-13.938290507422556,27.304494885186653 L-14.145194104843233,27.276429870864153 L-14.345610633693571,27.243547726351938 L-14.538532246687733,27.206013808171697 L-14.722988786697709,27.16401686551384 L-14.898052665443874,27.11776809106249 L-15.0628435281169,27.067500058957478 L-15.21653268047371,27.01346555523402 L-15.358347256144679,26.955936306621606 L-15.424576284952119,26.925950912250414 L-15.48757410319567,26.895201614094574 L-15.54726148568805,26.863727082047312 L-15.60356337040031,26.831566898046 " />
			<path d="M-14.485309698473205,25.420043685769546 L-14.337108693354633,25.391964617518607 L-14.184567712796625,25.36659908133459 L-14.028133494634515,25.344021363777646 L-13.86826417860058,25.324297586886786 L-13.705427964597039,25.307485514532154 L-13.540101741506426,25.29363438324537 L-13.372769690555037,25.282784758023354 L-13.203921867319744,25.27496841352803 L-13.034052766530934,25.27020824102971 L-12.863659873874745,25.268518181366787 L-12.693242209035875,25.269903184118007 L-12.523298864247858,25.274359193106932 L-12.35432754263089,25.281873158281023 L-12.18682310059783,25.292423073930582 L-12.021276098597212,25.305978043135553 L-11.858171364437602,25.322498368251555 L-11.697986573400781,25.341935667170024 L-11.541190849302136,25.36423301501207 L-11.388243390595205,25.389325110841042 L-11.239592125544066,25.417138468905545 L-11.095672400402078,25.447591633852866 L-10.956905704438793,25.480595419282476 L-10.823698435549021,25.51605316894105 L-10.696440710059122,25.55386103979394 L-10.575505220216172,25.593908306144215 L-10.461246142706006,25.636077683908507 L-10.353998101396696,25.680245674100046 L-10.254075187345236,25.726282924512905 L-10.161770038937464,25.774054608548234 L-10.077352984855146,25.823420820073014 L-10.00107125238021,25.874236983154965 L-9.933148243354697,25.9263542754736 " />
			<path d="M-11.140299238323255,26.399556895376303 L-11.159872274462955,26.436770030489622 L-11.186704969684456,26.47347677682011 L-11.220682422267384,26.509519950444652 L-11.26165913554347,26.544745208960343 L-11.309459640935604,26.579001712402338 L-11.36387924934123,26.612142769163746 L-11.424684927642504,26.6440264641516 L-11.491616296589884,26.674516266489096 L-11.564386745786045,26.703481614161742 L-11.64268466099561,26.730798473103963 L-11.726174758525131,26.756349868332006 L-11.814499520959357,26.780026384848785 L-11.907280728105679,26.80172663617569 L-12.004121076591067,26.821357698505054 L-12.104605881176107,26.83883550861417 L-12.208304850500852,26.854085223836904 " />
			<path d="M-11.248488797750614,26.10288225193977 L-11.235016107369155,26.11439025053153 " />
			<path d="M-11.23501610736915,26.114390250531535 L-11.199790830391091,26.148672561890663 L-11.171086939140967,26.183623954510193 L-11.14901751079946,26.219106739569334 L-11.133669486496412,26.254981134860085 L-11.12510332881169,26.291105815450475 L-11.123352783586645,26.327338470425286 L-11.12842474698448,26.36353636351098 L-11.140299238323253,26.399556895376296 " />
			<path d="M-11.787195669793594,25.863986067302896 L-11.700299626775735,25.88824288370161 L-11.618349049949147,25.914342188771457 L-11.541694864265084,25.942172221281286 L-11.470665314714807,25.971613808759347 L-11.405564560734149,26.002540877808105 L-11.346671373746101,26.034820993969884 L-11.294237943418793,26.06831592883154 L-11.24848879775062,26.102882251939764 " />
			<path d="M-13.50209771344202,25.78294356768969 L-13.395628634284366,25.769987248975095 L-13.28684536223619,25.759379807714467 L-13.176213723969118,25.75116666659977 L-13.064207461142683,25.74538299556216 L-12.951306201769823,25.742053561168944 L-12.837993406376091,25.74119262056934 L-12.72475429774746,25.74280386044317 L-12.61207378313186,25.74688038121393 L-12.500434377791906,25.753404726593843 L-12.390314138800456,25.762348958334357 L-12.282184617926836,25.77367477586201 L-12.176508842379775,25.787333680287382 L-12.073739332053805,25.803267182084774 L-11.974316161769606,25.821407051553326 L-11.878665076806058,25.841675610987092 L-11.787195669793606,25.863986067302893 " />
			<path d="M-14.57010332561962,26.237471896150293 L-14.554100053189229,26.206095059172764 L-14.532934021171252,26.175059851736467 L-14.506669550722771,26.144460586296894 L-14.475386456573727,26.11439025053154 " />
			<path d="M-14.475386456573725,26.114390250531535 L-14.441599333858939,26.086771909137408 L-14.403578366085378,26.059772051723854 L-14.36142502519216,26.03346273663258 L-14.315251811767544,26.00791417925723 L-14.265181954802685,25.98319456464965 L-14.211349082812983,25.95936986554476 L-14.153896867204741,25.936503666289788 L-14.09297863883895,25.914656993147734 L-14.02875697881551,25.893888151427927 L-13.961403284570036,25.874252569878397 L-13.818026697929817,25.838587639964388 L-13.66437845526291,25.80804268556397 L-13.502097713442033,25.782943567689692 " />
			<path d="M-13.923206894149281,26.7730427242237 L-14.01010293716714,26.748785907824985 L-14.09205351399373,26.72268660275514 L-14.16870769967779,26.69485657024531 L-14.239737249228067,26.66541498276725 L-14.304838003208726,26.63448791371849 L-14.363731190196773,26.602207797556712 L-14.416164620524082,26.568712862695055 L-14.46191376619226,26.534146539586825 L-14.500782722336023,26.4986568465343 L-14.532605046117894,26.462395755851595 L-14.557244469461983,26.42551854309593 L-14.57459548257482,26.38818312215381 L-14.584583785754479,26.350549369029544 L-14.587166607553314,26.31277843723166 L-14.582332887931859,26.275032067688805 L-14.570103325619622,26.237471896150296 " />
			<path d="M-12.208304850500856,26.854085223836908 L-12.314773929658507,26.8670415425515 L-12.423557201706682,26.87764898381213 L-12.534188839973757,26.885862124926827 L-12.646195102800192,26.891645795964436 L-12.759096362173052,26.89497523035765 L-12.872409157566784,26.895836170957256 L-12.985648266195415,26.894224931083425 L-13.098328780811013,26.890148410312666 L-13.209968186150967,26.883624064932754 L-13.32008842514242,26.874679833192243 L-13.428217946016039,26.863354015664587 L-13.5338937215631,26.849695111239214 L-13.636663231889068,26.833761609441822 L-13.736086402173267,26.81562173997327 L-13.831737487136817,26.795353180539504 L-13.923206894149276,26.7730427242237 " />
			<path d="M-11.140299238323596,26.399556895376282 L-11.203254219475532,26.38038800262058 L-11.267024832070842,26.36570530164983 L-11.331720774037128,26.3561121604986 L-11.397451743301993,26.35221194720146 L-11.464576501063053,26.354788140228358 L-11.533072977669212,26.36451738193408 L-11.60247962477499,26.381842786180457 L-11.67233489403491,26.40720746682933 L-11.742016273868286,26.440825361957806 L-11.811139331742178,26.482160766322718 L-11.879599637882738,26.53053232880549 L-11.947292762516117,26.585258698287532 L-12.014114275868465,26.64565852365028 L-12.079959748165939,26.71105045377514 L-12.144724749634685,26.780753137543545 L-12.208304850500856,26.854085223836904 " />
			<path d="M-11.354314192987623,26.030352029085893 L-11.299043747467698,26.109201888527064 L-11.24475507380467,26.198513163768975 L-11.191760858647056,26.29603284585123 L-11.140299238323598,26.39955689537628 " />
			<path d="M-13.923206894149072,26.773042724223608 L-13.961207231723359,26.695796738600656 L-14.000083956662307,26.621538519246904 L-14.039740077859463,26.55116636629188 L-14.08007860420838,26.485578579865116 L-14.12095511944288,26.425727117237624 L-14.162313682999423,26.372281543463966 L-14.204190017325507,26.325716570348973 L-14.246619844868631,26.28650690969748 L-14.28906907262294,26.25544499498372 L-14.330977838324554,26.232653829991467 L-14.372343210533957,26.217603981989857 L-14.413162257811633,26.209766018248025 L-14.453443492621638,26.208554863619852 L-14.49311239862364,26.213253594920328 L-14.532041501171552,26.22313500736022 L-14.570103325619277,26.237471896150307 " />
			<path d="M-12.208304850500856,26.854085223836904 L-12.309391983943478,26.803346411407777 L-12.411788780943056,26.756684777550216 L-12.515671384019901,26.71464868027893 L-12.621215935694321,26.677786477608638 L-12.728998500646284,26.646701740685142 L-12.83898364152491,26.622082179090828 L-12.950430247804237,26.604602358495306 L-13.006470003429795,26.598750652843844 L-13.062597208958293,26.594936844568174 L-13.118642664304563,26.59323529717795 L-13.17448495497569,26.593611745134496 L-13.285476200582991,26.6002841356328 L-13.395403262361166,26.614325033152898 L-13.504098456891185,26.6351054547846 L-13.611394100754016,26.66199641761771 L-13.717122510530627,26.694368938742045 L-13.82111600280199,26.731594035247408 L-13.92320689414907,26.773042724223608 " />
			<path d="M-12.208304850500854,25.782943567689692 L-12.208304850500854,26.854085223836904 " />
			<path d="M-13.923206894149068,25.86398606730284 L-13.923206894149068,26.773042724223608 " />
			<path d="M-28.37619512901615,8.594864152463815 L-29.931905712541564,8.076293957955345 " />
			<path d="M-7.031241143322225,18.343115596868348 L-21.880483548239724,13.393368128562512 " />
			<path d="M-6.82989794156761,17.37654461941105 L-21.679140346485106,12.426797151105216 " />
			<path d="M-7.031241143322227,21.077463590562076 L-21.880483548239724,16.12771612225624 " />
			<path d="M-6.82989794156761,21.909805766850578 L-21.679140346485106,16.960058298544745 " />
			<path d="M-12.357309879698743,31.12215899706912 L-27.20655228461624,26.172411528763288 " />
			<path d="M-15.082663307624067,31.76215253737141 L-29.931905712541564,26.812405069065573 " />
			<path d="M-15.757255740278392,32.25547428392901 L-30.60649814519589,27.305726815623174 " />
			<path d="M-25.586133671729264,7.141381384768233 L-23.63786296167807,7.7908049547852976 " />
			<path d="M-18.710517694069193,9.433253377321591 L-14.947799204069941,10.68749287398801 " />
			<path d="M-13.031365740240927,11.326304028597681 L-10.736891266811767,12.091128853074068 " />
			<path d="M-28.376195129016153,8.53187065384137 L-30.128368195342123,7.9478129650660465 " />
			<path d="M-12.835439829552682,31.207046531836983 L-27.684682234470003,26.25729906353121 " />
			<path d="M-32.22691675808286,27.06373064382902 L-30.278646048032815,27.713154213845705 " />
			<path d="M-27.669773280116388,28.582778469817846 L-21.58858229042305,30.609842133048957 " />
			<path d="M-19.672148792757604,31.24865329893744 L-17.37767435316536,32.013478112134855 " />
			<path d="M-21.880895422121696,7.306768114024895 L-23.527811572592597,7.854750647195582 " />
			<path d="M-18.300824416408616,11.285141303628965 L-18.30077537186524,11.44967161797169 " />
			<path d="M-19.188094199396772,8.618525404445093 L-19.286630686296434,8.486765063323208 " />
			<path d="M-29.422787373771655,29.080233286652636 L-27.724461810971707,28.512880160496376 " />
			<path d="M-32.11315594185148,27.775724791557824 L-32.01390635476875,27.907776218530064 " />
			<path d="M-9.355201281971437,25.988531231209574 L-9.355201281971437,23.668176000109685 " />
			<path d="M-9.908646089886581,26.6897454558859 L-9.581251068544113,26.401010186901324 " />

       </g>
    </g>
    
</svg>
