<?xml version="1.0" encoding="UTF-8" standalone="no"?>
<svg
   xmlns:svg="http://www.w3.org/2000/svg"
   xmlns="http://www.w3.org/2000/svg"
   width="1024.0"
   height="320.0"

>
    <g transform="scale(16.767143191229767, -16.767143191229767)   translate(38.55550741379015,-13.839850873900158)" stroke-width="0.2733333333333334"  fill="none">
       <!-- hidden lines -->
       <g  stroke="rgb(32,64,32)" fill="none" stroke-dasharray="0.2733333333333334,0.2733333333333334" >

       </g>

       <!-- solid lines -->
       <g  stroke="rgb(64,192,64)" fill="none">
			<path d="M-1.7242425416281348,8.85334290194459 L-1.7637066856938626,8.838522089534344 L-1.7976146198363327,8.822244705791766 L-1.8254869771481042,8.804740869103698 L-1.8469297175301398,8.786258036599975 " />
			<path d="M-7.071067811865473,6.128258770283414 L-7.1387565002022955,6.104560219390395 L-7.202875156217852,6.0797831056014795 L-7.2632693124536685,6.053987119154004 L-7.319793474097469,6.027234404838784 L-7.372311469492923,5.999589412287863 L-7.420696778189088,5.971118740709714 L-7.464832835739265,5.941890978445904 L-7.504613314514952,5.911976537735775 L-7.53994237985842,5.881447485087195 L-7.570734920956796,5.850377367662023 L-7.596916755881467,5.8188410360945575 L-7.61842481029884,5.786914464169801 L-7.63520726942194,5.754674565795956 L-7.647223702836772,5.722199009712089 L-7.654445161902723,5.689566032377327 L-7.656854249492379,5.656854249492384 " />
			<path d="M-7.656854249492379,5.6568542494923815 L-7.653309711634115,5.617181158017702 L-7.642688661807954,5.577648689317709 L-7.625028746727098,5.538396967724339 L-7.600392562629126,5.499565122450784 L-7.568867433401254,5.4612907944427205 L-7.53056510105752,5.423709648504774 L-7.485621329664974,5.386954892431477 L-7.43419542412281,5.351156804847204 L-7.376469665500117,5.31644227342865 L-7.312648664933733,5.282934345146659 L-7.242958638376317,5.250751790121581 L-7.167646604765343,5.220008680638076 L-7.086979510455129,5.19081398681159 L-7.001243283015375,5.163271190339651 L-6.910741817750063,5.137477917707076 L-6.815795900529057,5.1135255941452 L-6.716742070750434,5.091499119571681 L-6.6139314284638475,5.071476567659531 L-6.507728389883117,5.053528909102018 L-6.398509395699156,5.037719760054369 L-6.28666157677169,5.0241051566438895 L-6.172581381929269,5.012733356347794 L-6.056673172741393,5.003644666942747 L-5.939347790243609,4.996871303632427 L-5.821021098695917,4.992437274859517 L-5.7021125115361535,4.990358297206865 L-5.583043504753176,4.990641739689469 L-5.4642361229492735,4.993286597634718 L-5.346111483387091,4.998283496243495 L-5.229088283323549,5.005614723819508 L-5.113581315921568,5.015254294549066 L-5.000000000000017,5.027168040608778 " />
			<path d="M-12.727922061357852,8.013876853447542 L-12.795610749694674,7.990178302554522 L-12.859729405710231,7.965401188765607 L-12.920123561946047,7.939605202318131 L-12.976647723589847,7.912852488002911 L-13.0291657189853,7.88520749545199 L-13.077551027681467,7.856736823873841 L-13.121687085231644,7.827509061610031 L-13.161467564007332,7.797594620899902 L-13.1967966293508,7.767065568251322 L-13.227589170449175,7.735995450826151 L-13.253771005373846,7.704459119258685 L-13.275279059791218,7.672532547333928 L-13.29206151891432,7.6402926489600835 L-13.304077952329152,7.607817092876216 L-13.311299411395103,7.575184115541454 L-13.313708498984758,7.542472332656511 " />
			<path d="M-13.313708498984758,7.542472332656509 L-13.312353268161457,7.517934184028936 L-13.308289412342138,7.4934292902567305 L-13.301522438989469,7.468990861127253 L-13.29206151891432,7.444652016352934 L-13.27991947384719,7.420445740686414 L-13.265112759061815,7.396404839218595 L-13.247661441074461,7.3725618929201655 L-13.227589170449175,7.348949214486867 L-13.179694096654236,7.3025423082998495 L-13.121687085231644,7.257435603702986 L-13.05388248120218,7.213873537836652 L-12.976647723589847,7.172092177310106 L-12.89040135423797,7.13231793893609 L-12.795610749694676,7.094766362758495 L-12.69278958845889,7.059640944022196 L-12.582495067312049,7.027132030414683 L-12.465324881820449,6.9974157905554515 L-12.3419139873712,6.970653259322993 L-12.21293115829397,6.94698946519283 L-12.079075363714937,6.92655264431565 L-11.94107197978254,6.9094535455944825 L-11.799668858791286,6.895784830526812 L-11.655632276505358,6.88562057106388 L-11.509742779643878,6.879015848208376 L-11.362790956030581,6.876006453525704 L-11.215573150329918,6.876608695186392 L-11.068887148586322,6.8808193095907 L-10.923527854952498,6.888615479054353 L-10.780282984034956,6.899954955459547 L-10.639928792200314,6.91477628920116 L-10.503225870974774,6.932999162187487 L-10.370915025332756,6.954524823090937 L-10.243713259210558,6.979236622490036 L-10.122309889999887,7.007000645002744 L-10.007362813077199,7.037666434985518 L-9.899494936611669,7.071067811865472 " />
			<path d="M-18.384776310850228,9.899494936611667 L-18.45246499918705,9.87579638571865 L-18.516583655202606,9.851019271929733 L-18.576977811438425,9.825223285482258 L-18.633501973082225,9.798470571167037 L-18.686019968477677,9.770825578616117 L-18.734405277173842,9.742354907037967 L-18.77854133472402,9.713127144774157 L-18.818321813499708,9.68321270406403 L-18.853650878843176,9.65268365141545 L-18.88444341994155,9.621613533990278 L-18.910625254866222,9.590077202422812 L-18.932133309283593,9.558150630498055 L-18.948915768406696,9.52591073212421 L-18.960932201821528,9.493435176040343 L-18.968153660887477,9.460802198705581 L-18.970562748477136,9.42809041582064 " />
			<path d="M-18.970562748477136,9.428090415820636 L-18.96920751765383,9.403552267193064 L-18.965143661834514,9.379047373420857 L-18.958376688481845,9.35460894429138 L-18.948915768406696,9.330270099517062 L-18.936773723339567,9.306063823850542 L-18.92196700855419,9.282022922382723 L-18.90451569056684,9.258179976084293 L-18.88444341994155,9.234567297650994 L-18.83654834614661,9.188160391463978 L-18.77854133472402,9.143053686867114 L-18.710736730694556,9.09949162100078 L-18.633501973082225,9.057710260474234 L-18.547255603730346,9.017936022100217 L-18.45246499918705,8.980384445922622 L-18.349643837951266,8.945259027186324 L-18.239349316804425,8.912750113578811 L-18.122179131312826,8.88303387371958 L-17.998768236863576,8.856271342487121 L-17.869785407786345,8.832607548356957 L-17.735929613207315,8.812170727479778 L-17.59792622927492,8.795071628758611 L-17.456523108283662,8.78140291369094 L-17.312486525997734,8.771238654228007 L-17.166597029136256,8.764633931372504 L-17.01964520552296,8.761624536689832 L-16.872427399822296,8.76222677835052 L-16.7257413980787,8.766437392754828 L-16.580382104444876,8.77423356221848 L-16.437137233527334,8.785573038623674 L-16.29678304169269,8.800394372365288 L-16.160080120467153,8.818617245351614 L-16.027769274825136,8.840142906255066 L-15.900567508702938,8.864854705654164 L-15.779164139492265,8.892618728166871 L-15.664217062569577,8.923284518149647 L-15.556349186104049,8.956685895029599 " />
			<path d="M-24.041630560342607,11.785113019775794 L-24.10931924867943,11.761414468882776 L-24.173437904694985,11.73663735509386 L-24.2338320609308,11.710841368646385 L-24.290356222574605,11.684088654331164 L-24.342874217970056,11.656443661780244 L-24.39125952666622,11.627972990202094 L-24.4353955842164,11.598745227938284 L-24.475176062992087,11.568830787228157 L-24.510505128335556,11.538301734579576 L-24.54129766943393,11.507231617154405 L-24.5674795043586,11.475695285586939 L-24.588987558775976,11.443768713662182 L-24.605770017899076,11.411528815288337 L-24.617786451313908,11.37905325920447 L-24.625007910379857,11.346420281869708 L-24.62741699796951,11.313708498984766 " />
			<path d="M-24.62741699796951,11.313708498984763 L-24.62606176714621,11.28917035035719 L-24.621997911326893,11.264665456584984 L-24.615230937974225,11.240227027455507 L-24.605770017899076,11.215888182681189 L-24.593627972831946,11.191681907014669 L-24.57882125804657,11.16764100554685 L-24.56136994005922,11.14379805924842 L-24.54129766943393,11.120185380815121 L-24.49340259563899,11.073778474628105 L-24.4353955842164,11.028671770031242 L-24.367590980186936,10.985109704164907 L-24.290356222574605,10.943328343638361 L-24.204109853222725,10.903554105264345 L-24.10931924867943,10.86600252908675 L-24.006498087443646,10.830877110350452 L-23.896203566296805,10.798368196742938 L-23.779033380805206,10.768651956883707 L-23.655622486355956,10.741889425651248 L-23.526639657278725,10.718225631521085 L-23.392783862699694,10.697788810643905 L-23.254780478767298,10.680689711922739 L-23.11337735777604,10.667020996855067 L-22.969340775490114,10.656856737392134 L-22.823451278628635,10.650252014536632 L-22.67649945501534,10.647242619853959 L-22.529281649314676,10.647844861514647 L-22.38259564757108,10.652055475918955 L-22.237236353937256,10.65985164538261 L-22.093991483019714,10.671191121787801 L-21.95363729118507,10.686012455529415 L-21.816934369959533,10.704235328515741 L-21.684623524317516,10.725760989419193 L-21.557421758195318,10.750472788818291 L-21.436018388984646,10.778236811330999 L-21.321071312061957,10.808902601313772 L-21.213203435596427,10.842303978193726 " />
			<path d="M-25.45584412271571,12.256517540566822 L-25.591221499389356,12.209120438780785 L-25.719458811420466,12.159566211202954 L-25.840247123892098,12.107974238308003 L-25.9532954471797,12.054468809677562 L-26.058331437970608,11.999178824575722 L-26.15510205536294,11.942237481419424 L-26.24337417046329,11.883781956891802 L-26.322935128014667,11.823953075471545 L-26.393593258701603,11.762894970174386 L-26.455178340898353,11.700754735324042 L-26.507542010747695,11.637682072189111 L-26.530225518123633,11.605843485860586 L-26.55055811958244,11.573828928339598 L-26.568527567525283,11.541657683998494 L-26.584123037828643,11.50934913159191 L-26.597335136364357,11.476922732583715 L-26.608155904658307,11.444398019424174 L-26.61657882468428,11.411794583784316 L-26.62259882279021,11.37913206475465 L-26.626212272754337,11.34643013701531 L-26.62741699796952,11.313708498984765 " />
			<path d="M-26.62741699796952,11.31370849898476 L-26.626212272754337,11.28098686095421 L-26.62259882279021,11.248284933214869 L-26.61657882468428,11.215622414185203 L-26.608155904658307,11.183018978545345 L-26.597335136364357,11.150494265385804 L-26.584123037828643,11.11806786637761 L-26.568527567525283,11.085759313971025 L-26.55055811958244,11.053588069629921 L-26.530225518123633,11.021573512108933 L-26.507542010747695,10.989734925780407 L-26.455178340898353,10.926662262645475 L-26.393593258701603,10.864522027795132 L-26.322935128014667,10.803463922497972 L-26.24337417046329,10.743635041077717 L-26.15510205536294,10.685179516550095 L-26.058331437970608,10.628238173393797 L-25.953295447179702,10.572948188291956 L-25.840247123892098,10.519442759661516 L-25.719458811420466,10.467850786766565 L-25.591221499389356,10.418296559188734 L-25.45584412271572,10.3708994574027 " />
			<path d="M-26.62741699796952,7.542472332656507 L-26.626212272754337,7.509750694625957 L-26.62259882279021,7.477048766886616 L-26.61657882468428,7.444386247856951 L-26.608155904658307,7.411782812217092 L-26.597335136364357,7.379258099057552 L-26.584123037828643,7.346831700049357 L-26.568527567525283,7.314523147642771 L-26.55055811958244,7.282351903301668 L-26.530225518123633,7.250337345780681 L-26.507542010747695,7.218498759452155 L-26.455178340898353,7.155426096317224 L-26.393593258701603,7.09328586146688 L-26.322935128014667,7.03222775616972 L-26.24337417046329,6.972398874749463 L-26.15510205536294,6.913943350221843 L-26.058331437970608,6.857002007065544 L-25.953295447179702,6.801712021963704 L-25.840247123892098,6.748206593333262 L-25.719458811420466,6.696614620438313 L-25.591221499389356,6.647060392860482 L-25.45584412271572,6.599663291074448 " />
			<path d="M-4.7624056649527935,7.814432720792423 L-4.8177506693728995,7.75264978794885 L-4.865884995192894,7.690199511453691 L-4.906736600255151,7.627175360002857 L-4.9402443423763955,7.563671661205088 L-4.966358070858588,7.499783460402783 L-4.985038701548964,7.435606378418591 L-4.996258275336896,7.3712364684406975 L-5.0,7.306770072260999 " />
			<path d="M-5.0,7.306770072260992 L-4.998494093481021,7.2658680247228045 L-4.993977281025862,7.224990615048628 L-4.986452283393451,7.1841624662615455 L-4.975923633360985,7.143408171711724 L-4.962397672993551,7.102752280262298 L-4.945882549823905,7.062219281502055 L-4.926388211944706,7.021833590993824 L-4.903926402016153,6.981619535567445 L-4.878510650192643,6.941601338666209 L-4.850156265972721,6.901803105755553 L-4.818880328977201,6.8622488098028285 L-4.784701678661046,6.822962276836888 L-4.747640902965184,6.7839671715961725 L-4.707720325915105,6.745286983273958 L-4.664963994173696,6.706945011369345 L-4.619397662556435,6.668964351652509 L-4.519946465617219,6.594178249877189 L-4.4096063217417765,6.521108844217662 L-4.288643050001361,6.449932165272289 L-4.157348061512727,6.3808196838949875 L-4.016037657403226,6.313937898106936 L-3.8650522668136853,6.249447931988248 L-3.704755626774795,6.18750514751596 L-3.535533905932738,6.128258770283412 L-3.3577947742350913,6.071851530002726 L-3.1719664208182263,6.018419316656429 L-2.9784965224621662,5.968090853126583 L-2.777851165098011,5.920987385090083 L-2.5705137209661095,5.877222388927204 L-2.356983684129989,5.836901298347066 L-2.1377754671514126,5.800121250388585 L-1.913417161825452,5.766970851408846 L-1.6844492669611042,5.737529963622624 L-1.4514233862723167,5.71186951270731 L-1.2149008995163253,5.690051316936751 L-0.9754516100806436,5.672127938255607 L-0.7336523722768076,5.658142555653023 L-0.4900857016478027,5.648128861140663 L-0.2453383716370906,5.642110978585704 L-1.4287651484327415e-15,5.640103405594324 L0.2453383716370878,5.642110978585704 L0.49008570164779985,5.648128861140663 L0.7336523722768047,5.658142555653022 L0.9754516100806407,5.672127938255607 L1.2149008995163222,5.690051316936751 L1.4514233862723138,5.71186951270731 L1.6844492669611013,5.737529963622624 L1.913417161825449,5.766970851408847 L2.13777546715141,5.800121250388585 L2.356983684129987,5.836901298347066 L2.5705137209661064,5.877222388927205 L2.7778511650980082,5.920987385090083 L2.978496522462163,5.968090853126583 L3.1719664208182237,6.018419316656429 L3.3577947742350873,6.071851530002725 L3.5355339059327355,6.128258770283412 L3.704755626774796,6.187505147515961 L3.865052266813685,6.249447931988249 L4.016037657403223,6.313937898106936 L4.1573480615127245,6.3808196838949875 L4.288643050001358,6.449932165272288 L4.409606321741772,6.521108844217661 L4.519946465617214,6.594178249877187 L4.619397662556431,6.668964351652507 L4.664963994173691,6.706945011369343 L4.7077203259151,6.745286983273957 L4.74764090296518,6.783967171596171 L4.784701678661041,6.822962276836886 L4.818880328977197,6.862248809802826 L4.850156265972717,6.901803105755549 L4.8785106501926405,6.941601338666207 L4.9039264020161495,6.981619535567444 L4.926388211944704,7.021833590993822 L4.945882549823903,7.062219281502055 L4.962397672993548,7.102752280262298 L4.975923633360983,7.143408171711724 L4.986452283393449,7.1841624662615455 L4.9939772810258605,7.224990615048628 L4.998494093481019,7.2658680247228045 L4.999999999999998,7.306770072260976 " />
			<path d="M4.999999999999998,7.306770072260991 L4.99784221202986,7.355729492705615 L4.991370710539014,7.404646655530854 L4.980591081178686,7.453479339590519 L4.965512628010702,7.5021853966533225 L4.946148365476999,7.550722787781664 L4.922515007166678,7.599049619616073 L4.894632951390241,7.647124180534002 L4.8625262635735025,7.694904976651762 L4.826222655486355,7.74235076763853 L4.785753461324321,7.789420602311492 L4.741153610663528,7.836073853981445 L4.69246159831247,7.882270255518301 L4.63971945108654,7.927969934106258 L4.582972691534061,7.973133445658639 L4.5222702986450765,8.017721808862676 L4.457664665576839,8.061696538824878 L4.389211554432485,8.105019680287922 L4.316970048131912,8.147653840390422 L4.241002499416416,8.189562220941259 L4.161374477031092,8.230708650180674 L4.078154709131457,8.271057614000654 L3.991415023963132,8.310574286597708 L3.901230287865791,8.349224560531534 L3.8076783406548915,8.386975076163676 L3.7108399284369424,8.423793250450737 L3.610798633916318,8.459647305067293 L3.4014554765387883,8.528340129428964 L3.1803714616029772,8.592816441142565 L2.9483097082929155,8.652853686305235 L2.706071227825458,8.708244633410196 L2.4544921585872217,8.758798088651012 L2.194440880022519,8.804339555868271 L1.9268150152343237,8.844711838860738 L1.6525383326444374,8.879775583981953 L1.3725575574074467,8.909409761149423 L1.0878391035845636,8.933512081606061 L0.7993657383569569,8.951999350991906 L0.50813318979276,8.96480775650741 L0.21514670987678117,8.97189308717708 L-0.07858239533363977,8.973230886453207 L-0.3720402564497122,8.968816536632913 L-0.6642139403401671,8.95866527479715 L-0.9540949464885355,8.94281214021663 L-1.2406826880502992,8.921311853406214 L-1.522987945594285,8.894238627245258 " />
			<path d="M-1.5229879455942903,8.894238627245258 L-1.5784364431054632,8.887091047117913 L-1.630947953169666,8.877800261347321 L-1.6797801043973957,8.866497616633165 L-1.7242425416281333,8.85334290194459 " />
			<path d="M-1.8469297175301387,8.786258036599975 L-1.884847573785145,8.748670823179053 L-1.926101994223079,8.711476104121319 L-1.970656486856134,8.674706780367323 L-2.0184716405864283,8.63839537657018 L-2.0695051600674645,8.602574012325572 L-2.1237119031168787,8.567274373760066 L-2.181043920647387,8.532527685502837 L-2.2414504990806017,8.498364683065638 L-2.371270933446813,8.431910069443598 L-2.512713972220362,8.368145613125026 L-2.665279266961505,8.307296878029554 L-2.8284271247461854,8.249579113843055 L-3.00158041730568,8.195196494581495 L-3.1841266225920997,8.144341396334447 L-3.375419991547815,8.097193716743265 L-3.5747838324139347,8.053920238621194 L-3.7815129044972164,8.01467403996662 L-3.994875912927556,7.9795939524564705 L-4.214118095580972,7.9488040703353535 L-4.438463893016907,7.92241331143771 " />
			<path d="M-4.4384638930169436,7.922413311437706 L-4.493912390528116,7.915265731310361 L-4.54642390059232,7.9059749455397705 L-4.59525605182005,7.894672300825614 L-4.6397184890507885,7.881517586137038 L-4.6791826331165165,7.866696773726791 L-4.713090567258987,7.850419389984215 L-4.740962924570758,7.832915553296147 L-4.762405664952794,7.814432720792424 " />
			<path d="M-2.1147976432777833,7.8390743845555795 L-2.305075485991449,7.972530039339658 " />
			<path d="M-2.221443039147451,8.003404108484327 L-2.3050754859914404,7.972530039339661 " />
			<path d="M-1.8037940907985335,7.953885627629607 L-2.2214430391474513,8.003404108484325 " />
			<path d="M-1.6512212883876534,7.997660661506771 L-1.8037940907985266,7.95388562762961 " />
			<path d="M-1.6512212883876523,7.997660661506771 L-1.735953987586698,8.142696953232836 " />
			<path d="M-1.6319148015338945,8.165668208798898 L-1.7359539875866887,8.142696953232837 " />
			<path d="M-1.264331299149057,8.083083752131875 L-1.6319148015338947,8.165668208798898 " />
			<path d="M-1.083892627181025,8.112835741817802 L-1.2643312991490472,8.083083752131877 " />
			<path d="M-1.0838926271810234,8.1128357418178 L-1.0577561157497046,8.260339506870535 " />
			<path d="M-0.9398473551771535,8.273964580388407 L-1.0577561157497009,8.260339506870537 " />
			<path d="M-0.6454259220887921,8.163503233045857 L-0.9398473551771536,8.273964580388407 " />
			<path d="M-0.4484590059303746,8.177362751608415 L-0.6454259220887866,8.163503233045857 " />
			<path d="M-0.44845900593037347,8.177362751608415 L-0.31309553700528514,8.318065785948654 " />
			<path d="M-0.18872584297784661,8.321488563939694 L-0.31309553700528,8.318065785948656 " />
			<path d="M0.014033939366810522,8.190091018623566 L-0.18872584297784578,8.321488563939694 " />
			<path d="M0.21515294397973594,8.187187221539727 L0.014033939366815356,8.190091018623566 " />
			<path d="M0.21515294397973572,8.187187221539727 L0.4512379858140161,8.312248636050311 " />
			<path d="M0.5742540080208568,8.305254052785243 L0.45123798581402264,8.312248636050311 " />
			<path d="M0.6726119967987778,8.161176500514117 L0.5742540080208584,8.305254052785243 " />
			<path d="M0.8652460431424202,8.141691844034078 L0.672611996798784,8.161176500514117 " />
			<path d="M0.8652460431424214,8.141691844034076 L1.1872185664473975,8.243253570097599 " />
			<path d="M1.3011513677371032,8.226281120967245 L1.1872185664474035,8.243253570097599 " />
			<path d="M1.2889273687779914,8.078576484230487 L1.3011513677371047,8.226281120967245 " />
			<path d="M1.4609725512621154,8.043735260980442 L1.288927368777996,8.078576484230487 " />
			<path d="M1.4609725512621166,8.043735260980442 L1.8486018382664262,8.115415801830428 " />
			<path d="M1.9462926017184337,8.089531928233951 L1.8486018382664289,8.115415801830428 " />
			<path d="M1.8242546938336122,7.947481032577388 L1.9462926017184334,8.089531928233951 " />
			<path d="M1.9649007809048198,7.8994724447511935 L1.8242546938336142,7.947481032577388 " />
			<path d="M1.9649007809048198,7.899472444751193 L2.3938306579051893,7.93676784838345 " />
			<path d="M2.469141113570312,7.903598929293145 L2.393830657905191,7.93676784838345 " />
			<path d="M2.2449573873362154,7.776127354917527 L2.469141113570312,7.903598929293144 " />
			<path d="M2.3453670680836973,7.717967958651538 L2.296819607870432,7.747365589575899 L2.2449573873362163,7.776127354917527 " />
			<path d="M2.3453670680836973,7.717967958651538 L2.7886462934144505,7.7185348176929525 " />
			<path d="M2.836844408390768,7.680164978282013 L2.7886462934144527,7.718534817692953 " />
			<path d="M2.5246011518167557,7.57528223301302 L2.8368444083907685,7.680164978282013 " />
			<path d="M2.578465316718173,7.510626397069926 L2.553375744792521,7.543124868161193 L2.5246011518167557,7.57528223301302 " />
			<path d="M2.578465316718173,7.510626397069926 L3.0082410263848294,7.474429093682163 " />
			<path d="M3.0262983358481104,7.433269252075178 L3.0082410263848294,7.474429093682163 " />
			<path d="M2.645614941095096,7.357565504529813 L3.0262983358481104,7.433269252075178 " />
			<path d="M2.6495491065711523,7.290475792869448 L2.6499999999999995,7.306770072260983 " />
			<path d="M2.6499999999999995,7.306770072260992 L2.6489035084258923,7.332178301568741 L2.645614941095096,7.357565504529813 " />
			<path d="M2.6495491065711523,7.290475792869447 L3.038816912130858,7.219788736748732 " />
			<path d="M3.0255988089173877,7.178425117169176 L3.038816912130857,7.219788736748723 " />
			<path d="M2.600395013733295,7.136657112224623 L3.0255988089173877,7.1784251171691755 " />
			<path d="M2.55415198169828,7.071349018169309 L2.5791345957731107,7.103856643296741 L2.6003950137332903,7.136657112224615 " />
			<path d="M2.5541519816982796,7.071349018169309 L2.8784527553008763,6.970613737020511 " />
			<path d="M2.834789781448338,6.93164536781132 L2.878452755300867,6.970613737020502 " />
			<path d="M2.3917827040747524,6.926437542830222 L2.8347897814483374,6.93164536781132 " />
			<path d="M2.298268094301403,6.867014614115823 L2.346718786490074,6.896429977930751 L2.3917827040747426,6.926437542830215 " />
			<path d="M2.2982680943014016,6.867014614115822 L2.5372248256466206,6.74256067613197 " />
			<path d="M2.465860486383357,6.708436083246195 L2.537224825646606,6.742560676131963 " />
			<path d="M2.0328858907577225,6.740115665025154 L2.4658604863833555,6.708436083246194 " />
			<path d="M1.8979755701007728,6.6903116628050405 L2.0328858907577083,6.740115665025149 " />
			<path d="M1.897975570100773,6.6903116628050405 L2.036573728936811,6.549958966619226 " />
			<path d="M1.9419921081584104,6.522822323729351 L2.0365737289367916,6.5499589666192195 " />
			<path d="M1.5462553804930625,6.5893987676358465 L1.9419921081584117,6.522822323729352 " />
			<path d="M1.3784262605648427,6.552343060535814 L1.5462553804930432,6.58939876763584 " />
			<path d="M1.3784262605648425,6.552343060535813 L1.40795721484366,6.4049104822305 " />
			<path d="M1.2961012236305003,6.38646688441089 L1.4079572148436372,6.4049104822304965 " />
			<path d="M0.962467957942527,6.483756947623241 L1.2961012236305012,6.386466884410891 " />
			<path d="M0.7722653595804907,6.461777882001748 L0.9624679579425056,6.483756947623237 " />
			<path d="M0.7722653595804891,6.461777882001747 L0.6908735708375012,6.316529152690952 " />
			<path d="M0.5687715324950654,6.30793747902342 L0.6908735708374769,6.316529152690951 " />
			<path d="M0.31820513388495675,6.429828069062169 L0.5687715324950644,6.30793747902342 " />
			<path d="M0.11758018586034566,6.424306670445555 L0.31820513388493454,6.429828069062168 " />
			<path d="M0.11758018586034413,6.424306670445555 L-0.06962020047967332,6.290368301979334 " />
			<path d="M-0.19429616582244694,6.292168398918377 L-0.06962020047969866,6.290368301979335 " />
			<path d="M-0.3460516890112604,6.431000681729159 L-0.19429616582244802,6.292168398918377 " />
			<path d="M-0.5444929833670817,6.442283879898794 L-0.34605168901128236,6.43100068172916 " />
			<path d="M-0.5444929833670813,6.442283879898793 L-0.8257394785555237,6.328071712558742 " />
			<path d="M-0.945155521470022,6.340150473393385 L-0.8257394785555479,6.328071712558744 " />
			<path d="M-0.9885648115978131,6.487201106057781 L-0.9451555214700227,6.340150473393385 " />
			<path d="M-1.1723536559444379,6.514579936175965 L-0.9885648115978339,6.487201106057784 " />
			<path d="M-1.172353655944439,6.514579936175965 L-1.529974508336362,6.427270340479027 " />
			<path d="M-1.6366272796647832,6.4488688122434565 L-1.5299745083363865,6.427270340479032 " />
			<path d="M-1.568962771384621,6.594898062696765 L-1.6366272796647836,6.448868812243457 " />
			<path d="M-1.7265510367036605,6.636652212174878 L-1.5689627713846392,6.594898062696768 " />
			<path d="M-1.7265510367036612,6.636652212174878 L-2.138075612905787,6.581731171120925 " />
			<path d="M-2.22526372678411,6.611492242400558 L-2.138075612905796,6.5817311711209285 " />
			<path d="M-2.0507770300038923,6.747324555778781 L-2.22526372678411,6.611492242400558 " />
			<path d="M-2.1722628660162555,6.800830457844096 L-2.050777030003899,6.747324555778784 " />
			<path d="M-2.1722628660162555,6.8008304578440955 L-2.6118335634242826,6.781748862428007 " />
			<path d="M-2.6740786700020807,6.81780253566078 L-2.6118335634242893,6.78174886242801 " />
			<path d="M-2.403733425597689,6.934903068158061 L-2.67407867000208,6.81780253566078 " />
			<path d="M-2.4814834304330686,6.996798750202871 L-2.4443722818726474,6.965604724989041 L-2.4037334255976943,6.934903068158064 " />
			<path d="M-2.4814834304330695,6.996798750202871 L-2.9214804055009114,7.014755567241837 " />
			<path d="M-2.954871415810412,7.054836457542401 L-2.9214804055009145,7.01475556724184 " />
			<path d="M-2.605654409748035,7.145847352036301 L-2.9548714158104126,7.054836457542401 " />
			<path d="M-2.6347832646581058,7.212243680721334 L-2.6221109469042734,7.178953284055382 L-2.605654409748037,7.145847352036306 " />
			<path d="M-2.634783264658106,7.212243680721334 L-3.04755988924657,7.266110617360245 " />
			<path d="M-3.049998723306483,7.307700294983812 L-3.0500000000000003,7.306770072260996 " />
			<path d="M-3.0500000000000003,7.306770072260991 L-3.047559889246571,7.26611061736025 " />
			<path d="M-2.643852544407327,7.366903002258625 L-3.049998723306482,7.307700294983812 " />
			<path d="M-2.622529976309657,7.433628052063986 L-2.63509273769241,7.400333042001945 L-2.6438525444073266,7.3669030022586295 " />
			<path d="M-2.6225299763096563,7.433628052063986 L-2.9821499770096165,7.520020450565082 " />
			<path d="M-2.953483393906552,7.560505683110429 L-2.982149977009614,7.520020450565087 " />
			<path d="M-2.5159277002920115,7.584180279335751 L-2.953483393906552,7.560505683110429 " />
			<path d="M-2.4454934845590968,7.6470414699846 L-2.482501960578153,7.615833894459152 L-2.5159277002920084,7.5841802793357544 " />
			<path d="M-2.4454934845590963,7.6470414699846 L-2.7293606141367275,7.760530978221043 " />
			<path d="M-2.671389840715369,7.797367929633075 L-2.7293606141367226,7.7605309782210465 " />
			<path d="M-2.2299178658325207,7.784026852858995 L-2.671389840715368,7.797367929633075 " />
			<path d="M-2.1147976432777833,7.83907438455558 L-2.1739264552772126,7.811915130310421 L-2.2299178658325145,7.7840268528589975 " />
			<path d="M-4.999999999999999,3.771236166328254 L-4.996936989068395,3.7129069023939407 L-4.987751709087972,3.654649103728853 L-4.972455413903924,3.596534148042656 L-4.951066844603996,3.5386332380331718 L-4.92361220655682,3.4810173141485237 L-4.890125137304979,3.423756967670589 L-4.850646665352149,3.366922354226252 L-4.805225159894797,3.3105831078324286 " />
			<path d="M5.0,4.985001358610999e-16 L4.998750586550147,-0.037256727154756024 L4.995002970614178,-0.07449483468710995 L4.988759025120793,-0.11169571228010283 L4.980021870577785,-0.148840768223011 L4.968795873512512,-0.1859114387028375 L4.955086644289665,-0.22288919708186458 L4.938901034307394,-0.25975556315662734 L4.9202471325732215,-0.296492112393678 L4.899134261661436,-0.3330804851375288 L4.8755729730539885,-0.36950239578617317 L4.849575041867233,-0.4057396419295984 L4.821153460967126,-0.44177411344671824 L4.757097370673058,-0.5131628078165483 L4.683532738238004,-0.5835257863342298 L4.600606605513974,-0.6527224066512324 L4.508484726229799,-0.7206143577495072 L4.4073512346806245,-0.7870659363991737 L4.297408277678115,-0.8519443184037334 L4.178875610497032,-0.9151198240906341 L4.051990157625809,-0.976466177516523 L3.917005539199099,-1.0358607588690874 L3.774191564058867,-1.0931848495609762 L3.623833690457303,-1.1483238695259088 L3.4662324554795214,-1.201167606242656 L3.3017028743264913,-1.2516104350291262 L3.1305738106589542,-1.2995515301662202 L2.9531873192608775,-1.3448950664294617 L2.7698979623363313,-1.387550410625584 L2.5810721008063755,-1.4274323027512243 L2.387087162022553,-1.4644610264116176 L2.1883308853606733,-1.4985625681586627 L1.985200547202777,-1.5296687654298744 L1.778102166856432,-1.5577174427925151 L1.5674496949985726,-1.5826525362205794 L1.3536641862660306,-1.6044242051562276 L1.1371729576465706,-1.6229889321316795 L0.9184087343526617,-1.638309609752441 L0.697808784885246,-1.6503556148679994 L0.47581404701632746,-1.659102869781737 L0.25286824643736244,-1.664533890377714 L0.0294170098351219,-1.6666378210681254 L-0.1940930258321587,-1.6654104564915764 L-0.41721510607797274,-1.6608542499188101 L-0.63950325186567,-1.6529783083490792 L-0.8605131510366069,-1.6417983743069693 L-1.0798030464065016,-1.6273367943760564 L-1.296934618754879,-1.6096224745322927 L-1.5114738629426883,-1.5886908223664022 L-1.722991955406887,-1.5645836763107717 L-1.9310661112980088,-1.5373492220122997 L-2.135280429547482,-1.507041896018361 L-2.3352267241755866,-1.4737222769683942 L-2.530505340178386,-1.4374569645086068 L-2.7207259523628418,-1.3983184461718188 L-2.905508345533407,-1.3563849524885274 L-3.0844831744706225,-1.3117403006188064 L-3.2572927021826765,-1.2644737268175814 L-3.4235915149543183,-1.2146797080681535 L-3.5830472127638484,-1.162457773240494 L-3.735341073688188,-1.1079123041517716 L-3.880168690968012,-1.0511523269267449 L-4.017240581459553,-0.9922912940750659 L-4.146282764256906,-0.9314468577210714 L-4.267037308328288,-0.8687406344393326 L-4.379262848071624,-0.8042979621660132 L-4.482735065758941,-0.7382476496719325 L-4.5772471399052765,-0.6707217190980818 L-4.662610158665899,-0.6018551420682156 L-4.738653497435527,-0.5317855699059801 L-4.805225159894778,-0.46065305849584676 " />
			<path d="M-4.999749968743435,7.323437572406858 L-19.79898987322333,12.256517540566822 " />
			<path d="M-19.798989873223327,12.256517540566824 L-19.941181178581445,12.301643332791372 L-20.089843861314936,12.344389103468409 L-20.244619779999784,12.384651874292286 L-20.40513606589111,12.422334648721487 L-20.57100602119663,12.45734664565179 L-20.741830050665527,12.4896035181159 L-20.91719662424839,12.519027556482683 L-21.09668326850916,12.545547875666475 L-21.279857584400638,12.569100585895454 L-21.46627828895167,12.589628946627705 L-21.655496278356463,12.607083503244152 L-21.847055709905007,12.621422206189067 L-22.04049510014807,12.632610512271135 L-22.235348436651275,12.640621467881022 L-22.431146300659847,12.645435773924989 L-22.62741699796952,12.647041832318093 L-22.82368769527919,12.645435773924989 L-23.019485559287762,12.640621467881022 L-23.214338895790966,12.632610512271135 L-23.40777828603403,12.621422206189067 L-23.599337717582575,12.607083503244152 L-23.788555706987367,12.589628946627705 L-23.9749764115384,12.569100585895454 L-24.158150727429877,12.545547875666475 L-24.337637371690647,12.519027556482683 L-24.51300394527351,12.4896035181159 L-24.683827974742407,12.45734664565179 L-24.849697930047927,12.422334648721487 L-25.01021421593925,12.384651874292286 L-25.164990134624098,12.344389103468409 L-25.313652817357593,12.301643332791372 L-25.455844122715696,12.256517540566827 " />
			<path d="M-25.45584412271571,10.370899457402697 L-5.567039912272023,3.7412980539214695 " />
			<path d="M-5.567039912272024,3.74129805392147 L-5.437356187383038,3.6952494046406086 L-5.316652010705381,3.6465637084307168 L-5.2054088869102255,3.5954351788707237 L-5.104070579297381,3.5420677743197424 L-5.01304133956573,3.48667438430063 L-4.9326842952005885,3.429475980255969 L-4.896609718775777,3.4002709451269912 L-4.863320000910902,3.370700734064224 L-4.83284834914171,3.3407948442789333 L-4.8052251598947935,3.310583107832425 " />
			<path d="M-5.0,6.286540458375983 L-5.133739119299158,6.300312834930217 L-5.270040620925598,6.310933349088398 L-5.408236857283615,6.318349978234058 L-5.547650899771261,6.322526393386531 L-5.687599854589394,6.323442137151718 L-5.8273982077701545,6.321092723928832 L-5.966361183039833,6.3154896618822765 L-6.103808096068299,6.306660396571049 L-6.23906568867479,6.294648176511756 L-6.371471426658092,6.279511841333793 L-6.500376745097297,6.261325533564344 L-6.625150225226638,6.240178335454974 L-6.74518068732306,6.216173832628772 L-6.859880184456608,6.189429606685401 L-6.968686882439279,6.160076659249473 L-7.071067811865467,6.128258770283416 " />
			<path d="M-9.899494936611656,7.0710678118654755 L-9.831806248274832,7.094766362758496 L-9.767687592259277,7.119543476547411 L-9.70729343602346,7.145339462994886 L-9.65076927437966,7.172092177310106 L-9.598251278984208,7.199737169861026 L-9.54986597028804,7.228207841439176 L-9.505729912737864,7.257435603702986 L-9.465949433962178,7.287350044413115 L-9.43062036861871,7.317879097061694 L-9.399827827520333,7.348949214486866 L-9.373645992595662,7.380485546054332 L-9.35213793817829,7.412412117979089 L-9.335355479055188,7.444652016352935 L-9.323339045640356,7.477127572436801 L-9.316117586574405,7.509760549771563 L-9.31370849898475,7.542472332656502 " />
			<path d="M-9.31370849898475,7.542472332656509 L-9.31506372980805,7.567010481284082 L-9.31912758562737,7.591515375056288 L-9.325894558980039,7.615953804185764 L-9.335355479055188,7.6402926489600835 L-9.347497524122318,7.664498924626603 L-9.362304238907694,7.688539826094423 L-9.379755556895047,7.712382772392853 L-9.399827827520333,7.735995450826151 L-9.447722901315274,7.782402357013168 L-9.505729912737864,7.827509061610031 L-9.573534516767328,7.871071127476365 L-9.65076927437966,7.912852488002911 L-9.737015643731539,7.952626726376928 L-9.831806248274834,7.990178302554522 L-9.934627409510618,8.025303721290822 L-10.04492193065746,8.057812634898335 L-10.162092116149061,8.087528874757565 L-10.285503010598308,8.114291405990025 L-10.414485839675539,8.137955200120187 L-10.548341634254573,8.158392020997368 L-10.68634501818697,8.175491119718535 L-10.827748139178226,8.189159834786206 L-10.97178472146415,8.199324094249137 L-11.117674218325632,8.205928817104642 L-11.264626041938929,8.208938211787313 L-11.41184384763959,8.208335970126624 L-11.558529849383186,8.204125355722317 L-11.703889143017012,8.196329186258664 L-11.847134013934552,8.18498970985347 L-11.987488205769196,8.170168376111857 L-12.124191126994734,8.15194550312553 L-12.256501972636752,8.13041984222208 L-12.38370373875895,8.10570804282298 L-12.505107107969623,8.077944020310273 L-12.620054184892311,8.0472782303275 L-12.727922061357845,8.013876853447544 " />
			<path d="M-21.213203435596416,10.842303978193732 L-21.14551474725959,10.866002529086751 L-21.081396091244034,10.890779642875666 L-21.021001935008222,10.916575629323141 L-20.96447777336442,10.943328343638361 L-20.911959777968967,10.970973336189282 L-20.863574469272802,10.999444007767432 L-20.819438411722622,11.028671770031242 L-20.779657932946936,11.05858621074137 L-20.744328867603468,11.08911526338995 L-20.713536326505093,11.120185380815121 L-20.68735449158042,11.151721712382587 L-20.66584643716305,11.183648284307344 L-20.649063978039948,11.215888182681189 L-20.637047544625116,11.248363738765056 L-20.629826085559166,11.280996716099818 L-20.62741699796951,11.313708498984758 " />
			<path d="M-20.62741699796951,11.313708498984763 L-20.628772228792812,11.338246647612335 L-20.63283608461213,11.362751541384542 L-20.6396030579648,11.387189970514019 L-20.649063978039948,11.411528815288337 L-20.661206023107077,11.435735090954857 L-20.676012737892453,11.459775992422676 L-20.693464055879804,11.483618938721106 L-20.713536326505093,11.507231617154405 L-20.761431400300033,11.553638523341423 L-20.819438411722622,11.598745227938284 L-20.887243015752087,11.64230729380462 L-20.96447777336442,11.684088654331164 L-21.050724142716298,11.723862892705181 L-21.145514747259593,11.761414468882776 L-21.248335908495378,11.796539887619074 L-21.35863042964222,11.829048801226588 L-21.47580061513382,11.85876504108582 L-21.599211509583068,11.885527572318278 L-21.7281943386603,11.909191366448441 L-21.862050133239332,11.929628187325621 L-22.00005351717173,11.946727286046787 L-22.141456638162982,11.960396001114459 L-22.28549322044891,11.970560260577392 L-22.43138271731039,11.977164983432894 L-22.578334540923688,11.980174378115567 L-22.725552346624347,11.979572136454879 L-22.872238348367944,11.975361522050571 L-23.017597642001768,11.967565352586917 L-23.16084251291931,11.956225876181723 L-23.301196704753952,11.941404542440111 L-23.437899625979494,11.923181669453784 L-23.570210471621508,11.901656008550333 L-23.697412237743706,11.876944209151235 L-23.81881560695438,11.849180186638527 L-23.933762683877067,11.818514396655752 L-24.0416305603426,11.785113019775798 " />
			<path d="M-15.556349186104036,8.956685895029604 L-15.488660497767212,8.980384445922624 L-15.424541841751656,9.005161559711539 L-15.36414768551584,9.030957546159014 L-15.30762352387204,9.057710260474234 L-15.255105528476587,9.085355253025154 L-15.20672021978042,9.113825924603304 L-15.162584162230244,9.143053686867114 L-15.122803683454558,9.172968127577242 L-15.08747461811109,9.203497180225822 L-15.056682077012713,9.234567297650994 L-15.030500242088042,9.26610362921846 L-15.00899218767067,9.298030201143217 L-14.992209728547568,9.330270099517062 L-14.980193295132736,9.362745655600929 L-14.972971836066785,9.39537863293569 L-14.97056274847713,9.42809041582063 " />
			<path d="M-14.97056274847713,9.428090415820636 L-14.97191797930043,9.452628564448208 L-14.97598183511975,9.477133458220415 L-14.982748808472419,9.501571887349892 L-14.992209728547568,9.52591073212421 L-15.004351773614697,9.55011700779073 L-15.019158488400073,9.574157909258549 L-15.036609806387427,9.598000855556979 L-15.056682077012713,9.621613533990278 L-15.104577150807653,9.668020440177296 L-15.162584162230244,9.713127144774157 L-15.230388766259708,9.756689210640493 L-15.30762352387204,9.798470571167037 L-15.393869893223918,9.838244809541054 L-15.488660497767214,9.87579638571865 L-15.591481659002996,9.910921804454947 L-15.70177618014984,9.94343071806246 L-15.818946365641441,9.973146957921692 L-15.942357260090688,9.99990948915415 L-16.07134008916792,10.023573283284314 L-16.205195883746953,10.044010104161494 L-16.34319926767935,10.061109202882662 L-16.484602388670602,10.074777917950332 L-16.62863897095653,10.084942177413264 L-16.774528467818012,10.091546900268767 L-16.92148029143131,10.09455629495144 L-17.068698097131968,10.093954053290751 L-17.215384098875564,10.089743438886444 L-17.360743392509388,10.08194726942279 L-17.50398826342693,10.070607793017597 L-17.644342455261572,10.055786459275984 L-17.781045376487114,10.037563586289657 L-17.913356222129128,10.016037925386206 L-18.040557988251326,9.991326125987108 L-18.161961357462,9.9635621034744 L-18.276908434384687,9.932896313491625 L-18.38477631085022,9.89949493661167 " />
			<path d="M-4.80522515989479,-0.4606530584958324 L-4.832848349141708,-0.43044132204932034 L-4.863320000910901,-0.4005354322640295 L-4.896609718775777,-0.37096522120126185 L-4.932684295200588,-0.3417601860722847 L-5.01304133956573,-0.28456178202762356 L-5.10407057929738,-0.2291683920085109 L-5.205408886910225,-0.17580098745753003 L-5.31665201070538,-0.12467245789753678 L-5.4373561873830365,-0.07598676168764473 L-5.567039912272021,-0.029938112406784234 " />
			<path d="M-25.45584412271571,6.599663291074443 L-5.567039912272023,-0.0299381124067839 " />
			<path d="M1.3784262605648423,6.552343060535815 L1.3784262605648423,6.399855826395422 " />
			<path d="M2.298268094301401,6.867014614115819 L2.298268094301401,6.720698365939294 " />
			<path d="M2.649549106571152,7.290475792869451 L2.649549106571152,7.141485546062585 " />
			<path d="M2.645614941095096,7.357565504529813 L2.645614941095096,7.141099090802973 " />
			<path d="M2.345367068083697,7.717967958651538 L2.345367068083697,6.895572185870444 " />
			<path d="M2.2449573873362145,7.776127354917527 L2.2449573873362145,6.7245989663857415 " />
			<path d="M1.4609725512621152,8.043735260980442 L1.4609725512621152,6.56980488354154 " />
			<path d="M1.2889273687779914,8.078576484230485 L1.2889273687779914,6.3885588364548145 " />
			<path d="M0.21515294397973636,8.187187221539727 L0.2151529439797365,6.426352922982256 " />
			<path d="M0.014033939366810279,8.190091018623566 L0.014033939366810431,6.350221271439192 " />
			<path d="M-1.0838926271810236,8.112835741817802 L-1.0838926271810234,6.50070440270418 " />
			<path d="M-1.2643312991490565,8.083083752131875 L-1.2643312991490563,6.492124503872057 " />
			<path d="M-2.114797643277783,7.83907438455558 L-2.114797643277783,6.774465759966402 " />
			<path d="M-2.2299178658325207,7.784026852858997 L-2.2299178658325207,6.798327676410539 " />
			<path d="M-2.6225299763096563,7.4336280520639875 L-2.6225299763096563,7.179912092457993 " />
			<path d="M-2.643852544407327,7.366903002258624 L-2.643852544407327,7.21342721265728 " />
			<path d="M-2.403733425597689,6.934903068158064 L-2.403733425597689,6.7907824096126905 " />
			<path d="M-1.5689627713846206,6.5948980626967675 L-1.5689627713846206,6.434935746638086 " />
			<path d="M-2.0507770300038923,6.747324555778778 L-2.0507770300038923,6.59338182173274 " />
			<path d="M-2.6056544097480354,7.1458473520363 L-2.6056544097480354,7.0018663203986975 " />
			<path d="M-2.445493484559096,7.6470414699846 L-2.445493484559096,6.96649867453738 " />
			<path d="M-2.5159277002920115,7.5841802793357544 L-2.5159277002920115,6.998204463166697 " />
			<path d="M-1.651221288387652,7.997660661506769 L-1.651221288387652,6.6158794830152114 " />
			<path d="M-1.8037940907985333,7.953885627629607 L-1.8037940907985333,6.6263435472970045 " />
			<path d="M-0.448459005930373,8.177362751608413 L-0.4484590059303729,6.436177392913567 " />
			<path d="M-0.6454259220887913,8.163503233045857 L-0.6454259220887912,6.401295743567767 " />
			<path d="M0.8652460431424216,8.141691844034078 L0.8652460431424217,6.471848300487906 " />
			<path d="M0.6726119967987777,8.161176500514117 L0.6726119967987778,6.315133204262631 " />
			<path d="M1.96490078090482,7.8994724447511935 L1.96490078090482,6.714067699770789 " />
			<path d="M1.8242546938336117,7.947481032577388 L1.8242546938336117,6.5426297810930745 " />
			<path d="M2.578465316718173,7.510626397069924 L2.578465316718173,7.1029137474520585 " />
			<path d="M2.5246011518167553,7.57528223301302 L2.5246011518167553,6.927998906667121 " />
			<path d="M2.5541519816982796,7.071349018169311 L2.5541519816982796,6.928346295135453 " />
			<path d="M1.8979755701007726,6.690311662805042 L1.8979755701007726,6.530227409919457 " />
			<path d="M2.788646293414451,7.718534817692952 L2.788646293414451,7.663975195127135 " />
			<path d="M1.848601838266426,8.115415801830428 L1.848601838266426,7.97582086348161 " />
			<path d="M0.4512379858140165,8.31224863605031 L0.45123798581401664,6.3651128761786975 " />
			<path d="M0.5742540080208589,8.305254052785244 L0.574254008020859,6.30828609173674 " />
			<path d="M-1.0577561157497049,8.260339506870531 L-1.0577561157497046,6.496855673519844 " />
			<path d="M-0.9398473551771523,8.273964580388407 L-0.9398473551771522,6.339575564133575 " />
			<path d="M-2.221443039147451,8.003404108484325 L-2.221443039147451,7.913872537259628 " />
			<path d="M-2.9534833939065512,7.560505683110431 L-2.9534833939065512,7.513133806701324 " />
			<path d="M-3.049998723306482,7.30770029498381 L-3.049998723306482,7.305839849537662 " />
			<path d="M-2.671389840715368,7.797367929633076 L-2.671389840715368,7.737354379445886 " />
			<path d="M-1.6319148015338936,8.165668208798893 L-1.6319148015338933,6.6108011967967535 " />
			<path d="M-0.3130955370052846,8.318065785948654 L-0.3130955370052845,6.400851019169886 " />
			<path d="M-0.18872584297784603,8.321488563939692 L-0.18872584297784586,6.292051580582289 " />
			<path d="M1.1872185664473978,8.2432535700976 L1.187218566447398,6.418217916725457 " />
			<path d="M2.3938306579051885,7.93676784838345 L2.3938306579051885,7.860777166483501 " />
			<path d="M3.008241026384829,7.474429093682161 L3.008241026384829,7.429678325820452 " />
			<path d="M-25.45584412271571,10.370899457402697 L-25.45584412271571,6.599663291074443 " />
			<path d="M-4.805225159894791,3.3105831078324206 L-4.805225159894791,-0.4606530584958328 " />
			<path d="M-5.567039912272024,-0.029938112406783457 L-5.567039912272024,3.74129805392147 " />
			<path d="M-26.62741699796952,11.31370849898476 L-26.62741699796952,7.542472332656507 " />
			<path d="M-5.0,7.30677007226099 L-4.999999999999999,3.7712361663282534 " />
			<path d="M4.999999999999998,7.3067700722609885 L4.999999999999999,-1.7763568394002505e-15 " />

       </g>
    </g>
    
</svg>
