<?xml version="1.0" encoding="UTF-8" standalone="no"?>
<svg
   xmlns:svg="http://www.w3.org/2000/svg"
   xmlns="http://www.w3.org/2000/svg"
   width="1024.0"
   height="320.0"

>
    <g transform="scale(11.19404262703712, -11.19404262703712)   translate(52.276584834623975,-35.739943524898)" stroke-width="0.13333333466666672"  fill="none">
       <!-- hidden lines -->
       <g  stroke="rgb(32,64,32)" fill="none" stroke-dasharray="0.13333333466666672,0.13333333466666672" >

       </g>

       <!-- solid lines -->
       <g  stroke="rgb(64,192,64)" fill="none">
			<path d="M-25.12914591171485,20.288856366345 L-28.44648225405772,19.183077585564043 " />
			<path d="M-28.665718045640524,19.192906760086558 L-28.60932094925041,19.17811740187012 L-28.581322475839606,19.173786004763866 L-28.553563456304115,19.171515118634467 L-28.526122650759163,19.17131118662208 L-28.499077916457743,19.173174787338954 L-28.472505986887768,19.177100633227763 L-28.44648225405767,19.183077585563872 " />
			<path d="M-26.3655768412813,18.426193025300147 L-26.334858260218663,18.41714071366372 L-26.30424283068277,18.41049323002594 L-26.273833357822475,18.40627289631908 L-26.243731955193958,18.404493884221992 L-26.214039701868288,18.40516216757225 L-26.18485630301273,18.40827550230631 L-26.156279755085563,18.41382343399496 L-26.128406016768672,18.421787332948806 " />
			<path d="M-26.128406016768672,18.42178733294881 L-26.098963215253065,18.433175350542964 L-26.07058188487096,18.447350779684374 L-26.043375020458303,18.464257183614478 L-26.0174509409395,18.483827252721206 L-25.992912858076398,18.50598307251928 L-25.969858465550363,18.530636433851864 L-25.94837955001361,18.557689184078416 L-25.928561625658194,18.587033617850658 L-25.910483593757625,18.618552905920804 L-25.894217428536553,18.652121560274853 L-25.879827890619147,18.687605933739114 L-25.86737226919708,18.72486475207084 L-25.85690015394357,18.763749676414594 L-25.848453237581577,18.80410589388503 L-25.842065149892218,18.845772733924754 L-25.837761323824218,18.888584307983407 " />
			<path d="M-20.532940077491112,14.251974367303273 L-20.541357320196358,14.262182767536931 L-20.547931449034333,14.273618395144185 " />
			<path d="M-27.51564744346091,31.365019116327453 L-27.68484181725591,31.41864866547614 L-27.853934274686733,31.466708759290483 L-28.022822960779784,31.509170448167044 L-28.191406143305716,31.54600815477219 L-28.359582274059107,31.577199689448904 L-28.5272500500273,31.60272626358303 L-28.694308474411553,31.62257250092081 L-28.860656917463743,31.63672644683097 L-29.026195177101943,31.645179575505743 L-29.190823539268408,31.6479267950965 L-29.35444283799363,31.644966450780885 L-29.516954515130188,31.636300325759613 L-29.67826067972046,31.621933640182355 L-29.838264166962524,31.6018750480033 L-29.99686859673859,31.576136631768335 L-30.153978431670765,31.544733895336975 L-30.309499034669194,31.507685754543424 L-30.46333672593792,31.46501452580238 L-30.615398839404087,31.416745912666457 L-30.765593778536516,31.36290899034333 L-30.913831071520022,31.3035361881819 L-31.060021425752254,31.23866327013811 L-31.20407678163024,31.168329313232036 L-31.34591036559418,31.092576684009355 L-31.485436742396583,31.01145101302134 L-31.622571866565295,30.925001167338714 L-31.757233133029327,30.83327922111594 L-31.88933942687708,30.736340424223723 L-32.01881117221691,30.63424316896853 L-32.14557038011067,30.52704895491928 L-32.26954069555137,30.414822351862252 L-32.39064744345654,30.297630960906705 L-32.50881767364971,30.175545373764486 L-32.623980204802876,30.048639130228217 L-32.73606566731348,29.91698867387367 L-32.845006545090065,29.780673306013025 L-32.9507372162214,29.63977513792672 L-33.05319399250473,29.4943790414027 L-33.15231515780913,29.344572597612785 L-33.24804100525099,29.190446044357095 L-33.34031387315924,29.032092221708147 L-33.42907817980855,28.869606516087487 L-33.51428045689971,28.703086802808432 L-33.595869381766924,28.53263338711969 L-33.67379580829265,28.358348943785213 L-33.74801279651141,28.18033845523675 L-33.81847564088465,27.99870914833636 L-33.8851418972297,27.813570429786967 L-33.94797140828654,27.625033820229838 L-34.00692632790707,27.433212887068727 L-34.06197114385216,27.23822317606113 L-34.113072699182965,27.04018214171782 L-34.16020021223335,26.839209076552656 L-34.20332529515166,26.635425039225233 L-34.2424219710005,26.42895278161965 L-34.27746668940427,26.21991667490339 L-34.308438340734995,26.008442634610788 L-34.335318268828026,25.794658044796186 L-34.35809028221978,25.578691681302573 L-34.37674066390089,25.360673634191798 L-34.39125817957882,25.140735229383232 L-34.401634084444964,24.919008949547916 L-34.40786212844222,24.695628354305928 L-34.40993856002975,24.47072799977518 " />
			<path d="M-34.40993856002975,24.470727999775093 L-34.40704411493992,24.203423664306683 L-34.39836321003197,23.93441414468803 L-34.3839031343519,23.66392531861131 L-34.36367602950914,23.392184305889522 L-34.33769887948171,23.1194192777521 L-34.305993496355285,22.845859265257676 L-34.268586502008475,22.57173396698487 L-34.2255093057593,22.297273556162594 L-34.17679807799195,22.022708487401804 L-34.122493719785766,21.748269303190998 L-34.062641828572126,21.474186440317908 L-33.99729265984786,21.200690036379953 L-33.926501084977495,20.928009736545917 L-33.85032654511977,20.656374500731104 L-33.768833001317,20.386012411347853 L-33.68208888078925,20.117150481792883 L-33.59016701947847,19.850014465832256 L-33.49314460089073,19.58482866804399 L-33.391103091288024,19.32181575547751 L-33.284128171283896,19.061196570688065 L-33.172309663900535,18.803189946303135 L-33.05574145914759,18.54801252127648 L-32.934521435186056,18.29587855898413 L-32.80875137614346,18.046999767315086 L-32.67853688664944,17.801585120907756 L-32.543987303163206,17.559840685681426 L-32.40521560216768,17.321969445810037 L-32.262338305307175,17.088171133283637 L-32.11547538154831,16.858642060200555 L-31.964750146446335,16.633574953931134 L-31.81028915860151,16.41315879529144 L-31.652222113392344,16.19757865986285 " />
			<path d="M-31.65222211339232,16.197578659862813 L-31.55393828615982,16.068334085049436 L-31.45438888027342,15.941002564080867 L-31.353605093982097,15.815624001971678 L-31.25161851238299,15.692237691689623 L-31.148461097522848,15.570882301841436 L-31.044165178381256,15.451595864554303 L-30.938763440738935,15.334415763556784 L-30.83228891693417,15.219378722462967 L-30.72477497551068,15.10652079326348 L-30.616255310760074,14.995877345026992 L-30.506763932162254,14.887483052815737 L-30.396335153727016,14.781371886818532 L-30.285003583240222,14.677577101704703 L-30.172804111417925,14.576131226202255 L-30.059771900971786,14.47706605290354 L-29.945942375589283,14.380412628301633 L-29.831351208832107,14.286201243060518 L-29.716034312956268,14.194461422522172 L-29.600027827657375,14.105221917453466 L-29.48336810874466,14.018510695035834 L-29.366091716747267,13.934354930100522 L-29.24823540545636,13.852780996612118 L-29.129836110406703,13.773814459403116 L-29.010930937301257,13.697480066162019 L-28.891557150382432,13.623801739677553 L-28.7717521607537,13.552802570341388 L-28.65155351465514,13.484504808911748 L-28.530998881696664,13.418929859540121 L-28.410126043052546,13.356098273063337 L-28.288972879621014,13.296029740563027 L-28.16757736015257,13.238743087194546 L-28.045977529350843,13.184256266287298 " />
			<path d="M-27.86920083405416,13.006796703850867 L-27.994363419881147,13.062560809283664 L-28.119319176728528,13.121218027194935 L-28.24402867704387,13.1827498493495 L-28.368452570976583,13.247136860482266 L-28.492551598794044,13.31435874442436 L-28.61628660326934,13.38439429051354 L-28.73961854203659,13.457221400286834 L-28.862508499910096,13.532817094453316 L-28.984917701163305,13.611157520144815 L-29.106807521763827,13.692217958442255 L-29.22813950156052,13.775972832175267 L-29.348875356418944,13.862395713992608 L-29.4689769903012,13.951459334700845 L-29.58840650728647,14.043135591868651 L-29.70712622352839,14.137395558694035 L-29.82509867914552,14.23420949313166 L-29.942286650041126,14.333546847277436 L-30.058653159648596,14.435376277007341 L-30.174161490598717,14.53966565186752 L-30.288775196305195,14.64638206521245 L-30.402458112464714,14.755491844588068 L-30.515174368467942,14.8669605623565 L-30.626888398717853,14.980753046559077 L-30.737564953851827,15.096833392014233 L-30.847169111863934,15.215164971646736 L-30.955666289123972,15.3357104480447 L-31.063022251289688,15.458431785240744 L-31.16920312410884,15.58329026071356 L-31.27417540410759,15.710246477606114 L-31.377905969161922,15.839260377156608 L-31.48036208894876,15.970291251338313 L-31.5815114352734,16.10329775570425 " />
			<path d="M-34.40993856002975,24.588579129973283 L-34.40888053449125,24.751316729659646 L-34.405706774495435,24.913300278977168 L-34.400418229805254,25.07448130356908 L-34.393016483043155,25.234811569237984 L-34.383503749217496,25.394243096380183 L-34.37188287505964,25.55272817434383 L-34.358157338172134,25.710219375706536 L-34.342331245987936,25.866669570468265 L-34.324409334541315,26.022031940155223 L-34.30439696705053,26.176259991830513 L-34.28230013231287,26.32930757200734 L-34.25812544291249,26.48112888046071 L-34.231880133241546,26.631678483933335 L-34.20357205733528,26.780911329731754 L-34.173209686521645,26.928782759208598 L-34.14080210688627,27.075248521126873 L-34.10635901655332,27.220264784902366 L-34.06989072278336,27.363788153720158 L-34.03140813888884,27.505775677521342 L-33.9909227809682,27.64618486585602 L-33.94844676445965,27.784973700598773 L-33.903992800515596,27.922100648522793 L-33.85757419219869,28.057524673728913 L-33.80920483050089,28.191205249925787 L-33.7588991901865,28.323102372557557 L-33.70667232546051,28.453176570775433 L-33.65253986546356,28.581388919249548 L-33.596518009594845,28.70770104981752 L-33.53862352266439,28.83207516296632 L-33.47887372987604,28.954474039143953 L-33.41728651164288,29.07486104989762 L-33.3538802982364,29.193200168834906 L-33.28867406427113,29.309455982404888 L-33.22168732302643,29.423593700495807 L-33.15294012060704,29.535579166846162 L-33.082453029944176,29.645378869266153 L-33.01024714463897,29.752959949666355 L-32.93634407265014,29.858290213890655 L-32.86076592982767,29.961338141350517 L-32.78353533329459,30.062072894457664 L-32.70467539467862,30.160464327852388 L-32.62420971319594,30.25648299742467 L-32.54216236858905,30.35010016912549 L-32.4585579139207,30.441287827565635 L-32.373421368226374,30.530018684399415 L-32.28677820902712,30.616266186490854 L-32.19865436470536,30.700004523859825 L-32.10907620674567,30.781208637405836 L-32.018070541842945,30.85985422640706 L-31.92566460388045,30.93591775579246 L-31.831886045779868,31.00937646318476 L-31.736762931226078,31.080208365712217 L-31.640323726268953,31.148392266587067 L-31.54259729080475,31.2139077614488 L-31.443612869939642,31.276735244470252 L-31.34340008523801,31.336855914224728 L-31.241988925857996,31.394251779312434 L-31.139409739577157,31.44890566374449 L-31.035693223710712,31.500801212082926 L-30.930870415925234,31.549922894335126 L-30.82497268495047,31.596256010601245 L-30.718031721192123,31.639786695473227 L-30.61007952724831,31.680501922184114 L-30.501148408332682,31.71838950650634 " />
			<path d="M-30.501148408332654,31.718389506506348 L-30.409183285877027,31.747938134390218 L-30.316573621631537,31.775489015934077 L-30.22333885687391,31.80103636746142 L-30.129498564107408,31.824574825890974 L-30.03507244295202,31.84609944986255 L-29.940080316009002,31.865605720774383 L-29.844542124699547,31.883089543731693 L-29.74847792507856,31.898547248406338 L-29.651907883624332,31.911975589807277 L-29.554852273005086,31.92337174896183 L-29.45733146782314,31.932733333507414 L-29.359365940337767,31.940058378193783 L-29.260976256167506,31.945345345295593 L-29.16218306997287,31.948593124935208 L-29.063007121120375,31.949801035315673 L-28.963469229328805,31.948968822863876 L-28.863590290298557,31.946096662283765 L-28.763391271325094,31.94118515651966 L-28.662893206897326,31.934235336629694 L-28.56211719428191,31.925248661569363 L-28.359816000857897,31.901172719319 L-28.156657556144655,31.86897754547796 L-27.952812445037114,31.828690173184615 L-27.748451828999443,31.78034443030754 L-27.543747302346915,31.72398091104148 L-27.338870748164304,31.659646941821855 " />
			<path d="M-28.04597752935082,13.184256266287088 L-27.869200834054183,13.006796703850465 " />
			<path d="M-17.257320914968272,16.777379221673343 L-17.254313516775888,16.716137377807424 L-17.258341071638675,16.65169566447425 L-17.269270650806742,16.584207541279252 L-17.28696616680255,16.514083154903552 " />
			<path d="M-17.734943441943518,17.151408668667905 L-17.690377335140315,17.127876871361284 L-17.647545814149463,17.100798836003428 L-17.606576976399815,17.07032777142011 L-17.56758258870141,17.036637750706877 L-17.53065727362578,16.999920988137482 L-17.495878031543445,16.960384907463723 L-17.463304092785602,16.918249083909977 L-17.432977084118672,16.873742141087238 L-17.409898413261434,16.83572418288739 L-17.38803948459742,16.795624221414347 L-17.367484718988973,16.753478294758867 L-17.348315409401426,16.709333311783904 L-17.330608947875294,16.66324714587962 L-17.31443806092394,16.61528860306947 L-17.299870066603056,16.56553725812238 L-17.286966166802596,16.514083154903755 " />
			<path d="M-17.257320914968272,16.777379221673343 L-17.2856479839668,16.824632441036613 L-17.32211000081312,16.87749325873945 L-17.36176326026378,16.926911880144104 L-17.404528284600463,16.97250364575773 L-17.45028969386299,17.013904709411516 L-17.498896169463123,17.0507795131308 L-17.550161354124707,17.082827995210696 L-17.603865718654248,17.10979224865569 L-17.659759380731817,17.131462354113076 " />
			<path d="M-17.659759380732122,17.131462354113175 L-17.71696622366846,17.147543312082835 L-17.775757437444316,17.158185545464416 L-17.835827086407328,17.16334676509219 L-17.896858115098777,17.16304108772478 L-17.958527864728982,17.157338105122264 L-18.020513622806607,17.1463605699372 L-18.082498010475973,17.13028081902507 L-18.14417402722164,17.10931610846089 " />
			<path d="M-18.73051742420628,15.79560181249185 L-18.71128430497254,15.850261452914383 L-18.67505765629527,15.96638124646423 L-18.644224191573958,16.08517540502132 L-18.619323874199626,16.205694593558377 L-18.600819635925248,16.3269019863957 L-18.58907801435485,16.44769937436496 L-18.584352890160556,16.566957963475808 L-18.586773602909158,16.683552200812514 L-18.59633843474733,16.796394586116275 " />
			<path d="M-18.436499385016813,15.211912924078232 L-18.60143075444527,15.101806256035669 L-18.77134662782034,14.996426828748593 " />
			<path d="M-18.32932921847485,17.01678532772061 L-18.30626927504349,16.95119988904181 L-18.2862652010801,16.882160577354973 L-18.269477953899184,16.809908066790033 L-18.25604304373652,16.734719300424945 L-18.246067671873313,16.65690429085353 L-18.23962843722407,16.576802051171274 L-18.23676970379015,16.49477576169126 L-18.23750269546611,16.41120731391594 L-18.241805354403354,16.326491402588704 L-18.24962296648631,16.241029356862843 L-18.260869524686488,16.15522291131505 L-18.27542977036485,16.069468116134665 L-18.293161826012522,15.984149573703386 L-18.313900312069322,15.899635167168713 L-18.337459826409383,15.816271417438443 L-18.36363865829383,15.734379570688146 L-18.398691728901227,15.63767296293278 L-18.438557302809464,15.540965929883175 L-18.483182875588188,15.444878579447444 L-18.532451535342062,15.350055560377957 L-18.58618059520821,15.257153528468127 L-18.64412229308967,15.16682738255986 L-18.70596667193743,15.079715818279823 L-18.771346627820183,14.996426828748788 " />
			<path d="M-18.436499385016816,15.211912924078234 L-18.370787169074635,15.327483909897566 L-18.312012048131724,15.445721429720411 L-18.260471568782936,15.56538296490224 L-18.21630955814196,15.685269870637521 L-18.187447370776916,15.77613005190298 L-18.161830336879806,15.868756634745997 L-18.139729701172467,15.962706422485327 L-18.1213908687337,16.05749930040547 L-18.10702728783395,16.152625118636077 L-18.096814845090897,16.247551871350506 L-18.090887031857083,16.341734935312484 L-18.089331118100436,16.434627057421753 L-18.092185529563785,16.52568872354956 L-18.099438567906322,16.61439850564785 L-18.111028545827825,16.70026297498945 L-18.12684533523003,16.782825788055618 L-18.146733252427154,16.86167559681869 L-18.170495136460243,16.936452503035408 L-18.197897420162327,17.006852860519245 L-18.228675952878902,17.07263232262814 " />
			<path d="M-17.618963101971335,15.938492335930354 L-17.716845870340197,15.826202051384465 L-17.82435610447414,15.714422931777847 " />
			<path d="M-18.0106026514173,17.148461844609866 L-17.967423424561744,17.095618670937956 L-17.927951830949258,17.0387337233641 L-17.893500628225325,16.98040042183865 L-17.86194108086977,16.917342627400746 L-17.833557079859546,16.849714173966312 L-17.808611975718627,16.777726223270335 L-17.787342581483582,16.70164670836307 L-17.76995352358988,16.62179817550333 L-17.75661218361795,16.53855399831539 L-17.74744446049843,16.452333020588085 L-17.74253155316838,16.36359276876809 L-17.741907919115945,16.272821455138065 L-17.745560507672817,16.180529060995685 L-17.753429302586742,16.08723783983524 L-17.765409141491798,15.993472609163742 L-17.781352715843074,15.899751203908279 L-17.801074598789256,15.80657544456117 L-17.824356104474077,15.714422931778085 " />
			<path d="M-17.618963101971335,15.938492335930354 L-17.60867269292659,16.015070943175893 L-17.601101512651848,16.09141941633761 L-17.596314826205003,16.16725267000961 L-17.594358326241213,16.242284909050824 L-17.595257240826992,16.31623314504825 L-17.59901580546143,16.388820718509237 L-17.605617118355287,16.459780735727534 L-17.615023385060823,16.528859331115733 L-17.627176545216216,16.595818671588447 L-17.64199926119868,16.66043962901114 L-17.659396236571464,16.72252405924979 L-17.679255821983144,16.781896641224066 L-17.70145185812467,16.838406245707223 L-17.72584569980029,16.891926820497556 L-17.752288362275223,16.94235779509455 L-17.780622730797386,16.989624023313475 L-17.812895509042423,17.036802660567346 L-17.847698606394598,17.08129238788918 L-17.884980261947245,17.122820488272097 L-17.924666307191494,17.161126229536578 " />
			<path d="M-25.6892117441757,23.94550978165599 L-30.12436837369457,22.46712423848303 " />
			<path d="M-30.12436837369495,22.467124238482864 L-29.19353356309791,20.007175054407842 " />
			<path d="M-29.193533563097763,20.00717505440791 L-24.721356388140194,21.497900779393767 " />
			<path d="M-24.90692651322687,21.878137683321793 L-25.837761323823912,24.338086867396814 " />
			<path d="M-26.5848126328641,25.162184336240617 L-26.985317357571,25.295685911142915 " />
			<path d="M-29.19353356309791,25.456677613821483 L-30.12436837369495,23.617284970144485 " />
			<path d="M-30.12436837369457,23.617284970144066 L-26.09308563823849,24.96104588196276 " />
			<path d="M-28.33091301435198,25.744217796736578 L-29.193533563097763,25.456677613821316 " />
			<path d="M-28.44648225405772,19.183077585564043 L-28.04597752935082,19.049576010661745 " />
			<path d="M-28.04597752935082,19.049576010661745 L-25.29168171066354,19.967674616890843 " />
			<path d="M-25.837761323823912,18.888584307983177 L-24.90692651322687,20.727976951660175 " />
			<path d="M-26.985317357571,13.30142452934486 L-27.869200834054183,13.006796703850465 " />
			<path d="M-27.338870748164272,31.659646941821844 L-27.190944579109097,31.60827492400457 L-27.04308315599541,31.552798801655435 L-26.895351196426002,31.493242856169644 L-26.747813361338636,31.42963315464396 L-26.600534226704553,31.361997538467357 L-26.453578255264148,31.290365611135122 L-26.307009768312234,31.214768725291666 L-26.160892917545166,31.13523996900773 L-26.015291656982246,31.051814151298075 L-25.870269714973627,30.96452778688587 L-25.72589056630698,30.873419080220536 L-25.582217404425176,30.778527908755994 L-25.439313113767067,30.67989580549669 L-25.29724024224356,30.57756594081895 L-25.15606097386095,30.47158310357571 L-25.015837101503543,30.361993681492848 L-24.876629999887477,30.24884564086568 L-24.738500598697577,30.132188505564564 L-24.601509355918964,30.012073335358746 L-24.46571623137515,29.88855270356795 L-24.331180660484176,29.76168067405154 L-24.19796152824427,29.63151277754524 L-24.0661171434604,29.498105987355835 L-23.935705213223063,29.36151869442449 L-23.80678281765039,29.22181068176953 L-23.67940638490471,29.079043098319982 L-23.553631666494468,28.933278432151248 L-23.429513712872275,28.784580483134633 L-23.30710684933983,28.63301433501271 L-23.186464652270246,28.47864632691278 L-23.067639925658117,28.32154402431081 L-22.950684678007725,28.16177618945865 L-22.835650099569396,27.999412751287426 L-22.722586539933957,27.834524774800286 L-22.611543485995195,27.667184429967882 L-22.50256954028991,27.497464960140224 L-22.395712399725,27.32544064998874 L-22.291018834700946,27.151186792992533 L-22.18853466864089,26.974779658483147 L-22.08830475793408,26.796296458262137 L-21.99037297230266,26.615815312806177 L-21.894782175600294,26.433415217074444 L-21.801574207051036,26.249176005933215 L-21.71078986293668,26.06317831921289 L-21.622468878740616,25.875503566412682 L-21.536649911755948,25.6862338910684 L-21.453370524165564,25.495452134798974 L-21.3726671666015,25.303241801047434 L-21.294575162190828,25.109687018532192 L-21.219128691095044,24.914872504424682 L-21.14636077554974,24.718883527269437 L-21.07630326541105,24.521805869662803 L-21.00898682421525,24.323725790706664 L-20.94444091575764,24.124729988253655 L-20.882693791196477,23.924905560960244 L-20.823772476687708,23.724339970164475 L-20.76770276155588,23.52312100160495 L-20.71450918700637,23.32133672699777 L-20.664215035383926,23.119075465488375 L-20.616842319982208,22.91642574499504 L-20.572411775408746,22.713476263460997 L-20.53094284850961,22.510315850032164 L-20.492453689857705,22.30703342617746 L-20.456961145808403,22.103717966768638 L-20.424480751126083,21.90045846113682 L-20.395026722184674,21.697343874122673 L-20.368611950745294,21.494463107137292 L-20.345247998313646,21.29190495925088 L-20.324945091079627,21.089758088326167 L-20.307712115441454,20.8881109722137 L-20.29355661411614,20.687051870025886 L-20.282484782838136,20.48666878350678 L-20.274501467647486,20.2870494185145 L-20.26961016276879,20.0882811466332 L-20.26781300908179,19.89045096693129 L-20.269110793184353,19.69364546788274 L-20.27350294704815,19.497950789468124 L-20.2809875482673,19.303452585471895 L-20.291561320899792,19.110235985992514 L-20.305219636901313,18.918385560181783 L-20.321956518150934,18.727985279229678 L-20.34176463906764,18.539118479610934 L-20.364635329816707,18.351867826609435 L-20.390558580104386,18.166315278136356 L-20.419523043559327,17.982542048857937 L-20.45151604269878,17.800628574648556 L-20.48652357447742,17.620654477384672 L-20.524530316416342,17.442698530095054 L-20.565519633309584,17.26683862248256 L-20.609473584505192,17.0931517268325 L-20.656372931757694,16.921713864322573 L-20.70619714764849,16.752600071749093 L-20.75892442457053,16.58588436868404 L-20.814531684273312,16.421639725077394 L-20.872994587963994,16.259938029318846 L-20.93428754696029,16.100850056772888 L-20.9983837338904,15.944445438801083 L-21.065255094435084,15.790792632285065 L-21.13487235960682,15.63995888966356 L-21.207205058560543,15.492010229496632 L-21.282221531930475,15.347011407569916 L-21.359888945687132,15.205025888551637 L-21.440173305508495,15.066115818214694 L-21.52303947165899,14.930341996236015 L-21.60845117436986,14.797763849585078 L-21.69637102971409,14.668439406513286 L-21.786760555969032,14.542425271155516 L-21.879580190459507,14.419776598754991 L-21.974789306873994,14.300547071522368 L-22.072346233046442,14.184788875139493 L-22.17220826919577,14.072552675918198 L-22.274331706615186,13.96388759862414 L-22.378671846803094,13.85884120497531 L-22.48518302102721,13.757459472824717 L-22.593818610313367,13.659786776036299 L-22.70453106585019,13.565865865062882 L-22.817271929800818,13.475737848234697 L-22.931991856512425,13.389442173766634 L-23.048640634114385,13.307016612492113 L-23.16716720649555,13.228497241331134 L-23.287519695651024,13.153918427499754 L-23.409645424388735,13.083312813467845 L-23.53349093938572,13.016711302671794 L-23.659002034584198,12.95414304598835 L-23.786123774917034,12.895635428975533 L-23.91480052035236,12.841214059886248 L-24.044975950246673,12.790902758459772 L-24.176593087995833,12.744723545496091 " />
			<path d="M-24.17659308799589,12.744723545496072 L-24.331109112470415,12.696326639673023 L-24.487399067236076,12.653553461783604 L-24.645370774946883,12.616429238772325 L-24.804931066385528,12.584975865919375 L-24.965985835413118,12.559211893927106 L-25.128440094471486,12.53915251797914 L-25.292198030605366,12.524809568778478 L-25.457163061971343,12.516191505569946 L-25.623237894800305,12.513303411151062 L-25.790324580779775,12.516146988874283 L-25.958324574822278,12.524720561642399 L-26.127138793185665,12.539019072897641 L-26.296667671911152,12.559034089603992 L-26.466811225544568,12.584753807220826 L-26.637469106106185,12.616163056665053 L-26.80854066227438,12.653243313257608 " />
			<path d="M-18.16618544791024,14.748192758857957 L-18.05725432899458,14.78608034318019 L-17.949302135050768,14.826795569891077 L-17.84236117129242,14.870326254763063 L-17.73646344031766,14.916659371029178 L-17.63164063253218,14.965781053281379 L-17.527924116665734,15.017676601619815 L-17.425344930384895,15.072330486051872 L-17.32393377100488,15.129726351139578 L-17.223720986303242,15.189847020894051 L-17.12473656543814,15.252674503915502 L-17.027010129973938,15.31818999877724 L-16.93057092501681,15.386373899652092 L-16.835447810463023,15.457205802179544 L-16.741669252362442,15.530664509571848 L-16.649263314399942,15.606728038957248 L-16.55825764949722,15.68537362795847 L-16.468679491537525,15.76657774150448 L-16.38055564721577,15.850316078873453 L-16.29391248801652,15.936563580964892 L-16.208775942322188,16.02529443779867 L-16.125171487653844,16.11648209623882 L-16.043124143046953,16.21009926793964 L-15.96265846156428,16.306117937511917 L-15.883798522948304,16.404509370906638 L-15.80656792641522,16.505244124013792 L-15.730989783592758,16.608292051473647 L-15.657086711603927,16.713622315697947 L-15.584880826298718,16.82120339609815 L-15.514393735635847,16.931003098518143 L-15.445646533216461,17.042988564868498 L-15.378659791971765,17.157126282959418 L-15.313453558006495,17.273382096529403 L-15.25004734460001,17.391721215466692 L-15.188460126366852,17.512108226220352 L-15.128710333578505,17.63450710239799 L-15.070815846648042,17.75888121554679 L-15.01479399077933,17.88519334611476 L-14.96066153078238,18.013405694588876 L-14.908434666056388,18.14347989280676 L-14.858129025741999,18.275377015438526 L-14.809759664044202,18.409057591635396 L-14.763341055727295,18.544481616841516 L-14.718887091783236,18.68160856476554 L-14.676411075274693,18.82039739950829 L-14.63592571735405,18.960806587842967 L-14.597443133459526,19.102794111644148 L-14.560974839689571,19.246317480461943 L-14.526531749356622,19.391333744237432 L-14.494124169721243,19.537799506155704 L-14.463761798907615,19.68567093563255 L-14.435453723001348,19.83490378143097 L-14.409208413330404,19.985453384903593 L-14.385033723930022,20.137274693356968 L-14.362936889192362,20.290322273533793 L-14.342924521701576,20.44455032520908 L-14.325002610254954,20.59991269489604 L-14.309176518070757,20.756362889657773 L-14.295450981183247,20.91385409102048 L-14.283830107025398,21.072339168984122 L-14.274317373199732,21.23177069612633 L-14.266915626437639,21.392100961795236 L-14.261627081747456,21.553281986387137 L-14.258453321751638,21.715265535704667 L-14.257395296213144,21.878003135390944 " />
			<path d="M-14.257395296213144,21.87800313539103 L-14.260363957843733,22.15216142817915 L-14.26926745005702,22.42806862778802 L-14.284098296908379,22.705493064789778 L-14.30484404546505,22.98420179578649 L-14.33148727626242,23.263960799004362 L-14.364005617930538,23.54453517079351 L-14.402371765978549,23.82568932286818 L-14.446553505721294,24.1071871801218 L-14.49651373932884,24.38879237885082 L-14.552210516976201,24.67026846522087 L-14.613597072067112,24.951379093808654 L-14.680621860502264,25.231888226052714 L-14.753228603959048,25.5115603284466 L-14.831356337146453,25.790160570307943 L-14.914939458995448,26.06745502095743 L-15.00390778774186,26.343210846142014 L-15.098186619855483,26.61719650353753 L-15.197696792765978,26.889181937166516 L-15.30235475133286,27.158938770568035 L-15.412072618003762,27.426240498557213 L-15.526758266602076,27.690862677413552 L-15.646315399682017,27.95258311333832 L-15.77064362938616,28.21118204902278 L-15.899638561737534,28.466442348170524 L-16.033191884295512,28.71814967781907 L-16.171191457101905,28.96609268830761 L-16.3135214068409,29.2100631907398 L-16.460062224133726,29.44985633179252 L-16.61069086388642,29.685270765723892 L-16.76528084860639,29.916108823436122 L-16.923702374601085,30.142176678451197 L-17.085822420969432,30.363284509659973 " />
			<path d="M-17.085822420969482,30.36328450966004 L-17.1843114012121,30.492839774086033 L-17.28404053879926,30.62052235754256 L-17.384979989306558,30.74629405040198 L-17.487099546117577,30.870117214879844 L-17.590368649463425,30.991954796298206 L-17.694756395567893,31.111770334174416 L-17.800231545895528,31.229527973132072 L-17.90676253649992,31.345192473630938 L-18.01431748746939,31.458729222512535 L-18.122864212467196,31.57010424335829 L-18.23237022836342,31.679284206657154 L-18.342802764955746,31.786236439779625 L-18.454128774776077,31.890928936755156 L-18.566314942980142,31.99333036785013 L-18.679327697317152,32.09341008894343 L-18.793133218176422,32.19113815069682 L-18.907697448708078,32.28648530751745 L-19.02298610501472,32.37942302630971 L-19.138964686411043,32.469923495013944 L-19.255598485748365,32.5579596309293 L-19.37285259980085,32.64350508881837 L-19.490691939710512,32.726534268791156 L-19.60908124148771,32.80702232396591 L-19.72798507656407,32.884945167904725 L-19.847367862394645,32.96027948182151 L-19.96719387310617,33.033002721560216 L-20.087427250188192,33.10309312434134 L-20.208032013223946,33.17052971527449 L-20.328972070657596,33.23529231363525 L-20.450211230594853,33.29736153890435 L-20.57171321163358,33.35671881656739 L-20.69344165372114,33.41334638367333 L-20.815360129035348,33.46722729415015 L-20.93743215288566,33.51834542387607 L-21.05962119463138,33.56668547550473 L-21.181890688613674,33.61223298304299 L-21.30420404509796,33.65497431618003 L-21.426524661223603,33.69489668436617 L-21.54881593195749,33.73198814064058 L-21.671041261048245,33.766237585206454 L-21.793164071977852,33.797634768752644 L-21.91514781890736,33.82617029552086 L-22.036955997613376,33.851835626117385 L-22.158552156412128,33.874623080068496 L-22.279899907067865,33.89452583811892 L-22.40096293568213,33.91153794427252 L-22.521705013560915,33.925654307574646 L-22.64209000805628,33.936870703635634 L-22.76208189337919,33.94518377589498 L-22.881644761380425,33.950591036625795 L-23.000742832296275,33.95309086767929 L-23.119340465455778,33.952682520968985 L-23.237402169946385,33.94936611869459 L-23.354892615234792,33.94314265330546 L-23.47177664173975,33.934013987203556 L-23.58801927135374,33.92198285218615 L-23.703585717910375,33.90705284862831 L-23.81844139759428,33.88922844440545 L-23.932551939290498,33.86851497355633 L-24.0458831948702,33.844918634686806 L-24.158401249409682,33.81844648911484 L-24.270072431339546,33.789106458757416 L-24.380863322521133,33.75690732375984 L-24.49074076824694,33.72185871986825 " />
			<path d="M-17.257320914968272,16.777379221673343 L-17.250015787393576,16.786454509495822 L-17.18458329062283,16.870028456628415 L-17.121988500186557,16.9544177955529 L-17.06221633855497,17.040045682484426 L-17.005975417618117,17.126282540716623 " />
			<path d="M-17.143878009538355,16.34898924881564 L-17.209286235387058,16.43202353250163 L-17.240603854518998,16.46728481224383 L-17.27404206912926,16.501675986748392 L-17.28696616680255,16.51408315490355 " />
			<path d="M-17.143878009538355,16.34898924881564 L-17.204835628534266,16.24813038508695 " />
			<path d="M-17.618963101971335,15.938492335930354 L-17.512440307034897,16.014997972260677 L-17.357557966137637,16.130033437100476 L-17.204835628534273,16.24813038508694 " />
			<path d="M-17.77051192493861,15.605129930243736 L-17.789355296005766,15.641088597847892 L-17.80778525890915,15.678672247112395 L-17.824356104474145,15.714422931777843 " />
			<path d="M-17.77051192493861,15.605129930243736 L-17.86748079505245,15.520727125946372 " />
			<path d="M-18.436499385016813,15.211912924078232 L-18.396804105591826,15.232353284390213 L-18.132338377462055,15.372783534348182 L-17.86748079505246,15.520727125946362 " />
			<path d="M-18.67128709204023,14.953414613012521 L-18.704975116711026,14.967914111902859 L-18.73946214782262,14.982875413522558 L-18.771346627820346,14.99642682874859 " />
			<path d="M-18.67128709204023,14.953414613012521 L-18.80958737022083,14.872804384331292 " />
			<path d="M-19.766752382540645,14.48468503936993 L-19.54150557553295,14.568232239502601 L-19.305222180237315,14.661440801279964 L-19.060412397090847,14.763301439970414 L-18.80958737022085,14.872804384331282 " />
			<path d="M-20.14786624850224,14.48484303679737 L-20.28547319157203,14.411111926543395 L-20.416489600066296,14.341953615866082 L-20.547931449034333,14.273618395144185 " />
			<path d="M-20.14786624850224,14.48484303679737 L-20.164174398305285,14.49664815348247 L-20.176902718447522,14.510946477607591 L-20.18629477125234,14.527661656285463 L-20.19253401508058,14.546750560290794 " />
			<path d="M-20.502679682715808,14.521316080983459 L-20.431223557727023,14.522432151381413 L-20.356021581123752,14.526849597324803 L-20.2766122384077,14.534858904924356 L-20.19253401508058,14.546750560290796 " />
			<path d="M-20.502679682715808,14.521316080983459 L-20.481004144505327,14.568764349357014 " />
			<path d="M-20.140320234173902,14.787794922934992 L-20.161350360694605,14.773921488718255 L-20.28416597207479,14.693834887451604 L-20.481004144505324,14.568764349357016 " />
			<path d="M-20.140320234173902,14.787794922934992 L-20.110309066696562,14.852910499976284 L-20.074597761339582,14.922958316728856 " />
			<path d="M-20.24433578798542,14.984887935190475 L-20.198432554369795,14.963506744867981 L-20.15007048883619,14.944904049680908 L-20.08456297457749,14.925399626276107 L-20.074597761339575,14.922958316728863 " />
			<path d="M-20.24433578798542,14.984887935190475 L-20.197999277621285,15.057422798447286 " />
			<path d="M-19.82961309629745,15.322043576804857 L-19.95638852795372,15.23046251836745 L-20.07701441728952,15.143748842271114 L-20.197999277621285,15.057422798447291 " />
			<path d="M-19.82961309629745,15.322043576804857 L-19.7586013774257,15.424457665158695 L-19.682150057837372,15.530451521409596 " />
			<path d="M-19.758656724594573,15.681686764663654 L-19.736413665970375,15.629022844761275 L-19.711668425751295,15.579728558096624 L-19.682150057837365,15.530451521409606 " />
			<path d="M-19.758656724594573,15.681686764663654 L-19.673991182880293,15.791302525088028 " />
			<path d="M-19.172792567102906,16.147830424337513 L-19.297935780961634,16.062217600125678 L-19.423209274929015,15.973870076991227 L-19.67399118288029,15.791302525088035 " />
			<path d="M-19.172792567102906,16.147830424337513 L-19.092426863898332,16.23256886071124 L-19.00959466191251,16.316421170871877 L-18.92522171849248,16.398157165435965 L-18.83936319517783,16.47749093477862 " />
			<path d="M-18.76009662369629,16.7713517853633 L-18.784577327042662,16.694070825800868 L-18.8058177314666,16.61931706613152 L-18.824014224875764,16.547115453431893 L-18.839363195177818,16.47749093477863 " />
			<path d="M-18.76009662369629,16.7713517853633 L-18.64534807932385,16.867003981926253 L-18.529874688487546,16.95663272164351 " />
			<path d="M-17.078155681754964,17.244563412549006 L-17.148164746733332,17.261394877612172 L-17.22104210200256,17.274400487020845 L-17.296862794033682,17.28334244459996 L-17.375701869297725,17.287982954174442 L-17.457634374265712,17.288084219569228 L-17.54273535540867,17.283408444609247 L-17.63107985919763,17.27371783311943 L-17.722742932103614,17.258774588924716 L-17.81733993536601,17.238381370893993 L-17.91420624505909,17.21263664748063 L-18.012996929906215,17.18174633688627 L-18.113367058630754,17.14591635731255 L-18.21517553641797,17.105389778066257 L-18.318520428313708,17.06030301767953 L-18.42341554283216,17.010702018192056 L-18.52987468848753,16.95663272164352 " />
			<path d="M-17.078155681754964,17.244563412549006 L-17.05663297744571,17.21757115593956 L-17.037433935796656,17.18882926058555 L-17.02054808725147,17.158386333412597 L-17.00597541761812,17.12628254071663 " />
			<path d="M-26.80854066227436,12.653243313257192 L-26.985317357571,12.830702875693813 " />
			<path d="M-26.985317357571,12.830702875693815 L-26.985317357571,18.696022620068472 " />
			<path d="M-26.985317357571,18.696022620068472 L-25.722126691205172,19.11708617552375 " />
			<path d="M-19.648514703269374,15.810101706544456 L-19.6600063577611,15.741087976374565 L-19.669492864602365,15.671351500620526 L-19.676896719189276,15.601075350935837 L-19.682150057837333,15.530451521410116 " />
			<path d="M-20.129261098362942,15.106378690869159 L-20.104208038525247,15.01264558408987 L-20.074597761339728,14.922958316729288 " />
			<path d="M-20.324362154122166,14.667968125403604 L-20.293431505020717,14.635318666226723 L-20.261124507877437,14.604168788459008 L-20.227477659715934,14.574615167070311 L-20.192534015080877,14.546750560291024 " />
			<path d="M-17.01511174285058,30.269003605501496 L-16.857044697641392,30.053423470072875 L-16.702583709796563,29.833007311433178 L-16.55185847469459,29.60794020516375 L-16.404995550935716,29.378411132080664 L-16.26211825407521,29.14461281955426 L-16.123346553079692,28.90674157968288 L-15.988796969593457,28.66499714445655 L-15.858582480099429,28.41958249804922 L-15.732812421056838,28.17070370638017 L-15.6115923970953,27.918569744087822 L-15.495024192342358,27.66339231906117 L-15.383205684959002,27.40538569467624 L-15.276230764954871,27.144766509886793 L-15.174189255352161,26.881753597320312 L-15.077166836764427,26.61656779953205 L-14.985244975453645,26.349431783571422 L-14.898500854925894,26.08056985401645 L-14.817007311123124,25.8102077646332 L-14.740832771265403,25.538572528818392 L-14.670041196395038,25.265892228984356 L-14.604692027670765,24.992395825046398 L-14.544840136457129,24.71831296217331 L-14.490535778250951,24.44387377796251 L-14.441824550483592,24.169308709201715 L-14.398747354234416,23.894848298379433 L-14.361340359887606,23.62072300010663 L-14.329634976761191,23.34716298761221 L-14.303657826733755,23.074397959474787 L-14.283430721891001,22.802656946752993 L-14.268970646210926,22.53216812067628 L-14.26028974130297,22.263158601057633 L-14.257395296213145,21.995854265589294 " />
			<path d="M-28.04597752935082,13.184256266287091 L-28.04597752935082,19.04957601066175 " />
			<path d="M-26.985317357571,25.295685911142915 L-26.985317357571,28.595517556680136 " />
			<path d="M-28.04597752935082,28.949070947273412 L-26.985317357571,28.595517556680136 " />
			<path d="M-28.04597752935082,25.64923930173619 L-28.04597752935082,28.949070947273412 " />
			<path d="M-28.04597752935082,25.649239301736188 L-26.985317357571,26.002792692329464 " />
			<path d="M-30.12436837369462,23.617284970144173 L-30.149412889302184,23.60021103849329 L-30.173282143508548,23.580809066467992 L-30.195892051856838,23.55914740158622 L-30.217162966200238,23.535302351608188 L-30.237019955279305,23.509357915726294 L-30.255393068683045,23.48140548866034 L-30.272217583263924,23.451543538700435 L-30.28743423113872,23.419877260831807 L-30.300989408472116,23.386518206163377 L-30.312835364307407,23.351583888965557 L-30.322930368779314,23.315197372701597 L-30.331238860116155,23.2774868365107 L-30.342385626239132,23.19862927362675 L-30.346118733710753,23.11612139098562 L-30.342385626239132,23.031124770030072 L-30.331238860116155,22.9448360297308 L-30.312835364307404,22.858469980070115 L-30.287434231138718,22.773242519424738 L-30.25539306868304,22.69035351662576 L-30.21716296620023,22.61096991868937 L-30.173282143508537,22.536209322035106 L-30.12436837369461,22.467124238482977 " />
			<path d="M-28.446482254057667,25.78274087663863 L-28.501437745914238,25.82952731117586 L-28.558423578302712,25.868681256301198 L-28.616735463213903,25.89971880833353 L-28.64616386143805,25.912070007310593 L-28.675652723953018,25.922256374109182 L-28.70511086704382,25.930246411048905 L-28.734447201984267,25.93601541181053 L-28.76357101669611,25.93954553783142 L-28.792392256243577,25.940825873464867 L-28.82082180129591,25.939852459732816 L-28.848771743696872,25.93662830656759 L-28.87615565828916,25.931163383504742 L-28.90288887015315,25.923474588855854 " />
			<path d="M-28.902888870153152,25.923474588855854 L-28.93233167166876,25.912086571261696 L-28.960713002050863,25.897911142120286 L-28.98791986646352,25.88100473819018 L-29.013843945982323,25.861434669083454 L-29.038382028845426,25.839278849285378 L-29.06143642137146,25.814625487952796 L-29.082915336908215,25.787572737726244 L-29.10273326126363,25.758228303954002 L-29.1208112931642,25.726709015883856 L-29.13707745838527,25.693140361529807 L-29.151466996302677,25.657655988065546 L-29.163922617724744,25.62039716973382 L-29.174394732978254,25.581512245390066 L-29.182841649340247,25.54115602791963 L-29.189229737029606,25.499489187879902 L-29.193533563097606,25.45667761382125 " />
			<path d="M-28.04597752935082,25.64923930173619 L-28.44648225405772,25.78274087663849 " />
			<path d="M-25.837761323824218,24.338086867396783 L-25.847586375137865,24.424232887646657 L-25.864703918923034,24.51067477304013 L-25.888872967039312,24.59619555755242 L-25.91975325723681,24.67959124281295 L-25.95691004351439,24.759687748512004 L-25.999820216660773,24.83535744160808 L-26.047879668810904,24.90553501163063 L-26.100411798336182,24.969232468578856 L-26.15667703533308,25.02555305226969 L-26.185963782123412,25.050694860931078 L-26.21588325360618,25.073703857313156 L-26.24633005216452,25.094498987397767 L-26.2771969225613,25.113006995975358 L-26.308375129768173,25.129162684701832 L-26.339754842007547,25.142909141773405 L-26.37122551765808,25.154197942410363 L-26.402676294660704,25.162989319443525 L-26.433996381053532,25.169252303402434 L-26.465075445259767,25.172964831611818 L-26.495804004753847,25.174113825911988 L-26.5260738117366,25.172695238729407 L-26.555778234460867,25.168714067335117 L-26.58481263286415,25.162184336240795 " />
			<path d="M-24.906926513227194,20.72797695166047 L-24.88188199761963,20.745050883311354 L-24.858012743413266,20.76445285533665 L-24.835402835064976,20.786114520218426 L-24.814131920721575,20.809959570196458 L-24.79427493164251,20.83590400607835 L-24.77590181823877,20.86385643314431 L-24.759077303657893,20.89371838310421 L-24.743860655783095,20.92538466097284 L-24.7303054784497,20.958743715641273 L-24.71845952261441,20.993678032839092 L-24.708364518142506,21.030064549103052 L-24.70005602680566,21.06777508529395 L-24.688909260682685,21.146632648177903 L-24.685176153211067,21.229140530819034 L-24.68890926068269,21.314137151774577 L-24.70005602680567,21.400425892073848 L-24.71845952261442,21.486791941734538 L-24.743860655783106,21.57201940237991 L-24.775901818238786,21.65490840517889 L-24.814131920721596,21.73429200311528 L-24.85801274341329,21.809052599769544 L-24.906926513227216,21.87813768332167 " />
			<path d="M-26.584812632864157,18.56252104516603 L-26.53221697046408,18.51755447200773 L-26.47773143061771,18.47957111007233 L-26.421973937671414,18.449001731343788 L-26.365576841281303,18.426193025300147 " />
			<path d="M-26.985317357571,18.69602262006847 L-26.5848126328641,18.56252104516617 " />
			<path d="M-26.98531735757101,12.830702875694017 L-26.820910091028065,12.795455209110878 L-26.656901046916836,12.765582525918832 L-26.493384234980915,12.741101949096084 L-26.330453382817144,12.722027510873373 L-26.168201882151074,12.708370144690718 L-26.006722735304976,12.700137678930389 L-25.846108501889045,12.69733483242969 L-25.686451245746362,12.699963211776124 L-25.527842482182045,12.708021310386503 L-25.370373125506795,12.72150450937052 L-25.214133436924964,12.740405080178288 L-25.05921297279695,12.764712189030337 L-24.90570053330563,12.794411903127509 L-24.753684111556222,12.829487198637237 L-24.60325084313877,12.869917970451562 L-24.454486956182155,12.915681043711368 L-24.307477721928244,12.966750187090163 L-24.162307405854545,13.023096127829847 L-24.01905921937337,13.084686568519809 L-23.877815272135166,13.15148620560975 L-23.738656524963385,13.223456749645647 L-23.60166274344785,13.300556947217185 L-23.466912452223255,13.382742604604172 L-23.33448288995894,13.4699666131083 L-23.20444996508582,13.56217897605579 L-23.076888212285755,13.659326837455417 L-22.951870749768414,13.761354512295473 L-22.829469237359987,13.868203518462346 L-22.709753835427918,13.979812610262371 L-22.592793164665053,14.096117813527785 L-22.478654266756365,14.217052462286617 L-22.36740256595078,14.34254723697552 L-22.25910183156007,14.472530204173658 L-22.153814141406382,14.606926857834837 L-22.051599846239334,14.74566016199423 L-21.95251753514303,14.88865059492533 L-21.85662400195291,15.035816194721647 L-21.76397421270159,15.187072606277166 L-21.67462127411241,15.342333129638568 L-21.58861640315876,15.50150876970153 L-21.506008897706554,15.664508287222567 L-21.42684610825679,15.83123825111724 L-21.3511734108043,16.001603092014726 L-21.27903418082831,16.175505157038025 L-21.210469768429665,16.352844765778464 L-21.14551947462901,16.533520267432348 L-21.084220528839516,16.71742809906705 L-21.02660806752703,16.904462844983144 L-20.972715114069892,17.094517297138527 L-20.922572559830005,17.287482516599894 L-20.87620914644593,17.48324789598641 L-20.833651449358246,17.681701222869645 L-20.79492386257651,17.882728744093633 L-20.760048584696687,18.086215230977977 L-20.72904560617691,18.292044045366772 L-20.701932697879016,18.500097206485407 L-20.678725400882282,18.710255458567005 L-20.659437017575314,18.922398339209636 L-20.644078604031147,19.13640424842518 L-20.6326589636699,19.352150518340274 L-20.625184642212687,19.569513483509347 L-20.621659923929602,19.78836855179948 L-20.622086829184003,20.008590275806444 L-20.62646511327442,20.230052424760967 L-20.634792266574834,20.452628056883984 L-20.64706351597318,20.67618959214952 L-20.663271827607304,20.900608885413384 L-20.683407910896733,21.125757299865747 L-20.70746022386806,21.351505780765578 L-20.735414979770756,21.57772492941464 L-20.767256154979723,21.804285077328633 L-20.80296549818003,22.031056360562975 L-20.8425225408285,22.25790879415064 L-20.885904608886307,22.48471234660934 L-20.933086835815644,22.711337014475358 L-20.984042176833213,22.93765289682138 L-21.038741424412272,23.163530269715487 L-21.0971532250243,23.388839660578743 L-21.159244097110847,23.613451922398678 L-21.224978450275074,23.83723830775618 L-21.294318605682136,24.060070542623297 L-21.36722481765662,24.281820899889727 L-21.443655296464733,24.502362272575855 L-21.52356623226809,24.721568246690246 L-21.606911820235467,24.93931317368995 L-21.693644286798047,25.155472242502093 L-21.78371391703317,25.36992155106539 L-21.87706908316086,25.58253817735061 L-21.973656274136776,25.79320024981934 L-22.073420126324685,26.00178701728054 L-22.17630345523079,26.20817891810495 L-22.282247288281823,26.41225764875765 L-22.39119089862803,26.61390623160947 L-22.503071839951694,26.813009081988394 L-22.617825982261305,27.009452074432538 L-22.735387548650763,27.203122608106682 L-22.855689153002594,27.393909671344908 L-22.978661838613576,27.5817039052823 L-23.104235117720634,27.766397666539344 L-23.232337011904317,27.947885088922913 L-23.362894093346714,28.126062144108605 L-23.49583152692018,28.30082670126965 L-23.63107311308272,28.472078585618142 L-23.76854133155544,28.639719635825074 L-23.908157385757093,28.803653760286284 L-24.049841247970132,28.963786992202024 L-24.193511705212487,29.120027543438546 L-24.339086405788727,29.27228585714099 L-24.486481906493943,29.420474659067192 L-24.635613720443253,29.564509007613175 L-24.78639636549958,29.70430634250156 L-24.938743413271876,29.839786532104974 L-25.092567538655736,29.970871919377387 L-25.247780569888047,30.09748736636703 L-25.404293539086893,30.219560297285344 L-25.56201673324784,30.337020740107327 L-25.720859745667255,30.449801366679385 L-25.880731527763324,30.557837531311733 L-26.041540441264985,30.66106730783322 L-26.20319431073881,30.759431525087315 L-26.36560047642385,30.852873800848922 L-26.52866584734407,30.94134057414258 L-26.692296954667963,31.024781135943563 L-26.85640000528475,31.103147658244197 L-27.020880935566442,31.17639522146881 L-27.185645465284978,31.244481840221557 L-27.35059915165352,31.307368487352413 L-27.51564744346085,31.36501911632743 " />
			<path d="M-29.193533563097606,20.007175054407877 L-29.186553906643166,19.9404255223438 L-29.175160764332716,19.873333545144465 L-29.15945067996481,19.806467650276183 L-29.139556778464872,19.740394449417117 L-29.115647637804326,19.67567383707394 L-29.087925860495847,19.612854246118804 L-29.056626356769737,19.5524680004505 L-29.022014353979444,19.49502680416068 L-28.984383149104303,19.441017405429264 L-28.944051623394433,19.390897471892522 L-28.901361540218293,19.345091712435405 L-28.856674649010586,19.303988278271426 L-28.810369619861177,19.267935473806823 L-28.762838834720924,19.23723880516068 L-28.714485062415186,19.21215839135137 L-28.665718045640528,19.192906760086558 " />
			<path d="M-26.584812632864104,18.56252104516617 L-25.847720951222595,18.808218272380007 " />
			<path d="M-18.14417402722198,17.109316108460767 L-18.21111240002554,17.081013803495612 L-18.276970034717397,17.047529620805825 L-18.351700394037348,17.002482618641626 L-18.426378537597987,16.949510956129817 L-18.50041081519045,16.88867098317611 L-18.573180443911806,16.820148077018313 L-18.64406258644563,16.74425995653192 L-18.712440801877495,16.661454869359936 L-18.77772403314081,16.572304387318823 L-18.839363195177558,16.477490934779055 " />
			<path d="M-18.72981664985116,14.97870293570362 L-18.809587370220655,14.872804384331525 " />
			<path d="M-17.813039433915392,15.689814307307076 L-17.845643114261044,15.584526647729053 L-17.86748079505236,15.520727125946646 " />
			<path d="M-17.208674529177994,16.431305381848173 L-17.20495527241871,16.340483058841198 L-17.20483562853427,16.248130385087237 " />
			<path d="M-17.131299740345398,17.257739214156025 L-17.09801249495168,17.227486834534158 L-17.066008344885837,17.195432337466066 L-17.035320183504766,17.16166618691873 L-17.005975417618245,17.12628254071679 " />
			<path d="M-19.56069615511225,14.808371350865375 L-19.507033626808894,14.82836313286585 L-19.453556596790712,14.852494353279102 L-19.400449922120497,14.880681596355867 L-19.347897179632852,14.912827425664808 L-19.296080031353792,14.948820720906516 L-19.245177596539378,14.988537062029303 L-19.195365832504102,15.031839159319015 L-19.146816926379326,15.078577327976118 L-19.09969869990431,15.128590005539579 L-19.054174029307358,15.181704310368927 L-19.010400282282394,15.23773663925396 L-18.968528774007158,15.296493302086313 L-18.928704244083537,15.357771191398959 L-18.891064356208012,15.421358484459242 L-18.855739222301796,15.48703537548845 L-18.82285095274564,15.554574835476835 L-18.79251323427399,15.623743396967576 L-18.76483093698765,15.69430196109691 L-18.739899751843392,15.766006624100623 L-18.71780585987364,15.83860952042995 L-18.698625634279633,15.91185967956238 L-18.682425376427883,15.985503893545598 L-18.6692610866625,16.059287592275687 L-18.65917827072565,16.132955723483946 L-18.652211782455293,16.206253634390432 L-18.648385703303955,16.278927951976584 L-18.64771325909502,16.35072745883401 L-18.65019677430427,16.421403961561854 L-18.65582766402475,16.490713148710906 L-18.664586463642696,16.558415435308756 L-18.676442896121955,16.62427679104667 L-18.691355976664333,16.688069549265354 " />
			<path d="M-19.820995024985525,14.399477224615648 L-19.729876109097212,14.437721462042045 L-19.639593735810656,14.483731721066071 L-19.55014027984746,14.537535593461147 L-19.461793961829382,14.599080383153588 " />
			<path d="M-20.40092626003339,14.350114611188662 L-20.331567243576345,14.337126520973959 L-20.26093236667341,14.329568409446338 L-20.18940183723735,14.327524280364985 L-20.11698379311778,14.331034423222848 L-20.04357740721154,14.340040377290999 L-19.969538782786948,14.354486518027974 L-19.895225471494708,14.374317311710586 L-19.820995024985532,14.399477224615644 " />
			<path d="M-20.103821007434334,14.866115537968067 L-20.074173900255857,14.847949149443277 L-20.04371295887776,14.831649677768116 L-20.012486462229518,14.817242956715537 L-19.98054390260393,14.804751820152067 L-19.94793590721452,14.794196065847373 L-19.914714157954197,14.785592424095878 L-19.88093130948223,14.778954531200158 L-19.84664090576953,14.774292907858145 L-19.811897295234356,14.771614942488398 L-19.77675554460305,14.770924879519862 L-19.705500956831074,14.7755096831847 L-19.63332870198809,14.788018263715674 L-19.560696155112257,14.808371350865372 " />
			<path d="M-31.652222113392448,16.19757865986272 L-31.581511435273413,16.10329775570427 " />
			<path d="M-34.40993856002991,24.4707279997751 L-34.40993856002975,24.588579129973283 " />
			<path d="M-24.490740768247,33.72185871986823 L-30.501148408332654,31.718389506506348 " />
			<path d="M-18.16618544791024,14.748192758857954 L-24.176593087995894,12.744723545496068 " />
			<path d="M-17.01511174285057,30.26900360550149 L-17.085822420969606,30.36328450965994 " />
			<path d="M-14.257395296213147,21.995854265589205 L-14.257395296213305,21.878003135391022 " />

       </g>
    </g>
    
</svg>
