<?xml version="1.0" encoding="UTF-8" standalone="no"?>
<svg
   xmlns:svg="http://www.w3.org/2000/svg"
   xmlns="http://www.w3.org/2000/svg"
   width="1024.0"
   height="320.0"

>
    <g transform="scale(10.857960136188604, -10.857960136188604)   translate(20.4525980742034,-21.227138000388525)" stroke-width="0.4666666679999999"  fill="none">
       <!-- hidden lines -->
       <g  stroke="rgb(32,64,32)" fill="none" stroke-dasharray="0.4666666679999999,0.4666666679999999" >

       </g>

       <!-- solid lines -->
       <g  stroke="rgb(64,192,64)" fill="none">
			<path d="M4.440892098500626e-16,2.710575994548432 L-0.0997512451050504,2.7405614020888147 L-0.19926218072346835,2.7639445571667522 L-0.29829307629521706,2.780669127713539 L-0.39660535771878447,2.7906948227738293 L-0.49396218209708304,2.793997489570075 L-0.5901290083127351,2.790569171688685 L-0.6848741620581689,2.7804181282477214 L-0.7779693939593164,2.763568813999959 L-0.8691904294483492,2.7400618204192457 L-0.9583175090607557,2.7099537779120877 L-1.04513591785514,2.6733172193900376 L-1.1294365026803224,2.630240405531558 L-1.2110161760436002,2.580827112154317 L-1.2896784053663062,2.525196380210154 L-1.3652336864480052,2.4634822290049976 L-1.4374999999987104,2.395833333334623 L-1.5063032501392972,2.3224126653140424 L-1.5714776838137245,2.2433971017634096 L-1.632866290102665,2.1589769980962616 L-1.6903211784765615,2.0693557297366607 L-1.7437039350768682,1.9747492021699813 L-1.7928859561671577,1.875385330807683 L-1.8377487579507874,1.771503491919125 L-1.8781842620087443,1.6633539459531637 L-1.9140950556700203,1.5511972346388112 L-1.9453946266872717,1.4353035533173917 L-1.9720075716523995,1.3159521000182957 L-1.9938697776499643,1.193430402846471 L-2.010928576710815,1.068033627302039 L-2.02314287269384,0.9400638652007448 L-2.03048324029017,0.8098294069083155 L-2.0329319959113246,0.677643998641996 " />
			<path d="M-2.0329319959113246,0.6776439986419703 L-2.0295187516812097,0.5195001695778353 L-2.019290480501401,0.35961188377827513 L-2.002281528417573,0.19851603846375676 L-1.9785490106777315,0.03675358578187293 L-1.9481726199419451,-0.1251322836841101 L-1.911254358678202,-0.2865979649232652 L-1.8679181966429976,-0.4471012638966436 L-1.8183096545968183,-0.6061032181989394 L-1.7625953156523841,-0.7630699068684839 L-1.700962265896521,-0.9174742432683087 L-1.6336174661640226,-1.068797745017878 L-1.5607870570730618,-1.2165322750321366 L-1.482715599655804,-1.360181747821549 L-1.3996652541341557,-1.4992637953234609 L-1.3119148995982661,-1.633311386670994 L-1.2197591975438844,-1.761874396460361 " />
			<path d="M-1.2197591975438773,-1.7618743964603707 L-1.1675058504753553,-1.8298372022472447 L-1.1140752021421871,-1.8959548184349206 L-1.0595211314776807,-1.9601605726781404 L-1.0038986502630343,-2.022389720534169 " />
			<path d="M-1.0842155923076866,-1.9366918414202532 L-1.184403858484419,-1.8090148485396478 " />
			<path d="M-2.032931995911324,0.7365695637410584 L-2.0316624602510305,0.8339859084422252 L-2.0278553728153472,0.9304392955204687 L-2.021515290420293,1.0258142770522243 L-2.0126498016987813,1.1199966958895553 L-2.0012695180175584,1.2128738222982292 L-1.9873880607761458,1.304334488887289 L-1.9710220451029825,1.3942692236686018 L-1.9521910599682804,1.4825703810871378 L-1.9309176447374095,1.5691322708651234 L-1.9072272621928594,1.6538512845058801 L-1.8811482680570781,1.7366260193059126 L-1.8527118770526676,1.8173573997268102 L-1.8219521255405533,1.8959487959817043 L-1.788905830780855,1.972306139694331 L-1.7536125468652117,2.046338036492262 L-1.716114517373319,2.117955875399547 L-1.6764566248103292,2.1870739348978177 L-1.634686336885652,2.2536094855289233 L-1.5908536496974397,2.317482888916273 L-1.5450110278907765,2.3786176930863756 L-1.4972133418611826,2.4369407239764764 L-1.4475178020786108,2.492382173018767 L-1.3959838906105366,2.5448756806963315 L-1.342673289926101,2.5943584159708273 L-1.2876498090665354,2.6407711514868137 L-1.2309793072702249,2.68405833446274 L-1.1727296151438258,2.7241681531837174 L-1.112970453473803,2.7610525990164945 L-1.051773349775548,2.794667523872424 L-0.9892115526799701,2.824972693049614 L-0.9253599442600371,2.851931833391045 L-0.8602949504022044,2.875512676700978 " />
			<path d="M-0.860294950402196,2.8755126767009807 L-0.8049225143918619,2.8926425295293 L-0.7487999971346222,2.907368272516368 L-0.6919745227051006,2.919677540981391 L-0.6344938054259677,2.9295599992709773 L-0.5764061098039259,2.9370073494376263 L-0.5177602100037302,2.9420133382072122 L-0.45860534889426113,2.944573762229638 L-0.39899119670104166,2.9446864716082395 L-0.33896780929992787,2.9423513717049743 L-0.2785855861869733,2.937570423219886 L-0.21789522815976875,2.9303476405447775 L-0.156947694745797,2.920689088392465 L-0.09579416141353408,2.9086028767044607 L-0.03448597660223257,2.894099153841338 L0.026925381393525794,2.87719009806152 L0.08838834764830844,2.857889907295633 " />
			<path d="M-1.0038986502630145,-2.0223897205341537 L-1.0455438559447792,-1.979696021517476 L-1.0842155923077506,-1.9366918414203627 " />
			<path d="M0.08838834764831788,2.85788990729563 L0.17308298271043204,2.827403149824925 L0.2576425572692939,2.792454583955176 L0.3419322261993973,2.753099941326184 L0.42581757478726695,2.709401979842683 L0.5091648330793812,2.6614303835958184 L0.5918410892019099,2.609261651739592 L0.6737145013120855,2.5529789764995034 L0.754654507843235,2.4926721105078964 L0.8345320357081749,2.428437223677593 L0.9132197061289695,2.3603767498420387 L0.9905920377648099,2.2885992234065244 L1.0665256468141049,2.2132191062709734 L1.1408994437716629,2.134356605300296 L1.213594826527226,2.0521374806333856 L1.28449586949741,1.9666928451364383 L1.3534895084894507,1.8781589553204134 L1.4204657210019633,1.7866769940560399 L1.485317701675186,1.692392845432877 L1.547942032610921,1.595456862121464 L1.608238848290581,1.4960236256095154 L1.6661119948283358,1.3942516996945302 L1.7214691833054059,1.290303377625912 L1.7742221369409925,1.1843444232998075 L1.8242867318651392,1.0765438069194022 L1.871583131269048,0.9670734355421942 L1.9160359127189257,0.8561078789439293 L1.9575741884303322,0.74382409123636 L1.9961317183112288,0.6304011286827728 L2.031647015593461,0.5160198641612648 L2.0640634448842374,0.40086269873109526 L2.09332931248123,0.2851132707620936 L2.1193979488072827,0.16895616309095798 L2.1422277828332654,0.052576608671424586 L2.161782408370399,-0.06383980481227577 L2.178030642126329,-0.1801074308976411 L2.190946573432376,-0.29604086038986804 L2.2005096055626563,-0.4114552170294454 L2.2067044885791876,-0.5261664523098875 L2.209521343650599,-0.6399916389754823 L2.2089556788056663,-0.7527492627309933 L2.2050083960965514,-0.8642595116981473 L2.197685790160321,-0.9743445631573299 L2.1869995381810385,-1.0828288671172164 L2.17296668126844,-1.189539426260127 L2.155609597282887,-1.2943060718166965 L2.134955965149925,-1.3969617349299357 L2.111038720721369,-1.4973427130759291 L2.083896004253288,-1.5952889311163212 L2.053571099584654,-1.6906441965663075 L2.020112365113641,-1.7832564486710374 L1.98357315668165,-1.8729780008932524 L1.9440117424880257,-1.9596657764254684 L1.901491210171158,-2.0431815363511276 L1.8560793662041397,-2.1233921000908826 L1.8078486277654044,-2.2001695577824774 L1.7568759072567932,-2.273391474255531 L1.703242489653193,-2.342941084275966 L1.6470339028793366,-2.408707478748732 L1.5883397814204665,-2.4705857815818772 L1.527253723384377,-2.5284773169299397 L1.463873141242756,-2.5822897665499456 L1.3982991064898516,-2.631937317019101 L1.3306361884661828,-2.6773407965793994 L1.2609922876043402,-2.7184278013909147 " />
			<path d="M50.58169027536607,13.721804861196164 L1.260992287604381,-2.7184278013910728 " />
			<path d="M50.58169027536601,13.721804861196313 L50.635546282997865,13.75309307465222 L50.68824006817805,13.786955604761067 L50.73972169702953,13.823360362588485 L50.7899423843433,13.862272850124999 L50.83885453980835,13.903656192977152 L50.88641181310941,13.947471175310556 L50.93256913784958,13.993676277011744 L50.97728277425635,14.04222771303361 L51.02051035063038,14.093079474887153 L51.06221090349799,14.14618337424022 L51.10234491642908,14.20148908858189 L51.14087435748384,14.258944208909298 L51.17776271525272,14.318494289391625 L51.2129750334555,14.380082898964268 L51.24647794406669,14.44365167480425 L51.27823969893587,14.509140377636205 L51.308230199872966,14.576486948816544 L51.33642102717003,14.645627569141698 L51.362785466532415,14.716496719324693 L51.387298534393864,14.789027242082787 L51.409937001591544,14.863150405777292 L51.430679415378556,14.938795969545307 L51.44950611975304,15.015892249861613 L51.46639927408469,15.094366188467685 L51.48134287002094,15.174143421603418 L51.49432274665686,15.25514835047599 L51.50532660395441,15.337304212899065 L51.51434401439815,15.420533156034452 L51.5213664328767,15.504756310167306 L51.526387204780214,15.589893863444917 L51.52940157230652,15.675865137508332 L51.53040667896965,15.762588663945031 " />
			<path d="M51.53040667896965,15.762588663945056 L51.52684503281648,15.927608311664153 L51.51617205419407,16.094448262063693 L51.49842358245443,16.2625482745658 L51.4736592161172,16.431343877364288 L51.441962112740725,16.60026826289401 L51.40343870968291,16.76875419114356 L51.358218366689655,16.93623589442013 L51.30645293151103,17.10215097717035 L51.248316230003795,17.2659423044777 L51.18400348243246,17.42705987289491 L51.11373064792898,17.584962657329243 L51.03773369931233,17.739120427778904 L50.95626783070301,17.88901552982003 L50.86960660059347,18.034144622865504 L50.77804101325167,18.174020370358583 L50.68187854154276,18.30817307622574 " />
			<path d="M50.681878541542744,18.30817307622576 L50.62241310619381,18.385344430590514 L50.561495403998315,18.4602228877917 L50.49919834916322,18.532718823580073 L50.43559650688361,18.60274546541703 L50.370766004093426,18.670218996335233 L50.304784438346864,18.735058655261636 L50.237730784939544,18.797186833682787 L50.169685302380664,18.856529168536795 L50.100729436329175,18.913014631220662 L50.03094572210908,18.966575612606537 L49.96041768592043,19.017148003965094 L49.889229744864366,19.064671273699165 L49.81746710590174,19.109088539795813 L49.745215663866404,19.150346637910094 L49.67256189865513,19.188396184999053 L49.59959277171725,19.223191638429746 L49.52639562196789,19.254691350490567 L49.453058061249486,19.282857618240644 L49.37966786946651,19.307656728637596 L49.30631288951911,19.329058998889682 L49.23308092216138,19.347038811984007 L49.16005962090995,19.361574647348295 L49.08733638712895,19.3726491066095 L49.01499826541671,19.380248934418436 L48.94313183941946,19.384365034315486 L48.87182312819685,19.384992479618443 L48.80115748326315,19.382130519319382 L48.73121948642746,19.375782578983593 L48.662092848555304,19.365956256649383 L48.59386030937253,19.35266331373379 L48.52660353843172,19.33591966095497 L48.460403037359505,19.315745339288224 " />
			<path d="M1.2609922876043882,-2.7184278013910754 L1.0038986502630154,-2.6916554873761633 " />
			<path d="M-1.0038986502630145,-2.0223897205341537 L1.003898650263015,-2.6916554873761633 " />
			<path d="M50.717233880602194,18.261032624146488 L50.809389582656586,18.132469614357113 L50.89713993719248,17.998422023009578 L50.980190282714126,17.859339975507666 L51.058261740131385,17.715690502718253 L51.13109214922235,17.567955972703995 L51.19843694895484,17.416632470954426 L51.260069998710705,17.2622281345546 L51.31578433765514,17.105261445885056 L51.36539287970132,16.94625949158276 L51.40872904173652,16.785756192609384 L51.445647303000264,16.62429051137023 L51.47602369373605,16.462404641904246 L51.4997562114759,16.300642189222362 L51.516765163559725,16.139546343907842 L51.52699343473953,15.979658058108283 L51.53040667896965,15.821514229044173 " />
			<path d="M1.0038986502630263,-2.6916554873761953 L1.0755432549935442,-2.6586667636771795 L1.1453785848939764,-2.621205640718745 L1.2132871632342577,-2.5793351354614464 L1.2791547544585737,-2.533125682312206 L1.3428705563519805,-2.4826550146398185 L1.4043273864314771,-2.4280080340121692 L1.4634218622479787,-2.3692766673751344 L1.5200545752958794,-2.30655971241342 L1.5741302582376726,-2.2399626713534615 L1.625557945162306,-2.169597573487981 L1.674251124607697,-2.095582786720729 L1.7201278850899908,-2.0180428184484343 L1.7631110528947493,-1.9371081061149393 L1.803128321898285,-1.8529147977898128 L1.8401123752007518,-1.765604523140579 L1.8740009983663803,-1.675324155183826 L1.904737184080369,-1.5822255632159645 L1.9322692280463765,-1.4864653573392677 L1.956550815963292,-1.3882046250129445 L1.977541101434982,-1.2876086600724208 L1.9952047746819428,-1.1848466846726686 L2.00951212193928,-1.0800915646233302 L2.0204390754410926,-0.9735195185945039 L2.0279672539071774,-0.8653098216823546 L2.0320839934639516,-0.7556445038332252 L2.0327823689475695,-0.6447080436335412 L2.0300612055534133,-0.5326870579806183 L2.023925080812339,-0.41976998815642497 L2.014384316890374,-0.3061467828323611 L2.0014549632248095,-0.192008578538315 L1.9851587695258939,-0.07754737813351587 L1.9655231491895542,0.03704427217996176 L1.9425811331826834,0.15157360675770032 L1.9163713144785717,0.2658479647825796 L1.8869377831359522,0.3796751143580752 L1.8543300521308697,0.49286357588003943 L1.8186029740661356,0.6052229441429778 L1.7798166488984881,0.7165642086389648 L1.7380363228386695,0.8267000715104129 L1.693332278594493,0.9354452626218303 L1.64577971714154,1.0426168512205387 L1.5954586312203576,1.1480345536621068 L1.542453670772969,1.2515210366828233 L1.4868540005450612,1.3529022157090416 L1.4287531500933845,1.4520075477016008 L1.3682488564506787,1.548670318042686 L1.3054428997128102,1.6427279209825283 L1.240440931824672,1.734022133174192 L1.1733522988528764,1.8223993798362992 L1.1042898570442148,1.9077109930959428 L1.0333697829793023,1.9898134620772319 L0.9607113781407675,2.068568674314744 L0.8864368682247501,2.1438441480857975 L0.8106711975332908,2.2155132552707077 L0.7335418187934919,2.2834554343661417 L0.6551784787570207,2.347556393293219 L0.5757129999406122,2.407708301659221 L0.49527905887472035,2.4638099721494764 L0.4140119612333675,2.5157670307442754 L0.33204841422344233,2.5634920754744956 L0.24952629661634718,2.606904823448871 L0.16658442680884855,2.6459322459055623 L0.08336232930329113,2.680508691060874 L1.8540724511240114e-14,2.710575994548426 " />
			<path d="M-1.2197591975439406,-1.7618743964604184 L-1.1844038584844228,-1.809014848539643 " />
			<path d="M-2.0329319959114027,0.6776439986419696 L-2.0329319959113237,0.7365695637410599 " />
			<path d="M48.46040303735949,19.315745339288217 L-0.8602949504021993,2.875512676700982 " />
			<path d="M50.717233880602194,18.261032624146488 L50.68187854154267,18.30817307622571 " />
			<path d="M51.53040667896964,15.821514229044146 L51.530406678969555,15.762588663945055 " />

       </g>
    </g>
    
</svg>
