<?xml version="1.0" encoding="UTF-8" standalone="no"?>
<svg
   xmlns:svg="http://www.w3.org/2000/svg"
   xmlns="http://www.w3.org/2000/svg"
   width="1024.0"
   height="320.0"

>
    <g transform="scale(13.180194846605357, -13.180194846605357)   translate(38.209994972242136,-19.01535524228951)" stroke-width="0.21333333333333335"  fill="none">
       <!-- hidden lines -->
       <g  stroke="rgb(32,64,32)" fill="none" stroke-dasharray="0.21333333333333335,0.21333333333333335" >

       </g>

       <!-- solid lines -->
       <g  stroke="rgb(64,192,64)" fill="none">
			<path d="M-6.535712472775424,13.233715161251073 L-6.535712472775424,14.866708323102127 " />
			<path d="M-6.535712472775302,14.866708323102326 L-6.328147057688746,14.84947189891401 L-6.125761842263062,14.826383963184258 L-5.930038521055269,14.79761354638613 L-5.742410015828476,14.763371281346156 L-5.564249984902295,14.723907861167698 L-5.3968627663804085,14.679512203866615 L-5.31759525112008,14.655565010253902 L-5.24147382888253,14.63050933715622 L-5.168637887756276,14.604391064725 L-5.0992207996924845,14.577258018867365 L-5.033349676283812,14.549159883670743 L-4.971145136006775,14.520148110424943 L-4.91272108335385,14.490275823408235 L-4.8581845002597355,14.459597722609987 L-4.807635250203705,14.428169983567962 L-4.761165895346769,14.396050154503714 L-4.7188615270384835,14.363297050944396 L-4.680799610003773,14.329970648024002 L-4.647049840495086,14.296131970661191 L-4.617674018669611,14.26184298181484 L-4.5927259354252685,14.227166469021913 L-4.572251273902669,14.192165929425432 L-4.556287525833429,14.156905453503057 L-4.544863922887999,14.12144960770921 L-4.538001383148723,14.0858633162456 L-4.535712472806149,14.050211742176703 " />
			<path d="M-4.535712472806149,14.0502117421767 L-4.538723832293218,14.009322013570518 L-4.547750656125657,13.968530791902065 L-4.562771197894197,13.927936346797232 L-4.583749271798073,13.887636473829927 L-4.610634339819789,13.84772825892398 L-4.643361633475626,13.808307844464649 L-4.681852309848597,13.769470197683184 L-4.726013641527932,13.731308881872458 L-4.775739239997542,13.693915830984798 L-4.830909311935262,13.657381128155034 L-4.891390947805469,13.621792788682349 L-4.957038442049786,13.587236547993697 L-5.027693644104536,13.553795655099671 L-5.103186339399306,13.521550672040329 L-5.183334659418751,13.490579279804184 L-5.267945519839772,13.460956091187914 " />
			<path d="M-6.535712472790979,15.03622503935988 L-6.535712472775516,14.866708323102127 " />
			<path d="M-7.561726975253021,11.723475622315146 L-7.202142440375168,11.717538000501829 L-6.8421176529373104,11.717770935598512 L-6.4826049764870035,11.72417381142847 L-6.124555419898857,11.736729690642516 L-5.7689161216972416,11.755405359522909 L-5.416627844617118,11.780151415842667 L-5.0686224870305585,11.810902399547906 L-4.7258206178219355,11.847576965917503 L-4.389129041232671,11.890078100742016 L-4.059438398117225,11.938293376952675 L-3.7376208099556374,11.992095252021578 L-3.424527571854854,12.05134140534638 L-3.1209869006414825,12.115875114727036 L-2.827801744002871,12.185525670938663 L-2.5457476564719537,12.260108829303903 L-2.2755707478744256,12.339427297070237 L-2.145160856320696,12.380797177909349 L-2.017985709665197,12.423271255303016 L-1.8941294250360317,12.466821435732154 L-1.7736739243749842,12.511418913913639 L-1.6566988802521,12.557034191852901 L-1.5432816631680657,12.603637098354714 L-1.4334972903792362,12.651196808979241 L-1.3274183762791676,12.69968186643018 L-1.225115084369465,12.749060201361463 L-1.1266550808517213,12.799299153588818 L-1.0321034898712327,12.850365493692097 L-0.9415228504421087,12.902225444994134 L-0.8549730750822517,12.95484470590156 L-0.7725114101855732,13.00818847259282 L-0.6941923981576652,13.062221462038373 L-0.620067841339953,13.116907935337851 L-0.5501867677462045,13.172211721358762 L-0.4845953986340623,13.22809624066105 L-0.4233371179330412,13.284524529691751 L-0.3664524435491998,13.341459265233695 L-0.31397900056548966,13.39886278909211 L-0.26595149635549475,13.456697133002775 L-0.22240169762702244,13.514924043745285 L-0.183358409410733,13.573505008444766 L-0.1488474560077,13.632401280045352 L-0.11889166390851535,13.69157390293855 L-0.09351084669521637,13.75098373872955 L-0.07272179193604256,13.810591492124423 L-0.056538250081678676,13.870357736921116 L-0.044970925370328096,13.930242942087016 L-0.03802746874763674,13.990207497905864 L-0.03571247280614909,14.050211742176678 " />
			<path d="M-0.03571247280614909,14.0502117421767 L-0.03725158597251621,14.099139370658646 L-0.04186824865180849,14.148045483381393 L-0.04956043068221927,14.196908574047226 L-0.06032474945271016,14.245707155277232 L-0.07415647139049586,14.294419768060303 L-0.09104951404261907,14.343024991189669 L-0.11099644875069092,14.391501450682794 L-0.13398850391761385,14.439827829180516 L-0.1600155688648659,14.487982875321286 L-0.1890661982786339,14.535945413086376 L-0.221127617242856,14.583694351111967 L-0.2561857268569421,14.631208691964003 L-0.29422511043572275,14.678467541371745 L-0.33522904028888245,14.725450117415946 L-0.3791794850769037,14.772135759667641 L-0.426057117740287,14.8185039382735 L-0.4758413239985675,14.864534262983748 L-0.5285102114153624,14.910206492118727 L-0.5840406190255081,14.955500541470093 L-0.6424081275200058,15.000396493132786 L-0.7675505431854086,15.088915315764318 L-0.9037173587945366,15.175607273718967 L-1.0506690850918163,15.260319893779364 L-1.2081472643951852,15.34290418397397 L-1.37587492516968,15.423214895623124 L-1.553557069163058,15.50111077880142 L-1.7408811902466912,15.576454830767105 L-1.9375178240491886,15.649114536921546 L-2.1431211274160518,15.718962103875002 L-2.3573294866762406,15.785874684208752 L-2.579766153645788,15.849734592538281 L-2.8100399082499186,15.910429512497535 L-3.047745746598209,15.96785269428016 L-3.292465593302637,16.02190314239032 L-3.5437690367856898,16.072485793272907 L-3.8012140862852757,16.119511682510627 L-4.064347949225023,16.16289810129402 L-4.332707827582743,16.202568741889152 L-4.605821731856398,16.238453831847124 L-4.8832093111959765,16.27049025671937 L-5.164382698241252,16.29862167106291 L-5.448847367179521,16.322798597540345 " />
			<path d="M-5.448847367180375,16.322798597539638 L-5.577536628807367,16.24988948736031 L-5.698646978204663,16.175551778631654 L-5.812035856965984,16.099872973910927 L-5.917569795590786,16.022942154352986 L-6.015124570590548,15.944849874853295 L-6.104585350711642,15.865688057456202 L-6.185846832102652,15.78554988315393 L-6.2588133622670235,15.704529682203699 L-6.3233990526551525,15.62272282309202 L-6.379527879763389,15.54022560027693 L-6.427133774620925,15.45713512084023 L-6.46616070055927,15.373549190183228 L-6.48244229840844,15.331601157464581 L-6.4965627191727355,15.289566196900461 L-6.508517807276678,15.247456679188202 L-6.518304044392317,15.205284996966965 L-6.525918550474669,15.163063561170643 L-6.531359084609294,15.120804797375381 L-6.53462404567179,15.078521142142781 L-6.535712472798995,15.036225039359895 " />
			<path d="M-5.267945519839779,13.46095609118791 L-5.401595563748769,13.419545258074123 L-5.543951149298264,13.381494217217668 L-5.694253895939794,13.347005680504582 L-5.85170308567557,13.316263381051396 L-6.015459928777691,13.289431094391263 L-6.184652032329443,13.266651765981472 L-6.358378047783148,13.248046749680437 L-6.535712472775279,13.233715161251073 " />
			<path d="M-6.535712472775424,13.233715161251272 L-6.535712472775424,13.064198444993519 " />
			<path d="M-6.535712472790305,13.064198444993519 L-6.536735516664935,13.02050810714212 L-6.539804398999916,12.97682841547895 L-6.544918371989194,12.933170013598035 L-6.5520761894918245,12.889543539905649 L-6.572515883742129,12.802428889220826 L-6.601103560497128,12.715569368464449 L-6.637811357189289,12.629049634017777 L-6.682603497093105,12.542954011094237 L-6.7354363241943584,12.45736641155306 L-6.796258345738826,12.372370252115811 L-6.865010282418956,12.288048373065468 L-6.941625126149586,12.204482957507338 L-7.026028205376416,12.121755451270479 L-7.118137257853549,12.039946483527693 L-7.217862510819225,11.959135788211467 L-7.325106768491532,11.879402126302438 L-7.439765506798884,11.800823209066138 L-7.5617269752528875,11.723475622312849 " />
			<path d="M-7.035712472802615,-0.7112120069771881 L-6.80576704762769,-0.7093303925277004 L-6.576375581122854,-0.7036900821533711 L-6.348090697423246,-0.6943046638559249 L-6.121462354809086,-0.6811967479301064 L-5.8970365208080295,-0.6643979124934982 L-5.675353856911565,-0.6439486274120714 L-5.456948416074127,-0.6198981568047328 L-5.242346356132748,-0.5923044403617477 L-5.032064672246747,-0.5612339537629512 L-4.826609951411104,-0.526761548532013 L-4.6264771520440195,-0.4889702717125606 L-4.432148411588731,-0.44795116580057637 L-4.244091885002183,-0.40380304941505174 L-4.062760616928724,-0.3566322792352774 L-3.8885914502758867,-0.30655249377828664 L-3.7220039738215873,-0.25368433963372805 " />
			<path d="M-3.722003973821558,-0.2536843396337183 L-3.563399511387702,-0.19815518081555328 L-3.413160155016601,-0.140098791931216 L-3.2716478444771635,-0.07965503590666656 L-3.1392034953204933,-0.01696952704441601 L-3.0161461775844645,0.04780671977408413 L-2.9027723471260503,0.11451765289651938 L-2.799355131433199,0.1830025598418099 L-2.706143671636795,0.25309645447055507 L-2.623362522307846,0.3246304744510944 L-2.585946630118766,0.3608838020095048 L-2.551211110485858,0.3974322880636545 L-2.5191768867873066,0.43425391717218037 L-2.4898632552416284,0.4713265093625569 L-2.4632878732843597,0.5086277334914835 L-2.439466748931876,0.5461351206963245 L-2.4184142311387573,0.583826077929521 L-2.4001430011545155,0.6216779015677927 L-2.384664064884891,0.6596677910879479 L-2.371986746262296,0.6977728628010744 L-2.3621186816294344,0.7359701636368129 L-2.355065815139449,0.7742366849694287 L-2.3508323951753907,0.8125493764773487 L-2.3494209717911483,0.8508851600277982 " />
			<path d="M-2.349420971791006,2.7601925138136867 L-2.34666603840107,2.783641057032876 L-2.3384181136080384,2.8069459659256664 L-2.3247277201719307,2.8299644859994086 L-2.3056787187582453,2.852555617039522 L-2.281387794248472,2.874580976807963 L-2.2520037409854807,2.895905648705245 L-2.217706551332033,2.9163990082036513 L-2.1787063131254505,2.9359355229893103 " />
			<path d="M1.6061773874208622,3.060024159350874 L4.27799602617861,3.060024159350874 " />
			<path d="M4.277996026178611,3.060024159351067 L4.507941451353761,3.0619057738005004 L4.737332917858824,3.067546084174783 L4.965617801558669,3.0769315024721893 L5.192246144173073,3.0900394183979762 L5.416671978174377,3.1068382538345602 L5.638354642071084,3.1272875389159704 L5.856760082908764,3.1513380095232995 L6.071362142850382,3.178931725966282 L6.281643826736618,3.210002212565084 L6.487098547572489,3.244474617796034 L6.687231346939795,3.282265894615506 L6.881560087395295,3.323285000527515 L7.069616613982047,3.3674331169130722 L7.250947882055695,3.4146038870928845 L7.425117048708707,3.464683672549918 L7.591704525163173,3.517551826694527 " />
			<path d="M7.591704525163202,3.517551826694537 L7.750308987597059,3.5730809855127017 L7.900548343968159,3.6311373743970394 L8.042060654507598,3.6915811304215884 L8.174505003664267,3.754266639283839 L8.297562321400296,3.8190428861023396 L8.41093615185871,3.8857538192247745 L8.51435336755156,3.954238726170065 L8.607564827347964,4.02433262079881 L8.690345976676914,4.09586664077935 L8.727761868865993,4.13211996833776 L8.762497388498902,4.168668454391909 L8.794531612197453,4.205490083500435 L8.823845243743133,4.242562675690812 L8.850420625700401,4.2798638998197385 L8.874241750052885,4.31737128702458 L8.895294267846003,4.355062244257776 L8.913565497830245,4.392914067896048 L8.929044434099868,4.430903957416203 L8.941721752722465,4.46900902912933 L8.951589817355327,4.507206329965068 L8.958642683845312,4.545472851297684 L8.96287610380937,4.583785542805604 L8.964287527193612,4.622121326356053 " />
			<path d="M-23.03571247280615,4.6221213263560665 L-23.03450770223246,4.5566731221655505 L-23.030893571945416,4.491234774233849 L-23.024870626219737,4.425816137335458 L-23.0164397720889,4.360427063276466 L-23.005602279208528,4.295077399410908 L-22.99235977966518,4.229776987157784 L-22.976714267730582,4.164535660518989 L-22.958668099561276,4.099363244598336 L-22.938223992843817,4.03426955412194 L-22.915385026385476,3.9692643919601545 L-22.89015463965059,3.9043575476512924 L-22.862536632242595,3.8395587959273603 L-22.832535163331826,3.7748778952420197 L-22.800154751029144,3.710324586300999 L-22.765400271705534,3.645908590595178 L-22.72827695925775,3.58163960893657 L-22.688790404320095,3.5175273199974133 L-22.646946553422495,3.453581378852598 L-22.60275170809499,3.389811415525649 L-22.55621252391872,3.326227033538479 L-22.456129525533026,3.199653286489745 L-22.3467578445213,3.073936380998721 L-22.22816336229451,2.9491520442284163 L-22.10041751573422,2.825375441597315 L-21.963597254161673,2.702681131502537 L-21.8177849929864,2.581143020408649 L-21.663068564062264,2.46083431832917 L-21.499541162780822,2.341827494727598 L-21.327301291933928,2.224194234864521 L-21.146452702379314,2.1080053966170893 L-20.957104330544965,1.9933309677968833 L-20.759370232809882,1.8802400239918713 L-20.55336951680079,1.7688006869578583 L-20.339226269646144,1.6590800835844886 L-20.117069483230697,1.5511443054605158 L-19.887032976495618,1.4450583690627048 L-19.64925531483094,1.3408861765923321 L-19.403879726608967,1.2386904774828928 L-19.151054016908862,1.1385328306021867 L-18.89093047848439,1.0404735671715595 L-18.623665800028444,0.9445717544246293 L-18.349420971789666,0.850885160027397 L-18.068361188597905,0.7594702172811574 L-17.780655750357063,0.6703819911291995 L-17.48647796006513,0.5836741449877305 L-17.186005019422957,0.4993989084210515 L-16.879417922094582,0.4176070456804162 L-16.566901344683412,0.3383478251255454 L-16.24864353548993,0.26166898954720796 L-15.924836201117966,0.18761672740875124 L-15.595674390997807,0.11623564502389261 L-15.261356379895723,0.04756873968755304 L-14.922083548480643,-0.018342626224116643 L-14.578060262019985,-0.08145875016887416 L-14.229493747277651,-0.1417416133537195 L-13.876593967688382,-0.19915490363599186 L-13.51957349688363,-0.2536640373964465 L-13.158647390645154,-0.305236180371133 L-12.79403305736345,-0.3538402674295318 L-12.425950127079087,-0.3994470212870205 L-12.054620319185755,-0.44202897014042275 L-11.680267308874814,-0.48156046421599186 L-11.303116592401718,-0.5180176912198728 L-10.923395351255493,-0.5513786906817435 L-10.541332315313117,-0.5816233671829742 L-10.157157625061183,-0.608733502461364 L-9.771102692967881,-0.6326927663851336 L-9.383400064088782,-0.6534867267895894 L-8.994283275990389,-0.6711028581705207 L-8.603986718075834,-0.6855305492290933 L-8.212745490397483,-0.696761109263698 L-7.820795262041431,-0.7047877734049104 L-7.42837212916928,-0.709605706690386 L-7.03571247280277,-0.7112120069772683 " />
			<path d="M-7.561726975266949,11.723475622315544 L-7.561726975266949,9.837857539151415 " />
			<path d="M-2.0859650045003155,10.514677836243964 L-2.2208583547043244,10.47090669392402 L-2.3592340660358646,10.428360516993422 L-2.5009920577476663,10.387070077132691 L-2.6460298028456046,10.347065237805843 L-2.7942424022417436,10.308374932661538 L-2.945522660622977,10.271027144606698 L-3.25684635874361,10.20046617695428 L-3.579100395974878,10.135586431866358 L-3.9113526551683067,10.07657557347122 L-4.252642099400745,10.023604290190738 L-4.60198155176575,9.976825801025507 L-4.958360550774659,9.93637541237015 L-5.320748273108122,9.90237012664069 L-5.688096515264064,9.874908303846015 L-6.059342725477679,9.85406937708237 L-6.43341307714366,9.839913622773786 L-6.80922557485081,9.832481986323002 L-7.185693184044857,9.831795963677246 L-7.561726975266892,9.837857539151369 " />
			<path d="M-0.03571247280614909,12.164593659012574 L-0.03782074193271967,12.107330792459113 L-0.044144279369942474,12.050102418915266 L-0.054679276055317416,11.992943010613352 L-0.06941938610077081,11.9358869982436 L-0.08835573061517898,11.878968750214403 L-0.11147690305268299,11.822222551950063 L-0.13876897608356042,11.765682585238538 L-0.17021550998353607,11.709382907641608 L-0.20579756253644899,11.65335743197988 L-0.24549370044434138,11.597639905904959 L-0.289280012238069,11.542263891571146 L-0.3371301226806862,11.48726274541883 L-0.38901520865489125,11.432669598081828 L-0.4449040165250029,11.378517334430729 L-0.5047628809629758,11.32483857376427 L-0.5685557452271413,11.271665650160699 L-0.6362441828814349,11.21903059300093 L-0.7077874209420463,11.16696510767525 L-0.7831423644375421,11.11550055648516 L-0.8622636223676636,11.064667939751914 L-0.9451035350451686,11.014497877143079 L-1.0316122028042445,10.965020589228391 L-1.1217375160581984,10.916265879276015 L-1.2154251866883312,10.86826311530017 L-1.312618780745061,10.821041212370936 L-1.4132597524416317,10.774628615196898 L-1.5172874794199025,10.729053280991113 L-1.6246392992669891,10.684342662630735 L-1.7352505472607582,10.640523692120428 L-1.8490545953214355,10.59762276436953 L-2.0859650045002933,10.51467783624397 " />
			<path d="M-7.56172697526676,9.837857539151381 L-7.710129706469581,9.75093603098538 L-7.867753856235827,9.665837307091309 L-8.034398173585217,9.582670019611808 L-8.209849890789751,9.501540354674813 L-8.39388499503076,9.422551896817474 L-8.586268514413467,9.34580549673176 L-8.786754817973819,9.271399142500542 L-8.995087929294572,9.199427834488624 " />
			<path d="M-3.7220039738215567,7.288787993022788 L-3.8885914502758867,7.235919838878219 L-4.062760616928722,7.185840053421229 L-4.244091885002181,7.138669283241454 L-4.43214841158873,7.09452116685593 L-4.626477152044018,7.053502060943946 L-4.826609951411102,7.015710784124494 L-5.0320646722467455,6.981238378893555 L-5.242346356132746,6.9501678922947585 L-5.456948416074125,6.922574175851773 L-5.675353856911563,6.898523705244434 L-5.897036520808028,6.878074420163008 L-6.1214623548090845,6.8612755847264 L-6.3480906974232445,6.848167668800581 L-6.576375581122853,6.838782250503135 L-6.805767047627688,6.833141940128806 L-7.0357124728025715,6.831260325679318 " />
			<path d="M-7.035712472802621,6.8312603256792395 L-7.428372129169275,6.832866625966122 L-7.8207952620414245,6.837684559251597 L-8.212745490397475,6.84571122339281 L-8.603986718075829,6.8569417834274144 L-8.994283275990384,6.871369474485987 L-9.383400064088777,6.888985605866918 L-9.771102692967876,6.909779566271374 L-10.157157625061178,6.933738830195143 L-10.541332315313111,6.960848965473533 L-10.923395351255488,6.991093641974764 L-11.303116592401711,7.024454641436634 L-11.680267308874809,7.060911868440515 L-12.054620319185748,7.100443362516084 L-12.42595012707908,7.143025311369486 L-12.794033057363446,7.188632065226976 L-13.158647390645147,7.237236152285373 L-13.519573496883625,7.28880829526006 L-13.876593967688377,7.343317429020515 L-14.229493747277646,7.400730719302787 L-14.57806026201998,7.461013582487634 L-14.92208354848064,7.52412970643239 L-15.26135637989572,7.590041072344059 L-15.595674390997804,7.6587079776803995 L-15.924836201117959,7.730089060065257 L-16.248643535489926,7.804141322203716 L-16.56690134468341,7.880820157782052 L-16.87941792209458,7.960079378336923 L-17.18600501942295,8.041871241077558 L-17.486477960065127,8.126146477644237 L-17.780655750357063,8.212854323785708 L-18.0683611885979,8.301942549937664 L-18.349420971789662,8.393357492683904 L-18.62366580002844,8.487044087081136 L-18.890930478484375,8.582945899828061 L-19.151054016908848,8.681005163258689 L-19.403879726608952,8.781162810139396 L-19.649255314830924,8.883358509248835 L-19.887032976495608,8.987530701719207 L-20.117069483230686,9.093616638117018 L-20.33922626964613,9.20155241624099 L-20.553369516800778,9.311273019614362 L-20.75937023280987,9.422712356648374 L-20.957104330544954,9.535803300453384 L-21.146452702379303,9.650477729273591 L-21.327301291933917,9.766666567521023 L-21.499541162780815,9.8842998273841 L-21.663068564062257,10.003306650985671 L-21.817784992986397,10.123615353065153 L-21.96359725416167,10.245153464159042 L-22.100417515734218,10.367847774253821 L-22.22816336229451,10.491624376884921 L-22.346757844521296,10.616408713655227 L-22.456129525533022,10.74212561914625 L-22.556212523918717,10.868699366194985 L-22.60275170809499,10.932283748182153 L-22.646946553422495,10.996053711509104 L-22.688790404320095,11.059999652653921 L-22.728276959257748,11.124111941593076 L-22.76540027170553,11.188380923251682 L-22.80015475102914,11.252796918957504 L-22.832535163331826,11.317350227898528 L-22.862536632242595,11.382031128583867 L-22.890154639650586,11.446829880307796 L-22.915385026385476,11.51173672461666 L-22.93822399284382,11.576741886778448 L-22.958668099561276,11.641835577254842 L-22.97671426773058,11.707007993175493 L-22.99235977966518,11.772249319814291 L-23.005602279208528,11.837549732067416 L-23.0164397720889,11.902899395932971 L-23.024870626219737,11.968288469991961 L-23.030893571945416,12.033707106890354 L-23.03450770223246,12.09914545482206 L-23.03571247280615,12.164593659012525 " />
			<path d="M-23.035712472799418,12.16459365901257 L-23.035712472799418,4.622121326356064 " />
			<path d="M-2.349420971790571,8.39335749268432 L-2.3494209717905705,0.8508851600278127 " />
			<path d="M-2.3494209717911483,8.393357492684318 L-2.3508323951753907,8.355021709133855 L-2.355065815139449,8.316709017625936 L-2.3621186816294344,8.27844249629332 L-2.371986746262296,8.24024519545758 L-2.3846640648848902,8.202140123744455 L-2.4001430011545155,8.1641502342243 L-2.4184142311387564,8.12629841058603 L-2.439466748931875,8.088607453352832 L-2.4632878732843597,8.05110006614799 L-2.4898632552416275,8.013798842019066 L-2.519176886787305,7.976726249828689 L-2.5512111104858572,7.939904620720163 L-2.585946630118764,7.903356134666013 L-2.6233625223078443,7.867102807107602 L-2.7061436716367933,7.795568787127063 L-2.799355131433197,7.725474892498317 L-2.9027723471260467,7.656989985553027 L-3.016146177584461,7.590279052430592 L-3.1392034953204915,7.525502805612091 L-3.271647844477162,7.46281729674984 L-3.4131601550166,7.402373540725291 L-3.563399511387701,7.3443171518409525 L-3.7220039738215394,7.288787993022794 " />
			<path d="M-23.03571247280591,12.164593659012573 L-23.034301049421664,12.202929442563054 L-23.0300676294576,12.241242134070992 L-23.023014762967613,12.279508655403626 L-23.01314669833474,12.317705956239383 L-23.000469379712133,12.355811027952528 L-22.98499044344249,12.393800917472701 L-22.966719213458234,12.43165274111099 L-22.945666695665096,12.469343698344204 L-22.921845571312588,12.506851085549062 L-22.895270189355294,12.544152309678005 L-22.86595655780959,12.581224901868397 L-22.83392233411101,12.61804653097694 L-22.79918681447807,12.654595017031106 L-22.761770922288953,12.690848344589531 L-22.678989772959927,12.762382364570101 L-22.585778313163434,12.832476259198874 L-22.482361097470488,12.900961166144189 L-22.36898726701197,12.967672099266647 L-22.245929949275826,13.032448346085168 L-22.113485600119038,13.095133854947436 L-21.971973289579473,13.155577610972 L-21.821733933208243,13.213633999856349 L-21.66312947077425,13.26916315867452 L-21.496541994319617,13.32203131281914 L-21.32237282766646,13.372111098276175 L-21.14104155959266,13.419281868455984 L-20.95298503300576,13.463429984841532 L-20.758656292550103,13.504449090753532 L-20.558523493182644,13.542240367572987 L-20.353068772346617,13.576712772803917 L-20.14278708846023,13.607783259402696 L-19.92818502851846,13.63537697584565 L-19.709779587680632,13.659427446452948 L-19.48809692378378,13.679876731534321 L-19.26367108978234,13.696675566970864 L-19.037042747167803,13.709783482896608 L-18.80875786346783,13.719168901193965 L-18.57936639696264,13.724809211568195 L-18.349420971787385,13.726690826017572 " />
			<path d="M-2.34942097179057,2.7601925138136862 L-2.34942097179057,3.2275904992533726 " />
			<path d="M-2.349420971790572,10.30266484647019 L-2.349420971790572,8.393357492684318 " />
			<path d="M1.6516912189670254,3.851784961169998 L4.277996026178611,3.851784961169998 " />
			<path d="M7.591704525163203,5.55813038709163 L7.532061090664627,5.448587536972133 L7.4688275494127945,5.342610900268632 L7.401941091103162,5.240171828449342 L7.331338905431188,5.141241672982481 L7.256958182092331,5.045791785336266 L7.178736110782046,4.953793516978915 L7.096609881195794,4.865218219378644 L7.010516683029028,4.780037244003671 L6.920945250074543,4.6987242031104355 L6.828454777134217,4.6217013671173515 L6.733088145417136,4.548863074735591 L6.634888236132387,4.480103664676329 L6.533897930489054,4.415317475650739 L6.430160109696228,4.354398846369995 L6.323717654962991,4.29724211554527 L6.214613447498431,4.2437416218877395 L6.103317054158294,4.193972588625858 L5.990313205856297,4.148007909849989 L5.87566752988848,4.105738430564165 L5.759445653550884,4.06705499577242 L5.64171320413955,4.031848450478786 L5.5225358089505185,4.0000096396872955 L5.401979095279832,3.971429408401983 L5.28010869042353,3.9459986016268807 L5.15714612442642,3.9236576796320306 L5.033333377385466,3.9043986808470086 L4.908766751674947,3.888189817515149 L4.783542549669141,3.8749993018797864 L4.657757073742325,3.8647953461842555 L4.53150662626878,3.8575461626718903 L4.404887509622783,3.8532199635860263 L4.277996026178628,3.8517849611699972 " />
			<path d="M-11.722003973821726,15.783502509843451 L-11.722003973821726,15.935829825339649 " />
			<path d="M8.96428752719419,12.164593659012574 L8.96428752719419,4.622121326356067 " />
			<path d="M8.964287527193612,12.164593659012576 L8.96287610380937,12.126257875462112 L8.958642683845312,12.087945183954194 L8.951589817355327,12.049678662621577 L8.941721752722465,12.011481361785838 L8.92904443409987,11.973376290072713 L8.913565497830245,11.935386400552558 L8.895294267846005,11.897534576914287 L8.874241750052885,11.85984361968109 L8.850420625700401,11.82233623247625 L8.823845243743133,11.785035008347323 L8.794531612197456,11.747962416156948 L8.762497388498904,11.711140787048421 L8.727761868865997,11.674592300994272 L8.690345976676918,11.63833897343586 L8.607564827347968,11.566804953455321 L8.514353367551564,11.496711058826577 L8.410936151858715,11.428226151881287 L8.297562321400301,11.361515218758852 L8.174505003664272,11.29673897194035 L8.042060654507603,11.2340534630781 L7.900548343968166,11.17360970705355 L7.750308987597065,11.115553318169212 L7.591704525163227,11.060024159351054 " />
			<path d="M7.591704525163203,9.019445598953952 L7.646730948640877,8.945888179700589 L7.697631506640359,8.868849727143171 L7.744521116750639,8.78831039697174 L7.787514696560703,8.704250344876327 L7.826727163659542,8.61664972654697 L7.862273435636142,8.525488697673705 L7.894268430079492,8.430747413946564 L7.9228270645785805,8.332406031055587 L7.94786816416701,8.231088373283278 L7.969315424533367,8.127433830550522 L7.987291069249113,8.021445907004916 L8.001917321885713,7.913128106794057 L8.013292803810469,7.8023348352908295 L8.02142883155978,7.689107868586171 L8.026316671458748,7.57373176690476 L8.027947589832483,7.45649109047127 L8.026335885218797,7.338059140549513 L8.021495805322928,7.218927370455688 L8.013418540221114,7.099107568493052 L8.00209527998959,6.978611522964856 L7.987451192037076,6.85726271053466 L7.969390143526261,6.7351857639294215 L7.947871374164323,6.612844205547491 L7.922854123658444,6.4907015577872205 L7.894370018460258,6.369330637588981 L7.862407758326994,6.249079187701317 L7.826862192924233,6.13007311923484 L7.787628171917553,6.012438343300159 L7.744600544972531,5.896300771007888 L7.697674161754747,5.7817863134686345 L7.646743871929777,5.669020881793012 L7.591704525163207,5.558130387091637 " />
			<path d="M-11.722003973821149,15.93582982533965 L-11.72059255043699,15.974165608890152 L-11.716359130473009,16.012478300398108 L-11.709306263983098,16.050744821730763 L-11.699438199350304,16.08894212256654 L-11.686760880727771,16.127047194279708 L-11.671281944458201,16.165037083799902 L-11.653010714474012,16.20288890743821 L-11.631958196680937,16.24057986467145 L-11.608137072328494,16.278087251876332 L-11.58156169037126,16.315388476005296 L-11.552248058825612,16.352461068195716 L-11.52021383512708,16.38928269730428 L-11.485478315494191,16.425831183358472 L-11.448062423305123,16.46208451091692 L-11.36528127397618,16.53361853089754 L-11.27206981417976,16.603712425526364 L-11.168652598486872,16.672197332471733 L-11.055278768028401,16.73890826559424 L-10.932221450292296,16.80368451241281 L-10.799777101135529,16.86637002127513 L-10.658264790595975,16.926813777299746 L-10.508025434224743,16.98487016618414 L-10.34942097179074,17.04039932500236 L-10.182833495336084,17.093267479147027 L-10.008664328682894,17.143347264604106 L-9.827333060609055,17.190518034783956 L-9.6392765340221,17.234666151169545 L-9.444947793566385,17.27568525708158 L-9.244814994198858,17.31347653390107 L-9.039360273362757,17.347948939132035 L-8.829078589476286,17.379019425730842 L-8.614476529534429,17.40661314217382 L-8.396071088696505,17.430663612781142 L-8.174388424799552,17.451112897862533 L-7.949962590798011,17.467911733299093 L-7.7233342481833684,17.481019649224848 L-7.495049364483286,17.490405067522214 L-7.265657897977991,17.49604537789645 L-7.035712472802626,17.497926992345832 " />
			<path d="M-7.035712472802619,17.49792699234591 L-6.643052816436078,17.49632069205897 L-6.2506296835640445,17.49150275877344 L-5.858679455208117,17.483476094632174 L-5.467438227529888,17.47224553459752 L-5.077141669615461,17.457817843538898 L-4.688024881517201,17.44020171215792 L-4.300322252638235,17.41940775175342 L-3.91426732054507,17.395448487829604 L-3.5300926302932747,17.368338352551174 L-3.1480295943510397,17.3380936760499 L-2.768308353204959,17.304732676587996 L-2.3911576367320073,17.26827544958408 L-2.016804626421214,17.228743955508477 L-1.6454748185280312,17.186162006655046 L-1.2773918882438196,17.140555252797526 L-0.9127775549622683,17.0919511657391 L-0.5518514487239425,17.04037902276439 L-0.194830977919346,16.98586988900391 L0.1580688016697671,16.92845659872162 L0.5066353164119501,16.868173735536754 L0.8506586028724596,16.80505761159198 L1.1899314342873835,16.739146245680296 L1.5242494453893114,16.670479340343945 L1.853411255509319,16.599098257959078 L2.1772185898811367,16.52504599582061 L2.495476399074467,16.448367160242267 L2.807992976485486,16.369107939687392 L3.114580073813708,16.287316076946755 L3.415053014455734,16.203040840380076 L3.7092308047475315,16.116332994238604 L3.9969362429882382,16.027244768086646 L4.2779960261798555,15.935829825340415 L4.552240854418495,15.84214323094319 L4.819505532874305,15.746241418196266 L5.0796290712986485,15.64818215476565 L5.33245478099862,15.548024507884955 L5.577830369220464,15.445828808775529 L5.815608030885023,15.34165661630517 L6.045644537619986,15.235570679907374 L6.26780132403531,15.127634901783422 L6.481944571189842,15.017914298410071 L6.687945287198828,14.906474961376077 L6.885679384933806,14.793384017571086 L7.075027756768052,14.678709588750905 L7.255876346322567,14.562520750503499 L7.428116217169367,14.444887490640449 L7.5916436184507186,14.325880667038906 L7.746360047374776,14.20557196495945 L7.892172308549971,14.084033853865588 L8.028992570122444,13.96133954377084 L8.15673841668266,13.83756294113977 L8.275332898909383,13.7127786043695 L8.38470457992105,13.58706169887851 L8.484787578306687,13.460487951829807 L8.531326762482934,13.396903569842655 L8.575521607810416,13.333133606515721 L8.61736545870799,13.269187665370923 L8.656852013645622,13.205075376431784 L8.693975326093387,13.140806394773193 L8.728729805416975,13.076390399067392 L8.76111021771964,13.011837090126386 L8.791111686630394,12.947156189441063 L8.818729694038371,12.88235743771715 L8.843960080773243,12.817450593408305 L8.866799047231574,12.752445431246537 L8.887243153949022,12.68735174077016 L8.905289322118314,12.622179324849526 L8.920934834052908,12.55693799821075 L8.934177333596246,12.491637585957642 L8.945014826476616,12.426287922092103 L8.953445680607445,12.36089884803313 L8.95946862633312,12.295480211134755 L8.963082756620164,12.230041863203072 L8.96428752719385,12.1645936590126 " />
			<path d="M-16.92813634160595,11.690832115617585 L-16.860109209827442,11.71464915926507 L-16.795669960531807,11.73955015862293 L-16.734973833514815,11.765475125002641 L-16.678167051062793,11.79236160288944 L-16.62538646569036,11.820144820403113 L-16.576759230450715,11.848757845339154 L-16.53240249261279,11.878131746414283 L-16.492423111443223,11.908195759327961 L-16.456917400773037,11.938877457239785 L-16.42597089696917,11.970102925252082 L-16.399658152869875,12.001796938477385 L-16.378042558180418,12.033883143261766 L-16.3611761867617,12.06628424112748 L-16.349099671179793,12.098922174991767 L-16.341842104818515,12.131718317213203 L-16.339420971790908,12.164593659012567 " />
			<path d="M-16.339420971790908,12.164593659012573 L-16.341842104818515,12.197469000811942 L-16.349099671179793,12.230265143033378 L-16.3611761867617,12.262903076897665 L-16.378042558180418,12.295304174763379 L-16.399658152869875,12.32739037954776 L-16.42597089696917,12.359084392773063 L-16.456917400773037,12.39030986078536 L-16.492423111443223,12.420991558697184 L-16.53240249261279,12.451055571610862 L-16.576759230450715,12.48042947268599 L-16.62538646569036,12.509042497622032 L-16.678167051062793,12.536825715135706 L-16.734973833514815,12.563712193022504 L-16.795669960531807,12.589637159402216 L-16.860109209827442,12.614538158760075 L-16.92813634160595,12.63835520240756 L-16.999587472548402,12.661030913000396 L-17.074290470621982,12.682510662765607 L-17.232724803421508,12.721678299255277 L-17.401913530770653,12.755480906125971 L-17.58022727273708,12.783592945795135 L-17.76594877050944,12.805743683953153 L-17.95728942453849,12.821719796882737 L-18.15240651972849,12.831367425882945 L-18.34942097179091,12.834593659012572 L-18.546435423853325,12.831367425882945 L-18.741552519043328,12.821719796882737 L-18.93289317307238,12.805743683953153 L-19.11861467084474,12.783592945795135 L-19.296928412811166,12.755480906125971 L-19.46611714016031,12.721678299255277 L-19.624551472959837,12.682510662765607 L-19.699254471033417,12.661030913000396 L-19.77070560197587,12.63835520240756 L-19.838732733754377,12.614538158760075 L-19.90317198305001,12.589637159402216 L-19.963868110067004,12.563712193022504 L-20.020674892519025,12.536825715135706 L-20.073455477891457,12.509042497622032 L-20.122082713131103,12.48042947268599 L-20.16643945096903,12.451055571610862 L-20.206418832138596,12.420991558697184 L-20.241924542808782,12.39030986078536 L-20.27287104661265,12.359084392773061 L-20.299183790711943,12.32739037954776 L-20.3207993854014,12.295304174763379 L-20.33766575682012,12.262903076897665 L-20.349742272402025,12.230265143033378 L-20.356999838763304,12.197469000811942 L-20.35942097179091,12.164593659012576 " />
			<path d="M-20.35942097179091,12.164593659012573 L-20.35805896481349,12.139932819641862 L-20.353974789715075,12.115305401400795 L-20.347173981495644,12.090744780125672 L-20.33766575682012,12.06628424112748 L-20.325463001527655,12.041956934082629 L-20.310582253168352,12.01779582810747 L-20.29304367859106,11.993833667077547 L-20.27287104661265,11.970102925252082 L-20.250091695805757,11.946635763263856 L-20.224736497448735,11.92346398453413 L-20.16643945096903,11.878131746414283 L-20.09829582391942,11.834351870218617 L-20.020674892519025,11.79236160288944 L-19.933997291320388,11.752388493323553 L-19.838732733754377,11.71464915926507 L-19.735397466712413,11.67934811343509 L-19.624551472959837,11.646676655259538 L-19.50679543654078,11.61681183420101 L-19.382767487619287,11.58991549031239 L-19.25313974439667,11.566133377211576 L-19.118614670844742,11.54559437223001 L-18.979921269992683,11.528409778015238 L-18.83781113339647,11.514672719372228 L-18.693054368199114,11.504457638611981 L-18.546435423853328,11.4978198921422 L-18.398748841121964,11.494795450486116 L-18.2507949463928,11.495400703355108 L-18.103375514640486,11.499632370831437 L-17.957289424538494,11.507467521142408 L-17.813328329266366,11.518863694929628 L-17.672272366472548,11.533759135339949 L-17.534885930640883,11.552073122691207 L-17.401913530770653,11.573706411899174 L-17.274075755817844,11.598541770295268 L-17.152065369761118,11.62644461292054 L-17.036543557453818,11.657263731853227 L-16.928136341605963,11.690832115617582 " />
			<path d="M-5.614427842621188,7.919595949289331 L-5.54640071084268,7.943412992936816 L-5.481961461547047,7.968313992294676 L-5.421265334530052,7.994238958674388 L-5.364458552078032,8.021125436561185 L-5.311677966705601,8.04890865407486 L-5.263050731465955,8.0775216790109 L-5.218693993628028,8.106895580086029 L-5.178714612458462,8.136959592999707 L-5.143208901788277,8.167641290911531 L-5.112262397984409,8.198866758923828 L-5.085949653885115,8.230560772149131 L-5.064334059195655,8.262646976933512 L-5.047467687776939,8.295048074799226 L-5.035391172195032,8.327686008663512 L-5.028133605833752,8.360482150884948 L-5.025712472806148,8.393357492684313 " />
			<path d="M-5.025712472806148,8.393357492684318 L-5.028133605833752,8.426232834483688 L-5.035391172195032,8.459028976705124 L-5.047467687776939,8.49166691056941 L-5.064334059195655,8.524068008435124 L-5.085949653885115,8.556154213219505 L-5.112262397984408,8.587848226444809 L-5.1432089017882765,8.619073694457105 L-5.178714612458462,8.64975539236893 L-5.218693993628027,8.679819405282608 L-5.263050731465955,8.709193306357736 L-5.311677966705601,8.737806331293777 L-5.364458552078032,8.765589548807451 L-5.421265334530052,8.79247602669425 L-5.481961461547048,8.818400993073961 L-5.546400710842681,8.84330199243182 L-5.614427842621188,8.867119036079306 L-5.685878973563641,8.889794746672141 L-5.760581971637221,8.911274496437352 L-5.919016304436748,8.950442132927023 L-6.0882050317858925,8.984244739797717 L-6.266518773752318,9.01235677946688 L-6.452240271524679,9.034507517624899 L-6.643580925553731,9.050483630554483 L-6.838698020743731,9.06013125955469 L-7.035712472806148,9.063357492684318 L-7.232726924868565,9.06013125955469 L-7.427844020058566,9.050483630554483 L-7.6191846740876175,9.034507517624899 L-7.804906171859979,9.01235677946688 L-7.983219913826403,8.984244739797717 L-8.152408641175548,8.950442132927023 L-8.310842973975076,8.911274496437352 L-8.385545972048655,8.889794746672141 L-8.456997102991108,8.867119036079306 L-8.525024234769615,8.84330199243182 L-8.589463484065249,8.818400993073961 L-8.650159611082245,8.79247602669425 L-8.706966393534264,8.765589548807451 L-8.759746978906694,8.737806331293777 L-8.808374214146342,8.709193306357736 L-8.852730951984269,8.679819405282608 L-8.892710333153834,8.64975539236893 L-8.928216043824019,8.619073694457105 L-8.959162547627887,8.587848226444807 L-8.985475291727182,8.556154213219505 L-9.007090886416641,8.524068008435124 L-9.023957257835358,8.49166691056941 L-9.036033773417264,8.459028976705124 L-9.043291339778545,8.426232834483688 L-9.045712472806148,8.393357492684322 " />
			<path d="M-9.045712472806148,8.393357492684318 L-9.04435046582873,8.368696653313608 L-9.040266290730315,8.34406923507254 L-9.033465482510884,8.319508613797417 L-9.023957257835358,8.295048074799226 L-9.011754502542892,8.270720767754375 L-8.996873754183591,8.246559661779216 L-8.9793351796063,8.222597500749293 L-8.959162547627887,8.198866758923828 L-8.936383196820996,8.175399596935602 L-8.911027998463974,8.152227818205876 L-8.85273095198427,8.106895580086029 L-8.784587324934659,8.063115703890363 L-8.706966393534264,8.021125436561185 L-8.620288792335627,7.981152326995298 L-8.525024234769617,7.943412992936816 L-8.421688967727652,7.9081119471068355 L-8.310842973975076,7.875440488931284 L-8.193086937556018,7.845575667872757 L-8.069058988634524,7.818679323984136 L-7.9394312454119085,7.794897210883323 L-7.8049061718599795,7.774358205901756 L-7.666212771007921,7.757173611686984 L-7.524102634411711,7.743436553043974 L-7.3793458692143545,7.733221472283727 L-7.232726924868566,7.7265837258139465 L-7.085040342137204,7.7235592841578615 L-6.9370864474080385,7.724164537026852 L-6.789667015655725,7.728396204503182 L-6.643580925553732,7.736231354814153 L-6.499619830281603,7.747627528601373 L-6.358563867487787,7.762522969011694 L-6.22117743165612,7.780836956362952 L-6.088205031785893,7.8024702455709205 L-5.960367256833083,7.827305603967014 L-5.838356870776359,7.855208446592286 L-5.722835058469057,7.886027565524974 L-5.6144278426212,7.919595949289327 " />
			<path d="M-5.384070789534049,16.31766454090331 L-5.456074316726454,16.350135576079627 L-5.5338151592420015,16.38110183453032 L-5.617010958918299,16.410450845441467 L-5.705359544948401,16.438076011913413 L-5.798540031378484,16.463876998125393 L-5.8962139825797575,16.487760093759643 L-5.99802664246157,16.509638554361427 L-6.103608222961139,16.529432916398676 L-6.212575247130083,16.547071285877074 L-6.324531941939575,16.562489599462175 L-6.439071675745407,16.575631857160285 L-6.555778435192027,16.58645032571288 L-6.674228336191352,16.59490571196592 L-6.793991163488445,16.600967305584305 L-6.914631933222253,16.60461309059316 L-7.035712472806148,16.60582982534083 L-7.156793012390043,16.60461309059316 L-7.277433782123851,16.600967305584305 L-7.397196609420944,16.59490571196592 L-7.515646510420269,16.58645032571288 L-7.632353269866888,16.575631857160285 L-7.746893003672722,16.562489599462175 L-7.858849698482214,16.547071285877074 L-7.967816722651158,16.529432916398676 L-8.073398303150727,16.509638554361427 L-8.175210963032539,16.487760093759643 L-8.272884914233813,16.463876998125393 L-8.366065400663896,16.438076011913413 L-8.454413986693996,16.410450845441467 L-8.537609786370295,16.38110183453032 L-8.615350628885842,16.350135576079627 L-8.687354156078243,16.317664540903312 " />
			<path d="M-6.509697970345349,15.2891795898794 L-6.49630173791769,15.290406961450884 " />
			<path d="M-7.535712472821994,15.036225039359884 L-7.534689428947364,15.079915377211282 L-7.531620546612383,15.123595068874454 L-7.526506573623105,15.167253470755368 L-7.519348756120473,15.210879944447754 L-7.498909061870168,15.297994595132577 L-7.470321385115171,15.384854115888954 L-7.433613588423008,15.471373850335626 L-7.3888214485191925,15.557469473259166 L-7.335988621417941,15.64305707280034 L-7.275166599873473,15.72805323223759 L-7.2064146631933435,15.812375111287933 L-7.129799819462712,15.895940526846063 L-7.0453967402358835,15.978668033082922 L-6.95328768775875,16.060477000825706 L-6.853562434793074,16.141287696141934 L-6.746318177120768,16.22102135805096 L-6.631659438813415,16.29960027528726 L-6.509697970359397,16.376947862040563 " />
			<path d="M-6.509697970345348,16.37694786203786 L-6.509697970345348,15.242830704583293 " />
			<path d="M-7.079181108459023,12.07360532116315 L-7.040726221843429,12.14599262020633 L-6.999912080382991,12.212921623503767 L-6.956990496801449,12.274033533355572 L-6.912226043352316,12.32897241836148 L-6.8656814156229355,12.377788743483292 L-6.817288173641655,12.42067948181002 L-6.767024444840444,12.457708843771469 L-6.715023408083476,12.488859360456399 " />
			<path d="M-7.5357124728368765,13.233715161251073 L-7.5357124728368765,14.866708323102127 " />
			<path d="M-7.535712472836876,14.866708323102127 L-7.535712472836876,15.03622503935988 " />
			<path d="M-7.535712472836996,13.233715161251073 L-7.743277887923552,13.25095158543939 L-7.945663103349238,13.274039521169142 L-8.14138642455703,13.30280993796727 L-8.329014929783824,13.337052203007245 L-8.507174960710005,13.376515623185702 L-8.674562179231891,13.420911280486784 L-8.753829694492218,13.444858474099497 L-8.82995111672977,13.46991414719718 L-8.902787057856024,13.4960324196284 L-8.972204145919815,13.523165465486034 L-9.038075269328486,13.551263600682656 L-9.100279809605523,13.580275373928457 L-9.158703862258449,13.610147660945165 L-9.213240445352563,13.640825761743413 L-9.263789695408592,13.672253500785438 L-9.310259050265529,13.704373329849686 L-9.352563418573816,13.737126433409003 L-9.390625335608526,13.770452836329397 L-9.424375105117212,13.804291513692208 L-9.453750926942687,13.838580502538559 L-9.478699010187029,13.873257015331486 L-9.49917367170963,13.908257554927967 L-9.515137419778869,13.943518030850342 L-9.526561022724298,13.97897387664419 L-9.533423562463575,14.0145601681078 L-9.53571247280615,14.050211742176693 " />
			<path d="M-9.53571247280615,14.0502117421767 L-9.533423562463575,14.0858633162456 L-9.526561022724298,14.12144960770921 L-9.515137419778869,14.156905453503057 L-9.49917367170963,14.19216592942543 L-9.478699010187029,14.227166469021913 L-9.453750926942687,14.26184298181484 L-9.424375105117212,14.296131970661191 L-9.390625335608526,14.329970648024002 L-9.352563418573814,14.363297050944396 L-9.310259050265529,14.396050154503714 L-9.263789695408592,14.428169983567962 L-9.213240445352563,14.459597722609987 L-9.158703862258447,14.490275823408235 L-9.100279809605523,14.520148110424943 L-9.038075269328486,14.549159883670743 L-8.972204145919815,14.577258018867365 L-8.902787057856022,14.604391064725 L-8.82995111672977,14.63050933715622 L-8.753829694492218,14.655565010253902 L-8.674562179231891,14.679512203866615 L-8.507174960710003,14.723907861167698 L-8.329014929783824,14.763371281346155 L-8.14138642455703,14.79761354638613 L-7.945663103349236,14.826383963184258 L-7.743277887923553,14.84947189891401 L-7.535712472837003,14.866708323102326 " />
			<path d="M-7.535712472821318,11.73949025584743 L-7.535712472821318,13.06419844499352 " />
			<path d="M-7.535712472821318,13.064198444993284 L-7.5357124728367815,13.233715161251274 " />
			<path d="M-3.339198067314555,16.489402983646976 L-3.6746179872450595,16.09697188822679 " />
			<path d="M-8.622577578431924,11.777624886813765 L-8.493888316804952,11.85053399699308 L-8.372777967407679,11.92487170572172 L-8.259389088646374,12.000550510442434 L-8.153855150021585,12.077481330000362 L-8.056300375021834,12.155573609500037 L-7.966839594900746,12.234735426897116 L-7.88557811350974,12.314873601199373 L-7.8126115833453715,12.395893802149589 L-7.748025892957242,12.477700661261249 L-7.691897065849002,12.560197884076327 L-7.644291170991457,12.643288363513012 L-7.605264245053101,12.726874294169999 L-7.588982647203925,12.768822326888639 L-7.574862226439621,12.810857287452752 L-7.562907138335672,12.852966805165 L-7.553120901220024,12.89513848738623 L-7.545506395137663,12.937359923182544 L-7.540065861003028,12.979618686977798 L-7.536800899940521,13.021902342210392 L-7.535712472813304,13.064198444993261 " />
			<path d="M-8.622577578425854,11.777624886812648 L-8.622577578425854,9.89200680364852 " />
			<path d="M-9.70219471048119,9.435130094884116 L-9.549924653085235,9.487409442806582 L-9.40235556884755,9.54116579408963 L-9.259616338906566,9.596352200012351 L-9.121831626192531,9.652920462899338 L-8.989121766551705,9.71082117821469 L-8.861602663649695,9.770003777710015 L-8.73938568774565,9.830416573588796 L-8.62257757842583,9.892006803648487 " />
			<path d="M-3.3391980673158344,16.4894029836471 L-3.323027981486318,16.505252870973372 L-3.302169238854776,16.520482064013443 L-3.2768322992976375,16.534936903740878 L-3.247272806659908,16.54847154417461 L-3.2137890093680515,16.560949423931078 L-3.1767187511725243,16.57224464409691 L-3.093347385987642,16.59084432370038 L-3.0005150145853943,16.6035218106788 L-2.9019588147187836,16.60976674402788 L-2.801646389843354,16.60932771978552 L-2.7036160442373607,16.60222241186877 " />
			<path d="M-2.7036160442373953,16.60222241186874 L-2.313817121669218,16.55781703008094 L-1.928106246045684,16.509608153712318 L-1.5468173519522415,16.457637520271888 L-1.170280545581984,16.401950124062445 L-0.7988218189415832,16.34259417722616 L-0.432762767619157,16.279621068004204 L-0.07242031235840862,16.213085316246676 L0.2818935753199723,16.14304452621129 L0.6298721432119985,16.069559336691672 L0.9712141240053951,15.992693368518468 L1.3056239961059957,15.91251316947874 L1.632812239489689,15.82908815670127 L1.9524955863584372,15.742490556557724 L2.2643972663833294,15.652795342131656 L2.568247246322369,15.560080168309504 L2.863782463805511,15.464425304549799 L3.150747055084623,15.365913565388752 L3.428892576551079,15.264630238742406 L3.6979782198292854,15.160663012067442 L3.95777102025992,15.054101896444527 L4.20804605859233,14.945039148649961 L4.44858665571152,14.833569191283095 L4.679184560231133,14.71978853101863 L4.899640128789993,14.60379567505462 L5.1097624988961465,14.485691045828494 L5.3093697541687215,14.365576894074911 L5.498289081834598,14.243557210300768 L5.676356922343456,14.11973763475397 L5.843419110971774,13.994225365963883 L5.922777511267463,13.930868374422381 L5.999331011293074,13.867129067932735 L6.07306304083609,13.803021243040547 L6.143957640398935,13.738558776058223 L6.211999464653428,13.673755620061415 L6.277173785762321,13.60862580186885 " />
			<path d="M-9.851880660118326,9.38662352736043 L-10.033142347593257,9.325822216219253 L-10.202612778187245,9.261352785540033 L-10.282716055723835,9.227821241482157 L-10.35962529097265,9.193468844464558 L-10.433264829151232,9.158329386568441 L-10.50356223184275,9.122437434098288 L-10.570448348252883,9.085828293579345 L-10.633857383232712,9.048537977026983 L-10.693726962000696,9.010603166522067 L-10.749998191500065,8.972061178127186 L-10.802615718331287,8.93294992517925 L-10.851527783202608,8.89330788099455 L-10.896686271845105,8.853174041022974 L-10.938046762342168,8.812587884488607 " />
			<path d="M6.277173785762428,13.608625801868838 L6.287859974730527,13.596014268024373 L6.29554051156771,13.583161853371237 L6.30016791053446,13.570148019336065 L6.301713562242313,13.557053225338064 " />
			<path d="M6.301713562242313,13.557053225338064 L6.299305925578411,13.540717035283137 L6.292106202443928,13.52453817166871 L6.280183730108417,13.508672445795654 L6.263653328497956,13.493272653277216 L6.24267419441649,13.478487102533732 L6.217448368393585,13.464458186501464 L6.188218788923681,13.45132101131079 L6.155266952835588,13.439202095140308 " />
			<path d="M-10.938046762347302,8.812587884489151 L-11.231676750175742,8.50889850182308 " />
			<path d="M6.155266952835587,13.439202095140306 L6.107654262496551,13.425228304440035 L6.055116698196475,13.413376562619849 L5.998499982267112,13.403837652843395 L5.938715501097427,13.396765127509346 " />
			<path d="M-11.231676750166738,8.508898501822115 L-11.253126878493699,8.490517660288262 L-11.280940692155072,8.47311013383724 L-11.314728708085122,8.456919683962948 L-11.354017785124922,8.442173029163236 " />
			<path d="M5.938715501097058,13.396765127509774 L3.4285840052779237,13.158379865550971 " />
			<path d="M-11.354017785124928,8.442173029163234 L-11.390374533636855,8.431189083800405 L-11.429786059209428,8.421445890643673 L-11.516229459537943,8.406044237275463 L-11.610026014713778,8.396559945960213 L-11.707571175723146,8.393357492694326 " />
			<path d="M1.177996026178612,12.164593659012576 L1.180527261919655,12.20634324908387 L1.1881168354947995,12.248024659765125 L1.2007523527105661,12.289569823007016 L1.2184131790683845,12.330910893259821 L1.241070473461873,12.371980358268962 L1.2686872352759573,12.412711149326249 L1.3012183648109246,12.453036750796787 L1.3386107369327251,12.492891308742694 L1.3808032878292584,12.532209738466214 L1.4277271147309536,12.570927830796641 L1.479305588432804,12.608982356947438 L1.5354544784340978,12.646311171772345 L1.5960820904914859,12.682853315251844 L1.6610894163607535,12.718549112044236 L1.730370295482759,12.753340268938784 L1.803811588349498,12.787169970051742 L1.8812933612671836,12.819982969609844 L1.9626890822145957,12.851725682169699 L2.047865827476877,12.882346270125792 L2.136684498717309,12.911794728364159 L2.229000050132591,12.9400229659235 L2.324661725320661,12.966984884530389 L2.423513303474239,12.992636453880287 L2.5253933544980463,13.01693578354149 L2.7375686981574443,13.061321268285162 L2.9598023458506146,13.099851521324316 L3.1906432108859804,13.132274957275778 L3.4285840052781102,13.158379865550746 " />
			<path d="M-11.70757117572315,8.393357492692333 L-13.305776946119883,8.393357492692333 " />
			<path d="M1.1779960261780023,12.164593659012574 L1.1755883895141008,12.148257468957647 L1.1683886663796175,12.132078605343219 L1.1564661940441068,12.116212879470163 L1.1399357924336457,12.100813086951726 L1.1189566583521797,12.086027536208242 L1.093730832329275,12.071998620175973 L1.0645012528593707,12.0588614449853 L1.0315494167712775,12.046742528814818 " />
			<path d="M-13.305776946119881,8.393357492694088 L-13.371269860860803,8.394793452597224 L-13.435634233207708,8.399076588536143 L-13.49776096726617,8.40613309557324 L-13.556579525048075,8.415841379374594 " />
			<path d="M1.0315494167712762,12.046742528814816 L0.9758456784242189,12.030725737099134 L0.9136943945910012,12.017606781621181 L0.8464409528741123,12.007669648148738 L0.7755411871860661,12.001129445612035 L0.7025298633417113,11.998127749645045 L0.6289874560132218,11.998729537900541 L0.55650593622637,12.00292178348015 L0.4866543099954572,12.01061373692736 L0.4209446540813915,12.021638890679196 L0.36079938409617945,12.035758583452118 L0.30752046350052253,12.052667166538072 L0.26226122002672964,12.071998620175973 L0.2260013796162807,12.093334476774194 L0.19952585831189784,12.116212879470163 L0.19014496115873802,12.128076785653096 L0.18340777119561175,12.14013857993668 L0.17935079783865715,12.152332898412629 L0.17799602617800225,12.164593659012573 " />
			<path d="M-13.55657952505131,8.415841379372742 L-13.918499067516333,8.488435509052243 L-14.273152386025536,8.564910594220787 L-14.620165069662129,8.645185899395992 L-14.959170773800983,8.729176677166684 L-15.289811606862198,8.81679425766157 L-15.61173850814065,8.907946142158865 L-15.924611616312735,9.002536100738075 L-16.228100628231264,9.100464273870866 L-16.52188514762964,9.20162727784371 L-16.80565502336727,9.30591831390107 L-17.079110676859152,9.413227280993887 L-17.341963418343813,9.523440892014294 L-17.593935751655888,9.636442793393911 L-17.834761667181496,9.752113687939442 L-18.064186922687135,9.870331460775844 L-18.281969311725582,9.99097130826415 " />
			<path d="M0.17799602617861243,12.164593659012576 L0.18116895362596352,12.218350247859068 L0.19068282500773215,12.272023633897643 L0.20652291504409437,12.325530743099153 L0.22866470692702912,12.378788758792668 L0.25707393026668157,12.431715249846581 L0.29170661413403254,12.484228298253013 L0.3325091551177555,12.536246625917995 L0.3794184002899441,12.587689720461231 L0.4323617449522845,12.638477959830691 L0.49125724501139567,12.688532735539209 L0.556013743809392,12.737776574332285 L0.6265310132133814,12.78613325809884 L0.7026999087455086,12.83352794183927 L0.7844025385134459,12.879887269508258 L0.8715124456798717,12.925139487553023 L0.9638948041885014,12.969214555971279 L1.0614066274437421,13.012044256717012 L1.1638969896209854,13.05356229928629 L1.2712072592649921,13.093704423319686 L1.383171344814818,13.132408498062496 L1.4996159516752625,13.169614618528831 L1.6203608504369589,13.20526519822072 L1.7452191558299521,13.23930505825874 L1.8739976159790164,13.2716815127862 L2.0064969115130125,13.3023444505147 L2.1425119640653305,13.331246412284857 L2.2818322536879205,13.358342664522144 L2.424242144687655,13.383591268474147 L2.5695212193806665,13.406953145122094 L2.7174446192481145,13.42839213566616 L2.867783392965346,13.44787505749096 L3.0203048507657506,13.465371755524584 " />
			<path d="M3.020304850765629,13.46537175552472 L3.9313729987655406,13.563248418134382 " />
			<path d="M-18.349420971766865,10.074572167907993 L-18.349420971766865,9.415856575256468 " />
			<path d="M-18.349420971766865,10.607307424706905 L-18.349420971766865,10.074572167907993 " />
			<path d="M-18.34942097176545,9.415856575255821 L-18.34942097176545,10.607307424706905 " />
			<path d="M4.131549416747524,13.604028763120722 L4.087309452347336,13.590932404107178 L4.038738102723231,13.579669732130307 L3.9865155233688045,13.570398460909756 L3.9313729987658057,13.563248418134114 " />
			<path d="M-18.34942097176089,10.607307424706905 L-18.347873801172366,10.620408641156295 L-18.343241864353335,10.633428778338619 L-18.335553826889463,10.646287258760625 L-18.324857267602553,10.658904505371407 L-18.31121838410033,10.671202434039486 L-18.294721583100472,10.683104936790706 L-18.253579657372537,10.705431924336247 L-18.202448371930988,10.725333624591434 L-18.1425915095945,10.742318138582327 L-18.07548851828908,10.755965669764015 L-18.002797944377523,10.765938899892376 " />
			<path d="M4.277996026153863,13.239047873360413 L4.277996026153863,13.721879893318478 " />
			<path d="M4.27799602615425,13.72187989331848 L4.275588389490348,13.705543703263553 L4.2683886663558654,13.689364839649125 L4.256466194020355,13.673499113776069 L4.239935792409894,13.658099321257632 L4.218956658328429,13.643313770514148 L4.1937308323055245,13.629284854481881 L4.1645012528356204,13.616147679291206 L4.131549416747528,13.604028763120724 " />
			<path d="M-17.091729796377926,10.863815562500427 L-18.002797944376145,10.765938899890948 " />
			<path d="M4.277996026154568,14.254615150117154 L4.277996026154568,13.23904787336048 " />
			<path d="M4.277996026154571,13.721879893318478 L4.277996026154571,14.254615150117154 " />
			<path d="M-15.450283168926063,11.198214391390957 L-15.626897331284068,11.14272907639458 L-15.813050877007996,11.090824247479802 L-16.00809154728504,11.042681772695142 L-16.211335943926102,10.998470337269382 L-16.422071923907808,10.958344852559549 L-16.6395610946329,10.92244591326083 L-16.86304140116579,10.890899304780309 L-17.091729796378022,10.863815562500568 " />
			<path d="M-14.24942097179091,12.164593659012573 L-14.250655815136472,12.13105398003126 L-14.254359601349702,12.097534504098435 L-14.26053009940828,12.064055422093027 L-14.269163592434904,12.030636900562174 L-14.280254879936198,11.997299069573643 L-14.293797280935308,11.964062010590245 L-14.30978263799625,11.930945744373494 L-14.328201322137666,11.897970218923865 L-14.349042238632943,11.86515529746485 L-14.37229283369328,11.832520746478112 L-14.425965595288854,11.767871266764807 L-14.489090304540525,11.704177526043205 L-14.561514888494635,11.641592968113617 L-14.643064869984793,11.580268364657854 L-14.733543787962654,11.520351452017042 L-14.832733670789796,11.461986575281836 L-14.940395561350476,11.405314340552449 L-15.056270092720267,11.350471276206246 L-15.18007811300369,11.297589503988924 L-15.31152135783558,11.246796420721646 L-15.450283168926054,11.19821439139096 " />
			<path d="M-0.5148454205600981,15.913345938652236 L-0.1529258780951963,15.840751808972746 L0.20172744041388224,15.764276723804217 L0.5487401240503536,15.684001418629032 L0.8877458281890966,15.600010640858361 L1.218386661250201,15.512393060363497 L1.5403135625285467,15.421241175866228 L1.8531866707005333,15.326651217287043 L2.1566756826189684,15.228723044154282 L2.4504602020172497,15.127560040181471 L2.7342300777548028,15.023269004124142 L3.0076857312466094,14.915960037031361 L3.2705384727311992,14.805746426010993 L3.5225108060432158,14.692744524631411 L3.7633367215687707,14.577073630085922 L3.99276197707436,14.458855857249562 L4.210544366112798,14.338216009761277 " />
			<path d="M-15.2494209717903,12.164593659012573 L-15.247013335126399,12.1809298490675 L-15.239813611991917,12.197108712681928 L-15.227891139656405,12.212974438554983 L-15.211360738045943,12.22837423107342 L-15.190381603964479,12.243159781816905 L-15.165155777941573,12.257188697849173 L-15.135926198471669,12.270325873039846 L-15.102974362383573,12.28244478921033 L-15.066617613872124,12.293428734573029 L-15.027206088300101,12.303171927729663 L-14.940762687972846,12.318573581097787 L-14.846966132798364,12.328057872413112 L-14.7494209717903,12.331260325679239 L-14.651875810782236,12.328057872413112 L-14.558079255607755,12.318573581097787 L-14.4716358552805,12.303171927729663 L-14.432224329708477,12.293428734573029 L-14.395867581197027,12.28244478921033 L-14.362915745108932,12.270325873039846 L-14.333686165639028,12.257188697849173 L-14.308460339616122,12.243159781816905 L-14.287481205534657,12.22837423107342 L-14.270950803924196,12.212974438554983 L-14.259028331588684,12.197108712681928 L-14.251828608454202,12.1809298490675 L-14.2494209717903,12.164593659012573 " />
			<path d="M-15.249420971791329,11.270166468012496 L-15.249420971791329,12.164593659012573 " />
			<path d="M-0.7656479994924144,15.935829825332709 L-0.7001550847504143,15.934393865429744 L-0.6357907124024007,15.9301107294909 L-0.5736639783428525,15.92305422245379 L-0.5148454205599355,15.913345938652332 " />
			<path d="M-15.24942097179091,12.164593659012573 L-15.253155057554874,12.113890395540908 L-15.2643483191071,12.063309280672026 L-15.282973790900089,12.012972168742033 L-15.308986602540894,11.963000326262573 L-15.342324086887823,11.9135141397792 L-15.38290593102106,11.864632825849629 L-15.430634369723544,11.816474143840614 L-15.48539442100592,11.769154112235315 L-15.547054163108234,11.722786729134615 L-15.615465052311007,11.677483697625709 L-15.690462280790065,11.633354156679578 L-15.771865173653017,11.59050441822565 L-15.859477624200908,11.549037711037059 L-15.953088566366421,11.509053932043473 L-16.05247248319053,11.470649405670654 L-16.1573899501126,11.433916651786477 " />
			<path d="M-2.363853769888437,15.935829825332814 L-0.7656479994924119,15.935829825332814 " />
			<path d="M-16.157389950112613,11.433916651786474 L-16.30086305738675,11.389035761515402 L-16.452588630214873,11.347279149444725 L-16.611955453236845,11.30881502902857 L-16.778321528875637,11.273798350159527 L-16.95101666357758,11.242370174964348 L-17.129345167638004,11.214657109545502 L-17.312588657736278,11.190770793957757 L-17.500008950890386,11.170807452474405 " />
			<path d="M-2.7180349950182108,15.886804638390375 L-2.6816511187841026,15.897833644375725 L-2.6421928236995793,15.907617872932525 L-2.555605928172905,15.923086339287362 L-2.461616822899332,15.932612908152949 L-2.36385376988844,15.935829825332709 " />
			<path d="M-20.010140446709357,10.932422190515375 L-17.500008950890223,11.170807452474177 " />
			<path d="M-20.348598731371897,10.720561516157252 L-20.359284920339995,10.733173050001717 L-20.36696545717718,10.746025464654853 L-20.371592856143927,10.759039298690025 L-20.37313850785178,10.772134092688024 " />
			<path d="M-20.37313850785178,10.772134092688026 L-20.371506119252416,10.785590705712554 L-20.366619612224472,10.798959453050333 L-20.35851089348141,10.812153042738395 L-20.347232909343347,10.825085326515172 L-20.332859300021212,10.837671862330263 L-20.315483918778963,10.849830465713387 L-20.272200513954363,10.872549626726109 L-20.218511334863337,10.892650394195813 L-20.155816358125126,10.909608628901845 L-20.08575039177858,10.922982134995912 L-20.010140446710253,10.932422190516425 " />
			<path d="M-11.367808901373186,7.726964906156223 L-11.757607823941491,7.771370287944021 L-12.143318699565151,7.81957916431264 L-12.524607593658716,7.871549797753073 L-12.901144400029088,7.927237193962514 L-13.2726031266696,7.986593140798804 L-13.638662177992142,8.049566250020769 L-13.999004633253008,8.116102001778305 L-14.353318520931506,8.1861427918137 L-14.701297088823646,8.259627981333335 L-15.042639069617142,8.336493949506552 L-15.377048941717838,8.416674148546297 L-15.704237185101636,8.500099161323787 L-16.023920531970482,8.586696761467353 L-16.335822211995467,8.676391975893447 L-16.639672191934594,8.769107149715623 L-16.935207409417814,8.86476201347535 L-17.222172000696997,8.963273752636423 L-17.500317522163527,9.064557079282798 L-17.7694031654418,9.168524305957794 L-18.029195965872503,9.275085421580743 L-18.27947100420497,9.384148169375342 L-18.52001160132421,9.49561812674224 L-18.75060950584386,9.60939878700674 L-18.971065074402766,9.725391642970784 L-19.181187444508954,9.843496272196951 L-19.380794699781557,9.963610423950573 L-19.569714027447457,10.085630107724754 L-19.747781867956324,10.209449683271592 L-19.914844056584645,10.334961952061715 L-19.994202456880338,10.398318943603238 L-20.07075595690595,10.462058250092904 L-20.144487986448965,10.526166074985113 L-20.215382586011806,10.590628541967456 L-20.283424410266292,10.655431697964286 L-20.348598731375162,10.720561516156852 " />
			<path d="M-10.859537781186518,7.767600517132936 L-10.911335129142742,7.752559338911841 L-10.968828543215585,7.7400266883362185 L-11.030932755037373,7.73023913666301 L-11.096475461002962,7.723381437579209 L-11.164219451135112,7.719583039718381 L-11.232885963148158,7.718915643137179 L-11.301178820869435,7.721391845876787 L-11.367808901372104,7.726964906157322 " />
			<path d="M-10.732226878294592,7.839784334377871 L-10.753444454296815,7.819856173988291 L-10.782061183626029,7.800983935345471 L-10.81761640908624,7.783471413912383 L-10.85953778118652,7.767600517132935 " />
			<path d="M-10.732226878297743,7.8397843343781695 L-10.017071092421334,8.676494832984549 " />
			<path d="M-10.017071092420657,8.676494832984483 L-9.986944287242714,8.709625799569023 L-9.953504924609447,8.74240177643953 L-9.91679053793638,8.774785974785987 L-9.876842336631292,8.806742045543183 L-9.833705159839457,8.838234120190084 L-9.78742742611474,8.869226851009794 L-9.738061079073065,8.899685450764988 L-9.68566152908922,8.929575731744213 L-9.572001418600841,8.987517813682658 L-9.446957254500843,9.042793025602466 L-9.31109029360908,9.095153266443647 L-9.165010370530318,9.144363518902738 " />
			<path d="M-8.99508792929464,9.199427834488601 L-9.1650103705302,9.144363518902715 " />
			<path d="M5.699280656363572,11.690832115617589 L5.76730778814208,11.714649159265074 L5.831747037437713,11.739550158622933 L5.892443164454709,11.765475125002645 L5.949249946906728,11.792361602889443 L6.002030532279159,11.820144820403117 L6.050657767518805,11.848757845339158 L6.095014505356732,11.878131746414287 L6.134993886526297,11.908195759327965 L6.170499597196483,11.938877457239789 L6.201446101000351,11.970102925252085 L6.227758845099645,12.001796938477389 L6.249374439789105,12.03388314326177 L6.266240811207822,12.066284241127484 L6.278317326789727,12.09892217499177 L6.285574893151008,12.131718317213206 L6.287996026178612,12.16459365901257 " />
			<path d="M6.287996026178612,12.164593659012576 L6.285574893151008,12.197469000811946 L6.278317326789727,12.230265143033382 L6.266240811207822,12.262903076897668 L6.249374439789105,12.295304174763382 L6.227758845099645,12.327390379547763 L6.201446101000352,12.359084392773067 L6.170499597196484,12.390309860785363 L6.134993886526298,12.420991558697187 L6.095014505356733,12.451055571610866 L6.050657767518805,12.480429472685994 L6.002030532279159,12.509042497622035 L5.949249946906728,12.53682571513571 L5.892443164454708,12.563712193022507 L5.831747037437713,12.58963715940222 L5.767307788142079,12.614538158760078 L5.699280656363572,12.638355202407563 L5.627829525421118,12.661030913000399 L5.55312652734754,12.68251066276561 L5.394692194548012,12.72167829925528 L5.225503467198868,12.755480906125975 L5.0471897252324425,12.783592945795139 L4.861468227460081,12.805743683953157 L4.67012757343103,12.821719796882741 L4.475010478241029,12.831367425882949 L4.277996026178612,12.834593659012576 L4.080981574116195,12.831367425882949 L3.8858644789261945,12.821719796882741 L3.6945238248971433,12.805743683953157 L3.5088023271247817,12.783592945795139 L3.3304885851583568,12.755480906125975 L3.161299857809212,12.72167829925528 L3.002865525009685,12.68251066276561 L2.928162526936105,12.661030913000399 L2.856711395993652,12.638355202407563 L2.788684264215145,12.614538158760078 L2.7242450149195108,12.58963715940222 L2.6635488879025155,12.563712193022507 L2.606742105450496,12.53682571513571 L2.553961520078065,12.509042497622035 L2.505334284838419,12.480429472685994 L2.4609775470004918,12.451055571610866 L2.420998165830926,12.420991558697187 L2.3854924551607404,12.390309860785363 L2.3545459513568723,12.359084392773065 L2.328233207257579,12.327390379547763 L2.306617612568119,12.295304174763382 L2.2897512411494025,12.262903076897668 L2.2776747255674965,12.230265143033382 L2.270417159206216,12.197469000811946 L2.2679960261786123,12.16459365901258 " />
			<path d="M2.2679960261786123,12.164593659012576 L2.26935803315603,12.139932819641865 L2.273442208254445,12.115305401400798 L2.2802430164738765,12.090744780125675 L2.2897512411494025,12.066284241127484 L2.3019539964418674,12.041956934082632 L2.31683474480117,12.017795828107474 L2.3343733193784595,11.993833667077551 L2.3545459513568723,11.970102925252085 L2.377325302163764,11.94663576326386 L2.4026805005207867,11.923463984534134 L2.460977547000491,11.878131746414287 L2.5291211740501023,11.83435187021862 L2.606742105450496,11.792361602889443 L2.6934197066491326,11.752388493323556 L2.788684264215144,11.714649159265074 L2.8920195312571075,11.679348113435093 L3.0028655250096836,11.646676655259542 L3.120621561428742,11.616811834201014 L3.2446495103502366,11.589915490312393 L3.3742772535728522,11.56613337721158 L3.508802327124781,11.545594372230013 L3.6474957279768385,11.528409778015241 L3.7896058645730495,11.514672719372232 L3.9343626297704057,11.504457638611985 L4.080981574116194,11.497819892142203 L4.228668156847556,11.49479545048612 L4.376622051576722,11.495400703355111 L4.524041483329036,11.49963237083144 L4.670127573431028,11.507467521142411 L4.814088668703158,11.518863694929632 L4.955144631496974,11.533759135339952 L5.092531067328641,11.55207312269121 L5.225503467198867,11.573706411899177 L5.353341242151677,11.598541770295272 L5.4753516282084025,11.626444612920544 L5.590873440515703,11.65726373185323 L5.69928065636356,11.690832115617585 " />
			<path d="M4.277996026154252,14.254615150117152 L4.276917893857802,14.26555422344398 L4.273688146445355,14.27644612169782 L4.260838738628827,14.29790091248049 L4.2396692175174895,14.318609823833674 L4.210544366113119,14.338216009761313 " />
			<path d="M-2.0859650045003155,10.514677836243964 L-2.0205595821048634,10.534437842719504 L-1.9496586467124881,10.551965748541154 L-1.8739450130894117,10.567092750394126 L-1.7941478449167065,10.579673166981316 L-1.7110356325454457,10.58958584201383 L-1.6254087920145204,10.596735311012289 L-1.5380919566066364,10.60105272068194 L-1.449926035179011,10.602496492007527 " />
			<path d="M-1.4499260351790078,10.60249649200738 L4.27799602617861,10.60249649200738 " />
			<path d="M7.591704525163204,11.060024159351046 L7.42511704870871,11.007156005206427 L7.250947882055696,10.957076219749393 L7.069616613982048,10.909905449569582 L6.881560087395297,10.865757333184025 L6.687231346939796,10.824738227272015 L6.48709854757249,10.786946950452544 L6.2816438267366195,10.752474545221594 L6.071362142850384,10.721404058622792 L5.856760082908766,10.693810342179809 L5.638354642071086,10.669759871572479 L5.416671978174378,10.649310586491069 L5.192246144173075,10.632511751054485 L4.965617801558671,10.619403835128699 L4.737332917858826,10.610018416831291 L4.507941451353763,10.604378106457009 L4.277996026178655,10.602496492007576 " />
			<path d="M-18.349420971761596,10.074572167907995 L-18.348342839464856,10.063633094581345 L-18.345113092052188,10.052741196327688 L-18.33226368423543,10.031286405545385 L-18.311094163124135,10.010577494192566 L-18.281969311720076,9.990971308265262 " />
			<path d="M-9.851880660118237,9.386623527360397 L-9.702194710481237,9.435130094884101 " />
			<path d="M-8.622577578425942,9.892006803648398 L-8.90704224736451,9.916183730125757 L-9.18821563441007,9.94431514446923 L-9.465603213749944,9.976351569341414 L-9.7387171180239,10.012236659299333 L-10.007076996381922,10.051907299894419 L-10.270210859321974,10.095293718677771 L-10.527655908821863,10.142319607915455 L-10.778959352305218,10.192902258798014 L-11.02367919900995,10.246952706908159 L-11.261385037358536,10.30437588869077 L-11.491658791962962,10.365070808650016 L-11.7140954589328,10.428930716979547 L-11.92830381819327,10.495843297313302 L-12.133907121560409,10.56569086426677 L-12.33054375536317,10.638350570421231 L-12.51786787644706,10.713694622386939 L-12.695550020440685,10.791590505565265 L-12.863277681215415,10.871901217214454 L-13.020755860519005,10.954485507409098 L-13.167707586816494,11.03919812746954 L-13.303874402425816,11.125890085424237 L-13.429016818091402,11.21440890805582 L-13.487384326585984,11.259304859718542 L-13.54291473419621,11.304598909069936 L-13.59558362161308,11.350271138204944 L-13.645367827871432,11.396301462915222 L-13.692245460534888,11.442669641521112 L-13.736195905322973,11.489355283772838 L-13.77719983517619,11.53633785981707 L-13.815239218755028,11.583596709224846 L-13.850297328369166,11.631111050076917 L-13.882358747333436,11.678859988102541 L-13.911409376747248,11.726822525867664 L-13.937436441694537,11.774977572008469 L-13.960428496861496,11.823303950506228 L-13.980375431569597,11.871780409999388 L-13.997268474221745,11.920385633128788 L-14.01110019615955,11.969098245911896 L-14.021864514930058,12.01789682714194 L-14.02955669696048,12.066759917807806 L-14.03417335963978,12.115666030530589 L-14.03571247280615,12.164593659012553 " />
			<path d="M-14.035712472806146,13.726690826017766 L-18.349420971787374,13.726690826017766 " />
			<path d="M-2.349420971791008,10.302664846470194 L-2.348337490746633,10.317376888006473 L-2.345089657814246,10.33205348694607 L-2.3321374288052943,10.361159098748697 L-2.3106890218099174,10.389701378925672 L-2.2809509967123724,10.417405449716092 L-2.243209746950807,10.44400450577366 L-2.1978287413918913,10.46924238364802 L-2.145245023926938,10.492876028778811 L-2.0859650045003195,10.514677836243962 " />
			<path d="M-2.34942097179057,9.835266861030506 L-2.348090967408177,9.840398136601623 L-2.3441286273682875,9.844786947720618 L-2.3284729789597587,9.851406828479744 L-2.302786103852465,9.8552658070629 L-2.267415709438352,9.856503926974105 " />
			<path d="M-2.267415709438352,9.856503926974105 L-1.44992603517901,9.810735690188258 " />
			<path d="M-1.4499260351790095,9.810735690188492 L4.277996026178609,9.810735690188494 " />
			<path d="M4.27799602617861,9.810735690188258 L4.531034736420402,9.809576707534028 L4.781528751075179,9.805837469697456 L5.029474392072827,9.79912454186772 L5.274867981343232,9.789044489233996 L5.517946299289446,9.77492544054435 L5.756342127383141,9.755820388659826 L5.98694600992638,9.730879019221378 L6.099124044990855,9.71585873374304 L6.209207653823195,9.69892213802344 L6.317184193058307,9.679898685369423 L6.4230264712676775,9.658571477043877 L6.526703799785642,9.634708552679452 L6.628185489946536,9.60807795190881 L6.727304369845254,9.578442905687357 L6.823632162376331,9.545683256792813 L6.91674652107357,9.509741962591303 L7.00622509947077,9.470561980448949 L7.091965901475681,9.428004721027847 L7.174166024350817,9.381828686829277 L7.252851761662126,9.331822472978144 L7.328049406975556,9.277774674599357 L7.399694374338681,9.219503481143413 L7.467611549289722,9.15699646134737 L7.531661432630591,9.090296279265969 L7.591704525163203,9.019445598953952 " />
			<path d="M-6.509697970359282,16.376947862038254 L-6.885731761580536,16.383009437512122 L-7.262199370773708,16.38232341486614 L-7.63801186847995,16.374891778415165 L-8.012082220144997,16.360736024106416 L-8.383328430357661,16.339897097342643 L-8.750676672512643,16.31243527454787 L-9.113064394845145,16.278429988818345 L-9.4694433938531,16.23797960016296 L-9.818782846217164,16.191201110997724 L-10.160072290448683,16.138229827717275 L-10.49232454964122,16.0792189693222 L-10.81457858687163,16.014339224234366 L-11.125902284991449,15.943778256582066 L-11.277182543372295,15.906430468527294 L-11.425395142768057,15.867740163383065 L-11.570432887865636,15.827735324056299 L-11.712190879577083,15.786444884195657 L-11.850566590908288,15.743898707265155 L-11.985459941111959,15.700127564945317 " />
			<path d="M-11.98545994111198,15.70012756494531 L-12.222370350290861,15.617182636819743 L-12.336174398351538,15.574281709068845 L-12.446785646345305,15.53046273855854 L-12.55413746619239,15.485752120198164 L-12.65816519317066,15.440176785992378 L-12.75880616486723,15.39376418881834 L-12.855999758923964,15.346542285889106 L-12.9496874295541,15.29853952191326 L-13.039812742808053,15.249784811960884 L-13.12632141056713,15.200307524046195 L-13.209161323244633,15.15013746143736 L-13.288282581174755,15.099304844704115 L-13.363637524670251,15.047840293514025 L-13.435180762730862,14.995774808188344 L-13.502869200385156,14.943139751028577 L-13.56666206464932,14.889966827425006 L-13.626520929087294,14.836288066758549 L-13.682409736957403,14.782135803107447 L-13.73429482293161,14.727542655770446 L-13.782144933374228,14.67254150961813 L-13.825931245167958,14.617165495284315 L-13.865627383075848,14.561447969209397 L-13.901209435628761,14.505422493547666 L-13.932655969528739,14.449122815950737 L-13.959948042559615,14.392582849239211 L-13.98306921499712,14.335836650974873 L-14.002005559511527,14.278918402945676 L-14.01674566955698,14.221862390575925 L-14.027280666242355,14.16470298227401 L-14.033604203679579,14.107474608730163 L-14.03571247280615,14.05021174217671 " />
			<path d="M-14.03571247280615,14.050211742176701 L-14.034173359639782,14.001284113694755 L-14.02955669696049,13.952378000972008 L-14.02186451493008,13.903514910306175 L-14.011100196159589,13.854716329076169 L-13.997268474221803,13.806003716293098 L-13.98037543156968,13.757398493163732 L-13.960428496861606,13.708922033670607 L-13.937436441694686,13.660595655172884 L-13.911409376747432,13.612440609032115 L-13.882358747333665,13.564478071267024 L-13.850297328369443,13.516729133241432 L-13.815239218755357,13.469214792389396 L-13.777199835176578,13.421955942981656 L-13.736195905323417,13.374973366937455 L-13.692245460535396,13.328287724685758 L-13.645367827872011,13.281919546079902 L-13.59558362161373,13.235889221369652 L-13.542914734196936,13.190216992234673 L-13.48738432658679,13.144922942883307 L-13.429016818092293,13.100026991220613 L-13.303874402426889,13.011508168589081 L-13.167707586817762,12.924816210634432 L-13.020755860520485,12.840103590574035 L-12.863277681217113,12.75751930037943 L-12.695550020442617,12.677208588730275 L-12.51786787644924,12.599312705551979 L-12.330543755365603,12.523968653586294 L-12.133907121563105,12.451308947431853 L-11.928303818196241,12.381461380478395 L-11.714095458936054,12.314548800144648 L-11.491658791966508,12.250688891815116 L-11.261385037362377,12.189993971855863 L-11.023679199014085,12.13257079007324 L-10.778959352309656,12.078520341963074 L-10.5276559088266,12.027937691080488 L-10.270210859327015,11.980911801842772 L-10.007076996387266,11.93752538305938 L-9.73871711802955,11.897854742464247 L-9.465603213755898,11.861969652506275 L-9.18821563441632,11.82993322763403 L-8.907042247371042,11.801801813290487 L-8.622577578432818,11.777624886813058 " />
			<path d="M-2.348308781032978,7.61307587065203 L-2.3483087810329764,7.836907371865669 L-2.3483087810329772,8.050528773722652 L-2.348308781032976,8.25256083126989 L-2.3483087810329764,8.441699126067512 L-2.3483087810329764,8.616722488156569 L-2.348308781032976,8.776500880533582 L-2.348308781032976,8.92000269522584 L-2.3483087810329746,9.046301413860402 L-2.3483087810329772,9.154581589722921 L-2.3483087810329772,9.244144112683143 L-2.3483087810329764,9.314410722994129 L-2.3483087810329772,9.3649277448219 L-2.3483087810329755,9.395369015400025 L-2.3483087810329777,9.405537990896995 " />
			<path d="M-1.9983087810329758,9.755537990897 L-1.9983087810329754,9.744239129233696 L-1.9983087810329758,9.710415495258003 L-1.9983087810329758,9.65428547100492 L-1.9983087810329758,9.57621145954827 L-1.9983087810329758,9.476697545148022 L-1.998308781032975,9.35638623863411 L-1.9983087810329767,9.216054329040151 L-1.9983087810329763,9.056607868270975 L-1.9983087810329754,8.879076321185405 L-1.9983087810329758,8.684605918864227 L-1.998308781032978,8.474452257977983 L-1.998308781032977,8.249972194036607 L-1.998308781032975,8.012615080862183 L-1.9983087810329756,7.763913412847048 " />
			<path d="M-2.3483087810329755,3.1055379908969964 L-2.348308781032975,3.1381523414272703 L-2.3483087810329746,3.235320030566976 L-2.3483087810329746,3.395028956047019 L-2.3483087810329755,3.6139719414366573 L-2.3483087810329755,3.8876152195792946 L-2.3483087810329764,4.2102923156853445 L-2.3483087810329764,4.575321385995763 L-2.3483087810329764,4.975143582223032 L-2.348308781032977,5.401479576584583 L-2.3483087810329772,5.8455010061827775 L-2.3483087810329746,6.2980132865427825 L-2.3483087810329764,6.749646008692582 L-2.3483087810329764,7.1910469771330465 L-2.348308781032978,7.6130758706520165 " />
			<path d="M-1.9983087810329756,7.763913412847034 L-1.998308781032977,7.2949924200481595 L-1.9983087810329767,6.804546899558757 L-1.9983087810329756,6.302732763836757 L-1.9983087810329763,5.799941341214533 L-1.9983087810329772,5.30658419721654 L-1.9983087810329763,4.8328775368148165 L-1.998308781032975,4.388630652117853 L-1.9983087810329758,3.9830427962173878 L-1.9983087810329745,3.6245126894328856 L-1.9983087810329758,3.320464602607733 L-1.9983087810329756,3.077194618841466 L-1.9983087810329736,2.899740257196974 L-1.9983087810329747,2.7917761581528566 L-1.9983087810329752,2.7555379908969986 " />
			<path d="M1.30169121896702,7.763913412847035 L1.3016912189670224,8.01261508086219 L1.30169121896702,8.249972194036616 L1.3016912189670227,8.47445225797799 L1.30169121896702,8.684605918864234 L1.30169121896702,8.87907632118541 L1.3016912189670227,9.056607868270982 L1.301691218967024,9.216054329040158 L1.3016912189670227,9.356386238634116 L1.3016912189670236,9.476697545148026 L1.3016912189670227,9.576211459548276 L1.301691218967021,9.654285471004922 L1.30169121896702,9.710415495258005 L1.3016912189670213,9.744239129233694 L1.301691218967021,9.755537990896997 " />
			<path d="M1.3016912189670222,2.755537990896997 L1.3016912189670236,2.7917761581528575 L1.3016912189670227,2.8997402571969744 L1.3016912189670227,3.077194618841468 L1.3016912189670216,3.320464602607733 L1.301691218967021,3.6245126894328865 L1.3016912189670222,3.983042796217388 L1.301691218967024,4.388630652117854 L1.3016912189670238,4.8328775368148165 L1.301691218967022,5.306584197216538 L1.3016912189670218,5.799941341214529 L1.3016912189670204,6.3027327638367545 L1.301691218967022,6.804546899558754 L1.3016912189670213,7.294992420048158 L1.30169121896702,7.763913412847021 " />
			<path d="M1.6516912189670236,9.405537990896997 L1.6516912189670245,9.395369015400025 L1.6516912189670245,9.364927744821903 L1.651691218967025,9.314410722994129 L1.6516912189670232,9.24414411268314 L1.6516912189670223,9.154581589722918 L1.6516912189670223,9.046301413860396 L1.6516912189670219,8.920002695225836 L1.6516912189670245,8.77650088053358 L1.6516912189670245,8.616722488156565 L1.6516912189670232,8.441699126067505 L1.6516912189670248,8.252560831269884 L1.651691218967022,8.050528773722645 L1.6516912189670232,7.836907371865664 L1.6516912189670243,7.613075870652045 " />
			<path d="M1.6516912189670243,7.6130758706520325 L1.651691218967023,7.191046977133044 L1.6516912189670256,6.749646008692581 L1.6516912189670232,6.298013286542782 L1.6516912189670245,5.845501006182783 L1.6516912189670243,5.4014795765845856 L1.6516912189670243,4.975143582223037 L1.6516912189670243,4.575321385995769 L1.6516912189670243,4.210292315685349 L1.6516912189670248,3.8876152195792986 L1.6516912189670254,3.6139719414366605 L1.6516912189670256,3.3950289560470197 L1.6516912189670259,3.2353200305669767 L1.651691218967024,3.138152341427272 L1.6516912189670245,3.1055379908969982 " />
			<path d="M-15.38644310328767,13.963203268194372 L-15.386449574709737,13.963200001276945 " />
			<path d="M-15.386449574709737,13.963200001276945 L-15.386653715184721,13.959270223759784 L-15.38682884653152,13.947929456390428 L-15.387090659131603,13.90312677282395 L-15.387254045676093,13.726690825980484 " />
			<path d="M-7.035712472802615,6.831260325680304 L-7.035712472802614,-0.711212006976202 " />
			<path d="M4.27799602617861,3.8517849611699977 L4.27799602617861,3.0600241593508746 " />
			<path d="M-3.3391980673150727,16.03167532162153 L-3.3391980673150727,16.489402983647025 " />
			<path d="M-2.7036160442373807,15.891438620422246 L-2.7036160442373807,16.602222411868745 " />
			<path d="M6.277173785762363,13.60862580186883 L6.277173785762363,13.505480648807225 " />
			<path d="M-9.851880660118654,8.825303572237079 L-9.851880660118654,9.386623527360545 " />
			<path d="M-10.938046762342582,7.746267288041243 L-10.938046762342582,8.812587884488643 " />
			<path d="M-11.231676750169305,7.7189001617054025 L-11.231676750169305,8.508898501822387 " />
			<path d="M-11.70757117572315,7.765430401957903 L-11.70757117572315,8.393357492692804 " />
			<path d="M-13.305776946119881,7.992113827485669 L-13.305776946119881,8.393357492692331 " />
			<path d="M-13.556579525049209,8.03504844747803 L-13.556579525049209,8.415841379373948 " />
			<path d="M-18.281969311722023,9.990971308264886 L-18.281969311722023,9.385271057427431 " />
			<path d="M3.0203048507656285,13.46537175552472 L3.0203048507656285,13.109063698963748 " />
			<path d="M3.931372998765814,13.563248418134098 L3.931372998765814,13.206129350437418 " />
			<path d="M-17.500008950890567,11.170807452474584 L-17.500008950890567,10.819953858911603 " />
			<path d="M-20.010140446709503,10.411367466151916 L-20.010140446709503,10.932422190515547 " />
			<path d="M-1.4499260351790084,9.810735690188258 L-1.4499260351790084,10.602496492007381 " />
			<path d="M4.277996026178609,10.602496492007381 L4.277996026178609,9.810735690188258 " />
			<path d="M-0.03571247280615094,14.0502117421767 L-0.03571247280615079,12.164593659012574 " />
			<path d="M-14.035712472806146,14.050211742176701 L-14.035712472806146,12.164593659012576 " />
			<path d="M-2.3483087810331336,9.405537990897153 L-1.9983087810329772,9.755537990896997 " />
			<path d="M-2.3483087810331322,3.105537990896841 L-1.9983087810329754,2.755537990896998 " />
			<path d="M1.301691218967021,9.755537990896997 L-1.9983087810329772,9.755537990896995 " />
			<path d="M1.3016912189670247,2.7555379908969977 L-1.998308781032974,2.7555379908969964 " />
			<path d="M1.6516912189670245,9.405537990896997 L1.301691218966866,9.75553799089684 " />
			<path d="M1.6516912189670259,3.1055379908969973 L1.3016912189668686,2.7555379908971536 " />
			<path d="M-15.386443103287672,13.963203268194375 L-14.035712472806146,13.96840326404881 " />
			<path d="M-15.621144289131788,13.726690826017766 L-15.386449574709584,13.96320000127679 " />

       </g>
    </g>
    
</svg>
