<?xml version="1.0" encoding="UTF-8" standalone="no"?>
<svg
   xmlns:svg="http://www.w3.org/2000/svg"
   xmlns="http://www.w3.org/2000/svg"
   width="1024.0"
   height="320.0"

>
    <g transform="scale(19.804524447513433, -19.804524447513433)   translate(26.210102894128696,-30.236289406337914)" stroke-width="0.082"  fill="none">
       <!-- hidden lines -->
       <g  stroke="rgb(32,64,32)" fill="none" stroke-dasharray="0.082,0.082" >

       </g>

       <!-- solid lines -->
       <g  stroke="rgb(64,192,64)" fill="none">
			<path d="M-8.564916284514677,26.656098215157833 L-8.561948278405847,26.58753752953424 L-8.564681027097516,26.52085945529551 L-8.573080069262698,26.456904836287368 L-8.587039488781357,26.396480172223747 L-8.606383250395634,26.34034744832225 L-8.630867419602437,26.289214526289683 L-8.660183238789454,26.24372621783208 L-8.693961020822984,26.204456153256796 " />
			<path d="M-9.05989103134526,26.49110663288097 L-9.05692302523643,26.42254594725738 L-9.059655773928098,26.35586787301865 L-9.06805481609328,26.291913254010506 L-9.08201423561194,26.231488589946885 L-9.101357997226216,26.17535586604539 L-9.125842166433019,26.12422294401282 L-9.155157985620036,26.078734635555218 L-9.188935767653566,26.039464570979934 " />
			<path d="M-8.011885730884924,18.320621318505324 L-7.9823608610447705,18.360239798545596 L-7.95688337331747,18.40505830349732 L-7.935733491236192,18.454583880525295 L-7.919143839569376,18.50827180432828 L-7.907296885711527,18.56553156850087 L-7.9003229327483675,18.625733380435697 L-7.898298686270357,18.688215088329407 L-7.901246410697993,18.752289464103153 " />
			<path d="M-8.506860477715506,18.155629736228462 L-8.477335607875354,18.195248216268734 L-8.451858120148053,18.240066721220458 L-8.430708238066774,18.28959229824843 L-8.414118586399958,18.343280222051416 L-8.402271632542108,18.400539986224008 L-8.395297679578949,18.460741798158836 L-8.393273433100939,18.523223506052545 L-8.396221157528576,18.58729788182629 " />
			<path d="M-10.410742785802793,24.813645288697757 L-9.188935767654012,26.039464570980662 " />
			<path d="M-9.247525418203141,26.976391788552615 L-9.210340231448317,26.924781658923045 L-9.176439823022292,26.869289517036208 L-9.14619705905404,26.810525713654666 L-9.119944575722714,26.74913658411502 L-9.097971120636094,26.685797339370634 L-9.080518376933668,26.621204639435256 L-9.067778305045607,26.556068930911255 L-9.059891031345261,26.491106632880975 " />
			<path d="M-9.247525418203997,26.97639178855129 L-9.368708117211167,27.127291212150585 L-9.492619368933102,27.273583081684965 L-9.619117945125897,27.415100660530065 L-9.74805966863433,27.551682653574545 L-9.879297577718257,27.683173391056716 L-10.012682093552701,27.809423005989633 L-10.148061190710802,27.930287604972463 L-10.28528057043529,28.045629432193476 L-10.424183836500966,28.155317026437633 L-10.564612673467812,28.25922537091995 L-10.706407027121518,28.357236035773777 L-10.84940528689578,28.449237313031606 L-10.99344447006846,28.53512434394458 L-11.13836040752166,28.614799238495607 L-11.28398793085399,28.688171186969782 L-11.430161060631786,28.75515656345509 L-11.576713195564714,28.815679021155276 L-11.723477302390101,28.86966957940637 L-11.87028610624963,28.917066702297603 L-12.016972281341392,28.957816368807155 L-12.16336864163002,28.991872134372805 L-12.309308331397487,29.019195183827257 L-12.454625015417445,29.039754375637845 L-12.599153068536335,29.05352627740021 L-12.742727764445176,29.060495192545442 L-12.885185463426902,29.060653178230304 L-13.026363798865262,29.054000054390105 L-13.166101862302671,29.04054340394394 L-13.304240386836154,29.02029856415202 L-13.440621928642294,28.993288609135007 L-13.575091046424332,28.959544323575166 L-13.707494478576841,28.919104167629484 " />
			<path d="M-13.707494478576876,28.919104167629474 L-13.802364340762699,28.88552842147146 L-13.896005581633307,28.84845847431452 L-13.988361795206677,28.807916655708688 L-14.07937734955317,28.763927386529538 L-14.168997420306136,28.716517164267955 L-14.257168023686068,28.665714547069047 L-14.343836049018401,28.611550136529786 L-14.428949290725399,28.554056559265742 L-14.512456479772847,28.493268447258032 L-14.594307314552598,28.42922241699232 L-14.674452491182382,28.3619570474024 L-14.752843733204617,28.2915128566317 L-14.829433820666347,28.217932277626662 L-14.904176618562772,28.141259632576723 L-14.977027104627252,28.06154110621629 L-15.047941396451037,27.978824718004766 L-15.116876777916392,27.893160293201454 L-15.183791724927175,27.80459943285265 L-15.248645930421425,27.713195482709132 L-15.311400328650805,27.619003501092642 L-15.372017118712357,27.52208022573085 L-15.430459787318359,27.42248403958063 L-15.486693130790552,27.32027493566039 L-15.540683276265531,27.215514480912475 L-15.592397702098483,27.108265779117588 L-15.641805257453012,26.998593432883396 L-15.68887618106524,26.88656350473036 L-15.73358211917088,26.772243477298137 L-15.775896142584475,26.655702212696543 L-15.815792762920552,26.537009911025617 L-15.853247947946844,26.416238068089694 L-15.888239136060436,26.293459432331012 L-15.92074524987801,26.168747961008762 L-15.950746708932083,26.04217877565 L-15.97822544146555,25.91382811679927 L-16.00316489531743,25.783773298094115 L-16.02555004789327,25.652092659694265 L-16.045367415214184,25.518865521092433 L-16.062605060039125,25.38417213333523 L-16.077252599055406,25.24809363068293 L-16.089301209133232,25.110711981737232 L-16.098743632640414,24.972109940066424 L-16.105574181814113,24.83237099435775 L-16.109788742186907,24.691579318126927 L-16.111384775065233,24.549819719015172 L-16.110361319058555,24.407177587704265 L-16.106718990658507,24.263738846480365 L-16.100459983867516,24.119589897477677 L-16.091588068877243,23.974817570632997 L-16.080108589797526,23.82950907138263 L-16.06602846143732,23.68375192813309 L-16.049356165139464,23.537633939537265 L-16.03010174367183,23.391243121607776 L-16.00827679517793,23.244667654699438 L-15.983894466190662,23.097995830392712 L-15.956969443713291,22.95131599831014 L-15.92751794637256,22.804716512897862 L-15.895557714649215,22.658285680204184 L-15.861108000191766,22.512111704687314 L-15.824189554220048,22.36628263608431 L-15.784824615025448,22.2208863163732 L-15.743036894575383,22.076010326860253 L-15.698851564230107,21.93174193542429 L-15.65229523958043,21.788168043949778 L-15.603395964415466,21.64537513598036 L-15.552183193830109,21.50344922462443 L-15.498687776482392,21.36247580074403 L-15.442941936011405,21.22253978145838 L-15.384979251626977,21.083725458992948 L-15.324834637882814,20.946116449904984 L-15.262544323645287,20.809795644716033 L-15.198145830270501,20.67484515798177 L-15.131677949002857,20.54134627882929 L-15.063180717608635,20.40937942199155 L-14.99269539625875,20.279024079368543 L-14.920264442675165,20.15035877214437 L-14.845931486555955,20.023461003488993 L-14.769741303294396,19.89840721187324 L-14.691739787007949,19.775272725025115 L-14.61197392289336,19.654131714555206 L-14.530491758924537,19.535057151278462 L-14.447342376910239,19.418120761259313 L-14.362575862929035,19.30339298260658 L-14.276243277159326,19.190942923044172 L-14.188396623122593,19.08083831828319 L-14.09908881635843,18.97314549122047 L-14.0083736525502,18.867929311988135 L-13.91630577512052,18.76525315887827 L-13.822940642316116,18.665178880166202 L-13.728334493801842,18.567766756855406 L-13.63254431678401,18.47307546636649 L-13.53562781168343,18.38116204719211 L-13.437643357378832,18.29208186453911 L-13.33864997604162,18.20588857697861 L-13.238707297583105,18.122634104124046 L-13.137875523735694,18.042368595356788 L-13.036215391789613,17.965140399617994 L-12.933788138007026,17.890996036285035 L-12.83065546073561,17.819980167149936 L-12.726879483243774,17.75213556951682 L-12.622522716299926,17.68750311043442 L-12.517648020518322,17.626121722079333 L-12.412318568494186,17.568028378304696 L-12.306597806750892,17.513258072368558 L-12.200549417522161,17.461843795855216 L-12.09423728039226,17.413816518802335 L-11.98772543381733,17.369205171045763 L-11.881078036551012,17.328036624793263 L-11.774359328997617,17.2903356784377 L-11.667633594516104,17.25612504161943 L-11.560965120698196,17.225425321546858 L-11.454418160643923,17.19825501058342 L-11.348056894257981,17.174630475108476 L-11.241945389590136,17.154565945658817 L-11.136147564243034,17.13807350835672 L-11.030727146870626,17.125163097629727 L-10.925747638790419,17.115842490226505 L-10.82127227573264,17.11011730053244 L-10.717363989749412,17.107990977187722 L-10.614085371306828,17.109464801010024 L-10.511498631582803,17.114537884222987 L-10.40966556499338,17.123207170990977 L-10.308647511970092,17.135467439259813 L-10.208505322010767,17.151311303902325 L-10.10929931702608,17.1707292211669 L-10.011089255003888,17.193709494426255 L-9.913934294013236,17.220238281223068 L-9.81789295656979,17.250299601608145 " />
			<path d="M-9.817892956569771,17.250299601608152 L-9.725487065518205,17.28295331003529 L-9.634245011951045,17.318921504236055 L-9.544218921617036,17.358183635910844 L-9.455460225596283,17.40071727496376 L-9.36801963091813,17.446498122316736 L-9.28194709159272,17.49550002379137 L-9.1972917800727,17.54769498505057 L-9.114102059161473,17.603053187591463 L-9.032425454383961,17.66154300578043 L-8.952308626835716,17.723131024920534 L-8.873797346525844,17.787782060341048 L-8.796936466229047,17.85545917749812 L-8.72176989586162,17.92612371307514 L-8.64834057739613,17.999735297070742 L-8.576690460329061,18.07625187586182 L-8.50686047771546,18.155629736228356 " />
			<path d="M-8.396221157528576,18.587297881826295 L-8.404852490397168,18.65687659431765 L-8.41903830460361,18.726595911333526 L-8.438599709939867,18.795576637436593 L-8.463290027306725,18.862948891190136 L-8.49279789946054,18.92786307479777 L-8.526751217383707,18.989500587956336 L-8.56472181276538,19.0470841508149 L-8.606230857417893,19.099887605862218 " />
			<path d="M-10.074501890332247,20.8092692624442 L-8.60623085741616,19.09988760586535 " />
			<path d="M-11.519961297199718,20.193941426776803 L-11.428294150509705,20.180171913234346 L-11.337263207549789,20.171928342258756 L-11.247041657017478,20.169226397454686 L-11.157801147720475,20.172071219341237 L-11.069711462010444,20.180457395572 L-10.982940192767733,20.194368971232183 L-10.89765242455164,20.213779479193242 L-10.81401041952282,20.238651990467268 " />
			<path d="M-10.81401041952281,20.23865199046727 L-10.760244501455844,20.257862186458492 L-10.707295322826894,20.279375533002693 L-10.655206023659115,20.303174502230846 L-10.604019043394075,20.329239704076663 L-10.553776086314464,20.357549902074528 L-10.504518087565794,20.38808203066179 L-10.456285179804734,20.420811213971273 L-10.409116660501263,20.455710786098763 L-10.363050959921305,20.49275231282887 L-10.31812560981589,20.531905614801644 L-10.274377212842401,20.573138792101027 L-10.231841412742767,20.616418250245104 L-10.190552865302948,20.661708727557023 L-10.15054521011734,20.708973323894224 L-10.111851043181117,20.7581735307126 L-10.074501890332854,20.809269262441102 " />
			<path d="M-11.519961297204437,20.19394142677767 L-11.44225680122007,19.268539356285345 " />
			<path d="M-11.442256801215468,19.268539356285213 L-11.440521148490674,19.20758664855282 L-11.445694469251908,19.149287633027512 L-11.457656325610897,19.09499954438355 L-11.47612823865899,19.04598624060623 L-11.48767674962926,19.02381975926684 L-11.500680171616617,19.003388779649743 L-11.51506271239054,18.98481238652496 L-11.530740541337302,18.968198854950497 L-11.54762227807821,18.95364501917629 L-11.565609525092682,18.94123570823249 L-11.584597441241717,18.93104325149183 L-11.60447535284886,18.923127057087918 " />
			<path d="M-11.604475352848862,18.923127057087918 L-11.635458110919316,18.915655883586883 L-11.6677549163427,18.913422660323636 L-11.700949012548682,18.91645620471389 L-11.73461206436576,18.92471737203297 " />
			<path d="M-11.734612064365763,18.924717372033317 L-11.831707124051967,18.95793360072726 L-11.92873504674897,18.995164394298392 L-12.025601442642817,19.036373534227547 L-12.122212079054568,19.081520931817124 L-12.218472972110888,19.13056266718983 L-12.314290478172554,19.1834510320144 L-12.40957138493202,19.240134575916777 L-12.50422300209135,19.300558156531604 L-12.598153251532349,19.364662993145306 L-12.691270756891146,19.4323867238786 L-12.783484932450119,19.503663466352826 L-12.874706071260652,19.578423881781006 L-12.964845432411039,19.65659524242141 L-13.05381532735459,19.738101502327847 L-13.141529205214011,19.822863371328012 L-13.227901736979028,19.91079839215782 L-13.312848898515371,20.001821020676715 L-13.396288052304369,20.095842709085957 L-13.478138027833614,20.192771992068852 L-13.558319200560522,20.29251457576923 L-13.636753569371946,20.3949734295215 L-13.713364832464505,20.500048880243167 L-13.788078461571807,20.607638709397857 L-13.860821774466345,20.717638252434632 L-13.931524005665569,20.82994050060679 L-14.000116375273302,20.944436205071135 L-14.066532155889568,21.06101398316644 L-14.130706737523742,21.179560426767704 L-14.192577690447834,21.299960212610795 L-14.252084825928808,21.422096214480185 L-14.309170254780842,21.54584961715059 L-14.363778443680538,21.6711000319717 " />
			<path d="M-14.36377844368035,21.67110003197181 L-14.37948369051411,21.71213112428931 L-14.392294967974156,21.754191325593062 L-14.402071756305698,21.796819301001214 L-14.4087068193722,21.83954748803454 L-14.412127380868725,21.881907225048405 L-14.412295922564617,21.923433891720865 L-14.409210595820047,21.963672005213777 L-14.402905241862712,22.002180216109906 L-14.39344902060228,22.03853614932845 L-14.380945652053937,22.072341036921664 L-14.365532278691404,22.10322409193797 L-14.347377961207659,22.130846575377195 L-14.326681824182511,22.154905511629636 L-14.303670871996193,22.17513701164652 L-14.27859749894495,22.19131916739173 L-14.251736720868836,22.203274485827254 " />
			<path d="M-14.251736720869648,22.203274485829628 L-13.648155104081157,22.41701662437018 " />
			<path d="M-13.819792844536444,24.461092946894503 L-13.841085940256843,24.343633581217752 L-13.85813898608497,24.223605916282427 L-13.870917192742688,24.10125481601856 L-13.879394491890647,23.976829884309293 L-13.883553589309326,23.850584955783408 L-13.883386000180336,23.722777577976803 L-13.87889206639596,23.593668485919466 L-13.870080955861683,23.463521070219716 L-13.85697064379309,23.33260083973094 L-13.839587876045304,23.20117487989693 L-13.817968114549767,23.069511307880916 L-13.792155464969698,22.93787872558983 L-13.762202586721767,22.80654567170961 L-13.72817058554762,22.675780073869547 L-13.690128888854332,22.545848702053185 L-13.648155104078176,22.41701662437089 " />
			<path d="M-13.819792844538503,24.461092946895853 L-14.478319837369142,24.901708887722396 " />
			<path d="M-14.47831983736915,24.901708887722375 L-14.508042419643202,24.92383550362852 L-14.536643531644282,24.949666063969538 L-14.563809463732,24.97891724774044 L-14.589242247953718,25.011268215026288 L-14.612662926288785,25.04636412611619 L-14.633814610383418,25.083820033542132 L-14.652465299215743,25.123225104352983 L-14.668410423785566,25.16414712631192 L-14.68147509091759,25.20613724859131 L-14.691516001567093,25.24873490496703 L-14.698423022587189,25.291472865512397 L-14.70212039471788,25.33388236138258 L-14.702567563547102,25.375498226478516 L-14.699759624329456,25.415863999594308 L-14.69372737578361,25.454536931085546 L-14.684536982278347,25.491092839143125 " />
			<path d="M-14.684536982276743,25.49109283914181 L-14.630623330541662,25.65524428955657 L-14.6012654331989,25.735197480744766 L-14.570328303237998,25.813676075016275 L-14.537829152457578,25.89063641099196 L-14.503786061682824,25.966035671972065 L-14.46821797070627,26.039831909757197 L-14.43114466775068,26.111984067986103 L-14.392586778459911,26.18245200497727 L-14.352565754423907,26.251196516061672 L-14.311103861244138,26.31817935539418 L-14.268224166146195,26.38336325723155 L-14.22395052514639,26.446711956665137 L-14.178307569779525,26.508190209796776 L-14.131320693395184,26.56776381334666 L-14.083016037030216,26.625399623682238 L-14.03342047486522,26.68106557525761 L-13.982561599273174,26.734730698453095 L-13.930467705468464,26.78636513680513 L-13.877167775764926,26.835940163616833 L-13.822691463451596,26.88342819794002 L-13.767069076295174,26.928802819919824 L-13.710331559678373,26.97203878549329 L-13.652510479383524,27.013112040433885 L-13.593638004031037,27.051999733733968 L-13.533746887182458,27.08868023031793 L-13.472870449118101,27.123133123078794 L-13.411042558299398,27.155339244231676 L-13.348297612526252,27.185280675977715 L-13.284670519799914,27.212940760472627 L-13.220196678901987,27.238304109094233 L-13.154911959700415,27.26135661100389 " />
			<path d="M-13.154911959700403,27.261356611003894 L-13.06959405221136,27.28764965349812 L-12.983067304974334,27.310055107790678 L-12.89541175237952,27.32855224957458 L-12.806708472924873,27.343123969603155 L-12.717039514221167,27.3537567895155 L-12.626487817100667,27.360440874303542 L-12.535137138899588,27.36317004140909 L-12.44307197598533,27.361941766442495 " />
			<path d="M-12.44307197598522,27.3619417664419 L-12.412406256708007,27.358651943572504 L-12.381364962514839,27.350922612570216 L-12.350288568043146,27.33883855215444 L-12.319517932925729,27.322532305641932 L-12.28939056309162,27.3021827271531 L-12.260236908851851,27.278013019860936 L-12.232376740374356,27.250288287799954 L-12.2061156403034,27.21931262808793 L-12.18174165199406,27.185425795454293 L-12.159522120125345,27.14899947566004 L-12.139700758345596,27.110433208683997 L-12.122494976113424,27.070150006391714 L-12.108093494054678,27.02859171275431 L-12.096654273991177,26.986214157508464 L-12.08830278634562,26.94348215641436 L-12.083130633926526,26.90086441295094 " />
			<path d="M-12.0831306339265,26.900864412951325 L-12.005426137942214,25.97546234245996 " />
			<path d="M-10.410742785803741,24.813645288702443 L-10.49473741257063,24.929613059972606 L-10.581946473269566,25.040903741771885 L-10.672148881603817,25.147235197766012 L-10.765115962751583,25.248337863902318 L-10.860612033086362,25.343955431789595 L-10.958394997665563,25.43384549847319 L-11.058216963972644,25.517780180957942 L-11.159824870356825,25.595546693921214 L-11.262961127577245,25.666947889151313 L-11.367364271825158,25.731802755343793 L-11.472769627568637,25.78994687698865 L-11.57890997853944,25.841232851185 L-11.685516245160946,25.885530661326555 L-11.792318166699843,25.922728006710617 L-11.899044986412193,25.95273058723496 L-12.005426137946916,25.975462342460823 " />
			<path d="M-8.752550671372559,27.141383370829477 L-8.715365484617735,27.089773241199907 L-8.68146507619171,27.03428109931307 L-8.651222312223458,26.975517295931528 L-8.624969828892132,26.914128166391883 L-8.602996373805512,26.850788921647496 L-8.585543630103086,26.786196221712117 L-8.572803558215025,26.721060513188117 L-8.564916284514679,26.656098215157837 " />
			<path d="M-9.91576803897221,24.97863687097462 L-8.69396102082343,26.204456153257524 " />
			<path d="M-12.9019143645122,27.32732173681981 L-13.010727737214308,27.269889733383962 L-13.11652332966759,27.205497312351376 L-13.219117971336434,27.134255960353727 L-13.318334033691823,27.056289022005856 L-13.413999737750707,26.971731486351494 L-13.505949451487735,26.88072975314829 L-13.594023976604344,26.783441379396734 L-13.678070824158748,26.68003480655185 L-13.757944478579597,26.57068906888996 L-13.833506649606193,26.455593483535427 L-13.90462651171908,26.334947322684066 L-13.971180930646472,26.2089594685907 L-14.033054676554315,26.077848051918224 L-14.090140623550926,25.941840074074346 L-14.142339935160752,25.80117101418982 L-14.18956223544616,25.656084421418672 " />
			<path d="M-14.189562235447765,25.656084421419987 L-14.198752628953027,25.619528513362404 L-14.204784877498874,25.580855581871166 L-14.20759281671652,25.540489808755375 L-14.207145647887298,25.49887394365944 L-14.203448275756607,25.456464447789255 L-14.19654125473651,25.41372648724389 L-14.186500344087008,25.37112883086817 L-14.173435676954984,25.32913870858878 L-14.15749055238516,25.28821668662984 L-14.138839863552835,25.24881161581899 L-14.117688179458202,25.211355708393047 L-14.094267501123136,25.176259797303146 L-14.068834716901419,25.1439088300173 L-14.0416687848137,25.114657646246396 L-14.01306767281262,25.08882708590538 L-13.98334509053857,25.066700469999233 " />
			<path d="M-13.983345090538656,25.0667004699988 L-13.324818097708016,24.626084529172257 " />
			<path d="M-13.15318035724759,22.582008206647743 L-13.19515414202375,22.71084028433004 L-13.233195838717037,22.840771656146405 L-13.267227839891184,22.971537253986465 L-13.297180718139115,23.102870307866684 L-13.322993367719185,23.234502890157774 L-13.344613129214721,23.366166462173783 L-13.361995896962508,23.497592422007795 L-13.3751062090311,23.628512652496575 L-13.383917319565377,23.758660068196324 L-13.388411253349753,23.88776916025366 L-13.388578842478744,24.015576538060266 L-13.384419745060065,24.14182146658615 L-13.375942445912106,24.266246398295415 L-13.363164239254388,24.388597498559285 L-13.34611119342626,24.508625163494607 L-13.324818097705865,24.626084529171347 " />
			<path d="M-13.153180357250575,22.582008206647043 L-13.756761974039065,22.36826606810649 " />
			<path d="M-13.756761974038252,22.368266068104116 L-13.783622752114368,22.35631074966859 L-13.80869612516561,22.34012859392338 L-13.831707077351929,22.319897093906498 L-13.852403214377077,22.295838157654057 L-13.870557531860822,22.268215674214833 L-13.885970905223354,22.237332619198526 L-13.898474273771697,22.203527731605313 L-13.90793049503213,22.167171798386768 L-13.914235848989465,22.12866358749064 L-13.917321175734035,22.088425473997727 L-13.917152634038143,22.046898807325267 L-13.913732072541618,22.004539070311402 L-13.907097009475116,21.961810883278076 L-13.897320221143573,21.919182907869924 L-13.884508943683528,21.877122706566173 L-13.868803696849767,21.836091614248677 " />
			<path d="M-13.86880369684996,21.836091614248566 L-13.817859729061572,21.719025169306143 L-13.764750190467584,21.603258562644218 L-13.709520181506432,21.48889010286902 L-13.652216603312738,21.376016911285237 L-13.592888117889007,21.264734839420917 L-13.531585106782055,21.155138387630693 L-13.468359628299133,21.04732062484639 L-13.403265373300217,20.94137310954322 L-13.336357619603907,20.837385811988643 L-13.26769318504569,20.7354470378399 L-13.197330379228427,20.635643353155178 L-13.125328954006044,20.538059510881986 L-13.051750052742458,20.44277837888526 L-12.976656158388836,20.34988086957625 L-12.900111040423303,20.259445871201972 L-12.822179700698104,20.171550180853586 L-12.74292831824026,20.086268439250563 L-12.66242419305256,20.003673067356047 L-12.580735688962637,19.923834204877213 L-12.497932175568632,19.846819650702884 L-12.414083969330775,19.772694805328918 L-12.329262273858879,19.701522615320364 L-12.243539119446488,19.63336351985743 L-12.156987301902989,19.568275399410748 L-12.06968032073567,19.506313526589476 L-11.981692316734181,19.447530519203987 L-11.893098009010432,19.391976295583 L-11.80397263154738,19.339698032183115 L-11.714391869310587,19.290740123526714 L-11.624431793976804,19.245144144502305 L-11.534168799334173,19.202948815059244 L-11.443679536408885,19.164189967326916 " />
			<path d="M-10.574628064587436,20.345462837045424 L-10.629552924068978,20.339567235141814 L-10.684952333545525,20.335835647441005 L-10.740785097172159,20.334270848808462 L-10.797009696855218,20.334874002852292 L-10.853584323125773,20.33764466105795 L-10.910466906229791,20.34258076312179 L-10.967615147411852,20.349678638483113 L-11.024986550369135,20.35893300905366 " />
			<path d="M-9.579527143501664,20.97426084472106 L-8.111256110585577,19.26487918814221 " />
			<path d="M-7.901246410697994,18.752289464103157 L-7.909877743566586,18.821868176594513 L-7.924063557773028,18.891587493610388 L-7.943624963109285,18.960568219713455 L-7.968315280476143,19.027940473466998 L-7.997823152629957,19.092854657074632 L-8.031776470553124,19.154492170233198 L-8.069747065934799,19.212075733091762 L-8.11125611058731,19.264879188139076 " />
			<path d="M-8.752550671373415,27.141383370828148 L-8.87373337038061,27.292282794427475 L-8.997644622102566,27.438574663961877 L-9.124143198295382,27.580092242806995 L-9.253084921803843,27.716674235851503 L-9.3843228308878,27.8481649733337 L-9.517707346722274,27.974414588266633 L-9.653086443880406,28.095279187249485 L-9.79030582360492,28.210621014470505 L-9.92920908967062,28.320308608714672 L-10.069637926637496,28.424216953197 L-10.211432280291236,28.522227618050838 L-10.354430540065533,28.61422889530867 L-10.498469723238244,28.70011592622165 L-10.643385660691468,28.779790820772668 L-10.78901318402382,28.85316276924684 L-10.935186313801651,28.920148145732142 L-11.08173844873461,28.980670603432323 L-11.228502555560025,29.034661161683406 L-11.37531135941958,29.08205828457462 L-11.52199753451137,29.122807951084155 L-11.668393894800024,29.156863716649788 L-11.814333584567517,29.184186766104215 L-11.959650268587502,29.20474595791478 L-12.104178321706415,29.218517859677114 L-12.247753017615278,29.225486774822315 L-12.390210716597025,29.225644760507144 L-12.531389052035404,29.21899163666691 L-12.671127115472835,29.20553498622071 L-12.809265640006338,29.185290146428752 L-12.945647181812493,29.15828019141169 L-13.080116299594541,29.124535905851804 L-13.212519731747065,29.084095749906076 " />
			<path d="M-9.322918209738381,17.41529118388528 L-9.230512318686875,17.447944892312428 L-9.139270265119773,17.4839130865132 L-9.049244174785823,17.523175218187994 L-8.960485478765126,17.565708857240907 L-8.87304488408703,17.61148970459388 L-8.786972344761674,17.660491606068504 L-8.702317033241707,17.71268656732769 L-8.619127312330534,17.768044769868567 L-8.537450707553075,17.826534588057513 L-8.457333880004876,17.888122607197598 L-8.378822599695056,17.952773642618084 L-8.301961719398303,18.020450759775127 L-8.226795149030918,18.091115295352115 L-8.153365830565471,18.164726879347683 L-8.081715713498443,18.24124345813872 L-8.01188573088488,18.320621318505214 " />
			<path d="M-11.519961297199718,20.19394142677682 L-11.024986550369135,20.358933009053683 " />
			<path d="M-13.153180357250463,22.582008206646726 L-13.648155104081045,22.417016624369865 " />
			<path d="M-13.819792844538501,24.461092946895874 L-13.324818097707919,24.626084529172736 " />
			<path d="M-9.5795271435029,20.974260844718827 L-10.074501890333483,20.809269262441966 " />
			<path d="M-10.410742785804796,24.813645288701096 L-9.915768038974214,24.978636870977958 " />
			<path d="M-8.693961020824467,26.20445615325925 L-9.18893576765505,26.03946457098239 " />
			<path d="M-8.011885730886384,18.32062131850753 L-8.506860477716966,18.155629736230672 " />
			<path d="M-11.73461206436576,18.92471737203268 L-11.501320172602416,19.002481335953796 " />
			<path d="M-14.363778443678893,21.6711000319726 L-13.86880369684831,21.83609161424946 " />
			<path d="M-14.251736720868575,22.20327448582649 L-13.756761974037993,22.368266068103352 " />
			<path d="M-14.478319837369238,24.901708887721938 L-13.983345090538656,25.0667004699988 " />
			<path d="M-14.684536982275286,25.491092839140613 L-14.189562235444704,25.656084421417475 " />
			<path d="M-8.11125611058645,19.26487918814064 L-8.606230857417032,19.099887605863778 " />
			<path d="M-8.752550671372695,27.141383370829264 L-9.247525418203278,26.976391788552405 " />
			<path d="M-13.212519731747001,29.084095749906098 L-13.707494478577585,28.919104167629236 " />
			<path d="M-9.3229182097399,17.415291183884776 L-9.817892956570484,17.250299601607914 " />

       </g>
    </g>
    
</svg>
