<?xml version="1.0" encoding="UTF-8" standalone="no"?>
<svg
   xmlns:svg="http://www.w3.org/2000/svg"
   xmlns="http://www.w3.org/2000/svg"
   width="1024.0"
   height="320.0"

>
    <g transform="scale(16.12100564795582, -16.12100564795582)   translate(55.06722296234542,-48.15796907839822)" stroke-width="1.0"  fill="none">
       <!-- hidden lines -->
       <g  stroke="rgb(32,64,32)" fill="none" stroke-dasharray="1.0,1.0" >

       </g>

       <!-- solid lines -->
       <g  stroke="rgb(64,192,64)" fill="none">
			<path d="M-37.15287401236049,36.91345739429291 L-37.079910252386064,36.93596770126878 L-37.00277217892934,36.957444666627346 L-36.92161361153612,36.97780149204596 L-36.83661704324584,36.99695615687075 " />
			<path d="M-37.30504734487076,36.763640223944954 L-37.23283097736831,36.79162960568103 L-37.15486013247147,36.8185307404469 L-37.07127242642382,36.844204166108405 L-36.982255607883324,36.868515015760416 " />
			<path d="M-29.650284258206103,44.39982456944976 L-29.544906228067184,44.256104479164364 L-29.441932236171162,44.109160373404954 L-29.3414487461037,43.95911563589243 L-29.24354013026495,43.80609625383749 L-29.148288599025097,43.65023071215369 L-29.055774131695216,43.49164988557327 L-28.966074409371505,43.33048692875624 L-28.87926474970925,43.166877164485236 L-28.795418043681263,43.00095797003977 L-28.714604694373953,42.83286866184546 L-28.636892557872354,42.66275037849497 L-28.56234688628379,42.490745962238975 L-28.49103027294802,42.31699983904666 L-28.42300259987984,42.14165789733633 L-28.358320987488284,41.96486736547815 L-28.29703974661467,41.78677668817174 L-28.239210332929716,41.60753540180245 L-28.184881303728055,41.42729400888098 L-28.134098277156404,41.24620385167181 L-28.086903893909625,41.06441698511649 L-28.04333778142688,40.88208604915855 L-28.003436520617868,40.6993641405772 L-27.967233615147126,40.51640468443737 L-27.934759463302235,40.333361305264205 L-27.906041332469442,40.15038769805005 L-27.88110333623819,39.9676374992022 L-27.859966414153842,39.78526415753993 L-27.84264831413545,39.603420805448984 L-27.829163577573482,39.42226013030178 L-27.819523527119937,39.241934246251276 L-27.813736257181105,39.062594566506135 L-27.811806627121,38.884391676194525 " />
			<path d="M-30.450239979516542,33.953918541825594 L-30.37671147424836,33.97949266124314 L-30.30384374333617,34.00697543927304 L-30.23165859279917,34.036358651561684 L-30.160177624391096,34.06763350504137 L-30.089422229135792,34.10079064056168 L-30.019413580925836,34.135820135690196 L-29.950172630186167,34.17271150768191 L-29.881720097604557,34.2114537166162 L-29.747261983846816,34.29444371974013 L-29.616200176562238,34.38469081186254 L-29.488691547520368,34.4820869735586 L-29.364888715586197,34.586515628469826 L-29.244939864046078,34.69785178283771 L-29.128988563242785,34.815962175112524 L-29.01717359873189,34.940705435457986 L-28.909628805165212,35.07193225496104 L-28.806482906100143,35.20948556434412 L-28.70785935992661,35.35320072196601 L-28.61387621209604,35.502905710886374 L-28.524645953829292,35.658421344757876 L-28.440275387472525,35.819561482299676 L-28.360865498662342,35.986133250095435 L-28.286511335453056,36.15793727344927 L-28.21730189455085,36.33476791502322 L-28.153320014790996,36.51641352097068 L-28.094642277985578,36.70265667427121 L-28.041338917260447,36.893274454963375 L-27.99347373299112,37.088038706964305 L-27.951104016438187,37.286716311156475 L-27.914280481173737,37.4890694644149 L-27.883047202380748,37.69485596424076 L-27.857441564098202,37.90382949866074 L-27.83749421447503,38.1157399410452 L-27.823229029086406,38.33033364949211 L-27.814663082356383,38.547353770418624 L-27.811806627121,38.76654054599664 " />
			<path d="M-27.811806627121005,38.7665405459967 L-27.81381047372188,38.95159739362805 L-27.81982033096605,39.137834753363386 L-27.829831152590884,39.32509624833891 L-27.843834532866772,39.513224641761006 L-27.861818713655104,39.70206196893237 L-27.88376859428116,39.89144966988934 L-27.909665744213612,40.08122872253903 L-27.939488418539977,40.2712397761845 L-27.973211576225054,40.46132328532586 L-28.010806901136974,40.65131964362492 L-28.052242825823264,40.84106931792094 L-28.09748455801688,41.03041298218495 L-28.146494109850074,41.219191651300086 L-28.199230329751405,41.40724681455577 L-28.255648936999282,41.59442056874345 L-28.31570255890289,41.78055575074233 L-28.379340770579333,41.9654960694836 L-28.446510137293643,42.14908623718247 L-28.517154259325984,42.331172099727816 L-28.591213819328512,42.51160076611985 L-28.66862663213202,42.69022073684722 L-28.749327696960606,42.86688203109581 L-28.833249252010503,43.04143631268221 L-28.920320831347258,43.213737014606345 L-29.010469324073448,43.38363946211854 L-29.1036190357173,43.551000994197764 L-29.19969175179064,43.71568108333897 L-29.298606803462796,43.877541453549064 L-29.40028113529534,44.036446196452275 L-29.504629374980784,44.19226188540759 L-29.611563905026653,44.344857687542365 L-29.720994936324725,44.494105473607924 " />
			<path d="M-29.72099493632476,44.49410547360797 L-29.876839985840054,44.69546596080894 L-30.037064678390195,44.889810551927404 L-30.201409876908336,45.07682492657679 L-30.285044851634694,45.167488285809995 L-30.36960978008748,45.256206619789126 L-30.45507046634664,45.342944053061906 L-30.541392352270318,45.42766551120226 L-30.62854053146928,45.51033673499348 L-30.71647976342216,45.59092429428186 L-30.80517448772586,45.66939560149493 L-30.894588838475258,45.74571892481908 L-30.984686658766496,45.81986340103113 L-31.075431515317884,45.89179904797858 L-31.166786713202644,45.96149677670368 L-31.258715310687368,46.028928403206265 L-31.351180134170345,46.09406665984063 L-31.444143793213634,46.15688520634188 L-31.53756869566278,46.2173586404773 L-31.631417062848158,46.275462508318334 L-31.72565094486171,46.33117331412916 L-31.820232235902914,46.384468529867775 L-31.915122689687827,46.43532660429574 L-32.0102839349149,46.48372697169299 L-32.10567749078137,46.529650060174056 L-32.201264782543916,46.57307729960249 L-32.29700715711733,46.6139911291001 L-32.39286589870482,46.65237500414816 L-32.488802244453716,46.68821340327761 L-32.58477740013016,46.72149183434548 " />
			<path d="M-38.06485495432594,32.40257951531791 L-37.95205870512914,32.36682648255208 L-37.83933040017513,32.33478642000915 L-37.726737942779636,32.30647862742475 L-37.61434915442889,32.281920156354644 L-37.5022317339265,32.2611257999035 L-37.39045321661425,32.24410808381408 L-37.27908093369129,32.23087725892225 L-37.168181971656374,32.221441294982164 L-37.05782313189746,32.21580587586568 L-36.948070890453025,32.213974396138546 L-36.83899135796943,32.21594795901567 L-36.73065023987828,32.22172537569657 L-36.623112796817985,32.231303166081474 L-36.51644380532316,32.244675560867584 L-36.41070751880568,32.26183450502431 L-36.3059676288508,32.28276966264531 L-36.202287226851745,32.30746842317444 L-36.09972876600583,32.33591590900191 L-35.998354023694965,32.36809498442597 L-35.898224064273265,32.40398626597485 L-35.79939920228418,32.443568134082604 L-35.701938966129276,32.486816746111934 L-35.605902062210546,32.533706050716134 L-35.51134633956786,32.584207803531406 L-35.41832875503286,32.63829158419024 L-35.32690533892033,32.695924814645494 L-35.23713116127759,32.75707277879419 L-35.14906029871237,32.82169864338918 L-35.06274580181911,32.889763480226165 L-34.978239663223235,32.96122628959253 L-34.89559278626274,33.036044024964085 L-34.81485495432594,33.114171618934655 L-34.73607480086381,33.19556201036301 L-34.65929978009502,33.28016617272075 L-34.584576138421276,33.367933143624 L-34.511948886570224,33.45881005553132 L-34.441461772482675,33.552742167589095 L-34.373157254960475,33.64967289860535 L-34.3070764780909,33.7495438611322 L-34.24325924646302,33.85229489663624 L-34.18174400119089,33.95786411173579 L-34.12256779675806,34.06618791548315 L-34.06576627869734,34.17720105766944 L-34.011373662119254,34.29083666812886 L-33.95942271110217,34.40702629701877 L-33.9099447189564,34.52569995605134 L-33.86296948937432,34.646786160651864 L-33.81852531847771,34.77021197301839 L-33.776638977773246,34.895903046056745 L-33.73733569802633,35.02378366816442 L-33.70063915406304,35.15377680883642 L-33.666571450509295,35.28580416506556 L-33.635153108475826,35.419786208509265 L-33.606403053197084,35.55564223339448 L-33.58033860263132,35.693290405131805 L-33.55697545702896,35.832647809609576 L-33.53632768947529,35.97363050313824 L-33.51840773741343,36.1161535630149 L-33.50322639515243,36.26013113867757 L-33.490792807365196,36.40547650341834 L-33.48111446358009,36.5521021066243 L-33.47419719366951,36.69991962651476 L-33.4700451643382,36.84884002334301 L-33.46866087661338,36.998773593030464 L-33.4700451643382,37.14963002120114 L-33.47419719366951,37.30131843758359 L-33.48111446358009,37.45374747074777 L-33.490792807365196,37.60682530314381 L-33.50322639515243,37.760459726409394 L-33.51840773741343,37.914558196912736 L-33.53632768947529,38.069027891497306 L-33.55697545702896,38.22377576339508 L-33.58033860263132,38.37870859827442 L-33.606403053197084,38.53373307038892 L-33.635153108475826,38.6887557987933 L-33.666571450509295,38.84368340359265 L-33.70063915406304,38.99842256219095 L-33.73733569802633,39.152880065505144 L-33.776638977773246,39.306962874110766 L-33.81852531847771,39.46057817428543 L-33.86296948937432,39.61363343391636 L-33.9099447189564,39.766036458238275 L-33.95942271110217,39.91769544536802 L-34.011373662119254,40.068519041602656 L-34.06576627869734,40.21841639644746 L-34.12256779675806,40.3672972173409 L-34.18174400119089,40.51507182404349 L-34.24325924646302,40.66165120265779 L-34.3070764780909,40.80694705924708 L-34.373157254960475,40.95087187302032 L-34.441461772482675,41.09333894905137 L-34.511948886570224,41.23426247050084 L-34.584576138421276,41.37355755030887 L-34.65929978009502,41.51114028232795 L-34.73607480086381,41.646927791864876 L-34.81485495432594,41.78083828560132 L-34.89559278626274,41.91279110086309 L-34.978239663223235,42.04270675420831 L-35.06274580181911,42.17050698930526 L-35.14906029871237,42.296114824071076 L-35.23713116127758,42.41945459704288 L-35.32690533892033,42.540452012953395 L-35.41832875503286,42.65903418748368 L-35.51134633956786,42.775129691165844 L-35.605902062210546,42.88866859240958 L-35.70193896612928,42.99958249962627 L-35.79939920228418,43.10780460242553 L-35.898224064273265,43.21326971185934 L-35.998354023694965,43.315914299689354 L-36.09972876600584,43.415676536654 L-36.20228722685175,43.51249632971207 L-36.3059676288508,43.60631535824057 L-36.41070751880568,43.69707710916482 L-36.51644380532316,43.78472691099987 L-36.623112796817985,43.86921196678253 L-36.73065023987827,43.95048138587429 L-36.83899135796943,44.02848621461596 L-36.948070890453025,44.10317946581549 L-37.05782313189746,44.17451614705131 L-37.168181971656374,44.242453287774104 L-37.27908093369128,44.306949965190626 L-37.39045321661425,44.36796732891409 L-37.5022317339265,44.42546862436618 L-37.614349154428886,44.479419214916625 L-37.726737942779636,44.529786602747016 L-37.83933040017513,44.576540448426286 L-37.95205870512914,44.61965258918603 L-38.064854954325895,44.659097055884715 " />
			<path d="M-37.8880782590293,44.953724881379124 L-37.78822809491706,44.919048769352464 L-37.68842163431532,44.881602386766794 L-37.58870256160597,44.84140212356389 L-37.489114522921994,44.79846557503405 L-37.38970110704399,44.75281153411484 L-37.29050582632171,44.704459983165584 L-37.19157209762918,44.653432085221255 L-37.0929432233614,44.59975017472959 L-36.99466237248143,44.54343774777558 L-36.89677256162561,44.48451945179734 L-36.79931663627563,44.423021074798235 L-36.70233725200541,44.358969534059675 L-36.60587685581119,44.29239286435964 L-36.50997766753282,44.223320205702166 L-36.41468166137456,44.151781790562985 L-36.32003054753331,44.07780893065705 L-36.226065753942464,44.00143400323371 L-36.13282840813928,43.922690436905455 L-36.040359319263715,43.84161269701653 L-35.948698960196644,43.758236270557745 L-35.85788744984524,43.67259765063417 L-35.767964535583296,43.584734320492416 L-35.67896957585418,43.49468473711457 L-35.590941522943986,43.402488314385906 L-35.50391890593243,43.30818540584381 L-35.41793981382909,43.211817287015364 L-35.33304187890218,43.11342613735147 L-35.2492622602072,43.013055021765254 L-35.1666376273228,42.91074787178296 L-35.08520414430083,42.8065494663155 L-35.004997453837646,42.70050541205917 L-34.92605266167363,42.59266212353396 L-34.84840432122776,42.48306680276839 L-34.77208641847383,42.37176741863957 L-34.69713235706517,42.2588126858777 L-34.623574943714104,42.14425204374403 L-34.55144637383279,42.028135634391774 L-34.480778217441554,41.91051428091934 L-34.411601405351014,41.7914394651255 L-34.343946215623916,41.67096330497632 L-34.277842260322714,41.549138531793545 L-34.213318472548615,41.42601846717463 L-34.08912366150067,41.17610856111808 L-33.97157919445368,40.921671072120546 L-33.86089084147443,40.663151411356395 L-33.75725237050757,40.401002136136036 L-33.66084520817087,40.135682157671766 L-33.57183812215482,39.86765593772059 L-33.490386925782616,39.5973926755104 L-33.41663420524772,39.325365486372874 L-33.35070907000641,39.05205057352103 L-33.292726926762406,38.77792639442109 L-33.24278927743909,38.50347282321821 L-33.22086501102852,38.366272656916735 L-33.20098354149307,38.22917031068218 L-33.18315357077149,38.09222579296705 L-33.16738290288012,37.95549904314372 L-33.15367844049716,37.81904990526954 L-33.142046181941396,37.682938101893626 L-33.13249121854681,37.54722320791685 L-33.12501773243416,37.41196462451645 L-33.11962899468047,37.27722155314667 L-33.11632736388735,37.14305296962679 L-33.11511428514863,37.009517598327996 L-33.11599028941785,36.87667388647023 L-33.11895499327592,36.74457997854036 L-33.12400709909885,36.61329369084291 L-33.131144395625775,36.482872486194324 L-33.1403637589268,36.35337344877208 L-33.15166115377029,36.22485325912941 L-33.16503163538907,36.097368169386755 L-33.180469351644696,35.97097397861074 L-33.19796754558888,35.845726008391416 L-33.21751855842096,35.72167907862848 L-33.23911383284009,35.598887483537155 L-33.262743916790676,35.477404967884034 L-33.28839846759945,35.35728470346354 L-33.31606625650238,35.23857926582511 L-33.34573517355942,35.12134061126132 L-33.37739223295486,35.005620054067116 L-33.411023578681146,34.891468244080016 L-33.44661449060352,34.77893514451111 L-33.4841493909029,34.66807001007662 L-33.52361185089411,34.5589213654396 L-33.56498459821661,34.451536983971074 L-33.60824952439444,34.34596386684011 L-33.653387692762095,34.242248222441795 L-33.70037934675302,34.14043544617228 L-33.74920391854678,34.040570100559606 L-33.79984003807149,33.94269589575907 L-33.85226554235723,33.84685567042173 L-33.90645748523665,33.7530913729443 L-33.962392147388236,33.66144404310869 L-34.02004504671807,33.5719537941193 L-34.079390949075425,33.48465979504585 L-34.140403879297516,33.39960025367935 L-34.20305713257858,33.316812399808995 L-34.26732328615836,33.236332468926975 L-34.33317421132477,33.158195686368536 L-34.40058108572556,33.08243625189416 L-34.46951440598367,33.00908732472067 L-34.539944000610504,32.938181009007714 L-34.61183904321179,32.86974833980606 L-34.68516806597994,32.80381926947388 L-34.759898973467294,32.74042265456682 L-34.835999056633966,32.6795862432078 L-34.9134350071643,32.62133666294186 L-34.99217293204563,32.56569940908155 L-35.07217836840291,32.512698833547894 L-35.153416298582854,32.46235813421171 L-35.23585116548081,32.41469934474017 L-35.319446888103776,32.369743324952836 L-35.40416687736275,32.32750975169151 L-35.48997405208741,32.28801711020786 L-35.57683085525626,32.25128268607259 L-35.66469927043492,32.21732255760973 L-35.7535408384156,32.18615158885924 " />
			<path d="M-35.753540838415645,32.186151588859225 L-35.8781288194389,32.147609419995504 L-36.004404483267685,32.114476498274605 L-36.132261800734106,32.086780644228305 L-36.26159341461216,32.06454511307673 L-36.392290729761754,32.04778857520178 L-36.52424400431219,32.03652510047021 L-36.657342441808495,32.03076414641975 L-36.79147428424324,32.03051055031789 L-36.92652690589575,32.03576452510024 L-37.06238690789989,32.04652165919169 L-37.19894021346111,32.06277292021068 L-37.33607216364254,32.084504662553385 L-37.47366761364013,32.111698638851394 L-37.61161102946556,32.14433201529342 L-37.74978658495601,32.18237739079801 L-37.8880782590293,32.225802820021265 " />
			<path d="M-37.31994404562877,36.83144208143868 L-37.308776249821214,36.77859765875778 L-37.29469534453914,36.72665434238529 L-37.277645933735194,36.67568849347998 L-37.25757262136197,36.62577647320067 L-37.23436233255192,36.57697028925444 L-37.208002057813204,36.52948834295866 L-37.178586499162094,36.48365658588759 L-37.14621035861484,36.439800969615476 " />
			<path d="M-36.721352070071504,37.305021238925335 L-36.81299240534564,37.2801088785567 L-36.897340675041214,37.253446126477584 L-36.9741378481796,37.225255127798405 L-37.04322781871187,37.19576529802176 L-37.10829521225178,37.16343783197764 L-37.16643197814329,37.129510613449234 L-37.216941299133566,37.09414608356879 L-37.25919416200039,37.05753522454105 L-37.29264811927998,37.01989489971111 L-37.30593390049556,37.0007626336726 L-37.316864294786946,36.98146410967212 L-37.32540297250569,36.962031886582324 L-37.33152167403134,36.942499271224726 L-37.33520044977675,36.92290013063194 L-37.33642782957972,36.90326869763799 " />
			<path d="M-37.33642782957972,36.903268697637934 L-37.33539324403718,36.88524306377549 L-37.332293268297455,36.86724582305345 L-37.3199440456288,36.831442081438745 " />
			<path d="M-37.30756719293106,36.77363338778752 L-37.28888180153829,36.800250153128275 L-37.26574264887727,36.82646827177617 L-37.23829712874868,36.85220688395787 L-37.20671764624856,36.87739016553832 L-37.17119895191701,36.90194799687706 L-37.13195522192362,36.925816512105754 L-37.08921696268725,36.94893852254332 L-37.04322781871187,36.97126381207577 L-37.01653055243613,36.98319727653713 " />
			<path d="M-37.01653055243607,36.98319727653715 L-36.9576837514018,37.007157916919894 L-36.89363227848923,37.03020384586568 L-36.82447070791812,37.05220743964072 L-36.750340956530934,37.0730445133839 " />
			<path d="M-36.371015637575084,37.37252620639177 L-36.46470282472119,37.35802382077775 L-36.554545199763304,37.34187799125984 L-36.64019634766883,37.32417707000796 L-36.72135207007135,37.30502123892538 " />
			<path d="M-37.18605676997342,38.410915215594834 L-37.057768442387875,38.45233077345736 L-36.92708755606728,38.487465842474 L-36.79401094767577,38.51645220441385 L-36.65853545387751,38.53942164104599 " />
			<path d="M-37.18605676997342,38.410915215594834 L-37.238575339600565,38.37338223656881 L-37.28798166069328,38.33219783093826 L-37.33444314721433,38.28767350722819 L-37.378094456640085,38.24009066926528 " />
			<path d="M-36.35555829921817,38.487241316947156 L-36.40613145672075,38.44567513369468 L-36.458409778038174,38.40694963093324 L-36.51253259027582,38.371302580814934 L-36.568639220539076,38.33897175549186 L-36.626868995933336,38.31019492711609 L-36.687361243563984,38.285209867839725 L-36.750255290536415,38.264254349814856 L-36.81569046395601,38.24756614519356 L-36.88304902610089,38.23519331028978 L-36.95152730129853,38.22679118743446 L-37.020985709728365,38.22200847780518 L-37.09128467156981,38.22049388257955 L-37.16228460700228,38.22189610293515 L-37.2338459362052,38.22586384004957 L-37.37809445664009,38.24009066926527 " />
			<path d="M-36.35555829921817,38.487241316947156 L-36.432648736791336,38.50597677453593 L-36.508860617327635,38.52116080885679 L-36.58413414027897,38.53243266896597 L-36.65853545387751,38.53942164104599 " />
			<path d="M-35.9482404058283,37.94361481272083 L-36.03476763813119,37.96198879059562 L-36.1207595548606,37.97714878431506 L-36.20573131190099,37.988677509197714 L-36.28919806513684,37.99615768056212 L-36.37082819913566,37.999241901569256 L-36.45059755114958,37.99765740649811 L-36.52848245608997,37.99109885734425 L-36.60445924886819,37.97926091610327 L-36.677678585068776,37.962039988140944 L-36.74732001741363,37.939596929135355 L-36.813403226520194,37.91202307655054 L-36.8759478930059,37.87940976785055 L-36.934950464559364,37.84181496761616 L-36.99021270969494,37.79960789608457 L-37.04146229026867,37.75334677420443 L-37.08842686813661,37.70358982292442 " />
			<path d="M-37.735931393913134,37.22938317549008 L-37.66693926793667,37.298658657546525 L-37.59431104400325,37.365509277104856 L-37.51815820827055,37.42971894382453 L-37.438592246896256,37.49107156736502 L-37.355724646038034,37.549351057385785 L-37.26966689185357,37.6043413235463 L-37.180530470500536,37.65582627550602 L-37.088426868136615,37.70358982292442 " />
			<path d="M-37.735931393913134,37.22938317549008 L-37.73642787698346,37.18842914601681 " />
			<path d="M-37.73642787698346,37.18842914601681 L-37.733181905721196,37.08495127426075 " />
			<path d="M-37.31994404562877,36.83144208143868 L-37.52378498619919,36.958934032909525 L-37.733181905721196,37.08495127426075 " />
			<path d="M-36.885905685905755,36.09539425031912 L-36.91809053774621,36.109563338635034 L-36.94814637286972,36.12514498547273 L-36.976056472902,36.14204767429502 L-37.00180411946876,36.16017988856474 L-37.02537259419572,36.17945011174472 L-37.046745178708605,36.199766827297786 L-37.065905154633114,36.22103851868676 L-37.082835803594975,36.24317366937447 L-37.09758825559505,36.26603579119789 L-37.110265864231394,36.28950912571274 L-37.129643019498864,36.33804774498056 L-37.14146020556936,36.38830615150558 L-37.14621035861484,36.439800969615476 " />
			<path d="M-38.06485495432594,35.70241116085513 L-38.1535912319766,35.734465602905054 L-38.24217217037363,35.771415297008495 L-38.330442702195974,35.813195560061146 L-38.41824830351167,35.859733252699364 L-38.50543526428313,35.91094690733592 L-38.59185095744767,35.966746870774884 L-38.677344106102154,36.027035461156 L-38.76176504832416,36.09170713895383 L-38.84496599916595,36.16064869173231 L-38.92680130936267,36.2337394323313 L-39.00712772030194,36.31085141013811 L-39.0858046148083,36.39184963507434 L-39.162694263303806,36.47659231390569 L-39.237662064913536,36.564931098461294 L-39.31057678309415,36.65671134532785 L-39.3813107753729,36.75177238656409 L-39.449740216795036,36.849947810961595 L-39.515745316688246,36.951065755359615 L-39.57921052836494,37.054949205503924 L-39.640024751394996,37.16141630592304 L-39.69808152609513,37.27028067827935 L-39.75327921989422,37.381351747637815 L-39.80552120524843,37.49443507608116 L-39.85471602879477,37.60933270308745 L-39.9007775714467,37.72584349207428 L-39.9436251991519,37.843763482502844 L-39.98318390404793,37.962886246925585 L-40.019384435768906,38.08300325235234 L-40.05216342267331,38.20390422530235 L-40.081463482780556,38.32537751990317 L-40.107233324222335,38.44721048839204 L-40.1294278350327,38.56918985337109 L-40.148008162119815,38.69110208116488 L-40.16294177928113,38.81273375562642 L-40.17420254414278,38.93387195173757 L-40.18177074392378,39.054304608349646 L-40.185633129944584,39.17382089941172 L-40.18578294081991,39.29221160303686 L-40.182219914295025,39.40926946776011 L-40.174950287704824,39.52478957534715 L-40.163986787054924,39.638569699518406 L-40.149348604743906,39.75041065996078 L-40.131061365965586,39.86011667100711 L-40.10915708385031,39.96749568437317 L-40.08367410342366,40.07235972535193 L-40.05465703448067,40.174525221876955 L-40.02215667349323,40.273813325878464 L-39.98622991468713,40.37005022636982 L-39.94693965044469,40.463067453716164 L-39.90435466120706,40.55270217455269 L-39.85854949506908,40.63879747683619 L-39.80960433727752,40.72120264453088 L-39.75760486986099,40.799773421447696 L-39.70264212163737,40.874372263775186 L-39.64481230886129,40.94486858085983 L-39.58421666679066,41.01113896381444 L-39.520961272467055,41.07306740155427 L-39.455156859020164,41.13054548388282 L-39.38691862182149,41.183472591271695 L-39.31636601682656,41.231756071002344 L-39.2436225514586,41.27531139936133 L-39.16881556839996,41.31406232960518 L-39.09207602266951,41.34794102543581 L-39.01353825237646,41.37688817975286 " />
			<path d="M-39.01353825237645,41.37688817975286 L-38.95816581636612,41.39401803258118 L-38.902043299108875,41.40874377556825 L-38.84521782467936,41.42105304403327 L-38.787737107400226,41.43093550232285 L-38.72964941177818,41.438382852489504 L-38.671003511977986,41.44338884125909 L-38.61184865086852,41.44594926528152 L-38.5522344986753,41.44606197466012 L-38.49221111127419,41.443726874756855 L-38.43182888816123,41.438945926271764 L-38.371138530134026,41.431723143596656 L-38.31019099672005,41.42206459144435 L-38.24903746338779,41.40997837975634 L-38.18772927857649,41.39547465689322 L-38.12631792058073,41.3785656011134 L-38.064854954325945,41.35926541034751 " />
			<path d="M-32.5847774001302,46.72149183434549 L-32.72306907420348,46.76491726356875 L-32.86124462969394,46.802962639073336 L-32.99918804551937,46.835596015515364 L-33.13678349551696,46.86278999181337 L-33.2739154456984,46.884521734156074 L-33.41046875125961,46.90077299517507 L-33.54632875326375,46.91153012926652 L-33.68138137491626,46.916784104048865 L-33.815513217351004,46.91653050794701 L-33.948611654847305,46.91076955389655 L-34.08056492939775,46.89950607916498 L-34.21126224454734,46.882749541290025 L-34.34059385842539,46.86051401013845 L-34.468451175891815,46.83281815609215 L-34.59472683972061,46.79968523437125 L-34.71931482074382,46.76114306550755 " />
			<path d="M-37.8880782590293,32.225802820021265 L-37.984053414705784,32.25908125108915 L-38.07998976045469,32.294919650218596 L-38.17584850204218,32.333303525266665 L-38.2715908766156,32.374217354764276 L-38.367178168378146,32.41764459419271 L-38.462571724244626,32.463567682673784 L-38.5577329694717,32.51196805007103 L-38.65262342325662,32.562826124499004 L-38.74720471429783,32.61612134023762 L-38.84143859631138,32.671832146048445 L-38.935286963496765,32.729936013889485 L-39.02871186594591,32.7904094480249 L-39.1216755249892,32.85322799452616 L-39.214140348472185,32.91836625116053 L-39.30606894595691,32.98579787766312 L-39.397424143841675,33.05549560638823 L-39.488169000393064,33.127431253335686 L-39.578266820684306,33.201575729547734 L-39.667681171433706,33.277899052871895 L-39.75637589573741,33.356370360084966 L-39.844315127690294,33.43695791937335 L-39.93146330688926,33.51962914316458 L-40.017785192812944,33.60435060130494 L-40.103245879072105,33.691088034577724 L-40.18781080752489,33.779806368556855 L-40.27144578225125,33.87046972779006 L-40.4357909807694,34.05748410243947 L-40.59601567331954,34.25182869355794 L-40.751860722834834,34.45318918075891 " />
			<path d="M-42.6610490320385,40.18075410836989 L-42.658192576803124,40.39994088394797 L-42.6496266300731,40.61696100487448 L-42.635361444684484,40.8315547133214 L-42.61541409506131,41.043465155705874 L-42.58980845677877,41.25243869012587 L-42.55857517798579,41.458225189951726 L-42.521751642721334,41.66057834321016 L-42.47938192616841,41.85925594740234 L-42.43151674189908,42.05402019940328 L-42.37821338117395,42.24463798009545 L-42.319535644368536,42.43088113339598 L-42.255553764608685,42.61252673934345 L-42.18634432370648,42.78935738091741 L-42.111990160497186,42.96116140427125 L-42.03258027168701,43.12773317206702 L-41.94820970533024,43.28887330960882 L-41.85897944706349,43.44438894348033 L-41.764996299232926,43.594093932400696 L-41.66637275305939,43.737809090022594 L-41.56322685399432,43.87536239940568 L-41.45568206042764,44.006589218908736 L-41.34386709591674,44.131332479254205 L-41.227915795113454,44.24944287152902 L-41.10796694357333,44.36077902589691 L-40.98416411163915,44.465207680808135 L-40.85665548259728,44.56260384250421 L-40.7255936753127,44.65285093462661 L-40.59113556155496,44.73584093775055 L-40.52268302897335,44.77458314668484 L-40.45344207823368,44.81147451867656 L-40.38343343002372,44.846504013805074 L-40.31267803476841,44.87966114932538 L-40.241197066360336,44.910936002805066 L-40.16901191582333,44.940319215093716 L-40.09614418491115,44.967801993123615 L-40.022615679642975,44.993376112541156 " />
			<path d="M-40.02261567964295,44.99337611254116 L-39.89802769861971,45.03191828140488 L-39.771752034790914,45.06505120312578 L-39.64389471732449,45.09274705717208 L-39.51456310344644,45.114982588323656 L-39.38386578829685,45.13173912619861 L-39.25191251374641,45.14300260093018 L-39.1188140762501,45.14876355498064 L-38.98468223381536,45.1490171510825 L-38.84962961216285,45.14376317630015 L-38.71376961015871,45.1330060422087 L-38.57721630459749,45.116754781189705 L-38.44008435441606,45.095023038847 L-38.30248890441847,45.067829062548995 L-38.16454548859304,45.03519568610697 L-38.026369933102586,44.99715031060238 L-37.88807825902932,44.95372488137913 " />
			<path d="M-38.06485495432594,41.35926541034751 L-37.97611867667528,41.327210968297585 L-37.88753773827825,41.290261274194144 L-37.7992672064559,41.24848101114149 L-37.71146160514021,41.201943318503275 L-37.62427464436875,41.15072966386672 L-37.53785895120421,41.094929700427755 L-37.45236580254973,41.03464111004664 L-37.36794486032772,40.96996943224881 L-37.28474390948593,40.90102787947033 L-37.2029085992892,40.82793713887134 L-37.12258218834994,40.750825161064526 L-37.04390529384357,40.6698269361283 L-36.96701564534807,40.58508425729695 L-36.89204784373834,40.496745472741345 L-36.81913312555773,40.40496522587479 L-36.74839913327897,40.30990418463855 L-36.67996969185684,40.211728760241044 L-36.61396459196363,40.110610815843025 L-36.550499380286944,40.006727365698715 L-36.48968515725688,39.9002602652796 L-36.431628382556745,39.79139589292329 L-36.37643068875766,39.680324823564824 L-36.32418870340344,39.56724149512148 L-36.27499387985711,39.452343868115186 L-36.22893233720517,39.33583307912836 L-36.18608470949997,39.217913088699795 L-36.14652600460395,39.098790324277054 L-36.11032547288297,38.9786733188503 L-36.077546485978566,38.85777234590029 L-36.04824642587132,38.73629905129947 L-36.02247658442954,38.61446608281061 L-36.000282073619175,38.49248671783155 L-35.98170174653206,38.37057449003776 L-35.96676812937075,38.24894281557622 L-35.955507364509096,38.12780461946507 L-35.9479391647281,38.00737196285299 L-35.94407677870729,37.887855671790916 L-35.94392696783196,37.76946496816578 L-35.94748999435684,37.65240710344253 L-35.95475962094705,37.53688699585549 L-35.96572312159695,37.42310687168424 L-35.98036130390797,37.31126591124186 L-35.99864854268629,37.20155990019553 L-36.02055282480156,37.09418088682947 L-36.046035805228215,36.98931684585071 L-36.075052874171206,36.887151349325684 L-36.10755323515865,36.787863245324175 L-36.143479993964746,36.69162634483282 L-36.182770258207185,36.598609117486475 L-36.22535524744482,36.50897439664995 L-36.2711604135828,36.42287909436645 L-36.320105571374356,36.34047392667176 L-36.372105038790885,36.26190314975494 L-36.42706778701451,36.18730430742745 L-36.484897599790585,36.11680799034281 L-36.545493241861216,36.0505376073882 L-36.60874863618482,35.98860916964837 L-36.67455304963171,35.93113108731982 L-36.74279128683038,35.878203979930944 L-36.81334389182532,35.829920500200295 L-36.886087357193276,35.78636517184131 L-36.96089434025191,35.74761424159746 L-37.037633885982366,35.71373554576683 L-37.116171656275405,35.684788391449786 " />
			<path d="M-37.11617165627543,35.68478839144978 L-37.17154409228576,35.66765853862146 L-37.227666609543,35.65293279563439 L-37.284492083972516,35.64062352716937 L-37.34197280125165,35.63074106887978 L-37.40006049687369,35.623293718713136 L-37.45870639667389,35.618287729943546 L-37.51786125778336,35.61572730592112 L-37.57747540997658,35.61561459654252 L-37.63749879737769,35.617949696445784 L-37.69788102049065,35.622730644930876 L-37.75857137851785,35.62995342760598 L-37.81951891193182,35.63961197975829 L-37.88067244526408,35.6516981914463 L-37.941980630075385,35.66620191430942 L-38.003391988071144,35.68311097008924 L-38.06485495432594,35.70241116085513 " />
			<path d="M-36.55996499600338,36.035749568392426 L-36.6505583914262,36.041453693931274 L-36.73589071729484,36.05332677120398 L-36.8148226519157,36.07137369291607 L-36.85143581332601,36.082649780203 L-36.885905685905755,36.09539425031912 " />
			<path d="M-37.088426868136615,37.70358982292442 L-37.04322781871187,37.72551104534142 L-37.01653055243613,37.73744450980278 " />
			<path d="M-37.01653055243607,37.7374445098028 L-36.9215457679367,37.774754938976386 L-36.81380020594693,37.809617535977935 L-36.69382186611474,37.84154706370705 L-36.56242967831665,37.870093041077276 L-36.42072257276321,37.89485802110375 L-36.270052810856924,37.915514209868924 L-36.11198458329876,37.93181707483894 L-35.9482404058284,37.94361481272082 " />
			<path d="M-38.06485495432594,44.65909705588473 L-38.177651203522736,44.69485008865057 L-38.29037950847675,44.72689015119349 L-38.40297196587224,44.75519794377789 L-38.51536075422299,44.779756414847995 L-38.62747817472537,44.80055077129914 L-38.73925669203763,44.817568487388556 L-38.850628974960586,44.83079931228039 L-38.9615279369955,44.84023527622048 L-39.07188677675442,44.84587069533696 L-39.18163901819885,44.84770217506409 L-39.290718550682456,44.84572861218697 L-39.3990596687736,44.83995119550607 L-39.50659711183389,44.830373405121165 L-39.61326610332872,44.817001010335055 L-39.7190023898462,44.79984206617833 L-39.82374227980108,44.77890690855733 L-39.92742268180013,44.7542081480282 L-40.029981142646044,44.72576066220073 L-40.13135588495692,44.69358158677666 L-40.23148584437862,44.65769030522778 L-40.330310706367705,44.618108437120036 L-40.427770942522606,44.5748598250907 L-40.523807846441336,44.527970520486505 L-40.618363569084025,44.477468767671226 L-40.71138115361902,44.42338498701239 L-40.802804569731556,44.36575175655714 L-40.8925787473743,44.30460379240844 L-40.98064960993952,44.23997792781345 L-41.06696410683277,44.17191309097647 L-41.151470245428655,44.1004502816101 L-41.23411712238915,44.02563254623855 L-41.31485495432595,43.94750495226798 L-41.39363510778808,43.86611456083961 L-41.470410128556864,43.781510398481885 L-41.54513377023061,43.693743427578625 L-41.61776102208166,43.602866515671295 L-41.68824813616921,43.50893440361353 L-41.756552653691415,43.41200367259727 L-41.82263343056099,43.31213271007042 L-41.886450662188864,43.20938167456638 L-41.94796590746099,43.10381245946684 L-42.00714211189382,42.99548865571947 L-42.063943629954544,42.884475513533175 L-42.11833624653263,42.770839903073764 L-42.17028719754971,42.65465027418385 L-42.21976518969548,42.53597661515128 L-42.26674041927756,42.414890410550754 L-42.31118459017417,42.29146459818422 L-42.35307093087864,42.165773525145866 L-42.392374210625555,42.03789290303819 L-42.42907075458884,41.90789976236619 L-42.46313845814259,41.775872406137054 L-42.494556800176056,41.641890362693346 L-42.5233068554548,41.506034337808124 L-42.549371306020554,41.368386166070806 L-42.57273445162292,41.229028761593035 L-42.59338221917658,41.08804606806437 L-42.61130217123844,40.945523008187706 L-42.62648351349945,40.80154543252503 L-42.63891710128668,40.65620006778426 L-42.64859544507179,40.50957446457831 L-42.655512714982365,40.36175694468783 L-42.65966474431367,40.212836547859595 L-42.6610490320385,40.06290297817219 " />
			<path d="M-42.6610490320385,40.06290297817213 L-42.65911940197839,39.88470008786048 L-42.65333213203956,39.70536040811535 L-42.64369208158601,39.52503452406485 L-42.63020734502404,39.34387384891766 L-42.61288924500565,39.16203049682672 L-42.591752322921295,38.97965715516447 L-42.56681432669004,38.796906956316626 L-42.53809619585725,38.61393334910248 L-42.50562204401236,38.43088996992933 L-42.469419138541625,38.247930513789505 L-42.42951787773261,38.06520860520816 L-42.385951765249864,37.88287766925024 L-42.33875738200309,37.701090802694935 L-42.28797435543144,37.520000645485766 L-42.233645326229784,37.339759252564306 L-42.175815912544834,37.16051796619502 L-42.11453467167122,36.98242728888863 L-42.04985305927967,36.80563675703046 L-41.98182538621149,36.63029481532014 L-41.91050877287573,36.45654869212783 L-41.83596310128717,36.284544275871845 L-41.758250964785574,36.11442599252136 L-41.67743761547827,35.946336684327065 L-41.59359090945029,35.78041748988161 L-41.50678124978804,35.61680772561061 L-41.41708152746434,35.45564476879359 L-41.32456706013446,35.29706394221318 L-41.22931552889462,35.14119840052939 L-41.131406913055876,34.988179018474455 L-41.030923422988415,34.83813428096193 L-40.92794943109241,34.69119017520253 L-40.822571400953514,34.54747008491716 " />
			<path d="M-40.8225714009535,34.54747008491714 L-40.67249839030914,34.35356739353841 L-40.51820794563122,34.16642075023914 L-40.35994960631745,33.98633283391008 L-40.197979329181976,33.813594907113014 L-40.03255907448739,33.64848634501147 L-39.863956382267084,33.491274183527395 L-39.77854664775241,33.41570922102592 L-39.69244393962335,33.342212687454506 L-39.6056830756392,33.270814302954015 L-39.518299139700815,33.20154293922683 L-39.43032746766364,33.13442660786191 L-39.34180363304872,33.06949244900757 L-39.252763432657694,33.0067667203967 L-39.16324287209749,32.94627478672882 L-39.07327815122053,32.88804110941323 L-38.98290564948646,32.83208923667742 L-38.892161911251186,32.77844179404477 L-38.80108363098928,32.72712047518536 L-38.70970763845566,32.67814603314361 L-38.61807088379255,32.63153827194626 L-38.526210422587795,32.58731603859411 L-38.43416340089052,32.545497215440804 L-38.34196704019019,32.506098712961624 L-38.249658622365196,32.46913646291534 L-38.157275474607,32.4346254119018 L-38.06485495432596,32.40257951531792 " />
			<path d="M-37.16752351295612,37.6628978222537 L-37.046483914864304,37.69979493840736 L-36.914292283957565,37.73378202552307 L-36.77173459171896,37.764487459756495 L-36.61979858847784,37.791582614319644 L-36.45965299783572,37.814792643792195 L-36.29261836113282,37.83390535654526 L-36.12013100681585,37.8487775965595 L-35.94370218845929,37.85933873757122 " />
			<path d="M-37.735675313787084,37.13836184225239 L-37.73234092374261,37.16144458316947 L-37.72635140551592,37.18446544424351 L-37.71772439626024,37.20738789643779 L-37.70648583891993,37.23017591072897 L-37.692669781020065,37.25279414491481 L-37.67631811149645,37.27520812297152 L-37.63621271878933,37.31929074667713 L-37.58664809281591,37.36217147113219 L-37.528202474324864,37.40362145722216 L-37.4615374792845,37.44343884699113 L-37.38738019759419,37.481451249565275 L-37.32827959436979,37.50814552872946 L-37.26427647067558,37.534089137471724 L-37.195423989425244,37.55917302759241 L-37.12180955051026,37.583289390381736 L-37.043555483120855,37.60633291398137 L-36.960819190809985,37.628202068427065 L-36.87379271253109,37.64880038973896 L-36.782701678926514,37.668037732583635 L-36.687803661134694,37.68583146030357 L-36.58938592854508,37.70210754161292 L-36.48776265134609,37.71680152504082 L-36.383271602408186,37.72985936523462 L-36.16713258753834,37.750906217352316 L-35.94399368773939,37.76504406187637 " />
			<path d="M-37.37809445664009,38.24009066926527 L-37.285607295993294,38.27999586333197 L-37.18198986925543,38.31801592274958 L-37.06753662730854,38.35377824095237 L-36.94272446219148,38.386924549116166 L-36.808211771044945,38.41712104385533 L-36.66483040576813,38.444068245889554 L-36.51357045214782,38.46751003360579 L-36.35555829921829,38.48724131694715 " />
			<path d="M-37.18605676997342,38.41091521559483 L-37.0696126166652,38.44745988166164 L-36.94238157159272,38.481289249167496 L-36.80506088103458,38.512048912779875 L-36.65853545387762,38.53942164104597 " />
			<path d="M-36.11520216708136,36.76632084251766 L-36.17795067619363,36.78492969175714 L-36.237160193914924,36.80478531463045 L-36.292608163804644,36.82581307792114 L-36.34408616830947,36.847933942577164 " />
			<path d="M-36.344086168309474,36.84793394257717 L-36.39183157570422,36.87129007665998 L-36.435150802545344,36.895586051422214 L-36.473877899293484,36.920728792584526 L-36.50786450817925,36.94662198203097 L-36.536980431539845,36.97316642678939 L-36.56111413058702,37.000260439025055 L-36.58017315269565,37.02780022559165 L-36.59408448557603,37.05568028564743 L-36.602794836973175,37.08379381481337 L-36.606270838821494,37.11203311432484 L-36.60449917507295,37.14029000360968 L-36.59748663270886,37.16845623471188 L-36.58526007573995,37.19642390697355 L-36.567866342294366,37.22408588038624 L-36.545372065187664,37.25133618602853 L-36.517863416662436,37.278070432017216 " />
			<path d="M-36.517863416662436,37.27807043201722 L-36.473948849201065,37.31247084814799 L-36.421739351444764,37.34555853509761 L-36.36158487635413,37.377111710728634 L-36.29388863096152,37.40691887851834 L-36.219104373730715,37.43478024519034 L-36.13773337307742,37.46050905990098 L-36.05032104743713,37.483932866004096 L-35.95745330940174,37.5048946570038 " />
			<path d="M-29.650284258206106,44.39982456944976 L-29.720994936324768,44.49410547360797 " />
			<path d="M-27.811806627121005,38.88439167619446 L-27.81180662712101,38.7665405459967 " />
			<path d="M-30.450239979516546,33.953918541825594 L-35.753540838415645,32.186151588859225 " />
			<path d="M-34.71931482074386,46.761143065507525 L-40.02261567964297,44.993376112541156 " />
			<path d="M-40.82257140095351,34.54747008491713 L-40.75186072283485,34.45318918075892 " />
			<path d="M-42.661049032038505,40.062902978172126 L-42.661049032038505,40.18075410836988 " />
			<path d="M-36.517863416662436,37.27807043201722 L-37.257551070559906,36.62572723865806 " />

       </g>
    </g>
    
</svg>
