<?xml version="1.0" encoding="UTF-8" standalone="no"?>
<svg
   xmlns:svg="http://www.w3.org/2000/svg"
   xmlns="http://www.w3.org/2000/svg"
   width="1024.0"
   height="320.0"

>
    <g transform="scale(10.890947138187592, -10.890947138187592)   translate(34.93489557546805,-40.9810146619727)" stroke-width="0.37333333466666685"  fill="none">
       <!-- hidden lines -->
       <g  stroke="rgb(32,64,32)" fill="none" stroke-dasharray="0.37333333466666685,0.37333333466666685" >

       </g>

       <!-- solid lines -->
       <g  stroke="rgb(64,192,64)" fill="none">
			<path d="M-14.480650612633848,24.157600487352685 L-14.538993068635644,24.093033928648474 L-14.594524975429872,24.022302542349202 L-14.64684627363067,23.945567058451694 L-14.69557401594828,23.863060657716073 L-14.740350234730359,23.77508844385367 L-14.780849567242203,23.68202490788525 L-14.816786329746025,23.58430936270592 L-14.847920741023044,23.48243942919416 " />
			<path d="M-14.528666872872133,24.151026015207442 L-14.569134343961071,24.108652254871252 L-14.608398813232377,24.063382859571348 L-14.646330882490075,24.01525270508033 L-14.682803380922886,23.964312139372918 L-14.717692521117696,23.910627194098282 L-14.75087906649678,23.854279607843715 L-14.782249490025693,23.79536665099577 L-14.811697103112998,23.73400074615162 L-14.839123133289336,23.670308882613067 L-14.864437729560173,23.604431828359903 L-14.887560875298146,23.53652314787343 L-14.908423190168374,23.466748039081242 L-14.926966604825132,23.395282007328355 L-14.943144894912239,23.32230939846004 L-14.95692406414533,23.24802181666157 L-14.968282569832066,23.17261645549481 " />
			<path d="M-14.135596308405841,24.135612278093873 L-14.174734970644781,24.07333922553894 L-14.211597578199681,24.00765331083837 " />
			<path d="M-14.214550885883648,24.00205036562925 L-14.254932179383928,23.919436709638205 L-14.291598995846956,23.832551044808014 L-14.324331990666224,23.741749753424905 L-14.352945994192476,23.647431011470974 " />
			<path d="M-15.413355972055403,22.059633252873553 L-15.442168293032852,22.177094250486284 L-15.466017982557446,22.29503376977945 L-15.484817109524045,22.413016981097908 L-15.498496363679859,22.530608893698954 L-15.507005311163507,22.64737595951396 L-15.510312580448955,22.762887671591013 L-15.50840597800878,22.87671815132531 L-15.501292533270323,22.988447718625352 L-15.488998472698988,23.097664439225923 L-15.471569123104233,23.203965643443116 L-15.449068744524755,23.306959410771835 L-15.421580293309008,23.406266014852342 L-15.389205116264522,23.501519323478366 L-15.352062577003718,23.59236814848507 L-15.310289615863768,23.678477540540072 L-15.264040245023084,23.75953002406372 L-15.213484980675847,23.835226767725594 L-15.158810214358107,23.905288686201793 L-15.100217525743291,23.96945746913093 L-15.03792293944077,24.027496533475198 L-14.972156128537579,24.07919189577523 L-14.903159567819749,24.124352961082906 L-14.831187639795221,24.162813225663324 L-14.756505696814347,24.194430890875253 L-14.679389082745802,24.21908938596663 L-14.600122117814925,24.236697797857765 L-14.51899705034723,24.247191206327543 L-14.43631297928192,24.25053092336694 L-14.352374751427968,24.246704635817345 L-14.267491837528427,24.235726450767753 L-14.181977191276852,24.217636843543556 L-14.096146095492468,24.19250250847858 " />
			<path d="M-15.413355972055388,22.059633252873553 L-15.436008443523033,22.17501471984934 L-15.45394366394482,22.290006782445705 L-15.467052322604017,22.40462594604903 L-15.475225108783894,22.518888716045705 L-15.478340235804694,22.63251971461129 L-15.476382838359228,22.74481902729275 L-15.469403987789608,22.85516635453356 L-15.457454755437949,22.9629413967772 L-15.440496399126078,23.068199102317017 L-15.418549691065142,23.17096168968194 L-15.391754974181236,23.27055976466883 L-15.36025259140045,23.366323933074543 L-15.324255314775868,23.457709380806342 L-15.283869255785252,23.544603809036435 L-15.239074766491713,23.626986596459115 L-15.189852198958361,23.704837121768676 L-15.136546226110315,23.77760075915687 L-15.079602067396317,23.844629741275146 L-15.019150894664905,23.90576373450738 L-14.955323879764618,23.960842405237432 L-14.887902612106279,24.009776261894302 L-14.81696900569653,24.05237148552459 L-14.743104719277637,24.088311251438547 L-14.666891411591868,24.11727873494644 L-14.588525219077237,24.139203454902503 L-14.50798238632574,24.15416866898874 L-14.42551473431061,24.162088160757033 L-14.341374084005087,24.162875713759277 L-14.256306265847646,24.15654146366179 L-14.170890064478883,24.14316638706609 L-14.085126732175208,24.1227705289269 L-13.999017521213045,24.09537393419894 " />
			<path d="M-14.096146095492461,24.19250250847858 L-14.039283428403458,24.17202344767937 L-13.982512727318744,24.148527831517686 L-13.925925809502735,24.12205366028524 L-13.869614194980661,24.092643751596285 L-13.81366895851999,24.060345671137192 L-13.758180582331981,24.025211655736758 L-13.703238809731603,23.98729852888176 L-13.648932499992496,23.94666760881429 L-13.595349484631715,23.903384609359623 L-13.54257642535672,23.857519533644886 L-13.490698673904319,23.809146560880556 L-13.43980013399829,23.758343926387774 L-13.389963125648915,23.705193795065597 L-13.341268252013908,23.64978212850281 L-13.293794269036086,23.592198545949188 L-13.247617958068599,23.53253617937113 " />
			<path d="M-13.24761795806859,23.532536179371117 L-13.183509643596306,23.443101042126564 L-13.122465918702092,23.349850543798116 L-13.064691765296024,23.253097815101437 L-13.010381186223423,23.153167747074356 L-12.959716553812568,23.050395900108278 L-12.912867997477136,22.945127377152442 L-12.86999283242977,22.837715664874707 L-12.831235031425104,22.72852144667023 L-12.796724741306148,22.61791139150385 L-12.766577845977402,22.50625692265324 L-12.740895577272244,22.393932970487313 L-12.719764175021282,22.281316713467938 L-12.703254597463115,22.168786311602712 L-12.691422282969963,22.05671963660173 L-12.684306963888265,21.94549300300244 L-12.68193253311936,21.835479904523446 " />
			<path d="M-12.68193253311936,21.83547990452343 L-12.683636015290476,21.743524837903212 L-12.68874235796607,21.652926953873543 L-12.697239259519375,21.563904510672483 L-12.709106250170304,21.47667197116315 L-12.724314741298958,21.39143948617389 L-12.7428280943181,21.308412388226525 L-12.764601708938725,21.227790696872326 L-12.789583130616075,21.149768636827396 L-12.81771217691721,21.0745341700683 L-12.848921082505779,21.00226854301523 L-12.883134662394642,20.93314584989347 L-12.920270493073092,20.86733261332519 L-12.960239111072308,20.804987383161837 L-13.002944228490692,20.746260354523677 L-13.04828296495986,20.69129300596657 L-13.09614609549245,20.640217758647776 L-13.146418313614696,20.593157657311735 L-13.198978509149814,20.55022607386455 L-13.253700059983034,20.51152643425111 L-13.31045113710535,20.477151969292926 L-13.369095022201172,20.447185490086934 L-13.429490437014707,20.42169918850629 L-13.491491883701654,20.40075446328385 L-13.554949995346258,20.384401772097203 L-13.619711895799293,20.372680510011747 L-13.685621567970099,20.36561891457451 L-13.752520229685405,20.363233997787425 L-13.820246716209514,20.365531505123922 L-13.888637868504246,20.372505901687592 L-13.957528926293367,20.384140385546228 L-14.026753924984519,20.40040692820915 L-14.096146095492449,20.421266342150304 " />
			<path d="M-13.848658722077165,20.83374529784247 L-13.774367203646449,20.81213834619106 L-13.70037720839096,20.79693286521702 " />
			<path d="M-13.999017521213041,24.09537393419894 L-13.905982084796888,24.057970208760885 L-13.81361660461916,24.012726762161883 L-13.722934448656884,23.960177320325286 L-13.634023372074191,23.900458655679532 L-13.54671256783936,23.833396684003265 L-13.461127001330446,23.758960894497115 L-13.3781489575209,23.67786890053188 L-13.29862918457107,23.591028730428413 " />
			<path d="M-12.682663820628647,21.896355285413087 L-12.685600412486233,21.828907039631037 L-12.69079330227806,21.762333213480616 L-12.698257939119854,21.696719807829684 L-12.707959809636469,21.632366272748314 L-12.719864363887593,21.569572184417115 L-12.733929314977118,21.508616982883105 L-12.750094527835362,21.449579416361544 L-12.768351948393333,21.39245441230416 L-12.788699971095264,21.337240431047366 L-12.811137788052676,21.2839356730665 L-12.83570044446641,21.232565171417747 L-12.862310390607105,21.183312046662497 L-12.890831691044545,21.13640200137969 L-12.921128410348514,21.092060738148266 L-12.953141328954281,21.050412274057933 L-12.986973337988953,21.011324259349998 L-13.022533262149038,20.97487801493091 L-13.059716005079938,20.94117199908842 L-13.09841647042705,20.910304670110293 L-13.13852956183578,20.88237448628429 L-13.179950182951526,20.85747990589817 L-13.22257323741969,20.83571938723969 L-13.266293628885675,20.81719138859661 L-13.311080731275082,20.801928454493755 L-13.356961860956696,20.78987016170009 L-13.403838754359358,20.781036037317115 L-13.451610805330812,20.775447403444353 L-13.500177407718802,20.773125582181326 L-13.549437955371069,20.774091895627556 L-13.599291842135354,20.778367665882566 L-13.649638461859404,20.78597421504588 L-13.700377208390941,20.79693286521702 " />
			<path d="M-13.050619722147133,23.228108486339252 L-13.04370051364898,23.126316233418276 L-13.03232980996431,23.025714256768346 L-13.012505406964147,22.90236397944222 L-12.986022030748773,22.777570958881814 L-12.952805052004576,22.65245286405235 L-12.912904940502191,22.528200336007433 L-12.866504025040278,22.406043436392785 L-12.813917323324072,22.287213795526903 L-12.755586960742558,22.17290472974674 L-12.692070244479838,22.06423193741035 " />
			<path d="M-13.457036182546869,23.75517489711187 L-13.487707024204958,23.65120660043334 L-13.512191029791646,23.543143697105528 L-13.530326902243658,23.431890236966606 L-13.542058026664602,23.318389602487027 L-13.547431535086096,23.20359845533856 L-13.546593310012307,23.088461085228 L-13.539779401491714,22.973885537064124 L-13.527304556794888,22.860722674491488 L-13.511278073845254,22.758257893251145 L-13.49065969727506,22.654669459286442 L-13.465389002281533,22.55058777961528 L-13.435463892405,22.446683131528644 L-13.400944209002429,22.343653209660193 L-13.36195350739853,22.242208919998788 L-13.318678786697248,22.143058965673983 L-13.271368073497785,22.046893884364316 L-13.220325889065304,21.954370267082215 L-13.165906762934384,21.86609590282543 L-13.108507080319917,21.78261654923042 L-13.04855565353838,21.70440492901573 L-12.98650347880341,21.631852405517094 L-12.922813173030013,21.56526361320125 L-12.857948579089879,21.504854128998744 L-12.792364985367609,21.450751086311605 L-12.75769286603675,21.424768870717923 " />
			<path d="M-12.721188609857707,21.56332479764908 L-12.781231425283128,21.62007620684615 L-12.840228928148635,21.682129407485608 L-12.897810886602453,21.749308692873374 L-12.95360809088269,21.821372445159216 L-13.007259486841958,21.898014690028294 L-13.058419434391235,21.97886858931149 L-13.106764803314698,22.063511831385625 L-13.152001612722431,22.15147377465027 L-13.193870934266858,22.242244099604182 L-13.232153812868614,22.335282638925978 L-13.266675009713344,22.43002999023391 L-13.297305436474218,22.525918478513717 L-13.323963221523151,22.62238302742098 L-13.346613422105595,22.718871520533327 L-13.365266464982552,22.814854281927023 L-13.379975456642832,22.909832374542173 L-13.390582989821862,23.002186625224372 L-13.397451732704516,23.095584643397185 L-13.400399036387585,23.18957189624507 L-13.399275283490121,23.28366523439582 L-13.393968473298091,23.377359942686184 L-13.384408078153543,23.47013782614009 L-13.370567974054692,23.561476093289944 L-13.35246828167044,23.65085674138746 " />
			<path d="M-13.753043677368376,23.97854201627625 L-13.794843825395017,23.91926301561564 L-13.83407720578397,23.855715342043062 L-13.87048947548776,23.788101164382663 L-13.903846158042267,23.716668417271887 L-13.933937139257544,23.641708297309943 L-13.96058072553783,23.563551609151983 L-13.983627109802871,23.48256404582273 L-14.002961111742106,23.399140539146977 L-14.018504089381965,23.313698861463905 L-14.030214955702629,23.226672695239433 L-14.03809027470737,23.13850441014848 L-14.042163452977311,23.049637796088724 L-14.042503082351487,22.960510995083936 L-14.039210524240715,22.871549856055708 L-14.032416854033407,22.783161906016716 L-14.022279303625474,22.695731092214626 L-14.006252820675847,22.59326631097431 L-13.985634444105639,22.489677877009555 L-13.960363749112107,22.385596197338373 L-13.930438639235577,22.28169154925176 L-13.89591895583301,22.178661627383317 L-13.85692825422912,22.077217337721937 L-13.813653533527846,21.978067383397153 L-13.766342820328363,21.881902302087443 L-13.715300635895868,21.78937868480532 L-13.660881509764963,21.701104320548563 L-13.603481827150498,21.617624966953553 L-13.54353040036897,21.539413346738883 L-13.481478225634024,21.466860823240268 L-13.417787919860595,21.400272030924384 L-13.352923325920447,21.33986254672187 L-13.287339732198191,21.285759504034743 L-13.216991352121884,21.234802125383457 L-13.144639799561931,21.18949008004897 L-13.070721423473127,21.150402352243574 L-12.99571944744458,21.118058389386913 " />
			<path d="M-12.86733308261665,21.174644423403542 L-12.937437613534245,21.206385860137758 L-13.006507324597978,21.243968721511543 L-13.074150069152688,21.28695669487369 L-13.140010632046135,21.33486920408543 L-13.205594225768404,21.388972246772568 L-13.270458819708537,21.44938173097507 L-13.334149125481936,21.515970523290918 L-13.3962013002169,21.588523046789547 L-13.456152726998443,21.66673466700424 L-13.513552409612906,21.75021402059925 L-13.567971535743826,21.83848838485603 L-13.619013720176305,21.93101200213813 L-13.66632443337578,22.027177083447818 L-13.709599154077063,22.126327037772626 L-13.748589855680951,22.227771327434 L-13.783109539083528,22.33080124930247 L-13.813034648960063,22.43470589738911 L-13.838305343953584,22.53878757706024 L-13.858923720523784,22.64237601102497 L-13.874950203473418,22.74484079226531 L-13.884196194537333,22.823225864171064 L-13.89076478205601,22.902412195648527 L-13.894539704766041,22.982125422875825 L-13.895421144756577,23.062075257927052 L-13.893327859413342,23.14195841971853 L-13.888199075078193,23.221461988294205 L-13.879996075360383,23.3002671173347 L-13.868703423711324,23.378053022222936 L-13.854329769877381,23.45450114612451 L-13.83690820282066,23.52929939541707 L-13.816496128051664,23.602146329306997 L-13.793174664250131,23.672755187196557 L-13.76704757161252,23.740857641555102 L-13.738239741537535,23.806207173558978 L-13.706895293038789,23.86858198307129 L-13.673175334750336,23.92778736277189 " />
			<path d="M-13.952261427633372,24.077597321711874 L-13.970222177398032,24.067196472140253 " />
			<path d="M-14.037144996274602,24.023136636563958 L-14.080904307792217,23.98934145279085 L-14.122513340308135,23.953046789031525 L-14.177889913091734,23.897622906057773 L-14.230720759351275,23.835928231172616 L-14.280551638430136,23.768099829498833 L-14.326943954344756,23.694363132265558 L-14.369485453611242,23.61503232720076 L-14.407800757330989,23.530507801350815 L-14.441561220154323,23.44127054859188 L-14.470493614599718,23.347873638483417 L-14.494387185942152,23.25093103271823 L-14.513098708537607,23.151104211539394 L-14.52655529219071,23.049087216918203 L-14.534754826027296,22.94559081699526 L-14.53776409366671,22.841326537685454 L-14.535714732937729,22.736991289631504 L-14.52879733289427,22.633253246069813 L-14.517254050456053,22.530739509937767 L-14.501227567506417,22.428274728697403 L-14.480609190936217,22.324686294732697 L-14.455338495942698,22.220604615061568 L-14.425413386066172,22.116699966974952 L-14.390893702663604,22.0136700451065 L-14.3519030010597,21.91222575544508 L-14.308628280358407,21.81307580112025 L-14.261317567158942,21.716910719810585 L-14.210275382726476,21.62438710252851 L-14.155856256595543,21.5361127382717 L-14.098456573981048,21.452633384676652 L-14.038505147199523,21.37442176446199 L-13.976452972464575,21.301869240963374 L-13.912762666691176,21.235280448647526 L-13.847898072751061,21.17487096444504 L-13.782314479028773,21.120767921757885 L-13.711966098952466,21.0698105431066 L-13.639614546392513,21.024498497772107 L-13.56569617030371,20.985410769966716 L-13.490694194275164,20.95306680711006 " />
			<path d="M-13.343365094122763,21.002176507160605 L-13.418367070151655,21.034520470017398 L-13.492285446240457,21.073608197822793 L-13.56463699880041,21.118920243157284 L-13.634985378876717,21.16987762180857 L-13.700568972598985,21.22398066449571 L-13.76543356653912,21.284390148698208 L-13.829123872312518,21.35097894101406 L-13.89117604704748,21.42353146451269 L-13.951127473829024,21.50174308472738 L-14.008527156443487,21.585222438322386 L-14.062946282574407,21.67349680257917 L-14.113988467006886,21.76602041986127 L-14.16129918020636,21.86218550117096 L-14.204573900907643,21.961335455495764 L-14.24356460251153,22.06277974515714 L-14.278084285914106,22.165809667025613 L-14.308009395790641,22.26971431511225 L-14.33328009078416,22.373795994783382 L-14.353898467354362,22.477384428748113 L-14.369924950303997,22.579849209988453 L-14.381468232742208,22.68236294612045 L-14.38838563278567,22.78610098968217 L-14.390434993514651,22.890436237736136 L-14.38742572587524,22.994700517045946 L-14.379226192038649,23.098196916968913 L-14.365769608385548,23.200213911590076 L-14.3470580857901,23.300040732768863 L-14.323164514447665,23.39698333853408 L-14.294232120002265,23.490380248642566 L-14.26047165717893,23.579617501401497 L-14.222156353459171,23.66414202725146 L-14.179614854192696,23.743472832316243 L-14.1332225382781,23.817209529549487 L-14.083391659199231,23.885037931223287 L-14.030560812939676,23.94673260610846 L-13.975184240156079,24.00215648908221 L-13.954241686908864,24.020962170169675 " />
			<path d="M-14.996196139079501,23.05286837481965 L-15.006010358276722,22.971970554819013 L-15.012354582713444,22.88932600084538 L-15.015209791009413,22.805182499448932 L-15.014567422622168,22.719792331353897 L-15.01042940351342,22.63341151506548 L-15.002808140374599,22.546299039270046 L-14.991726483428863,22.4587160863301 L-14.977217657921106,22.37092524920209 L-14.959325164501358,22.283189744125007 L-14.938102648800283,22.195772621440156 L-14.913613740587765,22.108935976908423 L-14.885931862996868,22.02294016588951 L-14.855140012385135,21.938043022739304 L-14.821330509493256,21.854499087765788 L-14.78460472264717,21.77255884406118 L-14.745072763833546,21.692467966498565 L-14.70285315855981,21.614466585144562 L-14.65807249048862,21.538788565296585 L-14.610865021912193,21.465660806303234 L-14.56137229120443,21.39530256127015 L-14.509742688457731,21.327924779690978 L-14.456131010576872,21.26372947497438 L-14.400697997163826,21.202909118763415 L-14.343609848585091,21.145646063863214 L-14.285037727666433,21.092111997507164 L-14.225157246509081,21.042467426600822 L-14.164147939966039,20.996861196486897 L-14.102192727357089,20.955430044674195 L-14.03947736403645,20.918298190868477 L-13.97618988445737,20.885576964534465 L-13.91252003840347,20.857364471105615 L-13.84865872207717,20.833745297842473 " />
			<path d="M-13.776562470099865,23.992251766792407 L-13.843576982972563,24.00686244898216 L-13.910649232798471,24.01691385928568 L-13.977483283708118,24.022309096872103 L-14.04378163807371,24.022991275771844 L-14.109249604595316,24.01894483612806 L-14.173599646929699,24.010195956067157 L-14.236555578840466,23.996812045952662 L-14.297856477958772,23.978900344251617 " />
			<path d="M-14.29785647795913,23.978900344251496 L-14.342357477347518,23.962677008556327 L-14.385709825815402,23.9440872691043 L-14.427828167083895,23.923213802074415 L-14.468634973904672,23.900148255686126 L-14.508060920184363,23.874990256099764 L-14.546045142765175,23.847846358216426 L-14.582535393823438,23.818828961020106 L-14.617488087138717,23.788055206754667 L-14.650076955579966,23.75648865286507 L-14.681864527861045,23.722775566263017 L-14.712759564713187,23.686932400818524 L-14.742671623209407,23.648985598446316 L-14.771511761064259,23.6089718084407 L-14.799193257928168,23.566938003018578 L-14.825632343217837,23.522941481678732 L-14.850748919273382,23.477049758900044 L-14.874467268139473,23.429340331886557 L-14.896716730068592,23.37990032746316 L-14.91743234195998,23.328826029766233 L-14.936555424392962,23.27622229297662 L-14.969823780494638,23.166884497842013 L-14.996196139079405,23.05286837482013 " />
			<path d="M-13.838339840953356,20.83718492488375 L-13.913341816982244,20.86952888774054 L-13.987260193071045,20.908616615545938 L-14.059611745630994,20.953928660880425 L-14.1299601257073,21.00488603953171 L-14.195543719429555,21.05898908221884 L-14.260408313369693,21.119398566421342 L-14.324098619143104,21.185987358737204 L-14.386150793878056,21.25853988223582 L-14.4461022206596,21.33675150245051 L-14.50350190327408,21.420230856045542 L-14.557921029404985,21.508505220302304 L-14.608963213837468,21.60102883758441 L-14.65627392703694,21.697193918894097 L-14.699548647738219,21.796343873218884 L-14.738539349342116,21.897788162880286 L-14.773059032744694,22.000818084748765 L-14.80298414262122,22.104722732835377 L-14.82825483761475,22.20880441250654 L-14.84887321418495,22.312392846471273 L-14.864899697134579,22.41485762771159 L-14.876442979572792,22.517371363843605 L-14.883360379616253,22.62110940740532 L-14.885409740345235,22.72544465545927 L-14.88240047270582,22.829708934769094 L-14.874200938869231,22.93320533469206 L-14.860744355216132,23.035222329313196 L-14.842032832620685,23.13504915049201 L-14.81813926127825,23.23199175625722 L-14.78920686683285,23.325388666365708 L-14.755446404009506,23.414625919124653 L-14.717131100289757,23.499150444974596 L-14.674589601023284,23.578481250039374 L-14.62819728510868,23.652217947272636 L-14.578366406029822,23.720046348946415 L-14.525535559770269,23.781741023831586 L-14.470158986986661,23.837164906805352 L-14.413886215646281,23.8852586327278 L-14.35379479989628,23.928741768653847 L-14.290090420276488,23.967161513591567 L-14.22303342636653,24.000103566796284 " />
			<path d="M-14.150528610322361,24.02800963346265 L-14.098228328573628,24.04360095614103 L-14.044691431471097,24.05589586541088 L-13.990078666295494,24.064822049148276 L-13.934559514980151,24.070328189823556 " />
			<path d="M-12.995719447444236,21.118058389386782 L-12.920457887515004,21.09298744138158 " />
			<path d="M-13.490694194274818,20.953066807109924 L-13.441446525540409,20.935822038722034 L-13.392110299800422,20.921738270103386 L-13.342840148652764,20.910900159476874 L-13.293792586754767,20.90337308757749 L-13.24512438951661,20.899202159288564 L-13.196990940687938,20.898411510394524 L-13.149544585985925,20.9010039393724 L-13.102933029199981,20.90696087482165 " />
			<path d="M-13.052400097419728,20.947475110284824 L-13.124162385497263,20.950158022391008 L-13.196918920741691,20.960274306227422 L-13.270156926259016,20.977690933134642 L-13.343365094122591,21.002176507160545 " />
			<path d="M-13.700377208390954,20.79693286521702 L-13.769384851968889,20.813929511938152 L-13.838339840953184,20.837184924883683 " />
			<path d="M-9.146438110443095,22.55985668886135 L-9.15069354193341,22.72391129836181 L-9.161957043354354,22.889706424605794 " />
			<path d="M-10.17191559106652,25.306257837074753 L-10.19586989288104,25.333226171354145 " />
			<path d="M-15.201243032953002,19.679897678677342 L-15.350622420508016,19.860984836658524 L-15.494592641340493,20.046598468001818 " />
			<path d="M-16.57054942671592,23.436164788802202 L-16.56432614918511,23.571730632327057 L-16.55011889846339,23.711615693526657 L-16.53970775910008,23.783347542877564 L-16.526924397572017,23.85636273119485 L-16.511643404256855,23.930729103327746 L-16.493739369532253,24.006514504125484 L-16.47307068836031,24.083795539930286 L-16.449480448677466,24.162657097970868 L-16.422820280322895,24.2431794444262 L-16.392941813135767,24.32544284547525 L-16.359624343480636,24.40964129529714 L-16.32284128465344,24.495627353838007 L-16.2827354418904,24.582969135927392 L-16.239449620427745,24.67123475639481 " />
			<path d="M-16.239449620427745,24.671234756394814 L-16.19337941945388,24.7596223998185 L-16.144317585616186,24.848705574013756 L-16.092336600031366,24.93846742769926 L-16.03750894381613,25.02889110959367 L-15.919603543961228,25.2116565528839 L-15.791181234985144,25.396867093633798 L-15.653704985949792,25.583347234213903 L-15.508903867946984,25.769854306680326 L-15.35775688295522,25.95615274531077 L-15.201243032953007,26.142006984382935 " />
			<path d="M-16.571019829645373,23.367544597094337 L-16.57054942671592,23.436164788802188 " />
			<path d="M-15.111899098662096,26.18100266563706 L-13.202710789458425,26.81739876870495 " />
			<path d="M-15.1118990986621,26.181002665637063 L-15.024729484818728,26.10215567405829 L-14.927808433290712,26.024305455009554 L-14.820454409776541,25.94808388397313 L-14.762652054055424,25.910781302547754 L-14.701985879974702,25.87412283643131 L-14.63831583847518,25.83813687638759 L-14.57146404456886,25.802819027597625 L-14.501288552574849,25.76819909612257 L-14.427647416812256,25.734306888023582 L-14.350266362608465,25.701130214368764 L-14.269094101699345,25.668721601236975 L-14.18432316801673,25.63720792720551 L-14.096146095492468,25.606716070851665 " />
			<path d="M-14.096146095492461,25.60671607085166 L-13.910901187816716,25.54929246936667 L-13.715243130883396,25.496721578818022 L-13.509782998203002,25.448718628188427 L-13.295131863286038,25.404998846460593 L-13.071763431883227,25.36522412474396 L-12.842104631152194,25.329281113996213 L-12.609024635489142,25.297067318539895 L-12.373286311136274,25.268131736461786 " />
			<path d="M-12.373286311136262,25.268131736461786 L-10.464098001932593,25.904527839529674 " />
			<path d="M-13.202710789458424,26.817398768704955 L-10.464098001932589,25.904527839529678 " />
			<path d="M-15.201243032953005,26.142006984382945 L-15.111899098662109,26.18100266563706 " />
			<path d="M-12.283942376845353,25.16957343234706 L-10.374754067641684,25.80596953541495 " />
			<path d="M-12.283942376845356,25.16957343234706 L-12.277719099314544,24.929807485367974 L-12.271676175413717,24.80979887226447 L-12.263511848592822,24.68969933240644 L-12.253100709229514,24.569503490534988 L-12.240317347701453,24.449205971391198 L-12.225036354386292,24.32880139971616 L-12.207132319661694,24.208284400250967 L-12.186463638489752,24.08764890357505 L-12.162873398806905,23.966888184184 L-12.13621323045233,23.845995882693163 L-12.1063347632652,23.72496563971787 L-12.073017293610075,23.6036528522463 L-12.036234234782878,23.482349548310538 L-11.996128392019838,23.361704315091803 L-11.952842570557179,23.242365739771294 " />
			<path d="M-11.952842570557177,23.24236573977129 L-11.906772369583313,23.125415672347117 L-11.85771053574562,23.010009356241017 L-11.8057295501608,22.896109389530853 L-11.750901893945562,22.78367837029448 L-11.693300048216614,22.672678896609757 L-11.632996494090664,22.56307356655454 L-11.570063712684417,22.454824978206684 L-11.504574185114583,22.34789572964405 L-11.436812856841497,22.24251683226478 L-11.367097936079233,22.13890333418433 L-11.295551798075104,22.036993888556523 L-11.222296818076424,21.936727148535187 L-11.147455371330503,21.83804176727415 L-11.071149833084657,21.740876397927227 L-10.914635983082446,21.550860307591055 " />
			<path d="M-10.914635983082437,21.550860307591048 L-9.005447673878768,22.187256410658936 " />
			<path d="M-10.374754067641684,25.805969535414956 L-9.005447673878768,22.18725641065894 " />
			<path d="M-12.373286311136262,25.268131736461783 L-12.28394237684538,25.169573432347086 " />
			<path d="M-10.464098001932587,25.904527839529674 L-10.374754067641705,25.805969535414977 " />
			<path d="M-10.914635983082439,21.413306322222198 L-9.005447673878768,22.049702425290086 " />
			<path d="M-10.91463598308244,21.413306322222198 L-11.070936138263786,21.22771485281383 L-11.221270775906683,21.042453995973837 L-11.364890260927263,20.85756529692924 L-11.501044958241652,20.673090300907063 L-11.628925391574027,20.489073869569154 L-11.74763058701666,20.305565935431133 L-11.803302093491187,20.21391614000278 L-11.856277961583514,20.12253247837353 L-11.906233138277543,20.031907584973812 L-11.952842570557175,19.94253409423407 " />
			<path d="M-11.952842570557177,19.94253409423407 L-11.995686206557911,19.855221972468094 L-12.03517091942417,19.76933117192998 L-12.071378088961163,19.684827256927086 L-12.104389094974104,19.601675791766773 L-12.134285317268203,19.519842340756398 L-12.16114813564867,19.43929246820332 L-12.185058929920716,19.359991738414898 L-12.206099079889555,19.281905715698485 L-12.22433445453853,19.2051923859599 L-12.239867462208979,19.12999486402369 L-12.252834291743092,19.056256407575297 L-12.263371131983062,18.983920274300175 L-12.271614171771082,18.91292972188378 L-12.277699599949342,18.84322800801156 L-12.283942376845356,18.707464126641465 " />
			<path d="M-12.283942376845353,18.707464126641465 L-10.374754067641684,19.343860229709353 " />
			<path d="M-9.005447673878766,22.04970242529009 L-10.374754067641678,19.343860229709353 " />
			<path d="M-10.914635983082443,21.550860307591044 L-10.91463598308244,21.413306322222233 " />
			<path d="M-9.005447673878768,22.187256410658936 L-9.005447673878766,22.04970242529012 " />
			<path d="M-12.373286311136262,18.668468445387344 L-10.464098001932593,19.30486454845523 " />
			<path d="M-12.373286311136262,18.668468445387344 L-12.609024635489147,18.697404027465456 L-12.842104631152196,18.72961782292177 L-13.071763431883225,18.765560833669515 L-13.295131863286036,18.80533555538615 L-13.509782998203002,18.849055337113985 L-13.715243130883396,18.89705828774358 L-13.910901187816716,18.949629178292223 L-14.096146095492456,19.007052779777215 " />
			<path d="M-14.096146095492461,19.00705277977722 L-14.184323168016732,19.037544636131067 L-14.269094101699345,19.069058310162532 L-14.350266362608465,19.10146692329432 L-14.427647416812256,19.134643596949136 L-14.501288552574847,19.168535805048123 L-14.571464044568856,19.20315573652318 L-14.638315838475176,19.238473585313148 L-14.701985879974698,19.27445954535687 L-14.762652054055422,19.311118011473308 L-14.82045440977654,19.348420592898687 L-14.927808433290712,19.424642163935108 L-15.024729484818728,19.50249238298385 L-15.111899098662096,19.581339374562614 " />
			<path d="M-12.283942376845355,18.70746412664146 L-12.373286311136244,18.66846844538735 " />
			<path d="M-10.37475406764168,19.343860229709357 L-10.46409800193257,19.304864548455242 " />
			<path d="M-15.111899098662096,19.58133937456262 L-15.201243032952998,19.67989767867734 " />
			<path d="M-10.2526910127533,26.2111824597694 L-12.637025364509194,27.005960577021366 " />
			<path d="M26.517586654123836,38.231756058215154 L-8.367473313640811,26.603402735626936 " />
			<path d="M25.501833650954204,38.80604265300055 L25.589842214348565,38.775615113638466 L25.674104455409182,38.744294350441976 L25.75472716326754,38.71210582480735 L25.831817127055118,38.679074998130865 L25.90548113590341,38.6452273318088 L25.9758259789439,38.610588287237405 L26.04295844530807,38.575183325812965 L26.106985324127407,38.53903790893175 L26.168074479174116,38.502145704620396 L26.226309489277313,38.464581765130816 L26.334138521520547,38.3880288315538 L26.430779907889498,38.31033549966611 L26.51758665412382,38.231756058215154 " />
			<path d="M23.778973866597987,39.14462698739043 L24.015514841334305,39.11557044944264 L24.249065498480526,39.08326343226664 L24.477730211589794,39.047478757761915 L24.699613354215245,39.007989247827965 L24.913524780716305,38.964481969359355 L25.119061199438445,38.91654309344049 L25.315817059798263,38.86369198840285 L25.5018336509542,38.80604265300055 " />
			<path d="M23.778973866598,39.14462698739043 L-9.575158770815058,28.026582774919408 " />
			<path d="M-11.858507974163857,27.265466373803143 L-12.637025364509185,27.00596057702137 " />
			<path d="M26.606930588414745,38.133197754100436 L-8.29941623791495,26.497748811990533 " />
			<path d="M26.517586654123825,38.231756058215154 L26.606930588414706,38.13319775410046 " />
			<path d="M27.97623698217766,34.514484629344416 L-6.988984882224308,22.859410674543756 " />
			<path d="M27.645137175889477,36.441692321920186 L27.68798081189021,36.3236667328383 L27.727465524756468,36.20506804307506 L27.76367269429346,36.08591013768228 L27.796683700306403,35.966206901711814 L27.8265799226005,35.84597222021547 L27.85344274098097,35.7252199782451 L27.877353535253018,35.60396406085251 L27.89839368522186,35.48221835308954 L27.916629059870836,35.36033080450223 L27.93216206754128,35.23865666872451 L27.945128897075392,35.11722078694003 L27.95566573731536,34.99604800033246 L27.963908777103377,34.87516315008545 L27.969994205281637,34.75459107738266 L27.976236982177646,34.51448462934442 " />
			<path d="M26.60693058841473,38.133197754100436 L26.756309975969753,37.952110596119255 L26.900280196802232,37.76649696477596 " />
			<path d="M26.900280196802232,37.76649696477595 L27.010741020273226,37.61492011848653 L27.11701867430086,37.45984273209068 L27.218780887131107,37.30098675550772 L27.315647968527745,37.13803445814656 L27.40722092337166,36.970651954795116 L27.493143483957137,36.79837029065506 L27.572821355454355,36.621394058295145 L27.645137175889477,36.44169232192019 " />
			<path d="M27.97623698217766,34.37693064397557 L-6.972806942164311,22.727249335861575 " />
			<path d="M27.976236982177646,34.514484629344416 L27.976707385107098,34.44555083568347 " />
			<path d="M27.976707385107098,34.44555083568344 L27.976236982177646,34.376930643975605 " />
			<path d="M-9.791398310992454,19.567339810513744 L-8.654588705762011,21.813752601825524 " />
			<path d="M26.606930588414745,31.671088448394837 L-7.045583640621697,20.453583705382684 " />
			<path d="M-9.321760048386711,19.69485823612768 L-9.779885586739528,19.542149723343407 " />
			<path d="M27.645137175889477,33.141860676382976 L27.599066974915612,33.05347303295928 L27.550005141077918,32.96438985876402 L27.4980241554931,32.87462800507852 L27.44319649927786,32.784204323184106 L27.325291099422962,32.60143887989387 L27.19686879044688,32.41622833914398 L27.05939254141153,32.229748198563875 L26.914591423408723,32.04324112609745 L26.763444438416954,31.856942687467008 L26.606930588414738,31.671088448394844 " />
			<path d="M27.976236982177646,34.37693064397557 L27.97001370464684,34.24136480045071 L27.955806453925113,34.101479739251104 L27.945395314561804,34.0297478899002 L27.932611953033742,33.956732701582915 L27.91733095971858,33.88236632945002 L27.899426924993982,33.80658092865228 L27.878758243822045,33.72929989284748 L27.855168004139202,33.65043833480691 L27.82850783578463,33.569915988351575 L27.798629368597496,33.48765258730253 L27.765311898942368,33.403454137480644 L27.728528840115175,33.31746807893977 L27.68842299735214,33.230126296850386 L27.645137175889477,33.141860676382976 " />
			<path d="M26.517586654123836,31.632092767140715 L-7.047537225987586,20.4437181404369 " />
			<path d="M-9.33088642933642,19.682601739320624 L-9.775980479726474,19.534237055857275 " />
			<path d="M26.606930588414734,31.671088448394833 L26.517586654123846,31.632092767140723 " />
			<path d="M-12.726369298800096,26.96696489576724 L-12.743799782454895,26.932521079264692 " />
			<path d="M-12.637025364509187,27.005960577021366 L-12.726369298800094,26.966964895767248 " />
			<path d="M27.64513717588948,36.441692321920186 L27.684477423680875,36.334192953002514 L27.72148044185117,36.225806960278874 L27.75610660664168,36.116650406185045 L27.78831883948786,36.00684017829323 L27.81808264672395,35.89649386414589 L27.84536615651966,35.785729625340096 L27.87014015300932,35.674666070997105 L27.892378107576974,35.56342213075274 L27.912056207263863,35.452116927404575 L27.929153380267962,35.34086964935224 L27.943651318508184,35.22979942296753 L27.955534497229127,35.11902518503085 L27.964790191625372,35.008665555370776 L27.97140849046753,34.898838709842956 L27.97538230671544,34.78966225378445 L27.976707385107115,34.681253096079 " />
			<path d="M26.98675789144591,37.651101577062576 L27.084735048497635,37.51521476068806 L27.17868233057047,37.37421326441613 L27.268360559278495,37.228456060955196 L27.353541424727872,37.07831423046737 L27.434008066766168,36.92417001584341 L27.509555627082005,36.76641584955865 L27.579991770749462,36.60545335458752 L27.64513717588947,36.441692321920215 " />
			<path d="M-13.369511919738638,23.567398269197675 L-13.355167028725658,23.442080170450826 L-13.336935605837073,23.316403874980015 L-13.314851595393518,23.190603374201938 L-13.28895611468661,23.064912890785926 L-13.259297377424382,22.93956644256461 L-13.225930603964205,22.81479740682594 L-13.188917918500332,22.690838085797814 L-13.148328233397455,22.56791927413431 L-13.104237120885685,22.446269829208823 L-13.056726672355774,22.326116245014124 L-13.005885345516614,22.20768223046271 L-12.951807799699536,22.091188292872562 L-12.894594719616078,21.97685132741386 L-12.834352627897356,21.864884213280945 L-12.77119368676404,21.7554954173415 L-12.705235489196232,21.64888860600085 " />
			<path d="M-14.096146095492461,19.00705277977723 L-14.195655762898213,19.042891136175843 L-14.295004489796458,19.084008464458783 L-14.394031595974468,19.130338264115565 L-14.49257692138809,19.18180560432123 L-14.590481085194261,19.238327245124644 L-14.687585743523272,19.299811772075394 L-14.783733845573929,19.366159744071638 L-14.878769887617365,19.437263854189702 L-14.972540164498726,19.51300910323537 L-15.064893018229963,19.59327298573615 L-15.155679083271659,19.67792568807372 L-15.244751528107205,19.766830298436087 L-15.331966292718612,19.859843028249884 L-15.41718232157987,19.956813444734756 L-15.500261791791054,20.05758471420359 L-15.581070335984167,20.1619938557152 " />
			<path d="M-15.58107033598417,20.161993855715203 L-15.67904749303589,20.297880672089722 L-15.77299477510873,20.438882168361648 L-15.862673003816754,20.584639371822583 L-15.94785386926613,20.734781202310405 L-16.028320511304425,20.888925416934367 L-16.103868071620262,21.04667958321913 L-16.17430421528772,21.20764207819026 L-16.239449620427735,21.371403110857585 " />
			<path d="M-11.952842570557184,19.942534094234077 L-11.994477921446979,19.863793362732377 L-12.038363791258588,19.78766875433325 L-12.084453185903396,19.71424178517408 L-12.132696751703206,19.64359108269259 L-12.183042828239389,19.575792301430607 L-12.235437503672157,19.510918042021274 L-12.289824672470715,19.44903777344649 L-12.346146095492465,19.390217758647783 L-12.404341462346933,19.334520983570275 L-12.464348455977659,19.282007089715773 L-12.526102819392849,19.232732310277143 L-12.589538424473385,19.186749409922413 L-12.654587342784454,19.14410762829302 L-12.721179918315032,19.104852627276806 L-12.789244842067282,19.069026442112076 L-12.858709228416004,19.036667436375257 L-12.929498693156406,19.0078102609002 L-13.00153743315656,18.982485816673194 L-13.0747483075293,18.960721221743427 L-13.149052920236617,18.94253978218429 L-13.224371704038095,18.927960967136663 L-13.300624005693507,18.917000387960858 L-13.377728172328334,18.909669781519586 L-13.455601638869693,18.905976997609837 L-13.534161016459091,18.90592599055712 L-13.61332218174731,18.909516814981057 L-13.693000366975788,18.91674562573692 L-13.773110250748061,18.927604682033085 L-13.853566049394052,18.94208235572009 L-13.934281608829371,18.960163143742314 L-14.015170496811272,18.98182768473907 L-14.096146095492438,19.00705277977722 " />
			<path d="M-11.952842570557184,23.242365739771294 L-11.91350232276579,23.134866370853626 L-11.876499304595498,23.02648037812999 L-11.841873139804989,22.917323824036167 L-11.809660906958808,22.80751359614435 L-11.779897099722717,22.697167281997018 L-11.75261358992701,22.586403043191233 L-11.727839593437348,22.475339488848242 L-11.705601638869698,22.36409554860388 L-11.68592353918281,22.25279034525572 L-11.668826366178708,22.141543067203393 L-11.654328427938484,22.030472840818682 L-11.642445249217543,21.919698602882004 L-11.633189554821296,21.809338973221934 L-11.626571255979135,21.69951212769412 L-11.622597439731228,21.590335671635618 L-11.62127236133955,21.48192651393014 L-11.622597439731228,21.374400741819116 L-11.626571255979133,21.26787349659255 L-11.633189554821296,21.162458850292843 L-11.642445249217543,21.058269683563605 L-11.654328427938484,20.955417564774223 L-11.668826366178708,20.85401263054966 L-11.68592353918281,20.7541634678334 L-11.705601638869698,20.655976997609834 L-11.727839593437348,20.559558360410573 L-11.752613589927009,20.465010803727356 L-11.779897099722717,20.37243557145204 L-11.809660906958808,20.2819317954621 L-11.841873139804987,20.19359638946774 L-11.876499304595498,20.107523945234256 L-11.91350232276579,20.023806631290814 L-11.952842570557173,19.942534094234098 " />
			<path d="M-14.096146095492461,25.606716070851657 L-14.015170496811274,25.577957433435692 L-13.934281608829371,25.545696049111182 L-13.853566049394052,25.50996646417653 L-13.773110250748061,25.470806938766202 L-13.69300036697579,25.428259405880855 L-13.613322181747312,25.3823694264844 L-13.534161016459093,25.33318614071619 L-13.455601638869695,25.28076221527054 L-13.377728172328338,25.225153786999886 L-13.30062400569351,25.166420402802064 L-13.224371704038095,25.104624955855982 L-13.149052920236617,25.039833618274034 L-13.074748307529301,24.972115770243356 L-13.001537433156562,24.90154392573176 L-12.929498693156408,24.828193654837985 L-12.858709228416005,24.752143502869327 L-12.789244842067282,24.67347490623336 L-12.721179918315034,24.5922721052338 L-12.654587342784456,24.50862205386386 L-12.589538424473385,24.422614326693758 L-12.52610281939285,24.334341022952003 L-12.46434845597766,24.243896667903247 L-12.404341462346933,24.15137811162826 L-12.346146095492465,24.05688442531444 L-12.289824672470717,23.960516795167898 L-12.235437503672157,23.862378414060746 L-12.18304282823939,23.76257437102957 L-12.132696751703207,23.66121153874346 L-12.084453185903396,23.558398459062097 L-12.038363791258588,23.45424522680639 L-11.994477921446979,23.348863371866187 L-11.952842570557197,23.242365739771323 " />
			<path d="M-16.239449620427738,24.67123475639481 L-16.197814269537943,24.749975487896506 L-16.153928399726336,24.826100096295633 L-16.107839005081527,24.8995270654548 L-16.05959543928172,24.970177767936292 L-16.009249362745535,25.03797654919828 L-15.956854687312765,25.102850808607613 L-15.902467518514207,25.164731077182395 L-15.84614609549246,25.223551091981104 L-15.787950728637991,25.27924786705861 L-15.727943735007266,25.331761760913114 L-15.666189371592072,25.381036540351744 L-15.602753766511537,25.427019440706474 L-15.537704848200466,25.469661222335866 L-15.471112272669888,25.508916223352085 L-15.40304734891764,25.544742408516814 L-15.333582962568919,25.57710141425363 L-15.262793497828516,25.605958589728687 L-15.190754757828362,25.631283033955693 L-15.117543883455623,25.65304762888546 L-15.043239270748305,25.671229068444596 L-14.967920486946827,25.685807883492224 L-14.891668185291412,25.69676846266803 L-14.814564018656586,25.7040990691093 L-14.736690552115228,25.70779185301905 L-14.658131174525831,25.707842860071768 L-14.578970009237612,25.70425203564783 L-14.499291824009134,25.697023224891968 L-14.41918194023686,25.686164168595802 L-14.33872614159087,25.671686494908798 L-14.258010582155551,25.653605706886573 L-14.17712169417365,25.631941165889817 L-14.096146095492472,25.60671607085166 " />
			<path d="M-16.239449620427738,21.371403110857592 L-16.278789868219132,21.478902479775265 L-16.315792886389428,21.587288472498905 L-16.350419051179937,21.696445026592734 L-16.382631284026118,21.80625525448455 L-16.41239509126221,21.91660156863189 L-16.43967860105792,22.027365807437683 L-16.46445259754758,22.138429361780677 L-16.48669055211523,22.24967330202504 L-16.50636865180212,22.360978505373204 L-16.52346582480622,22.472225783425536 L-16.53796376304644,22.583296009810248 L-16.549846941767385,22.69407024774693 L-16.55910263616363,22.804429877407003 L-16.56572093500579,22.91425672293482 L-16.569694751253696,23.02343317899333 L-16.571019829645373,23.131842336698792 " />
			<path d="M-16.571019829645373,23.13184233669881 L-16.569694751253692,23.239368108809828 L-16.565720935005785,23.34589535403639 L-16.559102636163622,23.451310000336093 L-16.549846941767374,23.555499167065328 L-16.53796376304643,23.658351285854703 L-16.52346582480621,23.75975622007926 L-16.50636865180211,23.859605382795515 L-16.48669055211522,23.957791853019078 L-16.46445259754757,24.054210490218335 L-16.43967860105791,24.148758046901545 L-16.4123950912622,24.24133327917686 L-16.38263128402611,24.331837055166794 L-16.350419051179934,24.420172461161155 L-16.315792886389424,24.506244905394635 L-16.278789868219132,24.589962219338073 L-16.239449620427745,24.671234756394796 " />
			<path d="M-15.1735284105067,23.728272480490006 L-15.212319585423089,23.656964684297883 L-15.248257929930489,23.5819806006497 L-15.281163744257974,23.50355183938661 L-15.310877428064435,23.421940398633435 L-15.337261891246644,23.337435880521017 L-15.360204577788123,23.250352126882387 L-15.379619041883288,23.16102335520375 L-15.395446030653433,23.06979989405316 L-15.407654045091315,22.9770436318196 L-15.416239369458646,22.88312330202265 L-15.4212255781579,22.788409732205835 L-15.422662547051601,22.69327118140831 L-15.420625012340038,22.59806888371601 L-15.415210733626243,22.503152903077844 L-15.406538328106404,22.408858388369918 L-15.394744849586164,22.315502298731165 L-15.377883070252727,22.21098592278939 L-15.357028935717475,22.105427042572654 L-15.332131467614547,21.999277431300605 L-15.303175224065399,21.893015506749006 L-15.270182494355222,21.787140258242516 L-15.233214731565006,21.682164310686613 L-15.19237312450659,21.578606300159816 L-15.147798241911556,21.476982778591058 L-15.09966871955235,21.377799898597235 L-15.048199002550426,21.28154515056658 L-14.993636197772986,21.188679430331185 L-14.936256131925646,21.099629706253406 L-14.876358746764097,21.014782529563277 L-14.81426299119962,20.93447859298525 L-14.750301389029527,20.85900849292204 L-14.684814469486628,20.788609793448767 " />
			<path d="M-14.996196139079501,23.05286837481965 L-15.02221722507316,22.987245090989084 L-15.045588139319786,22.920098781445283 L-15.06630250900264,22.851502653103424 L-15.08435396130497,22.781529912878682 L-15.099736123410034,22.710253767686226 L-15.112442622501083,22.637747424441233 L-15.122467085761372,22.564084090058873 L-15.129803140374154,22.48933697145433 L-15.134385143618957,22.413929810693176 L-15.136334164658116,22.33823702655341 L-15.135923898499094,22.262257841018823 L-15.13342804014935,22.185991476073205 L-15.128944064991549,22.10934080141172 L-15.122405779842472,22.032434939083945 L-15.11384137686078,21.955612489605308 L-15.10327904820513,21.879212053491234 L-15.090726024089319,21.803341392594085 L-15.076192185295168,21.727961171743935 L-15.059709699833364,21.653189345922787 L-15.041310735714587,21.579143870112638 L-15.021027460949528,21.505942699295492 L-14.998892043548869,21.43370378845334 L-14.974936651523297,21.362545092568187 L-14.949193452883497,21.292584566622033 L-14.921737925023173,21.22399169295977 L-14.892639256782799,21.156892408993503 L-14.861920183343207,21.091339352306022 L-14.829603439885236,21.02738516048013 L-14.79571176158972,20.965082471098622 L-14.760267883637493,20.904483921744294 L-14.723294541209393,20.84564214999995 L-14.684814469486257,20.788609793448387 " />
			<path d="M-14.096146095492461,20.421266342150307 L-14.172003208448004,20.449266604204887 L-14.247641911838377,20.482615362725394 L-14.322844424948318,20.521216599190115 L-14.397394222951766,20.564959172020593 L-14.471076660335191,20.613717136583038 L-14.543679588909947,20.667350107811057 L-14.614993968634275,20.725703664405607 L-14.684814469486252,20.788609793448384 " />
			<path d="M-14.684814469486254,20.788609793448384 L-14.74590875062761,20.848660681789593 L-14.805502586083277,20.912078931285603 L-14.863458360506181,20.97871809517143 L-14.919642241194477,21.048424288878362 L-14.973924487140865,21.12103654538746 L-15.026179748633265,21.19638718693802 L-15.076287356715037,21.274302212232584 L-15.12413160183628,21.354601698244448 L-15.169602001052787,21.437100215699708 L-15.212593553155589,21.521607257274482 L-15.253006981141976,21.60792767751844 L-15.290748961468058,21.695862143488828 L-15.325732339553463,21.785207595054306 L-15.35787633104054,21.875757713805722 L-15.387106708343316,21.967303399490934 L-15.4133559720554,22.05963325287355 " />
			<path d="M-12.839854672901016,18.014448359831388 L-12.864040583868624,18.082021859112345 L-12.883069702152447,18.151116803210357 L-12.89670206105907,18.22086187034268 L-12.904765749728433,18.29037754035015 L-12.907159081015717,18.358787185886 L-12.903851873817064,18.425228127124917 L-12.894885833668383,18.48886251058683 L-12.880374026817694,18.54888787488813 " />
			<path d="M-15.933986745466985,26.114408872566166 L-15.94498744184772,26.05658687599804 L-15.951097786205938,25.995936761355814 L-15.952250571668523,25.933125611265293 L-15.948433118899949,25.868844277296667 L-15.939687415560613,25.803799781379023 L-15.926109654490093,25.738707539359254 L-15.907849175694766,25.67428349223735 L-15.885106823776745,25.611236231625586 " />
			<path d="M-12.827297204613814,18.72745216539755 L-12.8803740268177,18.548887874888134 " />
			<path d="M-12.53544239068183,17.636286452141317 L-12.581592485102002,17.66614931958357 L-12.626351438335002,17.701913317341607 L-12.669226952547145,17.74318508191274 L-12.709747445602568,17.789510670592257 L-12.747467237933048,17.840380554329467 L-12.7819714545089,17.89523522197063 L-12.812880587994801,17.953471334248473 L-12.839854672901012,18.01444835983138 " />
			<path d="M-12.535442390681833,17.63628645214132 L-12.449395942243553,17.58807459740399 L-12.3630728508391,17.542077098790855 L-12.276507892351233,17.498312486727485 L-12.189735940100611,17.456798392104904 L-12.102791950796846,17.41755153917689 L-12.01571095045591,17.38058773882248 L-11.928528020289669,17.345921882176437 L-11.841278282573153,17.313567934630257 L-11.753996886495308,17.2835389302061 L-11.66671899399887,17.255846966305956 L-11.579479765615137,17.230503198838097 L-11.492314346299283,17.20751783772286 L-11.405257851271974,17.186900142779493 L-11.318345351872932,17.168658419995772 L-11.231611861432192,17.15280001818188 L-11.145092321164745,17.139331326009874 L-11.058821586094192,17.12825776943997 L-10.972834411011165,17.11958380953466 L-10.887165436472102,17.113312940661537 L-10.801849174844044,17.10944768908555 L-10.716919996401076,17.1079896119513 L-10.63241211547803,17.108939296655727 L-10.548359576686966,17.112296360611467 L-10.464796241202073,17.11805945140098 L-10.381755773118448,17.126226247321398 L-10.299271625890263,17.13679345831981 L-10.217377028853805,17.149756827318715 L-10.136104973840789,17.165111131930992 L-10.055488201887375,17.18285018656379 L-9.975559190044189,17.20296684491044 L-9.896350138292718,17.225453002829383 L-9.81789295657332,17.25029960160899 " />
			<path d="M-9.817892956573303,17.250299601608994 L-9.723023094387482,17.283875347767008 L-9.629381853516872,17.32094529492395 L-9.537025639943504,17.36148711352978 L-9.446010085597011,17.405476382708933 L-9.356390014844042,17.452886604970516 L-9.26821941146411,17.50368922216942 L-9.181551386131778,17.55785363270868 L-9.09643814442478,17.61534720997273 L-9.012930955377332,17.676135321980436 L-8.931080120597581,17.740181352246147 L-8.850934943967797,17.80744672183607 L-8.772543701945562,17.87789091260677 L-8.695953614483834,17.951471491611805 L-8.621210816587409,18.028144136661744 L-8.548360330522929,18.10786266302218 L-8.477446038699142,18.1905790512337 L-8.408510657233787,18.276243476037017 L-8.341595710223002,18.364804336385816 L-8.276741504728754,18.45620828652934 L-8.213987106499374,18.55040026814583 L-8.153370316437822,18.64732354350762 L-8.09492764783182,18.746919729657836 L-8.038694304359627,18.849128833578078 L-7.984704158884649,18.953889288325993 L-7.9329897330516985,19.061137990120884 L-7.8835821776971695,19.17081033635507 L-7.836511254084941,19.282840264508103 L-7.7918053159793015,19.39716029194033 L-7.749491292565702,19.51370155654193 L-7.709594672229628,19.632393858212854 L-7.672139487203334,19.753165701148774 L-7.637148299089744,19.87594433690746 L-7.604642185272171,20.00065580822971 L-7.574640726218096,20.12722499358847 L-7.547161993684628,20.255575652439205 L-7.522222539832749,20.385630471144356 L-7.499837387256913,20.51731110954421 L-7.480020019935996,20.650538248146038 L-7.462782375111055,20.78523163590324 L-7.4481348360947734,20.92131013855554 L-7.436086226016949,21.05869178750124 L-7.426643802509766,21.197293829172043 L-7.419813253336068,21.33703277488072 L-7.415598692963271,21.477824451111545 L-7.414002660084948,21.619584050223295 L-7.415026116091624,21.762226181534206 L-7.418668444491674,21.905664922758103 L-7.424927451282662,22.04981387176079 L-7.433799366272939,22.19458619860547 L-7.445278845352655,22.339894697855836 L-7.459358973712859,22.485651841105373 L-7.476031270010715,22.631769829701202 L-7.495285691478353,22.778160647630692 L-7.517110639972248,22.924736114539026 L-7.541492968959518,23.07140793884576 L-7.56841799143689,23.218087770928328 L-7.597869488777619,23.364687256340606 L-7.629829720500967,23.51111808903429 L-7.664279434958416,23.657292064551157 L-7.701197880930133,23.80312113315416 L-7.740562820124734,23.948517452865275 L-7.782350540574798,24.09339344237822 L-7.826535870920072,24.23766183381418 L-7.87309219556975,24.381235725288693 L-7.921991470734715,24.52402863325811 L-7.973204241320072,24.66595454461404 L-8.026699658667788,24.806927968494435 L-8.082445499138775,24.946863987780088 L-8.140408183523203,25.08567831024552 L-8.200552797267367,25.223287319333483 L-8.262843111504896,25.35960812452244 L-8.327241604879681,25.4945586112567 L-8.393709486147324,25.628057490409176 L-8.462206717541548,25.760024347246926 L-8.532692038891435,25.89037968986993 L-8.605122992475017,26.019044997094106 L-8.67945594859423,26.14594276574948 L-8.755646131855789,26.270996557365233 L-8.833647648142236,26.394131044213353 L-8.913413512256822,26.515272054683265 L-8.994895676225646,26.63434661796001 L-9.078045058239944,26.751283007979154 L-9.162811572221147,26.86601078663189 L-9.249144157990857,26.978460846194295 L-9.33699081202759,27.08856545095528 L-9.426298618791753,27.196258278018 L-9.517013782599983,27.301474457250336 L-9.609081660029663,27.404150610360198 L-9.702446792834067,27.50422488907227 L-9.79705294134834,27.601637012383065 L-9.892843118366173,27.69632830287198 L-9.989759623466753,27.788241722046358 L-10.087744077771347,27.877321904699354 L-10.18673745910856,27.96351519225986 L-10.286680137567078,28.046769665114425 L-10.387511911414489,28.12703517388168 L-10.48917204336057,28.20426336962047 L-10.591599297143162,28.278407732953436 L-10.694731974414577,28.34942360208853 L-10.798507951906412,28.417268199721647 L-10.902864718850259,28.481900658804047 L-11.00773941463186,28.543282047159135 L-11.113068866655999,28.60137539093377 L-11.218789628399293,28.65614569686991 L-11.324838017628023,28.707559973383255 L-11.431150154757923,28.75558725043613 L-11.537662001332855,28.800198598192704 L-11.644309398599173,28.841367144445208 L-11.751028106152567,28.879068090800768 L-11.85775384063408,28.913278727619037 L-11.964422314451989,28.943978447691606 L-12.07096927450626,28.971148758655048 L-12.1773305408922,28.994773294129992 L-12.283442045560045,29.01483782357965 L-12.389239870907147,29.03133026088175 L-12.494660288279555,29.04424067160874 L-12.599639796359762,29.05356127901196 L-12.70411515941754,29.059286468706027 L-12.808023445400773,29.061412792050746 L-12.911302063843356,29.059938968228444 L-13.013888803567381,29.05486588501548 L-13.115721870156808,29.04619659824749 L-13.216739923180096,29.033936329978655 L-13.316882113139421,29.01809246533614 L-13.416088118124105,28.998674548071566 L-13.514298180146298,28.975694274812213 L-13.611453141136948,28.949165488015396 L-13.70749447858038,28.919104167630326 " />
			<path d="M-13.707494478580415,28.919104167630316 L-13.806578784115011,28.883945078093614 L-13.90431935490588,28.844973325754104 L-14.000651932251298,28.802214532256812 L-14.095513183122785,28.755696809004554 L-14.188840741802856,28.705450738676348 L-14.280573250886832,28.651509355121085 L-14.370650401621738,28.5939081216397 L-14.45901297355578,28.532684907670152 L-14.545602873472317,28.46787996389046 L-14.630363173582762,28.39953589575627 L-14.713238148953252,28.32769763549022 L-14.794173314140547,28.252412412541677 L-14.873115459013,28.173729722536113 L-14.950012683733123,28.091701294734637 L-15.024814432878667,28.006381058025045 L-15.097471528679879,27.917825105466715 L-15.16793620335098,27.826091657412725 L-15.236162130494701,27.731241023233366 L-15.302104455559181,27.633335561666268 L-15.365719825327192,27.532439639819184 L-15.426966416418352,27.428619590852378 L-15.485803962785553,27.321943670368466 L-15.54219378218751,27.212482011538352 L-15.59609880162009,27.100306578992765 L-15.647483581689634,26.985491121509746 L-15.696314339912277,26.86811112352913 L-15.742558972923959,26.748243755525948 L-15.786187077586506,26.62596782327538 L-15.827169970975914,26.501363716042537 L-15.86548070923969,26.374513353731256 L-15.901094105310861,26.245500133026546 L-15.93398674546698,26.11440887256617 " />
			<path d="M-15.885106823776745,25.611236231625586 L-15.862362824487121,25.559089139302532 L-15.836723598373718,25.508864498247522 L-15.80839420528769,25.460963999891234 L-15.77760122075452,25.415770747413923 " />
			<path d="M-13.250316633717684,26.801530153951866 L-13.260920068977713,26.84034417635682 L-13.268937937414583,26.8794892575982 L-13.274296374066227,26.918604771910704 L-13.276946014101686,26.957330365915656 L-13.27686244759677,26.995309278392185 L-13.274046444411542,27.03219162695552 L-13.268523947097956,27.067637631363674 L-13.26034583190296,27.101320743757732 L-13.24958744006886,27.132930656998216 L-13.236347883748842,27.162176163383116 L-13.220749132931951,27.188787837411518 L-13.20293489178925,27.21252051787778 L-13.183069274792892,27.233155566429794 L-13.161335294804397,27.25050288178433 L-13.137933177060697,27.264402651043387 L-13.113078514590429,27.27472682197748 " />
			<path d="M-13.113078514590427,27.27472682197748 L-13.108666790506561,27.276136834506772 " />
			<path d="M-13.10866679050656,27.276136834506765 L-13.020470069232212,27.30088499521178 L-12.931049769501948,27.321531607327874 L-12.840492880351722,27.338056585607184 L-12.748887496503976,27.35044385437189 L-12.656322732668155,27.358681363152783 L-12.562888636848943,27.362761098412115 L-12.468676102746594,27.36267909133925 L-12.37377678133455,27.358435421711548 L-12.27828299170039,27.350034217816788 L-12.182287631236818,27.337483652437093 L-12.085884085270063,27.320795934898385 L-11.989166136213644,27.299987299193 L-11.892227872335805,27.2750779881871 L-11.79516359622943,27.246092233928184 L-11.698067733073474,27.2130582340719 L-11.601034738775105,27.176008124451045 L-11.504159008081992,27.13497794781349 L-11.407534782754064,27.0900076187594 L-11.311256059884109,27.041140884911886 L-11.215416500456374,26.988425284358833 L-11.120109338232169,26.93191209940734 L-11.025427289051024,26.87165630669574 L-10.931462460635736,26.80771652371171 L-10.83830626298898,26.740154951768577 L-10.746049319468652,26.66903731549518 L-10.6547813786285,26.59443279889825 L-10.56459122690976,26.516413978059454 L-10.475566602268731,26.435056750532617 L-10.387794108824352,26.350440261509718 L-10.30135913260877,26.262646826827634 L-10.216345758502893,26.171761852890377 L-10.132836688437724,26.077873753584853 " />
			<path d="M-10.132836688437703,26.077873753584836 L-10.107225871006227,26.04580423194524 L-10.083601404270047,26.010954485942744 L-10.062222411824212,25.973706762997853 L-10.043323387909085,25.934469612602282 L-10.027111625373832,25.893673405167497 L-10.013764941996827,25.851765611531814 L-10.003429730101642,25.809205894902394 L-9.996219350861328,25.766461069066004 L-9.992212890902952,25.723999978169022 L-9.99145429485051,25.68228835422758 L-9.993951883320866,25.641783708772916 L-9.999678261659547,25.602930314662643 L-10.008570620417416,25.56615433309965 L-10.020531424272491,25.531859139307624 L-10.035429481840463,25.50042089813327 L-10.053101384639804,25.47218443810399 " />
			<path d="M-10.053101384639803,25.47218443810398 L-10.180911436750861,25.29369494461705 " />
			<path d="M-9.274443260992449,22.898140304887118 L-9.013423752603494,22.878569842557976 " />
			<path d="M-9.013423752603499,22.878569842557976 L-8.982620448586244,22.874048269895873 L-8.95153534524641,22.865105765270744 L-8.920509397739515,22.851840414026622 L-8.889882912373743,22.834397716400282 L-8.859991813979924,22.81296899161035 L-8.83116396133948,22.78778927938352 L-8.80371555108437,22.759134761934927 L-8.777947649512647,22.72731973467952 L-8.75414289036021,22.692693158900997 L-8.732562374749035,22.655634834190202 L-8.713442807314646,22.616551232635278 L-8.69699389992503,22.575871040456132 L-8.683396071468158,22.534040455984464 L-8.672798468937867,22.491518295563196 L-8.665317331523687,22.448770961045994 L-8.661034715648038,22.40626732409557 " />
			<path d="M-8.661034715648032,22.406267324095563 L-8.65422950745764,22.27485440407351 L-8.650448246913804,22.14422931245073 L-8.649694612467734,22.014519122730952 L-8.651969337263179,21.885850018391434 L-8.657270208423222,21.758347170130286 L-8.665592069202997,21.632134614099087 L-8.676926824006213,21.507335131239152 L-8.691263446260649,21.384070127838918 L-8.70858798914492,21.26245951742858 L-8.72888359915609,21.14262160412693 L-8.752130532504953,21.0246729675538 L-8.778306174322992,20.908728349420176 L-8.80738506066238,20.794900541906188 L-8.839338903267581,20.683300277935672 L-8.874136617094464,20.574036123453997 L-8.911744350550176,20.46721437181391 L-8.952125518424342,20.362938940372228 L-8.99524083747955,20.261311269397904 L-9.041048364666503,20.162430223389833 L-9.089503537926689,20.066391994900393 L-9.140559219542814,19.97329001095831 L-9.1941657419949,19.883214842181793 L-9.250270956277372,19.796254114670504 L-9.30882028263019,19.7124924247619 L-9.369756763634621,19.63201125673502 L-9.433021119622037,19.554888903541677 L-9.498551806341814,19.481200390642254 L-9.56628507483225,19.41101740302011 L-9.636155033436243,19.344408215445643 L-9.708093711901405,19.281437626057873 L-9.782031127502277,19.222166893328083 L-9.857895353120238,19.16665367646696 " />
			<path d="M-9.857895353120263,19.16665367646695 L-9.881596361500876,19.15248014210619 L-9.906794775692903,19.14198297843512 " />
			<path d="M-9.906794775692905,19.14198297843512 L-9.931927531091329,19.135502349708116 L-9.957983083287811,19.132491778748857 L-9.98473814726007,19.132977064872538 L-10.01196344346684,19.136954049383075 L-10.039425662676209,19.144388651211358 L-10.066889465326698,19.155217158975553 L-10.094119498287414,19.169346776960605 L-10.12088241173447,19.18665642033811 L-10.146948858859934,19.206997752811912 L-10.172095461276612,19.230196457797188 L-10.196106723276008,19.25605373223959 L-10.218776878535074,19.284347990273023 L-10.239911653446256,19.314836762116478 L-10.25932993195984,19.347258771937106 L-10.276865307671628,19.381336176873226 L-10.292367509855174,19.416776948029693 " />
			<path d="M-10.292367509855174,19.416776948029693 L-10.312472790251654,19.4669322529791 " />
			<path d="M-9.999373774768696,20.085637117973146 L-9.797392763024583,19.581768530306555 " />
			<path d="M-9.797392763024588,19.581768530306558 L-9.781994562514482,19.546546712721014 L-9.764587784859835,19.51266932501148 L-9.745319729613739,19.480423044251026 L-9.724353446823885,19.450080744767064 L-9.701866357271204,19.42189918902548 L-9.678048751100556,19.3961168548565 L-9.653102177548355,19.372951917408685 L-9.627237739393548,19.352600402908205 " />
			<path d="M-12.726397768202768,27.352835811619933 L-12.749198807627938,27.310845086990618 L-12.766305033487797,27.263037350123337 L-12.777347318018712,27.210444223255447 L-12.782087384593938,27.154200590461432 L-12.780422949390687,27.09552010848603 L-12.772389928527998,27.035669017776307 L-12.758161663048515,26.975938818833043 L-12.738045178467965,26.917618403486486 " />
			<path d="M-12.738045178467964,26.91761840348648 L-12.620010588963044,26.62316536853983 " />
			<path d="M-9.322918209742717,17.415291183885856 L-9.228048347556896,17.44886693004387 L-9.134407106686286,17.48593687720081 L-9.042050893112918,17.52647869580664 L-8.951035338766426,17.570467964985795 L-8.861415268013456,17.617878187247378 L-8.773244664633523,17.668680804446282 L-8.686576639301192,17.722845214985544 L-8.601463397594195,17.78033879224959 L-8.517956208546746,17.841126904257298 L-8.436105373766996,17.90517293452301 L-8.355960197137211,17.97243830411293 L-8.277568955114976,18.04288249488363 L-8.200978867653248,18.116463073888667 L-8.126236069756823,18.193135718938606 L-8.053385583692343,18.27285424529904 L-7.982471291868555,18.355570633510563 L-7.913535910403201,18.44123505831388 L-7.846620963392416,18.52979591866268 L-7.7817667578981675,18.6211998688062 L-7.719012359668789,18.71539185042269 L-7.6583955696072366,18.812315125784483 L-7.599952901001235,18.9119113119347 L-7.543719557529042,19.01412041585494 L-7.489729412054063,19.118880870602855 L-7.438014986221113,19.226129572397745 L-7.388607430866584,19.335801918631933 L-7.3415365072543555,19.447831846784965 L-7.296830569148716,19.562151874217193 L-7.254516545735116,19.67869313881879 L-7.214619925399042,19.797385440489716 L-7.177164740372748,19.918157283425636 L-7.142173552259158,20.04093591918432 L-7.109667438441585,20.16564739050657 L-7.07966597938751,20.292216575865332 L-7.052187246854042,20.420567234716067 L-7.0272477930021635,20.55062205342122 L-7.004862640426327,20.68230269182107 L-6.98504527310541,20.8155298304229 L-6.967807628280469,20.950223218180103 L-6.953160089264188,21.086301720832402 L-6.941111479186363,21.2236833697781 L-6.93166905567918,21.362285411448905 L-6.924838506505482,21.50202435715758 L-6.920623946132685,21.642816033388407 L-6.919027913254362,21.784575632500157 L-6.920051369261039,21.92721776381107 L-6.923693697661088,22.070656505034965 L-6.929952704452076,22.214805454037652 L-6.938824619442353,22.359577780882333 L-6.950304098522069,22.5048862801327 L-6.964384226882273,22.650643423382235 L-6.981056523180129,22.796761411978064 L-7.000310944647767,22.943152229907554 L-7.022135893141662,23.08972769681589 L-7.046518222128932,23.23639952112262 L-7.073443244606304,23.38307935320519 L-7.102894741947033,23.529678838617468 L-7.1348549736703815,23.676109671311153 L-7.16930468812783,23.82228364682802 L-7.206223134099547,23.968112715431023 L-7.245588073294148,24.113509035142137 L-7.2873757937442125,24.25838502465508 L-7.331561124089486,24.40265341609104 L-7.3781174487391645,24.546227307565555 L-7.42701672390413,24.68902021553497 L-7.4782294944894865,24.8309461268909 L-7.531724911837203,24.971919550771297 L-7.587470752308189,25.11185557005695 L-7.645433436692618,25.25066989252238 L-7.70557805043678,25.388278901610345 L-7.767868364674311,25.5245997067993 L-7.832266858049095,25.659550193533562 L-7.898734739316739,25.79304907268604 L-7.967231970710962,25.925015929523788 L-8.037717292060849,26.055371272146793 L-8.110148245644432,26.184036579370968 L-8.184481201763644,26.310934348026343 L-8.260671385025203,26.435988139642095 L-8.33867290131165,26.559122626490215 L-8.418438765426236,26.680263636960127 L-8.49992092939506,26.79933820023687 L-8.583070311409358,26.916274590256016 L-8.66783682539056,27.03100236890875 L-8.754169411160271,27.143452428471157 L-8.842016065197004,27.25355703323214 L-8.931323871961167,27.361249860294862 L-9.022039035769398,27.466466039527198 L-9.114106913199077,27.56914219263706 L-9.207472046003481,27.66921647134913 L-9.302078194517755,27.766628594659927 L-9.397868371535587,27.86131988514884 L-9.494784876636167,27.95323330432322 L-9.592769330940762,28.042313486976216 L-9.691762712277974,28.12850677453672 L-9.791705390736492,28.211761247391287 L-9.892537164583903,28.292026756158542 L-9.994197296529984,28.369254951897332 L-10.096624550312576,28.443399315230298 L-10.19975722758399,28.514415184365394 L-10.303533205075826,28.58225978199851 L-10.407889972019673,28.64689224108091 L-10.512764667801274,28.708273629435997 L-10.618094119825413,28.766366973210634 L-10.723814881568707,28.82113727914677 L-10.829863270797437,28.872551555660117 L-10.936175407927337,28.92057883271299 L-11.042687254502269,28.965190180469566 L-11.149334651768587,29.00635872672207 L-11.256053359321982,29.04405967307763 L-11.362779093803494,29.0782703098959 L-11.469447567621403,29.108970029968468 L-11.575994527675673,29.13614034093191 L-11.682355794061614,29.159764876406854 L-11.78846729872946,29.179829405856513 L-11.894265124076561,29.19632184315861 L-11.999685541448969,29.209232253885602 L-12.104665049529176,29.21855286128882 L-12.209140412586954,29.22427805098289 L-12.313048698570187,29.226404374327608 L-12.41632731701277,29.224930550505306 L-12.518914056736795,29.219857467292343 L-12.620747123326222,29.211188180524353 L-12.72176517634951,29.198927912255517 L-12.821907366308835,29.183084047613 L-12.921113371293519,29.163666130348428 L-13.019323433315712,29.140685857089075 L-13.116478394306363,29.114157070292258 L-13.212519731749794,29.08409574990719 " />
			<path d="M-13.120707436135486,26.79006431759731 L-12.738045178467967,26.917618403486482 " />
			<path d="M-10.292367509855172,19.416776948029696 L-9.79739276302459,19.581768530306558 " />
			<path d="M-14.150527154606175,24.02801011870248 L-14.297856435811974,23.978900358300546 " />
			<path d="M27.976707385107108,34.681253096078976 L27.976707385107105,34.44555083568344 " />
			<path d="M26.98675789144591,37.65110157706257 L26.90023614058705,37.766463911541045 " />
			<path d="M-15.581070335984172,20.161993855715203 L-15.494548585125314,20.046631521236726 " />
			<path d="M-16.57101982964537,23.13184233669881 L-16.571019829645365,23.367544597094337 " />
			<path d="M-13.212519731749834,29.08409574990718 L-13.707494478580417,28.91910416763032 " />
			<path d="M-9.322918209742728,17.415291183885866 L-9.817892956573312,17.250299601609004 " />

       </g>
    </g>
    
</svg>
