<?xml version="1.0" encoding="UTF-8" standalone="no"?>
<svg
   xmlns:svg="http://www.w3.org/2000/svg"
   xmlns="http://www.w3.org/2000/svg"
   width="1024.0"
   height="320.0"

>
    <g transform="scale(10.857960136188638, -10.857960136188638)   translate(20.45259807420327,-21.227138000388518)" stroke-width="1.0"  fill="none">
       <!-- hidden lines -->
       <g  stroke="rgb(32,64,32)" fill="none" stroke-dasharray="1.0,1.0" >

       </g>

       <!-- solid lines -->
       <g  stroke="rgb(64,192,64)" fill="none">
			<path d="M1.1102230246251565e-16,2.710575994548435 L-0.09975124510516253,2.7405614020888476 L-0.19926218072368784,2.7639445571667993 L-0.2982930762955459,2.7806691277135864 L-0.3966053577192206,2.790694822773862 L-0.49396218209762127,2.793997489570078 L-0.5901290083133732,2.790569171688643 L-0.6848741620589023,2.7804181282476192 L-0.777969393960138,2.763568813999782 L-0.8691904294492545,2.74006182041898 L-0.9583175090617377,2.7099537779117187 L-1.0451359178561896,2.6733172193895522 L-1.129436502681433,2.6302404055309423 L-1.211016176044763,2.580827112153558 L-1.2896784053675108,2.5251963802092408 L-1.3652336864492427,2.4634822290039184 L-1.437499999999971,2.395833333333367 L-1.5063032501405698,2.3224126653125996 L-1.5714776838149978,2.24339710176177 L-1.6328662901039261,2.1589769980944196 L-1.6903211784778,2.0693557297346072 L-1.743703935078072,1.9747492021677098 L-1.7928859561683137,1.8753853308051907 L-1.8377487579518843,1.7715034919164059 L-1.8781842620097686,1.6633539459502142 L-1.9140950556709602,1.5511972346356302 L-1.9453946266881141,1.4353035533139786 L-1.972007571653132,1.3159521000146521 L-1.9938697776505747,1.1934304028425973 L-2.010928576711291,1.068033627297938 L-2.0231428726941694,0.9400638651964232 L-2.0304832402903408,0.8098294069037776 L-2.032931995911327,0.6776439986372467 " />
			<path d="M-2.032931995911327,0.6776439986372226 L-2.029518751681031,0.5195001695736275 L-2.0192904805010947,0.3596118837746346 L-2.00228152841719,0.19851603846070487 L-1.978549010677324,0.03675358577942511 L-1.9481726199415652,-0.1251322836859447 L-1.911254358677901,-0.2865979649244831 L-1.8679181966428242,-0.44710126389724797 L-1.8183096545968203,-0.6061032181989401 L-1.762595315652608,-0.7630699068678963 L-1.7009622658970105,-0.9174742432671541 L-1.633617466164819,-1.0687977450161836 L-1.5607870570742042,-1.2165322750299348 L-1.482715599657329,-1.360181747818878 L-1.399665254136095,-1.4992637953203645 L-1.311914899600648,-1.6333113866675206 L-1.219759197546735,-1.7618743964565637 " />
			<path d="M-1.219759197546728,-1.7618743964565735 L-1.1675058504775524,-1.8298372022444611 L-1.1140752021436973,-1.8959548184331019 L-1.0595211314784718,-1.9601605726772358 L-1.0038986502630762,-2.0223897205341266 " />
			<path d="M-1.0842155923075394,-1.9366918414204335 L-1.1844038584873926,-1.8090148485356843 " />
			<path d="M-2.0329319959113246,0.7365695637361048 L-2.031662460251155,0.8339859084374703 L-2.027855372815588,0.9304392955159152 L-2.021515290420642,1.0258142770478744 L-2.01264980169923,1.1199966958854102 L-2.0012695180180984,1.2128738222942903 L-1.9873880607767693,1.3043344888835562 L-1.9710220451036793,1.394269223665076 L-1.952191059969042,1.4825703810838176 L-1.930917644738228,1.5691322708620077 L-1.9072272621937254,1.653851284502967 L-1.881148268057984,1.7366260193031984 L-1.8527118770536044,1.8173573997242904 L-1.8219521255415125,1.895948795979376 L-1.7889058307818282,1.97230613969219 L-1.7536125468661912,2.046338036490304 L-1.716114517374296,2.1179558753977656 L-1.676456624811296,2.187073934896208 L-1.6346863368866005,2.2536094855274786 L-1.590853649698363,2.317482888914987 L-1.5450110278916662,2.378617693085241 L-1.4972133418620317,2.4369407239754857 L-1.447517802079413,2.4923821730179125 L-1.3959838906112838,2.5448756806956054 L-1.3426732899267868,2.59435841597022 L-1.2876498090671535,2.640771151486318 L-1.2309793072707695,2.684058334462346 L-1.1727296151442916,2.724168153183413 L-1.112970453474185,2.7610525990162724 L-1.0517733497758412,2.7946675238722727 L-0.9892115526801699,2.8249726930495243 L-0.925359944260139,2.8519318333910055 L-0.8602949504022045,2.8755126767009784 " />
			<path d="M-0.8602949504021961,2.875512676700981 L-0.8049225143918618,2.8926425295293003 L-0.7487999971346222,2.907368272516369 L-0.6919745227051007,2.9196775409813913 L-0.6344938054259677,2.9295599992709778 L-0.5764061098039258,2.9370073494376268 L-0.5177602100037301,2.9420133382072122 L-0.45860534889426097,2.9445737622296386 L-0.39899119670104155,2.94468647160824 L-0.33896780929992776,2.9423513717049747 L-0.27858558618697327,2.9375704232198863 L-0.21789522815976867,2.930347640544778 L-0.1569476947457968,2.9206890883924657 L-0.095794161413534,2.9086028767044616 L-0.03448597660223249,2.8940991538413385 L0.026925381393525988,2.877190098061521 L0.08838834764830863,2.857889907295633 " />
			<path d="M-1.0038986502630673,-2.022389720534136 L-1.0455438559447983,-1.9796960215174686 L-1.0842155923075383,-1.9366918414204333 " />
			<path d="M0.08838834764831818,2.8578899072956303 L0.173082982710435,2.8274031498249244 L0.25764255726929963,2.792454583955174 L0.3419322261994049,2.7530999413261803 L0.4258175747872772,2.7094019798426783 L0.5091648330793943,2.661430383595811 L0.5918410892019246,2.6092616517395832 L0.6737145013121029,2.552978976499491 L0.7546545078432557,2.492672110507881 L0.8345320357081989,2.4284372236775735 L0.9132197061289957,2.3603767498420156 L0.9905920377648388,2.288599223406498 L1.0665256468141353,2.213219106270943 L1.1408994437716944,2.1343566053002627 L1.2135948265272583,2.0521374806333488 L1.2844958694974433,1.9666928451363979 L1.3534895084894856,1.8781589553203681 L1.4204657210020002,1.7866769940559886 L1.4853177016752233,1.6923928454328219 L1.5479420326109585,1.5954568621214054 L1.608238848290618,1.4960236256094528 L1.6661119948283725,1.3942516996944643 L1.7214691833054434,1.29030337762584 L1.7742221369410318,1.1843444232997271 L1.8242867318651774,1.0765438069193178 L1.8715831312690852,0.967073435542106 L1.9160359127189632,0.8561078789438326 L1.9575741884303692,0.7438240912362573 L1.9961317183112641,0.6304011286826666 L2.0316470155934945,0.5160198641611553 L2.0640634448842685,0.40086269873098235 L2.093329312481259,0.2851132707619777 L2.119397948807309,0.16895616309083655 L2.1422277828332894,0.05257660867129783 L2.16178240837042,-0.0638398048124052 L2.1780306421263465,-0.18010743089777276 L2.19094657343239,-0.29604086039000205 L2.2005096055626665,-0.41145521702958104 L2.2067044885791938,-0.5261664523100275 L2.2095213436506014,-0.6399916389756284 L2.208955678805664,-0.7527492627311405 L2.205008396096545,-0.8642595116982951 L2.197685790160309,-0.9743445631574827 L2.1869995381810217,-1.0828288671173718 L2.172966681268418,-1.189539426260282 L2.1556095972828593,-1.294306071816851 L2.134955965149892,-1.3969617349300891 L2.111038720721331,-1.4973427130760815 L2.0838960042532433,-1.5952889311164744 L2.053571099584603,-1.6906441965664603 L2.020112365113584,-1.7832564486711877 L1.9835731566815864,-1.8729780008933996 L1.9440117424879562,-1.9596657764256127 L1.9014912101710832,-2.0431815363512684 L1.8560793662040578,-2.123392100091021 L1.8078486277653154,-2.2001695577826124 L1.756875907256698,-2.273391474255661 L1.703242489653092,-2.342941084276091 L1.647033902879228,-2.4087074787488527 L1.5883397814203508,-2.470585781581993 L1.5272537233842554,-2.52847731693005 L1.4638731412426287,-2.5822897665500486 L1.3982991064897181,-2.6319373170191964 L1.3306361884660423,-2.677340796579488 L1.2609922876041926,-2.718427801390996 " />
			<path d="M50.58169027536586,13.721804861196233 L1.260992287604168,-2.7184278013910035 " />
			<path d="M50.58169027536586,13.721804861196231 L50.63554628299782,13.753093074652195 L50.68824006817811,13.786955604761111 L50.739721697029694,13.823360362588607 L50.78994238434356,13.862272850125208 L50.8388545398087,13.903656192977458 L50.88641181310984,13.94747117531097 L50.932569137850095,13.993676277012273 L50.97728277425693,14.042227713034261 L51.02051035063102,14.09307947488794 L51.062210903498695,14.146183374241147 L51.102344916429836,14.201489088582967 L51.140874357484634,14.25894420891053 L51.17776271525355,14.318494289393021 L51.21297503345636,14.380082898965835 L51.24647794406757,14.443651674805993 L51.278239698936765,14.509140377638133 L51.30823019987387,14.576486948818662 L51.336421027170935,14.645627569144008 L51.3627854665333,14.7164967193272 L51.38729853439473,14.789027242085496 L51.40993700159239,14.863150405780209 L51.430679415379366,14.938795969548432 L51.449506119753806,15.01589224986495 L51.466399274085404,15.094366188471236 L51.48134287002159,15.174143421607184 L51.49432274665745,15.255148350479974 L51.50532660395492,15.337304212903268 L51.514344014398574,15.420533156038873 L51.521366432877024,15.504756310171945 L51.52638720478044,15.589893863449776 L51.52940157230664,15.675865137513405 L51.53040667896965,15.762588663950318 " />
			<path d="M51.53040667896965,15.762588663950345 L51.52684503281628,15.927608311668838 L51.51617205419373,16.094448262067747 L51.498423582453995,16.2625482745692 L51.473659216116744,16.431343877367013 L51.441962112740306,16.60026826289605 L51.40343870968257,16.768754191144918 L51.35821836668946,16.9362358944208 L51.30645293151103,17.10215097717035 L51.24831623000404,17.265942304477047 L51.184003482433,17.427059872893626 L51.11373064792987,17.584962657327356 L51.0377336993136,17.739120427776452 L50.95626783070471,17.889015529817055 L50.869606600595624,18.034144622862055 L50.778041013254324,18.174020370354715 L50.681878541545935,18.308173076221507 " />
			<path d="M50.68187854154591,18.30817307622153 L50.62241310619696,18.385344430586535 L50.56149540400144,18.460222887787964 L50.4991983491663,18.532718823576584 L50.43559650688665,18.60274546541378 L50.37076600409641,18.670218996332217 L50.304784438349785,18.73505865525885 L50.23773078494239,18.797186833680225 L50.169685302383435,18.856529168534447 L50.10072943633187,18.913014631218523 L50.03094572211168,18.9665756126046 L49.96041768592295,19.017148003963353 L49.88922974486678,19.064671273697613 L49.81746710590405,19.10908853979444 L49.745215663868606,19.15034663790889 L49.67256189865722,19.188396184998005 L49.59959277171922,19.22319163842885 L49.52639562196975,19.25469135048981 L49.45305806125122,19.28285761824002 L49.37966786946812,19.30765672863709 L49.3063128895206,19.329058998889284 L49.23308092216274,19.347038811983705 L49.16005962091118,19.36157464734808 L49.08733638713005,19.372649106609362 L49.01499826541768,19.380248934418358 L48.94313183942031,19.384365034315458 L48.871823128197576,19.384992479618454 L48.801157483263744,19.382130519319425 L48.73121948642793,19.375782578983646 L48.66209284855565,19.36595625664944 L48.59386030937276,19.35266331373384 L48.526603538431836,19.335919660955003 L48.460403037359505,19.315745339288224 " />
			<path d="M1.260992287604176,-2.718427801391005 L1.0038986502630682,-2.691655487376181 " />
			<path d="M-1.0038986502630673,-2.022389720534136 L1.0038986502630678,-2.691655487376181 " />
			<path d="M50.717233880605235,18.26103262414243 L50.80938958265912,18.1324696143534 L50.89713993719454,17.99842202300627 L50.980190282715746,17.859339975504813 L51.0582617401326,17.7156905027159 L51.13109214922319,17.567955972702183 L51.19843694895536,17.416632470953193 L51.26006999871094,17.262228134553972 L51.31578433765514,17.105261445885056 L51.365392879701126,16.946259491583405 L51.408729041736194,16.78575619261068 L51.44564730299986,16.624290511372184 L51.47602369373561,16.462404641906858 L51.49975621147548,16.300642189225616 L51.51676516355939,16.13954634391173 L51.52699343473933,15.979658058112772 L51.53040667896964,15.82151422904924 " />
			<path d="M1.003898650263068,-2.691655487376181 L1.0755432549935844,-2.658666763677163 L1.145378584894015,-2.6212056407187263 L1.2132871632342952,-2.5793351354614256 L1.2791547544586095,-2.533125682312183 L1.3428705563520145,-2.482655014639793 L1.40432738643151,-2.4280080340121426 L1.4634218622480097,-2.3692766673751064 L1.520054575295908,-2.3065597124133905 L1.5741302582376988,-2.2399626713534313 L1.6255579451623308,-2.169597573487951 L1.6742511246077203,-2.0955827867206964 L1.7201278850900126,-2.0180428184484014 L1.7631110528947693,-1.9371081061149054 L1.8031283218983034,-1.8529147977897775 L1.8401123752007682,-1.7656045231405435 L1.8740009983663954,-1.6753241551837905 L1.9047371840803828,-1.5822255632159288 L1.9322692280463882,-1.4864653573392328 L1.9565508159633023,-1.3882046250129105 L1.9775411014349908,-1.2876086600723866 L1.9952047746819501,-1.1848466846726338 L2.0095121219392866,-1.0800915646232947 L2.020439075441098,-0.9735195185944682 L2.027967253907182,-0.8653098216823202 L2.0320839934639543,-0.7556445038331925 L2.0327823689475717,-0.6447080436335082 L2.0300612055534137,-0.532687057980585 L2.0239250808123384,-0.41976998815639077 L2.014384316890373,-0.30614678283232677 L2.0014549632248073,-0.19200857853828301 L1.9851587695258908,-0.07754737813348622 L1.9655231491895506,0.03704427217999151 L1.9425811331826792,0.15157360675773024 L1.9163713144785672,0.26584796478260697 L1.8869377831359477,0.3796751143581002 L1.854330052130864,0.4928635758800644 L1.8186029740661291,0.6052229441430027 L1.7798166488984815,0.7165642086389895 L1.738036322838662,0.8267000715104376 L1.6933322785944858,0.9354452626218522 L1.6457797171415334,1.0426168512205585 L1.5954586312203505,1.1480345536621261 L1.5424536707729612,1.2515210366828422 L1.486854000545053,1.3529022157090607 L1.4287531500933754,1.4520075477016192 L1.3682488564506707,1.548670318042702 L1.3054428997128031,1.642727920982542 L1.240440931824665,1.7340221331742054 L1.1733522988528686,1.822399379836312 L1.104289857044207,1.907710993095956 L1.033369782979294,1.9898134620772443 L0.9607113781407606,2.0685686743147547 L0.8864368682247445,2.143844148085806 L0.8106711975332853,2.215513255270716 L0.733541818793486,2.2834554343661497 L0.655178478757015,2.347556393293227 L0.5757129999406058,2.407708301659229 L0.49527905887471546,2.463809972149483 L0.41401196123336403,2.5157670307442803 L0.3320484142234392,2.563492075474501 L0.24952629661634373,2.6069048234488754 L0.166584426808845,2.6459322459055667 L0.08336232930328757,2.680508691060878 L1.8207657603852567e-14,2.7105759945484293 " />
			<path d="M-1.2197591975467272,-1.7618743964565737 L-1.184403858487396,-1.8090148485356794 " />
			<path d="M-2.032931995911326,0.6776439986372219 L-2.032931995911324,0.7365695637361052 " />
			<path d="M48.46040303735949,19.315745339288217 L-0.8602949504021993,2.875512676700982 " />
			<path d="M50.71723388060524,18.261032624142434 L50.68187854154592,18.308173076221532 " />
			<path d="M51.53040667896965,15.821514229049217 L51.530406678969655,15.762588663950346 " />

       </g>
    </g>
    
</svg>
