<?xml version="1.0" encoding="UTF-8" standalone="no"?>
<svg
   xmlns:svg="http://www.w3.org/2000/svg"
   xmlns="http://www.w3.org/2000/svg"
   width="1024.0"
   height="320.0"

>
    <g transform="scale(11.19404262703712, -11.19404262703712)   translate(52.276584834627215,-35.73994352489871)" stroke-width="1.0"  fill="none">
       <!-- hidden lines -->
       <g  stroke="rgb(32,64,32)" fill="none" stroke-dasharray="1.0,1.0" >

       </g>

       <!-- solid lines -->
       <g  stroke="rgb(64,192,64)" fill="none">
			<path d="M-25.129145911718894,20.28885636634547 L-28.44648225406107,19.183077585564742 " />
			<path d="M-28.665718045644144,19.19290676008737 L-28.60932094925397,19.178117401870924 L-28.581322475843137,19.17378600476467 L-28.553563456307618,19.171515118635277 L-28.526122650762638,19.171311186622898 L-28.499077916461193,19.17317478733979 L-28.472505986891193,19.177100633228612 L-28.44648225406107,19.183077585564742 " />
			<path d="M-26.365576841284472,18.42619302530081 L-26.334858260221836,18.417140713664384 L-26.304242830685943,18.410493230026603 L-26.273833357825648,18.406272896319745 L-26.24373195519713,18.404493884222656 L-26.21403970187146,18.405162167572914 L-26.184856303015902,18.408275502306974 L-26.156279755088736,18.413823433995624 L-26.128406016771844,18.42178733294947 " />
			<path d="M-26.128406016771844,18.421787332949474 L-26.098963215256244,18.433175350543628 L-26.070581884874148,18.44735077968503 L-26.043375020461493,18.464257183615132 L-26.017450940942698,18.48382725272185 L-25.9929128580796,18.505983072519918 L-25.969858465553568,18.530636433852493 L-25.948379550016817,18.557689184079035 L-25.928561625661402,18.587033617851265 L-25.910483593760837,18.618552905921398 L-25.89421742853976,18.652121560275436 L-25.879827890622355,18.687605933739682 L-25.86737226920029,18.724864752071394 L-25.85690015394677,18.763749676415134 L-25.848453237584774,18.804105893885556 L-25.84206514989541,18.845772733925266 L-25.837761323827404,18.888584307983905 " />
			<path d="M-20.532940077494555,14.251974367304165 L-20.54135732019955,14.262182767537901 L-20.547931449037836,14.273618395144569 " />
			<path d="M-27.515647443464307,31.365019116328156 L-27.684841817259503,31.41864866547691 L-27.85393427469052,31.466708759291297 L-28.02282296078376,31.50917044816789 L-28.19140614330988,31.546008154773048 L-28.359582274063456,31.57719968944977 L-28.52725005003184,31.60272626358389 L-28.69430847441628,31.622572500921653 L-28.860656917468653,31.63672644683178 L-29.02619517710703,31.64517957550651 L-29.190823539273676,31.647926795097206 L-29.354442837999077,31.644966450781517 L-29.516954515135797,31.63630032576016 L-29.678260679726232,31.621933640182807 L-29.838264166968465,31.60187504800364 L-29.99686859674469,31.576136631768552 L-30.15397843167701,31.544733895337057 L-30.309499034675586,31.50768575454336 L-30.463336725944455,31.465014525802154 L-30.61539883941076,31.41674591266606 L-30.765593778543312,31.362908990342742 L-30.91383107152694,31.30353618818112 L-31.060021425759288,31.238663270137124 L-31.20407678163739,31.168329313230824 L-31.345910365601426,31.092576684007913 L-31.485436742403923,31.01145101301966 L-31.622571866572727,30.925001167336774 L-31.75723313303684,30.833279221113738 L-31.88933942688466,30.736340424221247 L-32.018811172224545,30.634243168965774 L-32.14557038011836,30.52704895491623 L-32.2695406955591,30.414822351858895 L-32.3906474434643,30.29763096090304 L-32.5088176736575,30.1755453737605 L-32.62398020481068,30.048639130223904 L-32.7360656673213,29.91698867386902 L-32.845006545097874,29.780673306008037 L-32.95073721622919,29.639775137921383 L-33.0531939925125,29.494379041397 L-33.152315157816865,29.344572597606717 L-33.24804100525868,29.19044604435066 L-33.34031387316687,29.032092221701344 L-33.42907817981612,28.869606516080292 L-33.51428045690721,28.703086802800854 L-33.59586938177433,28.53263338711173 L-33.67379580829996,28.358348943776864 L-33.74801279651861,28.18033845522801 L-33.81847564089173,27.998709148327222 L-33.88514189723664,27.81357042977743 L-33.94797140829334,27.625033820219898 L-34.00692632791372,27.433212887058392 L-34.06197114385865,27.238223176050397 L-34.113072699189274,27.040182141706687 L-34.160200212239474,26.839209076541124 L-34.20332529515758,26.6354250392133 L-34.24242197100622,26.428952781607315 L-34.27746668940977,26.219916674890662 L-34.30843834074027,26.008442634597667 L-34.33531826883306,25.794658044782672 L-34.358090282224566,25.578691681288667 L-34.37674066390542,25.360673634177516 L-34.391258179583076,25.140735229368573 L-34.40163408444894,24.919008949532877 L-34.407862128445906,24.695628354290513 L-34.40993856003314,24.470727999759404 " />
			<path d="M-34.40993856003314,24.470727999759323 L-34.407044114942984,24.203423664291833 L-34.39836321003474,23.934414144674133 L-34.38390313435441,23.663925318598388 L-34.36367602951146,23.392184305877596 L-34.33769887948387,23.119419277741187 L-34.305993496357345,22.845859265247796 L-34.26858650201047,22.571733966976034 L-34.22550930576128,22.297273556154806 L-34.17679807799394,22.022708487395082 L-34.12249371978784,21.748269303185346 L-34.062641828574314,21.47418644031332 L-33.997292659850196,21.200690036376436 L-33.92650108498003,20.928009736543473 L-33.850326545122556,20.65637450072972 L-33.76883300132007,20.386012411347522 L-33.68208888079265,20.117150481793594 L-33.59016701948223,19.850014465834 L-33.4931446008949,19.58482866804675 L-33.39110309129263,19.32181575548126 L-33.284128171288984,19.06119657069279 L-33.17230966390614,18.803189946308812 L-33.05574145915375,18.548012521283084 L-32.93452143519279,18.295878558991625 L-32.80875137615082,18.04699976732345 L-32.67853688665744,17.80158512091695 L-32.54398730317188,17.559840685691416 L-32.405215602177066,17.321969445820784 L-32.2623383053173,17.088171133295106 L-32.115475381559186,16.8586420602127 L-31.964750146457995,16.63357495394391 L-31.810289158613973,16.413158795304803 L-31.652222113405628,16.197578659876747 " />
			<path d="M-31.652222113405607,16.19757865987671 L-31.55393828617292,16.068334085062737 L-31.454388880286327,15.94100256409358 L-31.353605093994798,15.815624001983812 L-31.25161851239548,15.692237691701186 L-31.148461097535108,15.57088230185244 L-31.044165178393285,15.451595864564752 L-30.938763440750716,15.334415763566692 L-30.8322889169457,15.219378722472342 L-30.724774975521946,15.106520793272335 L-30.61625531077107,14.995877345035337 L-30.506763932172966,14.887483052823585 L-30.396335153737436,14.781371886825896 L-30.285003583250347,14.677577101711595 L-30.172804111427745,14.576131226208688 L-30.059771900981293,14.477066052909526 L-29.945942375598474,14.380412628307187 L-29.83135120884097,14.286201243065653 L-29.716034312964798,14.194461422526903 L-29.600027827665564,14.105221917457802 L-29.483368108752508,14.018510695039799 L-29.366091716754767,13.93435493010413 L-29.248235405463507,13.852780996615381 L-29.129836110413493,13.773814459406049 L-29.01093093730768,13.697480066164639 L-28.891557150388486,13.623801739679873 L-28.771752160759384,13.55280257034343 L-28.651553514660453,13.484504808913524 L-28.530998881701603,13.418929859541656 L-28.410126043057108,13.356098273064642 L-28.28897287962519,13.29602974056412 L-28.167577360156365,13.238743087195443 L-28.04597752935425,13.184256266288015 " />
			<path d="M-27.86920083405758,13.00679670385159 L-27.994363419884962,13.062560809284566 L-28.119319176732738,13.121218027196036 L-28.24402867704847,13.182749849350818 L-28.368452570981567,13.247136860483819 L-28.492551598799416,13.314358744426166 L-28.616286603275096,13.384394290515614 L-28.739618542042727,13.457221400289194 L-28.862508499916608,13.53281709445598 L-28.98491770117019,13.611157520147799 L-29.106807521771074,13.692217958445577 L-29.228139501568133,13.77597283217894 L-29.348875356426916,13.86239571399665 L-29.468976990309525,13.951459334705273 L-29.58840650729514,14.04313559187348 L-29.7071262235374,14.137395558699277 L-29.825098679154863,14.234209493137332 L-29.942286650050796,14.33354684728355 L-30.058653159658586,14.435376277013912 L-30.17416149060902,14.53966565187456 L-30.288775196315804,14.646382065219978 L-30.402458112475617,14.755491844596094 L-30.515174368479133,14.866960562365033 L-30.626888398729324,14.980753046568134 L-30.73756495386357,15.096833392023825 L-30.847169111875935,15.215164971656872 L-30.95566628913622,15.33571044805539 L-31.063022251302183,15.458431785252003 L-31.169203124121566,15.583290260725398 L-31.274175404120534,15.710246477618536 L-31.37790596917508,15.839260377169627 L-31.480362088962114,15.970291251351938 L-31.581511435286938,16.103297755718486 " />
			<path d="M-34.40993856003315,24.588579129957086 L-34.40888053449486,24.751316729643783 L-34.40570677449926,24.913300278961653 L-34.400418229809276,25.074481303553906 L-34.393016483047376,25.23481156922315 L-34.3835037492219,25.394243096365702 L-34.37188287506423,25.5527281743297 L-34.358157338176895,25.710219375692756 L-34.34233124599287,25.866669570454835 L-34.3244093345464,26.022031940142146 L-34.304396967055766,26.176259991817783 L-34.282300132318255,26.329307571994967 L-34.25812544291801,26.481128880448686 L-34.231880133247195,26.63167848392166 L-34.20357205734105,26.780911329720436 L-34.173209686527535,26.92878275919763 L-34.14080210689226,27.075248521116254 L-34.106359016559416,27.22026478489209 L-34.06989072278955,27.36378815371023 L-34.03140813889512,27.505775677511764 L-33.99092278097455,27.64618486584678 L-33.94844676446608,27.78497370058987 L-33.903992800522076,27.922100648514235 L-33.85757419220523,28.057524673720692 L-33.80920483050748,28.191205249917893 L-33.758899190193134,28.323102372549986 L-33.70667232546718,28.453176570768193 L-33.65253986547026,28.581388919242634 L-33.59651800960157,28.70770104981092 L-33.53862352267112,28.83207516296003 L-33.47887372988278,28.95447403913798 L-33.41728651164962,29.07486104989195 L-33.353880298243126,29.193200168829534 L-33.28867406427784,29.30945598239981 L-33.22168732303312,29.423593700491026 L-33.15294012061371,29.535579166841668 L-33.082453029950806,29.64537886926194 L-33.01024714464556,29.75295994966241 L-32.936344072656674,29.858290213886978 L-32.86076592983416,29.961338141347102 L-32.78353533330102,30.062072894454502 L-32.70467539468498,30.160464327849475 L-32.624209713202234,30.256482997421998 L-32.54216236859526,30.35010016912306 L-32.45855791392683,30.441287827563432 L-32.373421368232414,30.530018684397433 L-32.286778209033066,30.616266186489085 L-32.19865436471121,30.700004523858265 L-32.1090762067514,30.781208637404475 L-32.01807054184857,30.859854226405886 L-31.92566460388596,30.935917755791472 L-31.831886045785254,31.009376463183955 L-31.73676293123134,31.080208365711574 L-31.640323726274083,31.148392266586583 L-31.542597290809738,31.213907761448475 L-31.44361286994449,31.276735244470068 L-31.343400085242713,31.336855914224678 L-31.24198892586255,31.39425177931251 L-31.139409739581556,31.448905663744682 L-31.03569322371495,31.500801212083232 L-30.930870415929313,31.549922894335527 L-30.82497268495439,31.596256010601735 L-30.718031721195867,31.639786695473802 L-30.61007952725188,31.680501922184764 L-30.50114840833608,31.71838950650705 " />
			<path d="M-30.50114840833605,31.71838950650706 L-30.409183285880424,31.747938134390928 L-30.316573621634934,31.775489015934788 L-30.223338856877305,31.80103636746213 L-30.129498564110804,31.824574825891684 L-30.035072442955418,31.84609944986326 L-29.9400803160124,31.865605720775093 L-29.844542124702944,31.883089543732403 L-29.748477925081957,31.89854724840705 L-29.65190788362773,31.911975589807987 L-29.554852273008482,31.92337174896254 L-29.457331467826535,31.932733333508125 L-29.359365940341164,31.940058378194493 L-29.260976256170903,31.945345345296303 L-29.162183069976265,31.94859312493592 L-29.06300712112377,31.949801035316383 L-28.9634692293322,31.948968822864586 L-28.863590290301953,31.946096662284475 L-28.763391271328487,31.94118515652037 L-28.662893206900723,31.934235336630405 L-28.562117194285307,31.925248661570073 L-28.359816000861294,31.90117271931971 L-28.15665755614805,31.86897754547867 L-27.952812445040507,31.828690173185326 L-27.74845182900284,31.78034443030825 L-27.54374730235031,31.72398091104219 L-27.3388707481677,31.659646941822565 " />
			<path d="M-28.045977529354218,13.184256266288005 L-27.86920083405758,13.006796703851592 " />
			<path d="M-17.257320914971963,16.777379221674064 L-17.25431351677963,16.716137377808096 L-17.258341071642377,16.651695664475085 L-17.269270650810068,16.58420754128014 L-17.286966166805882,16.514083154904455 " />
			<path d="M-17.734943441947244,17.151408668668545 L-17.69037733514402,17.12787687136191 L-17.647545814153137,17.10079883600402 L-17.606576976403467,17.070327771420683 L-17.567582588705047,17.03663775070743 L-17.530657273629405,16.999920988138015 L-17.49587803154706,16.960384907464235 L-17.463304092789194,16.918249083910446 L-17.432977084122264,16.873742141087696 L-17.409898413264905,16.835724182887866 L-17.38803948460081,16.795624221414865 L-17.3674847189923,16.753478294759446 L-17.348315409404716,16.709333311784548 L-17.330608947878563,16.663247145880334 L-17.31443806092721,16.615288603070255 L-17.299870066606342,16.565537258123218 L-17.286966166805932,16.514083154904664 " />
			<path d="M-17.25732091497196,16.777379221674064 L-17.285647983970208,16.82463244103701 L-17.322110000816505,16.877493258739836 L-17.36176326026716,16.92691188014451 L-17.40452828460386,16.97250364575816 L-17.450289693866395,17.013904709411975 L-17.498896169466544,17.05077951313129 L-17.55016135412812,17.0828279952112 L-17.60386571865765,17.109792248656213 L-17.65975938073524,17.131462354113626 " />
			<path d="M-17.65975938073555,17.13146235411373 L-17.716966223671886,17.147543312083407 L-17.775757437447734,17.158185545465006 L-17.83582708641075,17.163346765092808 L-17.896858115102226,17.16304108772542 L-17.95852786473246,17.15733810512293 L-18.020513622810075,17.14636056993788 L-18.082498010479434,17.130280819025774 L-18.14417402722509,17.109316108461623 " />
			<path d="M-18.730517424207626,15.795601812498845 L-18.711284304976093,15.850261452915348 L-18.67505765629876,15.966381246465273 L-18.644224191577397,16.085175405022426 L-18.619323874203044,16.205694593559485 L-18.600819635928637,16.32690198639679 L-18.589078014358236,16.447699374366024 L-18.584352890163945,16.566957963476842 L-18.586773602912565,16.683552200813505 L-18.596338434750756,16.79639458611723 " />
			<path d="M-18.436499385019783,15.2119129240788 L-18.60143075444891,15.101806256036237 L-18.771346627823903,14.99642682874887 " />
			<path d="M-18.329329218478463,17.01678532772122 L-18.306269275047086,16.951199889042424 L-18.28626520108368,16.88216057735559 L-18.26947795390276,16.809908066790683 L-18.256043043740092,16.734719300425628 L-18.24606767187689,16.656904290854257 L-18.239628437227648,16.57680205117204 L-18.23676970379373,16.494775761692075 L-18.237502695469693,16.411207313916805 L-18.241805354406946,16.326491402589607 L-18.24962296648991,16.241029356863788 L-18.2608695246901,16.155222911316034 L-18.275429770368472,16.06946811613568 L-18.29316182601617,15.98414957370443 L-18.313900312072988,15.899635167169775 L-18.337459826413085,15.816271417439493 L-18.363638658297567,15.734379570689171 L-18.398691728904808,15.637672962933676 L-18.438557302812917,15.540965929883964 L-18.483182875591538,15.444878579448144 L-18.532451535345356,15.350055560378584 L-18.586180595211484,15.257153528468676 L-18.64412229309298,15.166827382560331 L-18.705966671940832,15.07971581828021 L-18.771346627823743,14.996426828749062 " />
			<path d="M-18.436499385019783,15.211912924078797 L-18.370787169077634,15.327483909898069 L-18.31201204813481,15.445721429721003 L-18.2604715687862,15.56538296490301 L-18.21630955814551,15.685269870638486 L-18.187447370780426,15.776130051903982 L-18.161830336883273,15.868756634747028 L-18.13972970117593,15.962706422486281 L-18.121390868737137,16.05749930040643 L-18.107027287837365,16.152625118637037 L-18.096814845094304,16.24755187135136 L-18.09088703186048,16.34173493531333 L-18.08933111810383,16.43462705742259 L-18.09218552956718,16.525688723550335 L-18.099438567909722,16.61439850564861 L-18.111028545831232,16.700262974990196 L-18.126845335233448,16.782825788056307 L-18.146733252430593,16.861675596819378 L-18.17049513646371,16.936452503036097 L-18.197897420165802,17.006852860519874 L-18.22867595288242,17.072632322628785 " />
			<path d="M-17.61896310197451,15.938492335930768 L-17.716845870343594,15.82620205138458 L-17.82435610447779,15.714422931778623 " />
			<path d="M-18.01060265142102,17.148461844610505 L-17.96742342456538,17.095618670938492 L-17.927951830952843,17.038733723364555 L-17.89350062822887,16.980400421839057 L-17.861941080873287,16.91734262740113 L-17.833557079863052,16.849714173966678 L-17.8086119757221,16.777726223270665 L-17.787342581487042,16.70164670836338 L-17.769953523593344,16.621798175503667 L-17.756612183621417,16.53855399831577 L-17.747444460501896,16.452333020588487 L-17.742531553171858,16.363592768768523 L-17.741907919119434,16.272821455138562 L-17.745560507676327,16.18052906099625 L-17.753429302590273,16.087237839835822 L-17.765409141495354,15.993472609164364 L-17.781352715846662,15.89975120390897 L-17.80107459879287,15.806575444561892 L-17.824356104477726,15.714422931778861 " />
			<path d="M-17.618963101974508,15.938492335930766 L-17.608672692929762,16.015070943176394 L-17.601101512655024,16.091419416338184 L-17.596314826208182,16.16725267001024 L-17.594358326244397,16.24228490905149 L-17.595257240830183,16.316233145048944 L-17.599015805464624,16.388820718509898 L-17.605617118358495,16.45978073572816 L-17.615023385064045,16.528859331116397 L-17.62717654521946,16.595818671589143 L-17.641999261201935,16.660439629011776 L-17.659396236574725,16.72252405925036 L-17.67925582198643,16.781896641224613 L-17.701451858127964,16.838406245707706 L-17.725845699803617,16.891926820498014 L-17.752288362278602,16.942357795095003 L-17.780622730800786,16.98962402331387 L-17.812895509045877,17.03680266056783 L-17.847698606398072,17.08129238788969 L-17.884980261950766,17.12282048827266 L-17.924666307195096,17.161126229537214 " />
			<path d="M-25.689211744179275,23.945509781656796 L-30.124368373697973,22.467124238483894 " />
			<path d="M-30.124368373697973,22.467124238483898 L-29.193533563101216,20.007175054408528 " />
			<path d="M-29.193533563101216,20.007175054408524 L-24.72135638814379,21.497900779394335 " />
			<path d="M-24.906926513230623,21.87813768332215 L-25.837761323827383,24.33808686739752 " />
			<path d="M-26.584812632867514,25.162184336241335 L-26.985317357574395,25.29568591114363 " />
			<path d="M-29.193533563101212,25.456677613822176 L-30.124368373697955,23.617284970144677 " />
			<path d="M-30.124368373697955,23.61728497014467 L-26.093085638241703,24.961045881963422 " />
			<path d="M-28.33091301435562,25.74421779673737 L-29.193533563101212,25.456677613822173 " />
			<path d="M-28.44648225406107,19.183077585564746 L-28.045977529354218,19.049576010662463 " />
			<path d="M-28.045977529354218,19.04957601066246 L-25.291681710667454,19.96767461689138 " />
			<path d="M-25.837761323827404,18.888584307983912 L-24.906926513230673,20.72797695166139 " />
			<path d="M-26.985317357574395,13.301424529345985 L-27.86920083405758,13.00679670385159 " />
			<path d="M-27.33887074816767,31.659646941822555 L-27.190944579112493,31.60827492400528 L-27.043083155998808,31.552798801656145 L-26.8953511964294,31.493242856170355 L-26.747813361342033,31.42963315464467 L-26.60053422670795,31.361997538468067 L-26.453578255267544,31.290365611135833 L-26.30700976831563,31.214768725292377 L-26.160892917548562,31.135239969008442 L-26.015291656985642,31.051814151298785 L-25.870269714977024,30.96452778688658 L-25.725890566310376,30.873419080221247 L-25.58221740442857,30.778527908756704 L-25.439313113770464,30.679895805497402 L-25.297240242246957,30.57756594081966 L-25.156060973864346,30.47158310357642 L-25.01583710150694,30.36199368149356 L-24.876629999890874,30.248845640866392 L-24.738500598700973,30.132188505565274 L-24.60150935592236,30.012073335359457 L-24.465716231378547,29.88855270356866 L-24.331180660487572,29.76168067405225 L-24.197961528247667,29.63151277754595 L-24.066117143463796,29.498105987356546 L-23.93570521322646,29.3615186944252 L-23.806782817653787,29.22181068177024 L-23.679406384908106,29.079043098320692 L-23.553631666497864,28.93327843215196 L-23.42951371287567,28.784580483135343 L-23.307106849343228,28.633014335013424 L-23.186464652273642,28.47864632691349 L-23.067639925661513,28.32154402431152 L-22.95068467801112,28.16177618945936 L-22.835650099572792,27.999412751288137 L-22.722586539937353,27.834524774800997 L-22.61154348599859,27.667184429968593 L-22.502569540293308,27.497464960140935 L-22.395712399728396,27.32544064998945 L-22.291018834704342,27.151186792993244 L-22.188534668644287,26.974779658483858 L-22.088304757937475,26.796296458262848 L-21.990372972306055,26.615815312806888 L-21.89478217560369,26.433415217075154 L-21.801574207054433,26.249176005933926 L-21.710789862940075,26.063178319213602 L-21.622468878744012,25.875503566413393 L-21.536649911759344,25.68623389106911 L-21.45337052416896,25.495452134799685 L-21.372667166604895,25.303241801048145 L-21.294575162194224,25.109687018532902 L-21.21912869109844,24.914872504425393 L-21.146360775553138,24.718883527270147 L-21.076303265414445,24.521805869663513 L-21.008986824218645,24.323725790707375 L-20.944440915761035,24.124729988254366 L-20.882693791199873,23.924905560960955 L-20.823772476691104,23.724339970165186 L-20.767702761559278,23.52312100160566 L-20.714509187009767,23.32133672699848 L-20.664215035387322,23.119075465489086 L-20.616842319985604,22.91642574499575 L-20.572411775412142,22.713476263461708 L-20.530942848513007,22.510315850032875 L-20.4924536898611,22.30703342617817 L-20.4569611458118,22.10371796676935 L-20.42448075112948,21.900458461137532 L-20.39502672218807,21.697343874123384 L-20.36861195074869,21.494463107138003 L-20.345247998317042,21.29190495925159 L-20.324945091083023,21.089758088326878 L-20.30771211544485,20.88811097221441 L-20.293556614119538,20.687051870026597 L-20.282484782841532,20.48666878350749 L-20.274501467650882,20.28704941851521 L-20.269610162772185,20.08828114663391 L-20.267813009085188,19.890450966932 L-20.26911079318775,19.69364546788345 L-20.273502947051547,19.497950789468835 L-20.280987548270698,19.303452585472606 L-20.291561320903188,19.110235985993224 L-20.30521963690471,18.918385560182493 L-20.32195651815433,18.72798527923039 L-20.341764639071037,18.539118479611645 L-20.364635329820103,18.351867826610146 L-20.390558580107783,18.166315278137066 L-20.419523043562723,17.982542048858647 L-20.451516042702178,17.800628574649267 L-20.486523574480817,17.620654477385383 L-20.52453031641974,17.442698530095765 L-20.56551963331298,17.26683862248327 L-20.60947358450859,17.09315172683321 L-20.65637293176109,16.921713864323284 L-20.706197147651885,16.752600071749804 L-20.758924424573927,16.585884368684752 L-20.81453168427671,16.421639725078105 L-20.87299458796739,16.259938029319557 L-20.934287546963688,16.1008500567736 L-20.998383733893796,15.944445438801793 L-21.06525509443848,15.790792632285775 L-21.134872359610217,15.639958889664271 L-21.20720505856394,15.492010229497343 L-21.28222153193387,15.347011407570626 L-21.35988894569053,15.205025888552347 L-21.44017330551189,15.066115818215405 L-21.523039471662386,14.930341996236725 L-21.608451174373258,14.797763849585788 L-21.696371029717486,14.668439406513997 L-21.786760555972428,14.542425271156226 L-21.879580190462903,14.419776598755702 L-21.97478930687739,14.300547071523079 L-22.07234623304984,14.184788875140203 L-22.172208269199167,14.072552675918907 L-22.274331706618582,13.96388759862485 L-22.37867184680649,13.85884120497602 L-22.485183021030608,13.757459472825426 L-22.593818610316763,13.65978677603701 L-22.704531065853587,13.565865865063593 L-22.817271929804214,13.475737848235408 L-22.931991856515822,13.389442173767344 L-23.04864063411778,13.307016612492824 L-23.167167206498945,13.228497241331844 L-23.28751969565442,13.153918427500464 L-23.40964542439213,13.083312813468556 L-23.533490939389118,13.016711302672505 L-23.65900203458759,12.95414304598906 L-23.78612377492043,12.895635428976243 L-23.914800520355758,12.841214059886958 L-24.04497595025007,12.790902758460483 L-24.17659308799923,12.744723545496802 " />
			<path d="M-24.176593087999287,12.744723545496782 L-24.331109112473808,12.696326639673735 L-24.48739906723947,12.653553461784314 L-24.645370774950276,12.616429238773037 L-24.80493106638892,12.584975865920086 L-24.965985835416507,12.559211893927818 L-25.128440094474875,12.539152517979852 L-25.292198030608752,12.524809568779188 L-25.45716306197473,12.516191505570658 L-25.623237894803687,12.513303411151773 L-25.790324580783157,12.516146988874993 L-25.958324574825657,12.524720561643106 L-26.127138793189044,12.53901907289835 L-26.29666767191453,12.559034089604701 L-26.466811225547943,12.584753807221533 L-26.63746910610956,12.61616305666576 L-26.808540662277753,12.653243313258315 " />
			<path d="M-18.16618544791364,14.748192758858668 L-18.05725432899781,14.786080343180961 L-17.949302135053827,14.826795569891923 L-17.842361171295313,14.870326254763988 L-17.73646344032039,14.916659371030194 L-17.631640632534747,14.965781053282491 L-17.527924116668146,15.017676601621034 L-17.42534493038716,15.072330486053206 L-17.323933771007,15.129726351141036 L-17.223720986305217,15.189847020895645 L-17.124736565439974,15.252674503917236 L-17.027010129975636,15.31818999877912 L-16.93057092501838,15.38637389965413 L-16.835447810464466,15.45720580218175 L-16.741669252363764,15.530664509574226 L-16.64926331440115,15.606728038959805 L-16.558257649498323,15.685373627961217 L-16.468679491538516,15.766577741507426 L-16.380555647216664,15.850316078876602 L-16.29391248801732,15.936563580968249 L-16.208775942322898,16.02529443780225 L-16.12517148765447,16.11648209624262 L-16.0431241430475,16.210099267943672 L-15.962658461564757,16.30611793751619 L-15.883798522948718,16.40450937091116 L-15.806567926415575,16.50524412401856 L-15.730989783593062,16.608292051478678 L-15.657086711604183,16.713622315703237 L-15.584880826298935,16.82120339610371 L-15.51439373563603,16.93100309852398 L-15.445646533216614,17.042988564874616 L-15.378659791971897,17.157126282965827 L-15.313453558006614,17.273382096536096 L-15.250047344600123,17.391721215473677 L-15.188460126366964,17.512108226227642 L-15.128710333578622,17.63450710240559 L-15.070815846648172,17.758881215554695 L-15.01479399077948,17.885193346122982 L-14.960661530782557,18.013405694597413 L-14.9084346660566,18.143479892815613 L-14.858129025742253,18.275377015447702 L-14.809759664044504,18.4090575916449 L-14.763341055727654,18.54448161685135 L-14.718887091783657,18.681608564775704 L-14.676411075275183,18.820397399518793 L-14.635925717354617,18.960806587853806 L-14.597443133460176,19.102794111655328 L-14.560974839690315,19.24631748047346 L-14.526531749357465,19.391333744249298 L-14.494124169722191,19.537799506167914 L-14.463761798908678,19.6856709356451 L-14.43545372300253,19.83490378144387 L-14.409208413331712,19.98545338491684 L-14.385033723931466,20.13727469337056 L-14.36293688919395,20.290322273547737 L-14.34292452170331,20.44455032522337 L-14.325002610256846,20.59991269491067 L-14.309176518072816,20.756362889672744 L-14.295450981185475,20.91385409103579 L-14.283830107027804,21.072339168999786 L-14.274317373202324,21.231770696142334 L-14.266915626440422,21.39210096181158 L-14.261627081750438,21.553281986403825 L-14.258453321754827,21.71526553572169 L-14.257395296216544,21.878003135408296 " />
			<path d="M-14.257395296216544,21.878003135408377 L-14.26036395784747,22.15216142819556 L-14.269267450061054,22.428068627803476 L-14.28409829691266,22.705493064804255 L-14.304844045469531,22.984201795799954 L-14.331487276267058,23.263960799016804 L-14.36400561793529,23.544535170804913 L-14.402371765983363,23.82568932287853 L-14.446553505726127,24.107187180131092 L-14.496513739333647,24.38879237885903 L-14.552210516980939,24.670268465228006 L-14.613597072071734,24.95137909381472 L-14.680621860506726,25.23188822605769 L-14.753228603963308,25.511560328450493 L-14.831356337150469,25.790160570310775 L-14.914939458999179,26.067455020959198 L-15.00390778774526,26.343210846142725 L-15.09818661985851,26.617196503537194 L-15.197696792768596,26.88918193716516 L-15.302354751335036,27.158938770565683 L-15.412072618005453,27.42624049855387 L-15.526758266603244,27.690862677409243 L-15.646315399682633,27.95258311333309 L-15.770643629386186,28.21118204901665 L-15.899638561736936,28.46644234816351 L-16.033191884294258,28.71814967781122 L-16.17119145709997,28.966092688298957 L-16.31352140683825,29.21006319073038 L-16.46006222413034,29.449856331782378 L-16.61069086388226,29.68527076571306 L-16.765280848601442,29.916108823424647 L-16.92370237459533,30.142176678439128 L-17.08582242096284,30.363284509647364 " />
			<path d="M-17.085822420962895,30.363284509647432 L-17.184311401205534,30.492839774073815 L-17.28404053879274,30.62052235753074 L-17.384979989300078,30.746294050390546 L-17.487099546111146,30.8701172148688 L-17.59036864945706,30.99195479628755 L-17.69475639556159,31.11177033416414 L-17.800231545889293,31.229527973122178 L-17.906762536493765,31.34519247362142 L-18.014317487463323,31.458729222503386 L-18.122864212461213,31.570104243349512 L-18.232370228357535,31.679284206648745 L-18.34280276494996,31.786236439771564 L-18.45412877477039,31.890928936747446 L-18.566314942974568,31.993330367842773 L-18.679327697311695,32.093410088936416 L-18.793133218171086,32.19113815069015 L-18.907697448702866,32.28648530751111 L-19.02298610500964,32.3794230263037 L-19.13896468640611,32.46992349500825 L-19.255598485743565,32.55795963092392 L-19.37285259979619,32.6435050888133 L-19.490691939706004,32.726534268786395 L-19.609081241483356,32.80702232396144 L-19.727985076559875,32.884945167900554 L-19.847367862390605,32.960279481817615 L-19.967193873102296,33.0330027215566 L-20.087427250184497,33.103093124337995 L-20.208032013220414,33.17052971527141 L-20.32897207065423,33.23529231363242 L-20.450211230591673,33.29736153890177 L-20.57171321163058,33.35671881656505 L-20.693441653718324,33.41334638367122 L-20.815360129032715,33.467227294148266 L-20.937432152883215,33.5183454238744 L-21.05962119462913,33.56668547550326 L-21.18189068861161,33.612232983041736 L-21.304204045096085,33.65497431617896 L-21.42652466122193,33.69489668436528 L-21.54881593195601,33.73198814063987 L-21.671041261046966,33.7662375852059 L-21.79316407197678,33.79763476875225 L-21.915147818906487,33.826170295520626 L-22.0369559976127,33.851835626117285 L-22.15855215641166,33.874623080068524 L-22.279899907067588,33.894525838119065 L-22.400962935682053,33.91153794427278 L-22.521705013561046,33.92565430757501 L-22.642090008056613,33.936870703636096 L-22.762081893379726,33.94518377589553 L-22.881644761381168,33.95059103662642 L-23.000742832297213,33.95309086767998 L-23.119340465456915,33.95268252096973 L-23.237402169947718,33.94936611869538 L-23.354892615236324,33.94314265330629 L-23.471776641741474,33.934013987204416 L-23.588019271355662,33.921982852187035 L-23.70358571791249,33.9070528486292 L-23.818441397596587,33.88922844440634 L-23.932551939293,33.868514973557225 L-24.045883194872882,33.84491863468767 L-24.158401249412538,33.818446489115686 L-24.270072431342594,33.789106458758226 L-24.380863322524355,33.75690732376061 L-24.49074076825034,33.72185871986896 " />
			<path d="M-17.257320914971963,16.777379221674064 L-17.250015787397157,16.78645450949671 L-17.184583290626165,16.870028456629107 L-17.121988500189925,16.954417795553002 L-17.06221633855818,17.040045682484983 L-17.0059754176216,17.126282540717774 " />
			<path d="M-17.143878009541528,16.348989248816277 L-17.209286235390486,16.43202353250248 L-17.240603854522547,16.467284812244703 L-17.274042069132673,16.50167598674877 L-17.286966166805886,16.514083154904455 " />
			<path d="M-17.143878009541528,16.348989248816277 L-17.204835628537367,16.248130385087634 " />
			<path d="M-17.61896310197451,15.938492335930768 L-17.51244030703855,16.014997972261654 L-17.35755796614103,16.13003343710059 L-17.204835628537374,16.248130385087624 " />
			<path d="M-17.770511924942248,15.605129930244315 L-17.789355296008814,15.64108859784826 L-17.80778525891263,15.678672247113308 L-17.824356104477793,15.71442293177862 " />
			<path d="M-17.770511924942248,15.605129930244315 L-17.867480795056128,15.520727125947047 " />
			<path d="M-18.436499385019783,15.2119129240788 L-18.396804105595464,15.232353284391323 L-18.132338377465437,15.372783534348965 L-17.867480795056142,15.520727125947037 " />
			<path d="M-18.671287092043386,14.953414613013285 L-18.704975116714397,14.967914111903484 L-18.739462147826078,14.98287541352282 L-18.77134662782391,14.996426828748866 " />
			<path d="M-18.671287092043386,14.953414613013285 L-18.8095873702243,14.872804384331856 " />
			<path d="M-19.766752382544045,14.484685039370508 L-19.54150557553643,14.56823223950321 L-19.30522218024081,14.661440801280554 L-19.060412397094325,14.763301439970975 L-18.80958737022432,14.872804384331845 " />
			<path d="M-20.1478662485053,14.484843036797955 L-20.285473191575036,14.411111926544448 L-20.416489600069426,14.341953615866766 L-20.547931449037836,14.273618395144569 " />
			<path d="M-20.1478662485053,14.484843036797955 L-20.16417439830868,14.496648153483088 L-20.17690271845104,14.510946477608261 L-20.186294771255813,14.52766165628622 L-20.192534015083805,14.546750560291926 " />
			<path d="M-20.502679682719677,14.521316080984136 L-20.431223557730803,14.522432151381963 L-20.356021581127333,14.526849597325368 L-20.27661223841107,14.534858904925105 L-20.192534015083805,14.546750560291928 " />
			<path d="M-20.502679682719677,14.521316080984136 L-20.48100414450936,14.568764349357782 " />
			<path d="M-20.140320234177043,14.787794922935394 L-20.161350360697952,14.773921488719093 L-20.284165972078544,14.693834887451867 L-20.48100414450936,14.568764349357782 " />
			<path d="M-20.140320234177043,14.787794922935394 L-20.110309066700093,14.85291049997701 L-20.074597761343124,14.922958316729634 " />
			<path d="M-20.24433578798848,14.984887935191345 L-20.19843255437335,14.96350674486867 L-20.150070488839326,14.94490404968188 L-20.08456297458025,14.925399626276763 L-20.07459776134312,14.922958316729643 " />
			<path d="M-20.24433578798848,14.984887935191345 L-20.197999277624653,15.05742279844789 " />
			<path d="M-19.82961309630067,15.322043576805306 L-19.95638852795722,15.230462518367695 L-20.077014417293263,15.143748842272291 L-20.197999277624646,15.057422798447895 " />
			<path d="M-19.82961309630067,15.322043576805306 L-19.75860137742953,15.424457665159329 L-19.682150057840182,15.530451521409962 " />
			<path d="M-19.758656724597692,15.681686764664358 L-19.736413665974155,15.629022844761517 L-19.711668425754496,15.579728558097433 L-19.682150057840175,15.530451521409972 " />
			<path d="M-19.758656724597692,15.681686764664358 L-19.673991182883462,15.79130252508837 " />
			<path d="M-19.17279256710609,16.147830424338 L-19.297935780964803,16.06221760012625 L-19.423209274932372,15.97387007699189 L-19.673991182883455,15.791302525088376 " />
			<path d="M-19.17279256710609,16.147830424338 L-19.092426863900016,16.2325688607134 L-19.009594661913326,16.316421170875 L-18.92522171849418,16.398157165438445 L-18.839363195181495,16.4774909347792 " />
			<path d="M-18.760096623699628,16.771351785364363 L-18.784577327046286,16.694070825801642 L-18.80581773147026,16.619317066132165 L-18.82401422487938,16.5471154534325 L-18.83936319518148,16.477490934779215 " />
			<path d="M-18.760096623699628,16.771351785364363 L-18.645348079327064,16.867003981927233 L-18.52987468849085,16.95663272164409 " />
			<path d="M-17.078155681758087,17.244563412549933 L-17.14816474673654,17.261394877613068 L-17.221042102005814,17.27440048702168 L-17.296862794036947,17.283342444600716 L-17.37570186930098,17.287982954175117 L-17.457634374268945,17.288084219569832 L-17.542735355411885,17.2834084446098 L-17.631079859200838,17.27371783311997 L-17.722742932106847,17.258774588925288 L-17.81733993536922,17.238381370894658 L-17.914206245062207,17.212636647481432 L-18.01299692990926,17.181746336887205 L-18.113367058633834,17.14591635731357 L-18.215175536421143,17.105389778067227 L-18.31852042831692,17.060303017680337 L-18.423415542835407,17.010702018192692 L-18.52987468849084,16.956632721644098 " />
			<path d="M-17.078155681758087,17.244563412549933 L-17.056632977449205,17.217571155940508 L-17.037433935800166,17.188829260586182 L-17.020548087254944,17.158386333412988 L-17.005975417621602,17.126282540717778 " />
			<path d="M-26.808540662277757,12.653243313258319 L-26.985317357574395,12.830702875694731 " />
			<path d="M-26.985317357574395,12.830702875694731 L-26.985317357574395,18.696022620069186 " />
			<path d="M-26.985317357574395,18.696022620069186 L-25.722126691208782,19.117086175524392 " />
			<path d="M-19.648514703272664,15.810101706544886 L-19.66000635776437,15.741087976375068 L-19.669492864605537,15.671351500621066 L-19.6768967191923,15.601075350936336 L-19.682150057840143,15.530451521410486 " />
			<path d="M-20.12926109836651,15.106378690870034 L-20.104208038528796,15.012645584090649 L-20.074597761343277,14.92295831673007 " />
			<path d="M-20.32436215412561,14.667968125404151 L-20.29343150502412,14.635318666227285 L-20.26112450788084,14.604168788459711 L-20.227477659719273,14.5746151670712 L-20.19253401508411,14.546750560292159 " />
			<path d="M-17.015111742844233,30.269003605489225 L-16.857044697635857,30.05342347006113 L-16.70258370979182,29.83300731142201 L-16.55185847469062,29.60794020515321 L-16.404995550932497,29.378411132070795 L-16.26211825407271,29.1446128195451 L-16.123346553077884,28.90674157967446 L-15.988796969592315,28.664997144448915 L-15.858582480098924,28.419582498042402 L-15.732812421056945,28.17070370637421 L-15.61159239709598,27.918569744082742 L-15.495024192343575,27.66339231905699 L-15.38320568496073,27.405385694673 L-15.276230764957074,27.144766509884516 L-15.174189255354795,26.88175359731901 L-15.07716683676746,26.616567799531744 L-14.98524497545704,26.349431783572133 L-14.898500854929612,26.080569854018194 L-14.81700731112712,25.810207764635983 L-14.740832771269638,25.538572528822208 L-14.67004119639947,25.265892228989227 L-14.604692027675355,24.992395825052327 L-14.544840136461827,24.718312962180285 L-14.490535778255719,24.44387377797053 L-14.441824550488386,24.169308709210792 L-14.398747354239191,23.894848298389544 L-14.361340359892319,23.620723000117767 L-14.329634976765796,23.34716298762436 L-14.303657826738204,23.074397959487932 L-14.283430721895254,22.802656946767126 L-14.268970646214939,22.532168120691367 L-14.260289741306694,22.263158601073645 L-14.25739529621654,21.995854265606226 " />
			<path d="M-28.045977529354218,13.184256266288005 L-28.045977529354218,19.04957601066246 " />
			<path d="M-26.985317357574395,25.29568591114363 L-26.985317357574395,28.59551755668085 " />
			<path d="M-28.04597752935422,28.94907094727413 L-26.9853173575744,28.595517556680853 " />
			<path d="M-28.045977529354218,25.649239301736902 L-28.045977529354218,28.949070947274123 " />
			<path d="M-28.045977529354218,25.649239301736902 L-26.985317357574395,26.00279269233018 " />
			<path d="M-30.12436837369795,23.617284970144674 L-30.149412889305495,23.600211038493782 L-30.173282143511837,23.58080906646848 L-30.195892051860106,23.559147401586703 L-30.21716296620349,23.53530235160867 L-30.237019955282538,23.50935791572678 L-30.255393068686264,23.48140548866083 L-30.27221758326712,23.451543538700932 L-30.28743423114191,23.419877260832315 L-30.30098940847529,23.386518206163895 L-30.31283536431057,23.35158388896609 L-30.322930368782465,23.315197372702148 L-30.331238860119303,23.27748683651127 L-30.34238562624227,23.198629273627354 L-30.346118733713887,23.116121390986265 L-30.342385626242272,23.031124770030768 L-30.331238860119306,22.944836029731544 L-30.312835364310576,22.8584699800709 L-30.28743423114192,22.773242519425565 L-30.255393068686278,22.690353516626622 L-30.217162966203507,22.610969918690262 L-30.173282143511855,22.53620932203602 L-30.124368373697976,22.4671242384839 " />
			<path d="M-28.44648225406106,25.782740876639185 L-28.50143774591765,25.829527311176466 L-28.558423578306147,25.868681256301855 L-28.616735463217367,25.899718808334228 L-28.64616386144153,25.912070007311307 L-28.67565272395651,25.922256374109914 L-28.705110867047328,25.930246411049648 L-28.73444720198779,25.936015411811283 L-28.76357101669965,25.93954553783218 L-28.792392256247137,25.94082587346563 L-28.820821801299484,25.939852459733586 L-28.84877174370046,25.936628306568362 L-28.876155658292763,25.931163383505513 L-28.902888870156765,25.92347458885662 " />
			<path d="M-28.90288887015677,25.923474588856617 L-28.93233167167237,25.912086571262464 L-28.960713002054465,25.89791114212106 L-28.98791986646712,25.88100473819096 L-29.013843945985915,25.861434669084243 L-29.038382028849014,25.839278849286174 L-29.061436421375046,25.8146254879536 L-29.082915336911796,25.787572737727057 L-29.10273326126721,25.758228303954827 L-29.12081129316778,25.726709015884694 L-29.137077458388852,25.693140361530656 L-29.151466996306258,25.657655988066406 L-29.16392261772833,25.620397169734698 L-29.174394732981842,25.581512245390954 L-29.18284164934384,25.541156027920533 L-29.1892297370332,25.499489187880823 L-29.19353356310121,25.45667761382218 " />
			<path d="M-28.045977529354218,25.649239301736905 L-28.44648225406106,25.782740876639185 " />
			<path d="M-25.837761323827383,24.338086867397518 L-25.847586375141045,24.424232887647403 L-25.864703918926224,24.510674773040886 L-25.88887296704252,24.596195557553184 L-25.919753257240036,24.67959124281372 L-25.956910043517635,24.75968774851277 L-25.999820216664034,24.835357441608846 L-26.047879668814183,24.90553501163139 L-26.100411798339476,24.96923246857961 L-26.15667703533639,25.025553052270425 L-26.18596378212673,25.050694860931806 L-26.2158832536095,25.073703857313877 L-26.246330052167853,25.094498987398477 L-26.277196922564638,25.113006995976058 L-26.308375129771512,25.129162684702518 L-26.339754842010898,25.142909141774076 L-26.37122551766143,25.15419794241102 L-26.402676294664058,25.16298931944417 L-26.43399638105689,25.169252303403063 L-26.465075445263125,25.172964831612433 L-26.495804004757204,25.174113825912585 L-26.526073811739963,25.172695238729986 L-26.555778234464224,25.168714067335678 L-26.584812632867507,25.162184336241335 " />
			<path d="M-24.906926513230673,20.72797695166139 L-24.88188199762313,20.74505088331228 L-24.858012743416786,20.76445285533758 L-24.835402835068518,20.786114520219357 L-24.81413192072513,20.809959570197385 L-24.794274931646083,20.835904006079275 L-24.77590181824236,20.863856433145227 L-24.7590773036615,20.89371838310512 L-24.743860655786712,20.925384660973737 L-24.73030547845333,20.958743715642157 L-24.71845952261805,20.993678032839963 L-24.70836451814615,21.030064549103905 L-24.700056026809317,21.067775085294784 L-24.688909260686348,21.146632648178695 L-24.685176153214726,21.22914053081978 L-24.68890926068634,21.31413715177528 L-24.700056026809303,21.4004258920745 L-24.71845952261803,21.486791941735145 L-24.743860655786687,21.57201940238048 L-24.775901818242325,21.654908405179427 L-24.814131920725096,21.734292003115787 L-24.858012743416744,21.80905259977003 L-24.90692651323062,21.878137683322148 " />
			<path d="M-26.584812632867553,18.562521045166907 L-26.532216970467427,18.517554472008534 L-26.477731430621002,18.47957111007307 L-26.42197393767465,18.44900173134448 L-26.365576841284476,18.42619302530081 " />
			<path d="M-26.985317357574395,18.696022620069186 L-26.58481263286755,18.562521045166907 " />
			<path d="M-26.9853173575744,12.83070287569473 L-26.820910091031454,12.795455209111589 L-26.656901046920222,12.765582525919545 L-26.4933842349843,12.741101949096798 L-26.330453382820533,12.722027510874087 L-26.168201882154463,12.70837014469143 L-26.006722735308365,12.700137678931101 L-25.846108501892434,12.697334832430402 L-25.686451245749755,12.699963211776836 L-25.527842482185434,12.708021310387217 L-25.370373125510188,12.721504509371234 L-25.214133436928353,12.740405080179004 L-25.059212972800342,12.764712189031052 L-24.905700533309023,12.794411903128223 L-24.75368411155961,12.829487198637953 L-24.603250843142163,12.869917970452278 L-24.454486956185548,12.915681043712084 L-24.307477721931633,12.966750187090879 L-24.162307405857938,13.023096127830563 L-24.019059219376764,13.084686568520524 L-23.877815272138562,13.151486205610468 L-23.73865652496678,13.223456749646365 L-23.601662743451243,13.300556947217903 L-23.466912452226648,13.38274260460489 L-23.334482889962334,13.469966613109015 L-23.20444996508921,13.562178976056508 L-23.07688821228915,13.659326837456135 L-22.951870749771803,13.761354512296194 L-22.82946923736338,13.868203518463066 L-22.70975383543131,13.979812610263092 L-22.592793164668443,14.096117813528508 L-22.478654266759754,14.217052462287338 L-22.367402565954173,14.342547236976241 L-22.259101831563463,14.47253020417438 L-22.153814141409775,14.606926857835553 L-22.051599846242723,14.745660161994953 L-21.952517535146423,14.888650594926052 L-21.856624001956305,15.035816194722369 L-21.76397421270498,15.187072606277889 L-21.674621274115808,15.342333129639293 L-21.588616403162153,15.501508769702255 L-21.506008897709947,15.664508287223292 L-21.42684610826018,15.831238251117965 L-21.351173410807696,16.00160309201545 L-21.279034180831705,16.17550515703875 L-21.210469768433057,16.35284476577919 L-21.145519474632405,16.53352026743307 L-21.084220528842913,16.717428099067774 L-21.026608067530425,16.90446284498387 L-20.97271511407329,17.094517297139248 L-20.922572559833398,17.287482516600623 L-20.87620914644933,17.483247895987134 L-20.833651449361646,17.68170122287037 L-20.794923862579907,17.882728744094358 L-20.760048584700083,18.086215230978702 L-20.72904560618031,18.292044045367483 L-20.701932697882413,18.500097206486124 L-20.67872540088568,18.71025545856773 L-20.659437017578714,18.922398339210357 L-20.644078604034547,19.136404248425894 L-20.6326589636733,19.352150518340984 L-20.625184642216084,19.569513483510057 L-20.621659923933002,19.788368551800197 L-20.622086829187403,20.008590275807173 L-20.62646511327782,20.230052424761684 L-20.63479226657823,20.452628056884695 L-20.64706351597658,20.67618959215024 L-20.6632718276107,20.900608885414112 L-20.683407910900133,21.125757299866475 L-20.70746022387146,21.351505780766306 L-20.735414979774156,21.577724929415357 L-20.767256154983123,21.804285077329343 L-20.802965498183426,22.031056360563696 L-20.842522540831904,22.25790879415137 L-20.885904608889707,22.48471234661006 L-20.93308683581904,22.71133701447607 L-20.984042176836613,22.93765289682209 L-21.03874142441567,23.163530269716198 L-21.0971532250277,23.388839660579453 L-21.159244097114247,23.61345192239939 L-21.224978450278474,23.83723830775689 L-21.294318605685532,24.060070542624004 L-21.36722481766002,24.281820899890437 L-21.44365529646813,24.502362272576566 L-21.52356623227149,24.721568246690953 L-21.606911820238864,24.93931317369066 L-21.693644286801444,25.155472242502803 L-21.78371391703657,25.3699215510661 L-21.87706908316426,25.58253817735132 L-21.973656274140176,25.79320024982005 L-22.07342012632808,26.001787017281252 L-22.17630345523419,26.20817891810566 L-22.282247288285223,26.41225764875836 L-22.39119089863143,26.61390623161018 L-22.50307183995509,26.8130090819891 L-22.617825982264705,27.009452074433245 L-22.735387548654163,27.203122608107392 L-22.855689153005994,27.393909671345614 L-22.978661838616972,27.581703905283007 L-23.10423511772403,27.766397666540055 L-23.232337011907717,27.94788508892362 L-23.362894093350114,28.126062144109316 L-23.49583152692358,28.30082670127036 L-23.631073113086117,28.47207858561885 L-23.76854133155884,28.63971963582578 L-23.90815738576049,28.80365376028699 L-24.04984124797353,28.963786992202728 L-24.193511705215883,29.120027543439257 L-24.339086405792123,29.272285857141696 L-24.486481906497342,29.4204746590679 L-24.635613720446653,29.564509007613882 L-24.786396365502977,29.704306342502264 L-24.938743413275272,29.83978653210568 L-25.092567538659136,29.970871919378098 L-25.247780569891443,30.097487366367737 L-25.404293539090293,30.21956029728605 L-25.562016733251237,30.337020740108034 L-25.72085974567065,30.44980136668009 L-25.880731527766724,30.557837531312437 L-26.04154044126838,30.661067307833925 L-26.203194310742205,30.759431525088026 L-26.365600476427247,30.85287380084963 L-26.52866584734747,30.94134057414329 L-26.69229695467136,31.02478113594427 L-26.856400005288148,31.103147658244907 L-27.020880935569842,31.176395221469516 L-27.185645465288374,31.244481840222264 L-27.35059915165692,31.30736848735312 L-27.515647443464246,31.365019116328135 " />
			<path d="M-29.193533563101216,20.007175054408528 L-29.186553906646765,19.94042552234446 L-29.175160764336308,19.87333354514513 L-29.159450679968394,19.80646765027686 L-29.139556778468453,19.740394449417806 L-29.1156476378079,19.675673837074644 L-29.08792586049942,19.612854246119518 L-29.05662635677331,19.552468000451228 L-29.022014353983018,19.495026804161423 L-28.98438314910788,19.441017405430017 L-28.944051623398014,19.39089747189329 L-28.901361540221878,19.345091712436183 L-28.856674649014177,19.303988278272215 L-28.810369619864776,19.26793547380762 L-28.76283883472453,19.237238805161486 L-28.714485062418795,19.21215839135218 L-28.665718045644148,19.19290676008737 " />
			<path d="M-26.58481263286755,18.5625210451669 L-25.84772095122574,18.808218272380838 " />
			<path d="M-18.144174027225425,17.109316108461492 L-18.211112400028995,17.081013803496322 L-18.2769700347208,17.047529620806493 L-18.35170039404078,17.002482618642386 L-18.42637853760143,16.949510956130663 L-18.50041081519391,16.888670983177004 L-18.573180443915323,16.820148077019194 L-18.644062586449202,16.74425995653275 L-18.712440801881097,16.661454869360725 L-18.77772403314443,16.57230438731954 L-18.839363195181217,16.47749093477964 " />
			<path d="M-18.729816649854463,14.978702935704503 L-18.809587370224122,14.872804384332087 " />
			<path d="M-17.81303943391864,15.689814307307508 L-17.845643114264263,15.584526647729575 L-17.86748079505604,15.520727125947321 " />
			<path d="M-17.20867452918135,16.431305381848944 L-17.204955272421948,16.340483058841922 L-17.204835628537367,16.248130385087915 " />
			<path d="M-17.131299740348588,17.257739214156928 L-17.09801249495494,17.227486834535107 L-17.066008344889173,17.195432337467068 L-17.035320183508187,17.161666186919813 L-17.005975417621734,17.126282540717945 " />
			<path d="M-19.56069615511565,14.808371350865928 L-19.50703362681228,14.828363132866407 L-19.453556596794083,14.852494353279667 L-19.400449922123855,14.880681596356442 L-19.347897179636195,14.912827425665395 L-19.29608003135712,14.948820720907115 L-19.245177596542693,14.988537062029915 L-19.195365832507406,15.031839159319642 L-19.146816926382616,15.078577327976763 L-19.099698699907588,15.128590005540241 L-19.054174029310627,15.181704310369607 L-19.01040028228565,15.23773663925466 L-18.96852877401041,15.296493302087033 L-18.92870424408678,15.357771191399701 L-18.89106435621125,15.421358484460006 L-18.85573922230503,15.487035375489237 L-18.82285095274887,15.554574835477643 L-18.792513234277216,15.62374339696841 L-18.764830936990876,15.694301961097764 L-18.739899751846618,15.766006624101498 L-18.717805859876872,15.838609520430849 L-18.69862563428287,15.9118596795633 L-18.682425376431123,15.98550389354654 L-18.669261086665745,16.05928759227665 L-18.6591782707289,16.132955723484926 L-18.652211782458554,16.20625363439143 L-18.648385703307227,16.278927951977604 L-18.647713259098303,16.350727458835046 L-18.650196774307567,16.421403961562902 L-18.655827664028063,16.490713148711965 L-18.66458646364602,16.558415435309826 L-18.676442896125298,16.624276791047755 L-18.691355976667694,16.688069549266444 " />
			<path d="M-19.820995024988726,14.399477224615831 L-19.729876109100495,14.437721462042479 L-19.639593735813694,14.48373172106677 L-19.55014027985007,14.53753559346187 L-19.461793961831727,14.599080383154647 " />
			<path d="M-20.40092626003689,14.350114611189275 L-20.331567243579926,14.337126520974529 L-20.260932366677004,14.329568409446926 L-20.189401837240887,14.327524280365674 L-20.116983793121207,14.331034423223672 L-20.0435774072149,14.340040377291881 L-19.969538782790256,14.354486518028798 L-19.895225471497966,14.374317311711192 L-19.82099502498873,14.39947722461583 " />
			<path d="M-20.10382100743788,14.866115537968675 L-20.074173900259396,14.847949149443876 L-20.043712958881294,14.831649677768706 L-20.012486462233046,14.817242956716118 L-19.980543902607447,14.804751820152642 L-19.94793590721803,14.794196065847942 L-19.914714157957697,14.78559242409644 L-19.88093130948572,14.778954531200714 L-19.84664090577301,14.774292907858698 L-19.81189729523783,14.771614942488949 L-19.77675554460651,14.77092487952041 L-19.705500956834513,14.775509683185245 L-19.633328701991513,14.788018263716221 L-19.560696155115657,14.808371350865926 " />
			<path d="M-31.6522221134056,16.19757865987671 L-31.581511435286945,16.103297755718504 " />
			<path d="M-34.40993856003314,24.470727999759326 L-34.40993856003314,24.588579129957086 " />
			<path d="M-24.4907407682504,33.72185871986894 L-30.50114840833605,31.71838950650706 " />
			<path d="M-18.16618544791364,14.74819275885867 L-24.17659308799929,12.744723545496786 " />
			<path d="M-17.015111742844233,30.269003605489225 L-17.085822420962895,30.363284509647436 " />
			<path d="M-14.257395296216545,21.995854265606148 L-14.257395296216547,21.878003135408385 " />

       </g>
    </g>
    
</svg>
