<?xml version="1.0" encoding="UTF-8" standalone="no"?>
<svg
   xmlns:svg="http://www.w3.org/2000/svg"
   xmlns="http://www.w3.org/2000/svg"
   width="1024.0"
   height="320.0"

>
    <g transform="scale(15.122475631513092, -15.122475631513092)   translate(30.4610756030746,-9.257743468156754)" stroke-width="0.28666666800000146"  fill="none">
       <!-- hidden lines -->
       <g  stroke="rgb(32,64,32)" fill="none" stroke-dasharray="0.28666666800000146,0.28666666800000146" >

       </g>

       <!-- solid lines -->
       <g  stroke="rgb(64,192,64)" fill="none">
			<path d="M-15.309471902703129,-3.1517939508914012 L-15.344524500217497,-3.192945010366951 " />
			<path d="M-15.499682126168851,-3.4302307780943013 L-15.539146536549445,-3.5112790784731605 L-15.57534383618552,-3.5971713303671136 L-15.607979294235045,-3.6876632031995706 L-15.63677991099919,-3.7824539886168504 " />
			<path d="M-15.345309853692632,-3.1440746075337613 L-15.381981670473024,-3.1845295065754295 " />
			<path d="M-15.56769808636259,-3.4627504146321004 L-15.600637378947239,-3.5310637540389807 L-15.631277388433016,-3.6027914018889624 L-15.659442774047182,-3.677791963018549 L-15.684968488523655,-3.7558959421579488 L-15.707702164630437,-3.8369064181770733 L-15.72750640387895,-3.9206002330775935 L-15.744260905556727,-4.006729695710384 L-15.757864375743116,-4.0950247832546465 " />
			<path d="M-16.0976096485319,-5.367393321842939 L-16.062202163289317,-5.480379848417379 L-16.02158393023386,-5.593903386883489 L-15.976101738048913,-5.706693992702665 L-15.925829757058745,-5.818040448525726 L-15.870904378801884,-5.927212575647691 " />
			<path d="M-15.20279579551077,-7.778174593052029 L-15.103044550405606,-7.808160000592441 L-15.003533614787075,-7.831543155670394 L-14.904502719215214,-7.8482677262171805 L-14.806190437791539,-7.858293421277455 L-14.708833613413136,-7.861596088073671 L-14.612666787197382,-7.858167770192235 L-14.51792163345185,-7.84801672675121 L-14.424826401550611,-7.831167412503371 L-14.333605366061493,-7.807660418922566 L-14.24447828644901,-7.7775523764153025 L-14.157659877654554,-7.740915817893133 L-14.07335929282931,-7.69783900403452 L-13.99177961946598,-7.648425710657134 L-13.91311739014323,-7.592794978712811 L-13.837562109061496,-7.531080827507484 L-13.765295795510768,-7.463431931836929 L-13.69649254537017,-7.390011263816158 L-13.631318111695741,-7.310995700265324 L-13.569929505406813,-7.226575596597967 L-13.51247461703294,-7.136954328238151 L-13.45909186043267,-7.042347800671249 L-13.40990983934243,-6.942983929308723 L-13.36504703755886,-6.839102090419933 L-13.324611533500978,-6.730952544453737 L-13.288700739839788,-6.618795833139147 L-13.257401168822636,-6.502902151817491 L-13.23078822385762,-6.383550698518158 L-13.20892601786018,-6.261029001346098 L-13.191867218799468,-6.1356322258014355 L-13.179652922816594,-6.007662463699914 L-13.172312555220426,-5.877428005407264 L-13.169863799599444,-5.745242597140702 L-13.172312555220426,-5.611424685126821 L-13.179652922816594,-5.476296648436725 L-13.191867218799468,-5.340184022346621 L-13.20892601786018,-5.203414714094815 L-13.23078822385762,-5.066318212924463 L-13.257401168822636,-4.92922479631512 L-13.288700739839788,-4.792464734315362 L-13.324611533500976,-4.656367493893314 L-13.36504703755886,-4.521260945221863 L-13.409909839342427,-4.387470571810694 L-13.459091860432668,-4.255318686388009 L-13.51247461703294,-4.125123654420924 L-13.569929505406813,-3.9971991271451897 L-13.631318111695743,-3.8718532859518815 L-13.69649254537017,-3.749388099951429 L-13.765295795510768,-3.6300985985035927 L-13.837562109061496,-3.514272160465885 L-13.913117390143228,-3.4021878218727375 L-13.991779619465978,-3.2941156037132497 L-14.07335929282931,-3.190315861426974 L-14.157659877654556,-3.0910386576848636 L-14.24447828644901,-2.996523159966391 L-14.333605366061494,-2.906997064384138 L-14.424826401550611,-2.822676047143922 L-14.51792163345185,-2.743763244961924 L-14.61266678719738,-2.6704487656905456 L-14.708833613413134,-2.60290923033194 L-14.806190437791539,-2.5413073475425527 L-14.904502719215214,-2.48579152165371 L-15.003533614787074,-2.43649549515259 L-15.103044550405604,-2.3935380264848565 L-15.202795795510752,-2.3570226039551647 " />
			<path d="M-15.132085117392117,-2.2391714737574038 L-15.044088308721882,-2.2709587954569104 L-14.956245544811491,-2.307600575442825 L-14.86871060075433,-2.3490326696367028 L-14.781636712782934,-2.395182548169602 L-14.695176310017901,-2.4459694223508555 L-14.609480747629735,-2.501304386094494 L-14.524700041880706,-2.5610905715557646 L-14.44098260751055,-2.6252233187052796 L-14.358474997925775,-2.6935903585439442 L-14.277321648647353,-2.766072009637937 L-14.197664624465917,-2.842541387629693 L-14.119643370747108,-2.9228646273581163 L-14.043394469322399,-3.0069011171992077 L-13.969051399392749,-3.0945037452168482 L-13.896744303863645,-3.185519156692849 L-13.826599761520546,-3.2797880225854543 L-13.758740565443599,-3.377145318446316 L-13.693285508049495,-3.477420613307685 L-13.630349173136779,-3.5804383680341236 L-13.570041735298634,-3.686018242616416 L-13.512468767054335,-3.793975411869755 L-13.457731054036909,-3.904120888983567 L-13.405924418560641,-4.016261856356552 L-13.357139551877193,-4.13020200313779 L-13.311461855414024,-4.2457418688830595 L-13.268971291273033,-4.362679192724718 L-13.229742242251145,-4.48080926744394 L-13.19384338162784,-4.599925297825471 L-13.161337552947643,-4.719818762667565 L-13.132281660007953,-4.840279779813377 L-13.106726567244856,-4.961097473564832 L-13.084717010691246,-5.082060343835733 L-13.066291519663187,-5.202956636397906 L-13.051482349311556,-5.323574713572266 L-13.040315424157079,-5.443703424715826 L-13.032810292707591,-5.563132475856135 L-13.028980093236962,-5.6816527978260245 L-13.028831530785592,-5.7990569122542865 L-13.03236486542277,-5.915139294771512 L-13.039573911791388,-6.029696734795321 L-13.05044604993587,-6.142528691265149 L-13.064962247394302,-6.253437643703836 L-13.083097092516134,-6.362229437991456 L-13.104818838947109,-6.468713626246123 L-13.130089461203541,-6.572703800216733 L-13.158864721238672,-6.674017917604047 L-13.191094245884557,-6.772478620738876 L-13.226721615033934,-6.867913547059468 L-13.265684460407684,-6.960155630844595 L-13.307914574735008,-7.049043395674154 L-13.353338031155168,-7.13442123710529 L-13.401875312631796,-7.216139695069186 L-13.45344145115319,-7.294055715511698 L-13.507946176474949,-7.368032900819792 L-13.565294074144564,-7.437941748595403 L-13.625384752531264,-7.50365987835872 L-13.688113018568842,-7.565072245784049 L-13.75336906190368,-7.622071344093193 L-13.821038647125693,-7.674557392253828 L-13.89100331374567,-7.722438509653389 L-13.963140583568896,-7.765630876942717 L-14.037324175102045,-7.804058882767867 L-14.113424224618074,-7.837655256133242 L-14.191307513492006,-7.8663611841643135 " />
			<path d="M-14.191307513492024,-7.86636118416432 L-14.246218512535606,-7.88334828821907 L-14.301873342149035,-7.897951316681246 L-14.358225270958311,-7.91015800790906 L-14.415226982260117,-7.919958112379566 L-14.472830613751976,-7.927343401294826 L-14.530987797720503,-7.932307673491332 L-14.58964970165406,-7.934846760646905 L-14.648767069245668,-7.934958530780685 L-14.708290261751774,-7.9326428900432795 L-14.76816929967212,-7.927901782795567 L-14.828353904715765,-7.920739189976084 L-14.888793542017954,-7.911161125758375 L-14.949437462572448,-7.899175632501104 L-15.010234745843654,-7.884792773995175 L-15.07113434252278,-7.868024627013522 L-15.132085117392116,-7.848885271170681 " />
			<path d="M16.42255499305748,6.829472994960195 L16.514710695111408,6.7009099851711404 L16.602461049646855,6.566862393823981 L16.685511395168092,6.427780346322492 L16.76358285258497,6.284130873533545 L16.836413261675588,6.136396343519791 L16.903758061407782,5.985072841770758 L16.96539111116338,5.830668505371496 L17.021105450107594,5.673701816702536 L17.0707139921536,5.51469986240084 L17.11405015418868,5.35419656342807 L17.150968415452343,5.192730882189528 L17.1813448061881,5.030845012724154 L17.205077323927966,4.86908256004287 L17.222086276011872,4.7079867147289365 L17.232314547191805,4.54809842892994 L17.2357277914221,4.389954599866366 " />
			<path d="M16.07286272129221,2.2216955607637647 L16.137385506868004,2.2450798970461574 L16.2007050185512,2.2718143778847923 L16.26274546733774,2.301867003985566 L16.323432595171933,2.3352018044677667 L16.382693763828122,2.371778879918684 L16.440458041853546,2.4115544501504096 L16.49665628946829,2.4544809066016366 L16.55122124132076,2.500506869321765 L16.60408758699955,2.5495772484690904 L16.655192049205446,2.601633310249469 L16.704473459489876,2.6566127472165406 L16.751872831469264,2.7144497528493656 L16.79733343142757,2.7750751003182 L16.840800846222574,2.838416225344145 L16.882223048414563,2.904397313053487 L16.92155045853954,2.9729393887227755 L16.958736004452334,3.0439604123060082 L16.993735177668675,3.117375376630803 L17.026506086638694,3.1930964091460083 L17.057009506888186,3.2710328770989685 L17.08520892796753,3.35109149601655 L17.111070597152143,3.4331764413601107 L17.134563559842107,3.5171894632207286 L17.155659696612663,3.603030003917431 L17.174333756871178,3.69059531835768 L17.190563389080328,3.7797805970160203 L17.20432916751131,3.8704790913837064 L17.215614615495102,3.9625822417391783 L17.224406225143838,4.0559798070864 L17.230693473518826,4.150559997105591 L17.234468835225762,4.2462096059583825 L17.235727791422097,4.342814147787211 " />
			<path d="M17.2357277914221,4.3428141477872355 L17.23219582565336,4.506458631774785 L17.22161178851934,4.671908249253746 L17.204011220710775,4.8386074283177285 L17.179453224093002,5.005996401092274 L17.148020263244696,5.173513083408617 L17.109817888545773,5.340594962255456 L17.064974381744257,5.506680984670756 L17.013640325192306,5.671213441730771 L16.955988096197856,5.833639841309955 L16.89221128818989,5.993414763323104 L16.822524060640927,6.150001691219929 L16.747160419929767,6.302874813581987 L16.666373433559258,6.451520789772288 L16.580434380367716,6.595440473708612 L16.489631839587556,6.7341505899721925 L16.394270721810035,6.867185356623455 " />
			<path d="M16.394270721810017,6.867185356623475 L16.325583459245873,6.95593312690834 L16.254965909566366,7.041588705956841 L16.1825322850343,7.124013559968975 L16.108399735114606,7.203074380310698 L16.032688157004397,7.278643299118701 L15.955520001718957,7.3505980961056325 L15.87702007604741,7.418822396231292 L15.797315340698255,7.483205857920103 L15.716534704961338,7.543644351520451 L15.634808818218286,7.600040127717255 L15.55226985863863,7.65230197562539 L15.46905131940339,7.700345370308288 L15.385287792801813,7.744092609483101 L15.30111475255051,7.783472939191361 L15.216668334687006,7.81842266823186 L15.132085117392139,7.8488852711706745 " />
			<path d="M-14.325885447201555,-3.885066221368302 L-14.33532579663458,-4.004491724508678 L-14.337999368214268,-4.126138051129534 L-14.333914217826072,-4.248941723466364 L-14.323194493343271,-4.371831953478514 L-14.306074389967199,-4.493761173705687 L-14.282887689345507,-4.613733550005541 L-14.254053704176176,-4.73082992362487 L-14.220060668641668,-4.84422800292036 L-14.182834866348742,-4.950149183426075 L-14.140553780133851,-5.055220649868578 L-14.093314313104166,-5.158593159669505 L-14.041296070642426,-5.25939648051834 L-13.984761940463095,-5.356760827406212 L-13.924055426863802,-5.449839763628644 L-13.859594654382567,-5.537833402656087 L-13.791863195815921,-5.62001064269377 " />
			<path d="M-13.793786603496494,-5.375648215909246 L-13.836859753865532,-5.308581845590514 L-13.877796168922067,-5.239315384898312 L-13.916465457391324,-5.168157585327441 L-13.95275807634113,-5.095425121398767 L-13.986586105408144,-5.021438214125662 L-14.017883570649525,-4.946516365798931 L-14.046606332717229,-4.870974314597164 L-14.072731568489619,-4.795118302869677 L-14.098316780505252,-4.711746715194342 L-14.121160983083298,-4.626247566930263 L-14.141058082585744,-4.538935462339398 L-14.157819744908808,-4.450156468806193 L-14.171279303031344,-4.3602844441303255 L-14.181295394578902,-4.269716484522764 L-14.187755191073723,-4.178867585555929 L-14.190577088957248,-4.088164649605315 " />
			<path d="M-14.695597428702918,-3.5550686270012473 L-14.725655083528373,-3.631154104017206 L-14.752426692222931,-3.711184622947474 L-14.775671709268615,-3.7948507593777845 L-14.795178701510425,-3.88179281615604 L-14.81077034636952,-3.971605219596493 L-14.822307728306955,-4.063842349985594 L-14.829693739015841,-4.158025650303404 L-14.832875423427295,-4.253651785613519 L-14.831845161974915,-4.350201565862257 L-14.82664063621427,-4.447149302112508 L-14.817343585461057,-4.543972244267717 L-14.80407742178606,-4.640159748890553 L-14.7870038248051,-4.735221848383099 L-14.766318482202,-4.828696935073302 L-14.742246173881346,-4.920158331417459 L-14.715035415472247,-5.00921958519722 L-14.684002798626878,-5.098511309332672 L-14.649373491019967,-5.187293002926467 L-14.61119395445328,-5.275060788475557 L-14.569552011863095,-5.361296971138518 L-14.524577615691888,-5.445478807065774 L-14.476442490679734,-5.527087975665383 L-14.425358587745142,-5.6056204327780454 L-14.371575343414323,-5.680596278768226 L-14.315375801566457,-5.751569254159244 L-14.257071716165303,-5.818135478963876 L-14.196997809931544,-5.879941081272403 L-14.135505409696933,-5.936688414346796 L-14.072955710529735,-5.988140635322437 L-14.009712935120055,-6.034124506481206 L-13.94613765157357,-6.074531374474844 L-13.882580492661127,-6.109316375999542 " />
			<path d="M-13.848279718728644,-5.994473664646571 L-13.904611770340972,-5.954967967650789 L-13.960491801417051,-5.911106504583008 L-14.015664344097129,-5.862993324978441 L-14.069873939420434,-5.810772636773157 L-14.122868913276184,-5.754627757572282 L-14.174405173882418,-5.694779168712025 L-14.224249913463737,-5.631481707948057 L-14.272185097782032,-5.565020973103587 L-14.318010634339165,-5.495709042476693 L-14.361547123046464,-5.4238796459870215 L-14.402638111110035,-5.349882942077067 L-14.441151795583794,-5.274080067997625 L-14.47698214099864,-5.196837634712136 L-14.510049404071323,-5.118522332381377 L-14.54030008114585,-5.039495799053189 L-14.567706315320198,-4.960109885146537 L-14.592394989039994,-4.8798537731065945 L-14.614548415432163,-4.7976138252572085 L-14.633981674111341,-4.71366948135755 L-14.650524872168015,-4.628327463376522 L-14.664026398703374,-4.541918801335516 L-14.674355976255743,-4.45479515073255 L-14.681407402280296,-4.367324468238195 L-14.685100879189406,-4.279886143287639 L-14.685384842552672,-4.192865711167841 L-14.682237213572122,-4.106649296153403 L-14.675666023108043,-4.021617949374321 L-14.665709379135812,-3.9381420540538286 L-14.652434776043732,-3.856575969788187 L-14.63593777092809,-3.7772530775985373 L-14.616340077269456,-3.7004813692301344 L-14.593787148483973,-3.6265396989125223 " />
			<path d="M-15.006597131356394,-3.4138754634754185 L-15.039732229951777,-3.455705342307808 L-15.070949487790047,-3.4992894366664724 L-15.100217059809582,-3.5444677141168093 L-15.127514371164384,-3.5910776518175505 L-15.166821316217307,-3.667400246900086 L-15.202624069434314,-3.7491346610799 L-15.234539088606097,-3.835976066755384 L-15.262213956304775,-3.927535973988704 L-15.285337109074058,-4.02334574933358 L-15.303646849773118,-4.122863055615106 L-15.316939168312521,-4.225481115787538 L-15.325073936793352,-4.3305405196259 L-15.327979123727019,-4.4373431173133175 L-15.325652783204188,-4.545167397173162 L-15.31816270892857,-4.653284641779581 L-15.30564378714284,-4.760975108642793 L-15.288293222496797,-4.867543493324355 L-15.266363933341543,-4.9723330017755165 L-15.240156506808905,-5.074737475871879 L-15.210010162302831,-5.174211167474081 L-15.175853930254458,-5.271934675387762 L-15.137392004965413,-5.368990464861867 L-15.094692969120102,-5.46471466375304 L-15.04788506707008,-5.558425891996201 L-14.997157000592342,-5.649439327125502 L-14.942756752381003,-5.737081827644468 L-14.884988353409888,-5.820707477161017 L-14.824206633452896,-5.899712840029087 L-14.760810122722326,-5.973551199193678 L-14.695232394220092,-6.041745084526007 L-14.627932238521415,-6.103896493966075 L-14.559383134766168,-6.159694352176921 L-14.490062516543786,-6.208918928174993 L-14.420441326534954,-6.251443126640123 L-14.350974311371086,-6.287230758130594 L-14.28209143454338,-6.316332063458064 " />
			<path d="M-14.134762334391166,-6.267222363407441 L-14.203645211219058,-6.2381210580799005 L-14.273112226382915,-6.202333426589435 L-14.342733416391749,-6.1598092281243 L-14.412054034614119,-6.110584652126238 L-14.480603138369352,-6.054786793915402 L-14.547903294068034,-5.9926353844753315 L-14.613481022570257,-5.924441499143016 L-14.676877533300848,-5.850603139978404 L-14.737659253257856,-5.771597777110309 L-14.795427652228963,-5.687972127593775 L-14.849827900440303,-5.600329627074802 L-14.90055596691803,-5.509316191945517 L-14.947363868968045,-5.415604963702374 L-14.990062904813364,-5.319880764811197 L-15.0285248301024,-5.222824975337109 L-15.062681062150782,-5.125101467423399 L-15.092827406656863,-5.025627775821172 L-15.119034833189493,-4.923223301724833 L-15.140964122344746,-4.818433793273672 L-15.158314686990785,-4.711865408592135 L-15.170833608776512,-4.604174941728949 L-15.178323683052136,-4.4960576971224775 L-15.180650023574966,-4.388233417262607 L-15.177744836641299,-4.281430819575216 L-15.169610068160472,-4.176371415736878 L-15.156317749621065,-4.073753355564422 L-15.138008008921993,-3.974236049282848 L-15.114884856152718,-3.878426273937998 L-15.087209988454044,-3.7868663667047002 L-15.055294969282265,-3.7000249610292157 L-15.01949221606527,-3.618290546849422 L-14.980185271012337,-3.5419679517668676 L-14.950445121417847,-3.491409191006542 L-14.918382566108644,-3.4425558164917223 " />
			<path d="M-15.281329920418697,-3.382762355454507 L-15.332754617461475,-3.4182913102414147 L-15.381934641999587,-3.4574711307662103 L-15.428708996144273,-3.500091067397522 L-15.47293927034906,-3.5459180750360244 L-15.514510734610488,-3.594700542412207 L-15.553332927628228,-3.646172226500077 L-15.58933975422711,-3.7000562762538203 L-15.622489117994967,-3.7560692340944115 L-15.661796063047882,-3.832391829176931 L-15.697598816264893,-3.914126243356746 L-15.729513835436677,-4.000967649032252 L-15.757188703135354,-4.092527556265553 L-15.780311855904634,-4.188337331610431 L-15.798621596603702,-4.287854637891985 L-15.811913915143101,-4.390472698064395 L-15.82004868362393,-4.49553210190276 L-15.822953870557598,-4.60233469959018 L-15.820627530034768,-4.710158979450002 L-15.81313745575915,-4.818276224056452 L-15.800618533973418,-4.925966690919666 L-15.783267969327378,-5.0325350756012055 L-15.761338680172122,-5.137324584052395 L-15.73513125363948,-5.23972905814876 L-15.704984909133413,-5.3392027497509424 L-15.670828677085039,-5.4369262576646245 L-15.632366751795995,-5.533982047138732 L-15.58966771595068,-5.6297062460299045 L-15.542859813900655,-5.723417474273067 L-15.492131747422919,-5.814430909402369 L-15.43773149921158,-5.9020734099213366 L-15.379963100240461,-5.985699059437886 L-15.319181380283469,-6.064704422305957 L-15.255784869552913,-6.13854278147053 L-15.190207141050678,-6.206736666802861 L-15.122906985351984,-6.268888076242945 L-15.054357881596754,-6.324685934453779 L-14.985037263374371,-6.373910510451849 L-14.915416073365524,-6.416434708916992 L-14.84594905820167,-6.452222340407453 L-14.777066181373963,-6.481323645734923 " />
			<path d="M-14.629737081221748,-6.432213945684303 L-14.698619958049605,-6.403112640356781 L-14.768086973213487,-6.367325008866302 L-14.837708163222352,-6.324800810401148 L-14.907028781444719,-6.275576234403087 L-14.975577885199948,-6.219778376192253 L-15.042878040898623,-6.1576269667521855 L-15.108455769400843,-6.089433081419873 L-15.17185228013143,-6.0155947222552655 L-15.232634000088433,-5.936589359387176 L-15.290402399059536,-5.8529637098706475 L-15.344802647270875,-5.76532120935168 L-15.395530713748599,-5.674307774222401 L-15.44233861579861,-5.5805965459792635 L-15.485037651643946,-5.484872347088045 L-15.523499576932998,-5.387816557613917 L-15.557655808981362,-5.290093049700259 L-15.58780215348743,-5.190619358098077 L-15.614009580020063,-5.0882148840017365 L-15.635938869175316,-4.983425375550573 L-15.653289433821367,-4.8768569908689825 L-15.6658083556071,-4.769166524005741 L-15.673298429882719,-4.66104927939932 L-15.675624770405548,-4.5532249995394976 L-15.672719583471883,-4.446422401852103 L-15.664584814991056,-4.341362998013762 L-15.651292496451651,-4.238744937841301 L-15.632982755752579,-4.1392276315597245 L-15.609859602983303,-4.04341785621487 L-15.582184735284628,-3.951857948981569 L-15.55026971611285,-3.8650165433060826 L-15.51446696289585,-3.783282129126286 L-15.475160017842917,-3.706959534043728 L-15.447793177675107,-3.6602367285520594 L-15.418446421057173,-3.6149530326990216 L-15.387140516429298,-3.571272163333123 L-15.353907614977942,-3.529355314647474 L-15.318791471166431,-3.4893595802202775 L-15.281847515540568,-3.4514363498013574 L-15.243142769931206,-3.41572971034198 L-15.202755598636037,-3.3823748824887105 " />
			<path d="M-14.955308422095472,-3.4294678887547656 L-15.022889300433274,-3.409552803154626 L-15.090243245412234,-3.394928339151506 L-15.15714408570488,-3.385643604996425 L-15.223367171487618,-3.38172977838283 L-15.288690128804095,-3.3832000017533956 L-15.352893606286326,-3.3900493381683248 L-15.415762011726086,-3.4022547878833596 L-15.477084236023241,-3.4197753655818195 " />
			<path d="M-15.477084236023252,-3.419775365581822 L-15.544121089441731,-3.4458338507256467 L-15.608644008796304,-3.4784642404466095 L-15.670377513660235,-3.517527219385536 L-15.729058033004282,-3.562856008261276 L-15.78443503051249,-3.614257075934386 L-15.83627207424629,-3.671510965687797 L-15.884347846090023,-3.7343732321966634 L-15.928457086668015,-3.8025754851870053 " />
			<path d="M-15.928457086668015,-3.802575485187007 L-15.882802422794956,-3.737176492311578 L-15.832912501324811,-3.67564691157627 L-15.778938318335586,-3.6184943256380473 L-15.721087045107547,-3.566195195900194 L-15.659620591387931,-3.5191836181102962 L-15.59485241327506,-3.4778407751529237 L-15.527142605764764,-3.4424855792380447 L-15.456891420538671,-3.4133669546248213 " />
			<path d="M-14.282091434543215,-6.316332063458125 L-14.227455266593894,-6.335016215530615 L-14.172396667756956,-6.3499636676331965 L-14.11712647617492,-6.360981812802586 L-14.061866669242509,-6.367901971575173 " />
			<path d="M-14.000712730363675,-6.30620662223368 L-14.068017927564908,-6.289529742853871 L-14.134762334390839,-6.267222363407565 " />
			<path d="M-14.303282667659495,-3.9124060245908057 L-14.376725465062798,-3.8270847298932225 L-14.453345832068319,-3.748123254469725 L-14.532722970679593,-3.675955253651847 L-14.614420942748607,-3.6109770731024966 L-14.697991064142075,-3.5535455720910494 L-14.7829743689085,-3.503976163627181 L-14.86890412991284,-3.4625410822169718 L-14.955308422095461,-3.429467888754769 " />
			<path d="M-14.777066181373797,-6.481323645734985 L-14.715928241107237,-6.50197681040215 L-14.654292653735439,-6.517926507098703 L-14.592457281209189,-6.528909011303256 L-14.530736515524872,-6.534699394939554 L-14.469456731730098,-6.535117653625519 L-14.408951137624891,-6.53003403869807 L-14.349554169854482,-6.519373342507269 L-14.291595619149385,-6.503117919475716 " />
			<path d="M-14.29159561914923,-6.503117919475664 L-14.234659220230284,-6.480981640163306 L-14.17984249926216,-6.453248519949086 L-14.127437368429753,-6.420084544768339 L-14.077707546434032,-6.381713225051289 L-14.030884215412504,-6.338410817372459 L-13.987162637772514,-6.290500242585755 L-13.946699828320842,-6.238343965375233 L-13.909613321684436,-6.182336139657712 " />
			<path d="M-14.219480035348758,-6.473964249509722 L-14.26950247937725,-6.48190789446967 L-14.320273529095424,-6.48593495193316 L-14.371595915599231,-6.486091480638951 L-14.423272896868227,-6.482450574352569 L-14.475110600451089,-6.475110635277507 L-14.526920219165305,-6.464193267350596 L-14.578520013200135,-6.449840860898311 L-14.62973708122142,-6.432213945684428 " />
			<path d="M-15.06270587796616,-6.719733485798071 L-15.141445421521263,-6.684058744760279 L-15.219588400683808,-6.641368782970802 L-15.296924705056647,-6.591733208717475 L-15.373244224242642,-6.535221630288133 L-15.447787924893406,-6.472411248070695 L-15.519941963924746,-6.403846089704996 L-15.589714016335796,-6.329546004356745 L-15.657111757125696,-6.249530841191652 L-15.721839309432251,-6.164085594630506 L-15.783378873373529,-6.073843426684463 L-15.841405239419055,-5.979346437904781 L-15.895593198038357,-5.881136728842722 L-15.945901187987864,-5.779194610437486 L-15.99225073459323,-5.673732168076342 L-16.03426125817782,-5.56563916398265 L-16.07155217906501,-5.455805360379768 L-16.103819805927063,-5.3443400753330135 L-16.13089661304004,-5.231224866830001 L-16.152606269133,-5.117157856977533 L-16.16877244293499,-5.002837167882417 L-16.17929381763138,-4.889191968343399 L-16.184164753107748,-4.7766902297117575 L-16.183352433143487,-4.6653382779230945 L-16.17682404151798,-4.555142438913008 L-16.164647131337908,-4.4472811194408415 L-16.14694566884081,-4.342973008032006 L-16.123771457502333,-4.242284853271206 L-16.09517630079813,-4.14528340374315 L-16.061257411223213,-4.052243889895364 L-16.022121022316025,-3.963754887652824 L-15.97783246911736,-3.880353163816411 L-15.928457086668022,-3.8025754851870177 " />
			<path d="M-15.20279579551077,-6.953216681667712 L-15.262208052265317,-6.931747889906056 L-15.32151540553842,-6.906987592968885 L-15.38061313707541,-6.878979509803974 L-15.439396898748099,-6.847773093934772 L-15.49776289680098,-6.813423446140931 L-15.555608075118563,-6.775991217167543 L-15.612830297190277,-6.735542500634882 L-15.669328526451627,-6.692148716337717 L-15.725003004683208,-6.64588648414027 L-15.779755428152537,-6.596837488689481 L-15.833489121187744,-6.54508833518544 L-15.886109206876585,-6.490730396463665 L-15.937522774589432,-6.43385965165923 L-15.98763904403042,-6.3745765167375925 L-16.03636952552707,-6.312985667191386 L-16.08362817627541,-6.2491958532161975 L-16.12933155226469,-6.183319707691709 L-16.173398955613408,-6.115473547307218 L-16.215752577056573,-6.045777167182718 L-16.256317633332557,-5.974353629348137 L-16.295022499226956,-5.901329045454255 L-16.33179883404034,-5.826832354098928 L-16.366581702256585,-5.750995093161812 L-16.3993096881987,-5.67395116754957 L-16.429925004469702,-5.595836612761647 L-16.458373593987147,-5.516789354694081 L-16.484605225431004,-5.436948966105471 L-16.508573581936496,-5.356456420175093 L-16.530236342875195,-5.275453841588315 L-16.549555258580046,-5.194084255588812 L-16.56649621788231,-5.112491335440674 L-16.581029308341243,-5.030819148746314 L-16.59312886906011,-4.9492119030680986 L-16.60277353599532,-4.8678136913028505 L-16.609946279678635,-4.786768237258817 L-16.61463443528592,-4.706218641884337 L-16.61682972499923,-4.626307130596267 L-16.61652827262288,-4.547174802154349 L-16.613730610427563,-4.468961379524883 L-16.608441678210564,-4.39180496317362 L-16.600670814573597,-4.315841787223503 L-16.59043174043375,-4.2412059789077645 L-16.577742534796656,-4.168029321743145 L-16.562625602834586,-4.096441022841378 L-16.545107636325948,-4.026567484769807 L-16.525219566525916,-3.9585320823639414 L-16.502996509551522,-3.8924549448860506 L-16.478477704377553,-3.828452743914423 L-16.45170644355279,-3.7666384873378114 L-16.42272999675889,-3.7071213198188158 L-16.391599527346884,-3.6500063300785057 L-16.358370001998722,-3.5953943653425826 L-16.323100093673244,-3.543381853276686 L-16.2858520780081,-3.4940606317252665 L-16.246691723360424,-3.447517786554648 L-16.205688174680454,-3.4038354978866 L-16.16291383142317,-3.3630908949939173 L-16.118444219713467,-3.325355920114228 L-16.072357858990628,-3.290697201422479 L-16.02473612336752,-3.259175935386398 L-15.975663097949338,-3.230847778712652 L-15.92522543036559,-3.2057627500744967 L-15.873512177777442,-3.183965141794425 L-15.820614649630624,-3.165493441637768 " />
			<path d="M-15.119144165136925,-3.2656321457132975 L-15.207059965094011,-3.232726413194449 L-15.295742148063553,-3.2054591717580467 L-15.384601542888557,-3.1839798012613096 L-15.473048978412027,-3.1684376815614543 L-15.560808919331983,-3.158833105288478 L-15.647994227979755,-3.155103825855552 L-15.73459832964831,-3.157305414294655 L-15.820614649630613,-3.165493441637766 " />
			<path d="M-14.725758817591295,-3.4515061843069725 L-14.676273495199041,-3.493046087685248 L-14.627525730680382,-3.536791640474867 L-14.579583810407081,-3.5826815634538938 L-14.532514891915964,-3.6306515735444953 L-14.486384909833948,-3.68063447386134 L-14.441258483516135,-3.732560247841688 L-14.397198826526354,-3.786356157325314 L-14.354267658086956,-3.8419468444468636 " />
			<path d="M-14.354267658086947,-3.841946844446877 L-14.290159343614658,-3.931381981691433 L-14.229115618720437,-4.024632480019886 L-14.171341465314365,-4.1213852087165685 L-14.117030886241757,-4.221315276743657 L-14.066366253830896,-4.3240871237097425 L-14.019517697495463,-4.429355646665584 L-13.976642532448091,-4.536767358943324 L-13.937884731443424,-4.645961577147811 L-13.903374441324466,-4.7565716323142 L-13.873227545995718,-4.868226101164815 L-13.84754527729056,-4.98055005333075 L-13.826413875039599,-5.093166310350132 L-13.809904297481431,-5.2056967122153655 L-13.79807198298828,-5.317763387216355 L-13.790956663906584,-5.42899002081565 L-13.788582233137681,-5.539003119294653 " />
			<path d="M-13.788582233137681,-5.539003119294669 L-13.7902857153088,-5.630958185914881 L-13.795392057984397,-5.721556069944549 L-13.803888959537701,-5.810578513145606 L-13.815755950188635,-5.897811052654934 L-13.83096444131729,-5.983043537644191 L-13.849477794336432,-6.06607063559155 L-13.87125140895706,-6.146692326945743 L-13.896232830634409,-6.224714386990673 L-13.924361876935546,-6.299948853749763 L-13.955570782524116,-6.372214480802831 L-13.98978436241298,-6.441337173924587 L-14.026920193091428,-6.507150410492863 L-14.066888811090644,-6.5694956406562115 L-14.10959392850903,-6.628222669294371 L-14.154932664978197,-6.68319001785147 L-14.202795795510786,-6.734265265170265 L-14.253068013633031,-6.781325366506302 L-14.305628209168148,-6.824256949953483 L-14.360349760001366,-6.862956589566924 L-14.417100837123682,-6.897331054525104 L-14.475744722219503,-6.927297533731093 L-14.536140137033035,-6.952783835311733 L-14.59814158371998,-6.973728560534176 L-14.661599695364583,-6.990081251720821 L-14.726361595817618,-7.001802513806274 L-14.79227126798842,-7.0088641092435084 L-14.859169929703725,-7.011249026030594 L-14.926896416227832,-7.008951518694095 L-14.995287568522562,-7.001977122130427 L-15.06417862631168,-6.990342638271793 L-15.133403625002831,-6.9740760956088685 L-15.202795795510758,-6.953216681667716 " />
			<path d="M-14.72575881759144,-3.451506184307011 L-14.631647554246792,-3.5336911093015466 L-14.540916071599309,-3.6228126391653843 L-14.453786084422003,-3.718593807939569 L-14.370479307487878,-3.820757649665145 " />
			<path d="M-13.788655437772029,-5.519793139159789 L-13.790966669781373,-5.602331756758506 L-13.796299063930404,-5.683620764590997 L-13.804647608722474,-5.763493119537864 L-13.815943816617397,-5.841330920703344 L-13.830155445282829,-5.91700533315197 L-13.847264775998813,-5.990529772392398 L-13.867292682881214,-6.061978633712715 L-13.89027587679703,-6.131337881108055 L-13.916104322575096,-6.198248608078157 L-13.944660880139818,-6.262337859302934 L-13.975776788904962,-6.323242066662036 L-14.009359730972847,-6.3808354110888255 L-14.04538980705475,-6.435088444993362 L-14.083865652714758,-6.485986322204043 L-14.124887485607532,-6.533571606798331 L-14.168264328036045,-6.577612843878945 L-14.213737328363303,-6.617820399518481 L-14.26104937875449,-6.6539490688636365 L-14.3100687448054,-6.685983416976145 L-14.360786832225761,-6.713938720527943 L-14.413198651338686,-6.737826543450152 L-14.467394373581095,-6.757628364821622 L-14.523201724639287,-6.7732510543767726 L-14.580243491572487,-6.784592846555556 L-14.6381547659206,-6.791561933745201 L-14.696819679128247,-6.794205546549416 L-14.756254944788356,-6.792549262721578 L-14.816461251812893,-6.786591155722935 L-14.877455199453722,-6.7763012927482285 L-14.939095536833415,-6.761648909174354 L-15.000982627008218,-6.742751039958695 L-15.062705877966154,-6.7197334857980735 " />
			<path d="M-14.313783234562058,-3.897477547839834 L-14.402295173551888,-3.7921508817967506 L-14.495508922355452,-3.6931456714037028 L-14.543497666847747,-3.6464544011530817 L-14.592443926757882,-3.6016220519272193 L-14.64233207578952,-3.5586438756714616 L-14.693073833564446,-3.5175826243414994 L-14.744580919704449,-3.4785010498930236 L-14.79676505383132,-3.4414619042817236 L-14.849537955566847,-3.406527939463291 L-14.902811344532818,-3.3737619073934155 L-14.956496940351022,-3.343226560027788 L-15.01050646264325,-3.314984649322099 L-15.064751631031287,-3.289098927232039 L-15.119144165136923,-3.2656321457132984 " />
			<path d="M15.13208511739212,7.848885271170682 L15.071134342522784,7.868024627013522 L15.010234745843656,7.884792773995175 L14.94943746257245,7.899175632501105 L14.888793542017956,7.911161125758376 L14.828353904715765,7.920739189976086 L14.768169299672122,7.927901782795568 L14.708290261751776,7.932642890043281 L14.64876706924567,7.934958530780686 L14.589649701654062,7.934846760646906 L14.530987797720506,7.932307673491334 L14.472830613751977,7.927343401294827 L14.41522698226012,7.919958112379567 L14.358225270958313,7.910158007909061 L14.301873342149037,7.8979513166812465 L14.246218512535608,7.88334828821907 L14.191307513492044,7.866361184164326 " />
			<path d="M-15.132085117392117,-7.84888527117068 L-15.216668334687013,-7.818422668231856 L-15.301114752550527,-7.783472939191352 L-15.38528779280184,-7.744092609483085 L-15.469051319403427,-7.7003453703082645 L-15.552269858638677,-7.65230197562536 L-15.63480881821834,-7.600040127717215 L-15.716534704961406,-7.543644351520401 L-15.79731534069833,-7.4832058579200424 L-15.877020076047494,-7.418822396231219 L-15.95552000171905,-7.350598096105547 L-16.032688157004497,-7.2786432991186025 L-16.108399735114713,-7.203074380310586 L-16.182532285034412,-7.124013559968848 L-16.254965909566486,-7.041588705956698 L-16.325583459245998,-6.955933126908181 L-16.394270721810145,-6.867185356623304 " />
			<path d="M-17.235727791422097,-4.342814147787455 L-17.234468835225766,-4.246209605958593 L-17.230693473518834,-4.150559997105794 L-17.22440622514385,-4.055979807086593 L-17.21561461549512,-3.9625822417393617 L-17.204329167511336,-3.8704790913838814 L-17.190563389080353,-3.779780597016184 L-17.174333756871206,-3.690595318357837 L-17.155659696612695,-3.6030300039175778 L-17.134563559842142,-3.5171894632208653 L-17.111070597152178,-3.4331764413602404 L-17.085208927967567,-3.3510914960166702 L-17.057009506888228,-3.271032877099079 L-17.026506086638737,-3.193096409146112 L-16.993735177668718,-3.117375376630897 L-16.958736004452376,-3.043960412306094 L-16.92155045853958,-2.9729393887228537 L-16.882223048414605,-2.9043973130535585 L-16.840800846222614,-2.8384162253442087 L-16.79733343142761,-2.775075100318256 L-16.751872831469303,-2.714449752849415 L-16.70447345948991,-2.6566127472165837 L-16.655192049205482,-2.6016333102495053 L-16.604087586999583,-2.5495772484691224 L-16.55122124132079,-2.500506869321791 L-16.49665628946832,-2.4544809066016575 L-16.440458041853567,-2.411554450150427 L-16.38269376382814,-2.3717788799186974 L-16.323432595171948,-2.335201804467776 L-16.262745467337755,-2.3018670039855724 L-16.200705018551208,-2.2718143778847955 L-16.137385506868007,-2.245079897046158 L-16.072862721292218,-2.2216955607637665 " />
			<path d="M-16.07286272129221,-2.221695560763764 L-16.01795172224863,-2.2047084567090143 L-15.9622968926352,-2.190105428246838 L-15.905944963825924,-2.1778987370190235 L-15.848943252524117,-2.168098632548517 L-15.79133962103226,-2.1607133436332573 L-15.733182437063732,-2.1557490714367513 L-15.674520533130176,-2.1532099842811783 L-15.615403165538567,-2.1530982141473984 L-15.55587997303246,-2.155413854884803 L-15.496000935112114,-2.160154962132516 L-15.43581633006847,-2.167317554951999 L-15.375376692766281,-2.176895619169708 L-15.314732772211787,-2.188881112426979 L-15.25393548894058,-2.2032639709329094 L-15.193035892261452,-2.2200321179145623 L-15.132085117392126,-2.2391714737574 " />
			<path d="M-15.820614649630619,-3.165493441637766 L-15.75657403325991,-3.147965839781648 L-15.691162465637166,-3.1351905426472078 L-15.62454188174722,-3.127199177171743 L-15.556877209654536,-3.124011527037162 L-15.488335962201981,-3.125635483692868 L-15.419087822310637,-3.132067026819427 L-15.349304222907282,-3.143290234281407 L-15.279157922519524,-3.159277321544722 L-15.208822577589213,-3.1799887104609263 L-15.138472312562964,-3.2053731272481514 L-15.06828128882406,-3.235367729426132 L-14.99842327353292,-3.2698982613910785 L-14.929071209443523,-3.3088792382452388 L-14.86039678676074,-3.3522141574260695 L-14.792570018098544,-3.399795737611088 L-14.7257588175913,-3.4515061843069677 " />
			<path d="M-15.20279579551077,-2.357022603955159 L-15.302547040615936,-2.3270371964147456 L-15.402057976234468,-2.3036540413367925 L-15.501088871806331,-2.2869294707900054 L-15.599401153230009,-2.276903775729731 L-15.696757977608414,-2.2736011089335166 L-15.79292480382417,-2.2770294268149534 L-15.8876699575697,-2.2871804702559793 L-15.980765189470942,-2.3040297845038196 L-16.07198622496006,-2.327536778084625 L-16.161113304572545,-2.3576448205918896 L-16.247931713367002,-2.3942813791140614 L-16.332232298192245,-2.437358192972676 L-16.413811971555578,-2.486771486350065 L-16.492474200878327,-2.542402218294389 L-16.56802948196006,-2.604116369499718 L-16.640295795510788,-2.6717652651702757 L-16.70909904565139,-2.7451859331910495 L-16.774273479325817,-2.8242014967418863 L-16.835662085614743,-2.908621600409245 L-16.89311697398862,-2.998242868769065 L-16.946499730588886,-3.09284939633597 L-16.99568175167913,-3.1922132676984987 L-17.040544553462695,-3.2960951065872934 L-17.080980057520577,-3.4042446525534933 L-17.116890851181765,-3.516401363868085 L-17.148190422198915,-3.6322950451897476 L-17.174803367163932,-3.751646498489084 L-17.19666557316137,-3.874168195661147 L-17.213724372222078,-3.999564971205814 L-17.225938668204954,-4.127534733307339 L-17.233279035801118,-4.2577691915999925 L-17.235727791422097,-4.38995459986653 " />
			<path d="M-17.235727791422097,-4.389954599866554 L-17.232314547191795,-4.548098428930127 L-17.22208627601185,-4.707986714729098 L-17.205077323927945,-4.869082560043005 L-17.18134480618808,-5.030845012724262 L-17.150968415452322,-5.192730882189608 L-17.11405015418866,-5.354196563428123 L-17.07071399215359,-5.514699862400864 L-17.02110545010759,-5.673701816702533 L-16.965391111163388,-5.830668505371466 L-16.9037580614078,-5.985072841770702 L-16.83641326167562,-6.136396343519711 L-16.763582852585017,-6.284130873533442 L-16.68551139516816,-6.4277803463223675 L-16.60246104964694,-6.566862393823838 L-16.51471069511151,-6.700909985170979 L-16.422554993057616,-6.82947299496001 " />
			<path d="M-16.42255499305761,-6.829472994960019 L-16.356176546041834,-6.9152376469159975 L-16.287932695511213,-6.998014046836834 L-16.21793381466089,-7.077668317520844 L-16.14629311515866,-7.154071631296473 L-16.073126464043742,-7.227100418379852 L-15.998552196330916,-7.29663656672858 L-15.92269092362311,-7.3625676130685145 L-15.845665339041986,-7.424786924784604 L-15.767600018792017,-7.483193872381591 L-15.688621220678971,-7.5376939922356545 L-15.608856679908707,-7.588199139373777 L-15.528435402496491,-7.6346276300337275 L-15.447487456621008,-7.6769043737741 L-15.366143762260494,-7.714960994920745 L-15.284535879451216,-7.748735943153164 L-15.202795795510779,-7.778174593052025 " />
			<path d="M16.422554993057485,6.829472994960194 L16.39427072181002,6.867185356623477 " />
			<path d="M17.2357277914221,4.389954599866341 L17.2357277914221,4.342814147787236 " />
			<path d="M16.07286272129221,2.221695560763765 L-14.191307513492031,-7.866361184164321 " />
			<path d="M14.191307513492026,7.8663611841643215 L-16.072862721292218,-2.2216955607637647 " />
			<path d="M-16.42255499305761,-6.829472994960018 L-16.394270721810148,-6.867185356623299 " />
			<path d="M-17.235727791422097,-4.389954599866555 L-17.235727791422097,-4.342814147787456 " />

       </g>
    </g>
    
</svg>
