<?xml version="1.0" encoding="UTF-8" standalone="no"?>
<svg
   xmlns:svg="http://www.w3.org/2000/svg"
   xmlns="http://www.w3.org/2000/svg"
   width="1024.0"
   height="320.0"

>
    <g transform="scale(15.122475631513092, -15.122475631513092)   translate(30.461075603074658,-9.257743468156752)" stroke-width="0.2866666680000001"  fill="none">
       <!-- hidden lines -->
       <g  stroke="rgb(32,64,32)" fill="none" stroke-dasharray="0.2866666680000001,0.2866666680000001" >

       </g>

       <!-- solid lines -->
       <g  stroke="rgb(64,192,64)" fill="none">
			<path d="M-15.30947190270085,-3.15179395089192 L-15.344524500213138,-3.192945010365193 " />
			<path d="M-15.499682126164354,-3.430230778092663 L-15.53914653654486,-3.511279078470426 L-15.575343836180968,-3.5971713303631336 L-15.60797929423064,-3.6876632031941803 L-15.636779910995076,-3.7824539886099506 " />
			<path d="M-15.345309853690434,-3.1440746075341894 L-15.381981670468582,-3.1845295065735297 " />
			<path d="M-15.567698086358066,-3.462750414630287 L-15.600637378943302,-3.5310637540376737 L-15.63127738842965,-3.602791401888192 L-15.659442774044367,-3.6777919630183447 L-15.684968488521365,-3.7558959421583347 L-15.707702164628634,-3.8369064181780685 L-15.727506403877607,-3.920600233079214 L-15.744260905555805,-4.0067296957126395 L-15.757864375742578,-4.0950247832575375 " />
			<path d="M-16.09760964852088,-5.367393321870335 L-16.06220216328704,-5.480379848416629 L-16.02158393022217,-5.593903386906744 L-15.976101738025788,-5.706693992749521 L-15.925829757022223,-5.818040448595286 L-15.870904378750135,-5.927212575738584 " />
			<path d="M-15.20279579551077,-7.778174593052026 L-15.103044550405606,-7.808160000592439 L-15.003533614787075,-7.831543155670391 L-14.904502719215216,-7.848267726217179 L-14.806190437791539,-7.858293421277454 L-14.708833613413136,-7.861596088073668 L-14.612666787197382,-7.858167770192232 L-14.517921633451852,-7.848016726751207 L-14.424826401550613,-7.831167412503368 L-14.333605366061494,-7.8076604189225645 L-14.24447828644901,-7.777552376415301 L-14.157659877654556,-7.74091581789313 L-14.073359292829311,-7.697839004034518 L-13.99177961946598,-7.648425710657131 L-13.913117390143231,-7.592794978712808 L-13.837562109061498,-7.531080827507482 L-13.76529579551077,-7.4634319318369275 L-13.696492545370171,-7.390011263816156 L-13.631318111695744,-7.310995700265321 L-13.569929505406815,-7.226575596597964 L-13.512474617032941,-7.136954328238149 L-13.459091860432672,-7.042347800671246 L-13.40990983934243,-6.942983929308721 L-13.365047037558861,-6.839102090419932 L-13.324611533500978,-6.730952544453736 L-13.28870073983979,-6.618795833139146 L-13.257401168822637,-6.502902151817489 L-13.230788223857623,-6.383550698518157 L-13.208926017860183,-6.261029001346097 L-13.19186721879947,-6.135632225801434 L-13.179652922816596,-6.007662463699912 L-13.172312555220428,-5.877428005407263 L-13.169863799599446,-5.745242597140702 L-13.172312555220428,-5.61142468512682 L-13.179652922816596,-5.476296648436725 L-13.19186721879947,-5.34018402234662 L-13.208926017860183,-5.203414714094815 L-13.230788223857623,-5.066318212924463 L-13.257401168822637,-4.92922479631512 L-13.28870073983979,-4.792464734315362 L-13.324611533500978,-4.656367493893315 L-13.36504703755886,-4.521260945221864 L-13.40990983934243,-4.387470571810695 L-13.45909186043267,-4.2553186863880095 L-13.512474617032941,-4.125123654420925 L-13.569929505406815,-3.997199127145191 L-13.631318111695744,-3.8718532859518824 L-13.696492545370171,-3.7493880999514304 L-13.76529579551077,-3.630098598503594 L-13.837562109061498,-3.514272160465887 L-13.91311739014323,-3.4021878218727393 L-13.991779619465978,-3.2941156037132515 L-14.073359292829311,-3.190315861426976 L-14.157659877654556,-3.0910386576848654 L-14.244478286449011,-2.996523159966393 L-14.333605366061494,-2.90699706438414 L-14.424826401550613,-2.8226760471439243 L-14.51792163345185,-2.7437632449619263 L-14.612666787197382,-2.6704487656905473 L-14.708833613413134,-2.6029092303319428 L-14.806190437791539,-2.541307347542555 L-14.904502719215214,-2.485791521653712 L-15.003533614787074,-2.4364954951525926 L-15.103044550405604,-2.393538026484859 L-15.202795795510752,-2.357022603955168 " />
			<path d="M-15.132085117392114,-2.239171473757402 L-15.044088308721879,-2.270958795456909 L-14.956245544811487,-2.307600575442824 L-14.868710600754328,-2.349032669636701 L-14.78163671278293,-2.3951825481696005 L-14.695176310017898,-2.445969422350854 L-14.609480747629732,-2.501304386094493 L-14.524700041880703,-2.5610905715557633 L-14.440982607510547,-2.6252233187052783 L-14.358474997925772,-2.6935903585439434 L-14.27732164864735,-2.7660720096379356 L-14.197664624465913,-2.8425413876296917 L-14.119643370747104,-2.9228646273581154 L-14.043394469322394,-3.0069011171992064 L-13.969051399392745,-3.0945037452168473 L-13.896744303863642,-3.1855191566928482 L-13.826599761520542,-3.279788022585453 L-13.758740565443595,-3.377145318446315 L-13.693285508049492,-3.477420613307684 L-13.630349173136775,-3.5804383680341227 L-13.57004173529863,-3.6860182426164148 L-13.512468767054331,-3.7939754118697535 L-13.457731054036906,-3.9041208889835657 L-13.405924418560637,-4.016261856356551 L-13.35713955187719,-4.130202003137789 L-13.31146185541402,-4.245741868883059 L-13.26897129127303,-4.362679192724717 L-13.22974224225114,-4.480809267443939 L-13.193843381627836,-4.59992529782547 L-13.161337552947638,-4.719818762667564 L-13.13228166000795,-4.840279779813376 L-13.106726567244852,-4.961097473564831 L-13.084717010691243,-5.082060343835732 L-13.066291519663183,-5.202956636397905 L-13.051482349311552,-5.323574713572265 L-13.040315424157075,-5.443703424715825 L-13.032810292707588,-5.5631324758561345 L-13.028980093236957,-5.681652797826024 L-13.028831530785588,-5.799056912254286 L-13.032364865422764,-5.915139294771512 L-13.039573911791384,-6.02969673479532 L-13.050446049935866,-6.142528691265148 L-13.064962247394298,-6.253437643703835 L-13.08309709251613,-6.362229437991456 L-13.104818838947105,-6.468713626246123 L-13.130089461203537,-6.572703800216733 L-13.158864721238668,-6.674017917604046 L-13.191094245884553,-6.772478620738876 L-13.226721615033929,-6.867913547059468 L-13.26568446040768,-6.960155630844595 L-13.307914574735005,-7.049043395674153 L-13.353338031155165,-7.134421237105289 L-13.401875312631793,-7.216139695069186 L-13.453441451153184,-7.294055715511698 L-13.507946176474945,-7.368032900819792 L-13.565294074144559,-7.437941748595402 L-13.62538475253126,-7.50365987835872 L-13.688113018568838,-7.565072245784048 L-13.753369061903674,-7.622071344093193 L-13.82103864712569,-7.674557392253828 L-13.891003313745667,-7.722438509653388 L-13.963140583568892,-7.765630876942717 L-14.037324175102041,-7.804058882767867 L-14.11342422461807,-7.837655256133242 L-14.191307513492003,-7.8663611841643135 " />
			<path d="M-14.19130751349202,-7.866361184164319 L-14.246218512535602,-7.883348288219069 L-14.301873342149031,-7.897951316681246 L-14.358225270958307,-7.910158007909059 L-14.415226982260114,-7.919958112379566 L-14.472830613751972,-7.927343401294825 L-14.530987797720499,-7.932307673491332 L-14.589649701654057,-7.934846760646904 L-14.648767069245665,-7.934958530780685 L-14.70829026175177,-7.9326428900432795 L-14.768169299672117,-7.927901782795567 L-14.828353904715762,-7.920739189976084 L-14.888793542017948,-7.911161125758375 L-14.949437462572444,-7.8991756325011035 L-15.01023474584365,-7.884792773995174 L-15.071134342522777,-7.868024627013521 L-15.132085117392112,-7.84888527117068 " />
			<path d="M16.422554993054646,6.829472994963964 L16.514710695109038,6.7009099851745875 L16.602461049644926,6.566862393827054 L16.685511395166575,6.427780346325142 L16.76358285258383,6.28413087353573 L16.836413261674792,6.136396343521472 L16.90375806140729,5.985072841771903 L16.965391111163154,5.830668505372078 L17.021105450107587,5.6737018167025335 L17.070713992153767,5.514699862400238 L17.114050154188973,5.35419656342686 L17.150968415452716,5.192730882187705 L17.181344806188502,5.030845012721723 L17.205077323928343,4.869082560039839 L17.22208627601217,4.707986714725321 L17.23231454719198,4.54809842892576 L17.235727791422093,4.38995459986165 " />
			<path d="M16.072862721292207,2.2216955607637625 L16.1373855068679,2.2450798970461157 L16.200705018550998,2.271814377884701 L16.262745467337446,2.3018670039854148 L16.32343259517155,2.335201804467544 L16.382693763827657,2.371778879918382 L16.440458041853002,2.4115544501500175 L16.496656289467676,2.4544809066011446 L16.55122124132008,2.5005068693211645 L16.604087586998812,2.5495772484683727 L16.65519204920465,2.6016333102486238 L16.704473459489037,2.6566127472155623 L16.751872831468383,2.714449752848245 L16.797333431426658,2.7750751003169305 L16.840800846221633,2.838416225342719 L16.882223048413607,2.9043973130518985 L16.921550458538572,2.9729393887210174 L16.958736004451364,3.0439604123040747 L16.99373517766771,3.11737537662869 L17.026506086637745,3.193096409143711 L17.05700950688726,3.2710328770964807 L17.085208927966633,3.3510914960138707 L17.111070597151283,3.4331764413572365 L17.134563559841293,3.5171894632176537 L17.155659696611906,3.6030300039141565 L17.17433375687049,3.6905953183542044 L17.190563389079706,3.7797805970123397 L17.204329167510775,3.870479091379823 L17.215614615494655,3.962582241735092 L17.224406225143486,4.055979807082113 L17.23069347351858,4.150559997101103 L17.234468835225634,4.246209605953693 L17.235727791422093,4.3428141477823266 " />
			<path d="M17.235727791422093,4.342814147782351 L17.23219582565354,4.506458631770456 L17.221611788519652,4.67190824925 L17.204011220711166,4.838607428314589 L17.179453224093418,5.005996401089756 L17.148020263245083,5.173513083406729 L17.10981788854608,5.340594962254203 L17.064974381744435,5.506680984670132 L17.0136403251923,5.671213441730769 L16.955988096197625,5.833639841310559 L16.892211288189383,5.9934147633242905 L16.822524060640102,6.150001691221671 L16.747160419928587,6.302874813584251 L16.666373433557684,6.451520789775034 L16.58043438036572,6.595440473711795 L16.4896318395851,6.734150589975766 L16.394270721807096,6.8671853566273615 " />
			<path d="M16.394270721807082,6.867185356627381 L16.325583459243038,6.955933126911879 L16.25496590956365,7.0415887059600255 L16.182532285031716,7.124013559971816 L16.10839973511217,7.2030743803132085 L16.032688157002116,7.278643299120896 L15.955520001716845,7.350598096107529 L15.877020076045476,7.418822396232907 L15.79731534069651,7.483205857921454 L15.716534704959793,7.543644351521557 L15.634808818216944,7.600040127718136 L15.552269858637501,7.652301975626069 L15.46905131940248,7.700345370308783 L15.385287792801126,7.744092609483436 L15.301114752550045,7.783472939191562 L15.21666833468677,7.818422668231948 L15.132085117392133,7.848885271170673 " />
			<path d="M-14.325885447199592,-3.885066221370614 L-14.335325796632072,-4.0044917245106 L-14.337999368211248,-4.126138051131006 L-14.333914217822574,-4.248941723467355 L-14.32319449333935,-4.371831953479005 L-14.306074389962898,-4.493761173705667 L-14.282887689340876,-4.613733550005002 L-14.25405370417127,-4.7308299236238165 L-14.220060668636528,-4.844228002918826 L-14.18283486634428,-4.950149183424414 L-14.140553780130062,-5.055220649866755 L-14.093314313101025,-5.158593159667532 L-14.041296070639891,-5.2593964805162585 L-13.984761940461121,-5.356760827404039 L-13.924055426862354,-5.449839763626382 L-13.859594654381594,-5.537833402653759 L-13.791863195815331,-5.620010642691439 " />
			<path d="M-13.793786603496697,-5.3756482159059455 L-13.836859753865662,-5.308581845587548 L-13.877796168922139,-5.239315384895716 L-13.916465457391366,-5.168157585325204 L-13.952758076341114,-5.095425121397008 L-13.986586105408087,-5.021438214124407 L-14.01788357064948,-4.946516365798107 L-14.046606332717191,-4.870974314596834 L-14.072731568489605,-4.7951183028698505 L-14.098316780504677,-4.711746715194986 L-14.121160983082222,-4.626247566931402 L-14.141058082584232,-4.538935462341052 L-14.157819744906936,-4.450156468808375 L-14.171279303029191,-4.360284444133047 L-14.181295394576553,-4.269716484525972 L-14.187755191071265,-4.178867585559619 L-14.190577088954752,-4.088164649609576 " />
			<path d="M-14.69559742870235,-3.555068627001609 L-14.72565508352754,-3.6311541040174675 L-14.752426692221825,-3.711184622947638 L-14.775671709267222,-3.7948507593778324 L-14.795178701508739,-3.8817928161559707 L-14.810770346367539,-3.9716052195963076 L-14.822307728304672,-4.063842349985291 L-14.829693739013251,-4.1580256503029815 L-14.832875423424408,-4.253651785613003 L-14.831845161971723,-4.350201565861644 L-14.826640636210776,-4.447149302111769 L-14.817343585457271,-4.5439722442668495 L-14.804077421781985,-4.64015974888955 L-14.787003824800744,-4.7352218483819595 L-14.766318482197375,-4.828696935072021 L-14.742246173876461,-4.920158331416054 L-14.71503541546711,-5.009219585195687 L-14.684002798622242,-5.098511309331224 L-14.649373491015783,-5.187293002925155 L-14.611193954449519,-5.275060788474356 L-14.569552011859718,-5.3612969711374285 L-14.52457761568885,-5.44547880706479 L-14.476442490676991,-5.527087975664499 L-14.425358587742652,-5.605620432777253 L-14.37157534341203,-5.680596278767511 L-14.315375801564313,-5.751569254158594 L-14.257071716163262,-5.818135478963275 L-14.196997809929561,-5.879941081271834 L-14.135505409694959,-5.936688414346243 L-14.072955710527731,-5.988140635321878 L-14.009712935117976,-6.034124506480624 L-13.946137651571362,-6.074531374474231 L-13.882580492658787,-6.109316375998858 " />
			<path d="M-13.848279718727204,-5.99447366464387 L-13.904611770339605,-5.954967967648098 L-13.96049180141576,-5.911106504580354 L-14.015664344095947,-5.862993324975821 L-14.06987393941933,-5.810772636770621 L-14.122868913275154,-5.7546277575698594 L-14.1744051738815,-5.694779168709704 L-14.224249913462893,-5.631481707945897 L-14.27218509778127,-5.565020973101612 L-14.318010634338489,-5.49570904247493 L-14.361547123045877,-5.423879645985493 L-14.402638111109558,-5.349882942075747 L-14.441151795583405,-5.274080067996576 L-14.476982140998345,-5.196837634711374 L-14.510049404071136,-5.118522332380869 L-14.54030008114576,-5.039495799052995 L-14.567706315320189,-4.960109885146713 L-14.59239498903955,-4.87985377310685 L-14.614548415431328,-4.797613825257502 L-14.633981674110133,-4.713669481357934 L-14.65052487216648,-4.628327463377004 L-14.664026398701552,-4.541918801336101 L-14.674355976253679,-4.454795150733242 L-14.681407402278037,-4.3673244682389445 L-14.685100879186992,-4.279886143288451 L-14.685384842550148,-4.1928657111687135 L-14.682237213569532,-4.106649296154341 L-14.675666023105435,-4.021617949375375 L-14.665709379133233,-3.938142054054997 L-14.652434776041224,-3.8565759697894677 L-14.63593777092571,-3.7772530775999322 L-14.616340077267227,-3.7004813692315937 L-14.593787148481947,-3.62653969891409 " />
			<path d="M-15.006597131355418,-3.413875463475697 L-15.039732229950902,-3.455705342308037 L-15.0709494877893,-3.4992894366666376 L-15.100217059808987,-3.5444677141168994 L-15.127514371163977,-3.5910776518175713 L-15.166821316216664,-3.6674002468999807 L-15.202624069433417,-3.749134661079658 L-15.234539088604931,-3.835976066755033 L-15.262213956303338,-3.9275359739882343 L-15.28533710907233,-4.0233457493329965 L-15.303646849771102,-4.122863055614464 L-15.316939168310201,-4.225481115786821 L-15.325073936790718,-4.330540519625087 L-15.327979123724067,-4.43734311731241 L-15.325652783200914,-4.545167397172186 L-15.31816270892497,-4.65328464177856 L-15.305643787138921,-4.760975108641674 L-15.288293222492559,-4.86754349332313 L-15.266363933336997,-4.9723330017742065 L-15.240156506804059,-5.074737475870449 L-15.210010162297694,-5.174211167472548 L-15.175853930249856,-5.27193467538635 L-15.13739200496132,-5.368990464860559 L-15.094692969116458,-5.464714663751858 L-15.047885067066852,-5.558425891995119 L-14.997157000589478,-5.649439327124516 L-14.942756752378422,-5.737081827643612 L-14.884988353407545,-5.820707477160257 L-14.82420663345075,-5.899712840028388 L-14.760810122720317,-5.973551199193023 L-14.695232394218165,-6.04174508452538 L-14.627932238519497,-6.103896493965471 L-14.55938313476421,-6.1596943521763174 L-14.490062516541737,-6.2089189281743655 L-14.420441326532767,-6.251443126639451 L-14.350974311368738,-6.287230758129846 L-14.282091434540828,-6.316332063457223 " />
			<path d="M-14.134762334386672,-6.267222363405954 L-14.203645211214775,-6.238121058078525 L-14.273112226378927,-6.2023334265881385 L-14.34273341638804,-6.159809228123096 L-14.412054034610708,-6.1105846521251275 L-14.480603138366243,-6.05478679391438 L-14.547903294065241,-5.992635384474399 L-14.613481022567779,-5.924441499142168 L-14.676877533298661,-5.8506031399776806 L-14.737659253255956,-5.771597777109713 L-14.795427652227376,-5.687972127593273 L-14.849827900439015,-5.600329627074396 L-14.900555966917036,-5.509316191945214 L-14.94736386896732,-5.415604963702175 L-14.990062904812895,-5.319880764811114 L-15.028524830102189,-5.222824975337104 L-15.062681062150773,-5.125101467423574 L-15.092827406656388,-5.025627775821202 L-15.119034833188584,-4.923223301724714 L-15.140964122343437,-4.818433793273406 L-15.158314686989117,-4.711865408591725 L-15.170833608774526,-4.6041749417284015 L-15.178323683049868,-4.496057697121857 L-15.180650023572468,-4.388233417261924 L-15.17774483663862,-4.281430819574386 L-15.169610068157652,-4.176371415735926 L-15.156317749618168,-4.073753355563468 L-15.138008008919073,-3.974236049281918 L-15.114884856149814,-3.8784262739370696 L-15.087209988451205,-3.7868663667038023 L-15.055294969279542,-3.70002496102838 L-15.019492216062709,-3.618290546848676 L-14.980185271009985,-3.541967951766241 L-14.950445121416026,-3.491409191006511 L-14.918382566107356,-3.4425558164922037 " />
			<path d="M-15.281329920417123,-3.3827623554544144 L-15.332754617459944,-3.418291310241395 L-15.381934641998102,-3.4574711307662267 L-15.428708996142872,-3.5000910673975585 L-15.472939270347805,-3.545918075036094 L-15.514510734609411,-3.594700542412299 L-15.553332927627338,-3.6461722265001475 L-15.589339754226435,-3.700056276253854 L-15.62248911799456,-3.7560692340944324 L-15.661796063047246,-3.8323918291768426 L-15.697598816263998,-3.9141262433565207 L-15.729513835435517,-4.000967649031899 L-15.75718870313392,-4.0925275562651 L-15.780311855902914,-4.188337331609864 L-15.798621596601684,-4.287854637891333 L-15.811913915140787,-4.390472698063692 L-15.820048683621302,-4.49553210190196 L-15.822953870554649,-4.602334699589283 L-15.820627530031498,-4.710158979449036 L-15.813137455755555,-4.818276224055388 L-15.800618533969502,-4.925966690918527 L-15.783267969323141,-5.032535075600013 L-15.761338680167572,-5.137324584051087 L-15.735131253634636,-5.239729058147332 L-15.704984909128276,-5.339202749749409 L-15.670828677080449,-5.4369262576631865 L-15.632366751791906,-5.5339820471374175 L-15.589667715947034,-5.629706246028737 L-15.54285981389743,-5.723417474271997 L-15.49213174742005,-5.814430909401391 L-15.437731499209013,-5.902073409920467 L-15.379963100238148,-5.985699059437089 L-15.319181380281341,-6.064704422305241 L-15.255784869550892,-6.1385427814698925 L-15.190207141048743,-6.2067366668022474 L-15.122906985350074,-6.268888076242336 L-15.05435788159481,-6.3246859344531705 L-14.98503726337235,-6.373910510451206 L-14.915416073363367,-6.416434708916304 L-14.84594905819932,-6.452222340406708 L-14.77706618137141,-6.481323645734084 " />
			<path d="M-14.629737081217254,-6.432213945682815 L-14.698619958045354,-6.403112640355387 L-14.768086973209469,-6.36732500886502 L-14.837708163218585,-6.324800810399985 L-14.907028781441282,-6.275576234401994 L-14.975577885196849,-6.219778376191221 L-15.042878040895843,-6.157626966751239 L-15.108455769398379,-6.08943308141901 L-15.171852280129256,-6.015594722254523 L-15.23263400008655,-5.936589359386557 L-15.290402399057967,-5.852963709870119 L-15.344802647269605,-5.765321209351243 L-15.395530713747624,-5.674307774222062 L-15.442338615797908,-5.580596545979028 L-15.48503765164348,-5.484872347087969 L-15.523499576932757,-5.387816557614007 L-15.557655808981355,-5.2900930497004355 L-15.587802153486958,-5.190619358098106 L-15.614009580019173,-5.088214884001564 L-15.635938869174023,-4.983425375550247 L-15.653289433819705,-4.876856990868561 L-15.66580835560511,-4.769166524005231 L-15.673298429880454,-4.661049279398679 L-15.675624770403052,-4.55322499953874 L-15.672719583469206,-4.446422401851248 L-15.66458481498824,-4.34136299801283 L-15.65129249644876,-4.238744937840366 L-15.63298275574966,-4.139227631558808 L-15.609859602980405,-4.043417856213953 L-15.582184735281793,-3.951857948980679 L-15.55026971611013,-3.8650165433052504 L-15.514466962893277,-3.783282129125503 L-15.475160017840569,-3.706959534043101 L-15.447793177673022,-3.6602367285516175 L-15.418446421055295,-3.614953032698681 L-15.387140516427605,-3.571272163332868 L-15.35390761497642,-3.5293553146472916 L-15.318791471165056,-3.489359580220151 L-15.281847515539353,-3.4514363498012997 L-15.243142769930122,-3.4157297103419713 L-15.202755598635072,-3.3823748824887323 " />
			<path d="M-14.955308422095477,-3.429467888754757 L-15.022889300433281,-3.4095528031546176 L-15.09024324541224,-3.3949283391514973 L-15.157144085704887,-3.3856436049964165 L-15.223367171487626,-3.3817297783828217 L-15.288690128804104,-3.383200001753387 L-15.352893606286335,-3.390049338168316 L-15.415762011726095,-3.4022547878833507 L-15.47708423602325,-3.419775365581811 " />
			<path d="M-15.47708423602326,-3.419775365581814 L-15.544121089441742,-3.4458338507256396 L-15.608644008796318,-3.4784642404466037 L-15.67037751366025,-3.5175272193855323 L-15.729058033004302,-3.5628560082612752 L-15.78443503051251,-3.614257075934388 L-15.836272074246311,-3.671510965687802 L-15.884347846090044,-3.7343732321966723 L-15.928457086668038,-3.8025754851870186 " />
			<path d="M-15.928457086668192,-3.8025754851868316 L-15.882802422794708,-3.737176492311525 L-15.832912501324207,-3.675646911576304 L-15.7789383183347,-3.6184943256381277 L-15.72108704510648,-3.5661951959003013 L-15.65962059138676,-3.5191836181103797 L-15.594852413273827,-3.477840775152909 L-15.527142605763533,-3.4424855792378812 L-15.456891420537515,-3.4133669546244616 " />
			<path d="M-14.282091434540664,-6.316332063457285 L-14.227455266591303,-6.335016215529665 L-14.172396667754343,-6.349963667632164 L-14.117126476172336,-6.3609818128015 L-14.061866669239974,-6.3679019715740655 " />
			<path d="M-14.00071273036129,-6.306206622232254 L-14.068017927561467,-6.289529742852373 L-14.134762334386345,-6.267222363406078 " />
			<path d="M-14.30328266765948,-3.912406024590817 L-14.376725465062787,-3.8270847298932305 L-14.453345832068308,-3.7481232544697294 L-14.532722970679586,-3.675955253651849 L-14.614420942748602,-3.610977073102495 L-14.697991064142071,-3.553545572091046 L-14.7829743689085,-3.5039761636271756 L-14.868904129912842,-3.4625410822169647 L-14.955308422095467,-3.429467888754761 " />
			<path d="M-14.777066181371247,-6.481323645734146 L-14.715928241104482,-6.501976810401235 L-14.654292653732524,-6.517926507097721 L-14.592457281206135,-6.5289090113022255 L-14.530736515521726,-6.534699394938482 L-14.469456731726916,-6.53511765362442 L-14.408951137621685,-6.53003403869696 L-14.34955416985129,-6.519373342506155 L-14.29159561914627,-6.503117919474617 " />
			<path d="M-14.291595619146113,-6.5031179194745645 L-14.234659220225339,-6.480981640161364 L-14.179842499255589,-6.453248519945931 L-14.127437368421777,-6.4200845447636095 L-14.077707546424914,-6.3817132250446615 L-14.03088421540252,-6.338410817363645 L-13.987162637761957,-6.290500242574507 L-13.946699828310024,-6.238343965361363 L-13.909613321673646,-6.182336139641067 " />
			<path d="M-14.21948003534632,-6.473964249508907 L-14.269502479374655,-6.481907894468828 L-14.320273529092614,-6.48593495193227 L-14.37159591559618,-6.486091480637997 L-14.423272896864942,-6.482450574351538 L-14.475110600447545,-6.47511063527638 L-14.526920219161445,-6.464193267349366 L-14.578520013195973,-6.449840860896958 L-14.629737081216929,-6.432213945682939 " />
			<path d="M-15.062705877963625,-6.719733485797626 L-15.141445421518572,-6.684058744759654 L-15.21958840068012,-6.641368782969818 L-15.296924705051817,-6.591733208716117 L-15.37324422423721,-6.535221630286548 L-15.447787924888,-6.472411248069066 L-15.51994196391972,-6.403846089703448 L-15.589714016331653,-6.329546004355435 L-15.65711175712308,-6.249530841190765 L-15.72183930943089,-6.164085594629873 L-15.783378873372486,-6.07384342668371 L-15.84140523941791,-5.979346437903791 L-15.895593198037206,-5.881136728841635 L-15.945901187986243,-5.77919461043635 L-15.992250734590415,-5.673732168075038 L-16.03426125817407,-5.565639163981192 L-16.07155217906155,-5.455805360378306 L-16.103819805923933,-5.344340075331416 L-16.13089661303617,-5.231224866827994 L-16.152606269128412,-5.117157856975157 L-16.1687724429308,-5.002837167880024 L-16.17929381762805,-4.8891919683413185 L-16.1841647531046,-4.776690229710023 L-16.183352433140172,-4.665338277921655 L-16.176824041514486,-4.555142438911729 L-16.164647131334455,-4.4472811194396815 L-16.146945668837617,-4.342973008031048 L-16.123771457499636,-4.242284853270542 L-16.095176300796183,-4.145283403742881 L-16.06125741122206,-4.052243889895335 L-16.022121022315492,-3.963754887652755 L-15.97783246911727,-3.8803531638162263 L-15.9284570866682,-3.8025754851868436 " />
			<path d="M-15.20279579551077,-6.953216681667721 L-15.262208052265317,-6.931747889906064 L-15.321515405538422,-6.906987592968892 L-15.380613137075411,-6.8789795098039805 L-15.439396898748102,-6.847773093934778 L-15.497762896800984,-6.813423446140936 L-15.555608075118569,-6.775991217167548 L-15.612830297190282,-6.735542500634886 L-15.669328526451634,-6.69214871633772 L-15.725003004683215,-6.645886484140273 L-15.779755428152546,-6.5968374886894825 L-15.833489121187753,-6.54508833518544 L-15.886109206876593,-6.490730396463665 L-15.937522774589443,-6.433859651659228 L-15.98763904403043,-6.37457651673759 L-16.036369525527082,-6.3129856671913815 L-16.083628176275425,-6.249195853216193 L-16.129331552264702,-6.183319707691703 L-16.17339895561342,-6.11547354730721 L-16.215752577056588,-6.045777167182708 L-16.25631763333257,-5.974353629348126 L-16.295022499226967,-5.9013290454542435 L-16.331798834040352,-5.826832354098915 L-16.3665817022566,-5.750995093161798 L-16.39930968819871,-5.673951167549554 L-16.429925004469716,-5.59583661276163 L-16.458373593987158,-5.516789354694063 L-16.484605225431018,-5.436948966105451 L-16.508573581936506,-5.356456420175072 L-16.530236342875206,-5.275453841588293 L-16.549555258580057,-5.1940842555887885 L-16.56649621788232,-5.112491335440649 L-16.581029308341254,-5.030819148746287 L-16.59312886906012,-4.949211903068071 L-16.602773535995325,-4.867813691302822 L-16.609946279678645,-4.786768237258788 L-16.61463443528593,-4.706218641884306 L-16.61682972499924,-4.626307130596236 L-16.616528272622883,-4.547174802154316 L-16.613730610427567,-4.468961379524848 L-16.608441678210568,-4.391804963173586 L-16.600670814573597,-4.315841787223469 L-16.590431740433754,-4.241205978907731 L-16.577742534796656,-4.16802932174311 L-16.562625602834586,-4.0964410228413435 L-16.545107636325945,-4.026567484769773 L-16.525219566525912,-3.958532082363906 L-16.502996509551515,-3.8924549448860146 L-16.478477704377546,-3.8284527439143883 L-16.451706443552784,-3.7666384873377776 L-16.42272999675888,-3.707121319818781 L-16.391599527346873,-3.650006330078471 L-16.358370001998708,-3.5953943653425493 L-16.32310009367323,-3.543381853276653 L-16.285852078008084,-3.4940606317252345 L-16.246691723360406,-3.4475177865546174 L-16.205688174680436,-3.4038354978865693 L-16.16291383142315,-3.3630908949938876 L-16.118444219713446,-3.3253559201142 L-16.072357858990607,-3.2906972014224523 L-16.024736123367497,-3.2591759353863723 L-15.975663097949313,-3.2308477787126284 L-15.925225430365561,-3.2057627500744745 L-15.873512177777412,-3.1839651417944035 L-15.820614649630592,-3.165493441637749 " />
			<path d="M-15.11914416513642,-3.2656321457128605 L-15.207059965090785,-3.232726413193414 L-15.295742148059038,-3.2054591717565772 L-15.384601542883566,-3.183979801259529 L-15.473048978406757,-3.168437681559448 L-15.560808919326757,-3.158833105286535 L-15.64799422797542,-3.155103825854085 L-15.734598329645701,-3.1573054142939174 L-15.82061464963055,-3.1654934416378526 " />
			<path d="M-14.725758817591494,-3.4515061843068024 L-14.676273495199503,-3.4930460876848386 L-14.627525730681098,-3.5367916404741955 L-14.579583810408039,-3.5826815634529385 L-14.532514891917156,-3.6306515735432336 L-14.48638490983536,-3.680634473859752 L-14.441258483517755,-3.732560247839756 L-14.39719882652817,-3.7863561573230218 L-14.354267658088952,-3.8419468444441924 " />
			<path d="M-14.354267658088942,-3.8419468444442058 L-14.290159343616324,-3.9313819816889897 L-14.229115618721792,-4.024632480017708 L-14.171341465315429,-4.12138520871469 L-14.117030886242553,-4.221315276742107 L-14.06636625383145,-4.324087123708548 L-14.0195176974958,-4.42935564666477 L-13.976642532448242,-4.5367673589429085 L-13.937884731443418,-4.645961577147809 L-13.903374441324337,-4.756571632314624 L-13.8732275459955,-4.86822610116567 L-13.847545277290287,-4.9805500533320375 L-13.826413875039306,-5.093166310351852 L-13.809904297481154,-5.20569671221751 L-13.798071982988056,-5.317763387218914 L-13.790956663906451,-5.428990020818608 L-13.788582233137674,-5.539003119297989 " />
			<path d="M-13.788582233137674,-5.539003119298006 L-13.790285715308913,-5.630958185918072 L-13.795392057984621,-5.721556069947586 L-13.803888959538028,-5.810578513148486 L-13.815755950189056,-5.897811052657657 L-13.830964441317796,-5.9830435376467515 L-13.849477794337016,-6.066070635593949 L-13.871251408957711,-6.146692326947981 L-13.896232830635121,-6.224714386992749 L-13.924361876936308,-6.299948853751679 L-13.955570782524921,-6.37221448080459 L-13.989784362413818,-6.441337173926189 L-14.026920193092293,-6.507150410494313 L-14.066888811091525,-6.5694956406575145 L-14.109593928509918,-6.62822266929553 L-14.154932664979084,-6.683190017852493 L-14.202795795511667,-6.734265265171157 L-14.253068013633897,-6.78132536650707 L-14.305628209168992,-6.824256949954135 L-14.360349760002178,-6.862956589567466 L-14.417100837124458,-6.897331054525546 L-14.475744722220238,-6.927297533731446 L-14.536140137033723,-6.952783835312002 L-14.598141583720613,-6.973728560534373 L-14.661599695365158,-6.990081251720956 L-14.72636159581813,-7.001802513806356 L-14.792271267988866,-7.008864109243548 L-14.859169929704104,-7.011249026030603 L-14.926896416228137,-7.008951518694083 L-14.995287568522793,-7.001977122130404 L-15.064178626311834,-6.990342638271769 L-15.133403625002908,-6.974076095608856 L-15.202795795510758,-6.953216681667724 " />
			<path d="M-14.725758817591434,-3.4515061843065986 L-14.631647554883928,-3.5336911087091654 L-14.540916072826333,-3.6228126378873062 L-14.453786086186582,-3.718593805887732 L-14.370479309732623,-3.8207576467571527 " />
			<path d="M-13.788655437771641,-5.51979313920991 L-13.790966669783081,-5.602331756806441 L-13.796299063933956,-5.683620764636639 L-13.80464760872751,-5.763493119580908 L-13.8159438166235,-5.841330920743429 L-13.830155445289867,-5.917005333189228 L-13.847264776006957,-5.990529772427223 L-13.86729268289016,-6.061978633745449 L-13.890275876805084,-6.1313378811381485 L-13.916104322581914,-6.198248608105359 L-13.944660880146568,-6.2623378593274035 L-13.97577678891299,-6.323242066684232 L-14.009359730982545,-6.380835411109102 L-14.045389807065947,-6.435088445011766 L-14.083865652726745,-6.485986322220377 L-14.124887485619318,-6.533571606812519 L-14.168264328046948,-6.57761284389093 L-14.2137373283731,-6.617820399528214 L-14.261049378763314,-6.653949068871235 L-14.310068744813455,-6.685983416982054 L-14.360786832233398,-6.713938720532503 L-14.413198651346415,-6.737826543453586 L-14.467394373588792,-6.757628364824046 L-14.52320172464623,-6.7732510543782505 L-14.580243491578214,-6.784592846556099 L-14.63815476592488,-6.791561933744779 L-14.69681967913072,-6.794205546548062 L-14.756254944789003,-6.792549262719523 L-14.816461251812216,-6.786591155720636 L-14.877455199452474,-6.776301292746173 L-14.939095536831719,-6.7616489091726235 L-15.000982627006103,-6.74275103995746 L-15.06270587796362,-6.7197334857976285 " />
			<path d="M-14.313783234604587,-3.8974775477798067 L-14.4022951735918,-3.7921508817469674 L-14.495508922391343,-3.69314567136406 L-14.543497666880345,-3.646454401117912 L-14.592443926787098,-3.6016220518961286 L-14.642332075815416,-3.5586438756443055 L-14.69307383358709,-3.5175826243181194 L-14.74458091972391,-3.4785010498732483 L-14.796765053847675,-3.441461904265369 L-14.849537955580173,-3.4065279394501595 L-14.902811344543197,-3.373761907383297 L-14.956496940358543,-3.3432265600204585 L-15.010506462648,-3.314984649317321 L-15.064751631033362,-3.2890989272295625 L-15.119144165136419,-3.265632145712861 " />
			<path d="M15.132085117392114,7.84888527117068 L15.071134342522779,7.86802462701352 L15.01023474584365,7.884792773995174 L14.949437462572444,7.8991756325011035 L14.88879354201795,7.911161125758374 L14.82835390471576,7.920739189976084 L14.768169299672117,7.927901782795567 L14.70829026175177,7.9326428900432795 L14.648767069245665,7.934958530780685 L14.589649701654057,7.934846760646904 L14.530987797720499,7.932307673491332 L14.472830613751972,7.927343401294825 L14.415226982260114,7.919958112379566 L14.358225270958307,7.910158007909059 L14.301873342149031,7.897951316681246 L14.246218512535602,7.883348288219069 L14.191307513492038,7.866361184164325 " />
			<path d="M-15.132085117392114,-7.84888527117068 L-15.21666833468677,-7.818422668231948 L-15.301114752550045,-7.783472939191562 L-15.385287792801124,-7.744092609483437 L-15.469051319402478,-7.700345370308783 L-15.552269858637501,-7.652301975626068 L-15.634808818216944,-7.600040127718136 L-15.716534704959793,-7.543644351521557 L-15.79731534069651,-7.483205857921454 L-15.877020076045476,-7.4188223962329065 L-15.955520001716845,-7.35059809610753 L-16.032688157002113,-7.278643299120898 L-16.10839973511217,-7.2030743803132085 L-16.182532285031716,-7.124013559971815 L-16.25496590956365,-7.0415887059600255 L-16.325583459243038,-6.955933126911879 L-16.39427072180708,-6.867185356627386 " />
			<path d="M-17.235727791422093,-4.34281414778235 L-17.234468835225634,-4.246209605953693 L-17.23069347351858,-4.150559997101102 L-17.224406225143486,-4.055979807082111 L-17.215614615494655,-3.9625822417350918 L-17.204329167510775,-3.8704790913798233 L-17.190563389079706,-3.77978059701234 L-17.17433375687049,-3.6905953183542035 L-17.155659696611906,-3.6030300039141556 L-17.134563559841293,-3.5171894632176532 L-17.111070597151283,-3.4331764413572348 L-17.085208927966633,-3.3510914960138694 L-17.05700950688726,-3.2710328770964794 L-17.026506086637745,-3.1930964091437097 L-16.99373517766771,-3.117375376628689 L-16.958736004451364,-3.0439604123040738 L-16.92155045853857,-2.9729393887210174 L-16.882223048413607,-2.904397313051898 L-16.840800846221633,-2.838416225342719 L-16.797333431426658,-2.775075100316931 L-16.751872831468383,-2.714449752848246 L-16.704473459489037,-2.6566127472155627 L-16.65519204920465,-2.6016333102486247 L-16.604087586998812,-2.5495772484683723 L-16.55122124132008,-2.5005068693211645 L-16.496656289467676,-2.454480906601144 L-16.440458041853002,-2.4115544501500166 L-16.382693763827657,-2.371778879918382 L-16.32343259517155,-2.3352018044675438 L-16.262745467337446,-2.3018670039854148 L-16.200705018550998,-2.2718143778847013 L-16.1373855068679,-2.2450798970461157 L-16.072862721292214,-2.221695560763765 " />
			<path d="M-16.072862721292207,-2.2216955607637625 L-16.017951722248625,-2.204708456709013 L-15.962296892635196,-2.1901054282468366 L-15.90594496382592,-2.177898737019022 L-15.848943252524114,-2.168098632548516 L-15.791339621032256,-2.160713343633256 L-15.733182437063729,-2.15574907143675 L-15.674520533130172,-2.1532099842811774 L-15.615403165538563,-2.153098214147397 L-15.555879973032457,-2.1554138548848023 L-15.49600093511211,-2.1601549621325145 L-15.435816330068466,-2.167317554951998 L-15.375376692766277,-2.1768956191697066 L-15.314732772211784,-2.1888811124269782 L-15.253935488940577,-2.203263970932908 L-15.19303589226145,-2.2200321179145606 L-15.132085117392123,-2.239171473757399 " />
			<path d="M-15.820614649630587,-3.1654934416377474 L-15.756574033259891,-3.147965839781635 L-15.691162465637163,-3.135190542647199 L-15.62454188174723,-3.127199177171735 L-15.55687720965456,-3.124011527037154 L-15.488335962202022,-3.125635483692857 L-15.419087822310694,-3.1320670268194117 L-15.349304222907355,-3.1432902342813844 L-15.279157922519612,-3.1592773215446908 L-15.208822577589318,-3.1799887104608846 L-15.138472312563083,-3.2053731272480963 L-15.068281288824194,-3.2353677294260623 L-14.998423273533069,-3.269898261390992 L-14.929071209443684,-3.3088792382451335 L-14.860396786760916,-3.3522141574259443 L-14.792570018098731,-3.3997957376109413 L-14.7257588175915,-3.4515061843067976 " />
			<path d="M-15.20279579551077,-2.3570226039551616 L-15.30254704061582,-2.327037196414779 L-15.40205797623424,-2.3036540413368414 L-15.501088871805987,-2.2869294707900547 L-15.599401153229554,-2.2769037757297643 L-15.696757977607854,-2.2736011089335184 L-15.792924803823505,-2.2770294268149085 L-15.887669957568939,-2.2871804702558722 L-15.980765189470088,-2.304029784503635 L-16.07198622495912,-2.327536778084348 L-16.161113304571526,-2.357644820591506 L-16.24793171336591,-2.394281379113556 L-16.332232298191094,-2.437358192972036 L-16.41381197155437,-2.4867714863492765 L-16.492474200877076,-2.54240221829344 L-16.568029481958774,-2.604116369498596 L-16.64029579550948,-2.6717652651689705 L-16.709099045650067,-2.745185933189551 L-16.774273479324496,-2.824201496740184 L-16.835662085613436,-2.908621600407332 L-16.893116973987333,-2.998242868766933 L-16.94649973058764,-3.0928493963336123 L-16.995681751677928,-3.1922132676959105 L-17.040544553461558,-3.2960951065844686 L-17.080980057519515,-3.40424465255043 L-17.11689085118079,-3.5164013638647824 L-17.14819042219804,-3.632295045186202 L-17.174803367163168,-3.751646498485298 L-17.196665573160736,-3.8741681956571226 L-17.213724372221584,-3.9995649712015546 L-17.22593866820461,-4.1275347333028485 L-17.23327903580094,-4.257769191595278 L-17.235727791422093,-4.389954599861598 " />
			<path d="M-17.235727791422093,-4.389954599861622 L-17.23231454719198,-4.548098428925757 L-17.22208627601217,-4.707986714725317 L-17.205077323928343,-4.8690825600398355 L-17.181344806188502,-5.03084501272172 L-17.150968415452716,-5.1927308821877025 L-17.114050154188973,-5.354196563426858 L-17.070713992153767,-5.514699862400236 L-17.02110545010759,-5.673701816702532 L-16.965391111163154,-5.830668505372076 L-16.90375806140729,-5.985072841771902 L-16.836413261674792,-6.136396343521472 L-16.76358285258383,-6.28413087353573 L-16.685511395166575,-6.427780346325141 L-16.602461049644926,-6.566862393827054 L-16.514710695109038,-6.7009099851745875 L-16.422554993054653,-6.829472994963955 " />
			<path d="M-16.422554993054646,-6.8294729949639645 L-16.356176546038974,-6.9152376469195715 L-16.287932695508474,-6.99801404684005 L-16.217933814658284,-7.077668317523712 L-16.1462931151562,-7.154071631299008 L-16.073126464041444,-7.227100418382069 L-15.998552196328786,-7.296636566730495 L-15.922690923621161,-7.362567613070144 L-15.84566533904023,-7.424786924785968 L-15.76760001879046,-7.4831938723827065 L-15.688621220677623,-7.537693992236544 L-15.608856679907573,-7.58819913937446 L-15.528435402495576,-7.6346276300342275 L-15.447487456620319,-7.676904373774439 L-15.366143762260032,-7.714960994920945 L-15.284535879450985,-7.748735943153251 L-15.202795795510779,-7.7781745930520225 " />
			<path d="M16.42255499305465,6.8294729949639645 L16.394270721807036,6.867185356627345 " />
			<path d="M17.235727791422093,4.389954599861623 L17.23572779142203,4.3428141477823505 " />
			<path d="M16.072862721292207,2.221695560763763 L-14.191307513492024,-7.866361184164318 " />
			<path d="M14.19130751349202,7.86636118416432 L-16.07286272129221,-2.221695560763761 " />
			<path d="M-16.422554993054696,-6.829472994964001 L-16.394270721807082,-6.867185356627381 " />
			<path d="M-17.235727791422153,-4.389954599861623 L-17.23572779142209,-4.3428141477823505 " />

       </g>
    </g>
    
</svg>
