<?xml version="1.0" encoding="UTF-8" standalone="no"?>
<svg
   xmlns:svg="http://www.w3.org/2000/svg"
   xmlns="http://www.w3.org/2000/svg"
   width="1024.0"
   height="320.0"

>
    <g transform="scale(3.4044922432493423, -3.4044922432493423)   translate(160.24591149284407,-36.87949735787156)" stroke-width="1.0"  fill="none">
       <!-- hidden lines -->
       <g  stroke="rgb(32,64,32)" fill="none" stroke-dasharray="1.0,1.0" >

       </g>

       <!-- solid lines -->
       <g  stroke="rgb(64,192,64)" fill="none">
			<path d="M71.77133829043456,-29.580633679637245 L72.64667876630762,-29.285250687829294 L73.51107891957386,-28.98630934642982 L74.36440857474992,-28.68385467490521 L75.20653922352838,-28.37793222181649 L76.03734404413113,-28.06858805795986 L76.85669792040822,-27.755868769428485 L77.66447746067963,-27.439821450596973 L78.46056101631783,-27.120493697029048 L79.24482870006759,-26.79793359830979 L80.01716240410056,-26.47218973080358 L80.77744581780172,-26.14331115033871 L81.52556444528547,-25.811347384819708 L82.26140562263836,-25.47634842676857 L82.98485853488575,-25.138364725796144 L83.34190527159713,-24.968269485334776 L83.69581423268009,-24.797447181004614 L84.04657209366222,-24.62590424416891 L84.39416564870834,-24.453647133322256 L84.73858181111756,-24.28068233384752 L85.07980761381603,-24.10701635777163 L85.4178302098452,-23.93265574352042 L85.75263687284526,-23.757607055672505 L86.08421499753466,-23.581876884712027 L86.41255210018443,-23.405471846780568 L86.73763581908815,-23.22839858342816 L87.0594539150276,-23.050663761363055 L87.37799427173336,-22.872274072200845 L87.69324489634103,-22.69323623221251 L88.00519391984281,-22.5135569820715 L88.31382959753421,-22.33324308660008 L88.61914030945643,-22.15230133451448 L88.92111456083379,-21.97073853816936 L89.2197409825063,-21.788561533301447 L89.51500833135802,-21.605777178771973 L89.80690549074016,-21.422392356308585 L90.09542147088965,-21.238413970246192 L90.38054540934291,-21.053848947267014 L90.66226657134479,-20.868704236139916 L90.94057435025276,-20.682986807458587 L91.21545826793631,-20.49670365337923 L91.48690797517122,-20.309861787357363 L91.75491325202948,-20.122468243883603 L92.01946400826387,-19.934530078218955 L92.28055028368797,-19.74605436612913 L92.53816224855112,-19.557048203618137 L92.79229020390834,-19.367518706661222 L93.0429245819858,-19.177473010936787 L93.29005594654085,-18.986918271557844 L93.53367499321725,-18.79586166280268 L93.77377254989558,-18.604310377844605 L94.01033957703856,-18.41227162848122 L94.24336716803134,-18.219752644862915 L94.47284654951683,-18.02676067522058 L94.69876908172597,-17.833302985592834 L94.92112625880314,-17.63938685955233 L95.13990970912634,-17.44501959793159 L95.35511119562226,-17.250208518548206 L95.56672261607658,-17.054960955929182 L95.77473600343895,-16.859284261034897 L95.97914352612288,-16.663185800982312 L96.1799374883007,-16.466672958767596 L96.37711033019319,-16.269753132988235 L96.57065462835432,-16.072433737564346 L96.76056309595066,-15.874722201459608 L96.9468285830357,-15.676625968401673 L97.12944407681917,-15.47815249660172 L97.30840270193092,-15.279309258473782 L97.4836977206799,-15.080103740353387 L97.6553225333077,-14.880543442215679 L97.82327067823712,-14.68063587739314 L97.98753583231544,-14.480388572292576 L98.14811181105247,-14.27980906611181 L98.30499256885334,-14.07890491055594 L98.45817219924619,-13.877683669552844 L98.60764493510455,-13.676152918968485 L98.75340514886433,-13.474320246321774 L98.89544735273593,-13.272193250498734 L99.03376619891064,-13.069779541466483 L99.16835647976205,-12.86708673998682 L99.29921312804218,-12.664122477329132 L99.42633121707222,-12.460894394983159 L99.54970596092788,-12.257410144371397 L99.66933271461984,-12.053677386560842 L99.78520697426845,-11.849703791974648 L99.89732437727329,-11.645497040103418 L100.00568070247752,-11.441064819215917 L100.11027187032677,-11.236414826069687 L100.21109394302262,-11.031554765621358 L100.30814312467108,-10.826492350736391 L100.40141576142527,-10.621235301898771 L100.49090834162315,-10.41579134692044 L100.57661749591968,-10.210168220650152 L100.6585399974136,-10.004373664682362 L100.73667276176906,-9.798415427065851 L100.81101284733164,-9.592301262011823 L100.88155745523915,-9.386038929602066 L100.94830392952693,-9.179636195496878 L101.01124975722799,-8.973100830642506 L101.07039256846747,-8.766440610978705 L101.12573013655197,-8.559663317145937 L101.17726037805333,-8.35277673419242 L101.22498135288706,-8.145788651281123 L101.26889126438545,-7.93870686139635 L101.30898845936514,-7.731539161050417 L101.34527142818942,-7.524293349990211 L101.377738804825,-7.316977230903353 L101.4063893668935,-7.109598609124549 L101.43122203571747,-6.9021652923417 L101.45223587636096,-6.694685090301911 L101.46943009766473,-6.487165814517579 L101.48280405227608,-6.279615277972117 L101.49235723667317,-6.0720412948258895 L101.49808929118402,-5.8644516801221 L101.5,-5.656854249492683 " />
			<path d="M-101.5,-5.6568542494923815 L-101.49892522481574,-5.812552749900893 L-101.49570092202434,-5.968247952952074 L-101.49032715990957,-6.123936561358429 L-101.48280405227608,-6.279615277972117 L-101.47313175844701,-6.435280805854787 L-101.46131048326063,-6.590929848347398 L-101.44734047706595,-6.746559109140015 L-101.43122203571748,-6.902165292341685 L-101.41295550056891,-7.057745102550142 L-101.39254125846597,-7.213295244921643 L-101.3699797417381,-7.368812425240792 L-101.34527142818942,-7.524293349990211 L-101.31841684108853,-7.679734726420351 L-101.2894165491575,-7.835133262619214 L-101.25827116655974,-7.990485667582064 L-101.22498135288706,-8.145788651281121 L-101.1895478131457,-8.301038924735247 L-101.15197129774131,-8.456233200079588 L-101.11225260246324,-8.61136819063521 L-101.07039256846747,-8.766440610978703 L-101.02639208225895,-8.92144717701176 L-100.98025207567277,-9.076384606030723 L-100.93197352585443,-9.23124961679611 L-100.88155745523915,-9.386038929602094 L-100.82900493153019,-9.540749266345976 L-100.77431706767631,-9.695377350597596 L-100.71749502184812,-9.849919907668717 L-100.6585399974136,-10.004373664682394 L-100.5974532429126,-10.158735350642264 L-100.53423605203038,-10.31300169650184 L-100.40141576142527,-10.621235301898787 L-100.26009037692408,-10.929048370128342 L-100.11027187032677,-11.236414826069687 L-99.95197293289328,-11.5433086324349 L-99.78520697426846,-11.849703791974648 L-99.60998812134609,-12.155574349680407 L-99.42633121707222,-12.460894394983159 L-99.23425181918778,-12.765638063948273 L-99.03376619891066,-13.069779541466485 L-98.82489133955741,-13.373293063440691 L-98.60764493510456,-13.676152918968484 L-98.38204538868966,-13.978333452520113 L-98.1481118110525,-14.279809066111794 L-97.905864018916,-14.580554221474166 L-97.65532253330773,-14.880543442215648 L-97.39650857782144,-15.179751315980521 L-97.12944407681921,-15.478152496601691 L-96.85415165357422,-15.77572170624775 L-96.57065462835435,-16.072433737564317 L-96.27897701644662,-16.368263455809334 L-95.97914352612293,-16.663185800982273 L-95.67117955654687,-16.957175789947016 L-95.3551111956223,-17.250208518548177 L-95.03096521778326,-17.542259163720725 L-94.69876908172601,-17.833302985592805 L-94.35855092808292,-18.123315329581473 L-94.01033957703862,-18.412271628481193 L-93.65416452588867,-18.70014740454497 L-93.29005594654086,-18.986918271557844 L-92.91804468295919,-19.27255993690271 L-92.53816224855113,-19.557048203618137 L-92.15044082349812,-19.840358972448136 L-91.75491325202951,-20.12246824388359 L-91.35161303964028,-20.403352120195347 L-90.94057435025282,-20.682986807458562 L-90.52183200332281,-20.96134861756829 L-90.09542147088969,-21.238413970246164 L-89.66137887457178,-21.514159395037893 L-89.21974098250631,-21.788561533301447 L-88.77054520623489,-22.061597140185814 L-88.31382959753421,-22.333243086600078 L-87.84963284519276,-22.6034763611727 L-87.37799427173337,-22.872274072200845 L-86.89895383008223,-23.139613449589547 L-86.41255210018443,-23.40547184678058 L-85.91883028556632,-23.669826742670903 L-85.41783020984522,-23.932655743520414 L-84.90959431318649,-24.193936584848935 L-84.39416564870837,-24.453647133322253 L-83.87158787883486,-24.7117653886271 L-83.34190527159713,-24.968269485334776 L-82.80516269688349,-25.223137694753397 L-82.2614056226384,-25.476348426768556 L-81.71068011101086,-25.72788023167226 L-81.1530328144524,-25.977711801979932 L-80.58851097176527,-26.225821974235377 L-80.01716240410057,-26.47218973080358 L-79.43903551090747,-26.716794201651116 L-78.85417926583312,-26.959614666114074 L-78.26264321257412,-27.20063055465333 L-77.66447746067959,-27.439821450596995 L-77.0597326813064,-27.67716709186994 L-76.44846010292667,-27.912647372710214 L-75.83071150698828,-28.146242345372222 L-75.20653922352837,-28.3779322218165 L-74.57599612674035,-28.607697375386017 L-73.9391356304949,-28.83551834246874 L-73.29601168381541,-29.061375824146378 L-72.64667876630763,-29.285250687829294 L-71.9911918835449,-29.50712396887716 L-71.3296065624084,-29.726976872205533 L-70.66197884638352,-29.944790773877973 L-69.98836529081231,-30.16054722268368 L-69.3088229581027,-30.374227941700553 L-68.62340941289457,-30.5858148298434 L-67.93218271718357,-30.79528996339734 L-67.23520142540247,-31.002635597536088 L-66.53252457946103,-31.20783416782519 L-65.82421170374447,-31.4108682917099 L-65.11032280007123,-31.61172076998763 L-64.39091834261006,-31.81037458826498 L-63.66605927275716,-32.00681291839898 L-62.935806993973955,-32.20101911992266 L-62.20022336658518,-32.39297674145469 L-61.45937070253913,-32.58266952209293 L-60.71331176012883,-32.77008139279195 L-59.96210973867581,-32.95519647772424 L-59.205828273176444,-33.137999095625105 L-58.44453142891136,-33.318473761120956 L-57.67828369601841,-33.496605186041165 L-56.907149984029665,-33.67237828071312 L-56.13119561637284,-33.84577815524044 L-55.35048632483775,-34.0167901207644 L-54.56508824400805,-34.18539969070815 L-53.775067905658936,-34.351592582003946 L-52.98049223312118,-34.51535471630302 L-52.18142853561202,-34.67667222116826 L-51.37794450253327,-34.835531431249265 L-50.57010819773736,-34.991918889439994 L-49.757988053761544,-35.145821348018735 L-48.94165286603094,-35.29722576977032 L-48.1211717870308,-35.4461193290905 L-47.29661432044853,-35.59248941307246 L-46.46805031528608,-35.7363236225752 L-45.6355499599426,-35.87760977327399 L-44.79918377626927,-36.016335896692375 L-43.959022613595025,-36.15249024121612 L-43.11513764272464,-36.286061273088734 L-42.26760034991026,-36.41703767738838 L-41.41648253079541,-36.54540835898652 L-40.561856284333224,-36.67116244348766 L-39.703794006678834,-36.79428927815062 L-38.842368385056666,-36.91477843279092 L-37.97765239160304,-37.032619700664284 L-37.10971927718459,-37.14780309933134 L-36.23864256519318,-37.260318871503145 L-35.36449604531764,-37.37015748586784 L-34.487353767292944,-37.477309637897974 L-33.60729003462747,-37.581766250638715 L-32.72437939830868,-37.6835184754768 L-31.838696650487563,-37.78255769289012 L-30.950316818143417,-37.87887551317779 L-30.05931515672797,-37.972463777170944 L-29.165767143790188,-38.0633145569239 L-28.26974847258302,-38.15142015638568 L-27.371335045651012,-38.23677311205202 L-26.470602968400584,-38.31936619359753 L-25.567628542653132,-38.3991924044883 L-24.66248826018139,-38.47624498257446 L-23.755258796229757,-38.550517400663054 L-22.846017003019064,-38.62200336707103 L-21.934839903236366,-38.6906968261581 L-21.021804683510258,-38.75659195883978 L-20.10698868787236,-38.81968318308036 L-19.19046941120539,-38.87996515436568 L-18.272324492678557,-38.93743276615592 L-17.35263170917062,-38.99208115031823 L-16.43146896868139,-39.043905677539 L-15.508914303732041,-39.09290195771608 L-14.585045864754912,-39.13906584033069 L-13.659941913473324,-39.18239341479895 L-12.733680816271953,-39.222881010803206 L-11.806341037558331,-39.260525198602934 L-10.878001133116179,-39.29532278932524 L-9.948739743450473,-39.327270835235055 L-9.018635587126312,-39.35636662998475 L-8.087767454100304,-39.382607708843494 L-7.1562141990459445,-39.405991848905984 L-6.2240547346743,-39.42651706928076 L-5.291368025048879,-39.44418163125803 L-4.358233078896607,-39.45898403845689 L-3.4247289429149306,-39.47092303695217 L-2.4909346950756954,-39.47999761538064 L-1.556929437926382,-39.486207005026586 L-0.622792291889261,-39.48955067988706 L0.31139761144097294,-39.49002835671638 L1.245561136000507,-39.48763999505012 L2.1796191479600973,-39.48238579720851 L3.113492522428568,-39.474266208279374 L4.04710215015555,-39.46328191608036 L4.980368944232896,-39.44943385110072 L5.913213846794204,-39.432723186422436 L6.845557835711886,-39.413151337620874 L7.777321931291188,-39.390719962644894 L8.708427202960648,-39.36543096167638 L9.638794775958365,-39.337286476969254 L10.568345838013554,-39.306288892668036 L11.497001646022714,-39.272440834605874 L12.424683532720385,-39.23574517008208 L13.351312913342584,-39.1962050076193 L14.276811292284064,-39.153823696700115 L15.201100269748007,-39.10860482748335 L16.12410154838682,-39.06055223049994 L17.045736939935107,-39.009669976328425 L17.965928371833,-38.95596237525017 L18.884597893839743,-38.899433976884154 L19.801667684636936,-38.84008956980169 L20.717060058420838,-38.77793418112067 L21.630697471483206,-38.71297307607975 L22.5425025287801,-38.645211757592364 L23.452397990488066,-38.57465596578051 L24.36030677854722,-38.501311677488545 L25.266151983190564,-38.42518510577685 L26.169856869459114,-38.346282699395516 L27.07134488370217,-38.26461114223811 L27.970539660062244,-38.1801773527754 L28.867365026944093,-38.092988483469384 L29.76174501346726,-38.003051920167266 L30.653603855901665,-37.91037528147595 L31.542866004085592,-37.814966418116526 L32.42945612782562,-37.71683341225929 L33.31329912327784,-37.61598457683914 L34.19432011931029,-37.51242845485126 L35.072444483844855,-37.40617381862755 L35.94759783017966,-37.29722966909346 L36.81970602329071,-37.1856052350055 L37.68869518611142,-37.07130997216952 L38.5544917057911,-36.95435356263965 L39.41702223993079,-36.834745913898146 L40.27621372279602,-36.712497158016106 L41.131993371506404,-36.58761765079518 L41.98428869220105,-36.46011797089034 L42.83302748617962,-36.33000891891369 L43.678137856018346,-36.197301516519644 L44.51954821166052,-36.06200700547116 L45.35718727648096,-35.9241368466875 L46.19098409332388,-35.783702719273364 L47.020868030513796,-35.64071651952952 L47.846768787838755,-35.49519035994506 L48.66861640250553,-35.34713656817139 L49.48634125506625,-35.19656768597787 L50.29987407531593,-35.04349646818942 L51.10914594816035,-34.88793588160607 L51.91408831945402,-34.7298991039045 L52.71463300180737,-34.56939952252176 L53.510712180362944,-34.40645073352124 L54.30225841854034,-34.24106654044081 L55.08920466374834,-34.07326095312371 L55.8714842530653,-33.90304818653159 L56.64903091888635,-33.73044265954043 L57.421778794536664,-33.55545899371909 L58.18966241985122,-33.378112012090696 L58.95261674672003,-33.19841673787698 L59.710577144598446,-33.016388393225654 L60.46347940598193,-32.83204239792089 L61.21125975184529,-32.64539436807713 L61.95385483704537,-32.456460114816245 L62.69120175568707,-32.265255642928125 L63.42323804645219,-32.07179714951492 L64.1499016978906,-31.876101022618954 L64.87113115367323,-31.678183839834496 L65.5868653178066,-31.478062366903455 L66.29704355980834,-31.27575355629511 L67.00160571984318,-31.071274545770105 L67.70049211381921,-30.864642656928645 L68.39364353844375,-30.65587539374319 L69.08100127623851,-30.444990441075674 L69.76250710051357,-30.23200566317941 L70.43810328029991,-30.016939102185784 L71.10773258523969,-29.799808976575907 L71.77133829043393,-29.58063367963746 " />
			<path d="M71.77133829043456,-26.752206554891053 L72.64667876630762,-26.456823563083105 L73.51107891957386,-26.15788222168363 L74.36440857474992,-25.85542755015902 L75.20653922352838,-25.549505097070302 L76.03734404413113,-25.240160933213673 L76.85669792040822,-24.927441644682297 L77.66447746067963,-24.61139432585078 L78.46056101631783,-24.292066572282856 L79.24482870006759,-23.969506473563598 L80.01716240410056,-23.643762606057393 L80.77744581780172,-23.31488402559252 L81.52556444528547,-22.98292026007352 L82.26140562263836,-22.647921302022382 L82.98485853488575,-22.309937601049953 L83.34190527159713,-22.139842360588588 L83.69581423268009,-21.969020056258422 L84.04657209366222,-21.797477119422723 L84.39416564870834,-21.625220008576065 L84.73858181111756,-21.45225520910133 L85.07980761381603,-21.278589233025443 L85.4178302098452,-21.10422861877423 L85.75263687284526,-20.929179930926317 L86.08421499753466,-20.75344975996584 L86.41255210018443,-20.57704472203438 L86.73763581908815,-20.399971458681968 L87.0594539150276,-20.222236636616863 L87.37799427173336,-20.043846947454654 L87.69324489634103,-19.86480910746632 L88.00519391984281,-19.685129857325308 L88.31382959753421,-19.504815961853893 L88.61914030945643,-19.32387420976829 L88.92111456083379,-19.142311413423172 L89.2197409825063,-18.960134408555255 L89.51500833135802,-18.777350054025785 L89.80690549074016,-18.593965231562393 L90.09542147088965,-18.4099868455 L90.38054540934291,-18.225421822520826 L90.66226657134479,-18.040277111393728 L90.94057435025276,-17.8545596827124 L91.21545826793631,-17.668276528633044 L91.48690797517122,-17.48143466261117 L91.75491325202948,-17.294041119137415 L92.01946400826387,-17.106102953472767 L92.28055028368797,-16.91762724138294 L92.53816224855112,-16.72862107887195 L92.79229020390834,-16.53909158191503 L93.0429245819858,-16.349045886190595 L93.29005594654085,-16.158491146811656 L93.53367499321725,-15.96743453805649 L93.77377254989558,-15.775883253098414 L94.01033957703856,-15.583844503735033 L94.24336716803134,-15.391325520116727 L94.47284654951683,-15.198333550474388 L94.69876908172597,-15.004875860846644 L94.92112625880314,-14.810959734806143 L95.13990970912634,-14.616592473185403 L95.35511119562226,-14.421781393802016 L95.56672261607658,-14.226533831182993 L95.77473600343895,-14.030857136288708 L95.97914352612288,-13.834758676236124 L96.1799374883007,-13.638245834021406 L96.37711033019319,-13.441326008242045 L96.57065462835432,-13.244006612818154 L96.76056309595066,-13.046295076713418 L96.9468285830357,-12.848198843655483 L97.12944407681917,-12.64972537185553 L97.30840270193092,-12.450882133727593 L97.4836977206799,-12.251676615607197 L97.6553225333077,-12.052116317469489 L97.82327067823712,-11.85220875264695 L97.98753583231544,-11.651961447546386 L98.14811181105247,-11.45138194136562 L98.30499256885334,-11.25047778580975 L98.45817219924619,-11.049256544806655 L98.60764493510455,-10.847725794222296 L98.75340514886433,-10.645893121575584 L98.89544735273593,-10.443766125752543 L99.03376619891064,-10.241352416720293 L99.16835647976205,-10.03865961524063 L99.29921312804218,-9.835695352582942 L99.42633121707222,-9.632467270236969 L99.54970596092788,-9.428983019625207 L99.66933271461984,-9.225250261814653 L99.78520697426845,-9.021276667228456 L99.89732437727329,-8.817069915357228 L100.00568070247752,-8.61263769446973 L100.11027187032677,-8.4079877013235 L100.21109394302262,-8.203127640875168 L100.30814312467108,-7.998065225990201 L100.40141576142527,-7.792808177152582 L100.49090834162315,-7.58736422217425 L100.57661749591968,-7.381741095903962 L100.6585399974136,-7.175946539936173 L100.73667276176906,-6.969988302319661 L100.81101284733164,-6.763874137265632 L100.88155745523915,-6.557611804855876 L100.94830392952693,-6.351209070750688 L101.01124975722799,-6.144673705896317 L101.07039256846747,-5.9380134862325145 L101.12573013655197,-5.731236192399748 L101.17726037805333,-5.524349609446229 L101.22498135288706,-5.317361526534933 L101.26889126438545,-5.11027973665016 L101.30898845936514,-4.903112036304227 L101.34527142818942,-4.695866225244021 L101.377738804825,-4.488550106157163 L101.4063893668935,-4.281171484378359 L101.43122203571747,-4.07373816759551 L101.45223587636096,-3.8662579655557208 L101.46943009766473,-3.658738689771389 L101.48280405227608,-3.4511881532259276 L101.49235723667317,-3.2436141700797 L101.49808929118402,-3.0360245553759104 L101.5,-2.8284271247464927 " />
			<path d="M101.5,-2.8284271247461725 L101.49808929118402,-2.620829694116446 L101.49235723667317,-2.4132400794126485 L101.48280405227608,-2.2056660962664427 L101.46943009766473,-1.9981155597209734 L101.45223587636096,-1.7905962839366334 L101.43122203571748,-1.5831160818968655 L101.4063893668935,-1.3756827651140082 L101.377738804825,-1.1683041433351964 L101.34527142818942,-0.96098802424833 L101.30898845936514,-0.753742213188116 L101.26889126438545,-0.5465745128422057 L101.22498135288706,-0.33949272295742494 L101.17726037805332,-0.1325046400461205 L101.12573013655197,0.07438194290737643 L101.07039256846747,0.28115923674015075 L101.01124975722797,0.48781945640396085 L100.94830392952693,0.6943548212583401 L100.88155745523915,0.900757555363537 L100.81101284733164,1.1070198877732715 L100.73667276176906,1.3131340528273086 L100.6585399974136,1.5190922904438295 L100.57661749591968,1.7248868464115965 L100.49090834162314,1.930509972681893 L100.40141576142526,2.135953927660233 L100.30814312467108,2.3412109764978304 L100.21109394302262,2.5462733913828064 L100.11027187032676,2.7511334518311417 L100.00568070247753,2.955783444977352 L99.89732437727329,3.16021566586486 L99.78520697426845,3.3644224177360957 L99.66933271461986,3.56839601232227 L99.5497059609279,3.7721287701328334 L99.42633121707222,3.9756130207446025 L99.2992131280422,4.178841103090555 L99.16835647976205,4.381805365748252 L99.03376619891064,4.58449816722792 L98.89544735273594,4.7869118762601515 L98.75340514886435,4.989038872083199 L98.60764493510455,5.190871544729916 L98.4581721992462,5.392402295314254 L98.30499256885335,5.593623536317358 L98.14811181105249,5.794527691873235 L97.98753583231546,5.995107198053981 L97.82327067823715,6.195354503154556 L97.65532253330771,6.395262067977102 L97.48369772067993,6.594822366114789 L97.30840270193096,6.79402788423519 L97.1294440768192,6.992871122363134 L96.94682858303572,7.1913445941630965 L96.76056309595067,7.389440827221042 L96.57065462835435,7.587152363325757 L96.3771103301932,7.784471758749653 L96.17993748830072,7.981391584529021 L95.97914352612291,8.17790442674372 L95.77473600343897,8.374002886796308 L95.5667226160766,8.569679581690604 L95.35511119562227,8.764927144309636 L95.13990970912634,8.959738223693028 L94.92112625880317,9.15410548531375 L94.698769081726,9.348021611354257 L94.47284654951685,9.541479300982006 L94.24336716803137,9.734471270624327 L94.0103395770386,9.926990254242645 L93.7737725498956,10.119029003606029 L93.53367499321725,10.310580288564115 L93.29005594654085,10.501636897319287 L93.04292458198583,10.692191636698212 L92.79229020390835,10.882237332422651 L92.53816224855112,11.071766829379575 L92.28055028368802,11.260772991890551 L92.01946400826391,11.44924870398038 L91.75491325202948,11.637186869645038 L91.48690797517122,11.824580413118802 L91.2154582679363,12.011422279140678 L90.94057435025279,12.197705433220015 L90.66226657134479,12.383422861901348 L90.38054540934291,12.568567573028457 L90.09542147088966,12.753132596007612 L89.80690549074018,12.937110982070017 L89.51500833135803,13.120495804533412 L89.2197409825063,13.303280159062892 L88.92111456083376,13.485457163930812 L88.61914030945643,13.66701996027591 L88.31382959753421,13.847961712361519 L88.0051939198428,14.028275607832944 L87.69324489634104,14.207954857973933 L87.37799427173337,14.38699269796228 L87.0594539150276,14.565382387124492 L86.73763581908814,14.7431172091896 L86.4125521001844,14.92019047254202 L86.08421499753467,15.096595510473458 L85.75263687284526,15.272325681433946 L85.41783020984516,15.447374369281869 L85.07980761381606,15.621734983533061 L84.73858181111756,15.795400959608957 L84.39416564870832,15.968365759083701 L84.0465720936622,16.14062286993036 L83.69581423268005,16.312165806766068 L83.34190527159713,16.482988111096212 L82.98485853488573,16.65308335155759 L82.26140562263836,16.991067052530006 L81.52556444528545,17.32606601058115 L80.77744581780166,17.65802977610017 L80.01716240410053,17.98690835656503 L79.24482870006759,18.31265222407123 L78.4605610163178,18.635212322790494 L77.66447746067958,18.954540076358434 L76.85669792040817,19.270587395189935 L76.03734404413112,19.583306683721304 L75.20653922352834,19.892650847577947 L74.3644085747499,20.198573300666652 L73.51107891957389,20.501027972191253 L72.6466787663076,20.799969313590736 L71.77133829043457,21.095352305398677 L70.88518931501073,21.38713246402302 L69.9883652908123,21.67526584844512 L69.08100127623848,21.95970906683712 L68.16323391697237,22.240419283096607 L67.23520142540244,22.517354223297524 L66.29704355980834,22.790472182056547 L65.34890160331382,23.059732028813684 L64.39091834261002,23.325093214026424 L63.42323804645221,23.586515775276354 L62.44600644393363,23.84396034328733 L61.45937070253904,24.09738814785438 L60.463479405981985,24.346761023682312 L59.458482531828544,24.592041416133277 L58.444531428911304,24.833192386882402 L57.42177879453674,25.07017761948051 L56.390378651489634,25.302961424823266 L55.35048632483772,25.531508746525844 L54.30225841854036,25.755785166202244 L53.2458527918646,25.975756908648627 L52.18142853561201,26.191390846929693 L51.10914594816033,26.402654507367508 L50.02916651132309,26.609516074431887 L48.94165286603097,26.81194439553174 L47.846768787838776,27.009908985706495 L46.74467916226138,27.20338003221704 L45.635549959942594,27.39232839903542 L44.51954821166058,27.57672563123259 L43.396841983173644,27.756543959263652 L42.26760034991017,27.931756303149832 L41.13199337150647,28.102336276556613 L39.99019206619638,28.26825819076744 L38.842368385056616,28.429497058552357 L37.68869518611152,28.586028597930948 L36.52934620830131,28.737829235829153 L35.36449604531762,28.884876111629275 L34.19432011931033,29.027147080612693 L33.01899465446967,29.164620717294795 L31.838696650487467,29.297276318651555 L30.653603855901636,29.425093907237375 L29.463894741327923,29.54805423419355 L28.269748472582883,29.66613878214713 L27.071344883702185,29.779329767999535 L25.868864449858233,29.887610145604647 L24.66248826018129,29.99096360833589 L23.452397990488127,30.089374591541933 L22.2387758759223,30.182828274890696 L21.021804683510204,30.271310584601217 L19.80166768463702,30.354808195563116 L18.578548627446793,30.433308533343308 L17.352631709170563,30.50679977607966 L16.12410154838693,30.575270856261362 L14.893143157219216,30.638711462395577 L13.65994191347331,30.697112040560377 L12.42468353272045,30.75046379584351 L11.187554040329141,30.798758693666862 L9.948739743450416,30.84198946099648 L8.708427202960667,30.880149587437806 L7.466803205366268,30.913233326216172 L6.2240547346741995,30.941235695042195 L4.980368944232938,30.964152476862154 L3.735933128547914,30.98198022049298 L2.4909346950755937,30.994716241142065 L1.2455611360005725,31.002358620811542 L4.458541567520345e-15,31.00490620858715 L-1.2455611360005638,31.002358620811542 L-2.490934695075584,30.994716241142065 L-3.7359331285479036,30.98198022049298 L-4.9803689442329295,30.964152476862154 L-6.22405473467419,30.941235695042195 L-7.46680320536626,30.913233326216172 L-8.70842720296066,30.880149587437806 L-9.948739743450409,30.84198946099648 L-11.187554040329134,30.798758693666862 L-12.424683532720444,30.75046379584351 L-13.659941913473302,30.697112040560377 L-14.893143157219209,30.638711462395577 L-16.124101548386925,30.575270856261362 L-17.352631709170556,30.506799776079667 L-18.57854862744679,30.433308533343308 L-19.801667684637014,30.354808195563116 L-21.021804683510197,30.271310584601217 L-22.238775875922297,30.182828274890703 L-23.452397990488127,30.08937459154194 L-24.662488260181288,29.99096360833589 L-25.868864449858226,29.887610145604647 L-27.07134488370218,29.779329767999535 L-28.26974847258288,29.66613878214713 L-29.46389474132792,29.54805423419355 L-30.653603855901633,29.425093907237375 L-31.838696650487464,29.297276318651562 L-33.01899465446966,29.164620717294788 L-34.194320119310326,29.027147080612686 L-35.364496045317615,28.884876111629268 L-36.5293462083013,28.737829235829146 L-37.68869518611151,28.58602859793094 L-38.84236838505661,28.42949705855235 L-39.99019206619637,28.268258190767433 L-41.131993371506475,28.1023362765566 L-42.2676003499102,27.931756303149818 L-43.39684198317365,27.756543959263645 L-44.51954821166057,27.576725631232584 L-45.63554995994258,27.392328399035414 L-46.74467916226137,27.20338003221704 L-47.84676878783877,27.009908985706495 L-48.94165286603096,26.81194439553174 L-50.02916651132307,26.609516074431887 L-51.109145948160325,26.4026545073675 L-52.181428535611985,26.191390846929686 L-53.24585279186458,25.975756908648627 L-54.30225841854034,25.755785166202244 L-55.35048632483768,25.531508746525837 L-56.3903786514896,25.302961424823266 L-57.421778794536706,25.07017761948051 L-58.444531428911255,24.833192386882402 L-59.4584825318285,24.592041416133284 L-60.46347940598194,24.346761023682312 L-61.459370702539,24.09738814785439 L-62.44600644393358,23.843960343287343 L-63.423238046452205,23.586515775276347 L-64.39091834261,23.325093214026417 L-65.34890160331382,23.059732028813677 L-66.29704355980836,22.79047218205654 L-67.23520142540244,22.517354223297517 L-68.16323391697237,22.2404192830966 L-69.08100127623848,21.959709066837114 L-69.9883652908123,21.675265848445115 L-70.88518931501073,21.38713246402301 L-71.77133829043457,21.09535230539867 L-72.64667876630759,20.79996931359073 L-73.51107891957388,20.501027972191245 L-74.36440857474989,20.198573300666645 L-75.20653922352832,19.89265084757794 L-76.0373440441311,19.583306683721297 L-76.85669792040817,19.270587395189935 L-77.66447746067958,18.95454007635842 L-78.46056101631781,18.635212322790487 L-79.24482870006759,18.312652224071215 L-80.01716240410056,17.98690835656501 L-80.77744581780169,17.65802977610015 L-81.52556444528547,17.326066010581137 L-82.26140562263839,16.991067052529985 L-82.98485853488576,16.65308335155757 L-83.34190527159713,16.482988111096205 L-83.69581423268008,16.312165806766053 L-84.04657209366223,16.14062286993034 L-84.39416564870835,15.968365759083683 L-84.73858181111757,15.795400959608946 L-85.07980761381606,15.621734983533047 L-85.4178302098452,15.447374369281844 L-85.75263687284527,15.272325681433932 L-86.08421499753466,15.096595510473454 L-86.41255210018441,14.920190472542012 L-86.73763581908817,14.743117209189586 L-87.0594539150276,14.565382387124481 L-87.37799427173337,14.386992697962276 L-87.69324489634106,14.207954857973922 L-88.00519391984281,14.028275607832926 L-88.31382959753421,13.847961712361508 L-88.61914030945643,13.667019960275907 L-88.92111456083376,13.485457163930802 L-89.21974098250631,13.303280159062874 L-89.51500833135803,13.120495804533402 L-89.80690549074016,12.937110982070012 L-90.09542147088966,12.753132596007603 L-90.38054540934293,12.568567573028444 L-90.66226657134479,12.383422861901341 L-90.94057435025276,12.197705433220014 L-91.2154582679363,12.011422279140671 L-91.48690797517122,11.824580413118786 L-91.75491325202948,11.637186869645031 L-92.01946400826388,11.449248703980384 L-92.280550283688,11.260772991890546 L-92.53816224855112,11.071766829379564 L-92.79229020390834,10.882237332422648 L-93.04292458198583,10.692191636698201 L-93.29005594654086,10.50163689731927 L-93.53367499321725,10.310580288564108 L-93.77377254989561,10.119029003606014 L-94.01033957703861,9.926990254242622 L-94.24336716803137,9.734471270624315 L-94.47284654951685,9.541479300981988 L-94.698769081726,9.348021611354232 L-94.92112625880318,9.154105485313732 L-95.13990970912636,8.959738223693003 L-95.35511119562229,8.764927144309604 L-95.56672261607662,8.56967958169058 L-95.77473600343897,8.374002886796296 L-95.97914352612293,8.1779044267437 L-96.17993748830074,7.981391584528994 L-96.37711033019322,7.784471758749634 L-96.57065462835435,7.5871523633257425 L-96.76056309595067,7.389440827221023 L-96.94682858303574,7.191344594163072 L-97.1294440768192,6.992871122363116 L-97.30840270193096,6.794027884235179 L-97.48369772067993,6.594822366114771 L-97.65532253330773,6.395262067977075 L-97.82327067823715,6.1953545031545385 L-97.98753583231546,5.995107198053974 L-98.14811181105249,5.7945276918732205 L-98.30499256885336,5.593623536317336 L-98.4581721992462,5.392402295314241 L-98.60764493510455,5.1908715447299105 L-98.75340514886435,4.989038872083185 L-98.89544735273594,4.78691187626013 L-99.03376619891064,4.584498167227908 L-99.16835647976205,4.381805365748248 L-99.2992131280422,4.1788411030905435 L-99.42633121707222,3.975613020744585 L-99.5497059609279,3.7721287701328228 L-99.66933271461984,3.5683960123222684 L-99.78520697426845,3.364422417736087 L-99.89732437727329,3.160215665864844 L-100.00568070247753,2.955783444977344 L-100.11027187032676,2.7511334518311426 L-100.21109394302262,2.5462733913827993 L-100.30814312467108,2.341210976497817 L-100.40141576142526,2.1359539276602284 L-100.49090834162314,1.9305099726818957 L-100.57661749591966,1.724886846411593 L-100.6585399974136,1.5190922904438189 L-100.73667276176906,1.3131340528273068 L-100.81101284733164,1.107019887773263 L-100.88155745523915,0.9007575553635223 L-100.94830392952693,0.6943548212583335 L-101.01124975722797,0.4878194564039471 L-101.07039256846747,0.2811592367401303 L-101.12573013655197,0.074381942907364 L-101.17726037805332,-0.13250464004614004 L-101.22498135288706,-0.33949272295745114 L-101.26889126438545,-0.5465745128422239 L-101.30898845936514,-0.7537422131881408 L-101.34527142818942,-0.9609880242483619 L-101.377738804825,-1.1683041433352206 L-101.4063893668935,-1.3756827651140242 L-101.43122203571748,-1.5831160818968883 L-101.45223587636096,-1.7905962839366634 L-101.46943009766473,-1.9981155597209952 L-101.48280405227608,-2.2056660962664565 L-101.49235723667317,-2.413240079412669 L-101.49808929118402,-2.6208296941164733 L-101.5,-2.8284271247460415 " />
			<path d="M-101.5,-2.8284271247461916 L-101.49892522481574,-2.984125625154703 L-101.49570092202434,-3.139820828205885 L-101.49032715990957,-3.295509436612239 L-101.48280405227608,-3.451188153225927 L-101.47313175844701,-3.606853681108597 L-101.46131048326063,-3.762502723601208 L-101.44734047706595,-3.918131984393825 L-101.43122203571748,-4.073738167595495 L-101.41295550056891,-4.2293179778039525 L-101.39254125846597,-4.384868120175454 L-101.3699797417381,-4.540385300494602 L-101.34527142818942,-4.695866225244021 L-101.31841684108853,-4.851307601674161 L-101.2894165491575,-5.006706137873024 L-101.25827116655974,-5.162058542835874 L-101.22498135288706,-5.317361526534931 L-101.1895478131457,-5.472611799989057 L-101.15197129774131,-5.627806075333398 L-101.11225260246324,-5.78294106588902 L-101.07039256846747,-5.938013486232514 L-101.02639208225895,-6.09302005226557 L-100.98025207567277,-6.2479574812845335 L-100.93197352585443,-6.4028224920499195 L-100.88155745523915,-6.557611804855905 L-100.82900493153019,-6.712322141599787 L-100.77431706767631,-6.866950225851405 L-100.71749502184812,-7.021492782922528 L-100.6585399974136,-7.175946539936203 L-100.5974532429126,-7.330308225896074 L-100.53423605203038,-7.484574571755648 L-100.40141576142527,-7.792808177152597 L-100.26009037692408,-8.100621245382154 L-100.11027187032677,-8.4079877013235 L-99.95197293289328,-8.714881507688713 L-99.78520697426846,-9.021276667228458 L-99.60998812134609,-9.327147224934219 L-99.42633121707222,-9.632467270236969 L-99.23425181918778,-9.937210939202085 L-99.03376619891066,-10.241352416720293 L-98.82489133955741,-10.544865938694503 L-98.60764493510456,-10.847725794222294 L-98.38204538868966,-11.149906327773923 L-98.1481118110525,-11.451381941365604 L-97.905864018916,-11.752127096727977 L-97.65532253330773,-12.052116317469459 L-97.39650857782144,-12.351324191234331 L-97.12944407681921,-12.649725371855501 L-96.85415165357422,-12.947294581501561 L-96.57065462835435,-13.244006612818126 L-96.27897701644662,-13.539836331063142 L-95.97914352612293,-13.834758676236083 L-95.67117955654687,-14.128748665200826 L-95.3551111956223,-14.421781393801988 L-95.03096521778326,-14.713832038974536 L-94.69876908172601,-15.004875860846616 L-94.35855092808292,-15.294888204835283 L-94.01033957703862,-15.583844503735005 L-93.65416452588867,-15.87172027979878 L-93.29005594654086,-16.158491146811656 L-92.91804468295919,-16.44413281215652 L-92.53816224855113,-16.728621078871946 L-92.15044082349812,-17.011931847701945 L-91.75491325202951,-17.2940411191374 L-91.35161303964028,-17.57492499544916 L-90.94057435025282,-17.85455968271237 L-90.52183200332281,-18.1329214928221 L-90.09542147088969,-18.409986845499976 L-89.66137887457178,-18.6857322702917 L-89.21974098250631,-18.960134408555255 L-88.77054520623489,-19.233170015439626 L-88.31382959753421,-19.504815961853886 L-87.84963284519276,-19.77504923642651 L-87.37799427173337,-20.043846947454654 L-86.89895383008223,-20.311186324843355 L-86.41255210018443,-20.577044722034387 L-85.91883028556632,-20.841399617924715 L-85.41783020984522,-21.104228618774222 L-84.90959431318649,-21.365509460102743 L-84.39416564870837,-21.625220008576065 L-83.87158787883486,-21.88333826388091 L-83.34190527159713,-22.139842360588588 L-82.80516269688349,-22.394710570007206 L-82.2614056226384,-22.647921302022368 L-81.71068011101086,-22.899453106926067 L-81.1530328144524,-23.149284677233744 L-80.58851097176527,-23.39739484948919 L-80.01716240410057,-23.643762606057393 L-79.43903551090747,-23.888367076904927 L-78.85417926583312,-24.131187541367886 L-78.26264321257412,-24.372203429907138 L-77.66447746067959,-24.611394325850803 L-77.0597326813064,-24.84873996712375 L-76.44846010292667,-25.084220247964026 L-75.83071150698828,-25.31781522062603 L-75.20653922352837,-25.54950509707031 L-74.57599612674035,-25.779270250639826 L-73.9391356304949,-26.007091217722547 L-73.29601168381541,-26.23294869940019 L-72.64667876630763,-26.456823563083105 L-71.9911918835449,-26.678696844130968 L-71.3296065624084,-26.89854974745934 L-70.66197884638352,-27.116363649131785 L-69.98836529081231,-27.33212009793749 L-69.3088229581027,-27.545800816954362 L-68.62340941289457,-27.75738770509721 L-67.93218271718357,-27.966862838651153 L-67.23520142540247,-28.1742084727899 L-66.53252457946103,-28.379407043079 L-65.82421170374447,-28.58244116696371 L-65.11032280007123,-28.783293645241443 L-64.39091834261006,-28.981947463518793 L-63.66605927275716,-29.178385793652794 L-62.935806993973955,-29.37259199517647 L-62.20022336658518,-29.564549616708504 L-61.45937070253913,-29.754242397346736 L-60.71331176012883,-29.94165426804576 L-59.96210973867581,-30.12676935297806 L-59.205828273176444,-30.30957197087892 L-58.44453142891136,-30.49004663637477 L-57.67828369601841,-30.668178061294974 L-56.907149984029665,-30.843951155966927 L-56.13119561637284,-31.017351030494254 L-55.35048632483775,-31.188362996018213 L-54.56508824400805,-31.356972565961968 L-53.775067905658936,-31.523165457257754 L-52.98049223312118,-31.68692759155683 L-52.18142853561202,-31.84824509642207 L-51.37794450253327,-32.007104306503074 L-50.57010819773736,-32.1634917646938 L-49.757988053761544,-32.317394223272544 L-48.94165286603094,-32.46879864502413 L-48.1211717870308,-32.61769220434431 L-47.29661432044853,-32.764062288326265 L-46.46805031528608,-32.907896497829014 L-45.6355499599426,-33.0491826485278 L-44.79918377626927,-33.187908771946184 L-43.959022613595025,-33.32406311646993 L-43.11513764272464,-33.45763414834254 L-42.26760034991026,-33.588610552642194 L-41.41648253079541,-33.71698123424033 L-40.561856284333224,-33.84273531874147 L-39.703794006678834,-33.96586215340443 L-38.842368385056666,-34.086351308044726 L-37.97765239160304,-34.2041925759181 L-37.10971927718459,-34.31937597458515 L-36.23864256519318,-34.43189174675695 L-35.36449604531764,-34.54173036112165 L-34.487353767292944,-34.64888251315178 L-33.60729003462747,-34.75333912589252 L-32.72437939830868,-34.85509135073062 L-31.838696650487563,-34.95413056814393 L-30.950316818143417,-35.050448388431604 L-30.05931515672797,-35.14403665242476 L-29.165767143790188,-35.234887432177715 L-28.26974847258302,-35.3229930316395 L-27.371335045651012,-35.40834598730583 L-26.470602968400584,-35.49093906885135 L-25.567628542653132,-35.57076527974211 L-24.66248826018139,-35.647817857828265 L-23.755258796229757,-35.72209027591687 L-22.846017003019064,-35.793576242324846 L-21.934839903236366,-35.86226970141191 L-21.021804683510258,-35.92816483409359 L-20.10698868787236,-35.991256058334166 L-19.19046941120539,-36.051538029619486 L-18.272324492678557,-36.10900564140974 L-17.35263170917062,-36.16365402557204 L-16.43146896868139,-36.21547855279281 L-15.508914303732041,-36.26447483296989 L-14.585045864754912,-36.310638715584496 L-13.659941913473324,-36.35396629005276 L-12.733680816271953,-36.39445388605702 L-11.806341037558331,-36.43209807385675 L-10.878001133116179,-36.466895664579056 L-9.948739743450473,-36.49884371048886 L-9.018635587126312,-36.52793950523856 L-8.087767454100304,-36.5541805840973 L-7.156214199045945,-36.5775647241598 L-6.224054734674301,-36.59808994453458 L-5.29136802504888,-36.61575450651184 L-4.358233078896608,-36.630556913710706 L-3.4247289429149306,-36.64249591220599 L-2.4909346950756954,-36.65157049063445 L-1.5569294379263823,-36.657779880280394 L-0.6227922918892612,-36.661123555140875 L0.3113976114409727,-36.661601231970195 L1.2455611360005068,-36.659212870303925 L2.1796191479600973,-36.653958672462316 L3.113492522428568,-36.64583908353318 L4.047102150155549,-36.63485479133418 L4.980368944232895,-36.62100672635454 L5.9132138467942035,-36.604296061676244 L6.845557835711885,-36.58472421287468 L7.777321931291187,-36.56229283789871 L8.708427202960648,-36.53700383693019 L9.638794775958365,-36.50885935222306 L10.568345838013554,-36.477861767921844 L11.497001646022714,-36.44401370985968 L12.424683532720385,-36.40731804533589 L13.351312913342584,-36.367777882873106 L14.276811292284064,-36.32539657195393 L15.201100269748007,-36.28017770273716 L16.12410154838682,-36.232125105753745 L17.045736939935107,-36.18124285158224 L17.965928371833,-36.127535250503975 L18.884597893839743,-36.07100685213797 L19.801667684636936,-36.01166244505551 L20.717060058420838,-35.94950705637448 L21.630697471483206,-35.884545951333564 L22.5425025287801,-35.81678463284617 L23.452397990488066,-35.74622884103432 L24.36030677854722,-35.67288455274236 L25.266151983190564,-35.596757981030656 L26.169856869459114,-35.517855574649325 L27.07134488370217,-35.43618401749192 L27.970539660062244,-35.35175022802922 L28.867365026944093,-35.26456135872319 L29.76174501346726,-35.17462479542108 L30.653603855901665,-35.08194815672976 L31.542866004085592,-34.986539293370335 L32.42945612782562,-34.88840628751311 L33.31329912327784,-34.787557452092955 L34.19432011931029,-34.68400133010507 L35.072444483844855,-34.57774669388136 L35.94759783017966,-34.46880254434727 L36.81970602329071,-34.35717811025931 L37.68869518611142,-34.24288284742333 L38.5544917057911,-34.12592643789346 L39.41702223993079,-34.006318789151955 L40.27621372279602,-33.884070033269914 L41.131993371506404,-33.75919052604899 L41.98428869220105,-33.631690846144146 L42.83302748617962,-33.50158179416751 L43.678137856018346,-33.36887439177346 L44.51954821166052,-33.233579880724974 L45.35718727648096,-33.09570972194131 L46.19098409332388,-32.95527559452717 L47.020868030513796,-32.81228939478333 L47.846768787838755,-32.66676323519887 L48.66861640250553,-32.5187094434252 L49.48634125506625,-32.36814056123168 L50.29987407531593,-32.215069343443226 L51.10914594816035,-32.05950875685988 L51.91408831945402,-31.90147197915831 L52.71463300180737,-31.740972397775572 L53.510712180362944,-31.578023608775048 L54.30225841854034,-31.412639415694628 L55.08920466374834,-31.244833828377516 L55.8714842530653,-31.074621061785408 L56.64903091888635,-30.902015534794245 L57.421778794536664,-30.7270318689729 L58.18966241985122,-30.549684887344505 L58.95261674672003,-30.369989613130798 L59.710577144598446,-30.187961268479462 L60.46347940598193,-30.003615273174695 L61.21125975184529,-29.816967243330936 L61.95385483704537,-29.628032990070054 L62.69120175568707,-29.436828518181933 L63.42323804645219,-29.24337002476873 L64.1499016978906,-29.047673897872762 L64.87113115367323,-28.849756715088304 L65.5868653178066,-28.649635242157267 L66.29704355980834,-28.447326431548923 L67.00160571984318,-28.242847421023917 L67.70049211381921,-28.036215532182453 L68.39364353844375,-27.827448268997003 L69.08100127623851,-27.616563316329483 L69.76250710051357,-27.403578538433223 L70.43810328029991,-27.188511977439596 L71.10773258523969,-26.97138185182972 L71.77133829043393,-26.752206554891274 " />
			<path d="M6.184658438426493,-4.242640687119284 L6.053296670134026,-4.180838613345739 L5.916378633981551,-4.12039136136384 L5.774030005832182,-4.061354415175398 L5.626381446241749,-4.003781964274921 L5.47356848052661,-3.947726853909552 L5.315731374366154,-3.893240536572879 L5.153015005054173,-3.840373024777147 L4.98556872851726,-3.789172845147206 L4.813546242222314,-3.7396869938783555 L4.6371054440989905,-3.691960893598943 L4.456408287606575,-3.646038351677336 L4.271620633078324,-3.6019615200115225 L4.082912095479726,-3.5597708563382535 L3.890455888720404,-3.5195050870972415 L3.694428666662605,-3.4812011718845035 L3.495010360972152,-3.4448942695274685 L3.292384015960765,-3.4106177058130016 L3.0867356205712864,-3.3784029428979583 L2.878253937660058,-3.348279550430342 L2.6671303307331655,-3.3202751784075875 L2.4535585882955493,-3.294415531796871 L2.2377347459742336,-3.270724346940745 L2.0198569065789553,-3.249223369769758 L1.800125058265329,-3.2299323358420575 L1.578740890967473,-3.212868952228292 L1.3559076112685917,-3.1980488812584493 L1.1318297558794417,-3.1854857261455383 L0.9067130038958767,-3.1751910184993215 L0.6807639880078089,-3.1671742077415495 L0.4541901048328803,-3.1614426524324224 L0.22719932454893207,-3.1580016135162303 L7.830741192837861e-16,-3.156854249492379 L-0.22719932454893046,-3.1580016135162303 L-0.4541901048328788,-3.1614426524324224 L-0.6807639880078075,-3.1671742077415495 L-0.9067130038958753,-3.1751910184993215 L-1.1318297558794403,-3.1854857261455383 L-1.3559076112685904,-3.1980488812584493 L-1.5787408909674716,-3.212868952228292 L-1.8001250582653276,-3.2299323358420575 L-2.019856906578954,-3.249223369769758 L-2.237734745974232,-3.2707243469407445 L-2.4535585882955475,-3.294415531796871 L-2.6671303307331637,-3.3202751784075875 L-2.878253937660055,-3.3482795504303415 L-3.0867356205712833,-3.378402942897958 L-3.292384015960764,-3.4106177058130016 L-3.4950103609721492,-3.444894269527468 L-3.6944286666625996,-3.4812011718845026 L-3.8904558887203993,-3.5195050870972415 L-4.082912095479721,-3.559770856338254 L-4.27162063307832,-3.601961520011523 L-4.45640828760657,-3.646038351677336 L-4.637105444098987,-3.691960893598943 L-4.813546242222309,-3.7396869938783555 L-4.985568728517254,-3.789172845147206 L-5.15301500505417,-3.8403730247771466 L-5.31573137436615,-3.893240536572879 L-5.473568480526605,-3.9477268539095514 L-5.626381446241747,-4.003781964274921 L-5.774030005832179,-4.061354415175398 L-5.916378633981547,-4.12039136136384 L-6.053296670134024,-4.18083861334574 L-6.184658438426472,-4.242640687119276 " />
			<path d="M5.303300858899105,-4.59619407771256 L5.431853122136,-4.552278486588858 L5.557133440162196,-4.507324511863735 L5.679066348798637,-4.461359232130631 L5.797578400220529,-4.414410335155303 L5.912598207199548,-4.366506101197756 L6.024056486104838,-4.317675385977273 L6.131886098636878,-4.2679476032908035 L6.236022092269089,-4.217352707295195 L6.3364017393728025,-4.165921174463933 L6.43296457500204,-4.113683985229245 L6.525652433315335,-4.060672605320651 L6.614409482612661,-4.006918966811185 L6.699182258966363,-3.9524554488827075 L6.779919698425823,-3.897314858321896 L6.856573167776478,-3.8415304097586658 L6.929096493834649,-3.7851357056589157 L6.997445991260539,-3.7281647160836617 L7.061580488872654,-3.6706517582267417 L7.1214613544477725,-3.6126314757434206 L7.177052517991564,-3.554138817882348 L7.228320493465797,-3.4952090184334383 L7.275234398959078,-3.435877574504352 L7.317765975288964,-3.376180225138365 L7.355889603024227,-3.3161529297865115 L7.389582317917059,-3.255831846646944 L7.418823824735858,-3.1952533108845933 L7.443596509490325,-3.1344538127442294 L7.463885450041477,-3.0734699755700907 L7.479678425090176,-3.012338533745358 L7.490965921538793,-2.9510963105647345 L7.497741140221532,-2.8897801960534704 L7.5,-2.828427124746212 " />
			<path d="M7.5,-2.8284271247461885 L7.497741140221532,-2.767074053438908 L7.490965921538793,-2.7057579389276434 L7.479678425090176,-2.64451571574702 L7.463885450041476,-2.583384273922287 L7.443596509490325,-2.522400436748148 L7.418823824735857,-2.461600938607784 L7.389582317917059,-2.4010224028454354 L7.355889603024228,-2.340701319705868 L7.317765975288964,-2.2806740243540142 L7.27523439895908,-2.220976674988029 L7.228320493465799,-2.1616452310589427 L7.177052517991566,-2.102715431610033 L7.121461354447774,-2.04422277374896 L7.061580488872655,-1.9862024912656384 L6.997445991260541,-1.9286895334087184 L6.92909649383465,-1.871718543833464 L6.856573167776479,-1.815323839733714 L6.779919698425824,-1.7595393911704833 L6.699182258966364,-1.7043988006096722 L6.614409482612662,-1.6499352826811944 L6.525652433315335,-1.5961816441717283 L6.43296457500204,-1.5431702642631342 L6.3364017393728025,-1.4909330750284455 L6.2360220922690885,-1.4395015421971828 L6.131886098636877,-1.3889066462015753 L6.024056486104836,-1.3391788635151052 L5.912598207199546,-1.2903481482946215 L5.797578400220527,-1.242443914337075 L5.679066348798633,-1.1954950173617467 L5.557133440162192,-1.1495297376286426 L5.431853122136002,-1.1045757629035216 L5.303300858899106,-1.06066017177982 L5.036692161352638,-0.9760493113587911 L4.7579496312273415,-0.8959009913393465 L4.4677447836932505,-0.8204082960445764 L4.166776747647017,-0.7497530939898254 L3.8557705814491636,-0.6841055997455086 L3.535475526194984,-0.6236239638753016 L3.206663200727117,-0.5684538919375806 L2.8701257427381743,-0.518728293467972 L2.5266739004416507,-0.474566961788637 L2.177135079408468,-0.43607628541566656 L1.8223513492744798,-0.4033489917598292 L1.4631774151209622,-0.3764639237381129 L1.100478558415213,-0.3554858498342366 L0.7351285524717058,-0.34046530806569697 L0.36800755745563607,-0.33143848423325784 L5.475602504812199e-16,-0.32842712474618896 L-0.368007557455635,-0.33143848423325784 L-0.7351285524717048,-0.3404653080656965 L-1.1004785584152124,-0.3554858498342366 L-1.4631774151209616,-0.3764639237381129 L-1.822351349274479,-0.4033489917598292 L-2.1771350794084663,-0.43607628541566656 L-2.526673900441649,-0.474566961788637 L-2.8701257427381726,-0.518728293467972 L-3.206663200727117,-0.568453891937581 L-3.535475526194982,-0.6236239638753016 L-3.855770581449161,-0.6841055997455094 L-4.166776747647015,-0.7497530939898258 L-4.467744783693247,-0.8204082960445769 L-4.75794963122734,-0.8959009913393465 L-5.036692161352638,-0.9760493113587916 L-5.303300858899106,-1.0606601717798205 L-5.431853122136001,-1.1045757629035218 L-5.5571334401621915,-1.149529737628643 L-5.679066348798632,-1.1954950173617473 L-5.7975784002205275,-1.242443914337076 L-5.912598207199548,-1.2903481482946233 L-6.024056486104838,-1.339178863515107 L-6.131886098636879,-1.3889066462015769 L-6.23602209226909,-1.4395015421971846 L-6.336401739372803,-1.4909330750284469 L-6.43296457500204,-1.5431702642631353 L-6.525652433315335,-1.5961816441717296 L-6.614409482612662,-1.6499352826811953 L-6.699182258966364,-1.7043988006096726 L-6.779919698425824,-1.759539391170484 L-6.856573167776478,-1.8153238397337141 L-6.929096493834651,-1.8717185438334654 L-6.997445991260542,-1.9286895334087202 L-7.061580488872656,-1.9862024912656402 L-7.121461354447775,-2.0442227737489613 L-7.177052517991566,-2.1027154316100343 L-7.228320493465799,-2.161645231058944 L-7.27523439895908,-2.22097667498803 L-7.317765975288964,-2.280674024354015 L-7.355889603024228,-2.3407013197058686 L-7.389582317917059,-2.401022402845436 L-7.418823824735857,-2.4616009386077846 L-7.443596509490325,-2.522400436748148 L-7.463885450041476,-2.583384273922288 L-7.479678425090176,-2.644515715747022 L-7.490965921538793,-2.705757938927645 L-7.497741140221532,-2.7670740534389093 L-7.5,-2.8284271247461787 " />
			<path d="M-7.5,-2.82842712474619 L-7.498729363468676,-2.8744439495107024 L-7.494917884412621,-2.920445182099587 L-7.488566854299711,-2.966415235620414 L-7.479678425090176,-3.012338533745358 L-7.468255608507449,-3.058199515989022 L-7.45430227501767,-3.103982642980898 L-7.437823152518247,-3.1496724017306734 L-7.418823824735858,-3.195253310884594 L-7.39731072933449,-3.2407099259711143 L-7.3732911557341225,-3.2860268446340424 L-7.346773242640804,-3.3311887118514196 L-7.317765975288964,-3.376180225138365 L-7.286279182396888,-3.420986139732109 L-7.2523235328363915,-3.4655912737574766 L-7.215910532017813,-3.5099805133710618 L-7.177052517991567,-3.554138817882346 L-7.09205494035391,-3.641702855151847 L-6.997445991260543,-3.7281647160836595 L-6.893353887675433,-3.8134072248988105 L-6.779919698425826,-3.897314858321895 L-6.657297153021406,-3.97977390214179 L-6.525652433315336,-4.060672605320651 L-6.38516394828949,-4.1399013314423625 L-6.236022092269091,-4.217352707295196 L-6.078428986894464,-4.292921768387287 L-5.91259820719955,-4.366506101197757 L-5.738754492168443,-4.438005981970669 L-5.557133440162195,-4.507324511863736 L-5.367981189628643,-4.574367748268622 L-5.171554085528004,-4.639044832124857 L-4.9681183319262905,-4.701268111054838 L-4.757949631227344,-4.760953258153032 L-4.541332810532448,-4.818019386268398 L-4.318561435633844,-4.872389157625149 L-4.089937413165351,-4.923988888633286 L-3.8557705814491636,-4.972748649746871 L-3.616378290593419,-5.018602360234707 L-3.3720849724095516,-5.0614878777349785 L-3.1232217007322847,-5.101347082472495 L-2.870125742738177,-5.138125956024407 L-2.6131401018707607,-5.171774654527628 L-2.3526130529916918,-5.202247576228782 L-2.088897670387908,-5.229503423285104 L-1.822351349274487,-5.2535052577325505 L-1.5533353214416445,-5.274220551545259 L-1.2822141657022623,-5.291621230718544 L-1.0093553138034472,-5.305683713315641 L-0.7351285524717096,-5.316388941426682 L-0.45990552226657366,-5.323722406996564 L-0.1840592139218492,-5.327674171486701 L0.09203653714289481,-5.3282388793440525 L0.3680075574556329,-5.325415765259121 L0.6434798425832994,-5.319208655203136 L0.9180800639941173,-5.309625961242966 L1.1914360750039525,-5.296680670140837 L1.463177415120956,-5.280390325754267 L1.7329358121050298,-5.260777005260092 L2.000345681061737,-5.23786728923479 L2.265044619894212,-5.2116922256316744 L2.5266739004416476,-5.182287287703743 L2.784878954638775,-5.14969232592923 L3.0393098550374194,-5.113951514005018 L3.289621789038955,-5.0751132889810755 L3.535475526194982,-5.033230285617078 L3.776537877942883,-4.988359265050157 L4.012482149153227,-4.9405610378704585 L4.2429885808770935,-4.889900381708754 L4.467744783693246,-4.836445953447804 L4.686446161067896,-4.780270196176427 L4.898796322153325,-4.721449241012402 L5.104507483465899,-4.660062803927222 L5.303300858899059,-4.596194077712576 " />
			<path d="M-101.49999999999999,-2.828427124746197 L-101.49999999999999,-5.656854249492387 " />
			<path d="M101.49999999999999,-2.8284271247461827 L101.49999999999999,-5.656854249492373 " />

       </g>
    </g>
    
</svg>
