<?xml version="1.0" encoding="UTF-8" standalone="no"?>
<svg
   xmlns:svg="http://www.w3.org/2000/svg"
   xmlns="http://www.w3.org/2000/svg"
   width="1024.0"
   height="320.0"

>
    <g transform="scale(1.640989145702866, -1.640989145702866)   translate(117.63506979239537,-37.76146630086496)" stroke-width="0.8666666666666668"  fill="none">
       <!-- hidden lines -->
       <g  stroke="rgb(32,64,32)" fill="none" stroke-dasharray="0.8666666666666668,0.8666666666666668" >

       </g>

       <!-- solid lines -->
       <g  stroke="rgb(64,192,64)" fill="none">
			<path d="M75.30687219636731,25.102290732122444 L75.30687219636731,-16.05132393293462 " />
			<path d="M75.30687219636731,25.102290732122444 L5.656854249492383,1.8856180831641467 " />
			<path d="M5.656854249492386,-14.42497833620557 L5.656854249492379,1.8856180831641254 " />
			<path d="M5.656854249492431,-14.424978336205553 L10.437943162736298,-14.539400582787666 " />
			<path d="M5.656854249492397,-39.26799658189293 L5.6568542494923895,-22.910259710444137 " />
			<path d="M5.656854249492373,-39.26799658189294 L5.6568542494923735,-47.753277956131505 " />
			<path d="M5.656854249492402,-53.740115370177605 L5.656854249492399,-47.7532779561315 " />
			<path d="M19.091883092036788,-49.26177242266281 L5.656854249492405,-53.740115370177605 " />
			<path d="M5.656854249492408,-67.41084647308924 L5.656854249492407,-65.99663291074442 " />
			<path d="M5.656854249492405,-67.41084647308924 L7.778174593009638,-66.70373969191682 " />
			<path d="M13.081475451951128,-65.87878178054669 L13.081475451951125,-83.32074904978657 " />
			<path d="M13.081475451951132,-83.32074904978657 L5.656854249492412,-85.79562278393946 " />
			<path d="M5.656854249492417,-89.56685895029601 L5.656854249492415,-85.79562278393948 " />
			<path d="M5.656854249492418,-92.39528607504221 L5.656854249492417,-89.56685895029601 " />
			<path d="M5.656854249492417,-92.3952860750422 L10.60660171779822,-90.74537025227359 " />
			<path d="M5.656854249492426,-112.19427594826553 L5.6568542494924205,-98.99494936611664 " />
			<path d="M5.6568542494924285,-117.8511301977579 L5.656854249492426,-112.19427594826553 " />
			<path d="M5.656854249492429,-120.67955732250408 L5.6568542494924285,-117.8511301977579 " />
			<path d="M75.30687219636732,-97.46288467354579 L5.65685424949244,-120.67955732250408 " />
			<path d="M75.3068721963673,-79.07810836269554 L75.3068721963673,-97.4628846735458 " />
			<path d="M70.35712472806149,-70.8285292488525 L70.35712472806149,-77.42819253992695 " />
			<path d="M75.30687219636732,-69.1786134260839 L70.35712472806149,-70.8285292488525 " />
			<path d="M75.30687219636731,-26.015879365007056 L75.3068721963673,-69.1786134260839 " />
			<path d="M70.52578328312211,-24.42218306059199 L70.52578328312211,-15.936901686353421 " />
			<path d="M70.52578328312211,-15.936901686353416 L75.30687219636712,-16.051323932935556 " />
			<path d="M28.63782463805517,-78.13529932108523 L18.384776310850235,-81.5529820968202 " />
			<path d="M18.384776310850228,-81.55298209682019 L18.384776310850228,-64.1110148275803 " />
			<path d="M22.627416997969526,-61.753992223596846 L28.637824638055182,-59.75052301023496 " />
			<path d="M28.637824638055175,-59.75052301023497 L28.63782463805517,-78.13529932108521 " />
			<path d="M10.606601717798203,-112.42997820856678 L10.606601717798203,-113.37278725014883 " />
			<path d="M10.60660171779821,-103.00188779274615 L10.606601717798208,-112.42997820856677 " />
			<path d="M17.677669529663696,-100.64486518879097 L10.60660171779822,-103.00188779274613 " />
			<path d="M17.67766952966368,-110.07295560461161 L17.677669529663685,-100.64486518879099 " />
			<path d="M17.677669529663678,-110.07295560461162 L17.677669529663678,-111.01576464619367 " />
			<path d="M10.60660171779822,-113.37278725014883 L17.677669529663696,-111.01576464619367 " />
			<path d="M8.131727983645305,-115.97494020500962 L8.075001003949634,-115.99165680716489 L8.018464510740023,-116.00393249361599 L7.962308350858013,-116.01172604319466 L7.906721094004018,-116.01501128553394 L7.851889399529277,-116.01377718894713 L7.797997389642678,-116.00802789747158 L7.745226031137181,-115.9977827169532 L7.69375252771199,-115.98307605021843 " />
			<path d="M7.693752527711985,-115.98307605021843 L7.651299214259439,-115.9671664103418 L7.610003295792934,-115.94812973447478 L7.56996425779715,-115.92601188363693 L7.531278557821627,-115.90086614166822 L7.49403939310607,-115.87275308686355 L7.4583364760600475,-115.84174044603438 L7.424255818137926,-115.80790293134882 L7.391879522629756,-115.77132206034359 L7.361285586867242,-115.73208595954104 L7.332547714321352,-115.69028915214469 L7.305735137044188,-115.6460323303245 L7.280912448882915,-115.5994221126407 L7.258139449867523,-115.55057078719024 L7.23747100214732,-115.49959604109503 L7.218956897823206,-115.44662067698324 L7.202641738994143,-115.39177231714714 L7.188564830306788,-115.33518309608972 L7.176760084267161,-115.27698934220112 L7.167255939542445,-115.21733124933162 L7.160075292449747,-115.15635253905242 L7.155235441796863,-115.09420011441765 L7.152748047207937,-115.03102370606216 L7.152619101034404,-114.9669755114873 L7.154848913918889,-114.90220982840376 L7.159432114046847,-114.83688268301486 L7.166357660087727,-114.77115145413588 L7.175608867794511,-114.7051744940545 L7.187163450197524,-114.63911074704652 L7.200993571295694,-114.57311936646492 L7.2170659131159205,-114.50735933132573 L7.235341755978988,-114.44198906331349 L7.255777071778664,-114.37716604512958 L7.278322630049265,-114.31304644110266 L7.302924116566159,-114.24978472097501 L7.329522264193493,-114.18753328777153 L7.3580529956639085,-114.12644211064736 L7.388447577946296,-114.06665836359915 L7.420632787829687,-114.00832607090999 L7.454531088324381,-113.95158576018227 L7.490060815455346,-113.89657412379438 L7.527136374997886,-113.84342368959685 L7.565668448681628,-113.79226250164109 L7.605564209366057,-113.74321381171006 L7.646727544669229,-113.69639578239396 L7.689059288510915,-113.65192120242622 L7.7324574600123785,-113.60989721496546 L7.776817509177241,-113.57042505947835 L7.822032568761584,-113.53359982784482 L7.867993711726497,-113.49951023527338 L7.914590213652854,-113.46823840657842 L7.961709819486146,-113.43985967833437 L8.009239013968731,-113.41444241738324 L8.057063295108032,-113.39204785613296 L8.105067450021874,-113.37272994504312 L8.153135832496401,-113.35653522265356 L8.201152641587942,-113.34350270346903 L8.249002200597616,-113.33366378396975 L8.296569235746643,-113.32704216697458 L8.34373915388097,-113.32365380453885 L8.390398318536215,-113.32350685952446 L8.436434323697862,-113.32660168593479 L8.481736264597199,-113.33293082806199 L8.526195004890617,-113.34247903844827 L8.569703439578618,-113.3552233146185 " />
			<path d="M8.569703439578625,-113.3552233146185 L8.605961710197255,-113.36858725086154 L8.641389800476144,-113.38422791543668 L8.675925690988217,-113.4021179282326 L8.709508924166423,-113.42222597149166 L8.742080710139085,-113.44451684463398 L8.773584029645805,-113.46895152587851 L8.803963733853788,-113.49548724055352 L8.833166640899853,-113.52407753597674 L8.861141628989124,-113.55467236277411 L8.887839725887416,-113.58721816249486 L8.913214194650655,-113.62165796136938 L8.937220615441287,-113.65793147004598 L8.95981696328839,-113.6959751891317 L8.980963681655421,-113.73572252035258 L9.000623751686797,-113.77710388313878 L9.018762757012055,-113.82004683643034 L9.050353277316741,-113.91031421350455 L9.075514133442393,-114.00589284998546 L9.0940692189216,-114.10611376958919 L9.105888662555225,-114.21027550365247 L9.110889737410023,-114.31764900086905 L9.109037439842975,-114.42748273008299 L9.100344734499618,-114.53900794042355 L9.084872463571593,-114.65144404196475 L9.062728920948521,-114.76400406924911 L9.03406909424481,-114.87590018943507 L8.999093580006628,-114.98634921651559 L8.95804717969175,-115.09457809301236 L8.911217186249328,-115.19982930077828 L8.858931373292187,-115.3013661630366 L8.801555700935904,-115.39847800054672 L8.739491754361987,-115.49048510580732 L8.673173933033247,-115.57674350048144 L8.603066410234662,-115.65664944274509 L8.5296598842206,-115.72964365301145 L8.453468143707816,-115.79521522845405 L8.37502447175317,-115.85290521893 L8.294877913186053,-115.90230983927486 L8.254340993911972,-115.92379474070951 L8.213589431720656,-115.94308329548548 L8.172694565160693,-115.96014173759657 L8.131727983645309,-115.97494020500962 " />
			<path d="M19.79898987322332,-109.36584882342507 L19.79898987322332,-110.30865786500713 " />
			<path d="M19.798989873223327,-99.93775840760443 L19.798989873223324,-109.36584882342507 " />
			<path d="M26.870057685088806,-97.58073580364928 L19.79898987322333,-99.93775840760443 " />
			<path d="M26.8700576850888,-107.00882621946991 L26.870057685088803,-97.58073580364928 " />
			<path d="M26.870057685088796,-107.00882621946991 L26.870057685088796,-107.95163526105198 " />
			<path d="M19.79898987322334,-110.30865786500713 L26.870057685088817,-107.95163526105198 " />
			<path d="M28.991378028648437,-106.30171943837765 L28.991378028648437,-107.24452847995971 " />
			<path d="M28.991378028648445,-96.87362902246272 L28.99137802864844,-106.30171943837763 " />
			<path d="M36.06244584051393,-94.51660641850755 L28.99137802864846,-96.87362902246271 " />
			<path d="M36.062445840513924,-103.94469683442249 L36.062445840513924,-94.51660641850756 " />
			<path d="M36.06244584051392,-103.9446968344225 L36.06244584051392,-104.88750587600455 " />
			<path d="M28.991378028648455,-107.24452847995971 L36.06244584051393,-104.88750587600455 " />
			<path d="M38.18376618407355,-103.23759005323595 L38.18376618407355,-104.180399094818 " />
			<path d="M38.183766184073555,-93.80949963732101 L38.183766184073555,-103.23759005323593 " />
			<path d="M45.254833995939045,-91.45247703336584 L38.18376618407357,-93.809499637321 " />
			<path d="M45.25483399593903,-100.88056744928079 L45.25483399593903,-91.45247703336585 " />
			<path d="M45.25483399593902,-100.88056744928079 L45.25483399593902,-101.82337649086286 " />
			<path d="M38.183766184073576,-104.18039909481801 L45.25483399593905,-101.82337649086286 " />
			<path d="M47.37615433949867,-100.17346066809424 L47.37615433949867,-101.11626970967629 " />
			<path d="M47.376154339498676,-90.7453702521793 L47.376154339498676,-100.17346066809422 " />
			<path d="M54.44722215136416,-88.38834764822414 L47.37615433949868,-90.74537025217928 " />
			<path d="M54.44722215136415,-97.81643806413908 L54.44722215136415,-88.38834764822414 " />
			<path d="M54.447222151364144,-97.81643806413908 L54.447222151364144,-98.75924710572114 " />
			<path d="M47.37615433949868,-101.1162697096763 L54.44722215136416,-98.75924710572114 " />
			<path d="M63.63961030678929,-94.75230867899735 L56.56854249492381,-97.10933128295251 " />
			<path d="M56.56854249492379,-97.10933128295252 L56.5685424949238,-78.25315045131126 " />
			<path d="M56.56854249492381,-78.25315045131124 L63.63961030678929,-75.89612784735608 " />
			<path d="M63.63961030678926,-75.8961278473561 L63.63961030678926,-94.75230867899737 " />
			<path d="M72.8319984622144,-94.4081833788199 L72.77527148251873,-94.42489998097517 L72.71873498930911,-94.43717566742627 L72.6625788294271,-94.44496921700494 L72.60699157257311,-94.44825445934423 L72.55215987809837,-94.44702036275741 L72.49826786821177,-94.44127107128186 L72.44549650970627,-94.43102589076348 L72.39402300628109,-94.41631922402871 " />
			<path d="M72.39402300628107,-94.41631922402871 L72.35156969282853,-94.40040958415209 L72.31027377436203,-94.38137290828506 L72.27023473636625,-94.35925505744721 L72.23154903639072,-94.3341093154785 L72.19430987167516,-94.30599626067384 L72.15860695462914,-94.27498361984466 L72.12452629670702,-94.2411461051591 L72.09215000119885,-94.20456523415388 L72.06155606543633,-94.16532913335132 L72.03281819289045,-94.12353232595497 L72.00600561561329,-94.07927550413478 L71.98118292745201,-94.03266528645098 L71.95840992843662,-93.98381396100052 L71.93774148071641,-93.93283921490531 L71.9192273763923,-93.87986385079353 L71.90291221756324,-93.82501549095743 L71.88883530887588,-93.7684262699 L71.87703056283625,-93.7102325160114 L71.86752641811154,-93.6505744231419 L71.86034577101884,-93.5895957128627 L71.85550592036596,-93.52744328822793 L71.85301852577703,-93.46426687987244 L71.8528895796035,-93.40021868529759 L71.85511939248798,-93.33545300221404 L71.85970259261595,-93.27012585682515 L71.86662813865682,-93.20439462794616 L71.8758793463636,-93.13841766786479 L71.88743392876663,-93.0723539208568 L71.90126404986479,-93.0063625402752 L71.91733639168501,-92.94060250513601 L71.93561223454809,-92.87523223712377 L71.95604755034776,-92.81040921893987 L71.97859310861836,-92.74628961491294 L72.00319459513526,-92.6830278947853 L72.0297927427626,-92.62077646158181 L72.058323474233,-92.55968528445764 L72.08871805651539,-92.49990153740943 L72.12090326639878,-92.44156924472027 L72.15480156689348,-92.38482893399255 L72.19033129402445,-92.32981729760466 L72.22740685356698,-92.27666686340713 L72.26593892725073,-92.22550567545137 L72.30583468793515,-92.17645698552035 L72.34699802323833,-92.12963895620425 L72.38932976708001,-92.0851643762365 L72.43272793858148,-92.04314038877574 L72.47708798774633,-92.00366823328864 L72.52230304733068,-91.9668430016551 L72.5682641902956,-91.93275340908366 L72.61486069222195,-91.9014815803887 L72.66198029805524,-91.87310285214465 L72.70950949253782,-91.84768559119352 L72.75733377367713,-91.82529102994324 L72.80533792859097,-91.8059731188534 L72.8534063110655,-91.78977839646384 L72.90142312015703,-91.77674587727931 L72.94927267916671,-91.76690695778004 L72.99683971431574,-91.76028534078486 L73.04400963245007,-91.75689697834913 L73.09066879710531,-91.75675003333474 L73.13670480226696,-91.75984485974507 L73.1820067431663,-91.76617400187227 L73.2264654834597,-91.77572221225856 L73.26997391814771,-91.78846648842878 " />
			<path d="M73.26997391814773,-91.78846648842878 L73.30623218876634,-91.80183042467182 L73.34166027904524,-91.81747108924696 L73.37619616955732,-91.83536110204288 L73.40977940273552,-91.85546914530194 L73.44235118870819,-91.87776001844426 L73.4738545082149,-91.90219469968879 L73.50423421242289,-91.9287304143638 L73.53343711946894,-91.95732070978703 L73.56141210755823,-91.9879155365844 L73.58811020445651,-92.02046133630515 L73.61348467321974,-92.05490113517966 L73.63749109401039,-92.09117464385626 L73.66008744185748,-92.12921836294198 L73.68123416022452,-92.16896569416286 L73.7008942302559,-92.21034705694906 L73.71903323558115,-92.25329001024062 L73.75062375588584,-92.34355738731483 L73.77578461201149,-92.43913602379574 L73.7943396974907,-92.53935694339947 L73.80615914112433,-92.64351867746275 L73.81116021597911,-92.75089217467934 L73.80930791841207,-92.86072590389327 L73.80061521306871,-92.97225111423383 L73.7851429421407,-93.08468721577503 L73.76299939951761,-93.1972472430594 L73.73433957281391,-93.30914336324535 L73.69936405857572,-93.41959239032587 L73.65831765826084,-93.52782126682264 L73.61148766481843,-93.63307247458856 L73.55920185186129,-93.73460933684689 L73.501826179505,-93.831721174357 L73.43976223293109,-93.9237282796176 L73.37344441160234,-94.00998667429172 L73.30333688880376,-94.08989261655537 L73.2299303627897,-94.16288682682173 L73.15373862227692,-94.22845840226434 L73.07529495032226,-94.28614839274029 L72.99514839175515,-94.33555301308515 L72.95461147248106,-94.3570379145198 L72.91385991028974,-94.37632646929576 L72.87296504372979,-94.39338491140686 L72.8319984622144,-94.4081833788199 " />
			<path d="M73.89265863399422,25.573695252913478 L75.30687219636731,25.102290732122444 " />
			<path d="M70.52578328312211,-15.936901686353416 L78.6575112667674,-18.647477680901847 " />
			<path d="M78.6575112667674,-18.64747768090185 L83.43860018001241,-18.76189992748399 " />
			<path d="M75.30687219636731,-16.051323932934615 L83.4386001800126,-18.761899927483046 " />
			<path d="M79.52011740558844,-18.227280899383338 L79.60330099779918,-18.227976523464164 L79.6774015291509,-18.22587554704926 L79.74178554754056,-18.22099593044072 L79.79590266296272,-18.21337938728548 L79.83929025254612,-18.203091027984136 L79.87157741530845,-18.190218803091383 L79.88346830709722,-18.182847289831226 L79.89248814282195,-18.174872751466342 L79.89861763554305,-18.166312239797254 L79.90184367868528,-18.157184059599825 " />
			<path d="M79.90184367868528,-18.15718405959982 L79.90208381257776,-18.146895716628645 L79.89904443313247,-18.136014587667965 L79.89273286248076,-18.12456688631053 L79.88316430574912,-18.1125801910716 L79.85435623084291,-18.0871065558605 L79.81289764592327,-18.05983900706705 L79.75918781982655,-18.03104014609209 L79.69374400753884,-18.00098732170986 L79.6171964687477,-17.96996995904772 L79.53028239809682,-17.93828677226391 L79.43383882559863,-17.906242887766957 L79.32879455557772,-17.874146905681535 L79.21616122177743,-17.84230792786057 L79.09702354477389,-17.811032581065437 L78.97252888552393,-17.780622063982616 L78.84387619565182,-17.751369246515697 L78.71230447088976,-17.7235558492881 L78.57908081887162,-17.697449730519477 L78.44548825619378,-17.673302306404626 L78.31281335226399,-17.651346129838096 L78.18233383893453,-17.631792650802694 L78.05530630524613,-17.61483017999055 L77.93295409578855,-17.600622075268205 L77.81645552922335,-17.589305168451087 L77.70693255043116,-17.580988447538292 L77.60543992556912,-17.57575200709859 L77.51295508409613,-17.573646276915944 L77.43036870559297,-17.574691536323126 L77.35847614203091,-17.578877718900646 L77.29796975809751,-17.586164509421884 L77.24943226334624,-17.596481732110753 L77.21333110038482,-17.60973002647279 L77.20005756949044,-17.61741452504286 L77.19001394314748,-17.62578180419104 L77.18322441733149,-17.634811706408968 L77.17970534860487,-17.644482477871275 " />
			<path d="M77.17970534860487,-17.64448247787128 L77.18066459603232,-17.66045412692667 L77.18928146591541,-17.67777914653715 L77.20550744398668,-17.69635999424862 L77.2292511755604,-17.716092057106756 L77.26037897987324,-17.73686424064362 L77.29871560272679,-17.75855959435613 L77.34404520319508,-17.78105597015492 L77.39611256884129,-17.80422671007635 L77.51925172324863,-17.852066401057428 L77.66536380178891,-17.901002805261065 L77.83116290450299,-17.949935396774688 L78.01292039190893,-17.997763735428943 L78.2065487380034,-18.043412214486867 L78.40769345422615,-18.085854249856514 L78.61183101711887,-18.12413536683819 L78.81437059739311,-18.157394665210763 L79.01075730263206,-18.184884179930858 L79.19657461181183,-18.205985702044106 L79.36764369800215,-18.220224681524652 L79.52011740558844,-18.227280899383338 " />
			<path d="M70.52578328312211,-24.42218306059199 L75.590576577069,-26.11044749190762 " />
			<path d="M76.91611984439751,-26.552295247683702 L76.83596574102113,-26.184607331616775 L76.74924783556608,-25.860418669706952 L76.65694309686442,-25.583381589771868 L76.56009143532779,-25.356617207237377 L76.45978398725791,-25.182680262474406 L76.35715082204321,-25.063530338949356 L76.25334821073315,-25.000509786445832 L76.14954559942308,-24.99432859807598 L76.04691243420838,-25.0450564114579 L75.9466049861385,-25.15212172417428 L75.84975332460186,-25.314318332351007 L75.7574485859002,-25.52981891981831 L75.67073068044516,-25.796195644758107 L75.59057657706877,-26.110447491907433 " />
			<path d="M76.91611984439729,-26.552295247683716 L78.6575112667674,-27.132759055140422 " />
			<path d="M78.6575112667674,-27.132759055140426 L78.6575112667674,-18.647477680901858 " />
			<path d="M83.4386001800126,-27.247181301721618 L78.65751126676759,-27.132759055139477 " />
			<path d="M76.8186673973723,-26.114377283173 L76.59344810640734,-26.07929675143907 L76.37830304906866,-26.051814013906462 L76.17931474483626,-26.032706054664303 L76.00210893409087,-26.022513088467 L75.92326812738699,-26.020859899880385 L75.85169552879213,-26.02152328793735 L75.78789790534778,-26.02449855554418 L75.73232697368178,-26.02976463643261 L75.68537620164612,-26.03728424431872 L75.64737802238292,-26.047004136907052 L75.61860148054423,-26.058855492870627 L75.59925032733172,-26.072754399137732 " />
			<path d="M75.30687219636732,-69.1786134260839 L80.25661966467315,-70.8285292488525 " />
			<path d="M80.25661966467315,-70.8285292488525 L75.30687219636732,-72.47844507162111 " />
			<path d="M70.35712472806149,-70.8285292488525 L75.30687219636732,-72.47844507162111 " />
			<path d="M74.32752930442393,-70.50208161820471 L74.23625271845992,-70.53565101599696 L74.15528678332828,-70.57204099127512 L74.08541124524484,-70.6109010886845 L74.05484702539134,-70.63114131405219 L74.02729904383918,-70.65185706424396 L74.00283366608882,-70.67299843320309 L73.9815098313782,-70.69451448952003 L73.96337891069287,-70.7163533991305 L73.94848458300883,-70.73846255018839 L73.93686273006608,-70.76078867981228 L73.92854134992632,-70.78327800240035 L73.92354048952315,-70.80587633920467 L73.9218721963673,-70.8285292488525 " />
			<path d="M73.9218721963673,-70.8285292488525 L73.92354048952315,-70.85118215850034 L73.92854134992632,-70.87378049530466 L73.93686273006608,-70.89626981789273 L73.94848458300883,-70.91859594751662 L73.96337891069287,-70.94070509857451 L73.9815098313782,-70.96254400818498 L74.00283366608882,-70.98406006450192 L74.02729904383918,-71.00520143346105 L74.05484702539134,-71.02591718365282 L74.08541124524484,-71.04615740902051 L74.15528678332828,-71.08501750642989 L74.23625271845992,-71.12140748170805 L74.32752930442393,-71.1549768795003 L74.42823749780067,-71.18540240815497 L74.53740742363516,-71.21239105319884 L74.6539877158633,-71.23568289922666 L74.77685564254166,-71.25505363302855 L74.90482791836988,-71.27031670384888 L75.03667210037497,-71.281325119972 L75.17111845701086,-71.28797286433283 L75.30687219636731,-71.29019591551918 L75.44262593572375,-71.28797286433283 L75.57707229235965,-71.281325119972 L75.70891647436474,-71.27031670384888 L75.83688875019295,-71.25505363302855 L75.95975667687131,-71.23568289922666 L76.07633696909946,-71.21239105319884 L76.18550689493395,-71.18540240815497 L76.28621508831068,-71.1549768795003 L76.3774916742747,-71.12140748170805 L76.45845760940634,-71.08501750642989 L76.52833314748978,-71.04615740902051 L76.55889736734328,-71.02591718365282 L76.58644534889544,-71.00520143346105 L76.6109107266458,-70.98406006450192 L76.63223456135641,-70.96254400818498 L76.65036548204175,-70.94070509857451 L76.66525980972578,-70.91859594751662 L76.67688166266854,-70.89626981789273 L76.6852030428083,-70.87378049530466 L76.69020390321147,-70.85118215850034 L76.69187219636731,-70.8285292488525 " />
			<path d="M76.69187219636731,-70.8285292488525 L76.68811947886729,-70.79456694199065 L76.67688166266854,-70.76078867981228 L76.65821964647067,-70.72737750964674 L76.63223456135641,-70.69451448952003 L76.59906722275342,-70.66237770698552 L76.55889736734328,-70.63114131405219 L76.51194267905288,-70.60097458343975 L76.45845760940634,-70.57204099127512 L76.39873199863015,-70.54449733120111 L76.33308950498393,-70.51849286469813 L76.26188585082815,-70.49416851222324 L76.18550689493395,-70.47165608955004 L76.10436654148103,-70.45107759344752 L76.01890449707491,-70.43254454056904 L75.92958388793893,-70.4161573631339 L75.83688875019295,-70.40200486467646 L75.74132140681978,-70.39016373881205 L75.64339974553333,-70.38069815362769 L75.54365441230033,-70.37365940394962 L75.44262593572375,-70.36908563337218 L75.34086179787154,-70.36700162755443 L75.23891346742383,-70.36741867990445 L75.13733341121639,-70.37033453037944 L75.03667210037497,-70.37573337773301 L74.93747502726457,-70.38358596514361 L74.84027974941908,-70.39384973875967 L74.7456129764704,-70.4064690783027 L74.6539877158633,-70.42137559847835 L74.56590049282367,-70.43848851956223 L74.48182865964529,-70.45771510515227 L74.40222780887633,-70.47895116471534 L74.32752930442395,-70.50208161820471 " />
			<path d="M75.30687219636732,-72.47844507162111 L75.30687219636732,-79.07810836269556 " />
			<path d="M70.35712472806149,-77.42819253992694 L75.30687219636732,-79.07810836269556 " />
			<path d="M75.30687219636732,-79.07810836269554 L80.25661966467315,-77.42819253992694 " />
			<path d="M4.242640687119334,-120.20815280171304 L5.656854249492429,-120.67955732250408 " />
			<path d="M4.24264068711932,-85.32421826314844 L4.2426406871193345,-120.20815280171306 " />
			<path d="M5.656854249492415,-85.79562278393949 L4.242640687119319,-85.32421826314845 " />
			<path d="M10.606601717798245,-94.0452018978108 L5.656854249492412,-92.39528607504218 " />
			<path d="M10.60660171779825,-100.64486518888526 L10.606601717798249,-94.04520189781081 " />
			<path d="M5.656854249492419,-98.99494936611663 L10.606601717798252,-100.64486518888525 " />
			<path d="M15.556349186104052,-98.99494936611664 L10.606601717798252,-100.64486518888525 " />
			<path d="M10.60660171779822,-90.74537025227359 L15.556349186104052,-92.39528607504221 " />
			<path d="M15.55634918610405,-92.3952860750422 L15.556349186104049,-98.99494936611664 " />
			<path d="M10.606601717798249,-94.0452018978108 L15.556349186104052,-92.3952860750422 " />
			<path d="M9.627258825854852,-92.06883844439442 L9.53598223989083,-92.10240784218666 L9.455016304759194,-92.13879781746482 L9.385140766675748,-92.1776579148742 L9.354576546822251,-92.19789814024189 L9.327028565270089,-92.21861389043366 L9.302563187519736,-92.2397552593928 L9.281239352809111,-92.26127131570973 L9.263108432123776,-92.2831102253202 L9.248214104439747,-92.30521937637809 L9.236592251497,-92.32754550600198 L9.228270871357228,-92.35003482859005 L9.223270010954057,-92.37263316539438 L9.22160171779822,-92.39528607504221 " />
			<path d="M9.22160171779822,-92.39528607504221 L9.223270010954057,-92.41793898469004 L9.228270871357228,-92.44053732149436 L9.236592251497,-92.46302664408243 L9.248214104439747,-92.48535277370632 L9.263108432123778,-92.50746192476421 L9.281239352809111,-92.52930083437468 L9.302563187519738,-92.55081689069162 L9.327028565270089,-92.57195825965076 L9.354576546822251,-92.59267400984253 L9.385140766675748,-92.61291423521021 L9.455016304759194,-92.6517743326196 L9.53598223989083,-92.68816430789775 L9.627258825854852,-92.72173370569 L9.727967019231572,-92.75215923434467 L9.83713694506607,-92.77914787938855 L9.953717237294214,-92.80243972541636 L10.07658516397257,-92.82181045921826 L10.204557439800789,-92.83707353003858 L10.336401621805882,-92.8480819461617 L10.470847978441778,-92.85472969052253 L10.60660171779822,-92.85695274170888 L10.74235545715466,-92.85472969052253 L10.876801813790557,-92.8480819461617 L11.008645995795652,-92.83707353003858 L11.13661827162387,-92.82181045921826 L11.259486198302227,-92.80243972541636 L11.376066490530368,-92.77914787938855 L11.485236416364868,-92.75215923434467 L11.585944609741588,-92.72173370569 L11.677221195705611,-92.68816430789775 L11.758187130837246,-92.6517743326196 L11.828062668920692,-92.61291423521021 L11.85862688877419,-92.59267400984253 L11.886174870326352,-92.57195825965076 L11.910640248076703,-92.55081689069162 L11.93196408278733,-92.52930083437468 L11.950095003472663,-92.50746192476421 L11.964989331156694,-92.48535277370632 L11.976611184099442,-92.46302664408243 L11.984932564239212,-92.44053732149436 L11.989933424642384,-92.41793898469004 L11.99160171779822,-92.39528607504221 " />
			<path d="M11.99160171779822,-92.39528607504221 L11.987849000298207,-92.36132376818036 L11.976611184099442,-92.32754550600198 L11.957949167901582,-92.29413433583645 L11.93196408278733,-92.26127131570973 L11.898796744184335,-92.22913453317523 L11.85862688877419,-92.19789814024189 L11.811672200483786,-92.16773140962945 L11.758187130837246,-92.13879781746482 L11.69846152006107,-92.11125415739082 L11.632819026414838,-92.08524969088784 L11.561615372259057,-92.06092533841294 L11.485236416364868,-92.03841291573974 L11.404096062911936,-92.01783441963723 L11.318634018505833,-91.99930136675874 L11.22931340936985,-91.98291418932361 L11.136618271623869,-91.96876169086616 L11.041050928250685,-91.95692056500175 L10.94312926696424,-91.9474549798174 L10.843383933731237,-91.94041623013932 L10.74235545715466,-91.93584245956188 L10.640591319302453,-91.93375845374413 L10.538642988854745,-91.93417550609415 L10.437062932647304,-91.93709135656914 L10.336401621805882,-91.94249020392272 L10.237204548695486,-91.95034279133331 L10.140009270849994,-91.96060656494937 L10.04534249790131,-91.97322590449241 L9.953717237294212,-91.98813242466805 L9.86563001425459,-92.00524534575193 L9.7815581810762,-92.02447193134198 L9.701957330307238,-92.04570799090504 L9.627258825854856,-92.06883844439442 " />
			<path d="M4.24264068711932,-85.32421826314845 L11.667261889578043,-82.84934452899554 " />
			<path d="M11.66726188957804,-82.84934452899553 L13.081475451951135,-83.32074904978656 " />
			<path d="M11.66726188957804,-82.84934452899553 L11.667261889578038,-66.35018630133771 " />
			<path d="M4.242640687119312,-66.93944195229821 L5.656854249492408,-67.41084647308925 " />
			<path d="M4.24264068711931,-61.188306798647616 L4.242640687119312,-66.93944195229821 " />
			<path d="M4.242640687119312,-61.188306798647616 L5.727564927611063,-61.6832815454782 " />
			<path d="M5.727564927611057,-61.68328154547821 L5.727564927611058,-62.72037149121848 " />
			<path d="M7.707463914933395,-63.38033782032591 L5.727564927611063,-62.72037149121847 " />
			<path d="M7.707463914933392,-63.38033782032591 L7.707463914933391,-62.34324787458564 " />
			<path d="M7.707463914933395,-62.34324787458564 L9.192388155425146,-62.83822262141623 " />
			<path d="M9.192388155425146,-67.175144212722 L9.192388155425144,-62.83822262141622 " />
			<path d="M9.192388155425142,-67.17514421272199 L5.656854249492405,-65.99663291074441 " />
			<path d="M9.192388155425144,-67.17514421272202 L22.627416997969526,-62.69680126520722 " />
			<path d="M22.627416997969526,-62.69680126520721 L22.62741699796953,-50.44028372464039 " />
			<path d="M19.091883092036788,-49.26177242266281 L22.627416997969526,-50.44028372464039 " />
			<path d="M22.627416997969526,-50.44028372464039 L9.192388155425142,-54.918626672155185 " />
			<path d="M5.6568542494923975,-53.7401153701776 L9.192388155425135,-54.918626672155185 " />
			<path d="M9.192388155425144,-59.72695278419542 L9.192388155425142,-54.918626672155185 " />
			<path d="M7.707463914933388,-59.23197803736484 L9.192388155425139,-59.726952784195426 " />
			<path d="M7.707463914933389,-59.23197803736484 L7.707463914933388,-58.006326283308155 " />
			<path d="M7.707463914933388,-58.00632628330815 L5.727564927611056,-57.34635995420071 " />
			<path d="M5.727564927611055,-57.34635995420072 L5.727564927611056,-58.572011708257406 " />
			<path d="M4.242640687119305,-58.07703696142681 L5.727564927611056,-58.5720117082574 " />
			<path d="M4.242640687119284,2.3570226039551585 L4.242640687119309,-58.077036961426806 " />
			<path d="M5.65685424949238,1.885618083164129 L4.242640687119284,2.3570226039551603 " />
			<path d="M18.569671146383584,-25.73525795156411 L13.788582233139717,-25.620835704981996 " />
			<path d="M12.138783733930953,-25.070902871923625 L13.788582233137728,-25.62083570499255 " />
			<path d="M12.065412051257884,-24.63801669133726 L11.801989413377672,-24.591171904211297 L11.672277157487828,-24.571064446123014 L11.545527769066894,-24.55342593843684 L11.422931937275218,-24.538422078046203 L11.305641332585038,-24.526193811855496 L11.194757787938942,-24.51685601271881 L11.091322948084223,-24.51049640031947 L10.996308484317696,-24.507174717127583 L10.910606966564096,-24.506922167176704 L10.83502347853614,-24.509741122931846 L10.770268054743799,-24.515605103002425 L10.716949010399821,-24.524459020909575 L10.67556722688069,-24.53621970257088 L10.659478777536716,-24.543156594687403 L10.646511446425604,-24.550776667641248 L10.636695705364092,-24.559062015090355 L10.630054620275315,-24.56799316737 " />
			<path d="M5.656854249492432,-22.91025971044412 L10.630054620275981,-24.56799316737197 " />
			<path d="M10.437943162738286,-14.539400582777107 L18.56967114638358,-17.24997657732554 " />
			<path d="M18.56967114638358,-17.249976577325537 L18.56967114638358,-25.73525795156411 " />
			<path d="M5.656854249492431,-14.424978336205553 L13.788582233137726,-17.135554330753987 " />
			<path d="M13.788582233137728,-17.135554330753987 L18.569671146381594,-17.2499765773361 " />
			<path d="M14.55800886128504,-16.713127553275964 L14.641192453495771,-16.71382317735679 L14.7152929848475,-16.711722200941885 L14.779677003237158,-16.706842584333344 L14.83379411865932,-16.699226041178107 L14.877181708242722,-16.68893768187676 L14.909468871005044,-16.67606545698401 L14.921359762793813,-16.668693943723852 L14.930379598518538,-16.660719405358968 L14.936509091239646,-16.65215889368988 L14.939735134381886,-16.64303071349245 " />
			<path d="M14.939735134381886,-16.643030713492447 L14.939975268274347,-16.63274237052127 L14.936935888829069,-16.62186124156059 L14.930624318177351,-16.610413540203155 L14.921055761445723,-16.598426844964226 L14.892247686539509,-16.572953209753127 L14.85078910161987,-16.545685660959677 L14.79707927552315,-16.516886799984714 L14.731635463235436,-16.486833975602487 L14.65508792444429,-16.455816612940346 L14.56817385379341,-16.424133426156537 L14.471730281295224,-16.392089541659583 L14.366686011274314,-16.35999355957416 L14.25405267747402,-16.328154581753196 L14.13491500047048,-16.296879234958062 L14.010420341220518,-16.26646871787524 L13.881767651348415,-16.237215900408323 L13.750195926586354,-16.209402503180726 L13.616972274568214,-16.183296384412102 L13.483379711890386,-16.15914896029725 L13.35070480796058,-16.137192783730722 L13.220225294631122,-16.11763930469532 L13.09319776094273,-16.100676833883174 L12.970845551485137,-16.08646872916083 L12.854346984919943,-16.075151822343713 L12.744824006127761,-16.066835101430918 L12.643331381265716,-16.061598660991216 L12.550846539792737,-16.05949293080857 L12.468260161289567,-16.060538190215752 L12.396367597727501,-16.064724372793272 L12.33586121379411,-16.07201116331451 L12.287323719042831,-16.08232838600338 L12.25122255608141,-16.095576680365415 L12.237949025187039,-16.103261178935487 L12.22790539884407,-16.111628458083665 L12.221115873028083,-16.120658360301594 L12.21759680430146,-16.1303291317639 " />
			<path d="M12.21759680430146,-16.130329131763904 L12.218556051728916,-16.146300780819296 L12.227172921612006,-16.163625800429777 L12.243398899683271,-16.182206648141246 L12.26714263125701,-16.201938710999382 L12.298270435569837,-16.222710894536245 L12.33660705842338,-16.244406248248755 L12.381936658891679,-16.266902624047546 L12.434004024537881,-16.290073363968975 L12.557143178945232,-16.337913054950054 L12.703255257485509,-16.38684945915369 L12.869054360199584,-16.435782050667314 L13.050811847605535,-16.48361038932157 L13.244440193700004,-16.529258868379493 L13.445584909922744,-16.57170090374914 L13.649722472815476,-16.609982020730815 L13.85226205308971,-16.64324131910339 L14.048648758328655,-16.670730833823484 L14.23446606750842,-16.691832355936732 L14.405535153698757,-16.706071335417278 L14.558008861285032,-16.713127553275964 " />
			<path d="M73.89265863399422,25.573695252913478 L4.242640687119291,2.35702260395518 " />
			<path d="M18.384776310850228,-80.61017305523814 L27.223611075682086,-77.66389480029419 " />
			<path d="M27.223611075682083,-77.66389480029419 L28.63782463805518,-78.13529932108521 " />
			<path d="M27.223611075682083,-77.66389480029419 L27.223611075682083,-60.221927531026 " />
			<path d="M17.677669529662282,-111.01576464619508 L16.970562748475736,-109.8372533442175 " />
			<path d="M10.606601717798208,-111.95857368777573 L16.97056274847715,-109.83725334421608 " />
			<path d="M16.2634559672906,-109.60155108382057 L16.970562748477146,-109.83725334421608 " />
			<path d="M16.2634559672906,-101.11626970958201 L16.2634559672906,-109.60155108382057 " />
			<path d="M7.683121686017301,-113.65794597134732 L7.693001711594514,-113.7568278455111 L7.696809824205003,-113.85845420604136 L7.694522320281772,-113.96219248045627 L7.686153438375002,-114.06739695068258 L7.671755270524303,-114.17341277232276 L7.651417438012224,-114.27958005072881 L7.625266533517286,-114.38523794851126 L7.593465333138851,-114.4897287989163 L7.556211783198567,-114.59240219946741 L7.5137377681250515,-114.69261906039033 L7.466307667091085,-114.78975558262242 L7.4142167083875306,-114.88320714064498 L7.357789131777162,-114.9723920459701 L7.297376170266804,-115.05675516785595 L7.233353863860252,-115.13577138871388 L7.166120718900221,-115.20894887269856 " />
			<path d="M26.87005768508634,-107.95163526105443 L26.16295090389979,-106.77312395907686 " />
			<path d="M19.798989873223324,-108.89444430263403 L26.162950903902267,-106.77312395907438 " />
			<path d="M25.455844122715718,-106.53742169867887 L26.162950903902264,-106.77312395907438 " />
			<path d="M25.455844122715714,-98.0521403244403 L25.455844122715714,-106.53742169867887 " />
			<path d="M36.06244584054681,-104.88750587597166 L35.35533905936026,-103.70899457399408 " />
			<path d="M28.99137802864844,-105.8303149175866 L35.355339059327385,-103.70899457402696 " />
			<path d="M34.64823227814084,-103.47329231363145 L35.355339059327385,-103.70899457402696 " />
			<path d="M34.64823227814084,-94.98801093929858 L34.64823227814084,-103.47329231363145 " />
			<path d="M45.25483399597193,-101.82337649082996 L44.54772721478538,-100.64486518885238 " />
			<path d="M38.183766184073555,-102.76618553244491 L44.5477272147525,-100.64486518888526 " />
			<path d="M43.84062043356595,-100.40916292848975 L44.5477272147525,-100.64486518888526 " />
			<path d="M43.84062043356595,-91.92388155415688 L43.84062043356595,-100.40916292848974 " />
			<path d="M54.44722215139704,-98.75924710568823 L53.740115370210496,-97.58073580371065 " />
			<path d="M47.376154339498676,-99.7020561473032 L53.74011537017761,-97.58073580374355 " />
			<path d="M53.033008588991066,-97.34503354334802 L53.74011537017761,-97.58073580374354 " />
			<path d="M53.033008588991066,-88.85975216901517 L53.033008588991066,-97.34503354334802 " />
			<path d="M56.56854249492379,-96.16652224137044 L62.22539674441619,-94.28090415820631 " />
			<path d="M62.22539674441619,-94.28090415820631 L63.63961030678928,-94.75230867899734 " />
			<path d="M62.22539674441619,-94.28090415820631 L62.22539674441619,-76.36753236814711 " />
			<path d="M72.3833921645864,-92.0911891451576 L72.39327219016361,-92.19007101932137 L72.3970803027741,-92.29169737985164 L72.39479279885087,-92.39543565426654 L72.3864239169441,-92.50064012449285 L72.3720257490934,-92.60665594613305 L72.35168791658133,-92.7128232245391 L72.32553701208639,-92.81848112232153 L72.29373581170795,-92.92297197272659 L72.25648226176767,-93.02564537327768 L72.21400824669415,-93.1258622342006 L72.16657814566018,-93.22299875643269 L72.11448718695664,-93.31645031445527 L72.05805961034626,-93.40563521978036 L71.99764664883591,-93.48999834166624 L71.93362434242935,-93.56901456252415 L71.86639119746933,-93.64219204650884 " />
			<path d="M5.656854249492399,-60.71690227785658 L4.242640687119307,-61.188306798647616 " />
			<path d="M4.242640687119309,-59.01984600297116 L4.24264068711931,-60.24549775706555 " />
			<path d="M4.242640687119311,-59.01984600297116 L5.656854249435823,-58.54844148219899 " />
			<path d="M16.2634559672906,-109.60155108382057 L10.60660171779821,-111.4871691669847 " />
			<path d="M25.455844122715718,-106.53742169867887 L19.798989873223327,-108.423039781843 " />
			<path d="M34.64823227814084,-103.47329231363145 L28.99137802864844,-105.35891039679558 " />
			<path d="M43.84062043356595,-100.40916292848975 L38.183766184073555,-102.29478101165388 " />
			<path d="M53.033008588991066,-97.34503354334802 L47.376154339498676,-99.23065162651216 " />
			<path d="M83.4386001800126,-18.76189992748305 L83.4386001800126,-27.247181301721618 " />
			<path d="M80.25661966467315,-77.42819253992694 L80.25661966467315,-70.82852924885249 " />
			<path d="M19.798989873247375,-56.19141887825468 L9.192388155425139,-59.726952784195426 " />
			<path d="M19.798989873247375,-57.134227919799024 L19.798989873247375,-56.19141887825467 " />
			<path d="M9.192388155425144,-60.66976182573976 L19.798989873247383,-57.134227919799024 " />
			<path d="M9.192388155425144,-61.89541357983416 L9.192388155425144,-60.66976182573977 " />
			<path d="M9.192388155425146,-61.89541357983416 L19.79898987322334,-58.35987967390144 " />
			<path d="M19.798989873223334,-58.35987967390144 L19.798989873223334,-59.302688715483505 " />
			<path d="M19.798989873223334,-59.3026887154835 L9.19238815542514,-62.83822262141623 " />
			<path d="M9.121677477306491,-61.87184335379462 L7.707463914933393,-62.34324787458565 " />
			<path d="M18.384776310850246,-58.831284194692465 L19.798989873223334,-59.3026887154835 " />
			<path d="M8.69741340859456,-61.7304219975573 L5.727564927611057,-62.72037149121847 " />
			<path d="M5.727564927611057,-61.683281545478195 L7.70746391493339,-61.023315216370754 " />
			<path d="M12.138783733931268,-25.070902871923646 L12.057063264790099,-24.59410733470568 L11.965318533139516,-24.168617708118898 L11.864916789938466,-23.80077496771044 L11.757354299628537,-23.49606099053763 L11.644234041643838,-23.259016859995658 L11.52724182157149,-23.09317519108013 L11.408121147972762,-23.001007484625806 L11.288647249269804,-22.983887295089346 L11.170600617918497,-23.042069760778308 L11.05574047613261,-23.17468780158274 L10.945778558593544,-23.379765040873682 L10.84235360285601,-23.654245258996518 L10.747006927613382,-23.99403793942032 L10.661159462774265,-24.394079228779376 " />
			<path d="M10.661159462774258,-24.394079228779404 L10.65888060535868,-24.406223329232226 L10.65661042251745,-24.41841083722952 L10.654348941392982,-24.43064160705685 L10.652096189023657,-24.442915492482538 L10.649852192343493,-24.455232346759416 L10.647616978181818,-24.467592022626572 L10.645390573262965,-24.479994372311126 L10.643173004205936,-24.492439247529983 L10.640964297524096,-24.504926499491614 L10.63876447962485,-24.517455978897818 L10.636573576809326,-24.530027535945546 L10.634391615272065,-24.54264102032865 L10.632218621100705,-24.555296281239688 L10.63005462027567,-24.567993167371746 " />
			<path d="M13.788582233137728,-25.620835704992555 L13.788582233137728,-17.135554330753983 " />
			<path d="M5.727564927611054,-58.57201170825739 L7.566042558696093,-57.95918583122905 " />
			<path d="M5.727564927611056,-59.514820749801736 L4.242640687119305,-59.01984600297115 " />
			<path d="M7.707463914933389,-58.854854420694295 L5.727564927611058,-59.51482074980174 " />
			<path d="M5.7275649276110565,-59.51482074980175 L5.727564927611057,-60.74047250389614 " />
			<path d="M5.727564927611056,-60.740472503896136 L4.242640687119305,-60.24549775706555 " />
			<path d="M8.980256121069173,-59.65624210607677 L5.727564927611059,-60.74047250389614 " />
			<path d="M9.192388155425139,-61.89541357983416 L7.707463914933388,-61.40043883300358 " />
			<path d="M7.707463914933391,-61.40043883300358 L7.70746391493339,-60.17478707890918 " />
			<path d="M9.192388155425139,-60.66976182573976 L7.707463914933388,-60.174787078909176 " />
			<path d="M7.7074639149333946,-60.1747870789092 L9.121677477249921,-59.70338255813702 " />
			<path d="M18.384776310930864,-56.66282339902685 L19.798989873247375,-57.134227919799024 " />

       </g>
    </g>
    
</svg>
