<?xml version="1.0" encoding="UTF-8" standalone="no"?>
<svg
   xmlns:svg="http://www.w3.org/2000/svg"
   xmlns="http://www.w3.org/2000/svg"
   width="1024.0"
   height="320.0"

>
    <g transform="scale(6.69890634808308, -6.69890634808308)   translate(29.14851286891213,86.58129698528614)" stroke-width="0.8866666666666667"  fill="none">
       <!-- hidden lines -->
       <g  stroke="rgb(32,64,32)" fill="none" stroke-dasharray="0.8866666666666667,0.8866666666666667" >

       </g>

       <!-- solid lines -->
       <g  stroke="rgb(64,192,64)" fill="none">
			<path d="M0.707106781186555,-94.04520189781081 L0.7071067811865548,-91.21677477306463 " />
			<path d="M0.707106781186555,-91.21677477306463 L5.656854249492416,-89.56685895029601 " />
			<path d="M94.75230867899737,-125.39360253041441 L0.7071067811865532,-94.04520189781081 " />
			<path d="M99.70205614730324,-123.74368670764581 L94.75230867899738,-125.39360253041443 " />
			<path d="M99.70205614730324,-120.91525958289961 L5.656854249492419,-89.56685895029601 " />
			<path d="M99.70205614730322,-123.74368670764582 L99.70205614730322,-120.91525958289964 " />
			<path d="M94.75230867899737,-122.56517540566823 L0.7071067811865532,-91.21677477306463 " />
			<path d="M99.70205614730324,-120.91525958289961 L94.75230867899738,-122.56517540566823 " />
			<path d="M6.717514421272209,-91.5703281636579 L6.816369929536494,-91.53397141514645 L6.904058667946206,-91.49455988957443 L6.943447164492795,-91.47382614516124 L6.97973614601492,-91.45247314147763 L7.012838189177552,-91.43055231977976 L7.042673548259318,-91.40811648924718 L7.069170347266919,-91.38521969976074 L7.092264753090701,-91.36191711169187 L7.111901129284203,-91.33826486301626 L7.128032170097233,-91.3143199340727 L7.140619014439559,-91.2901400102923 L7.149631339500683,-91.26578334322942 L7.155047433800146,-91.24130861022834 L7.156854249492388,-91.21677477306463 " />
			<path d="M7.156854249492388,-91.21677477306463 L7.155047433800146,-91.19224093590091 L7.149631339500683,-91.16776620289984 L7.140619014439559,-91.14340953583695 L7.128032170097233,-91.11922961205656 L7.111901129284203,-91.095284683113 L7.092264753090701,-91.07163243443739 L7.069170347266919,-91.04832984636852 L7.042673548259318,-91.02543305688208 L7.012838189177552,-91.00299722634949 L6.97973614601492,-90.98107640465163 L6.943447164492795,-90.95972340096802 L6.904058667946206,-90.93898965655482 L6.816369929536493,-90.8995781309828 L6.717514421272209,-90.86322138247135 L6.608444175737856,-90.83026954638326 L6.490209599021791,-90.80103996691335 L6.363949354731385,-90.77581414089045 L6.230879398040022,-90.75483500680899 L6.092281265374081,-90.73830460519852 L5.9494897325165805,-90.72638213286301 L5.803879959986729,-90.71918240972853 L5.656854249492388,-90.71677477306463 L5.509828538998047,-90.71918240972853 L5.364218766468196,-90.72638213286301 L5.221427233610695,-90.73830460519852 L5.082829100944753,-90.75483500680899 L4.949759144253391,-90.77581414089045 L4.823498899962985,-90.80103996691335 L4.70526432324692,-90.83026954638326 L4.596194077712567,-90.86322138247135 L4.497338569448282,-90.8995781309828 L4.4096498310385694,-90.93898965655482 L4.37026133449198,-90.95972340096802 L4.333972352969855,-90.98107640465163 L4.300870309807223,-91.00299722634949 L4.271034950725458,-91.02543305688208 L4.244538151717856,-91.04832984636852 L4.221443745894074,-91.07163243443739 L4.201807369700572,-91.095284683113 L4.185676328887542,-91.11922961205656 L4.173089484545216,-91.14340953583695 L4.164077159484092,-91.16776620289984 L4.15866106518463,-91.19224093590093 L4.156854249492388,-91.21677477306463 " />
			<path d="M4.156854249492388,-91.21677477306463 L4.157870672609864,-91.2351783845353 L4.160918564474352,-91.25355705486446 L4.173089484545216,-91.2901400102923 L4.1933010544345946,-91.32632539314307 L4.221443745894074,-91.36191711169187 L4.25736505124028,-91.39672229133213 L4.300870309807222,-91.43055231977976 L4.35172376282932,-91.46322386917952 L4.4096498310385694,-91.49455988957443 L4.4743346080524775,-91.52439056835495 L4.545427561459949,-91.55255425048814 L4.622543432386787,-91.57889831454037 L4.705264323246919,-91.603279999746 L4.793141962365619,-91.62556717964043 L4.885700133202555,-91.64563907806476 L4.982437255010478,-91.66338692366239 L5.082829100944752,-91.67871453932027 L5.18633163889405,-91.69153886336115 L5.29238397963749,-91.7017903996619 L5.400411416351935,-91.7094135942591 L5.509828538998046,-91.71436713640072 L5.620042406708018,-91.71662418241273 L5.7304557609835145,-91.71617250116722 L5.840470262291211,-91.71301454036399 L5.949489732516579,-91.70716741326625 L6.056923385704735,-91.69866280596234 L6.162189029580717,-91.68754680565614 L6.264716220499872,-91.67387965091639 L6.363949354731384,-91.65773540523881 L6.459350679323033,-91.63920155568948 L6.550403206231037,-91.61837853880495 L6.636613513923053,-91.59537919631786 L6.717514421272199,-91.5703281636579 " />
			<path d="M95.81296885077718,-121.2688129734929 L95.91182435904147,-121.23245622498145 L95.99951309745119,-121.19304469940943 L96.03890159399778,-121.17231095499623 L96.0751905755199,-121.15095795131262 L96.10829261868253,-121.12903712961476 L96.1381279777643,-121.10660129908217 L96.1646247767719,-121.08370450959573 L96.18771918259569,-121.06040192152686 L96.20735555878917,-121.03674967285126 L96.22348659960221,-121.0128047439077 L96.23607344394453,-120.9886248201273 L96.24508576900566,-120.96426815306441 L96.25050186330512,-120.93979342006334 L96.25230867899737,-120.91525958289962 " />
			<path d="M96.25230867899737,-120.91525958289962 L96.25050186330512,-120.8907257457359 L96.24508576900566,-120.86625101273484 L96.23607344394453,-120.84189434567195 L96.22348659960221,-120.81771442189155 L96.20735555878919,-120.79376949294799 L96.18771918259569,-120.77011724427238 L96.1646247767719,-120.74681465620351 L96.1381279777643,-120.72391786671707 L96.10829261868253,-120.70148203618449 L96.0751905755199,-120.67956121448663 L96.03890159399778,-120.65820821080301 L95.99951309745119,-120.63747446638982 L95.91182435904147,-120.5980629408178 L95.81296885077718,-120.56170619230635 L95.70389860524284,-120.52875435621826 L95.58566402852676,-120.49952477674834 L95.45940378423636,-120.47429895072544 L95.326333827545,-120.45331981664398 L95.18773569487907,-120.43678941503352 L95.04494416202157,-120.424866942698 L94.89933438949171,-120.41766721956353 L94.75230867899737,-120.41525958289962 L94.60528296850302,-120.41766721956353 L94.45967319597317,-120.424866942698 L94.31688166311567,-120.43678941503352 L94.17828353044973,-120.45331981664398 L94.04521357375837,-120.47429895072544 L93.91895332946797,-120.49952477674834 L93.80071875275189,-120.52875435621826 L93.69164850721755,-120.56170619230635 L93.59279299895326,-120.5980629408178 L93.50510426054355,-120.63747446638982 L93.46571576399695,-120.65820821080301 L93.42942678247483,-120.67956121448663 L93.3963247393122,-120.70148203618449 L93.36648938023043,-120.72391786671707 L93.33999258122283,-120.74681465620351 L93.31689817539905,-120.77011724427238 L93.29726179920554,-120.79376949294799 L93.28113075839252,-120.81771442189155 L93.2685439140502,-120.84189434567195 L93.25953158898908,-120.86625101273484 L93.25411549468961,-120.89072574573592 L93.25230867899737,-120.91525958289962 " />
			<path d="M93.25230867899737,-120.91525958289962 L93.25332510211484,-120.9336631943703 L93.25637299397933,-120.95204186469945 L93.2685439140502,-120.9886248201273 L93.28875548393957,-121.02481020297806 L93.31689817539905,-121.06040192152686 L93.35281948074525,-121.09520710116712 L93.3963247393122,-121.12903712961476 L93.44717819233429,-121.16170867901451 L93.50510426054355,-121.19304469940943 L93.56978903755746,-121.22287537818994 L93.64088199096493,-121.25103906032314 L93.71799786189176,-121.27738312437536 L93.80071875275189,-121.30176480958099 L93.88859639187059,-121.32405198947542 L93.98115456270753,-121.34412388789976 L94.07789168451545,-121.36187173349738 L94.17828353044973,-121.37719934915526 L94.28178606839903,-121.39002367319614 L94.38783840914247,-121.4002752094969 L94.49586584585691,-121.4078984040941 L94.60528296850302,-121.41285194623572 L94.71549683621299,-121.41510899224772 L94.82591019048849,-121.4146573110022 L94.93592469179619,-121.41149935019898 L95.04494416202155,-121.40565222310124 L95.15237781520972,-121.39714761579734 L95.2576434590857,-121.38603161549113 L95.36017065000485,-121.37236446075138 L95.45940378423636,-121.3562202150738 L95.554805108828,-121.33768636552448 L95.64585763573602,-121.31686334863994 L95.73206794342804,-121.29386400615286 L95.81296885077718,-121.2688129734929 " />
			<path d="M94.75230867899737,-125.39360253041441 L94.75230867899737,-122.56517540566823 " />

       </g>
    </g>
    
</svg>
