<?xml version="1.0" encoding="UTF-8" standalone="no"?>
<svg
   xmlns:svg="http://www.w3.org/2000/svg"
   xmlns="http://www.w3.org/2000/svg"
   width="1024.0"
   height="320.0"

>
    <g transform="scale(1.6409891457028656, -1.6409891457028656)   translate(187.28508773927032,-14.544793651906648)" stroke-width="0.866666666666667"  fill="none">
       <!-- hidden lines -->
       <g  stroke="rgb(32,64,32)" fill="none" stroke-dasharray="0.866666666666667,0.866666666666667" >

       </g>

       <!-- solid lines -->
       <g  stroke="rgb(64,192,64)" fill="none">
			<path d="M5.656854249492386,-14.42497833620557 L5.656854249492379,1.8856180831641254 " />
			<path d="M5.656854249492383,1.8856180831641467 L-63.99316369738254,-21.33105456579415 " />
			<path d="M-63.99316369738254,-21.331054565794194 L-63.99316369738254,-37.64165098516389 " />
			<path d="M-63.99316369738254,-37.64165098516389 L-59.89508748602697,-37.73972719652008 " />
			<path d="M-63.99316369738254,-46.12693235940246 L-63.99316369738255,-115.61195872400053 " />
			<path d="M-63.99316369738253,-115.61195872400053 L-59.0434162290767,-113.96204290123192 " />
			<path d="M-63.99316369738255,-122.21162201507497 L-63.99316369738255,-143.89622997146245 " />
			<path d="M5.65685424949244,-120.67955732250408 L-63.99316369738253,-143.8962299714624 " />
			<path d="M5.656854249492429,-120.67955732250408 L5.6568542494924285,-117.8511301977579 " />
			<path d="M5.6568542494924285,-117.8511301977579 L5.656854249492426,-112.19427594826553 " />
			<path d="M5.656854249492426,-112.19427594826553 L5.656854249492422,-102.29478101165387 " />
			<path d="M0.7071067811865559,-100.64486518888526 L0.7071067811865576,-94.04520189781081 " />
			<path d="M0.707106781186555,-94.04520189781081 L5.656854249492417,-92.3952860750422 " />
			<path d="M5.656854249492418,-92.39528607504221 L5.656854249492417,-89.56685895029601 " />
			<path d="M5.656854249492417,-89.56685895029601 L5.656854249492415,-85.79562278393948 " />
			<path d="M5.656854249492412,-85.79562278393946 L2.8284271247461916,-86.73843182552154 " />
			<path d="M2.8284271247461836,-86.73843182552153 L2.8284271247461867,-69.29646455628166 " />
			<path d="M-7.778174593052016,-58.21845831769241 L-7.778174593052019,-70.47497585825923 " />
			<path d="M5.656854249492405,-53.740115370177605 L-7.778174593052018,-58.21845831769241 " />
			<path d="M5.656854249492402,-53.740115370177605 L5.6568542494924,-49.02122714855785 " />
			<path d="M1.5587780381393577,-47.6552017447735 L1.558778038139357,-39.16992037053493 " />
			<path d="M1.5587780381393568,-39.169920370534925 L5.656854249492728,-39.267996581891055 " />
			<path d="M5.656854249492397,-39.26799658189293 L5.6568542494923895,-22.910259710444137 " />
			<path d="M5.656854249492432,-22.91025971044412 L5.656854249492431,-14.42497833620555 " />
			<path d="M-49.143921292465045,-104.06254796459196 L-59.39696961966999,-107.48023074032693 " />
			<path d="M-59.396969619669996,-107.48023074032693 L-59.396969619669996,-89.0954544294767 " />
			<path d="M-59.39696961966999,-89.09545442947669 L-49.14392129246505,-85.6777716537417 " />
			<path d="M-49.14392129246506,-85.67777165374173 L-49.14392129246506,-104.06254796459197 " />
			<path d="M-33.587572106361,-98.87709823589061 L-43.84062043356593,-102.29478101162559 " />
			<path d="M-43.84062043356595,-102.29478101162559 L-43.84062043356595,-83.91000470077536 " />
			<path d="M-43.84062043356594,-83.91000470077535 L-33.587572106361,-80.49232192504036 " />
			<path d="M-33.587572106361,-80.49232192504039 L-33.587572106361,-98.87709823589063 " />
			<path d="M-18.03122292025696,-93.69164850718927 L-28.284271247461895,-97.10933128292424 " />
			<path d="M-28.2842712474619,-97.10933128292424 L-28.2842712474619,-78.724554972074 " />
			<path d="M-28.284271247461888,-78.724554972074 L-18.03122292025696,-75.30687219633901 " />
			<path d="M-18.03122292025696,-75.30687219633903 L-18.031222920256962,-93.69164850718927 " />
			<path d="M-2.474873734152915,-88.50619877848791 L-12.727922061357852,-91.92388155422289 " />
			<path d="M-12.72792206135786,-91.92388155422289 L-12.727922061357857,-73.53910524337266 " />
			<path d="M-12.727922061357845,-73.53910524337265 L-5.65685424953481,-71.18208263943164 " />
			<path d="M-2.4748737341529177,-71.06423150924803 L-2.4748737341529203,-88.50619877848791 " />
			<path d="M-52.32590180780453,-133.40747938376768 L-52.32590180780453,-134.35028842534976 " />
			<path d="M-52.32590180780452,-123.97938896794705 L-52.32590180780452,-133.40747938376768 " />
			<path d="M-45.25483399593903,-121.62236636399187 L-52.32590180780451,-123.97938896794703 " />
			<path d="M-45.254833995939045,-131.05045677981252 L-45.254833995939045,-121.62236636399189 " />
			<path d="M-45.25483399593905,-131.05045677981252 L-45.25483399593905,-131.9932658213946 " />
			<path d="M-52.3259018078045,-134.35028842534976 L-45.25483399593902,-131.9932658213946 " />
			<path d="M-61.51828996322962,-139.19161285396794 L-61.57501694292529,-139.2083294561232 L-61.6315534361349,-139.2206051425743 L-61.687709596016916,-139.22839869215295 L-61.743296852870905,-139.23168393449225 L-61.79812854734565,-139.23044983790544 L-61.85202055723225,-139.2247005464299 L-61.904791915737746,-139.2144553659115 L-61.95626541916294,-139.19974869917672 " />
			<path d="M-61.95626541916294,-139.19974869917672 L-61.99871873261549,-139.1838390593001 L-62.04001465108199,-139.16480238343308 L-62.08005368907777,-139.14268453259524 L-62.118739389053296,-139.11753879062653 L-62.155978553768854,-139.08942573582186 L-62.19168147081488,-139.0584130949927 L-62.225762128736996,-139.02457558030713 L-62.25813842424517,-138.98799470930192 L-62.288732360007685,-138.94875860849936 L-62.317470232553575,-138.906961801103 L-62.34428280983074,-138.8627049792828 L-62.36910549799201,-138.816094761599 L-62.391878497007404,-138.76724343614856 L-62.41254694472761,-138.71626869005334 L-62.43106104905172,-138.66329332594157 L-62.44737620788078,-138.60844496610545 L-62.46145311656814,-138.55185574504802 L-62.47325786260777,-138.49366199115943 L-62.48276200733248,-138.43400389828994 L-62.48994265442518,-138.37302518801073 L-62.494782505078064,-138.31087276337595 L-62.49726989966699,-138.24769635502048 L-62.49739884584052,-138.1836481604456 L-62.495169032956035,-138.11888247736206 L-62.49058583282808,-138.05355533197317 L-62.4836602867872,-137.98782410309417 L-62.47440907908042,-137.92184714301283 L-62.4628544966774,-137.85578339600482 L-62.44902437557923,-137.78979201542325 L-62.432952033759,-137.72403198028405 L-62.41467619089594,-137.6586617122718 L-62.39424087509626,-137.59383869408788 L-62.37169531682566,-137.52971909006095 L-62.347093830308765,-137.46645736993332 L-62.32049568268143,-137.40420593672982 L-62.291964951211014,-137.34311475960567 L-62.26157036892863,-137.28333101255745 L-62.229385159045236,-137.2249987198683 L-62.195486858550545,-137.16825840914058 L-62.15995713141958,-137.1132467727527 L-62.12288157187704,-137.06009633855516 L-62.0843494981933,-137.0089351505994 L-62.04445373750887,-136.95988646066837 L-62.0032904022057,-136.9130684313523 L-61.96095865836401,-136.86859385138453 L-61.91756048686255,-136.82656986392377 L-61.87320043769768,-136.78709770843668 L-61.82798537811334,-136.75027247680313 L-61.78202423514843,-136.71618288423167 L-61.73542773322207,-136.68491105553673 L-61.68830812738878,-136.65653232729267 L-61.640778932906194,-136.63111506634155 L-61.592954651766895,-136.60872050509127 L-61.54495049685305,-136.58940259400143 L-61.49688211437852,-136.57320787161188 L-61.448865305286986,-136.56017535242734 L-61.40101574627731,-136.55033643292805 L-61.35344871112828,-136.5437148159329 L-61.30627879299396,-136.54032645349716 L-61.25961962833871,-136.54017950848277 L-61.213583623177065,-136.5432743348931 L-61.16828168227773,-136.5496034770203 L-61.12382294198431,-136.55915168740657 L-61.08031450729631,-136.57189596357682 " />
			<path d="M-61.0803145072963,-136.57189596357682 L-61.04405623667767,-136.58525989981985 L-61.00862814639878,-136.60090056439498 L-60.97409225588671,-136.6187905771909 L-60.940509022708504,-136.63889862044996 L-60.90793723673584,-136.66118949359227 L-60.87643391722912,-136.68562417483682 L-60.84605421302114,-136.71215988951184 L-60.81685130597507,-136.74075018493505 L-60.7888763178858,-136.77134501173242 L-60.76217822098751,-136.80389081145316 L-60.73680375222427,-136.8383306103277 L-60.71279733143364,-136.8746041190043 L-60.690200983586536,-136.91264783809 L-60.6690542652195,-136.95239516931088 L-60.64939419518813,-136.9937765320971 L-60.63125518986287,-137.03671948538866 L-60.59966466955819,-137.12698686246284 L-60.574503813432536,-137.22256549894377 L-60.55594872795333,-137.32278641854748 L-60.5441292843197,-137.42694815261078 L-60.5391282094649,-137.53432164982738 L-60.54098050703195,-137.64415537904128 L-60.54967321237531,-137.75568058938185 L-60.56514548330333,-137.86811669092307 L-60.5872890259264,-137.9806767182074 L-60.61594885263012,-138.09257283839338 L-60.650924366868296,-138.20302186547391 L-60.69197076718318,-138.31125074197067 L-60.7388007606256,-138.41650194973658 L-60.79108657358274,-138.5180388119949 L-60.84846224593902,-138.61515064950504 L-60.91052619251294,-138.70715775476563 L-60.97684401384168,-138.79341614943976 L-61.046951536640265,-138.8733220917034 L-61.120358062654326,-138.94631630196977 L-61.19654980316711,-139.01188787741236 L-61.274993475121754,-139.0695778678883 L-61.355140033688876,-139.11898248823317 L-61.39567695296295,-139.14046738966783 L-61.43642851515427,-139.1597559444438 L-61.477323381714235,-139.1768143865549 L-61.51828996322961,-139.19161285396794 " />
			<path d="M-43.133513652379406,-130.343349998626 L-43.133513652379406,-131.28615904020805 " />
			<path d="M-43.1335136523794,-120.91525958280536 L-43.1335136523794,-130.343349998626 " />
			<path d="M-36.06244584051391,-118.55823697885018 L-43.133513652379385,-120.91525958280532 " />
			<path d="M-36.062445840513924,-127.98632739467082 L-36.062445840513924,-118.5582369788502 " />
			<path d="M-36.06244584051393,-127.98632739467084 L-36.06244584051393,-128.9291364362529 " />
			<path d="M-43.13351365237939,-131.28615904020805 L-36.06244584051392,-128.9291364362529 " />
			<path d="M-33.941125496954285,-127.27922061348428 L-33.941125496954285,-128.22202965506634 " />
			<path d="M-33.94112549695428,-117.85113019766365 L-33.94112549695428,-127.27922061348428 " />
			<path d="M-26.870057685088803,-115.49410759370846 L-33.94112549695428,-117.85113019766362 " />
			<path d="M-26.87005768508881,-124.92219800952911 L-26.870057685088806,-115.49410759370849 " />
			<path d="M-26.870057685088813,-124.92219800952913 L-26.870057685088813,-125.86500705111118 " />
			<path d="M-33.94112549695427,-128.22202965506634 L-26.870057685088796,-125.86500705111118 " />
			<path d="M-24.74873734152917,-124.21509122834257 L-24.74873734152917,-125.15790026992462 " />
			<path d="M-24.748737341529164,-114.78700081252194 L-24.748737341529168,-124.21509122834257 " />
			<path d="M-17.677669529663675,-112.42997820856677 L-24.74873734152915,-114.78700081252192 " />
			<path d="M-17.677669529663692,-121.85806862438741 L-17.67766952966369,-112.42997820856678 " />
			<path d="M-17.677669529663696,-121.85806862438741 L-17.677669529663696,-122.80087766596948 " />
			<path d="M-24.74873734152915,-125.15790026992462 L-17.677669529663675,-122.80087766596947 " />
			<path d="M-15.556349186104054,-121.15096184320086 L-15.556349186104054,-122.09377088478293 " />
			<path d="M-15.556349186104047,-111.72287142738023 L-15.556349186104049,-121.15096184320086 " />
			<path d="M-8.48528137423856,-109.36584882342505 L-15.556349186104036,-111.72287142738021 " />
			<path d="M-8.485281374238575,-118.7939392392457 L-8.485281374238573,-109.36584882342507 " />
			<path d="M-8.48528137423858,-118.7939392392457 L-8.48528137423858,-119.73674828082777 " />
			<path d="M-15.556349186104033,-122.09377088478293 L-8.485281374238557,-119.73674828082777 " />
			<path d="M-6.3639610306789365,-118.08683245805916 L-6.3639610306789365,-119.02964149964123 " />
			<path d="M-6.36396103067893,-108.65874204223852 L-6.363961030678932,-118.08683245805915 " />
			<path d="M0.7071067811865532,-106.30171943828336 L-6.363961030678915,-108.65874204223852 " />
			<path d="M0.7071067811865411,-115.72980985410399 L0.7071067811865427,-106.30171943828336 " />
			<path d="M0.707106781186536,-115.72980985410399 L0.7071067811865358,-116.67261889568607 " />
			<path d="M-6.363961030678917,-119.02964149964122 L0.7071067811865586,-116.67261889568606 " />
			<path d="M3.181980515339473,-117.62485602777822 L3.1252535356438025,-117.64157262993349 L3.06871704243419,-117.6538483163846 L3.0125608825521804,-117.66164186596326 L2.956973625698186,-117.66492710830255 L2.9021419312234444,-117.66369301171574 L2.848249921336845,-117.65794372024018 L2.7954785628313497,-117.6476985397218 L2.744005059406157,-117.63299187298703 " />
			<path d="M2.744005059406153,-117.63299187298703 L2.701551745953607,-117.61708223311041 L2.6602558274871018,-117.59804555724338 L2.6202167894913186,-117.57592770640554 L2.581531089515795,-117.55078196443682 L2.5442919248002385,-117.52266890963216 L2.508589007754215,-117.49165626880298 L2.474508349832094,-117.45781875411743 L2.442132054323923,-117.4212378831122 L2.4115381185614106,-117.38200178230964 L2.3828002460155204,-117.34020497491329 L2.355987668738356,-117.29594815309311 L2.331164980577082,-117.2493379354093 L2.30839198156169,-117.20048660995884 L2.287723533841487,-117.14951186386364 L2.2692094295173737,-117.09653649975185 L2.2528942706883104,-117.04168813991575 L2.2388173620009555,-116.98509891885833 L2.227012615961329,-116.92690516496972 L2.217508471236613,-116.86724707210024 L2.210327824143915,-116.80626836182103 L2.2054879734910307,-116.74411593718625 L2.2030005789021043,-116.68093952883076 L2.2028716327285713,-116.61689133425591 L2.205101445613057,-116.55212565117236 L2.2096846457410146,-116.48679850578347 L2.2166101917818946,-116.42106727690448 L2.225861399488679,-116.35509031682311 L2.237415981891692,-116.28902656981512 L2.251246102989862,-116.22303518923353 L2.2673184448100887,-116.15727515409434 L2.2855942876731556,-116.09190488608209 L2.306029603472832,-116.02708186789819 L2.3285751617434327,-115.96296226387126 L2.3531766482603276,-115.89970054374362 L2.3797747958876605,-115.83744911054013 L2.408305527358076,-115.77635793341597 L2.438700109640464,-115.71657418636775 L2.470885319523855,-115.65824189367859 L2.504783620018549,-115.60150158295087 L2.5403133471495134,-115.54648994656299 L2.5773889066920534,-115.49333951236545 L2.6159209803757957,-115.4421783244097 L2.6558167410602254,-115.39312963447867 L2.6969800763633964,-115.34631160516257 L2.739311820205083,-115.30183702519483 L2.7827099917065463,-115.25981303773406 L2.8270700408714085,-115.22034088224696 L2.8722851004557515,-115.18351565061343 L2.918246243420664,-115.14942605804198 L2.9648427453470223,-115.11815422934703 L3.011962351180314,-115.08977550110298 L3.0594915456628984,-115.06435824015185 L3.1073158268022,-115.04196367890157 L3.155319981716042,-115.02264576781172 L3.20338836419057,-115.00645104542217 L3.2514051732821097,-114.99341852623763 L3.299254732291783,-114.98357960673836 L3.3468217674408107,-114.97695798974318 L3.3939916855751378,-114.97356962730746 L3.4406508502303828,-114.97342268229306 L3.48668685539203,-114.9765175087034 L3.5319887962913663,-114.9828466508306 L3.5764475365847845,-114.99239486121688 L3.6199559712727853,-115.0051391373871 " />
			<path d="M3.6199559712727933,-115.0051391373871 L3.6562142418914214,-115.01850307363014 L3.6916423321703125,-115.03414373820529 L3.7261782226823845,-115.0520337510012 L3.7597614558605903,-115.07214179426026 L3.792333241833253,-115.09443266740259 L3.8238365613399727,-115.11886734864711 L3.8542162655479553,-115.14540306332212 L3.883419172594021,-115.17399335874535 L3.911394160683292,-115.20458818554272 L3.9380922575815824,-115.23713398526347 L3.963466726344823,-115.27157378413798 L3.9874731471354545,-115.30784729281459 L4.010069494982556,-115.3458910119003 L4.031216213349589,-115.38563834312119 L4.0508762833809655,-115.42701970590738 L4.069015288706224,-115.46996265919894 L4.100605809010909,-115.56023003627315 L4.1257666651365605,-115.65580867275406 L4.144321750615767,-115.75602959235779 L4.156141194249392,-115.86019132642107 L4.161142269104191,-115.96756482363766 L4.1592899715371425,-116.07739855285159 L4.1505972661937856,-116.18892376319215 L4.135124995265761,-116.30135986473336 L4.112981452642689,-116.41391989201772 L4.084321625938977,-116.52581601220368 L4.049346111700795,-116.6362650392842 L4.008299711385917,-116.74449391578096 L3.961469717943495,-116.84974512354688 L3.909183904986355,-116.95128198580521 L3.851808232630072,-117.04839382331532 L3.789744286056155,-117.14040092857593 L3.7234264647274147,-117.22665932325005 L3.653318941928831,-117.3065652655137 L3.5799124159147673,-117.37955947578006 L3.5037206754019845,-117.44513105122266 L3.425277003447338,-117.50282104169861 L3.3451304448802195,-117.55222566204347 L3.30459352560614,-117.57371056347812 L3.263841963414824,-117.59299911825408 L3.2229470968548606,-117.61005756036518 L3.181980515339477,-117.62485602777822 " />
			<path d="M5.6568542494923975,-53.7401153701776 L9.192388155425135,-54.918626672155185 " />
			<path d="M9.192388155425144,-59.72695278419542 L9.192388155425142,-54.918626672155185 " />
			<path d="M5.65685424949238,1.885618083164129 L4.242640687119284,2.3570226039551603 " />
			<path d="M1.5587780381393568,-39.169920370534925 L9.690506021784651,-41.88049636508336 " />
			<path d="M9.690506021784653,-41.88049636508336 L13.788582233138024,-41.97857257643949 " />
			<path d="M5.656854249492373,-39.26799658189294 L13.788582233137667,-41.97857257644137 " />
			<path d="M9.831641670029374,-41.443033166675626 L9.86515391402933,-41.4436376714084 " />
			<path d="M7.907744912312308,-40.79116800416939 L7.817200816545226,-40.789365216508024 L7.736389315994751,-40.79063914528786 L7.666070247558381,-40.79497781228693 L7.606904792162492,-40.80234042282565 L7.559449257953336,-40.812657749342215 L7.524149849563137,-40.82583278231053 L7.511166970690801,-40.83345424585217 L7.501338472633692,-40.84174164238041 L7.494687472303617,-40.85067547969883 L7.4912296130457925,-40.86023474516356 " />
			<path d="M7.4912296130457925,-40.86023474516356 L7.492188860473249,-40.876206394218954 L7.500805730356339,-40.893531413829436 L7.517031708427604,-40.912112261540905 L7.540775440001344,-40.931844324399044 L7.571903244314169,-40.9526165079359 L7.6102398671677145,-40.97431186164842 L7.6555694676360115,-40.996808237447205 L7.707636833282214,-41.01997897736863 L7.830775987689565,-41.067818668349716 L7.976888066229841,-41.116755072553346 L8.142687168943917,-41.16568766406697 L8.324444656349868,-41.21351600272123 L8.518073002444337,-41.25916448177915 L8.719217718667077,-41.3016065171488 L8.92335528155981,-41.33988763413047 L9.125894861834043,-41.37314693250305 L9.322281567072988,-41.40063644722314 L9.508098876252753,-41.42173796933639 L9.67916796244309,-41.435976948816936 L9.831641670029365,-41.443033166675626 " />
			<path d="M9.899942940218661,-41.444667770197924 L9.983126532429392,-41.44536339427874 L10.05722706378112,-41.44326241786384 L10.121611082170778,-41.4383828012553 L10.17572819759294,-41.430766258100064 L10.219115787176342,-41.420477898798715 L10.251402949938665,-41.40760567390597 L10.263293841727435,-41.40023416064581 L10.272313677452159,-41.392259622280925 L10.278443170173267,-41.383699110611836 L10.281669213315507,-41.37457093041441 " />
			<path d="M10.281669213315507,-41.37457093041441 L10.280637044020281,-41.358348585931985 L10.271715792127361,-41.340733343202324 L10.254957206591579,-41.3218273818759 L10.230458497904943,-41.30174036859484 L10.198361774213758,-41.28058882085641 L10.158853217000663,-41.25849543113712 L10.112162001113216,-41.23558835519811 L10.058558965403499,-41.21200046869992 L9.93189945115427,-41.16333271867573 L9.78180923657355,-41.11361975956741 L9.611765747664474,-41.06401338622833 L9.425708705958185,-41.01566292403625 L9.227948849477833,-40.96968860028219 L9.023068057656555,-40.9271555897302 L8.815813194205706,-40.8890493356838 L8.610986127477958,-40.85625271834324 L8.413332476433052,-40.82952559943751 L8.22743165984042,-40.80948721705971 L8.057590796158316,-40.79660183859821 L7.90774491231314,-40.791168004169336 " />
			<path d="M9.865153914028705,-41.443637671407856 L9.899942940218653,-41.444667770197924 " />
			<path d="M1.5587780381393577,-47.6552017447735 L6.307343078197525,-49.23805675812622 " />
			<path d="M8.26568585769376,-49.75732064284488 L8.251310880580974,-48.891279584490455 L8.208607946417839,-48.04107903151428 L8.13883065842402,-47.23167778760169 L8.04402742462117,-46.48683693674486 L7.926981324005098,-45.828422304022666 L7.791128405443558,-45.27576255430614 L7.640456817747532,-44.84508177278281 L7.479389732091279,-44.549023184676955 L7.312655493754026,-44.39627799602697 L7.14514881505713,-44.391330251408036 L6.981787084368483,-44.534325198651636 L6.827366009420425,-44.821065024896114 L6.6864188327296965,-45.243132089142634 L6.5630832520438585,-45.78813603365531 " />
			<path d="M6.563083252043852,-45.78813603365534 L6.528037649100718,-45.98541651058671 L6.495263941375437,-46.19301963194303 L6.46486031943613,-46.410323415353524 L6.4369178730348695,-46.63667681510413 L6.4115203182012825,-46.871401672681216 L6.388743746427946,-47.11379474854558 L6.3686563966990155,-47.36312982904975 L6.351318451045116,-47.61865990218603 L6.336781854236983,-47.87961939564678 L6.325090158158065,-48.145226470491615 L6.316278391322375,-48.4146853635498 L6.310372953928485,-48.68718877153977 L6.307391538764084,-48.96192026976313 L6.3073430781981115,-49.23805675812637 " />
			<path d="M8.265342853302677,-49.89072334982793 L8.265390101529178,-49.88120416180014 L8.265433850564644,-49.87168336425359 L8.26547410025271,-49.86216099121638 L8.26551085044952,-49.8526370767222 L8.265544101023728,-49.843111654810265 L8.265573851856495,-49.83358475952517 L8.265600102841486,-49.8240564249168 L8.265622853884878,-49.81452668504016 L8.26564210490536,-49.80499557395529 L8.265657855834121,-49.79546312572712 L8.265670106614877,-49.78592937442537 L8.26567885720383,-49.776394354124406 L8.265684107569715,-49.76685809890314 L8.26568585769376,-49.757320642844924 " />
			<path d="M8.26534285330326,-49.890723349828136 L9.690506021784653,-50.365777739321935 " />
			<path d="M9.690506021784653,-50.365777739321935 L9.690506021784653,-41.88049636508337 " />
			<path d="M13.788582233137669,-50.46385395067994 L9.690506021784298,-50.36577773932381 " />
			<path d="M8.265112999007847,-49.58459154502949 L8.161920616669395,-49.551959449312236 L8.050450761959715,-49.51946127601954 L7.931812021495357,-49.48742022499828 L7.807184277677942,-49.45615494993681 L7.677806974563505,-49.425976389299926 L7.544966791381074,-49.397184673993124 L7.409984846289454,-49.3700661425098 L7.274203557632996,-49.34489049324636 L7.138973293363416,-49.32190810230591 L7.005638941401419,-49.30134753346545 L6.875526534498161,-49.2834132650703 L6.749930062614565,-49.2682836564623 L6.630098603971634,-49.25610917416588 L6.517223902755624,-49.247010895472926 L6.41242851701993,-49.241079304308634 L6.316754654654802,-49.23837339135345 " />
			<path d="M6.316754654654928,-49.238373391353555 L6.307343078197445,-49.238056758129744 " />
			<path d="M9.192388155425142,-54.918626672155185 L-4.24264068711928,-59.39696961966999 " />
			<path d="M-7.778174593052016,-58.21845831769241 L-4.2426406871192786,-59.39696961966999 " />
			<path d="M-4.2426406871192786,-59.39696961966999 L-4.242640687119281,-71.6534871602368 " />
			<path d="M-7.778174593052016,-70.47497585825924 L-4.2426406871192786,-71.65348716023682 " />
			<path d="M-4.2426406871192786,-71.65348716023682 L9.192388155425144,-67.17514421272202 " />
			<path d="M7.77817459305205,-62.366818100625196 L9.192388155425146,-62.83822262141623 " />
			<path d="M9.192388155425146,-67.175144212722 L9.192388155425144,-62.83822262141622 " />
			<path d="M2.8284271247461836,-85.79562278393949 L4.24264068711932,-85.32421826314845 " />
			<path d="M5.656854249492415,-85.79562278393949 L4.242640687119319,-85.32421826314845 " />
			<path d="M10.606601717798245,-94.0452018978108 L5.656854249492412,-92.39528607504218 " />
			<path d="M10.60660171779825,-100.64486518888526 L10.606601717798249,-94.04520189781081 " />
			<path d="M0.707106781186555,-94.04520189781081 L5.656854249492387,-95.69511772057942 " />
			<path d="M5.656854249492387,-95.69511772057942 L10.606601717798249,-94.0452018978108 " />
			<path d="M4.677511357549019,-93.71875426716302 L4.586234771584997,-93.75232366495527 L4.505268836453363,-93.78871364023342 L4.435393298369916,-93.82757373764281 L4.404829078516419,-93.8478139630105 L4.377281096964255,-93.86852971320226 L4.352815719213904,-93.8896710821614 L4.331491884503278,-93.91118713847834 L4.313360963817944,-93.9330260480888 L4.298466636133913,-93.9551351991467 L4.286844783191166,-93.97746132877059 L4.278523403051395,-93.99995065135866 L4.273522542648224,-94.02254898816298 L4.271854249492388,-94.04520189781081 " />
			<path d="M4.271854249492388,-94.04520189781081 L4.273522542648224,-94.06785480745864 L4.278523403051395,-94.09045314426297 L4.286844783191166,-94.11294246685104 L4.298466636133913,-94.13526859647493 L4.313360963817944,-94.15737774753282 L4.331491884503278,-94.17921665714329 L4.352815719213904,-94.20073271346023 L4.377281096964255,-94.22187408241936 L4.404829078516419,-94.24258983261113 L4.435393298369916,-94.26283005797882 L4.505268836453363,-94.3016901553882 L4.586234771584997,-94.33808013066636 L4.677511357549019,-94.3716495284586 L4.778219550925739,-94.40207505711328 L4.887389476760239,-94.42906370215715 L5.00396976898838,-94.45235554818497 L5.126837695666738,-94.47172628198686 L5.254809971494956,-94.48698935280719 L5.386654153500049,-94.4979977689303 L5.5211005101359465,-94.50464551329114 L5.656854249492388,-94.50686856447749 L5.792607988848828,-94.50464551329114 L5.927054345484725,-94.4979977689303 L6.058898527489819,-94.48698935280719 L6.186870803318037,-94.47172628198686 L6.309738729996394,-94.45235554818497 L6.426319022224536,-94.42906370215715 L6.535488948059036,-94.40207505711328 L6.636197141435756,-94.3716495284586 L6.7274737273997784,-94.33808013066636 L6.808439662531413,-94.3016901553882 L6.878315200614859,-94.26283005797882 L6.908879420468356,-94.24258983261113 L6.936427402020519,-94.22187408241936 L6.960892779770871,-94.20073271346023 L6.982216614481496,-94.17921665714329 L7.0003475351668305,-94.15737774753282 L7.0152418628508615,-94.13526859647493 L7.02686371579361,-94.11294246685104 L7.035185095933381,-94.09045314426297 L7.040185956336551,-94.06785480745864 L7.0418542494923875,-94.04520189781081 " />
			<path d="M7.0418542494923875,-94.04520189781081 L7.038101531992374,-94.01123959094896 L7.02686371579361,-93.97746132877059 L7.00820169959575,-93.94405015860505 L6.982216614481497,-93.91118713847834 L6.949049275878501,-93.87905035594383 L6.908879420468357,-93.8478139630105 L6.861924732177953,-93.81764723239806 L6.808439662531413,-93.78871364023342 L6.748714051755237,-93.76116998015942 L6.683071558109006,-93.73516551365644 L6.611867903953225,-93.71084116118155 L6.535488948059037,-93.68832873850835 L6.454348594606103,-93.66775024240583 L6.368886550199999,-93.64921718952735 L6.279565941064018,-93.63283001209221 L6.186870803318037,-93.61867751363476 L6.091303459944852,-93.60683638777036 L5.993381798658408,-93.597370802586 L5.893636465425404,-93.59033205290793 L5.792607988848829,-93.58575828233049 L5.690843850996621,-93.58367427651274 L5.588895520548913,-93.58409132886275 L5.4873154643414725,-93.58700717933775 L5.386654153500049,-93.59240602669132 L5.287457080389652,-93.60025861410192 L5.190261802544162,-93.61052238771798 L5.095595029595476,-93.62314172726101 L5.00396976898838,-93.63804824743666 L4.915882545948757,-93.65516116852054 L4.831810712770366,-93.67438775411058 L4.752209862001406,-93.69562381367365 L4.677511357549023,-93.71875426716302 " />
			<path d="M0.7071067811865559,-100.64486518888526 L5.656854249492388,-102.29478101165387 " />
			<path d="M5.656854249492388,-102.29478101165387 L5.6568542494923895,-95.69511772057942 " />
			<path d="M10.606601717798252,-100.64486518888525 L5.656854249492387,-102.29478101165387 " />
			<path d="M-63.99316369738253,-143.89622997146245 L-65.40737725975562,-143.42482545067142 " />
			<path d="M-65.40737725975562,-143.4248254506714 L-65.4073772597556,-20.85965004500315 " />
			<path d="M-65.40737725975563,-20.85965004500316 L-63.99316369738254,-21.331054565794194 " />
			<path d="M-54.09366876077087,-122.21162201507497 L-59.0434162290767,-123.86153783784357 " />
			<path d="M-63.99316369738253,-122.21162201507498 L-59.0434162290767,-123.8615378378436 " />
			<path d="M-59.0434162290767,-113.96204290123191 L-54.09366876077087,-115.61195872400052 " />
			<path d="M-54.09366876077087,-115.61195872400052 L-54.09366876077087,-122.21162201507497 " />
			<path d="M-63.99316369738253,-115.61195872400053 L-59.0434162290767,-117.26187454676915 " />
			<path d="M-59.0434162290767,-117.26187454676914 L-54.09366876077087,-115.61195872400053 " />
			<path d="M-60.02275912102007,-115.28551109335274 L-60.1140357069841,-115.31908049114499 L-60.19500164211573,-115.35547046642314 L-60.26487718019918,-115.39433056383253 L-60.295441400052674,-115.41457078920021 L-60.322989381604835,-115.43528653939198 L-60.34745475935519,-115.45642790835112 L-60.368778594065816,-115.47794396466806 L-60.386909514751146,-115.49978287427852 L-60.40180384243518,-115.52189202533641 L-60.413425695377924,-115.5442181549603 L-60.4217470755177,-115.56670747754838 L-60.42674793592087,-115.5893058143527 L-60.4284162290767,-115.61195872400053 " />
			<path d="M-60.4284162290767,-115.61195872400053 L-60.42674793592087,-115.63461163364836 L-60.4217470755177,-115.65720997045268 L-60.413425695377924,-115.67969929304076 L-60.40180384243518,-115.70202542266465 L-60.386909514751146,-115.72413457372254 L-60.368778594065816,-115.745973483333 L-60.34745475935519,-115.76748953964994 L-60.322989381604835,-115.78863090860908 L-60.295441400052674,-115.80934665880085 L-60.26487718019918,-115.82958688416853 L-60.19500164211573,-115.86844698157792 L-60.1140357069841,-115.90483695685607 L-60.02275912102007,-115.93840635464832 L-59.922050927643355,-115.968831883303 L-59.812881001808854,-115.99582052834687 L-59.69630070958071,-116.01911237437469 L-59.57343278290236,-116.03848310817658 L-59.44546050707414,-116.0537461789969 L-59.31361632506904,-116.06475459512002 L-59.17916996843314,-116.07140233948085 L-59.043416229076705,-116.0736253906672 L-58.907662489720266,-116.07140233948085 L-58.77321613308437,-116.06475459512002 L-58.64137195107927,-116.0537461789969 L-58.51339967525106,-116.03848310817658 L-58.3905317485727,-116.01911237437469 L-58.273951456344555,-115.99582052834687 L-58.164781530510055,-115.968831883303 L-58.06407333713334,-115.93840635464832 L-57.97279675116931,-115.90483695685607 L-57.89183081603768,-115.86844698157792 L-57.82195527795423,-115.82958688416853 L-57.791391058100736,-115.80934665880085 L-57.763843076548575,-115.78863090860908 L-57.73937769879822,-115.76748953964994 L-57.718053864087594,-115.745973483333 L-57.699922943402264,-115.72413457372254 L-57.68502861571823,-115.70202542266465 L-57.673406762775485,-115.67969929304076 L-57.66508538263571,-115.65720997045268 L-57.66008452223254,-115.63461163364836 L-57.65841622907671,-115.61195872400053 " />
			<path d="M-57.65841622907671,-115.61195872400053 L-57.66216894657672,-115.57799641713868 L-57.673406762775485,-115.5442181549603 L-57.69206877897334,-115.51080698479477 L-57.718053864087594,-115.47794396466806 L-57.751221202690594,-115.44580718213355 L-57.791391058100736,-115.41457078920021 L-57.83834574639114,-115.38440405858778 L-57.89183081603768,-115.35547046642314 L-57.95155642681385,-115.32792680634914 L-58.01719892046009,-115.30192233984616 L-58.08840257461587,-115.27759798737127 L-58.164781530510055,-115.25508556469806 L-58.24592188396299,-115.23450706859555 L-58.33138392836909,-115.21597401571707 L-58.420704537505074,-115.19958683828193 L-58.51339967525106,-115.18543433982448 L-58.60896701862424,-115.17359321396007 L-58.70688867991068,-115.16412762877572 L-58.806634013143686,-115.15708887909764 L-58.907662489720266,-115.1525151085202 L-59.00942662757247,-115.15043110270246 L-59.11137495802018,-115.15084815505247 L-59.21295501422762,-115.15376400552746 L-59.31361632506904,-115.15916285288104 L-59.41281339817944,-115.16701544029164 L-59.51000867602493,-115.1772792139077 L-59.604675448973616,-115.18989855345073 L-59.69630070958071,-115.20480507362637 L-59.784387932620334,-115.22191799471025 L-59.868459765798725,-115.2411445803003 L-59.94806061656769,-115.26238063986337 L-60.02275912102007,-115.28551109335274 " />
			<path d="M-51.763359502379984,-48.93558456529806 L-55.86143571373555,-48.83750835394187 " />
			<path d="M-57.53791779425735,-48.27868099377752 L-55.86143571373725,-48.837508353950895 " />
			<path d="M-57.620386914665396,-47.83223261331594 L-57.75551307545875,-47.809279283606024 L-57.888739311707276,-47.788745379638456 L-58.01874257496686,-47.770834820329355 L-58.144231823622675,-47.755725472578625 L-58.26396084401694,-47.7435673849022 L-58.376740626397485,-47.734481297324244 L-58.48145117278336,-47.72855744232728 L-58.57705261948571,-47.72585464876782 " />
			<path d="M-58.577052619487446,-47.725854648765136 L-58.666853212148574,-47.72405427013031 L-58.74709579000032,-47.72527756834903 L-58.81703886665843,-47.72951323946025 L-58.87603612890111,-47.736722143489416 L-58.92354240896541,-47.746837666123675 L-58.9591187222028,-47.75976633426554 L-58.972326012028844,-47.76724925095387 L-58.98243632354335,-47.77538867977665 L-58.98942628700569,-47.784165806640964 L-58.993279745284354,-47.79356034343029 " />
			<path d="M-63.99316369738254,-46.12693235940246 L-58.99327974528566,-47.793560343434756 " />
			<path d="M-59.895087486025275,-37.73972719651106 L-51.763359502379984,-40.4503031910595 " />
			<path d="M-51.763359502379984,-40.45030319105949 L-51.763359502379984,-48.93558456529806 " />
			<path d="M-63.99316369738254,-37.64165098516389 L-55.86143571373725,-40.35222697971233 " />
			<path d="M-55.86143571373725,-40.35222697971232 L-51.76335950238168,-40.45030319106851 " />
			<path d="M-54.99386433389475,-39.93214902761261 L-54.91068074168402,-39.93284465169343 L-54.836580210332286,-39.93074367527853 L-54.77219619194263,-39.92586405866999 L-54.71807907652047,-39.91824751551475 L-54.67469148693707,-39.9079591562134 L-54.64240432417475,-39.895086931320655 L-54.630513432385975,-39.887715418060495 L-54.62149359666125,-39.87974087969561 L-54.615364103940145,-39.87118036802652 L-54.6121380607979,-39.86205218782909 " />
			<path d="M-54.6121380607979,-39.86205218782909 L-54.613170230093274,-39.84582984334619 L-54.622091481986786,-39.82821460061596 L-54.638850067523606,-39.80930863928891 L-54.66334877621171,-39.78922162600716 L-54.695445499904785,-39.76807007826799 L-54.73495405712016,-39.745976688547934 L-54.78164527301026,-39.72306961260813 L-54.83524830872297,-39.69948172610913 L-54.96190782297904,-39.65081397608335 L-55.11199803756749,-39.60110101697353 L-55.28204152648479,-39.551494643633156 L-55.468098568199395,-39.50314418144008 L-55.6658584246877,-39.45716985768542 L-55.870739216516135,-39.41463684713328 L-56.0779940799729,-39.37653059308727 L-56.282821146704926,-39.343733975747654 L-56.48047479775208,-39.31700685684345 L-56.666375614344624,-39.29696847446777 L-56.83621647802407,-39.28408309600894 L-56.986062361863844,-39.27864926158326 " />
			<path d="M-55.028653360153214,-39.93111892882014 L-54.993864333894756,-39.93214902761261 " />
			<path d="M-55.06216560407768,-39.93051442408819 L-55.028653360146755,-39.93111892882015 " />
			<path d="M-56.986062361869145,-39.278649261579346 L-57.07660645762055,-39.2768464739204 L-57.15741795815669,-39.27812040270207 L-57.227737026580364,-39.282459069702355 L-57.286902481965434,-39.28982168024167 L-57.334358016165865,-39.30013900675822 L-57.3696574245496,-39.31331403972593 L-57.3826403034196,-39.320935503267066 L-57.39246880147497,-39.32922289979466 L-57.39911980180393,-39.33815673711229 L-57.40257766106126,-39.34771600257612 " />
			<path d="M-57.40257766106126,-39.34771600257612 L-57.4016184136338,-39.363687651631516 L-57.393001543750714,-39.381012671242 L-57.376775565679445,-39.399593518953466 L-57.35303183410571,-39.419325581811606 L-57.32190402979288,-39.44009776534846 L-57.28356740693933,-39.46179311906098 L-57.23823780647104,-39.484289494859766 L-57.18617044082484,-39.50746023478119 L-57.063031286417484,-39.55529992576228 L-56.91691920787721,-39.60423632996591 L-56.75112010516313,-39.65316892147953 L-56.56936261775718,-39.70099726013379 L-56.375734271662715,-39.74664573919171 L-56.17458955543997,-39.78908777456136 L-55.97045199254724,-39.82736889154303 L-55.767912412273006,-39.86062818991561 L-55.57152570703406,-39.888117704635704 L-55.3857083978543,-39.90921922674895 L-55.21463931166396,-39.9234582062295 L-55.062165604077684,-39.93051442408819 " />
			<path d="M4.242640687119291,2.35702260395518 L-65.40737725975563,-20.859650045003118 " />
			<path d="M-59.396969619669996,-106.5374216987449 L-50.55813485483813,-103.59114344380095 " />
			<path d="M-50.55813485483814,-103.59114344380095 L-49.143921292465045,-104.06254796459197 " />
			<path d="M-50.55813485483814,-103.59114344380095 L-50.55813485483814,-86.14917617453273 " />
			<path d="M-43.84062043356595,-101.35197197004355 L-35.00178566873409,-98.4056937150996 " />
			<path d="M-35.001785668734094,-98.40569371509957 L-33.587572106361,-98.8770982358906 " />
			<path d="M-35.001785668734094,-98.40569371509957 L-35.001785668734094,-80.9637264458314 " />
			<path d="M-28.2842712474619,-96.1665222413422 L-19.445436482630047,-93.22024398639824 " />
			<path d="M-19.44543648263005,-93.22024398639823 L-18.031222920256955,-93.69164850718926 " />
			<path d="M-19.44543648263005,-93.22024398639823 L-19.44543648263005,-75.77827671713005 " />
			<path d="M-12.72792206135786,-90.98107251264084 L-3.8890872965260037,-88.03479425769689 " />
			<path d="M-3.889087296526003,-88.03479425769689 L-2.474873734152908,-88.50619877848791 " />
			<path d="M-3.889087296526003,-88.03479425769689 L-3.889087296526004,-71.53563603003906 " />
			<path d="M-45.25483399593903,-131.99326582139457 L-45.96194077712558,-130.81475451941702 " />
			<path d="M-52.32590180780452,-132.93607486297668 L-45.96194077712558,-130.81475451941702 " />
			<path d="M-46.66904755831212,-130.5790522590215 L-45.96194077712558,-130.81475451941702 " />
			<path d="M-46.66904755831212,-122.09377088478291 L-46.66904755831212,-130.5790522590215 " />
			<path d="M-61.96689626085763,-136.87461862030563 L-61.95701623528041,-136.9735004944694 L-61.95320812266993,-137.07512685499967 L-61.955495626593155,-137.17886512941456 L-61.963864508499924,-137.28406959964087 L-61.978262676350624,-137.39008542128107 L-61.9986005088627,-137.49625269968712 L-62.02475141335764,-137.60191059746955 L-62.05655261373607,-137.7064014478746 L-62.093806163676355,-137.80907484842572 L-62.13628017874987,-137.90929170934862 L-62.18371027978384,-138.0064282315807 L-62.23580123848739,-138.0998797896033 L-62.29222881509776,-138.1890646949284 L-62.35264177660812,-138.27342781681426 L-62.416664083014666,-138.3524440376722 L-62.4838972279747,-138.42562152165686 " />
			<path d="M-36.06244584051392,-128.92913643625286 L-36.76955262170046,-127.7506251342753 " />
			<path d="M-43.1335136523794,-129.87194547783497 L-36.76955262170046,-127.75062513427531 " />
			<path d="M-37.47665940288701,-127.51492287387978 L-36.76955262170046,-127.7506251342753 " />
			<path d="M-37.47665940288701,-119.0296414996412 L-37.47665940288701,-127.51492287387978 " />
			<path d="M-26.870057685088792,-125.86500705111116 L-27.577164466275338,-124.68649574913358 " />
			<path d="M-33.94112549695428,-126.80781609269323 L-27.57716446627534,-124.68649574913358 " />
			<path d="M-28.284271247461888,-124.45079348873807 L-27.57716446627534,-124.68649574913358 " />
			<path d="M-28.284271247461888,-115.96551211449949 L-28.284271247461888,-124.45079348873807 " />
			<path d="M-17.677669529663678,-122.80087766596945 L-18.384776310850224,-121.62236636399187 " />
			<path d="M-24.748737341529168,-123.74368670755152 L-18.38477631085022,-121.62236636399187 " />
			<path d="M-19.091883092036774,-121.38666410359636 L-18.384776310850228,-121.62236636399187 " />
			<path d="M-19.091883092036774,-112.90138272935779 L-19.091883092036774,-121.38666410359636 " />
			<path d="M-8.48528137423856,-119.73674828082775 L-9.192388155425107,-118.55823697885018 " />
			<path d="M-15.556349186104049,-120.67955732240982 L-9.192388155425107,-118.55823697885018 " />
			<path d="M-9.899494936611653,-118.32253471845466 L-9.192388155425105,-118.55823697885018 " />
			<path d="M-9.899494936611656,-109.8372533442161 L-9.899494936611656,-118.32253471845466 " />
			<path d="M0.7071067811862028,-116.67261889568641 L-3.448352714485736e-13,-115.49410759370882 " />
			<path d="M-6.363961030678931,-117.61542793726811 L1.0658141036401503e-14,-115.49410759370846 " />
			<path d="M-0.7071067811865381,-115.25840533331295 L9.325873406851315e-15,-115.49410759370846 " />
			<path d="M-0.7071067811865389,-106.77312395907438 L-0.7071067811865382,-115.25840533331295 " />
			<path d="M2.733374217711469,-115.30786179411592 L2.743254243288682,-115.4067436682797 L2.7470623558991707,-115.50837002880996 L2.74477485197594,-115.61210830322487 L2.73640597006917,-115.71731277345118 L2.7220078022184704,-115.82332859509137 L2.7016699697063915,-115.92949587349742 L2.6755190652114536,-116.03515377127987 L2.643717864833018,-116.13964462168491 L2.606464314892734,-116.24231802223602 L2.563990299819218,-116.34253488315893 L2.516560198785251,-116.43967140539102 L2.464469240081697,-116.53312296341359 L2.4080416634713275,-116.6223078687387 L2.3476287019609696,-116.70667099062456 L2.283606395554417,-116.78568721148248 L2.216373250594386,-116.85886469546716 " />
			<path d="M-46.66904755831212,-130.5790522590215 L-52.32590180780452,-132.46467034218563 " />
			<path d="M-37.47665940288701,-127.51492287387978 L-43.1335136523794,-129.40054095704392 " />
			<path d="M-28.284271247461888,-124.45079348873807 L-33.94112549695428,-126.3364115719022 " />
			<path d="M-19.091883092036774,-121.38666410359636 L-24.748737341529164,-123.27228218676049 " />
			<path d="M-9.899494936611653,-118.32253471845466 L-15.556349186104049,-120.2081528016188 " />
			<path d="M-0.7071067811865381,-115.25840533331295 L-6.363961030678931,-117.14402341647708 " />
			<path d="M9.192388155425139,-59.726952784195426 L-1.4142135623730958,-63.26248669012816 " />
			<path d="M9.19238815542514,-62.83822262141623 L-1.4142135623730958,-66.37375652734897 " />
			<path d="M-1.4142135623730887,-66.37375652734897 L-1.4142135623730887,-65.43094748576691 " />
			<path d="M-1.4142135623730887,-65.43094748576691 L9.192388155425146,-61.89541357983416 " />
			<path d="M9.192388155425144,-61.89541357983416 L9.192388155425144,-60.66976182573977 " />
			<path d="M-1.4142135623730887,-64.2052957316725 L9.192388155425144,-60.66976182573976 " />
			<path d="M-1.4142135623730887,-63.26248669012817 L-1.4142135623730887,-64.20529573167252 " />
			<path d="M13.788582233137669,-41.97857257644137 L13.788582233137669,-50.46385395067994 " />
			<path d="M6.316754654650582,-49.23837339134772 L7.2326763531515645,-44.37537773910889 " />
			<path d="M7.854080965071436,-41.07609142348477 L7.907744912322319,-40.791168004168334 " />
			<path d="M-57.53791779425225,-48.278680993777634 L-57.62100579296265,-47.82923662632226 L-57.71323792977907,-47.430626297301934 L-57.813305807888014,-47.088504657062195 L-57.91978987335338,-46.80772501248036 L-58.031179552781225,-46.5922704783898 L-58.14589468217824,-46.445197473470486 L-58.262307923016415,-46.36859236216793 L-58.378767847511256,-46.36354185771451 L-58.49362236562809,-46.430117606113 L-58.60524216148303,-46.56737516977293 L-58.712043806671815,-46.77336742521737 L-58.812512222643036,-47.04517218480183 L-58.90522217346644,-47.378933650605866 L-58.988858484101904,-47.76991711243621 " />
			<path d="M-58.98885848410191,-47.76991711243624 L-58.98917537416749,-47.77160047104833 L-58.98949209749459,-47.773284668692156 L-58.98980865401023,-47.774969704979625 L-58.99012504364147,-47.776655579522426 L-58.990441266315386,-47.77834229193208 L-58.99075732195912,-47.7800298418199 L-58.99107321049985,-47.78171822879703 L-58.99138893186476,-47.78340745247439 L-58.99170448598111,-47.78509751246273 L-58.99201987277618,-47.78678840837259 L-58.992335092177306,-47.78848013981432 L-58.992650144111835,-47.790172706398096 L-58.99296502850718,-47.79186610773389 L-58.993279745290764,-47.79356034343144 " />
			<path d="M-55.86143571373725,-48.83750835395089 L-55.86143571373725,-40.35222697971232 " />
			<path d="M-59.0434162290767,-123.86153783784358 L-59.0434162290767,-117.26187454676914 " />
			<path d="M-58.57705261945795,-47.7258546487632 L-58.319265382366495,-46.35715881457767 " />
			<path d="M-57.03972630903649,-39.563572680897025 L-56.986062361785145,-39.27864926157812 " />
			<path d="M9.192388155425139,-60.66976182573976 L7.778174593108634,-60.198357304967594 " />

       </g>
    </g>
    
</svg>
