<?xml version="1.0" encoding="UTF-8" standalone="no"?>
<svg
   xmlns:svg="http://www.w3.org/2000/svg"
   xmlns="http://www.w3.org/2000/svg"
   width="1024.0"
   height="320.0"

>
    <g transform="scale(3.806481364144404, -3.806481364144404)   translate(116.53512591054962,106.94007972694882)" stroke-width="0.8866666666666667"  fill="none">
       <!-- hidden lines -->
       <g  stroke="rgb(32,64,32)" fill="none" stroke-dasharray="0.8866666666666667,0.8866666666666667" >

       </g>

       <!-- solid lines -->
       <g  stroke="rgb(64,192,64)" fill="none">
			<path d="M-63.99316369738253,-143.89622997146245 L-63.99316369738253,-141.06780284671626 " />
			<path d="M-50.55813485483813,-136.58945989920144 L-39.103004999616054,-132.77108328079407 " />
			<path d="M-29.203510063004394,-129.47125163525686 L0.7071067811865674,-119.50104602052653 " />
			<path d="M30.052038200428285,-175.24463060406603 L-63.99316369738253,-143.89622997146242 " />
			<path d="M99.70205614730325,-152.0279579551077 L30.052038200428285,-175.24463060406603 " />
			<path d="M10.606601717798256,-113.84419177103413 L5.656854249492419,-112.19427594826553 " />
			<path d="M10.60660171779826,-119.50104602052652 L10.606601717798256,-113.84419177103413 " />
			<path d="M89.80256121069155,-145.89969918482427 L10.606601717798263,-119.5010460205265 " />
			<path d="M99.70205614730324,-143.5426765808691 L94.75230867899741,-141.8927607581005 " />
			<path d="M99.70205614730324,-149.19953083036154 L99.70205614730324,-143.54267658086914 " />
			<path d="M99.70205614730324,-152.0279579551077 L99.70205614730324,-149.19953083036154 " />
			<path d="M0.7071067811865568,-119.50104602052653 L0.7071067811865563,-113.84419177103415 " />
			<path d="M0.7071067811865568,-113.84419177103415 L5.656854249492426,-112.19427594826553 " />
			<path d="M10.60660171779826,-119.50104602052652 L5.656854249492389,-121.15096184329514 " />
			<path d="M5.656854249492389,-121.15096184329514 L0.7071067811865559,-119.50104602052653 " />
			<path d="M-29.203510063004394,-132.77108328079407 L-34.153257531310224,-134.42099910356268 " />
			<path d="M-34.15325753131023,-134.42099910356268 L-39.10300499961606,-132.77108328079407 " />
			<path d="M-55.50788232314396,-143.89622997146245 L-50.55813485483813,-142.24631414869384 " />
			<path d="M21.566756826189717,-169.58777635457366 L-55.50788232314396,-143.89622997146242 " />
			<path d="M54.94219689819475,-164.1194839133977 L35.0017856687341,-170.76628765655124 " />
			<path d="M49.99244942988892,-162.46956809062905 L54.94219689819475,-164.11948391339766 " />
			<path d="M94.75230867899738,-150.84944665313014 L59.89194436650058,-162.46956809062908 " />
			<path d="M89.80256121069155,-149.1995308303615 L94.75230867899738,-150.84944665313012 " />
			<path d="M-17.628172054980617,-145.27037414956828 L-22.57791952328645,-146.9202899723369 " />
			<path d="M-22.577919523286447,-146.9202899723369 L-27.52766699159228,-145.27037414956828 " />
			<path d="M-17.713024868723004,-127.6445591171916 L-17.59769344241467,-127.6021429105949 L-17.54484855570833,-127.57957142245337 L-17.495389914270007,-127.55616279742756 L-17.449436668298986,-127.5319734289455 L-17.40709952318984,-127.50706159131462 L-17.368480472833436,-127.48148729933378 L-17.33367255390471,-127.45531216371242 L-17.302759621729177,-127.42859924264492 L-17.275816148268095,-127.40141288989788 L-17.25290704270901,-127.37381859977636 L-17.234087495093807,-127.34588284934219 L-17.219402843361095,-127.31767293826508 L-17.208888464123117,-127.2892568266917 L-17.20256968744041,-127.26070297152378 L-17.20046173579946,-127.23208016149945 " />
			<path d="M-17.20046173579946,-127.23208016149945 L-17.20256968744041,-127.20345735147512 L-17.208888464123117,-127.17490349630721 L-17.219402843361095,-127.14648738473383 L-17.234087495093807,-127.11827747365672 L-17.25290704270901,-127.09034172322255 L-17.275816148268095,-127.06274743310102 L-17.302759621729173,-127.03556108035399 L-17.33367255390471,-127.00884815928649 L-17.368480472833436,-126.98267302366513 L-17.40709952318984,-126.95709873168428 L-17.449436668298986,-126.9321868940534 L-17.495389914270007,-126.90799752557135 L-17.544848555708334,-126.88458890054554 L-17.597693442414673,-126.862017412404 L-17.713024868723004,-126.8196012058073 L-17.84027348851308,-126.78115739703786 L-17.978213828015157,-126.74705622098963 L-18.125517446353964,-126.71762609062958 L-18.280765729160553,-126.6931504342012 L-18.442463550604153,-126.67386496565567 L-18.609053672271237,-126.65995541459758 L-18.77893174022273,-126.65155573760734 L-18.95046173579946,-126.64874682816613 L-19.12199173137619,-126.65155573760734 L-19.291869799327685,-126.65995541459758 L-19.45845992099477,-126.67386496565567 L-19.62015774243837,-126.6931504342012 L-19.77540602524496,-126.71762609062958 L-19.922709643583765,-126.74705622098963 L-20.060649983085842,-126.78115739703786 L-20.18789860287592,-126.8196012058073 L-20.303230029184252,-126.862017412404 L-20.35607491589059,-126.88458890054554 L-20.405533557328916,-126.90799752557135 L-20.451486803299936,-126.9321868940534 L-20.493823948409084,-126.95709873168428 L-20.532442998765486,-126.98267302366513 L-20.567250917694214,-127.00884815928649 L-20.59816384986975,-127.03556108035399 L-20.625107323330827,-127.06274743310102 L-20.648016428889914,-127.09034172322255 L-20.666835976505116,-127.11827747365672 L-20.681520628237827,-127.14648738473383 L-20.692035007475805,-127.17490349630721 L-20.698353784158513,-127.20345735147512 L-20.70046173579946,-127.23208016149945 " />
			<path d="M-20.70046173579946,-127.23208016149945 L-20.699275908829073,-127.25355104154858 L-20.69572003498717,-127.27499282359926 L-20.689798933303585,-127.29637644908755 L-20.681520628237827,-127.31767293826508 L-20.67089633880409,-127.33885342947329 L-20.657940463366884,-127.35988921825762 L-20.625107323330827,-127.40141288989788 L-20.583199133760253,-127.44201893281154 L-20.532442998765486,-127.48148729933378 L-20.473113970239705,-127.51960410696682 L-20.405533557328916,-127.55616279742756 L-20.330067984146023,-127.59096525600482 L-20.24712620517064,-127.62382288516021 L-20.157157689089328,-127.65455762655448 L-20.060649983085842,-127.68300292596105 L-19.958126070780693,-127.70900463583787 L-19.8501415381376,-127.73242185066628 L-19.737281562695024,-127.75312767053018 L-19.62015774243837,-127.7710098887977 L-19.49940478149752,-127.78597160017873 L-19.375677050630173,-127.79793172586294 L-19.249645041129988,-127.80682545289301 L-19.121991731376195,-127.81260458539157 L-18.993408885714558,-127.8152378057389 L-18.86459330572648,-127.8147108442858 L-18.736243054200834,-127.81102655668204 L-18.609053672271237,-127.80420490840133 L-18.48371441021839,-127.7942828665468 L-18.360904492363076,-127.78131419952288 L-18.24128943629073,-127.76536918565985 L-18.125517446353964,-127.74653423236933 L-18.01421590099704,-127.72491140789512 L-17.907987952937702,-127.70061788819649 L-17.80740926063035,-127.67378532196157 L-17.713024868723014,-127.6445591171916 " />
			<path d="M-12.409724009823897,-125.87679216422524 L-12.294392583515565,-125.83437595762854 L-12.241547696809226,-125.811804469487 L-12.1920890553709,-125.78839584446119 L-12.146135809399878,-125.76420647597914 L-12.103798664290734,-125.73929463834826 L-12.06517961393433,-125.71372034636741 L-12.030371695005602,-125.68754521074605 L-11.999458762830068,-125.66083228967855 L-11.972515289368989,-125.63364593693152 L-11.949606183809903,-125.60605164680999 L-11.930786636194702,-125.57811589637582 L-11.916101984461989,-125.54990598529871 L-11.90558760522401,-125.52148987372533 L-11.899268828541302,-125.49293601855742 L-11.897160876900355,-125.46431320853308 " />
			<path d="M-11.897160876900355,-125.46431320853308 L-11.899268828541302,-125.43569039850875 L-11.90558760522401,-125.40713654334084 L-11.916101984461989,-125.37872043176746 L-11.930786636194702,-125.35051052069035 L-11.949606183809902,-125.32257477025618 L-11.972515289368989,-125.29498048013465 L-11.999458762830068,-125.26779412738762 L-12.030371695005602,-125.24108120632012 L-12.06517961393433,-125.21490607069876 L-12.103798664290734,-125.18933177871791 L-12.146135809399878,-125.16441994108703 L-12.1920890553709,-125.14023057260498 L-12.241547696809226,-125.11682194757917 L-12.294392583515565,-125.09425045943763 L-12.409724009823897,-125.05183425284093 L-12.536972629613976,-125.01339044407149 L-12.67491296911605,-124.97928926802327 L-12.822216587454859,-124.94985913766321 L-12.977464870261446,-124.92538348123483 L-13.139162691705046,-124.9060980126893 L-13.30575281337213,-124.8921884616312 L-13.475630881323623,-124.88378878464097 L-13.647160876900355,-124.88097987519976 L-13.818690872477086,-124.88378878464097 L-13.988568940428578,-124.8921884616312 L-14.155159062095663,-124.9060980126893 L-14.316856883539261,-124.92538348123483 L-14.47210516634585,-124.94985913766321 L-14.619408784684659,-124.97928926802327 L-14.757349124186733,-125.01339044407149 L-14.884597743976812,-125.05183425284093 L-14.999929170285144,-125.09425045943763 L-15.052774056991483,-125.11682194757917 L-15.102232698429809,-125.14023057260498 L-15.148185944400831,-125.16441994108703 L-15.190523089509975,-125.18933177871791 L-15.22914213986638,-125.21490607069876 L-15.263950058795107,-125.24108120632012 L-15.29486299097064,-125.26779412738762 L-15.32180646443172,-125.29498048013465 L-15.344715569990807,-125.32257477025618 L-15.363535117606007,-125.35051052069035 L-15.37821976933872,-125.37872043176746 L-15.388734148576699,-125.40713654334084 L-15.395052925259407,-125.43569039850875 L-15.397160876900355,-125.46431320853308 " />
			<path d="M-15.397160876900355,-125.46431320853308 L-15.395975049929966,-125.48578408858221 L-15.392419176088062,-125.5072258706329 L-15.386498074404479,-125.52860949612118 L-15.37821976933872,-125.54990598529871 L-15.367595479904983,-125.57108647650692 L-15.35463960446778,-125.59212226529127 L-15.32180646443172,-125.63364593693152 L-15.279898274861148,-125.67425197984517 L-15.229142139866381,-125.71372034636741 L-15.1698131113406,-125.75183715400046 L-15.102232698429809,-125.78839584446119 L-15.026767125246916,-125.82319830303845 L-14.943825346271533,-125.85605593219384 L-14.853856830190223,-125.88679067358811 L-14.757349124186735,-125.91523597299468 L-14.654825211881585,-125.9412376828715 L-14.546840679238493,-125.96465489769992 L-14.433980703795918,-125.98536071756381 L-14.316856883539263,-126.00324293583134 L-14.196103922598416,-126.01820464721236 L-14.072376191731069,-126.03016477289657 L-13.946344182230883,-126.03905849992664 L-13.818690872477086,-126.0448376324252 L-13.690108026815453,-126.04747085277253 L-13.561292446827373,-126.04694389131943 L-13.432942195301727,-126.04325960371567 L-13.305752813372132,-126.03643795543496 L-13.180413551319283,-126.02651591358043 L-13.05760363346397,-126.01354724655651 L-12.937988577391623,-125.99760223269348 L-12.822216587454859,-125.97876727940296 L-12.710915042097934,-125.95714445492875 L-12.604687094038598,-125.93285093523012 L-12.504108401731244,-125.9060183689952 L-12.409724009823908,-125.87679216422524 " />
			<path d="M17.40896895281281,-134.18058279795926 L12.459221484506976,-135.83049862072787 " />
			<path d="M12.45922148450698,-135.83049862072787 L7.509474016201147,-134.18058279795926 " />
			<path d="M35.001785668734115,-166.11352503634373 L35.75838992460371,-166.36572645496693 " />
			<path d="M35.758389924603705,-166.36572645496696 L40.708137392909535,-164.71581063219836 " />
			<path d="M45.57303204747299,-159.3465131403885 L45.68836347378132,-159.3040969337918 L45.74120836048766,-159.28152544565026 L45.79066700192598,-159.25811682062445 L45.83662024789701,-159.23392745214238 L45.878957393006154,-159.20901561451151 L45.917576443362556,-159.18344132253068 L45.95238436229128,-159.1572661869093 L45.983297294466816,-159.1305532658418 L46.0102407679279,-159.1033669130948 L46.033149873486984,-159.07577262297326 L46.051969421102186,-159.04783687253908 L46.0666540728349,-159.01962696146197 L46.077168452072875,-158.99121084988857 L46.08348722875558,-158.96265699472067 L46.08559518039653,-158.93403418469634 " />
			<path d="M46.08559518039653,-158.93403418469634 L46.08348722875558,-158.905411374672 L46.077168452072875,-158.8768575195041 L46.0666540728349,-158.84844140793072 L46.051969421102186,-158.8202314968536 L46.033149873486984,-158.79229574641943 L46.0102407679279,-158.7647014562979 L45.983297294466816,-158.7375151035509 L45.95238436229128,-158.71080218248338 L45.917576443362556,-158.684627046862 L45.878957393006154,-158.65905275488117 L45.83662024789701,-158.6341409172503 L45.79066700192598,-158.60995154876824 L45.74120836048766,-158.58654292374243 L45.68836347378132,-158.56397143560088 L45.57303204747299,-158.52155522900418 L45.44578342768291,-158.48311142023474 L45.30784308818083,-158.44901024418652 L45.16053946984203,-158.41958011382647 L45.00529118703544,-158.3951044573981 L44.84359336559184,-158.37581898885256 L44.67700324392476,-158.36190943779445 L44.507125175973265,-158.35350976080423 L44.33559518039653,-158.350700851363 L44.1640651848198,-158.35350976080423 L43.994187116868304,-158.36190943779445 L43.82759699520122,-158.37581898885256 L43.66589917375762,-158.3951044573981 L43.510650890951034,-158.41958011382647 L43.36334727261223,-158.44901024418652 L43.22540693311015,-158.48311142023474 L43.09815831332007,-158.52155522900418 L42.98282688701174,-158.56397143560088 L42.9299820003054,-158.58654292374243 L42.88052335886708,-158.60995154876824 L42.83457011289605,-158.6341409172503 L42.79223296778691,-158.65905275488117 L42.753613917430506,-158.684627046862 L42.71880599850178,-158.71080218248338 L42.68789306632625,-158.7375151035509 L42.660949592865165,-158.7647014562979 L42.63804048730608,-158.79229574641943 L42.61922093969088,-158.8202314968536 L42.60453628795816,-158.84844140793072 L42.59402190872019,-158.8768575195041 L42.58770313203748,-158.905411374672 L42.58559518039653,-158.93403418469634 " />
			<path d="M42.58559518039653,-158.93403418469634 L42.586781007366916,-158.95550506474547 L42.59033688120882,-158.97694684679615 L42.59625798289241,-158.99833047228444 L42.60453628795816,-159.01962696146197 L42.615160577391904,-159.04080745267018 L42.628116452829104,-159.0618432414545 L42.660949592865165,-159.1033669130948 L42.702857782435736,-159.1439729560084 L42.753613917430506,-159.18344132253068 L42.81294294595629,-159.22155813016371 L42.88052335886708,-159.25811682062445 L42.95598893204997,-159.2929192792017 L43.03893071102535,-159.3257769083571 L43.128899227106665,-159.35651164975135 L43.22540693311015,-159.38495694915795 L43.3279308454153,-159.41095865903478 L43.43591537805839,-159.43437587386316 L43.54877535350097,-159.45508169372707 L43.66589917375762,-159.47296391199458 L43.78665213469847,-159.48792562337562 L43.910379865565815,-159.4998857490598 L44.036411875066,-159.5087794760899 L44.1640651848198,-159.51455860858846 L44.29264803048143,-159.5171918289358 L44.42146361046951,-159.5166648674827 L44.54981386199516,-159.51298057987893 L44.67700324392475,-159.50615893159824 L44.802342505977606,-159.49623688974367 L44.92515242383291,-159.48326822271977 L45.04476747990526,-159.46732320885673 L45.16053946984203,-159.44848825556622 L45.27184101519895,-159.426865431092 L45.378068963258286,-159.40257191139338 L45.47864765556564,-159.37573934515845 L45.57303204747298,-159.3465131403885 " />
			<path d="M61.48293462417031,-154.0432122814894 L61.59826605047864,-154.0007960748927 L61.65111093718498,-153.97822458675114 L61.7005695786233,-153.95481596172533 L61.74652282459433,-153.93062659324326 L61.78885996970347,-153.9057147556124 L61.827479020059876,-153.88014046363156 L61.8622869389886,-153.8539653280102 L61.893199871164136,-153.82725240694268 L61.92014334462522,-153.80006605419567 L61.943052450184304,-153.77247176407414 L61.961871997799506,-153.74453601363996 L61.97655664953222,-153.71632610256285 L61.987071028770195,-153.68790999098945 L61.9933898054529,-153.65935613582155 L61.99549775709385,-153.63073332579722 " />
			<path d="M61.99549775709385,-153.63073332579722 L61.9933898054529,-153.6021105157729 L61.987071028770195,-153.573556660605 L61.97655664953222,-153.5451405490316 L61.961871997799506,-153.5169306379545 L61.943052450184304,-153.4889948875203 L61.92014334462522,-153.46140059739878 L61.893199871164136,-153.43421424465177 L61.8622869389886,-153.40750132358426 L61.827479020059876,-153.38132618796288 L61.78885996970347,-153.35575189598205 L61.74652282459433,-153.33084005835119 L61.7005695786233,-153.30665068986912 L61.65111093718498,-153.2832420648433 L61.59826605047864,-153.26067057670176 L61.48293462417031,-153.21825437010506 L61.35568600438023,-153.17981056133561 L61.21774566487815,-153.1457093852874 L61.07044204653935,-153.11627925492735 L60.91519376373276,-153.09180359849898 L60.75349594228916,-153.07251812995344 L60.58690582062208,-153.05860857889533 L60.417027752670585,-153.0502089019051 L60.24549775709385,-153.04739999246388 L60.07396776151712,-153.0502089019051 L59.90408969356562,-153.05860857889533 L59.73749957189854,-153.07251812995344 L59.57580175045494,-153.09180359849898 L59.420553467648354,-153.11627925492735 L59.27324984930955,-153.1457093852874 L59.13530950980747,-153.17981056133561 L59.00806089001739,-153.21825437010506 L58.89272946370906,-153.26067057670176 L58.83988457700272,-153.2832420648433 L58.7904259355644,-153.30665068986912 L58.74447268959337,-153.33084005835119 L58.70213554448423,-153.35575189598205 L58.663516494127826,-153.38132618796288 L58.6287085751991,-153.40750132358426 L58.59779564302357,-153.43421424465177 L58.570852169562485,-153.46140059739878 L58.5479430640034,-153.4889948875203 L58.529123516388196,-153.5169306379545 L58.51443886465548,-153.5451405490316 L58.50392448541751,-153.573556660605 L58.4976057087348,-153.6021105157729 L58.49549775709385,-153.63073332579722 " />
			<path d="M58.49549775709385,-153.63073332579722 L58.496683584064236,-153.65220420584635 L58.50023945790614,-153.67364598789703 L58.50616055958973,-153.69502961338532 L58.51443886465548,-153.71632610256285 L58.525063154089224,-153.73750659377106 L58.538019029526424,-153.7585423825554 L58.570852169562485,-153.80006605419567 L58.612760359133055,-153.8406720971093 L58.663516494127826,-153.88014046363156 L58.72284552265361,-153.9182572712646 L58.7904259355644,-153.95481596172533 L58.86589150874729,-153.98961842030258 L58.94883328772267,-154.022476049458 L59.038801803803985,-154.05321079085223 L59.13530950980747,-154.08165609025883 L59.23783342211262,-154.10765780013566 L59.34581795475571,-154.13107501496404 L59.45867793019829,-154.15178083482795 L59.57580175045494,-154.16966305309546 L59.69655471139579,-154.1846247644765 L59.820282442263135,-154.1965848901607 L59.94631445176332,-154.20547861719078 L60.07396776151712,-154.21125774968934 L60.20255060717875,-154.2138909700367 L60.33136618716683,-154.21336400858357 L60.45971643869248,-154.2096797209798 L60.58690582062207,-154.20285807269912 L60.712245082674926,-154.19293603084455 L60.83505500053023,-154.17996736382065 L60.95467005660258,-154.1640223499576 L61.07044204653935,-154.1451873966671 L61.18174359189627,-154.1235645721929 L61.287971539955606,-154.09927105249426 L61.38855023226296,-154.07243848625933 L61.4829346241703,-154.0432122814894 " />
			<path d="M60.50712726613288,-151.84646721460317 L65.45687473443871,-153.49638303737177 " />
			<path d="M65.45687473443871,-153.49638303737177 L70.40662220274454,-151.84646721460317 " />
			<path d="M78.09994398205417,-156.04668149485127 L78.2152754083625,-156.00426528825457 L78.26812029506884,-155.98169380011302 L78.31757893650718,-155.9582851750872 L78.3635321824782,-155.93409580660514 L78.40586932758734,-155.90918396897428 L78.44448837794374,-155.88360967699344 L78.47929629687246,-155.85743454137207 L78.510209229048,-155.83072162030456 L78.53715270250908,-155.80353526755755 L78.56006180806817,-155.77594097743602 L78.57888135568336,-155.74800522700184 L78.59356600741609,-155.71979531592473 L78.60408038665406,-155.69137920435134 L78.61039916333677,-155.66282534918344 L78.61250711497772,-155.6342025391591 " />
			<path d="M78.61250711497772,-155.6342025391591 L78.61039916333677,-155.60557972913477 L78.60408038665406,-155.57702587396687 L78.59356600741609,-155.54860976239348 L78.57888135568336,-155.52039985131637 L78.56006180806817,-155.4924641008822 L78.53715270250908,-155.46486981076066 L78.510209229048,-155.43768345801365 L78.47929629687246,-155.41097053694614 L78.44448837794374,-155.38479540132477 L78.40586932758734,-155.35922110934393 L78.3635321824782,-155.33430927171307 L78.31757893650718,-155.310119903231 L78.26812029506884,-155.2867112782052 L78.2152754083625,-155.26413979006364 L78.09994398205417,-155.22172358346694 L77.97269536226409,-155.1832797746975 L77.83475502276202,-155.14917859864929 L77.68745140442321,-155.11974846828923 L77.53220312161662,-155.09527281186087 L77.37050530017302,-155.07598734331532 L77.20391517850594,-155.0620777922572 L77.03403711055445,-155.053678115267 L76.86250711497772,-155.05086920582576 L76.69097711940098,-155.053678115267 L76.5210990514495,-155.0620777922572 L76.35450892978241,-155.07598734331532 L76.19281110833882,-155.09527281186087 L76.03756282553222,-155.11974846828923 L75.89025920719341,-155.14917859864929 L75.75231886769134,-155.1832797746975 L75.62507024790126,-155.22172358346694 L75.50973882159293,-155.26413979006364 L75.4568939348866,-155.2867112782052 L75.40743529344826,-155.310119903231 L75.36148204747724,-155.33430927171307 L75.3191449023681,-155.35922110934393 L75.28052585201169,-155.38479540132477 L75.24571793308297,-155.41097053694614 L75.21480500090743,-155.43768345801365 L75.18786152744636,-155.46486981076066 L75.16495242188726,-155.4924641008822 L75.14613287427207,-155.52039985131637 L75.13144822253935,-155.54860976239348 L75.12093384330137,-155.57702587396687 L75.11461506661867,-155.60557972913477 L75.11250711497772,-155.6342025391591 " />
			<path d="M75.11250711497772,-155.6342025391591 L75.1136929419481,-155.65567341920823 L75.11724881579,-155.6771152012589 L75.12316991747359,-155.6984988267472 L75.13144822253935,-155.71979531592473 L75.14207251197308,-155.74097580713294 L75.1550283874103,-155.76201159591727 L75.18786152744636,-155.80353526755755 L75.22976971701692,-155.84414131047117 L75.28052585201169,-155.88360967699344 L75.33985488053747,-155.92172648462648 L75.40743529344826,-155.9582851750872 L75.48290086663116,-155.99308763366446 L75.56584264560654,-156.02594526281987 L75.65581116168785,-156.05668000421412 L75.75231886769134,-156.0851253036207 L75.85484277999649,-156.11112701349754 L75.96282731263958,-156.13454422832592 L76.07568728808215,-156.15525004818983 L76.19281110833882,-156.17313226645734 L76.31356406927965,-156.18809397783838 L76.43729180014701,-156.20005410352258 L76.56332380964719,-156.20894783055266 L76.69097711940098,-156.21472696305122 L76.81955996506262,-156.21736018339857 L76.9483755450507,-156.21683322194545 L77.07672579657634,-156.2131489343417 L77.20391517850594,-156.206327286061 L77.32925444055878,-156.19640524420643 L77.4520643584141,-156.18343657718253 L77.57167941448645,-156.1674915633195 L77.68745140442321,-156.14865661002898 L77.79875294978014,-156.12703378555477 L77.90498089783948,-156.10274026585614 L78.00555959014683,-156.0759076996212 L78.09994398205417,-156.04668149485127 " />
			<path d="M-39.10300499961606,-132.77108328079407 L-39.10300499961606,-129.47125163525686 " />
			<path d="M-39.10300499961606,-129.47125163525686 L-34.15325753131023,-127.82133581248826 " />
			<path d="M-59.0434162290767,-133.76103277445526 L-63.99316369738253,-135.41094859722386 " />
			<path d="M-63.99316369738253,-141.06780284671623 L-63.99316369738253,-135.41094859722386 " />
			<path d="M30.052038200428285,-175.24463060406603 L30.052038200428285,-172.41620347931985 " />
			<path d="M94.75230867899737,-150.84944665313014 L94.75230867899737,-145.19259240363778 " />
			<path d="M94.75230867899737,-145.19259240363775 L99.70205614730324,-143.5426765808691 " />
			<path d="M98.20652530509366,-147.3410185071429 L98.20418159743113,-147.25151531430456 L98.19716169209907,-147.16400298113396 L98.18549918837321,-147.0789003666998 L98.16924990633365,-146.99661479646736 L98.14849161969404,-146.91754011272218 L98.12332368355435,-146.84205478952833 L98.09386655885888,-146.77052012124312 L98.06026123583574,-146.70327849325906 L98.02266855917725,-146.64065174324918 L97.98126845819125,-146.58293962076 L97.93625908560793,-146.5304183525244 L97.88785586916414,-146.48333932036144 L97.8362904805046,-146.4419278579909 L97.78180972633518,-146.40638217252183 L97.72467436713528,-146.37687239577647 L97.66515786908361,-146.35353976999073 " />
			<path d="M97.66515786908361,-146.35353976999073 L97.62164943439561,-146.34079549382048 L97.57719069410219,-146.3312472834342 L97.53188875320285,-146.32491814130702 L97.4858527480412,-146.32182331489668 L97.43919358338596,-146.32197025991107 L97.39202366525163,-146.3253586223468 L97.3444566301026,-146.33198023934196 L97.29660707109292,-146.34181915884125 L97.24859026200139,-146.3548516780258 L97.20052187952686,-146.37104640041534 L97.15251772461302,-146.39036431150518 L97.10469344347372,-146.41275887275546 L97.05716424899113,-146.43817613370658 L97.01004464315784,-146.46655486195064 L96.96344814123148,-146.4978266906456 L96.91748699826657,-146.53191628321704 L96.87227193868222,-146.56874151485056 L96.82791188951737,-146.60821367033768 L96.7845137180159,-146.65023765779844 L96.74218197417422,-146.6947122377662 L96.70101863887105,-146.74153026708228 L96.66112287818662,-146.7905789570133 L96.62259080450286,-146.84174014496907 L96.58551524496033,-146.8948905791666 L96.54998551782937,-146.9499022155545 L96.51608721733467,-147.0066425262822 L96.48390200745128,-147.06497481897136 L96.4535074251689,-147.12475856601958 L96.42497669369848,-147.18584974314373 L96.39837854607114,-147.24810117634723 L96.37377705955424,-147.31136289647486 L96.35123150128365,-147.3754825005018 L96.33079618548398,-147.4403055186857 L96.3125203426209,-147.50567578669796 L96.29644800080068,-147.57143582183716 L96.28261787970251,-147.63742720241873 L96.27106329729949,-147.70349094942674 L96.26181208959271,-147.76946790950808 L96.25488654355183,-147.83519913838708 L96.25030334342387,-147.90052628377597 L96.24807353053939,-147.96529196685952 L96.24820247671292,-148.0293401614344 L96.25068987130184,-148.09251656978986 L96.25552972195473,-148.15466899442464 L96.26271036904743,-148.21564770470385 L96.27221451377214,-148.27530579757334 L96.28401925981177,-148.33349955146193 L96.29809616849913,-148.39008877251936 L96.31441132732819,-148.44493713235548 L96.3329254316523,-148.49791249646725 L96.35359387937251,-148.54888724256247 L96.3763668783879,-148.59773856801291 L96.40118956654916,-148.6443487856967 L96.42800214382633,-148.6886056075169 L96.45674001637222,-148.73040241491327 L96.48733395213473,-148.76963851571583 L96.5197102476429,-148.80621938672104 L96.55379090556502,-148.8400569014066 L96.58949382261105,-148.87106954223577 L96.6267329873266,-148.89918259704044 L96.66541868730214,-148.92432833900915 L96.70545772529792,-148.946446189847 L96.74675364376442,-148.96548286571402 L96.78920695721696,-148.98139250559063 " />
			<path d="M96.78920695721696,-148.98139250559063 L96.84574407124686,-148.99728874198146 L96.9038224227281,-149.00781170522146 L96.96320734062587,-149.01291887628915 L97.02365887460103,-149.01258961918012 L97.08493276455194,-149.00682526428864 L97.1467814275704,-148.9956491030321 L97.20895495832369,-148.97910629373993 L97.27120213882041,-148.95726367918707 L97.33327145348052,-148.93020951650936 L97.39491210540756,-148.89805312059255 L97.45587502975712,-148.86092442237495 L97.51591390010677,-148.81897344384947 L97.57478612376099,-148.77236969188553 L97.63225382196988,-148.72130147332072 L97.68808479110055,-148.66597513408934 L97.74205344087764,-148.60661422546215 L97.79394170590214,-148.54345860076668 L97.843539926765,-148.47676344623707 L97.89064769719577,-148.4067982499103 L97.9350746738229,-148.3338457127344 L97.97664134527399,-148.2582006062887 L98.01517975750846,-148.18016858173166 L98.05053419245151,-148.1000649347885 L98.08256179718768,-148.01821333176935 L98.11113316117148,-147.93494450176502 L98.13613283912287,-147.85059490030514 L98.15745981749467,-147.76550534987788 L98.17502792262742,-147.68001966280477 L98.18876616894204,-147.5944832520346 L98.19861904576378,-147.50924173547003 L98.20454674161829,-147.42463953946609 L98.20652530509366,-147.3410185071429 " />
			<path d="M94.75230867899741,-141.89276075810054 L89.80256121069155,-143.54267658086914 " />
			<path d="M89.80256121069155,-143.54267658086914 L94.75230867899738,-145.19259240363775 " />
			<path d="M89.80256121069155,-149.1995308303615 L89.80256121069155,-143.54267658086914 " />
			<path d="M10.60660171779826,-113.84419177103413 L5.656854249492389,-115.49410759380275 " />
			<path d="M5.656854249492389,-121.15096184329514 L5.656854249492388,-115.49410759380275 " />
			<path d="M5.656854249492389,-115.49410759380275 L0.7071067811865559,-113.84419177103415 " />
			<path d="M59.89194436650059,-162.46956809062908 L59.89194436650059,-159.16973644509187 " />
			<path d="M59.89194436650059,-159.16973644509184 L54.94219689819476,-157.51982062232324 " />
			<path d="M54.94219689819476,-157.51982062232324 L49.99244942988893,-159.16973644509184 " />
			<path d="M49.99244942988892,-162.46956809062905 L49.99244942988892,-159.16973644509184 " />
			<path d="M49.99244942988892,-159.16973644509184 L54.94219689819475,-160.81965226786045 " />
			<path d="M54.94219689819475,-164.1194839133977 L54.94219689819475,-160.81965226786048 " />
			<path d="M26.516504294495547,-162.28100628231266 L35.001785668734115,-165.10943340705884 " />
			<path d="M35.001785668734115,-170.76628765655124 L35.001785668734115,-165.10943340705887 " />
			<path d="M21.566756826189717,-169.58777635457366 L21.566756826189717,-163.9309221050813 " />
			<path d="M21.566756826189717,-163.93092210508127 L26.51650429449555,-162.28100628231266 " />
			<path d="M-55.50788232314396,-143.89622997146245 L-55.50788232314396,-138.23937572197008 " />
			<path d="M-55.50788232314396,-138.23937572197005 L-50.55813485483813,-136.58945989920144 " />
			<path d="M-50.55813485483813,-142.2463141486938 L-50.55813485483813,-136.58945989920144 " />
			<path d="M-50.55813485483813,-136.58945989920144 L-59.0434162290767,-133.76103277445526 " />
			<path d="M-34.15325753131023,-134.42099910356268 L-34.15325753131023,-131.12116745802547 " />
			<path d="M-34.15325753131023,-131.12116745802547 L-39.10300499961606,-129.47125163525686 " />
			<path d="M-29.203510063004394,-132.77108328079407 L-29.203510063004394,-129.47125163525686 " />
			<path d="M-29.203510063004394,-129.47125163525683 L-34.153257531310224,-131.12116745802544 " />
			<path d="M-34.15325753131023,-127.82133581248824 L-29.203510063004398,-129.47125163525686 " />
			<path d="M-17.628172054980617,-145.27037414956828 L-17.628172054980617,-139.61351990007591 " />
			<path d="M-17.628172054980617,-139.61351990007591 L-22.57791952328645,-141.26343572284452 " />
			<path d="M-22.577919523286447,-146.9202899723369 L-22.577919523286447,-141.26343572284452 " />
			<path d="M-22.577919523286447,-137.9636040773073 L-17.628172054980613,-139.61351990007591 " />
			<path d="M-22.577919523286447,-141.26343572284452 L-27.52766699159228,-139.61351990007591 " />
			<path d="M-27.527666991592277,-145.27037414956828 L-27.527666991592277,-139.61351990007591 " />
			<path d="M-27.527666991592277,-139.61351990007591 L-22.577919523286443,-137.9636040773073 " />
			<path d="M17.40896895281281,-134.18058279795926 L17.40896895281281,-128.5237285484669 " />
			<path d="M17.40896895281281,-128.52372854846686 L12.459221484506976,-130.17364437123547 " />
			<path d="M12.45922148450698,-135.83049862072787 L12.45922148450698,-130.1736443712355 " />
			<path d="M12.45922148450698,-126.87381272569826 L17.408968952812813,-128.52372854846686 " />
			<path d="M12.45922148450698,-130.1736443712355 L7.509474016201147,-128.5237285484669 " />
			<path d="M7.50947401620115,-134.18058279795926 L7.509474016201149,-128.5237285484669 " />
			<path d="M7.50947401620115,-128.52372854846686 L12.459221484506983,-126.87381272569826 " />
			<path d="M30.80864245629789,-163.71171900291344 L30.80864245629789,-159.05895638270596 " />
			<path d="M30.80864245629789,-159.05895638270596 L35.75838992460371,-160.70887220547456 " />
			<path d="M35.758389924603705,-166.36572645496696 L35.758389924603705,-160.7088722054746 " />
			<path d="M35.75838992460372,-157.40904055993735 L30.808642456297886,-159.05895638270596 " />
			<path d="M35.758389924603705,-160.70887220547456 L40.708137392909535,-159.05895638270596 " />
			<path d="M40.708137392909535,-164.71581063219836 L40.708137392909535,-159.058956382706 " />
			<path d="M40.708137392909535,-159.05895638270596 L35.75838992460371,-157.40904055993735 " />
			<path d="M60.50712726613288,-151.84646721460317 L60.50712726613288,-146.1896129651108 " />
			<path d="M60.50712726613288,-146.18961296511077 L65.45687473443871,-147.83952878787937 " />
			<path d="M65.45687473443871,-153.49638303737177 L65.45687473443871,-147.8395287878794 " />
			<path d="M65.45687473443871,-144.53969714234216 L60.50712726613288,-146.18961296511077 " />
			<path d="M65.45687473443871,-147.8395287878794 L70.40662220274454,-146.1896129651108 " />
			<path d="M70.40662220274454,-151.84646721460317 L70.40662220274454,-146.1896129651108 " />
			<path d="M70.40662220274454,-146.1896129651108 L65.45687473443871,-144.5396971423422 " />
			<path d="M-33.17391463936686,-129.7976992659046 L-33.08263805340284,-129.76412986811238 L-33.00167211827121,-129.72773989283422 L-32.93179658018776,-129.68887979542484 L-32.90123236033426,-129.66863957005714 L-32.8736843787821,-129.64792381986538 L-32.84921900103175,-129.62678245090623 L-32.82789516632112,-129.6052663945893 L-32.80976424563579,-129.58342748497884 L-32.79486991795176,-129.56131833392095 L-32.78324806500901,-129.53899220429705 L-32.774926684869236,-129.516502881709 L-32.76992582446607,-129.49390454490467 L-32.76825753131023,-129.47125163525683 " />
			<path d="M-32.76825753131023,-129.47125163525683 L-32.76992582446607,-129.448598725609 L-32.774926684869236,-129.42600038880468 L-32.78324806500901,-129.4035110662166 L-32.79486991795176,-129.38118493659272 L-32.80976424563579,-129.35907578553483 L-32.82789516632112,-129.33723687592436 L-32.84921900103175,-129.31572081960744 L-32.8736843787821,-129.29457945064829 L-32.90123236033426,-129.27386370045653 L-32.93179658018776,-129.25362347508883 L-33.00167211827121,-129.21476337767945 L-33.08263805340284,-129.1783734024013 L-33.17391463936686,-129.14480400460906 L-33.27462283274358,-129.11437847595437 L-33.38379275857808,-129.0873898309105 L-33.500373050806225,-129.06409798488266 L-33.623240977484585,-129.0447272510808 L-33.7512132533128,-129.02946418026048 L-33.883057435317895,-129.01845576413734 L-34.01750379195379,-129.0118080197765 L-34.15325753131023,-129.00958496859016 L-34.28901127066667,-129.0118080197765 L-34.42345762730257,-129.01845576413734 L-34.555301809307664,-129.02946418026048 L-34.68327408513588,-129.0447272510808 L-34.80614201181424,-129.06409798488266 L-34.92272230404238,-129.0873898309105 L-35.03189222987688,-129.11437847595437 L-35.1326004232536,-129.14480400460906 L-35.223877009217624,-129.1783734024013 L-35.304842944349254,-129.21476337767945 L-35.374718482432705,-129.25362347508883 L-35.4052827022862,-129.27386370045653 L-35.43283068383836,-129.29457945064829 L-35.457296061588714,-129.31572081960744 L-35.47861989629934,-129.33723687592436 L-35.49675081698467,-129.35907578553483 L-35.511645144668705,-129.38118493659272 L-35.52326699761145,-129.4035110662166 L-35.53158837775123,-129.42600038880468 L-35.53658923815439,-129.448598725609 L-35.53825753131023,-129.47125163525683 " />
			<path d="M-35.53825753131023,-129.47125163525683 L-35.534504813810216,-129.50521394211867 L-35.52326699761145,-129.53899220429707 L-35.50460498141359,-129.5724033744626 L-35.47861989629934,-129.6052663945893 L-35.44545255769634,-129.63740317712382 L-35.4052827022862,-129.66863957005714 L-35.358328013995795,-129.6988063006696 L-35.304842944349254,-129.72773989283422 L-35.245117333573084,-129.75528355290822 L-35.17947483992685,-129.78128801941122 L-35.108271185771066,-129.8056123718861 L-35.03189222987688,-129.8281247945593 L-34.95075187642395,-129.8487032906618 L-34.865289832017844,-129.8672363435403 L-34.77596922288186,-129.88362352097542 L-34.683274085135885,-129.89777601943288 L-34.587706741762695,-129.9096171452973 L-34.48978508047625,-129.91908273048165 L-34.39003974724325,-129.92612148015974 L-34.28901127066668,-129.93069525073716 L-34.18724713281446,-129.9327792565549 L-34.08529880236676,-129.93236220420488 L-33.98371874615932,-129.9294463537299 L-33.883057435317895,-129.92404750637633 L-33.7838603622075,-129.91619491896574 L-33.686665084362005,-129.90593114534965 L-33.59199831141332,-129.89331180580663 L-33.500373050806225,-129.878405285631 L-33.4122858277666,-129.86129236454713 L-33.32821399458821,-129.84206577895708 L-33.24861314381925,-129.820829719394 L-33.17391463936687,-129.79769926590464 " />
			<path d="M-63.99316369738253,-135.41094859722386 L-55.50788232314396,-138.23937572197005 " />
			<path d="M-57.003413165353514,-141.04069708677073 L-57.005391728828876,-140.95707605444755 L-57.01131942468339,-140.8724738584436 L-57.02117230150513,-140.78723234187905 L-57.034910547819756,-140.70169593110887 L-57.0524786529525,-140.61621024403576 L-57.07380563132431,-140.5311206936085 L-57.09880530927569,-140.44677109214862 L-57.12737667325949,-140.3635022621443 L-57.15940427799566,-140.28165065912515 L-57.19475871293871,-140.20154701218198 L-57.23329712517318,-140.12351498762493 L-57.27486379662428,-140.04786988117925 L-57.319290773251396,-139.97491734400333 L-57.366398543682166,-139.90495214767657 L-57.415996764545035,-139.83825699314696 L-57.46788502956952,-139.7751013684515 L-57.52185367934662,-139.7157404598243 L-57.57768464847728,-139.66041412059292 L-57.63515234668618,-139.6093459020281 L-57.69402457034041,-139.56274215006417 L-57.75406344069005,-139.5207911715387 L-57.815026365039614,-139.4836624733211 L-57.87666701696666,-139.45150607740428 L-57.93873633162676,-139.42445191472657 L-58.00098351212348,-139.4026093001737 L-58.06315704287676,-139.38606649088155 L-58.125005705895234,-139.374890329625 L-58.18627959584614,-139.36912597473352 L-58.24673112982129,-139.3687967176245 L-58.30611604771908,-139.37390388869218 L-58.36419439920032,-139.38442685193218 L-58.420731513230194,-139.400323088323 " />
			<path d="M-58.4207315132302,-139.400323088323 L-58.46318482668275,-139.41623272819962 L-58.50448074514925,-139.43526940406664 L-58.544519783145034,-139.4573872549045 L-58.58320548312056,-139.4825329968732 L-58.620444647836116,-139.51064605167787 L-58.65614756488214,-139.54165869250704 L-58.690228222804265,-139.5754962071926 L-58.72260451831243,-139.6120770781978 L-58.75319845407495,-139.65131317900037 L-58.78193632662084,-139.69310998639673 L-58.808748903898,-139.73736680821693 L-58.83357159205927,-139.78397702590073 L-58.85634459107467,-139.83282835135117 L-58.87701303879487,-139.8838030974464 L-58.89552714311898,-139.93677846155816 L-58.91184230194804,-139.99162682139428 L-58.9259192106354,-140.0482160424517 L-58.93772395667503,-140.1064097963403 L-58.947228101399745,-140.16606788920978 L-58.95440874849244,-140.227046599489 L-58.959248599145326,-140.28919902412377 L-58.96173599373425,-140.35237543247925 L-58.961864939907784,-140.41642362705412 L-58.9596351270233,-140.48118931013767 L-58.955051926895344,-140.54651645552656 L-58.94812638085446,-140.61224768440556 L-58.93887517314768,-140.6782246444869 L-58.927320590744664,-140.7442883914949 L-58.91349046964649,-140.81027977207648 L-58.89741812782626,-140.87603980721568 L-58.8791422849632,-140.94141007522794 L-58.85870696916352,-141.00623309341185 L-58.83616141089292,-141.07035269743878 L-58.81155992437603,-141.1336144175664 L-58.784961776748695,-141.1958658507699 L-58.756431045278276,-141.25695702789406 L-58.72603646299589,-141.31674077494228 L-58.6938512531125,-141.37507306763143 L-58.65995295261781,-141.43181337835915 L-58.624423225486844,-141.48682501474704 L-58.5873476659443,-141.53997544894457 L-58.54881559226056,-141.59113663690033 L-58.50891983157613,-141.64018532683136 L-58.467756496272955,-141.68700335614744 L-58.42542475243127,-141.7314779361152 L-58.38202658092981,-141.77350192357596 L-58.337666531764945,-141.81297407906308 L-58.2924514721806,-141.8497993106966 L-58.24649032921569,-141.88388890326803 L-58.19989382728933,-141.915160731963 L-58.15277422145604,-141.94353946020706 L-58.105245026973456,-141.96895672115818 L-58.05742074583416,-141.99135128240846 L-58.00941659092031,-142.0106691934983 L-57.961348208445784,-142.02686391588787 L-57.91333139935424,-142.0398964350724 L-57.86548184034457,-142.04973535457168 L-57.81791480519554,-142.05635697156683 L-57.77074488706121,-142.05974533400257 L-57.724085722405974,-142.05989227901696 L-57.67804971724433,-142.05679745260662 L-57.63274777634499,-142.05046831047943 L-57.58828903605157,-142.04092010009316 L-57.54478060136356,-142.0281758239229 " />
			<path d="M-57.54478060136356,-142.0281758239229 L-57.48526410331189,-142.00484319813717 L-57.42812874411199,-141.9753334213918 L-57.37364798994256,-141.93978773592275 L-57.322082601283036,-141.8983762735522 L-57.27367938483924,-141.85129724138923 L-57.22867001225591,-141.79877597315365 L-57.187269911269915,-141.74106385066446 L-57.14967723461143,-141.67843710065458 L-57.116071911588286,-141.61119547267052 L-57.08661478689282,-141.5396608043853 L-57.06144685075313,-141.46417548119146 L-57.04068856411352,-141.38510079744628 L-57.02443928207396,-141.30281522721384 L-57.01277677834809,-141.21771261277968 L-57.00575687301604,-141.13020027960908 L-57.003413165353514,-141.04069708677076 " />
			<path d="M30.052038200428285,-172.41620347931985 L30.052038200428285,-166.75934922982748 " />
			<path d="M30.052038200428285,-166.75934922982748 L21.566756826189717,-163.9309221050813 " />
			<path d="M25.020973452285993,-168.38215929265058 L25.018994888810628,-168.2985382603274 L25.013067192956115,-168.21393606432346 L25.003214316134375,-168.1286945477589 L24.989476069819755,-168.04315813698872 L24.971907964687002,-167.9576724499156 L24.950580986315195,-167.87258289948835 L24.92558130836382,-167.78823329802847 L24.897009944380013,-167.70496446802414 L24.86498233964384,-167.623112865005 L24.829627904700796,-167.54300921806183 L24.791089492466327,-167.46497719350478 L24.749522821015226,-167.3893320870591 L24.705095844388108,-167.31637954988318 L24.657988073957338,-167.24641435355642 L24.608389853094472,-167.1797191990268 L24.55650158806998,-167.11656357433134 L24.502532938292884,-167.05720266570415 L24.446701969162223,-167.00187632647277 L24.389234270953324,-166.95080810790796 L24.330362047299097,-166.90420435594402 L24.270323176949464,-166.86225337741854 L24.209360252599893,-166.82512467920094 L24.147719600672854,-166.79296828328413 L24.085650286012747,-166.76591412060642 L24.023403105516024,-166.74407150605356 L23.961229574762747,-166.7275286967614 L23.899380911744274,-166.71635253550485 L23.838107021793366,-166.71058818061337 L23.777655487818212,-166.71025892350434 L23.71827056992043,-166.71536609457203 L23.660192218439185,-166.72588905781203 L23.603655104409313,-166.74178529420286 " />
			<path d="M23.603655104409306,-166.74178529420286 L23.56120179095676,-166.75769493407947 L23.519905872490252,-166.7767316099465 L23.47986683449447,-166.79884946078434 L23.441181134518946,-166.82399520275305 L23.40394196980339,-166.85210825755772 L23.368239052757367,-166.8831208983869 L23.334158394835246,-166.91695841307245 L23.301782099327074,-166.95353928407766 L23.271188163564563,-166.99277538488022 L23.24245029101867,-167.03457219227658 L23.215637713741508,-167.07882901409678 L23.190815025580235,-167.12543923178058 L23.16804202656484,-167.17429055723102 L23.14737357884464,-167.22526530332624 L23.128859474520524,-167.278240667438 L23.112544315691462,-167.33308902727413 L23.098467407004108,-167.38967824833156 L23.086662660964482,-167.44787200222015 L23.077158516239766,-167.50753009508963 L23.069977869147067,-167.56850880536885 L23.06513801849418,-167.63066123000362 L23.062650623905256,-167.6938376383591 L23.062521677731723,-167.75788583293397 L23.06475149061621,-167.82265151601752 L23.069334690744167,-167.8879786614064 L23.076260236785046,-167.9537098902854 L23.085511444491832,-168.01968685036675 L23.097066026894844,-168.08575059737475 L23.110896147993014,-168.15174197795633 L23.12696848981324,-168.21750201309553 L23.14524433267631,-168.28287228110779 L23.165679648475983,-168.3476952992917 L23.188225206746587,-168.41181490331863 L23.21282669326348,-168.47507662344626 L23.239424840890813,-168.53732805664976 L23.267955572361227,-168.5984192337739 L23.298350154643614,-168.65820298082213 L23.33053536452701,-168.71653527351128 L23.3644336650217,-168.773275584239 L23.399963392152667,-168.8282872206269 L23.437038951695207,-168.88143765482442 L23.475571025378947,-168.93259884278018 L23.515466786063378,-168.9816475327112 L23.55663012136655,-169.0284655620273 L23.598961865208235,-169.07294014199505 L23.6423600367097,-169.1149641294558 L23.686720085874562,-169.15443628494293 L23.731935145458905,-169.19126151657645 L23.777896288423815,-169.22535110914788 L23.824492790350174,-169.25662293784285 L23.871612396183465,-169.2850016660869 L23.91914159066605,-169.31041892703803 L23.966965871805353,-169.3328134882883 L24.014970026719194,-169.35213139937815 L24.063038409193723,-169.36832612176772 L24.111055218285262,-169.38135864095224 L24.158904777294936,-169.39119756045153 L24.206471812443965,-169.39781917744668 L24.25364173057829,-169.40120753988242 L24.300300895233537,-169.4013544848968 L24.346336900395183,-169.39825965848647 L24.39163884129452,-169.39193051635928 L24.436097581587937,-169.382382305973 L24.47960601627594,-169.36963802980276 " />
			<path d="M24.479606016275945,-169.36963802980276 L24.539122514327612,-169.34630540401702 L24.59625787352752,-169.31679562727166 L24.650738627696942,-169.2812499418026 L24.70230401635647,-169.23983847943205 L24.75070723280027,-169.19275944726908 L24.795716605383593,-169.1402381790335 L24.83711670636959,-169.0825260565443 L24.874709383028076,-169.01989930653443 L24.90831470605122,-168.95265767855037 L24.93777183074669,-168.88112301026516 L24.96293976688638,-168.8056376870713 L24.98369805352598,-168.72656300332613 L24.999947335565547,-168.6442774330937 L25.011609839291417,-168.55917481865953 L25.018629744623464,-168.47166248548893 L25.020973452285993,-168.3821592926506 " />
			<path d="M35.001785668734115,-165.10943340705887 L30.05203820042828,-166.75934922982748 " />
			<path d="M33.50625482652456,-168.9077753333326 L33.503911118862035,-168.81827214049426 L33.496891213529985,-168.73075980732366 L33.48522870980411,-168.6456571928895 L33.46897942776455,-168.56337162265706 L33.44822114112495,-168.48429693891188 L33.42305320498526,-168.40881161571804 L33.39359608028979,-168.33727694743283 L33.359990757266644,-168.27003531944877 L33.32239808060816,-168.20740856943888 L33.280997979622164,-168.1496964469497 L33.235988607038834,-168.0971751787141 L33.18758539059504,-168.05009614655114 L33.13602000193551,-168.0086846841806 L33.08153924776609,-167.97313899871153 L33.024403888566184,-167.94362922196618 L32.96488739051452,-167.92029659618044 " />
			<path d="M32.96488739051451,-167.92029659618044 L32.921378955826505,-167.90755232001018 L32.87692021553308,-167.8980041096239 L32.83161827463375,-167.89167496749673 L32.7855822694721,-167.88858014108638 L32.73892310481686,-167.88872708610077 L32.69175318668253,-167.89211544853652 L32.6441861515335,-167.89873706553166 L32.59633659252383,-167.90857598503095 L32.54831978343229,-167.9216085042155 L32.500251400957765,-167.93780322660504 L32.45224724604392,-167.95712113769488 L32.40442296490462,-167.97951569894516 L32.35689377042203,-168.00493295989628 L32.309774164588745,-168.03331168814034 L32.263177662662386,-168.0645835168353 L32.21721651969747,-168.09867310940675 L32.17200146011313,-168.13549834104026 L32.127641410948264,-168.17497049652738 L32.084243239446806,-168.21699448398815 L32.04191149560512,-168.2614690639559 L32.000748160301946,-168.30828709327199 L31.960852399617515,-168.357335783203 L31.922320325933775,-168.40849697115877 L31.885244766391235,-168.4616474053563 L31.849715039260268,-168.5166590417442 L31.815816738765577,-168.5733993524719 L31.783631528882186,-168.63173164516107 L31.753236946599795,-168.69151539220928 L31.72470621512938,-168.75260656933344 L31.698108067502048,-168.81485800253694 L31.673506580985155,-168.87811972266456 L31.65096102271455,-168.9422393266915 L31.630525706914877,-169.0070623448754 L31.612249864051808,-169.07243261288767 L31.59617752223158,-169.13819264802686 L31.58234740113341,-169.20418402860844 L31.5707928187304,-169.27024777561644 L31.561541611023614,-169.33622473569778 L31.554616064982735,-169.40195596457679 L31.550032864854778,-169.46728310996568 L31.54780305197029,-169.53204879304923 L31.547931998143824,-169.5960969876241 L31.55041939273275,-169.65927339597957 L31.555259243385635,-169.72142582061434 L31.562439890478334,-169.78240453089356 L31.57194403520305,-169.84206262376304 L31.583748781242676,-169.90025637765163 L31.59782568993003,-169.95684559870907 L31.614140848759092,-170.01169395854518 L31.632654953083208,-170.06466932265695 L31.65332340080341,-170.11564406875218 L31.676096399818803,-170.16449539420262 L31.700919087980076,-170.2111056118864 L31.727731665257238,-170.2553624337066 L31.75646953780313,-170.29715924110297 L31.78706347356564,-170.33639534190553 L31.819439769073814,-170.37297621291074 L31.853520426995935,-170.4068137275963 L31.889223344041955,-170.43782636842548 L31.926462508757513,-170.46593942323014 L31.965148208733037,-170.49108516519885 L32.00518724672882,-170.5132030160367 L32.046483165195326,-170.53223969190373 L32.08893647864787,-170.54814933178034 " />
			<path d="M32.088936478647874,-170.54814933178034 L32.14547359267775,-170.56404556817117 L32.203551944158995,-170.57456853141116 L32.26293686205678,-170.57967570247885 L32.32338839603193,-170.57934644536982 L32.38466228598284,-170.57358209047834 L32.446510949001315,-170.5624059292218 L32.50868447975459,-170.54586311992963 L32.57093166025132,-170.52402050537677 L32.63300097491142,-170.49696634269907 L32.69464162683846,-170.46480994678225 L32.75560455118803,-170.42768124856465 L32.815643421537665,-170.38573027003918 L32.87451564519189,-170.33912651807523 L32.931983343400795,-170.28805829951042 L32.987814312531455,-170.23273196027904 L33.04178296230855,-170.17337105165186 L33.09367122733304,-170.1102154269564 L33.14326944819591,-170.04352027242678 L33.19037721862667,-169.9735550761 L33.234804195253794,-169.9006025389241 L33.276370866704895,-169.8249574324784 L33.31490927893937,-169.74692540792137 L33.35026371388241,-169.6668217609782 L33.382291318618584,-169.58497015795905 L33.410862682602385,-169.50170132795472 L33.43586236055376,-169.41735172649484 L33.45718933892557,-169.3322621760676 L33.47475744405832,-169.24677648899447 L33.48849569037294,-169.1612400782243 L33.49834856719468,-169.07599856165973 L33.5042762630492,-168.9913963656558 L33.50625482652456,-168.9077753333326 " />
			<path d="M54.94219689819475,-160.81965226786045 L59.89194436650058,-159.16973644509184 " />
			<path d="M55.92153979013811,-159.49618407573962 L56.01281637610214,-159.46261467794739 L56.09378231123377,-159.42622470266923 L56.16365784931722,-159.38736460525985 L56.19422206917071,-159.36712437989215 L56.221770050722874,-159.3464086297004 L56.24623542847323,-159.32526726074124 L56.267559263183855,-159.30375120442432 L56.285690183869185,-159.28191229481385 L56.30058451155322,-159.25980314375596 L56.312206364495964,-159.23747701413205 L56.32052774463574,-159.214987691544 L56.32552860503891,-159.19238935473967 L56.32719689819474,-159.16973644509184 " />
			<path d="M56.32719689819474,-159.16973644509184 L56.32552860503891,-159.147083535444 L56.32052774463574,-159.1244851986397 L56.312206364495964,-159.1019958760516 L56.30058451155322,-159.07966974642773 L56.285690183869185,-159.05756059536984 L56.267559263183855,-159.03572168575937 L56.24623542847323,-159.01420562944244 L56.221770050722874,-158.9930642604833 L56.19422206917071,-158.97234851029154 L56.16365784931722,-158.95210828492384 L56.09378231123377,-158.91324818751445 L56.01281637610214,-158.8768582122363 L55.92153979013811,-158.84328881444407 L55.820831596761394,-158.81286328578938 L55.711661670926894,-158.7858746407455 L55.59508137869875,-158.76258279471767 L55.47221345202039,-158.7432120609158 L55.34424117619218,-158.72794899009548 L55.21239699418708,-158.71694057397235 L55.07795063755118,-158.71029282961152 L54.942196898194744,-158.70806977842517 L54.806443158838306,-158.71029282961152 L54.67199680220241,-158.71694057397235 L54.54015262019731,-158.72794899009548 L54.4121803443691,-158.7432120609158 L54.28931241769074,-158.76258279471767 L54.172732125462595,-158.7858746407455 L54.063562199628095,-158.81286328578938 L53.962854006251376,-158.84328881444407 L53.87157742028735,-158.8768582122363 L53.79061148515572,-158.91324818751445 L53.72073594707227,-158.95210828492384 L53.690171727218775,-158.97234851029154 L53.662623745666615,-158.9930642604833 L53.63815836791626,-159.01420562944244 L53.61683453320563,-159.03572168575937 L53.5987036125203,-159.05756059536984 L53.58380928483627,-159.07966974642773 L53.572187431893525,-159.1019958760516 L53.56386605175375,-159.1244851986397 L53.55886519135058,-159.147083535444 L53.557196898194746,-159.16973644509184 " />
			<path d="M53.557196898194746,-159.16973644509184 L53.56094961569476,-159.20369875195368 L53.572187431893525,-159.23747701413208 L53.59084944809138,-159.2708881842976 L53.61683453320563,-159.30375120442432 L53.650001871808634,-159.33588798695882 L53.690171727218775,-159.36712437989215 L53.73712641550918,-159.3972911105046 L53.79061148515572,-159.42622470266923 L53.85033709593189,-159.45376836274323 L53.91597958957813,-159.47977282924623 L53.98718324373391,-159.5040971817211 L54.063562199628095,-159.5266096043943 L54.144702553081025,-159.5471881004968 L54.23016459748713,-159.5657211533753 L54.31948520662311,-159.58210833081043 L54.41218034436909,-159.5962608292679 L54.50774768774228,-159.6081019551323 L54.60566934902872,-159.61756754031666 L54.705414682261726,-159.62460628999474 L54.8064431588383,-159.62918006057217 L54.90820729669051,-159.63126406638992 L55.01015562713822,-159.6308470140399 L55.11173568334566,-159.6279311635649 L55.21239699418708,-159.62253231621133 L55.31159406729748,-159.61467972880075 L55.40878934514297,-159.60441595518466 L55.503456118091655,-159.59179661564164 L55.59508137869875,-159.576890095466 L55.68316860173837,-159.55977717438213 L55.767240434916765,-159.5405505887921 L55.84684128568573,-159.519314529229 L55.921539790138105,-159.49618407573965 " />
			<path d="M-21.72939138586259,-139.89636261255055 L-21.650306979251162,-139.86727721374137 L-21.580155988523394,-139.83574799328375 L-21.51961400606842,-139.80207859480632 L-21.469264084272904,-139.76659327302195 L-21.448066645066824,-139.74827584143281 L-21.429591120407796,-139.7296337709777 L-21.413882019452995,-139.71071197203722 L-21.40097718680257,-139.69155602888236 L-21.39090771132871,-139.67221208985805 L-21.38369785127981,-139.65272675620773 L-21.37936497584024,-139.6331469698069 L-21.377919523286447,-139.61351990007591 " />
			<path d="M-21.377919523286447,-139.61351990007591 L-21.37936497584024,-139.59389283034494 L-21.38369785127981,-139.5743130439441 L-21.39090771132871,-139.55482771029378 L-21.40097718680257,-139.53548377126947 L-21.413882019452995,-139.5163278281146 L-21.429591120407796,-139.49740602917413 L-21.44806664506682,-139.47876395871901 L-21.469264084272904,-139.46044652712987 L-21.51961400606842,-139.4249612053455 L-21.580155988523394,-139.39129180686808 L-21.650306979251162,-139.35976258641045 L-21.72939138586259,-139.33067718760128 L-21.816647582290074,-139.3043157187308 L-21.911235243662922,-139.2809320551549 L-22.01224343909525,-139.26075139433658 L-22.11869940444834,-139.2439680870714 L-22.229577910581092,-139.23074376578302 L-22.343811136867092,-139.2212057879146 L-22.460298954890973,-139.21544600940703 L-22.577919523286447,-139.2135199000759 L-22.69554009168192,-139.21544600940703 L-22.8120279097058,-139.2212057879146 L-22.9262611359918,-139.23074376578302 L-23.037139642124554,-139.2439680870714 L-23.143595607477643,-139.26075139433658 L-23.244603802909968,-139.2809320551549 L-23.33919146428282,-139.3043157187308 L-23.426447660710302,-139.33067718760128 L-23.50553206732173,-139.35976258641045 L-23.575683058049503,-139.39129180686808 L-23.636225040504474,-139.4249612053455 L-23.68657496229999,-139.46044652712987 L-23.707772401506073,-139.47876395871901 L-23.726247926165097,-139.49740602917413 L-23.7419570271199,-139.5163278281146 L-23.754861859770322,-139.53548377126947 L-23.764931335244185,-139.55482771029378 L-23.772141195293084,-139.5743130439441 L-23.776474070732654,-139.59389283034494 L-23.777919523286446,-139.61351990007591 " />
			<path d="M-23.777919523286446,-139.61351990007591 L-23.774668071300876,-139.64294572551577 L-23.764931335244185,-139.67221208985805 L-23.748762079332682,-139.70116039613868 L-23.726247926165097,-139.7296337709777 L-23.697510881888135,-139.7574779146899 L-23.662706675034578,-139.78454193744804 L-23.6220239126169,-139.81067917696782 L-23.575683058049503,-139.83574799328375 L-23.523935236438376,-139.85961253630816 L-23.4670608737124,-139.88214348201473 L-23.405368176970928,-139.9032187332565 L-23.339191464282823,-139.922724081421 L-23.268889352987863,-139.94055382533654 L-23.194842816318314,-139.956611344076 L-23.117453118871975,-139.97080962055412 L-23.037139642124554,-139.98307171308042 L-22.95433761176512,-139.99333117231313 L-22.869495739170365,-140.00153240135373 L-22.78307378979881,-140.0076309570315 L-22.69554009168192,-140.0115937907448 L-22.60736899751394,-140.0133994275544 L-22.519038314093546,-140.01303808255798 L-22.431026713047387,-140.0105117139154 L-22.343811136867092,-140.00583401223722 L-22.25786421431657,-139.9990303263941 L-22.17365169921578,-139.9901375261491 L-22.09162994648046,-139.97920380235732 L-22.01224343909525,-139.96628840581525 L-21.935922379421932,-139.9514613261758 L-21.863080357895527,-139.93480291266818 L-21.794112111741914,-139.91640343867851 L-21.7293913858626,-139.89636261255055 " />
			<path d="M13.307749621930837,-128.8065712609415 L13.386834028542264,-128.77748586213232 L13.456985019270034,-128.7459566416747 L13.517527001725005,-128.71228724319727 L13.567876923520524,-128.6768019214129 L13.589074362726604,-128.65848448982376 L13.60754988738563,-128.63984241936865 L13.623258988340432,-128.62092062042817 L13.636163820990856,-128.6017646772733 L13.646233296464716,-128.582420738249 L13.653443156513616,-128.56293540459868 L13.657776031953187,-128.54335561819784 L13.659221484506979,-128.52372854846686 " />
			<path d="M13.659221484506979,-128.52372854846686 L13.657776031953187,-128.5041014787359 L13.653443156513616,-128.48452169233505 L13.646233296464716,-128.46503635868473 L13.636163820990856,-128.44569241966042 L13.623258988340432,-128.42653647650556 L13.60754988738563,-128.40761467756508 L13.589074362726604,-128.38897260710996 L13.567876923520524,-128.37065517552082 L13.517527001725005,-128.33516985373646 L13.456985019270034,-128.30150045525903 L13.386834028542264,-128.2699712348014 L13.307749621930837,-128.24088583599223 L13.220493425503355,-128.21452436712175 L13.125905764130502,-128.19114070354584 L13.024897568698178,-128.17096004272753 L12.918441603345087,-128.15417673546236 L12.807563097212334,-128.14095241417397 L12.693329870926334,-128.13141443630556 L12.576842052902453,-128.12565465779798 L12.45922148450698,-128.12372854846686 L12.341600916111506,-128.12565465779798 L12.225113098087625,-128.13141443630556 L12.110879871801625,-128.14095241417397 L12.000001365668872,-128.15417673546236 L11.893545400315782,-128.17096004272753 L11.792537204883457,-128.19114070354584 L11.697949543510605,-128.21452436712175 L11.610693347083123,-128.24088583599223 L11.531608940471695,-128.2699712348014 L11.461457949743926,-128.30150045525903 L11.400915967288954,-128.33516985373646 L11.350566045493435,-128.37065517552082 L11.329368606287355,-128.38897260710996 L11.310893081628329,-128.40761467756508 L11.295183980673528,-128.42653647650556 L11.282279148023104,-128.44569241966042 L11.272209672549243,-128.46503635868473 L11.264999812500344,-128.48452169233505 L11.260666937060773,-128.5041014787359 L11.25922148450698,-128.52372854846686 " />
			<path d="M11.25922148450698,-128.52372854846686 L11.262472936492552,-128.55315437390672 L11.272209672549243,-128.582420738249 L11.288378928460745,-128.61136904452962 L11.310893081628329,-128.63984241936865 L11.339630125905293,-128.66768656308085 L11.374434332758847,-128.694750585839 L11.415117095176527,-128.72088782535877 L11.461457949743926,-128.7459566416747 L11.513205771355052,-128.7698211846991 L11.570080134081028,-128.79235213040567 L11.631772830822499,-128.81342738164744 L11.697949543510605,-128.83293272981194 L11.768251654805564,-128.85076247372749 L11.842298191475113,-128.86681999246696 L11.919687888921452,-128.88101826894507 L12.000001365668872,-128.89328036147137 L12.082803396028309,-128.90353982070408 L12.167645268623062,-128.91174104974468 L12.254067217994617,-128.91783960542244 L12.341600916111506,-128.92180243913575 L12.429772010279484,-128.92360807594534 L12.51810269369988,-128.92324673094893 L12.606114294746039,-128.92072036230635 L12.693329870926332,-128.91604266062816 L12.779276793476857,-128.90923897478504 L12.863489308577643,-128.90034617454006 L12.945511061312967,-128.88941245074827 L13.024897568698178,-128.8764970542062 L13.101218628371496,-128.86166997456675 L13.1740606498979,-128.84501156105912 L13.243028896051511,-128.82661208706946 L13.30774962193083,-128.8065712609415 " />
			<path d="M36.60691806202757,-159.3417990951806 L36.686002468638996,-159.31271369637142 L36.756153459366764,-159.2811844759138 L36.816695441821736,-159.24751507743636 L36.86704536361726,-159.212029755652 L36.888242802823335,-159.19371232406286 L36.90671832748236,-159.17507025360774 L36.92242742843717,-159.15614845466726 L36.93533226108759,-159.1369925115124 L36.94540173656145,-159.1176485724881 L36.952611596610346,-159.09816323883777 L36.95694447204992,-159.07858345243693 L36.958389924603715,-159.05895638270596 " />
			<path d="M36.958389924603715,-159.05895638270596 L36.95694447204992,-159.03932931297498 L36.952611596610346,-159.01974952657415 L36.94540173656145,-159.00026419292382 L36.93533226108759,-158.9809202538995 L36.92242742843717,-158.96176431074466 L36.90671832748236,-158.94284251180417 L36.888242802823335,-158.92420044134906 L36.86704536361726,-158.90588300975992 L36.816695441821736,-158.87039768797555 L36.756153459366764,-158.83672828949813 L36.686002468638996,-158.8051990690405 L36.60691806202757,-158.77611367023133 L36.519661865600085,-158.74975220136085 L36.425074204227236,-158.72636853778494 L36.32406600879491,-158.70618787696662 L36.21761004344182,-158.68940456970145 L36.10673153730907,-158.67618024841306 L35.99249831102306,-158.66664227054466 L35.876010492999185,-158.66088249203708 L35.75838992460371,-158.65895638270595 L35.64076935620824,-158.66088249203708 L35.52428153818436,-158.66664227054466 L35.41004831189836,-158.67618024841306 L35.2991698057656,-158.68940456970145 L35.192713840412516,-158.70618787696662 L35.09170564498019,-158.72636853778494 L34.99711798360734,-158.74975220136085 L34.90986178717986,-158.77611367023133 L34.83077738056843,-158.8051990690405 L34.76062638984066,-158.83672828949813 L34.70008440738569,-158.87039768797555 L34.649734485590166,-158.90588300975992 L34.62853704638409,-158.92420044134906 L34.610061521725065,-158.94284251180417 L34.59435242077026,-158.96176431074466 L34.581447588119836,-158.9809202538995 L34.571378112645974,-159.00026419292382 L34.56416825259708,-159.01974952657415 L34.559835377157505,-159.03932931297498 L34.55838992460371,-159.05895638270596 " />
			<path d="M34.55838992460371,-159.05895638270596 L34.561641376589286,-159.08838220814582 L34.571378112645974,-159.1176485724881 L34.58754736855748,-159.14659687876872 L34.61006152172506,-159.17507025360774 L34.63879856600202,-159.20291439731994 L34.67360277285558,-159.22997842007808 L34.714285535273255,-159.25611565959787 L34.76062638984066,-159.2811844759138 L34.81237421145178,-159.3050490189382 L34.86924857417776,-159.32757996464477 L34.930941270919234,-159.34865521588654 L34.99711798360734,-159.36816056405104 L35.067420094902296,-159.38599030796658 L35.141466631571845,-159.40204782670605 L35.21885632901818,-159.41624610318416 L35.2991698057656,-159.42850819571046 L35.38197183612504,-159.43876765494318 L35.46681370871979,-159.44696888398377 L35.55323565809135,-159.45306743966154 L35.64076935620824,-159.45703027337484 L35.728940450376214,-159.45883591018443 L35.817271133796616,-159.45847456518803 L35.90528273484277,-159.45594819654545 L35.99249831102306,-159.45127049486726 L36.07844523357359,-159.44446680902414 L36.16265774867438,-159.43557400877916 L36.2446795014097,-159.42464028498736 L36.32406600879491,-159.4117248884453 L36.40038706846823,-159.39689780880585 L36.47322908999463,-159.38023939529822 L36.54219733614824,-159.36183992130856 L36.60691806202756,-159.3417990951806 " />
			<path d="M66.30540287186257,-146.47245567758543 L66.384487278474,-146.44337027877626 L66.45463826920177,-146.41184105831863 L66.51518025165674,-146.3781716598412 L66.56553017345226,-146.34268633805684 L66.58672761265834,-146.3243689064677 L66.60520313731736,-146.30572683601258 L66.62091223827217,-146.2868050370721 L66.63381707092259,-146.26764909391724 L66.64388654639644,-146.24830515489293 L66.65109640644535,-146.2288198212426 L66.65542928188492,-146.20924003484177 L66.65687473443872,-146.1896129651108 " />
			<path d="M66.65687473443872,-146.1896129651108 L66.65542928188492,-146.16998589537982 L66.65109640644535,-146.15040610897898 L66.64388654639644,-146.13092077532866 L66.63381707092259,-146.11157683630435 L66.62091223827217,-146.0924208931495 L66.60520313731736,-146.073499094209 L66.58672761265834,-146.0548570237539 L66.56553017345226,-146.03653959216476 L66.51518025165674,-146.0010542703804 L66.45463826920177,-145.96738487190296 L66.384487278474,-145.93585565144534 L66.30540287186257,-145.90677025263616 L66.2181466754351,-145.8804087837657 L66.12355901406224,-145.85702512018977 L66.02255081862991,-145.83684445937146 L65.91609485327682,-145.8200611521063 L65.80521634714407,-145.8068368308179 L65.69098312085806,-145.7972988529495 L65.57449530283418,-145.7915390744419 L65.45687473443871,-145.7896129651108 L65.33925416604325,-145.7915390744419 L65.22276634801936,-145.7972988529495 L65.10853312173336,-145.8068368308179 L64.99765461560061,-145.8200611521063 L64.89119865024752,-145.83684445937146 L64.79019045481519,-145.85702512018977 L64.69560279344233,-145.8804087837657 L64.60834659701486,-145.90677025263616 L64.52926219040343,-145.93585565144534 L64.45911119967566,-145.96738487190296 L64.39856921722068,-146.0010542703804 L64.34821929542517,-146.03653959216476 L64.32702185621909,-146.0548570237539 L64.30854633156007,-146.073499094209 L64.29283723060526,-146.0924208931495 L64.27993239795484,-146.11157683630435 L64.26986292248098,-146.13092077532866 L64.26265306243208,-146.15040610897898 L64.2583201869925,-146.16998589537982 L64.25687473443871,-146.1896129651108 " />
			<path d="M64.25687473443871,-146.1896129651108 L64.26012618642429,-146.21903879055066 L64.26986292248098,-146.24830515489293 L64.28603217839247,-146.27725346117356 L64.30854633156007,-146.30572683601258 L64.33728337583703,-146.33357097972478 L64.37208758269058,-146.36063500248292 L64.41277034510826,-146.3867722420027 L64.45911119967566,-146.41184105831863 L64.51085902128679,-146.43570560134305 L64.56773338401277,-146.4582365470496 L64.62942608075423,-146.47931179829138 L64.69560279344233,-146.4988171464559 L64.7659049047373,-146.51664689037142 L64.83995144140685,-146.53270440911092 L64.91734113885319,-146.546902685589 L64.99765461560061,-146.5591647781153 L65.08045664596004,-146.56942423734802 L65.16529851855479,-146.5776254663886 L65.25172046792635,-146.58372402206638 L65.33925416604323,-146.58768685577968 L65.42742526021122,-146.58949249258927 L65.51575594363162,-146.58913114759287 L65.60376754467777,-146.5866047789503 L65.69098312085806,-146.5819270772721 L65.7769300434086,-146.57512339142897 L65.86114255850937,-146.566230591184 L65.9431643112447,-146.5552968673922 L66.02255081862991,-146.54238147085013 L66.09887187830323,-146.52755439121069 L66.17171389982963,-146.51089597770306 L66.24068214598324,-146.4924965037134 L66.30540287186257,-146.47245567758543 " />

       </g>
    </g>
    
</svg>
