<?xml version="1.0" encoding="UTF-8" standalone="no"?>
<svg
   xmlns:svg="http://www.w3.org/2000/svg"
   xmlns="http://www.w3.org/2000/svg"
   width="1024.0"
   height="320.0"

>
    <g transform="scale(3.8064813641444064, -3.8064813641444064)   translate(46.88510796367464,83.72340707799052)" stroke-width="0.8866666666666667"  fill="none">
       <!-- hidden lines -->
       <g  stroke="rgb(32,64,32)" fill="none" stroke-dasharray="0.8866666666666667,0.8866666666666667" >

       </g>

       <!-- solid lines -->
       <g  stroke="rgb(64,192,64)" fill="none">
			<path d="M83.79215357060589,-97.46288467354579 L155.91704525163374,-121.50451523388841 " />
			<path d="M169.35207409417814,-128.8112853061494 L169.35207409417814,-125.9828581814032 " />
			<path d="M5.656854249492429,-120.67955732250408 L5.6568542494924285,-117.8511301977579 " />
			<path d="M15.556349186104057,-114.55129855222069 L45.466966030295026,-104.58109293749037 " />
			<path d="M55.366460966906715,-101.28126129195314 L70.3571247280615,-96.2843733715682 " />
			<path d="M169.35207409417814,-128.8112853061494 L99.70205614730325,-152.0279579551077 " />
			<path d="M164.4023266258723,-127.63277400417181 L144.46191539641165,-134.27957774732536 " />
			<path d="M139.51216792810584,-135.92949357009397 L104.65180361560904,-147.5496150075929 " />
			<path d="M99.70205614730324,-152.0279579551077 L99.70205614730324,-149.19953083036154 " />
			<path d="M99.70205614730324,-152.0279579551077 L5.656854249492433,-120.67955732250408 " />
			<path d="M75.30687219636732,-88.97760329930722 L83.79215357060589,-91.8060304240534 " />
			<path d="M83.79215357060589,-97.46288467354579 L83.79215357060589,-91.8060304240534 " />
			<path d="M83.79215357060589,-97.46288467354579 L78.84240610230006,-99.11280049631439 " />
			<path d="M78.84240610230006,-99.11280049631439 L70.35712472806149,-96.28437337156821 " />
			<path d="M55.36646096690668,-104.58109293749038 L50.41671349860085,-106.23100876025899 " />
			<path d="M50.41671349860084,-106.23100876025899 L45.46696603029501,-104.58109293749038 " />
			<path d="M15.556349186104054,-117.85113019775791 L10.60660171779826,-119.50104602052652 " />
			<path d="M94.75230867899741,-147.54961500759288 L10.606601717798263,-119.5010460205265 " />
			<path d="M134.5624204598,-134.27957774732536 L139.51216792810584,-135.92949357009397 " />
			<path d="M155.91704525163374,-124.80434687942562 L164.40232662587232,-127.63277400417181 " />
			<path d="M29.73384014889433,-111.8289374446525 L29.849171575202664,-111.7865212380558 L29.902016461909003,-111.76394974991426 L29.951475103347327,-111.74054112488845 L29.997428349318348,-111.7163517564064 L30.039765494427495,-111.69143991877552 L30.078384544783898,-111.66586562679467 L30.113192463712625,-111.63969049117331 L30.144105395888158,-111.61297757010581 L30.17104886934924,-111.58579121735877 L30.193957974908326,-111.55819692723725 L30.212777522523528,-111.53026117680308 L30.22746217425624,-111.50205126572597 L30.237976553494217,-111.47363515415259 L30.244295330176925,-111.44508129898468 L30.246403281817873,-111.41645848896034 " />
			<path d="M30.246403281817873,-111.41645848896034 L30.244295330176925,-111.38783567893601 L30.237976553494217,-111.3592818237681 L30.22746217425624,-111.33086571219472 L30.212777522523528,-111.30265580111761 L30.193957974908326,-111.27472005068344 L30.17104886934924,-111.24712576056191 L30.14410539588816,-111.21993940781488 L30.113192463712625,-111.19322648674738 L30.078384544783898,-111.16705135112602 L30.039765494427495,-111.14147705914517 L29.997428349318348,-111.11656522151429 L29.951475103347327,-111.09237585303224 L29.902016461909,-111.06896722800643 L29.84917157520266,-111.04639573986489 L29.73384014889433,-111.0039795332682 L29.606591529104254,-110.96553572449875 L29.468651189602177,-110.93143454845053 L29.32134757126337,-110.90200441809047 L29.16609928845678,-110.87752876166209 L29.00440146701318,-110.85824329311656 L28.837811345346097,-110.84433374205847 L28.667933277394603,-110.83593406506823 L28.496403281817873,-110.83312515562702 L28.324873286241143,-110.83593406506823 L28.15499521828965,-110.84433374205847 L27.988405096622564,-110.85824329311656 L27.826707275178965,-110.87752876166209 L27.671458992372376,-110.90200441809047 L27.52415537403357,-110.93143454845053 L27.386215034531492,-110.96553572449875 L27.258966414741415,-111.0039795332682 L27.14363498843308,-111.04639573986489 L27.090790101726743,-111.06896722800643 L27.04133146028842,-111.09237585303224 L26.995378214317398,-111.11656522151429 L26.95304106920825,-111.14147705914517 L26.914422018851848,-111.16705135112602 L26.87961409992312,-111.19322648674738 L26.848701167747585,-111.21993940781488 L26.821757694286507,-111.24712576056191 L26.79884858872742,-111.27472005068344 L26.78002904111222,-111.30265580111761 L26.765344389379507,-111.33086571219472 L26.75483001014153,-111.3592818237681 L26.74851123345882,-111.38783567893601 L26.746403281817873,-111.41645848896034 " />
			<path d="M26.746403281817873,-111.41645848896034 L26.74758910878826,-111.43792936900947 L26.751144982630166,-111.45937115106015 L26.75706608431375,-111.48075477654844 L26.765344389379507,-111.50205126572597 L26.775968678813243,-111.52323175693418 L26.78892455425045,-111.54426754571851 L26.821757694286507,-111.58579121735877 L26.86366588385708,-111.62639726027243 L26.914422018851848,-111.66586562679467 L26.97375104737763,-111.70398243442772 L27.04133146028842,-111.74054112488845 L27.11679703347131,-111.77534358346571 L27.199738812446693,-111.8082012126211 L27.289707328528007,-111.83893595401537 L27.386215034531492,-111.86738125342194 L27.48873894683664,-111.89338296329876 L27.596723479479735,-111.91680017812718 L27.70958345492231,-111.93750599799107 L27.826707275178965,-111.9553882162586 L27.947460236119813,-111.97034992763962 L28.07118796698716,-111.98231005332383 L28.197219976487347,-111.9912037803539 L28.32487328624114,-111.99698291285246 L28.453456131902776,-111.9996161331998 L28.582271711890854,-111.99908917174669 L28.7106219634165,-111.99540488414293 L28.837811345346097,-111.98858323586222 L28.963150607398944,-111.97866119400769 L29.085960525254258,-111.96569252698377 L29.205575581326602,-111.94974751312074 L29.32134757126337,-111.93091255983022 L29.432649116620293,-111.90928973535601 L29.53887706467963,-111.88499621565738 L29.639455756986983,-111.85816364942247 L29.73384014889432,-111.8289374446525 " />
			<path d="M35.03714100779344,-110.06117049168613 L35.15247243410177,-110.01875428508943 L35.205317320808106,-109.99618279694789 L35.25477596224643,-109.97277417192208 L35.300729208217454,-109.94858480344003 L35.3430663533266,-109.92367296580915 L35.381685403683,-109.8980986738283 L35.41649332261173,-109.87192353820694 L35.44740625478726,-109.84521061713944 L35.47434972824834,-109.8180242643924 L35.49725883380743,-109.79042997427088 L35.51607838142263,-109.76249422383671 L35.530763033155345,-109.7342843127596 L35.54127741239332,-109.70586820118622 L35.547596189076025,-109.6773143460183 L35.549704140716976,-109.64869153599398 " />
			<path d="M35.549704140716976,-109.64869153599398 L35.547596189076025,-109.62006872596965 L35.54127741239332,-109.59151487080173 L35.530763033155345,-109.56309875922835 L35.51607838142263,-109.53488884815124 L35.49725883380743,-109.50695309771707 L35.47434972824834,-109.47935880759555 L35.44740625478726,-109.45217245484851 L35.41649332261173,-109.42545953378101 L35.381685403683,-109.39928439815965 L35.3430663533266,-109.3737101061788 L35.300729208217454,-109.34879826854792 L35.25477596224643,-109.32460890006587 L35.205317320808106,-109.30120027504006 L35.15247243410177,-109.27862878689852 L35.03714100779344,-109.23621258030182 L34.90989238800336,-109.19776877153238 L34.77195204850128,-109.16366759548416 L34.62464843016247,-109.1342374651241 L34.469400147355884,-109.10976180869572 L34.30770232591229,-109.09047634015019 L34.1411122042452,-109.0765667890921 L33.97123413629371,-109.06816711210186 L33.799704140716976,-109.06535820266065 L33.62817414514024,-109.06816711210186 L33.45829607718875,-109.0765667890921 L33.291705955521664,-109.09047634015019 L33.13000813407807,-109.10976180869572 L32.97475985127148,-109.1342374651241 L32.827456232932676,-109.16366759548416 L32.689515893430595,-109.19776877153238 L32.562267273640515,-109.23621258030182 L32.446935847332185,-109.27862878689852 L32.394090960625846,-109.30120027504006 L32.344632319187525,-109.32460890006587 L32.2986790732165,-109.34879826854792 L32.256341928107354,-109.3737101061788 L32.21772287775095,-109.39928439815965 L32.182914958822224,-109.42545953378101 L32.15200202664669,-109.45217245484851 L32.12505855318561,-109.47935880759555 L32.10214944762652,-109.50695309771707 L32.08332990001132,-109.53488884815124 L32.06864524827861,-109.56309875922835 L32.05813086904063,-109.59151487080173 L32.05181209235793,-109.62006872596965 L32.049704140716976,-109.64869153599398 " />
			<path d="M32.049704140716976,-109.64869153599398 L32.05088996768736,-109.6701624160431 L32.054445841529265,-109.69160419809378 L32.060366943212856,-109.71298782358207 L32.06864524827861,-109.7342843127596 L32.07926953771235,-109.75546480396781 L32.09222541314955,-109.77650059275214 L32.12505855318561,-109.8180242643924 L32.16696674275618,-109.85863030730606 L32.21772287775095,-109.8980986738283 L32.27705190627673,-109.93621548146135 L32.344632319187525,-109.97277417192208 L32.420097892370414,-110.00757663049934 L32.503039671345796,-110.04043425965473 L32.59300818742711,-110.071169001049 L32.689515893430595,-110.09961430045557 L32.79203980573575,-110.1256160103324 L32.90002433837884,-110.1490332251608 L33.01288431382142,-110.1697390450247 L33.13000813407807,-110.18762126329223 L33.250761095018916,-110.20258297467325 L33.37448882588626,-110.21454310035746 L33.500520835386446,-110.22343682738753 L33.62817414514024,-110.22921595988609 L33.756756990801875,-110.23184918023343 L33.885572570789954,-110.23132221878032 L34.01392282231561,-110.22763793117656 L34.141112204245196,-110.22081628289585 L34.26645146629805,-110.21089424104132 L34.38926138415336,-110.1979255740174 L34.508876440225706,-110.18198056015437 L34.62464843016247,-110.16314560686385 L34.7359499755194,-110.14152278238964 L34.84217792357873,-110.11722926269101 L34.94275661588608,-110.0903966964561 L35.03714100779342,-110.06117049168613 " />
			<path d="M32.88046532517588,-117.73327906755968 L37.8302127934803,-119.38319489032781 " />
			<path d="M37.8302127934803,-119.38319489032783 L42.779960261784716,-117.73327906755969 " />
			<path d="M74.59976541518077,-107.12667734976193 L79.5495128834866,-105.47676152699333 " />
			<path d="M69.65001794687493,-105.47676152699331 L74.59976541518076,-107.12667734976192 " />
			<path d="M114.23310050068675,-136.4598236559839 L114.34843192699508,-136.4174074493872 L114.40127681370141,-136.39483596124566 L114.45073545513975,-136.37142733621985 L114.49668870111077,-136.34723796773778 L114.53902584621991,-136.32232613010692 L114.57764489657632,-136.29675183812608 L114.61245281550504,-136.2705767025047 L114.64336574768058,-136.2438637814372 L114.67030922114165,-136.2166774286902 L114.69321832670074,-136.18908313856866 L114.71203787431594,-136.16114738813448 L114.72672252604866,-136.13293747705737 L114.73723690528664,-136.10452136548398 L114.74355568196934,-136.07596751031608 L114.74566363361029,-136.04734470029175 " />
			<path d="M114.74566363361029,-136.04734470029175 L114.74355568196934,-136.01872189026741 L114.73723690528664,-135.99016803509952 L114.72672252604866,-135.96175192352612 L114.71203787431594,-135.933542012449 L114.69321832670074,-135.90560626201483 L114.67030922114165,-135.8780119718933 L114.64336574768058,-135.8508256191463 L114.61245281550504,-135.82411269807878 L114.57764489657632,-135.7979375624574 L114.53902584621991,-135.77236327047657 L114.49668870111077,-135.7474514328457 L114.45073545513975,-135.72326206436364 L114.40127681370141,-135.69985343933783 L114.34843192699508,-135.67728195119628 L114.23310050068675,-135.63486574459958 L114.10585188089667,-135.59642193583014 L113.9679115413946,-135.56232075978193 L113.82060792305579,-135.53289062942187 L113.66535964024919,-135.5084149729935 L113.5036618188056,-135.48912950444796 L113.33707169713851,-135.47521995338985 L113.16719362918703,-135.46682027639963 L112.99566363361029,-135.4640113669584 L112.82413363803356,-135.46682027639963 L112.65425557008207,-135.47521995338985 L112.48766544841499,-135.48912950444796 L112.32596762697139,-135.5084149729935 L112.1707193441648,-135.53289062942187 L112.02341572582598,-135.56232075978193 L111.88547538632392,-135.59642193583014 L111.75822676653384,-135.63486574459958 L111.64289534022551,-135.67728195119628 L111.59005045351917,-135.69985343933783 L111.54059181208083,-135.72326206436364 L111.49463856610981,-135.7474514328457 L111.45230142100067,-135.77236327047657 L111.41368237064427,-135.7979375624574 L111.37887445171555,-135.82411269807878 L111.34796151954001,-135.8508256191463 L111.32101804607893,-135.8780119718933 L111.29810894051984,-135.90560626201483 L111.27928939290464,-135.933542012449 L111.26460474117192,-135.96175192352612 L111.25409036193395,-135.99016803509952 L111.24777158525124,-136.01872189026741 L111.24566363361029,-136.04734470029175 " />
			<path d="M111.24566363361029,-136.04734470029175 L111.24684946058068,-136.06881558034087 L111.25040533442258,-136.09025736239155 L111.25632643610616,-136.11164098787984 L111.26460474117192,-136.13293747705737 L111.27522903060566,-136.15411796826558 L111.28818490604287,-136.1751537570499 L111.32101804607893,-136.2166774286902 L111.3629262356495,-136.2572834716038 L111.41368237064427,-136.29675183812608 L111.47301139917005,-136.33486864575912 L111.54059181208083,-136.37142733621985 L111.61605738526373,-136.4062297947971 L111.69899916423911,-136.43908742395251 L111.78896768032043,-136.46982216534676 L111.88547538632392,-136.49826746475335 L111.98799929862906,-136.52426917463018 L112.09598383127215,-136.54768638945856 L112.20884380671473,-136.56839220932247 L112.32596762697139,-136.58627442758998 L112.44672058791222,-136.60123613897102 L112.57044831877958,-136.61319626465522 L112.69648032827976,-136.6220899916853 L112.82413363803356,-136.62786912418386 L112.9527164836952,-136.6305023445312 L113.08153206368327,-136.6299753830781 L113.20988231520892,-136.62629109547433 L113.33707169713851,-136.61946944719364 L113.46241095919136,-136.60954740533907 L113.58522087704668,-136.59657873831517 L113.70483593311903,-136.58063372445213 L113.82060792305579,-136.56179877116162 L113.93190946841271,-136.5401759466874 L114.03813741647205,-136.51588242698878 L114.1387161087794,-136.48904986075385 L114.23310050068675,-136.4598236559839 " />
			<path d="M109.24799769330038,-139.88929154473158 L104.29825022501223,-141.5392073674943 " />
			<path d="M104.29825022501223,-141.5392073674943 L99.34850275672761,-139.88929154473277 " />
			<path d="M120.2435081407724,-141.99882677527853 L120.35883956708074,-141.95641056868183 L120.41168445378707,-141.93383908054028 L120.46114309522541,-141.91043045551447 L120.50709634119643,-141.8862410870324 L120.54943348630557,-141.86132924940154 L120.58805253666198,-141.8357549574207 L120.6228604555907,-141.80957982179933 L120.65377338776624,-141.78286690073182 L120.68071686122731,-141.7556805479848 L120.7036259667864,-141.72808625786328 L120.7224455144016,-141.7001505074291 L120.73713016613432,-141.671940596352 L120.7476445453723,-141.6435244847786 L120.753963322055,-141.6149706296107 L120.75607127369595,-141.58634781958636 " />
			<path d="M120.75607127369595,-141.58634781958636 L120.753963322055,-141.55772500956203 L120.7476445453723,-141.52917115439413 L120.73713016613432,-141.50075504282074 L120.7224455144016,-141.47254513174363 L120.7036259667864,-141.44460938130945 L120.68071686122731,-141.41701509118792 L120.65377338776624,-141.3898287384409 L120.6228604555907,-141.3631158173734 L120.58805253666198,-141.33694068175203 L120.54943348630557,-141.3113663897712 L120.50709634119643,-141.28645455214033 L120.46114309522541,-141.26226518365826 L120.41168445378707,-141.23885655863245 L120.35883956708074,-141.2162850704909 L120.2435081407724,-141.1738688638942 L120.11625952098233,-141.13542505512476 L119.97831918148026,-141.10132387907655 L119.83101556314145,-141.0718937487165 L119.67576728033485,-141.04741809228813 L119.51406945889126,-141.02813262374258 L119.34747933722417,-141.01422307268447 L119.17760126927269,-141.00582339569425 L119.00607127369595,-141.00301448625302 L118.83454127811922,-141.00582339569425 L118.66466321016773,-141.01422307268447 L118.49807308850065,-141.02813262374258 L118.33637526705705,-141.04741809228813 L118.18112698425045,-141.0718937487165 L118.03382336591164,-141.10132387907655 L117.89588302640958,-141.13542505512476 L117.7686344066195,-141.1738688638942 L117.65330298031117,-141.2162850704909 L117.60045809360483,-141.23885655863245 L117.5509994521665,-141.26226518365826 L117.50504620619547,-141.28645455214033 L117.46270906108633,-141.3113663897712 L117.42409001072993,-141.33694068175203 L117.3892820918012,-141.3631158173734 L117.35836915962567,-141.3898287384409 L117.3314256861646,-141.41701509118792 L117.3085165806055,-141.44460938130945 L117.2896970329903,-141.47254513174363 L117.27501238125758,-141.50075504282074 L117.26449800201961,-141.52917115439413 L117.2581792253369,-141.55772500956203 L117.25607127369595,-141.58634781958636 " />
			<path d="M117.25607127369595,-141.58634781958636 L117.25725710066634,-141.6078186996355 L117.26081297450824,-141.62926048168617 L117.26673407619182,-141.65064410717446 L117.27501238125758,-141.671940596352 L117.28563667069132,-141.6931210875602 L117.29859254612853,-141.71415687634453 L117.33142568616458,-141.7556805479848 L117.37333387573516,-141.79628659089843 L117.42409001072993,-141.8357549574207 L117.48341903925571,-141.87387176505374 L117.5509994521665,-141.91043045551447 L117.62646502534939,-141.94523291409172 L117.70940680432477,-141.97809054324713 L117.79937532040609,-142.00882528464138 L117.89588302640958,-142.03727058404797 L117.99840693871472,-142.0632722939248 L118.10639147135781,-142.08668950875318 L118.21925144680038,-142.1073953286171 L118.33637526705705,-142.1252775468846 L118.45712822799788,-142.14023925826564 L118.58085595886524,-142.15219938394984 L118.70688796836542,-142.16109311097992 L118.83454127811922,-142.16687224347848 L118.96312412378086,-142.16950546382583 L119.09193970376893,-142.1689785023727 L119.22028995529458,-142.16529421476895 L119.34747933722417,-142.15847256648826 L119.47281859927702,-142.1485505246337 L119.59562851713234,-142.1355818576098 L119.71524357320469,-142.11963684374675 L119.83101556314145,-142.10080189045624 L119.94231710849837,-142.07917906598203 L120.04854505655771,-142.0548855462834 L120.14912374886507,-142.02805298004847 L120.2435081407724,-141.99882677527853 " />
			<path d="M130.14300307738407,-131.15652279708482 L130.2583345036924,-131.11410659048812 L130.31117939039873,-131.09153510234657 L130.36063803183706,-131.06812647732076 L130.40659127780808,-131.0439371088387 L130.44892842291722,-131.01902527120782 L130.48754747327362,-130.993450979227 L130.52235539220234,-130.96727584360562 L130.55326832437788,-130.9405629225381 L130.58021179783896,-130.9133765697911 L130.60312090339804,-130.88578227966957 L130.62194045101324,-130.8578465292354 L130.63662510274597,-130.82963661815828 L130.64713948198394,-130.80122050658488 L130.65345825866666,-130.77266665141698 L130.6555662103076,-130.74404384139265 " />
			<path d="M130.6555662103076,-130.74404384139265 L130.65345825866666,-130.71542103136832 L130.64713948198394,-130.68686717620042 L130.63662510274597,-130.65845106462703 L130.62194045101324,-130.63024115354992 L130.60312090339804,-130.60230540311574 L130.58021179783896,-130.5747111129942 L130.55326832437788,-130.5475247602472 L130.52235539220234,-130.5208118391797 L130.48754747327362,-130.4946367035583 L130.44892842291722,-130.46906241157748 L130.40659127780808,-130.44415057394662 L130.36063803183706,-130.41996120546455 L130.31117939039873,-130.39655258043874 L130.2583345036924,-130.37398109229719 L130.14300307738407,-130.3315648857005 L130.01575445759397,-130.29312107693104 L129.8778141180919,-130.25901990088283 L129.73051049975308,-130.22958977052278 L129.5752622169465,-130.2051141140944 L129.4135643955029,-130.18582864554887 L129.24697427383583,-130.17191909449076 L129.07709620588432,-130.16351941750054 L128.9055662103076,-130.1607105080593 L128.73403621473088,-130.16351941750054 L128.56415814677936,-130.17191909449076 L128.3975680251123,-130.18582864554887 L128.2358702036687,-130.2051141140944 L128.08062192086211,-130.22958977052278 L127.93331830252329,-130.25901990088283 L127.79537796302122,-130.29312107693104 L127.66812934323114,-130.3315648857005 L127.55279791692281,-130.37398109229719 L127.49995303021647,-130.39655258043874 L127.45049438877814,-130.41996120546455 L127.40454114280712,-130.44415057394662 L127.36220399769797,-130.46906241157748 L127.32358494734157,-130.4946367035583 L127.28877702841285,-130.5208118391797 L127.25786409623731,-130.5475247602472 L127.23092062277624,-130.5747111129942 L127.20801151721714,-130.60230540311574 L127.18919196960195,-130.63024115354992 L127.17450731786923,-130.65845106462703 L127.16399293863125,-130.68686717620042 L127.15767416194855,-130.71542103136832 L127.1555662103076,-130.74404384139265 " />
			<path d="M127.1555662103076,-130.74404384139265 L127.15675203727798,-130.76551472144178 L127.16030791111989,-130.78695650349246 L127.16622901280347,-130.80834012898075 L127.17450731786923,-130.82963661815828 L127.18513160730296,-130.8508171093665 L127.19808748274018,-130.87185289815082 L127.23092062277624,-130.9133765697911 L127.2728288123468,-130.95398261270472 L127.32358494734157,-130.993450979227 L127.38291397586735,-131.03156778686002 L127.45049438877814,-131.06812647732076 L127.52595996196104,-131.102928935898 L127.60890174093642,-131.13578656505342 L127.69887025701773,-131.16652130644766 L127.79537796302122,-131.19496660585426 L127.89790187532637,-131.22096831573108 L128.00588640796946,-131.24438553055947 L128.11874638341203,-131.26509135042338 L128.2358702036687,-131.2829735686909 L128.35662316460954,-131.29793528007193 L128.48035089547687,-131.30989540575612 L128.60638290497707,-131.3187891327862 L128.73403621473088,-131.32456826528477 L128.8626190603925,-131.32720148563212 L128.9914346403806,-131.326674524179 L129.11978489190622,-131.32299023657524 L129.24697427383583,-131.31616858829454 L129.37231353588868,-131.30624654643998 L129.495123453744,-131.29327787941608 L129.61473850981633,-131.27733286555303 L129.73051049975308,-131.25849791226253 L129.84181204511,-131.23687508778832 L129.94803999316935,-131.2125815680897 L130.0486186854767,-131.18574900185476 L130.14300307738404,-131.15652279708482 " />
			<path d="M146.01755031502205,-127.63277400417181 L141.0678028467162,-129.2826898269404 " />
			<path d="M141.06780284671623,-129.2826898269404 L136.1180553784104,-127.63277400417181 " />
			<path d="M169.35207409417814,-125.9828581814032 L169.35207409417814,-120.32600393191082 " />
			<path d="M169.35207409417814,-120.3260039319108 L160.86679271993955,-117.49757680716462 " />
			<path d="M70.35712472806149,-96.28437337156821 L70.35712472806149,-90.62751912207582 " />
			<path d="M70.35712472806149,-90.62751912207582 L75.30687219636732,-88.97760329930722 " />
			<path d="M45.46696603029501,-104.58109293749038 L45.46696603029501,-101.28126129195316 " />
			<path d="M45.46696603029501,-101.28126129195316 L50.41671349860084,-99.63134546918455 " />
			<path d="M5.6568542494924285,-117.8511301977579 L5.656854249492426,-112.19427594826553 " />
			<path d="M5.656854249492426,-112.19427594826553 L10.606601717798222,-110.54436012549692 " />
			<path d="M10.606601717798256,-113.84419177103413 L5.656854249492419,-112.19427594826553 " />
			<path d="M10.60660171779826,-119.50104602052652 L10.606601717798256,-113.84419177103413 " />
			<path d="M94.75230867899741,-147.54961500759293 L94.75230867899741,-141.89276075810054 " />
			<path d="M99.70205614730324,-143.5426765808691 L94.75230867899741,-141.8927607581005 " />
			<path d="M99.70205614730324,-149.19953083036154 L99.70205614730324,-143.54267658086914 " />
			<path d="M99.70205614730324,-143.5426765808691 L104.65180361560903,-141.89276075810054 " />
			<path d="M104.65180361560904,-147.54961500759293 L104.65180361560904,-141.89276075810056 " />
			<path d="M103.1562727733995,-145.6911026843743 L103.15392906573696,-145.60159949153595 L103.1469091604049,-145.51408715836536 L103.13524665667904,-145.4289845439312 L103.11899737463948,-145.34669897369875 L103.09823908799987,-145.26762428995357 L103.07307115186018,-145.19213896675973 L103.04361402716471,-145.12060429847452 L103.01000870414157,-145.05336267049046 L102.97241602748308,-144.99073592048057 L102.93101592649708,-144.93302379799138 L102.88600655391376,-144.8805025297558 L102.83760333746997,-144.83342349759283 L102.78603794881043,-144.79201203522229 L102.73155719464101,-144.75646634975323 L102.67442183544111,-144.72695657300787 L102.61490533738944,-144.70362394722213 " />
			<path d="M102.61490533738944,-144.70362394722213 L102.57139690270144,-144.69087967105187 L102.52693816240802,-144.6813314606656 L102.48163622150868,-144.67500231853842 L102.43560021634703,-144.67190749212807 L102.38894105169179,-144.67205443714246 L102.34177113355746,-144.6754427995782 L102.29420409840843,-144.68206441657335 L102.24635453939875,-144.69190333607264 L102.19833773030722,-144.7049358552572 L102.15026934783269,-144.72113057764673 L102.10226519291885,-144.74044848873658 L102.05444091177955,-144.76284304998686 L102.00691171729696,-144.78826031093797 L101.95979211146367,-144.81663903918204 L101.91319560953731,-144.847910867877 L101.8672344665724,-144.88200046044844 L101.82201940698805,-144.91882569208195 L101.7776593578232,-144.95829784756907 L101.73426118632173,-145.00032183502984 L101.69192944248005,-145.0447964149976 L101.65076610717688,-145.09161444431368 L101.61087034649245,-145.1406631342447 L101.5723382728087,-145.19182432220046 L101.53526271326616,-145.244974756398 L101.4997329861352,-145.29998639278588 L101.4658346856405,-145.3567267035136 L101.43364947575711,-145.41505899620276 L101.40325489347472,-145.47484274325097 L101.37472416200431,-145.53593392037513 L101.34812601437697,-145.59818535357863 L101.32352452786007,-145.66144707370626 L101.30097896958948,-145.72556667773318 L101.2805436537898,-145.7903896959171 L101.26226781092673,-145.85575996392936 L101.24619546910651,-145.92151999906855 L101.23236534800834,-145.98751137965013 L101.22081076560532,-146.05357512665813 L101.21155955789854,-146.11955208673947 L101.20463401185766,-146.18528331561848 L101.2000508117297,-146.25061046100737 L101.19782099884522,-146.31537614409092 L101.19794994501875,-146.37942433866579 L101.20043733960767,-146.44260074702126 L101.20527719026056,-146.50475317165603 L101.21245783735326,-146.56573188193525 L101.22196198207797,-146.62538997480473 L101.2337667281176,-146.68358372869332 L101.24784363680496,-146.74017294975076 L101.26415879563402,-146.79502130958687 L101.28267289995813,-146.84799667369865 L101.30334134767834,-146.89897141979387 L101.32611434669373,-146.9478227452443 L101.350937034855,-146.9944329629281 L101.37774961213216,-147.0386897847483 L101.40648748467805,-147.08048659214467 L101.43708142044056,-147.11972269294722 L101.46945771594874,-147.15630356395243 L101.50353837387085,-147.190141078638 L101.53924129091688,-147.22115371946717 L101.57648045563243,-147.24926677427183 L101.61516615560797,-147.27441251624055 L101.65520519360375,-147.2965303670784 L101.69650111207025,-147.31556704294542 L101.73895442552279,-147.33147668282203 " />
			<path d="M101.73895442552279,-147.33147668282203 L101.79549153955269,-147.34737291921286 L101.85356989103393,-147.35789588245285 L101.9129548089317,-147.36300305352054 L101.97340634290686,-147.3626737964115 L102.03468023285777,-147.35690944152003 L102.09652889587623,-147.3457332802635 L102.15870242662952,-147.32919047097133 L102.22094960712624,-147.30734785641846 L102.28301892178635,-147.28029369374076 L102.34465957371339,-147.24813729782394 L102.40562249806295,-147.21100859960634 L102.4656613684126,-147.16905762108087 L102.52453359206682,-147.12245386911692 L102.58200129027571,-147.07138565055212 L102.63783225940638,-147.01605931132073 L102.69180090918347,-146.95669840269355 L102.74368917420797,-146.89354277799808 L102.79328739507083,-146.82684762346847 L102.8403951655016,-146.7568824271417 L102.88482214212873,-146.68392988996578 L102.92638881357982,-146.6082847835201 L102.9649272258143,-146.53025275896306 L103.00028166075734,-146.4501491120199 L103.03230926549351,-146.36829750900074 L103.06088062947731,-146.2850286789964 L103.0858803074287,-146.20067907753653 L103.1072072858005,-146.11558952710928 L103.12477539093325,-146.03010384003616 L103.13851363724787,-145.944567429266 L103.14836651406961,-145.85932591270142 L103.15429420992412,-145.77472371669748 L103.1562727733995,-145.6911026843743 " />
			<path d="M139.51216792810584,-135.929493570094 L139.51216792810584,-132.62966192455679 " />
			<path d="M139.51216792810584,-132.62966192455676 L144.46191539641168,-130.97974610178815 " />
			<path d="M144.46191539641165,-134.2795777473254 L144.46191539641165,-130.97974610178818 " />
			<path d="M164.40232662587232,-127.63277400417181 L164.40232662587232,-121.97591975467942 " />
			<path d="M164.40232662587232,-121.97591975467941 L169.35207409417816,-120.3260039319108 " />
			<path d="M167.85654325196856,-124.12434585818455 L167.85419954430603,-124.0348426653462 L167.84717963897398,-123.94733033217562 L167.83551713524812,-123.86222771774148 L167.81926785320854,-123.77994214750902 L167.79850956656895,-123.70086746376383 L167.77334163042926,-123.62538214056998 L167.7438845057338,-123.5538474722848 L167.71027918271065,-123.48660584430073 L167.67268650605217,-123.42397909429083 L167.63128640506616,-123.36626697180166 L167.58627703248285,-123.31374570356607 L167.53787381603905,-123.26666667140309 L167.48630842737953,-123.22525520903255 L167.43182767321008,-123.1897095235635 L167.3746923140102,-123.16019974681814 L167.31517581595853,-123.13686712103238 " />
			<path d="M167.31517581595853,-123.13686712103238 L167.2716673812705,-123.12412284486216 L167.2272086409771,-123.11457463447587 L167.18190670007775,-123.10824549234869 L167.13587069491612,-123.10515066593834 L167.08921153026085,-123.10529761095273 L167.04204161212652,-123.10868597338846 L166.99447457697752,-123.11530759038364 L166.94662501796785,-123.12514650988291 L166.89860820887628,-123.13817902906744 L166.85053982640176,-123.154373751457 L166.80253567148793,-123.17369166254684 L166.75471139034863,-123.19608622379712 L166.70718219586604,-123.22150348474825 L166.66006259003274,-123.2498822129923 L166.61346608810638,-123.28115404168726 L166.56750494514148,-123.3152436342587 L166.52228988555714,-123.35206886589224 L166.47792983639226,-123.39154102137934 L166.4345316648908,-123.4335650088401 L166.39219992104913,-123.47803958880785 L166.35103658574596,-123.52485761812395 L166.31114082506153,-123.57390630805497 L166.2726087513778,-123.62506749601073 L166.23553319183523,-123.67821793020826 L166.20000346470428,-123.73322956659615 L166.16610516420957,-123.78996987732387 L166.1339199543262,-123.84830217001303 L166.1035253720438,-123.90808591706124 L166.07499464057338,-123.96917709418541 L166.04839649294604,-124.0314285273889 L166.02379500642917,-124.09469024751654 L166.00124944815855,-124.15880985154347 L165.9808141323589,-124.22363286972737 L165.96253828949582,-124.28900313773961 L165.9464659476756,-124.3547631728788 L165.9326358265774,-124.4207545534604 L165.92108124417442,-124.48681830046839 L165.91183003646762,-124.55279526054976 L165.90490449042673,-124.61852648942875 L165.9003212902988,-124.68385363481764 L165.8980914774143,-124.74861931790119 L165.89822042358784,-124.81266751247604 L165.90070781817676,-124.87584392083153 L165.90554766882963,-124.9379963454663 L165.91272831592235,-124.9989750557455 L165.92223246064705,-125.058633148615 L165.93403720668667,-125.11682690250359 L165.94811411537404,-125.17341612356103 L165.9644292742031,-125.22826448339713 L165.9829433785272,-125.28123984750891 L166.0036118262474,-125.33221459360412 L166.0263848252628,-125.38106591905458 L166.0512075134241,-125.42767613673838 L166.07802009070124,-125.47193295855857 L166.10675796324713,-125.51372976595492 L166.13735189900964,-125.55296586675748 L166.16972819451783,-125.5895467377627 L166.20380885243995,-125.62338425244826 L166.23951176948597,-125.65439689327744 L166.27675093420152,-125.6825099480821 L166.31543663417705,-125.70765569005081 L166.35547567217282,-125.72977354088866 L166.39677159063933,-125.74881021675569 L166.43922490409187,-125.76471985663231 " />
			<path d="M166.43922490409187,-125.76471985663231 L166.49576201812175,-125.78061609302313 L166.553840369603,-125.79113905626312 L166.6132252875008,-125.79624622733081 L166.67367682147594,-125.79591697022178 L166.73495071142685,-125.79015261533029 L166.79679937444533,-125.77897645407376 L166.85897290519858,-125.7624336447816 L166.92122008569532,-125.74059103022871 L166.98328940035543,-125.71353686755104 L167.04493005228247,-125.68138047163423 L167.10589297663205,-125.64425177341663 L167.16593184698166,-125.60230079489114 L167.22480407063588,-125.55569704292718 L167.2822717688448,-125.50462882436238 L167.33810273797545,-125.44930248513099 L167.39207138775257,-125.38994157650383 L167.44395965277704,-125.32678595180835 L167.4935578736399,-125.26009079727874 L167.54066564407069,-125.19012560095196 L167.5850926206978,-125.11717306377606 L167.6266592921489,-125.04152795733037 L167.66519770438336,-124.96349593277331 L167.70055213932642,-124.88339228583015 L167.73257974406258,-124.801540682811 L167.7611511080464,-124.71827185280668 L167.78615078599776,-124.6339222513468 L167.80747776436957,-124.54883270091956 L167.82504586950233,-124.46334701384643 L167.83878411581694,-124.37781060307624 L167.8486369926387,-124.2925690865117 L167.8545646884932,-124.20796689050775 L167.85654325196856,-124.12434585818455 " />
			<path d="M83.79215357060589,-91.8060304240534 L78.84240610230006,-93.45594624682201 " />
			<path d="M78.84240610230006,-93.45594624682201 L70.35712472806149,-90.62751912207582 " />
			<path d="M78.84240610230006,-99.11280049631439 L78.84240610230006,-93.45594624682201 " />
			<path d="M160.86679271993955,-117.49757680716462 L155.9170452516337,-119.14749262993323 " />
			<path d="M155.91704525163374,-124.80434687942562 L155.91704525163374,-119.14749262993324 " />
			<path d="M155.91704525163374,-119.14749262993323 L164.40232662587232,-121.97591975467941 " />
			<path d="M144.46191539641165,-130.97974610178815 L139.5121679281058,-129.32983027901955 " />
			<path d="M139.51216792810584,-129.32983027901955 L134.5624204598,-130.97974610178815 " />
			<path d="M134.5624204598,-134.27957774732536 L134.5624204598,-130.97974610178815 " />
			<path d="M134.5624204598,-130.97974610178815 L139.51216792810584,-132.62966192455676 " />
			<path d="M104.65180361560904,-141.89276075810054 L99.70205614730321,-140.24284493533193 " />
			<path d="M99.70205614730321,-140.24284493533193 L94.75230867899741,-141.89276075810054 " />
			<path d="M15.556349186104054,-117.85113019775791 L15.556349186104054,-112.19427594826553 " />
			<path d="M15.556349186104054,-112.19427594826553 L10.60660171779826,-113.84419177103413 " />
			<path d="M10.60660171779822,-110.54436012549692 L15.556349186104054,-112.19427594826553 " />
			<path d="M50.41671349860084,-106.23100876025899 L50.41671349860084,-102.93117711472176 " />
			<path d="M50.41671349860084,-102.93117711472176 L45.46696603029501,-101.28126129195316 " />
			<path d="M55.36646096690668,-104.58109293749038 L55.36646096690668,-101.28126129195316 " />
			<path d="M55.36646096690668,-101.28126129195314 L50.41671349860085,-102.93117711472175 " />
			<path d="M50.41671349860084,-99.63134546918454 L55.36646096690667,-101.28126129195314 " />
			<path d="M32.88046532517588,-117.73327906755968 L32.88046532517588,-112.0764248180673 " />
			<path d="M32.88046532517588,-112.0764248180673 L37.8302127934803,-113.72634064083543 " />
			<path d="M37.8302127934803,-119.38319489032783 L37.8302127934803,-113.72634064083545 " />
			<path d="M37.8302127934803,-110.42650899529916 L32.880465325175884,-112.0764248180673 " />
			<path d="M37.8302127934803,-113.72634064083545 L42.779960261784716,-112.07642481806731 " />
			<path d="M42.77996026178472,-117.73327906755969 L42.77996026178472,-112.07642481806731 " />
			<path d="M42.77996026178472,-112.07642481806731 L37.8302127934803,-110.42650899529917 " />
			<path d="M79.5495128834866,-105.47676152699333 L79.5495128834866,-99.81990727750095 " />
			<path d="M79.5495128834866,-99.81990727750095 L74.59976541518077,-98.16999145473234 " />
			<path d="M74.59976541518077,-107.12667734976193 L74.59976541518077,-101.46982310026955 " />
			<path d="M74.59976541518077,-101.46982310026955 L79.5495128834866,-99.81990727750095 " />
			<path d="M74.59976541518077,-98.16999145473233 L69.65001794687494,-99.81990727750093 " />
			<path d="M69.65001794687493,-105.47676152699331 L69.65001794687493,-99.81990727750093 " />
			<path d="M69.65001794687493,-99.81990727750093 L74.59976541518076,-101.46982310026954 " />
			<path d="M99.34850275672761,-139.88929154473277 L99.34850275672761,-134.2324372952404 " />
			<path d="M99.34850275672761,-134.23243729524037 L104.29825022501576,-132.58252147247765 " />
			<path d="M104.29825022501223,-141.5392073674943 L104.29825022501223,-135.88235311800193 " />
			<path d="M104.29825022501223,-135.8823531180019 L99.34850275672761,-134.23243729524037 " />
			<path d="M104.29825022501576,-132.58252147247765 L109.24799769330038,-134.23243729523918 " />
			<path d="M109.24799769330038,-139.88929154473158 L109.24799769330038,-134.2324372952392 " />
			<path d="M109.24799769330038,-134.23243729523918 L104.29825022501223,-135.8823531180019 " />
			<path d="M136.1180553784104,-127.63277400417181 L136.1180553784104,-121.97591975467942 " />
			<path d="M136.1180553784104,-121.97591975467941 L141.06780284671623,-120.3260039319108 " />
			<path d="M141.06780284671623,-129.2826898269404 L141.06780284671623,-123.62583557744803 " />
			<path d="M141.06780284671623,-123.62583557744804 L136.1180553784104,-121.97591975467944 " />
			<path d="M141.06780284671623,-120.3260039319108 L146.01755031502208,-121.97591975467941 " />
			<path d="M146.01755031502205,-127.63277400417181 L146.01755031502205,-121.97591975467942 " />
			<path d="M146.01755031502205,-121.97591975467944 L141.0678028467162,-123.62583557744804 " />
			<path d="M51.39605639054421,-101.60770892260095 L51.487332976508235,-101.5741395248087 L51.568298911639864,-101.53774954953055 L51.638174449723316,-101.49888945212116 L51.66873866957681,-101.47864922675348 L51.69628665112897,-101.4579334765617 L51.720752028879325,-101.43679210760257 L51.74207586358995,-101.41527605128563 L51.76020678427528,-101.39343714167516 L51.775101111959316,-101.37132799061727 L51.78672296490206,-101.34900186099338 L51.79504434504184,-101.32651253840531 L51.800045205445,-101.30391420160099 L51.80171349860084,-101.28126129195316 " />
			<path d="M51.80171349860084,-101.28126129195316 L51.800045205445,-101.25860838230533 L51.79504434504184,-101.236010045501 L51.78672296490206,-101.21352072291293 L51.775101111959316,-101.19119459328904 L51.76020678427528,-101.16908544223115 L51.74207586358995,-101.14724653262068 L51.720752028879325,-101.12573047630374 L51.69628665112897,-101.10458910734461 L51.66873866957681,-101.08387335715284 L51.638174449723316,-101.06363313178515 L51.568298911639864,-101.02477303437577 L51.487332976508235,-100.98838305909761 L51.39605639054421,-100.95481366130537 L51.29534819716749,-100.92438813265069 L51.18617827133299,-100.89739948760682 L51.06959797910485,-100.874107641579 L50.94673005242649,-100.85473690777711 L50.818757776598275,-100.83947383695678 L50.68691359459318,-100.82846542083367 L50.55246723795728,-100.82181767647283 L50.41671349860084,-100.81959462528648 L50.2809597592444,-100.82181767647283 L50.146513402608505,-100.82846542083367 L50.01466922060341,-100.83947383695678 L49.886696944775196,-100.85473690777711 L49.763829018096835,-100.874107641579 L49.64724872586869,-100.89739948760682 L49.53807880003419,-100.92438813265069 L49.437370606657474,-100.95481366130537 L49.34609402069345,-100.98838305909761 L49.26512808556182,-101.02477303437577 L49.19525254747837,-101.06363313178515 L49.16468832762487,-101.08387335715284 L49.13714034607271,-101.10458910734461 L49.11267496832236,-101.12573047630374 L49.09135113361173,-101.14724653262068 L49.0732202129264,-101.16908544223115 L49.05832588524237,-101.19119459328904 L49.04670403229962,-101.21352072291293 L49.03838265215985,-101.236010045501 L49.03338179175668,-101.25860838230533 L49.031713498600844,-101.28126129195316 " />
			<path d="M49.031713498600844,-101.28126129195316 L49.03546621610086,-101.31522359881501 L49.04670403229962,-101.34900186099338 L49.06536604849748,-101.38241303115892 L49.09135113361173,-101.41527605128563 L49.12451847221473,-101.44741283382014 L49.16468832762487,-101.47864922675348 L49.21164301591528,-101.50881595736591 L49.26512808556182,-101.53774954953055 L49.32485369633799,-101.56529320960455 L49.390496189984226,-101.59129767610753 L49.46169984414001,-101.61562202858242 L49.53807880003419,-101.63813445125562 L49.61921915348712,-101.65871294735814 L49.70468119789323,-101.67724600023662 L49.79400180702921,-101.69363317767176 L49.88669694477519,-101.7077856761292 L49.98226428814838,-101.71962680199361 L50.08018594943482,-101.72909238717797 L50.17993128266782,-101.73613113685605 L50.280959759244396,-101.74070490743348 L50.38272389709661,-101.74278891325123 L50.484672227544316,-101.74237186090122 L50.586252283751755,-101.73945601042622 L50.68691359459318,-101.73405716307265 L50.786110667703575,-101.72620457566205 L50.88330594554907,-101.71594080204599 L50.97797271849775,-101.70332146250296 L51.06959797910485,-101.68841494232731 L51.15768520214447,-101.67130202124343 L51.24175703532286,-101.65207543565339 L51.321357886091825,-101.63083937609032 L51.3960563905442,-101.60770892260095 " />
			<path d="M140.49151082004917,-131.30619373243593 L140.5827874060132,-131.2726243346437 L140.66375334114483,-131.23623435936554 L140.7336288792283,-131.19737426195616 L140.76419309908178,-131.17713403658846 L140.79174108063395,-131.1564182863967 L140.8162064583843,-131.13527691743755 L140.83753029309491,-131.11376086112062 L140.85566121378025,-131.09192195151016 L140.87055554146428,-131.06981280045227 L140.88217739440702,-131.04748667082836 L140.8904987745468,-131.0249973482403 L140.89549963494997,-131.00239901143598 L140.8971679281058,-130.97974610178815 " />
			<path d="M140.8971679281058,-130.97974610178815 L140.89549963494997,-130.95709319214032 L140.8904987745468,-130.934494855336 L140.88217739440702,-130.9120055327479 L140.87055554146428,-130.88967940312403 L140.85566121378025,-130.86757025206614 L140.83753029309491,-130.84573134245568 L140.8162064583843,-130.82421528613875 L140.79174108063395,-130.8030739171796 L140.76419309908178,-130.78235816698785 L140.7336288792283,-130.76211794162015 L140.66375334114483,-130.72325784421076 L140.5827874060132,-130.6868678689326 L140.49151082004917,-130.65329847114037 L140.39080262667247,-130.62287294248569 L140.28163270083795,-130.5958842974418 L140.16505240860982,-130.57259245141398 L140.04218448193146,-130.5532217176121 L139.91421220610323,-130.5379586467918 L139.78236802409816,-130.52695023066866 L139.64792166746224,-130.52030248630783 L139.5121679281058,-130.51807943512148 L139.37641418874938,-130.52030248630783 L139.24196783211346,-130.52695023066866 L139.1101236501084,-130.5379586467918 L138.98215137428016,-130.5532217176121 L138.8592834476018,-130.57259245141398 L138.74270315537368,-130.5958842974418 L138.63353322953915,-130.62287294248569 L138.53282503616245,-130.65329847114037 L138.4415484501984,-130.6868678689326 L138.3605825150668,-130.72325784421076 L138.29070697698333,-130.76211794162015 L138.26014275712984,-130.78235816698785 L138.23259477557767,-130.8030739171796 L138.20812939782732,-130.82421528613875 L138.1868055631167,-130.84573134245568 L138.16867464243137,-130.86757025206614 L138.15378031474734,-130.88967940312403 L138.1421584618046,-130.9120055327479 L138.1338370816648,-130.934494855336 L138.12883622126165,-130.95709319214032 L138.12716792810582,-130.97974610178815 " />
			<path d="M138.12716792810582,-130.97974610178815 L138.1309206456058,-131.01370840865 L138.1421584618046,-131.0474866708284 L138.16082047800245,-131.0808978409939 L138.1868055631167,-131.11376086112062 L138.2199729017197,-131.14589764365513 L138.26014275712984,-131.17713403658846 L138.30709744542025,-131.2073007672009 L138.3605825150668,-131.23623435936554 L138.42030812584295,-131.26377801943954 L138.4859506194892,-131.28978248594254 L138.55715427364498,-131.31410683841742 L138.63353322953915,-131.33661926109062 L138.7146735829921,-131.35719775719312 L138.8001356273982,-131.37573081007162 L138.8894562365342,-131.39211798750674 L138.98215137428016,-131.4062704859642 L139.07771871765334,-131.4181116118286 L139.1756403789398,-131.42757719701297 L139.2753857121728,-131.43461594669105 L139.37641418874938,-131.43918971726848 L139.47817832660158,-131.44127372308623 L139.58012665704928,-131.4408566707362 L139.68170671325672,-131.43794082026122 L139.78236802409813,-131.43254197290764 L139.88156509720855,-131.42468938549706 L139.97876037505404,-131.41442561188097 L140.0734271480027,-131.40180627233795 L140.16505240860982,-131.38689975216232 L140.25313963164945,-131.36978683107844 L140.33721146482782,-131.3505602454884 L140.4168123155968,-131.32932418592532 L140.49151082004917,-131.30619373243596 " />
			<path d="M38.80955568542367,-112.40287244871557 L38.90083227138769,-112.36930305092332 L38.98179820651932,-112.33291307564517 L39.05167374460277,-112.29405297823578 L39.08223796445627,-112.2738127528681 L39.10978594600843,-112.25309700267633 L39.13425132375878,-112.23195563371719 L39.15557515846941,-112.21043957740025 L39.17370607915474,-112.18860066778979 L39.18860040683877,-112.1664915167319 L39.20022225978152,-112.144165387108 L39.208543639921295,-112.12167606451993 L39.21354450032446,-112.09907772771561 L39.2152127934803,-112.07642481806778 " />
			<path d="M39.2152127934803,-112.07642481806778 L39.21354450032446,-112.05377190841995 L39.208543639921295,-112.03117357161562 L39.20022225978152,-112.00868424902755 L39.18860040683877,-111.98635811940366 L39.17370607915474,-111.96424896834577 L39.15557515846941,-111.9424100587353 L39.13425132375878,-111.92089400241836 L39.10978594600843,-111.89975263345923 L39.08223796445627,-111.87903688326746 L39.05167374460277,-111.85879665789977 L38.98179820651932,-111.81993656049039 L38.90083227138769,-111.78354658521224 L38.80955568542367,-111.74997718741999 L38.70884749204695,-111.71955165876531 L38.59967756621245,-111.69256301372144 L38.483097273984306,-111.66927116769362 L38.360229347305946,-111.64990043389173 L38.23225707147773,-111.6346373630714 L38.100412889472636,-111.62362894694829 L37.96596653283674,-111.61698120258745 L37.8302127934803,-111.6147581514011 L37.69445905412386,-111.61698120258745 L37.56001269748796,-111.62362894694829 L37.42816851548287,-111.6346373630714 L37.30019623965465,-111.64990043389173 L37.17732831297629,-111.66927116769362 L37.06074802074815,-111.69256301372144 L36.95157809491365,-111.71955165876531 L36.85086990153693,-111.74997718741999 L36.75959331557291,-111.78354658521224 L36.67862738044128,-111.81993656049039 L36.608751842357826,-111.85879665789977 L36.57818762250433,-111.87903688326746 L36.55063964095217,-111.89975263345923 L36.52617426320182,-111.92089400241836 L36.50485042849119,-111.9424100587353 L36.48671950780586,-111.96424896834577 L36.471825180121826,-111.98635811940366 L36.46020332717908,-112.00868424902755 L36.451881947039304,-112.03117357161562 L36.44688108663614,-112.05377190841995 L36.4452127934803,-112.07642481806778 " />
			<path d="M36.4452127934803,-112.07642481806778 L36.448965510980315,-112.11038712492963 L36.46020332717908,-112.144165387108 L36.47886534337694,-112.17757655727354 L36.50485042849119,-112.21043957740025 L36.53801776709419,-112.24257635993476 L36.57818762250433,-112.2738127528681 L36.625142310794736,-112.30397948348053 L36.67862738044128,-112.33291307564517 L36.73835299121745,-112.36045673571917 L36.803995484863684,-112.38646120222215 L36.875199139019465,-112.41078555469704 L36.95157809491365,-112.43329797737024 L37.03271844836658,-112.45387647347276 L37.11818049277269,-112.47240952635124 L37.20750110190867,-112.48879670378638 L37.300196239654646,-112.50294920224383 L37.395763583027836,-112.51479032810823 L37.49368524431428,-112.52425591329259 L37.59343057754728,-112.53129466297067 L37.694459054123854,-112.5358684335481 L37.79622319197607,-112.53795243936585 L37.89817152242377,-112.53753538701584 L37.99975157863121,-112.53461953654084 L38.100412889472636,-112.52922068918727 L38.19960996258303,-112.52136810177667 L38.296805240428526,-112.51110432816061 L38.39147201337721,-112.49848498861758 L38.483097273984306,-112.48357846844193 L38.57118449702393,-112.46646554735806 L38.65525633020232,-112.44723896176801 L38.73485718097128,-112.42600290220494 L38.80955568542366,-112.40287244871557 " />
			<path d="M75.57910830712414,-100.14635490814874 L75.67038489308815,-100.11278551035649 L75.7513508282198,-100.07639553507833 L75.82122636630324,-100.03753543766895 L75.85179058615674,-100.01729521230126 L75.8793385677089,-99.9965794621095 L75.90380394545926,-99.97543809315036 L75.92512778016987,-99.95392203683342 L75.94325870085521,-99.93208312722295 L75.95815302853924,-99.90997397616506 L75.969774881482,-99.88764784654117 L75.97809626162176,-99.8651585239531 L75.98309712202493,-99.84256018714878 L75.98476541518077,-99.81990727750095 " />
			<path d="M75.98476541518077,-99.81990727750095 L75.98309712202493,-99.79725436785311 L75.97809626162176,-99.77465603104879 L75.969774881482,-99.75216670846072 L75.95815302853924,-99.72984057883683 L75.94325870085521,-99.70773142777894 L75.92512778016987,-99.68589251816847 L75.90380394545926,-99.66437646185153 L75.8793385677089,-99.6432350928924 L75.85179058615674,-99.62251934270063 L75.82122636630324,-99.60227911733294 L75.7513508282198,-99.56341901992356 L75.67038489308815,-99.5270290446454 L75.57910830712414,-99.49345964685315 L75.47840011374741,-99.46303411819848 L75.36923018791292,-99.4360454731546 L75.25264989568478,-99.41275362712679 L75.12978196900642,-99.3933828933249 L75.0018096931782,-99.37811982250457 L74.8699655111731,-99.36711140638145 L74.73551915453722,-99.36046366202062 L74.59976541518077,-99.35824061083427 L74.46401167582432,-99.36046366202062 L74.32956531918843,-99.36711140638145 L74.19772113718334,-99.37811982250457 L74.06974886135512,-99.3933828933249 L73.94688093467676,-99.41275362712679 L73.83030064244862,-99.4360454731546 L73.72113071661413,-99.46303411819848 L73.6204225232374,-99.49345964685315 L73.52914593727338,-99.5270290446454 L73.44818000214174,-99.56341901992356 L73.3783044640583,-99.60227911733294 L73.3477402442048,-99.62251934270063 L73.32019226265264,-99.6432350928924 L73.29572688490228,-99.66437646185153 L73.27440305019167,-99.68589251816847 L73.25627212950633,-99.70773142777894 L73.2413778018223,-99.72984057883683 L73.22975594887954,-99.75216670846072 L73.22143456873978,-99.77465603104879 L73.21643370833661,-99.79725436785311 L73.21476541518076,-99.81990727750095 " />
			<path d="M73.21476541518076,-99.81990727750095 L73.21851813268079,-99.8538695843628 L73.22975594887954,-99.88764784654117 L73.24841796507741,-99.9210590167067 L73.27440305019167,-99.95392203683342 L73.30757038879466,-99.98605881936793 L73.3477402442048,-100.01729521230126 L73.3946949324952,-100.0474619429137 L73.44818000214174,-100.07639553507833 L73.50790561291792,-100.10393919515234 L73.57354810656415,-100.12994366165532 L73.64475176071993,-100.15426801413021 L73.72113071661413,-100.17678043680341 L73.80227107006705,-100.19735893290593 L73.88773311447316,-100.21589198578441 L73.97705372360915,-100.23227916321954 L74.06974886135512,-100.246431661677 L74.1653162047283,-100.2582727875414 L74.26323786601475,-100.26773837272576 L74.36298319924775,-100.27477712240383 L74.46401167582432,-100.27935089298127 L74.56577581367654,-100.28143489879902 L74.66772414412424,-100.281017846449 L74.76930420033169,-100.27810199597401 L74.8699655111731,-100.27270314862044 L74.96916258428351,-100.26485056120984 L75.066357862129,-100.25458678759378 L75.16102463507768,-100.24196744805074 L75.25264989568478,-100.2270609278751 L75.3407371187244,-100.20994800679122 L75.42480895190279,-100.19072142120118 L75.50440980267174,-100.16948536163811 L75.57910830712413,-100.14635490814874 " />
			<path d="M105.27759311695912,-134.55888492589403 L105.36886970292313,-134.5253155281018 L105.44983563805478,-134.48892555282364 L105.51971117613822,-134.45006545541426 L105.55027539599172,-134.42982523004656 L105.57782337754388,-134.4091094798548 L105.60228875529424,-134.38796811089566 L105.62361259000485,-134.36645205457873 L105.64174351069019,-134.34461314496826 L105.65663783837422,-134.32250399391037 L105.66825969131698,-134.30017786428647 L105.67658107145674,-134.2776885416984 L105.68158193185991,-134.2550902048941 L105.68325022501575,-134.23243729524626 " />
			<path d="M105.68325022501575,-134.23243729524626 L105.68158193185991,-134.20978438559843 L105.67658107145674,-134.1871860487941 L105.66825969131698,-134.16469672620602 L105.65663783837422,-134.14237059658214 L105.64174351069019,-134.12026144552425 L105.62361259000485,-134.09842253591378 L105.60228875529424,-134.07690647959686 L105.57782337754388,-134.0557651106377 L105.55027539599172,-134.03504936044595 L105.51971117613822,-134.01480913507825 L105.44983563805478,-133.97594903766887 L105.36886970292313,-133.9395590623907 L105.27759311695912,-133.90598966459848 L105.17688492358239,-133.8755641359438 L105.0677149977479,-133.84857549089992 L104.95113470551976,-133.8252836448721 L104.8282667788414,-133.8059129110702 L104.70029450301318,-133.7906498402499 L104.56845032100809,-133.77964142412677 L104.4340039643722,-133.77299367976593 L104.29825022501575,-133.77077062857958 L104.1624964856593,-133.77299367976593 L104.02805012902341,-133.77964142412677 L103.89620594701832,-133.7906498402499 L103.7682336711901,-133.8059129110702 L103.64536574451174,-133.8252836448721 L103.5287854522836,-133.84857549089992 L103.4196155264491,-133.8755641359438 L103.31890733307237,-133.90598966459848 L103.22763074710836,-133.9395590623907 L103.14666481197672,-133.97594903766887 L103.07678927389328,-134.01480913507825 L103.04622505403978,-134.03504936044595 L103.01867707248762,-134.0557651106377 L102.99421169473726,-134.07690647959686 L102.97288786002665,-134.09842253591378 L102.95475693934131,-134.12026144552425 L102.93986261165728,-134.14237059658214 L102.92824075871452,-134.16469672620602 L102.91991937857476,-134.1871860487941 L102.91491851817159,-134.20978438559843 L102.91325022501574,-134.23243729524626 " />
			<path d="M102.91325022501574,-134.23243729524626 L102.91700294251577,-134.2663996021081 L102.92824075871452,-134.3001778642865 L102.94690277491239,-134.33358903445202 L102.97288786002665,-134.36645205457873 L103.00605519862964,-134.39858883711324 L103.04622505403978,-134.42982523004656 L103.09317974233018,-134.459991960659 L103.14666481197672,-134.48892555282364 L103.2063904227529,-134.51646921289765 L103.27203291639913,-134.54247367940064 L103.34323657055491,-134.56679803187552 L103.4196155264491,-134.58931045454872 L103.50075587990203,-134.60988895065123 L103.58621792430814,-134.62842200352972 L103.67553853344413,-134.64480918096484 L103.7682336711901,-134.6589616794223 L103.86380101456328,-134.6708028052867 L103.96172267584973,-134.68026839047107 L104.06146800908273,-134.68730714014916 L104.1624964856593,-134.69188091072658 L104.26426062351152,-134.69396491654433 L104.36620895395922,-134.6935478641943 L104.46778901016667,-134.69063201371932 L104.56845032100809,-134.68523316636575 L104.66764739411849,-134.67738057895514 L104.76484267196398,-134.66711680533908 L104.85950944491266,-134.65449746579606 L104.95113470551976,-134.63959094562043 L105.03922192855939,-134.62247802453655 L105.12329376173777,-134.6032514389465 L105.20289461250673,-134.58201537938342 L105.27759311695911,-134.55888492589406 " />
			<path d="M142.0471457386596,-122.30236738532723 L142.13842232462363,-122.26879798753498 L142.21938825975525,-122.23240801225683 L142.28926379783871,-122.19354791484744 L142.3198280176922,-122.17330768947976 L142.34737599924438,-122.15259193928799 L142.37184137699472,-122.13145057032885 L142.39316521170534,-122.10993451401191 L142.41129613239067,-122.08809560440145 L142.4261904600747,-122.06598645334356 L142.43781231301745,-122.04366032371966 L142.44613369315724,-122.02117100113159 L142.4511345535604,-121.99857266432727 L142.45280284671622,-121.97591975467944 " />
			<path d="M142.45280284671622,-121.97591975467944 L142.4511345535604,-121.9532668450316 L142.44613369315724,-121.93066850822728 L142.43781231301745,-121.90817918563921 L142.4261904600747,-121.88585305601532 L142.41129613239067,-121.86374390495743 L142.39316521170534,-121.84190499534697 L142.37184137699472,-121.82038893903002 L142.34737599924438,-121.79924757007089 L142.3198280176922,-121.77853181987912 L142.28926379783871,-121.75829159451143 L142.21938825975525,-121.71943149710205 L142.13842232462363,-121.6830415218239 L142.0471457386596,-121.64947212403165 L141.9464375452829,-121.61904659537697 L141.83726761944837,-121.5920579503331 L141.72068732722025,-121.56876610430528 L141.59781940054188,-121.54939537050339 L141.46984712471365,-121.53413229968307 L141.33800294270858,-121.52312388355995 L141.20355658607266,-121.51647613919911 L141.06780284671623,-121.51425308801277 L140.9320491073598,-121.51647613919911 L140.79760275072388,-121.52312388355995 L140.66575856871881,-121.53413229968307 L140.5377862928906,-121.54939537050339 L140.41491836621222,-121.56876610430528 L140.2983380739841,-121.5920579503331 L140.18916814814958,-121.61904659537697 L140.08845995477287,-121.64947212403165 L139.99718336880883,-121.6830415218239 L139.91621743367722,-121.71943149710205 L139.84634189559375,-121.75829159451143 L139.81577767574026,-121.77853181987912 L139.7882296941881,-121.79924757007089 L139.76376431643774,-121.82038893903002 L139.74244048172713,-121.84190499534697 L139.7243095610418,-121.86374390495743 L139.70941523335776,-121.88585305601532 L139.69779338041502,-121.90817918563921 L139.68947200027523,-121.93066850822728 L139.68447113987207,-121.9532668450316 L139.68280284671624,-121.97591975467944 " />
			<path d="M139.68280284671624,-121.97591975467944 L139.68655556421623,-122.00988206154129 L139.69779338041502,-122.04366032371966 L139.71645539661287,-122.0770714938852 L139.74244048172713,-122.10993451401191 L139.77560782033012,-122.14207129654642 L139.81577767574026,-122.17330768947976 L139.86273236403068,-122.20347442009219 L139.91621743367722,-122.23240801225683 L139.97594304445337,-122.25995167233083 L140.0415855380996,-122.28595613883381 L140.1127891922554,-122.3102804913087 L140.18916814814958,-122.3327929139819 L140.27030850160253,-122.35337141008442 L140.3557705460086,-122.3719044629629 L140.4450911551446,-122.38829164039804 L140.5377862928906,-122.40244413885549 L140.63335363626376,-122.4142852647199 L140.7312752975502,-122.42375084990425 L140.83102063078323,-122.43078959958233 L140.9320491073598,-122.43536337015976 L141.033813245212,-122.43744737597751 L141.1357615756597,-122.4370303236275 L141.23734163186714,-122.4341144731525 L141.33800294270856,-122.42871562579893 L141.43720001581897,-122.42086303838833 L141.53439529366446,-122.41059926477227 L141.62906206661313,-122.39797992522924 L141.72068732722025,-122.3830734050536 L141.80877455025987,-122.36596048396972 L141.89284638343824,-122.34673389837967 L141.9724472342072,-122.3254978388166 L142.0471457386596,-122.30236738532723 " />

       </g>
    </g>
    
</svg>
