<?xml version="1.0" encoding="UTF-8" standalone="no"?>
<svg
   xmlns:svg="http://www.w3.org/2000/svg"
   xmlns="http://www.w3.org/2000/svg"
   width="1024.0"
   height="320.0"

>
    <g transform="scale(4.181658172109356, -4.181658172109356)   translate(42.17106275576436,61.56739460081202)" stroke-width="0.8866666666666667"  fill="none">
       <!-- hidden lines -->
       <g  stroke="rgb(32,64,32)" fill="none" stroke-dasharray="0.8866666666666667,0.8866666666666667" >

       </g>

       <!-- solid lines -->
       <g  stroke="rgb(64,192,64)" fill="none">
			<path d="M75.30687219636732,-66.3501863013377 L78.84240610230003,-67.52869760331527 " />
			<path d="M83.79215357060588,-69.17861342608388 L119.8545994111198,-81.1994287062552 " />
			<path d="M124.80434687942775,-82.8493445290245 L169.35207409417814,-97.6985869339413 " />
			<path d="M169.35207409417814,-100.5270140586875 L169.35207409417814,-97.69858693394131 " />
			<path d="M5.656854249492418,-92.39528607504221 L5.656854249492417,-89.56685895029601 " />
			<path d="M5.656854249492416,-89.56685895029601 L75.30687219636731,-66.3501863013377 " />
			<path d="M169.35207409417814,-100.5270140586875 L99.70205614730324,-123.74368670764581 " />
			<path d="M169.35207409417814,-97.6985869339413 L99.70205614730324,-120.91525958289961 " />
			<path d="M99.70205614730322,-123.74368670764582 L99.70205614730322,-120.91525958289964 " />
			<path d="M10.606601717798245,-94.0452018978108 L5.656854249492412,-92.39528607504218 " />
			<path d="M94.7523086789974,-122.09377088487719 L10.606601717798242,-94.0452018978108 " />
			<path d="M94.7523086789974,-122.09377088487719 L99.70205614730324,-123.7436867076458 " />
			<path d="M99.70205614730324,-120.91525958289961 L5.656854249492419,-89.56685895029601 " />
			<path d="M11.667261889578041,-89.9204123408893 L11.766117397842326,-89.88405559237785 L11.853806136252038,-89.84464406680583 L11.893194632798629,-89.82391032239263 L11.929483614320752,-89.80255731870902 L11.962585657483386,-89.78063649701116 L11.99242101656515,-89.75820066647857 L12.01891781557275,-89.73530387699213 L12.042012221396533,-89.71200128892326 L12.061648597590036,-89.68834904024766 L12.077779638403065,-89.6644041113041 L12.090366482745392,-89.6402241875237 L12.099378807806517,-89.61586752046081 L12.10479490210598,-89.59139278745974 L12.10660171779822,-89.56685895029602 " />
			<path d="M12.10660171779822,-89.56685895029602 L12.10479490210598,-89.5423251131323 L12.099378807806517,-89.51785038013124 L12.090366482745392,-89.49349371306835 L12.077779638403065,-89.46931378928795 L12.061648597590036,-89.44536886034439 L12.042012221396533,-89.42171661166878 L12.01891781557275,-89.39841402359991 L11.99242101656515,-89.37551723411347 L11.962585657483386,-89.35308140358089 L11.929483614320752,-89.33116058188303 L11.893194632798629,-89.30980757819941 L11.853806136252038,-89.28907383378622 L11.766117397842326,-89.2496623082142 L11.667261889578041,-89.21330555970275 L11.558191644043688,-89.18035372361466 L11.439957067327624,-89.15112414414475 L11.313696823037217,-89.12589831812184 L11.180626866345856,-89.10491918404038 L11.042028733679913,-89.08838878242992 L10.899237200822412,-89.0764663100944 L10.753627428292562,-89.06926658695993 L10.60660171779822,-89.06685895029602 L10.459576007303879,-89.06926658695993 L10.313966234774028,-89.0764663100944 L10.171174701916527,-89.08838878242992 L10.032576569250585,-89.10491918404038 L9.899506612559223,-89.12589831812184 L9.773246368268817,-89.15112414414475 L9.655011791552752,-89.18035372361466 L9.5459415460184,-89.21330555970275 L9.447086037754115,-89.2496623082142 L9.359397299344403,-89.28907383378622 L9.320008802797812,-89.30980757819941 L9.283719821275689,-89.33116058188303 L9.250617778113055,-89.35308140358089 L9.220782419031291,-89.37551723411347 L9.194285620023688,-89.39841402359991 L9.171191214199908,-89.42171661166878 L9.151554838006405,-89.44536886034439 L9.135423797193376,-89.46931378928795 L9.12283695285105,-89.49349371306835 L9.113824627789924,-89.51785038013124 L9.108408533490461,-89.54232511313232 L9.10660171779822,-89.56685895029602 " />
			<path d="M9.10660171779822,-89.56685895029602 L9.107618140915696,-89.5852625617667 L9.110666032780184,-89.60364123209585 L9.12283695285105,-89.6402241875237 L9.143048522740427,-89.67640957037446 L9.171191214199908,-89.71200128892326 L9.207112519546111,-89.74680646856352 L9.250617778113055,-89.78063649701116 L9.301471231135153,-89.81330804641091 L9.359397299344401,-89.84464406680583 L9.42408207635831,-89.87447474558634 L9.49517502976578,-89.90263842771954 L9.57229090069262,-89.92898249177176 L9.655011791552752,-89.95336417697739 L9.742889430671452,-89.97565135687182 L9.835447601508388,-89.99572325529616 L9.93218472331631,-90.01347110089378 L10.032576569250585,-90.02879871655166 L10.136079107199881,-90.04162304059254 L10.242131447943322,-90.0518745768933 L10.350158884657768,-90.0594977714905 L10.459576007303879,-90.06445131363212 L10.56978987501385,-90.06670835964412 L10.680203229289347,-90.06625667839862 L10.790217730597044,-90.06309871759538 L10.899237200822412,-90.05725159049764 L11.006670854010567,-90.04874698319374 L11.11193649788655,-90.03763098288753 L11.214463688805704,-90.02396382814779 L11.313696823037217,-90.0078195824702 L11.409098147628866,-89.98928573292088 L11.500150674536869,-89.96846271603634 L11.586360982228886,-89.94546337354926 L11.667261889578032,-89.9204123408893 " />
			<path d="M49.14392129246505,-83.55645131021036 L45.60838738657545,-84.73496261217356 " />
			<path d="M45.60838738657545,-84.73496261217356 L42.07285348068585,-83.55645131021036 " />
			<path d="M100.76271631908301,-119.6188971507243 L100.8615718273473,-119.58254040221284 L100.94926056575702,-119.54312887664082 L100.98864906230361,-119.52239513222763 L101.02493804382573,-119.50104212854401 L101.05804008698836,-119.47912130684615 L101.08787544607013,-119.45668547631357 L101.11437224507773,-119.43378868682713 L101.13746665090152,-119.41048609875826 L101.15710302709502,-119.38683385008265 L101.17323406790804,-119.36288892113909 L101.18582091225036,-119.3387089973587 L101.19483323731149,-119.3143523302958 L101.20024933161095,-119.28987759729473 L101.2020561473032,-119.26534376013102 " />
			<path d="M101.2020561473032,-119.26534376013102 L101.20024933161095,-119.2408099229673 L101.19483323731149,-119.21633518996623 L101.18582091225036,-119.19197852290334 L101.17323406790804,-119.16779859912295 L101.15710302709502,-119.14385367017938 L101.13746665090152,-119.12020142150378 L101.11437224507773,-119.0968988334349 L101.08787544607013,-119.07400204394847 L101.05804008698836,-119.05156621341588 L101.02493804382573,-119.02964539171802 L100.98864906230361,-119.0082923880344 L100.94926056575702,-118.98755864362121 L100.8615718273473,-118.94814711804919 L100.76271631908301,-118.91179036953774 L100.65364607354867,-118.87883853344965 L100.5354114968326,-118.84960895397974 L100.40915125254219,-118.82438312795684 L100.27608129585083,-118.80340399387538 L100.1374831631849,-118.78687359226491 L99.9946916303274,-118.7749511199294 L99.84908185779754,-118.76775139679492 L99.7020561473032,-118.76534376013102 L99.55503043680885,-118.76775139679492 L99.409420664279,-118.7749511199294 L99.2666291314215,-118.78687359226491 L99.12803099875556,-118.80340399387538 L98.9949610420642,-118.82438312795684 L98.8687007977738,-118.84960895397974 L98.75046622105774,-118.87883853344965 L98.64139597552338,-118.91179036953774 L98.54254046725909,-118.94814711804919 L98.45485172884938,-118.98755864362121 L98.41546323230278,-119.0082923880344 L98.37917425078066,-119.02964539171802 L98.34607220761804,-119.05156621341588 L98.31623684853626,-119.07400204394847 L98.28974004952866,-119.0968988334349 L98.26664564370488,-119.12020142150378 L98.24700926751137,-119.14385367017938 L98.23087822669835,-119.16779859912295 L98.21829138235603,-119.19197852290334 L98.2092790572949,-119.21633518996623 L98.20386296299544,-119.24080992296732 L98.2020561473032,-119.26534376013102 " />
			<path d="M98.2020561473032,-119.26534376013102 L98.20307257042067,-119.28374737160169 L98.20612046228516,-119.30212604193085 L98.21829138235603,-119.3387089973587 L98.2385029522454,-119.37489438020945 L98.26664564370488,-119.41048609875826 L98.30256694905108,-119.44529127839851 L98.34607220761804,-119.47912130684615 L98.39692566064014,-119.5117928562459 L98.45485172884938,-119.54312887664082 L98.51953650586329,-119.57295955542133 L98.59062945927076,-119.60112323755453 L98.66774533019759,-119.62746730160676 L98.75046622105772,-119.65184898681238 L98.83834386017642,-119.67413616670682 L98.93090203101336,-119.69420806513115 L99.02763915282128,-119.71195591072878 L99.12803099875556,-119.72728352638666 L99.23153353670486,-119.74010785042753 L99.3375858774483,-119.75035938672829 L99.44561331416274,-119.75798258132549 L99.55503043680885,-119.76293612346711 L99.66524430451882,-119.76519316947912 L99.77565765879432,-119.7647414882336 L99.88567216010202,-119.76158352743037 L99.99469163032738,-119.75573640033264 L100.10212528351555,-119.74723179302873 L100.20739092739153,-119.73611579272253 L100.30991811831068,-119.72244863798278 L100.40915125254219,-119.7063043923052 L100.50455257713384,-119.68777054275587 L100.59560510404185,-119.66694752587134 L100.68181541173387,-119.64394818338425 L100.76271631908301,-119.6188971507243 " />
			<path d="M83.08504678937337,-97.22718241316561 L86.62058069535206,-98.4056937151585 " />
			<path d="M86.62058069535206,-98.4056937151585 L90.15611460133076,-97.22718241316561 " />
			<path d="M83.79215357060588,-72.00704055083007 L80.25661966467314,-73.18555185280765 " />
			<path d="M80.25661966467314,-73.18555185280765 L76.7210857587404,-72.00704055083007 " />
			<path d="M76.36753236814712,-68.35365551469958 L76.46638787641142,-68.31729876618813 L76.55407661482113,-68.27788724061611 L76.59346511136772,-68.25715349620292 L76.62975409288984,-68.2358004925193 L76.66285613605247,-68.21387967082144 L76.69269149513424,-68.19144384028885 L76.71918829414184,-68.16854705080242 L76.74228269996563,-68.14524446273354 L76.76191907615913,-68.12159221405794 L76.77805011697215,-68.09764728511438 L76.79063696131448,-68.07346736133398 L76.7996492863756,-68.04911069427109 L76.80506538067506,-68.02463596127002 L76.80687219636731,-68.0001021241063 " />
			<path d="M76.80687219636731,-68.0001021241063 L76.80506538067506,-67.97556828694259 L76.7996492863756,-67.95109355394152 L76.79063696131448,-67.92673688687863 L76.77805011697215,-67.90255696309823 L76.76191907615913,-67.87861203415467 L76.74228269996563,-67.85495978547907 L76.71918829414184,-67.8316571974102 L76.69269149513424,-67.80876040792376 L76.66285613605247,-67.78632457739117 L76.62975409288984,-67.76440375569331 L76.59346511136772,-67.7430507520097 L76.55407661482113,-67.7223170075965 L76.46638787641142,-67.68290548202448 L76.36753236814712,-67.64654873351303 L76.25846212261278,-67.61359689742494 L76.1402275458967,-67.58436731795503 L76.0139673016063,-67.55914149193212 L75.88089734491494,-67.53816235785067 L75.74229921224901,-67.5216319562402 L75.59950767939151,-67.50970948390469 L75.45389790686166,-67.50250976077021 L75.30687219636731,-67.5001021241063 L75.15984648587296,-67.50250976077021 L75.01423671334311,-67.50970948390469 L74.87144518048561,-67.5216319562402 L74.73284704781967,-67.53816235785067 L74.59977709112832,-67.55914149193212 L74.47351684683791,-67.58436731795503 L74.35528227012185,-67.61359689742494 L74.24621202458749,-67.64654873351303 L74.1473565163232,-67.68290548202448 L74.05966777791349,-67.7223170075965 L74.0202792813669,-67.7430507520097 L73.98399029984478,-67.76440375569331 L73.95088825668215,-67.78632457739117 L73.92105289760038,-67.80876040792376 L73.89455609859277,-67.8316571974102 L73.87146169276899,-67.85495978547907 L73.85182531657549,-67.87861203415467 L73.83569427576246,-67.90255696309823 L73.82310743142014,-67.92673688687863 L73.81409510635902,-67.95109355394152 L73.80867901205956,-67.9755682869426 L73.80687219636731,-68.0001021241063 " />
			<path d="M73.80687219636731,-68.0001021241063 L73.80788861948479,-68.01850573557698 L73.81093651134927,-68.03688440590614 L73.82310743142014,-68.07346736133398 L73.84331900130951,-68.10965274418474 L73.87146169276899,-68.14524446273354 L73.9073829981152,-68.1800496423738 L73.95088825668215,-68.21387967082144 L74.00174170970425,-68.24655122022119 L74.05966777791349,-68.27788724061611 L74.1243525549274,-68.30771791939662 L74.19544550833487,-68.33588160152982 L74.2725613792617,-68.36222566558205 L74.35528227012183,-68.38660735078767 L74.44315990924053,-68.4088945306821 L74.53571808007747,-68.42896642910644 L74.63245520188539,-68.44671427470406 L74.73284704781967,-68.46204189036195 L74.83634958576897,-68.47486621440282 L74.94240192651242,-68.48511775070358 L75.05042936322685,-68.49274094530078 L75.15984648587296,-68.4976944874424 L75.27006035358293,-68.49995153345441 L75.38047370785843,-68.49949985220888 L75.49048820916613,-68.49634189140566 L75.5995076793915,-68.49049476430793 L75.70694133257966,-68.48199015700402 L75.81220697645564,-68.47087415669782 L75.91473416737479,-68.45720700195807 L76.0139673016063,-68.44106275628049 L76.10936862619795,-68.42252890673116 L76.20042115310596,-68.40170588984662 L76.28663146079798,-68.37870654735954 L76.36753236814712,-68.35365551469958 " />
			<path d="M124.80434687942775,-85.6777716537707 L121.2688129734929,-86.856282955749 " />
			<path d="M121.2688129734929,-86.85628295574898 L117.73327906755804,-85.67777165377069 " />
			<path d="M165.46298679765212,-98.05214032453458 L165.5618423059164,-98.01578357602313 L165.6495310443261,-97.9763720504511 L165.6889195408727,-97.95563830603791 L165.72520852239484,-97.9342853023543 L165.75831056555745,-97.91236448065644 L165.78814592463922,-97.88992865012385 L165.8146427236468,-97.86703186063741 L165.8377371294706,-97.84372927256854 L165.8573735056641,-97.82007702389294 L165.87350454647714,-97.79613209494937 L165.88609139081947,-97.77195217116898 L165.8951037158806,-97.74759550410609 L165.90051981018004,-97.72312077110502 L165.9023266258723,-97.6985869339413 " />
			<path d="M165.9023266258723,-97.6985869339413 L165.90051981018004,-97.67405309677758 L165.8951037158806,-97.64957836377651 L165.88609139081947,-97.62522169671362 L165.87350454647714,-97.60104177293323 L165.8573735056641,-97.57709684398966 L165.8377371294706,-97.55344459531406 L165.8146427236468,-97.53014200724519 L165.78814592463922,-97.50724521775875 L165.75831056555745,-97.48480938722616 L165.72520852239484,-97.4628885655283 L165.6889195408727,-97.44153556184469 L165.6495310443261,-97.4208018174315 L165.5618423059164,-97.38139029185947 L165.46298679765212,-97.34503354334802 L165.35391655211777,-97.31208170725994 L165.2356819754017,-97.28285212779002 L165.1094217311113,-97.25762630176712 L164.97635177441992,-97.23664716768566 L164.83775364175398,-97.2201167660752 L164.69496210889648,-97.20819429373968 L164.54935233636664,-97.2009945706052 L164.4023266258723,-97.1985869339413 L164.25530091537794,-97.2009945706052 L164.1096911428481,-97.20819429373968 L163.9668996099906,-97.2201167660752 L163.82830147732466,-97.23664716768566 L163.69523152063329,-97.25762630176712 L163.5689712763429,-97.28285212779002 L163.45073669962682,-97.31208170725994 L163.34166645409246,-97.34503354334802 L163.24281094582818,-97.38139029185947 L163.1551222074185,-97.4208018174315 L163.1157337108719,-97.44153556184469 L163.07944472934975,-97.4628885655283 L163.04634268618713,-97.48480938722616 L163.01650732710536,-97.50724521775875 L162.99001052809777,-97.53014200724519 L162.96691612227397,-97.55344459531406 L162.94727974608048,-97.57709684398966 L162.93114870526745,-97.60104177293323 L162.9185618609251,-97.62522169671362 L162.909549535864,-97.64957836377651 L162.90413344156454,-97.6740530967776 L162.9023266258723,-97.6985869339413 " />
			<path d="M162.9023266258723,-97.6985869339413 L162.90334304898977,-97.71699054541197 L162.90639094085427,-97.73536921574113 L162.9185618609251,-97.77195217116898 L162.9387734308145,-97.80813755401974 L162.96691612227397,-97.84372927256854 L163.0028374276202,-97.8785344522088 L163.04634268618713,-97.91236448065644 L163.09719613920922,-97.94503603005619 L163.1551222074185,-97.9763720504511 L163.21980698443238,-98.00620272923162 L163.29089993783984,-98.03436641136481 L163.3680158087667,-98.06071047541704 L163.45073669962682,-98.08509216062266 L163.53861433874553,-98.1073793405171 L163.63117250958246,-98.12745123894143 L163.7279096313904,-98.14519908453906 L163.82830147732466,-98.16052670019694 L163.93180401527394,-98.17335102423782 L164.0378563560174,-98.18360256053857 L164.14588379273184,-98.19122575513578 L164.25530091537794,-98.1961792972774 L164.36551478308792,-98.1984363432894 L164.4759281373634,-98.1979846620439 L164.58594263867113,-98.19482670124066 L164.69496210889648,-98.18897957414292 L164.80239576208464,-98.18047496683901 L164.90766140596062,-98.16935896653281 L165.01018859687977,-98.15569181179306 L165.1094217311113,-98.13954756611548 L165.20482305570295,-98.12101371656615 L165.29587558261093,-98.10019069968162 L165.38208589030296,-98.07719135719454 L165.4629867976521,-98.05214032453458 " />
			<path d="M42.07285348068585,-83.55645131021036 L42.07285348068585,-79.78521514388211 " />
			<path d="M42.07285348068585,-79.78521514388211 L45.60838738657545,-78.60670384191891 " />
			<path d="M45.60838738657545,-84.73496261217356 L45.60838738657545,-80.96372644584531 " />
			<path d="M45.60838738657545,-80.96372644584531 L42.07285348068585,-79.78521514388211 " />
			<path d="M45.60838738657545,-78.60670384191891 L49.14392129246505,-79.78521514388211 " />
			<path d="M49.14392129246505,-83.55645131021036 L49.14392129246505,-79.78521514388211 " />
			<path d="M49.14392129246505,-79.78521514388211 L45.60838738657545,-80.96372644584531 " />
			<path d="M83.08504678937337,-97.22718241316561 L83.08504678937337,-93.45594624683736 " />
			<path d="M83.08504678937337,-93.45594624683736 L86.62058069535206,-94.63445754883026 " />
			<path d="M86.62058069535206,-98.4056937151585 L86.62058069535206,-94.63445754883026 " />
			<path d="M86.62058069535207,-92.27743494484446 L83.08504678937338,-93.45594624683736 " />
			<path d="M86.62058069535206,-94.63445754883026 L90.15611460133076,-93.45594624683736 " />
			<path d="M90.15611460133077,-97.22718241316561 L90.15611460133077,-93.45594624683736 " />
			<path d="M90.15611460133077,-93.45594624683736 L86.62058069535207,-92.27743494484446 " />
			<path d="M76.7210857587404,-72.00704055083007 L76.7210857587404,-68.23580438450182 " />
			<path d="M76.7210857587404,-68.23580438450182 L80.25661966467314,-67.05729308252424 " />
			<path d="M80.25661966467314,-73.18555185280765 L80.25661966467314,-69.4143156864794 " />
			<path d="M80.25661966467314,-69.4143156864794 L76.7210857587404,-68.23580438450182 " />
			<path d="M80.25661966467314,-67.05729308252424 L83.79215357060588,-68.23580438450182 " />
			<path d="M83.79215357060588,-72.00704055083007 L83.79215357060588,-68.23580438450182 " />
			<path d="M83.79215357060588,-68.23580438450182 L80.25661966467314,-69.4143156864794 " />
			<path d="M117.73327906755804,-85.67777165377069 L117.73327906755804,-81.90653548744244 " />
			<path d="M117.73327906755804,-81.90653548744245 L121.2688129734929,-80.72802418546416 " />
			<path d="M121.2688129734929,-86.85628295574898 L121.2688129734929,-83.08504678942073 " />
			<path d="M121.2688129734929,-83.08504678942072 L117.73327906755804,-81.90653548744243 " />
			<path d="M121.2688129734929,-80.72802418546416 L124.80434687942775,-81.90653548744245 " />
			<path d="M124.80434687942775,-85.6777716537707 L124.80434687942775,-81.90653548744245 " />
			<path d="M124.80434687942775,-81.90653548744244 L121.2688129734929,-83.08504678942073 " />
			<path d="M46.58773027851882,-80.11166277454429 L46.679006864482844,-80.07809337675204 L46.759972799614474,-80.04170340147388 L46.829848337697925,-80.0028433040645 L46.86041255755142,-79.98260307869681 L46.88796053910358,-79.96188732850504 L46.912425916853934,-79.94074595954591 L46.93374975156456,-79.91922990322897 L46.95188067224989,-79.8973909936185 L46.966774999933925,-79.87528184256061 L46.97839685287667,-79.85295571293672 L46.98671823301645,-79.83046639034865 L46.99171909341962,-79.80786805354433 L46.99338738657545,-79.7852151438965 " />
			<path d="M46.99338738657545,-79.7852151438965 L46.99171909341962,-79.76256223424866 L46.98671823301645,-79.73996389744434 L46.97839685287667,-79.71747457485627 L46.966774999933925,-79.69514844523238 L46.95188067224989,-79.67303929417449 L46.93374975156456,-79.65120038456402 L46.912425916853934,-79.62968432824708 L46.88796053910358,-79.60854295928794 L46.86041255755142,-79.58782720909618 L46.829848337697925,-79.56758698372849 L46.759972799614474,-79.5287268863191 L46.679006864482844,-79.49233691104095 L46.58773027851882,-79.4587675132487 L46.4870220851421,-79.42834198459403 L46.3778521593076,-79.40135333955016 L46.26127186707946,-79.37806149352234 L46.1384039404011,-79.35869075972045 L46.010431664572884,-79.34342768890012 L45.87858748256779,-79.332419272777 L45.74414112593189,-79.32577152841617 L45.60838738657545,-79.32354847722982 L45.47263364721901,-79.32577152841617 L45.338187290583114,-79.332419272777 L45.20634310857802,-79.34342768890012 L45.078370832749805,-79.35869075972045 L44.955502906071445,-79.37806149352234 L44.8389226138433,-79.40135333955016 L44.7297526880088,-79.42834198459403 L44.62904449463208,-79.4587675132487 L44.53776790866806,-79.49233691104095 L44.45680197353643,-79.5287268863191 L44.38692643545298,-79.56758698372849 L44.35636221559948,-79.58782720909618 L44.32881423404732,-79.60854295928794 L44.30434885629697,-79.62968432824708 L44.28302502158634,-79.65120038456402 L44.26489410090101,-79.67303929417449 L44.24999977321698,-79.69514844523238 L44.23837792027423,-79.71747457485627 L44.230056540134456,-79.73996389744434 L44.225055679731284,-79.76256223424866 L44.22338738657545,-79.7852151438965 " />
			<path d="M44.22338738657545,-79.7852151438965 L44.22714010407547,-79.81917745075835 L44.23837792027423,-79.85295571293672 L44.25703993647209,-79.88636688310226 L44.28302502158634,-79.91922990322897 L44.31619236018934,-79.95136668576347 L44.35636221559948,-79.98260307869681 L44.40331690388989,-80.01276980930925 L44.45680197353643,-80.04170340147388 L44.5165275843126,-80.06924706154788 L44.582170077958835,-80.09525152805087 L44.653373732114616,-80.11957588052576 L44.7297526880088,-80.14208830319896 L44.81089304146173,-80.16266679930148 L44.89635508586784,-80.18119985217996 L44.98567569500382,-80.1975870296151 L45.0783708327498,-80.21173952807254 L45.17393817612299,-80.22358065393695 L45.27185983740943,-80.23304623912131 L45.37160517064243,-80.24008498879938 L45.472633647219006,-80.24465875937682 L45.57439778507122,-80.24674276519457 L45.676346115518925,-80.24632571284455 L45.777926171726364,-80.24340986236956 L45.87858748256779,-80.23801101501599 L45.977784555678184,-80.23015842760539 L46.07497983352368,-80.21989465398933 L46.16964660647236,-80.20727531444629 L46.26127186707946,-80.19236879427065 L46.34935909011908,-80.17525587318677 L46.43343092329747,-80.15602928759672 L46.513031774066434,-80.13479322803366 L46.58773027851881,-80.11166277454429 " />
			<path d="M87.59992358729545,-93.78239387746983 L87.69120017325946,-93.74882447967758 L87.7721661083911,-93.71243450439943 L87.84204164647454,-93.67357440699004 L87.87260586632804,-93.65333418162236 L87.9001538478802,-93.63261843143059 L87.92461922563056,-93.61147706247145 L87.94594306034118,-93.58996100615451 L87.96407398102652,-93.56812209654404 L87.97896830871055,-93.54601294548615 L87.9905901616533,-93.52368681586226 L87.99891154179306,-93.50119749327419 L88.00391240219624,-93.47859915646987 L88.00558069535208,-93.45594624682204 " />
			<path d="M88.00558069535208,-93.45594624682204 L88.00391240219624,-93.4332933371742 L87.99891154179306,-93.41069500036988 L87.9905901616533,-93.38820567778181 L87.97896830871055,-93.36587954815792 L87.96407398102652,-93.34377039710003 L87.94594306034118,-93.32193148748956 L87.92461922563056,-93.30041543117262 L87.9001538478802,-93.27927406221349 L87.87260586632804,-93.25855831202172 L87.84204164647454,-93.23831808665403 L87.7721661083911,-93.19945798924465 L87.69120017325946,-93.1630680139665 L87.59992358729545,-93.12949861617425 L87.49921539391872,-93.09907308751957 L87.39004546808422,-93.0720844424757 L87.27346517585609,-93.04879259644788 L87.15059724917772,-93.02942186264599 L87.02262497334951,-93.01415879182566 L86.89078079134441,-93.00315037570255 L86.75633443470852,-92.99650263134171 L86.62058069535207,-92.99427958015536 L86.48482695599563,-92.99650263134171 L86.35038059935974,-93.00315037570255 L86.21853641735464,-93.01415879182566 L86.09056414152643,-93.02942186264599 L85.96769621484806,-93.04879259644788 L85.85111592261993,-93.0720844424757 L85.74194599678543,-93.09907308751957 L85.6412378034087,-93.12949861617425 L85.54996121744469,-93.1630680139665 L85.46899528231305,-93.19945798924465 L85.39911974422961,-93.23831808665403 L85.3685555243761,-93.25855831202172 L85.34100754282395,-93.27927406221349 L85.31654216507359,-93.30041543117262 L85.29521833036297,-93.32193148748956 L85.27708740967763,-93.34377039710003 L85.2621930819936,-93.36587954815792 L85.25057122905085,-93.38820567778181 L85.24224984891109,-93.41069500036988 L85.23724898850791,-93.4332933371742 L85.23558069535207,-93.45594624682204 " />
			<path d="M85.23558069535207,-93.45594624682204 L85.23933341285209,-93.48990855368389 L85.25057122905085,-93.52368681586226 L85.26923324524871,-93.5570979860278 L85.29521833036297,-93.58996100615451 L85.32838566896596,-93.62209778868902 L85.3685555243761,-93.65333418162236 L85.4155102126665,-93.68350091223479 L85.46899528231305,-93.71243450439943 L85.52872089308923,-93.73997816447343 L85.59436338673545,-93.76598263097641 L85.66556704089123,-93.7903069834513 L85.74194599678543,-93.8128194061245 L85.82308635023836,-93.83339790222702 L85.90854839464447,-93.8519309551055 L85.99786900378045,-93.86831813254064 L86.09056414152643,-93.88247063099809 L86.1861314848996,-93.89431175686249 L86.28405314618605,-93.90377734204685 L86.38379847941906,-93.91081609172493 L86.48482695599563,-93.91538986230236 L86.58659109384784,-93.91747386812011 L86.68853942429554,-93.9170568157701 L86.790119480503,-93.9141409652951 L86.89078079134441,-93.90874211794153 L86.98997786445481,-93.90088953053093 L87.0871731423003,-93.89062575691487 L87.18183991524899,-93.87800641737184 L87.27346517585609,-93.8630998971962 L87.36155239889571,-93.84598697611231 L87.4456242320741,-93.82676039052227 L87.52522508284305,-93.8055243309592 L87.59992358729544,-93.78239387746983 " />
			<path d="M81.23596255661651,-68.56225201514961 L81.32723914258052,-68.52868261735736 L81.40820507771217,-68.4922926420792 L81.4780806157956,-68.45343254466982 L81.50864483564911,-68.43319231930214 L81.53619281720127,-68.41247656911037 L81.56065819495163,-68.39133520015123 L81.58198202966224,-68.36981914383429 L81.60011295034758,-68.34798023422383 L81.61500727803161,-68.32587108316594 L81.62662913097437,-68.30354495354204 L81.63495051111413,-68.28105563095397 L81.6399513715173,-68.25845729414965 L81.64161966467314,-68.23580438450182 " />
			<path d="M81.64161966467314,-68.23580438450182 L81.6399513715173,-68.21315147485399 L81.63495051111413,-68.19055313804967 L81.62662913097437,-68.1680638154616 L81.61500727803161,-68.1457376858377 L81.60011295034758,-68.12362853477981 L81.58198202966224,-68.10178962516935 L81.56065819495163,-68.0802735688524 L81.53619281720127,-68.05913219989327 L81.50864483564911,-68.0384164497015 L81.4780806157956,-68.01817622433381 L81.40820507771217,-67.97931612692443 L81.32723914258052,-67.94292615164628 L81.23596255661651,-67.90935675385403 L81.13525436323978,-67.87893122519935 L81.02608443740529,-67.85194258015548 L80.90950414517715,-67.82865073412766 L80.78663621849878,-67.80928000032577 L80.65866394267057,-67.79401692950545 L80.52681976066548,-67.78300851338233 L80.39237340402958,-67.7763607690215 L80.25661966467314,-67.77413771783515 L80.12086592531669,-67.7763607690215 L79.9864195686808,-67.78300851338233 L79.8545753866757,-67.79401692950545 L79.72660311084749,-67.80928000032577 L79.60373518416912,-67.82865073412766 L79.48715489194099,-67.85194258015548 L79.3779849661065,-67.87893122519935 L79.27727677272976,-67.90935675385403 L79.18600018676575,-67.94292615164628 L79.10503425163411,-67.97931612692443 L79.03515871355067,-68.01817622433381 L79.00459449369717,-68.0384164497015 L78.97704651214501,-68.05913219989327 L78.95258113439465,-68.0802735688524 L78.93125729968403,-68.10178962516935 L78.9131263789987,-68.12362853477981 L78.89823205131466,-68.1457376858377 L78.88661019837191,-68.1680638154616 L78.87828881823215,-68.19055313804967 L78.87328795782898,-68.21315147485399 L78.87161966467313,-68.23580438450182 " />
			<path d="M78.87161966467313,-68.23580438450182 L78.87537238217315,-68.26976669136367 L78.88661019837191,-68.30354495354204 L78.90527221456978,-68.33695612370758 L78.93125729968403,-68.36981914383429 L78.96442463828703,-68.4019559263688 L79.00459449369717,-68.43319231930214 L79.05154918198757,-68.46335904991457 L79.10503425163411,-68.4922926420792 L79.16475986241029,-68.51983630215321 L79.23040235605652,-68.54584076865619 L79.3016060102123,-68.57016512113108 L79.3779849661065,-68.59267754380429 L79.45912531955942,-68.6132560399068 L79.54458736396552,-68.63178909278528 L79.63390797310151,-68.64817627022042 L79.72660311084749,-68.66232876867787 L79.82217045422067,-68.67416989454227 L79.92009211550712,-68.68363547972663 L80.01983744874012,-68.6906742294047 L80.12086592531669,-68.69524799998214 L80.2226300631689,-68.6973320057999 L80.3245783936166,-68.69691495344988 L80.42615844982406,-68.69399910297489 L80.52681976066548,-68.68860025562131 L80.62601683377588,-68.68074766821071 L80.72321211162136,-68.67048389459465 L80.81787888457005,-68.65786455505162 L80.90950414517715,-68.64295803487597 L80.99759136821677,-68.6258451137921 L81.08166320139516,-68.60661852820205 L81.16126405216411,-68.58538246863898 L81.2359625566165,-68.56225201514961 " />
			<path d="M122.24815586543627,-82.23298311808954 L122.33943245140028,-82.19941372029729 L122.42039838653193,-82.16302374501913 L122.49027392461537,-82.12416364760975 L122.52083814446887,-82.10392342224206 L122.54838612602103,-82.08320767205029 L122.57285150377139,-82.06206630309116 L122.594175338482,-82.04055024677422 L122.61230625916734,-82.01871133716375 L122.62720058685137,-81.99660218610586 L122.63882243979413,-81.97427605648197 L122.64714381993389,-81.9517867338939 L122.65214468033706,-81.92918839708958 L122.6538129734929,-81.90653548744174 " />
			<path d="M122.6538129734929,-81.90653548744174 L122.65214468033706,-81.88388257779391 L122.64714381993389,-81.86128424098959 L122.63882243979413,-81.83879491840152 L122.62720058685137,-81.81646878877763 L122.61230625916734,-81.79435963771974 L122.594175338482,-81.77252072810927 L122.57285150377139,-81.75100467179233 L122.54838612602103,-81.7298633028332 L122.52083814446887,-81.70914755264143 L122.49027392461537,-81.68890732727374 L122.42039838653193,-81.65004722986436 L122.33943245140028,-81.6136572545862 L122.24815586543627,-81.58008785679395 L122.14744767205954,-81.54966232813928 L122.03827774622505,-81.5226736830954 L121.92169745399691,-81.49938183706759 L121.79882952731855,-81.4800111032657 L121.67085725149033,-81.46474803244537 L121.53901306948524,-81.45373961632225 L121.40456671284934,-81.44709187196142 L121.2688129734929,-81.44486882077507 L121.13305923413645,-81.44709187196142 L120.99861287750056,-81.45373961632225 L120.86676869549547,-81.46474803244537 L120.73879641966725,-81.4800111032657 L120.61592849298889,-81.49938183706759 L120.49934820076075,-81.5226736830954 L120.39017827492626,-81.54966232813928 L120.28947008154952,-81.58008785679395 L120.19819349558551,-81.6136572545862 L120.11722756045387,-81.65004722986436 L120.04735202237043,-81.68890732727374 L120.01678780251693,-81.70914755264143 L119.98923982096477,-81.7298633028332 L119.96477444321441,-81.75100467179233 L119.9434506085038,-81.77252072810927 L119.92531968781846,-81.79435963771974 L119.91042536013443,-81.81646878877763 L119.89880350719167,-81.83879491840152 L119.89048212705191,-81.86128424098959 L119.88548126664874,-81.88388257779391 L119.8838129734929,-81.90653548744174 " />
			<path d="M119.8838129734929,-81.90653548744174 L119.88756569099291,-81.9404977943036 L119.89880350719167,-81.97427605648197 L119.91746552338954,-82.0076872266475 L119.9434506085038,-82.04055024677422 L119.97661794710679,-82.07268702930872 L120.01678780251693,-82.10392342224206 L120.06374249080733,-82.1340901528545 L120.11722756045387,-82.16302374501913 L120.17695317123005,-82.19056740509313 L120.24259566487628,-82.21657187159612 L120.31379931903206,-82.24089622407101 L120.39017827492626,-82.26340864674421 L120.47131862837918,-82.28398714284673 L120.5567806727853,-82.30252019572521 L120.64610128192128,-82.31890737316034 L120.73879641966725,-82.33305987161779 L120.83436376304043,-82.3449009974822 L120.93228542432688,-82.35436658266656 L121.03203075755988,-82.36140533234463 L121.13305923413645,-82.36597910292207 L121.23482337198867,-82.36806310873982 L121.33677170243637,-82.3676460563898 L121.43835175864382,-82.36473020591481 L121.53901306948524,-82.35933135856123 L121.63821014259564,-82.35147877115064 L121.73540542044113,-82.34121499753458 L121.83007219338981,-82.32859565799154 L121.92169745399691,-82.3136891378159 L122.00978467703654,-82.29657621673202 L122.09385651021492,-82.27734963114197 L122.17345736098387,-82.25611357157891 L122.24815586543626,-82.23298311808954 " />

       </g>
    </g>
    
</svg>
