<?xml version="1.0" encoding="UTF-8" standalone="no"?>
<svg
   xmlns:svg="http://www.w3.org/2000/svg"
   xmlns="http://www.w3.org/2000/svg"
   width="1024.0"
   height="320.0"

>
    <g transform="scale(1.6409891457028656, -1.6409891457028656)   translate(117.63506979239696,17.275011501487988)" stroke-width="0.866666666666667"  fill="none">
       <!-- hidden lines -->
       <g  stroke="rgb(32,64,32)" fill="none" stroke-dasharray="0.866666666666667,0.866666666666667" >

       </g>

       <!-- solid lines -->
       <g  stroke="rgb(64,192,64)" fill="none">
			<path d="M99.70205614730321,-29.462782549439456 L30.052038200428285,-52.679455198397754 " />
			<path d="M30.05203820042827,-52.6794551983978 L30.05203820042827,-69.01906395482769 " />
			<path d="M30.052038200428267,-88.74190103890228 L30.052038200428264,-146.96035935660413 " />
			<path d="M30.052038200428264,-153.56002264767858 L30.05203820042826,-175.24463060406603 " />
			<path d="M99.70205614730322,-117.14402341654306 L98.2878425849301,-117.61542793733412 " />
			<path d="M44.90128060534577,-135.41094859719556 L36.06244584051393,-138.3572268521395 " />
			<path d="M44.90128060534576,-117.96898132792742 L44.90128060534576,-135.41094859719556 " />
			<path d="M60.45762979144982,-130.2254988684942 L51.618795026617974,-133.17177712343815 " />
			<path d="M60.45762979144981,-112.78353159922602 L60.45762979144981,-130.2254988684942 " />
			<path d="M76.01397897755385,-125.04004913979287 L67.17514421272202,-127.9863273947368 " />
			<path d="M76.01397897755386,-107.59808187052468 L76.01397897755385,-125.04004913979287 " />
			<path d="M91.5703281636579,-119.85459941109151 L82.73149339882605,-122.80087766603546 " />
			<path d="M91.5703281636579,-102.41263214182334 L91.57032816365789,-119.85459941109153 " />
			<path d="M48.79036790187177,-162.39885741241613 L48.79036790187177,-153.91357603817755 " />
			<path d="M48.79036790187176,-162.39885741241613 L48.79036790187176,-162.8702619332072 " />
			<path d="M33.49251919932628,-168.69442377370027 L33.5023992249035,-168.79330564786403 L33.506207337513985,-168.8949320083943 L33.50391983359076,-168.9986702828092 L33.49555095168399,-169.1038747530355 L33.48115278383329,-169.2098905746757 L33.46081495132121,-169.31605785308176 L33.43466404682627,-169.4217157508642 L33.40286284644784,-169.52620660126925 L33.36560929650755,-169.62888000182036 L33.323135281434034,-169.7290968627433 L33.27570518040007,-169.82623338497538 L33.223614221696515,-169.91968494299795 L33.16718664508615,-170.00886984832306 L33.10677368357579,-170.0932329702089 L33.04275137716923,-170.17224919106684 L32.975518232209204,-170.24542667505153 " />
			<path d="M57.982756057296896,-159.33472802727442 L57.982756057296896,-150.84944665303584 " />
			<path d="M57.98275605729689,-159.33472802727442 L57.98275605729689,-159.80613254806548 " />
			<path d="M67.175144212722,-156.2705986421327 L67.175144212722,-147.78531726789413 " />
			<path d="M67.175144212722,-156.2705986421327 L67.175144212722,-156.74200316292374 " />
			<path d="M76.36753236814712,-153.206469256991 L76.36753236814712,-144.72118788275245 " />
			<path d="M76.36753236814712,-153.206469256991 L76.36753236814712,-153.67787377778205 " />
			<path d="M85.55992052357225,-150.1423398718493 L85.55992052357225,-141.65705849761073 " />
			<path d="M85.55992052357225,-150.14233987184932 L85.55992052357225,-150.61374439264034 " />
			<path d="M94.75230867899735,-147.07821048670758 L94.75230867899735,-138.59292911246902 " />
			<path d="M94.75230867899735,-147.0782104867076 L94.75230867899735,-147.54961500749863 " />
			<path d="M98.19278967789538,-147.12766694751056 L98.2026697034726,-147.22654882167433 L98.20647781608308,-147.3281751822046 L98.20419031215985,-147.4319134566195 L98.19582143025308,-147.5371179268458 L98.18142326240239,-147.643133748486 L98.1610854298903,-147.74930102689206 L98.13493452539537,-147.8549589246745 L98.10313332501693,-147.95944977507955 L98.06587977507665,-148.06212317563066 L98.02340576000313,-148.16234003655356 L97.97597565896916,-148.25947655878565 L97.92388470026562,-148.35292811680824 L97.86745712365524,-148.44211302213336 L97.80704416214489,-148.5264761440192 L97.74302185573833,-148.60549236487714 L97.6757887107783,-148.6786698488618 " />
			<path d="M99.7020561473032,-29.46278254943948 L101.11626970967629,-29.93418707023051 " />
			<path d="M101.11626970967629,-29.934187070230507 L101.11626970967632,-90.36824663561248 " />
			<path d="M101.11626970967632,-93.47951647283328 L99.70205614730325,-93.00811195204226 " />
			<path d="M101.11626970967632,-93.47951647283328 L101.11626970967632,-99.23065162648388 " />
			<path d="M101.11626970967632,-99.23065162648386 L98.2878425849301,-100.17346066806593 " />
			<path d="M98.2878425849301,-100.17346066806594 L98.2878425849301,-118.55823697891617 " />
			<path d="M98.2878425849301,-118.55823697891618 L101.11626970967632,-117.61542793733412 " />
			<path d="M99.70205614730322,-117.14402341654309 L101.11626970967632,-117.61542793733412 " />
			<path d="M101.11626970967632,-117.6154279373341 L101.11626970967633,-152.49936247589872 " />
			<path d="M30.052038200428285,-175.24463060406603 L31.46625176280138,-175.71603512485706 " />
			<path d="M101.11626970967636,-152.4993624758987 L31.46625176280139,-175.716035124857 " />
			<path d="M31.466251762801377,-175.71603512485706 L31.466251762801388,-53.150859719188816 " />
			<path d="M31.466251762801363,-53.15085971918883 L30.052038200428267,-52.6794551983978 " />
			<path d="M30.052038200428285,-153.56002264767858 L25.10229073212245,-151.91010682490997 " />
			<path d="M30.052038200428285,-146.96035935660413 L25.10229073212245,-145.31044353383552 " />
			<path d="M25.102290732122455,-145.31044353383552 L30.05203820042829,-143.66052771106692 " />
			<path d="M30.05203820042828,-145.7721102005022 L29.91628446107184,-145.76988714931585 L29.781838104435945,-145.76323940495502 L29.649993922430852,-145.75223098883188 L29.52202164660263,-145.73696791801157 L29.39915371992427,-145.7175971842097 L29.28257342769613,-145.69430533818186 L29.17340350186163,-145.667316693138 L29.072695308484906,-145.6368911644833 L28.981418722520885,-145.60332176669107 L28.90045278738925,-145.5669317914129 L28.8305772493058,-145.52807169400353 L28.800013029452302,-145.50783146863583 L28.77246504790014,-145.48711571844407 L28.747999670149788,-145.46597434948492 L28.726675835439163,-145.444458293168 L28.708544914753826,-145.42261938355753 L28.693650587069797,-145.40051023249964 L28.682028734127048,-145.37818410287576 L28.67370735398728,-145.35569478028768 L28.668706493584107,-145.33309644348336 L28.66703820042827,-145.31044353383552 " />
			<path d="M28.66703820042827,-145.31044353383552 L28.668706493584107,-145.2877906241877 L28.67370735398728,-145.26519228738337 L28.682028734127048,-145.24270296479528 L28.693650587069797,-145.2203768351714 L28.708544914753826,-145.19826768411352 L28.726675835439163,-145.17642877450305 L28.747999670149788,-145.15491271818613 L28.77246504790014,-145.13377134922698 L28.800013029452302,-145.11305559903522 L28.8305772493058,-145.09281537366752 L28.90045278738925,-145.05395527625814 L28.981418722520882,-145.01756530097998 L29.072695308484906,-144.98399590318775 L29.17340350186163,-144.95357037453306 L29.28257342769613,-144.9265817294892 L29.39915371992427,-144.90328988346135 L29.522021646602628,-144.88391914965948 L29.64999392243085,-144.86865607883917 L29.78183810443594,-144.85764766271603 L29.91628446107184,-144.8509999183552 L30.052038200428278,-144.84877686716885 " />
			<path d="M30.05203820042827,-88.7419010389023 L8.399327997665178,-74.30676090373433 " />
			<path d="M6.445776203093914,-73.00439304067937 L6.563890280495713,-72.96782459349183 L6.6927494204674645,-72.94034853981327 L6.830680364035203,-72.92232166111374 L6.975892053233096,-72.91397803963656 L7.12649888831146,-72.91542601879854 L7.280545212586631,-72.92664679633134 L7.436030706992668,-72.94749466843231 L7.590936364582205,-72.97769892175438 L7.743250707692567,-73.01686734866729 L7.890995907342983,-73.06449134014387 L8.032253465697494,-73.11995249013906 L8.165189128102483,-73.18253062570312 L8.288076701211196,-73.25141315855606 L8.399320467913176,-73.32570563669184 " />
			<path d="M6.445776203081181,-73.004393040679 L4.242640687117721,-71.53563603003747 " />
			<path d="M30.05203820042827,-67.58205487006366 L8.887127059989435,-60.52708448991737 " />
			<path d="M8.887127059989439,-60.52708448991737 L4.24264068712135,-60.4159314503804 " />
			<path d="M30.05203820042827,-69.01906395482769 L4.242640687119287,-60.415931450391355 " />
			<path d="M10.656765190047032,-61.85695386664533 L10.739948782257763,-61.857649490726146 L10.814049313609491,-61.855548514311245 L10.87843333199915,-61.850668897702704 L10.932550447421312,-61.84305235454747 L10.975938037004713,-61.83276399524612 L11.008225199767036,-61.81989177035337 L11.020116091555806,-61.81252025709321 L11.02913592728053,-61.80454571872833 L11.035265420001638,-61.79598520705924 L11.038491463143878,-61.78685702686181 " />
			<path d="M11.038491463143878,-61.78685702686181 L11.038731597036339,-61.77656868389063 L11.03569221759106,-61.765687554929954 L11.029380646939343,-61.754239853572514 L11.019812090207715,-61.74225315833359 L10.9910040153015,-61.71677952312248 L10.94954543038186,-61.68951197432904 L10.895835604285141,-61.66071311335407 L10.830391791997428,-61.630660288971846 L10.753844253206282,-61.599642926309706 L10.6669301825554,-61.5679597395259 L10.570486610057216,-61.53591585502895 L10.465442340036306,-61.50381987294352 L10.352809006236011,-61.471980895122556 L10.233671329232472,-61.44070554832742 L10.10917666998251,-61.4102950312446 L9.980523980110409,-61.38104221377768 L9.848952255348346,-61.353228816550086 L9.715728603330206,-61.32712269778146 L9.582136040652378,-61.30297527366661 L9.449461136722572,-61.281019097100085 L9.318981623393114,-61.261465618064676 L9.191954089704721,-61.24450314725253 L9.069601880247129,-61.230295042530194 L8.953103313681934,-61.21897813571307 L8.843580334889753,-61.21066141480028 L8.742087710027707,-61.205424974360575 L8.649602868554728,-61.20331924417793 L8.567016490051559,-61.20436450358511 L8.495123926489493,-61.20855068616263 L8.434617542556103,-61.215837476683866 L8.386080047804823,-61.226154699372735 L8.349978884843402,-61.23940299373478 L8.33670535394903,-61.24708749230485 L8.326661727606062,-61.255454771453024 L8.319872201790075,-61.26448467367095 L8.316353133063451,-61.27415544513326 " />
			<path d="M8.316353133063451,-61.27415544513326 L8.317312380490907,-61.290127094188655 L8.325929250373997,-61.30745211379914 L8.342155228445263,-61.326032961510606 L8.365898960019003,-61.345765024368745 L8.397026764331828,-61.3665372079056 L8.435363387185372,-61.38823256161812 L8.48069298765367,-61.410728937416906 L8.532760353299873,-61.43389967733833 L8.655899507707224,-61.48173936831942 L8.8020115862475,-61.53067577252305 L8.967810688961576,-61.57960836403667 L9.149568176367527,-61.62743670269093 L9.343196522461996,-61.67308518174885 L9.544341238684735,-61.7155272171185 L9.748478801577468,-61.75380833410017 L9.951018381851702,-61.78706763247275 L10.147405087090647,-61.81455714719284 L10.333222396270411,-61.83565866930609 L10.504291482460749,-61.84989764878664 L10.656765190047023,-61.85695386664533 " />
			<path d="M101.11626970967629,-29.93418707023049 L31.466251762801363,-53.15085971918879 " />
			<path d="M36.06244584051393,-139.3000358937216 L46.31549416771887,-135.8823531179866 " />
			<path d="M46.31549416771887,-135.8823531179866 L44.901280605345775,-135.41094859719558 " />
			<path d="M46.31549416771887,-135.8823531179866 L46.315494167718875,-117.49757680713637 " />
			<path d="M36.06244584051393,-120.91525958287136 L36.062445840513924,-139.3000358937216 " />
			<path d="M46.31549416771887,-117.49757680713638 L36.06244584051393,-120.91525958287136 " />
			<path d="M51.618795026617974,-134.11458616502026 L61.87184335382291,-130.69690338928527 " />
			<path d="M61.87184335382291,-130.69690338928524 L60.45762979144982,-130.2254988684942 " />
			<path d="M61.87184335382291,-130.69690338928524 L61.87184335382292,-112.312127078435 " />
			<path d="M51.618795026617974,-115.72980985417001 L51.61879502661797,-134.11458616502026 " />
			<path d="M61.87184335382291,-112.312127078435 L51.618795026617974,-115.72980985416997 " />
			<path d="M67.17514421272202,-128.92913643631888 L77.42819253992695,-125.51145366058391 " />
			<path d="M77.42819253992695,-125.5114536605839 L76.01397897755386,-125.04004913979287 " />
			<path d="M77.42819253992695,-125.5114536605839 L77.42819253992695,-107.12667734973365 " />
			<path d="M67.17514421272202,-110.54436012546864 L67.17514421272202,-128.92913643631888 " />
			<path d="M77.42819253992695,-107.12667734973365 L67.17514421272202,-110.54436012546863 " />
			<path d="M82.73149339882606,-123.74368670761753 L92.984541726031,-120.32600393188255 " />
			<path d="M92.984541726031,-120.32600393188255 L91.5703281636579,-119.85459941109153 " />
			<path d="M92.984541726031,-120.32600393188255 L92.984541726031,-101.94122762103231 " />
			<path d="M82.73149339882606,-105.35891039676729 L82.73149339882606,-123.74368670761751 " />
			<path d="M92.984541726031,-101.94122762103231 L82.73149339882606,-105.35891039676729 " />
			<path d="M43.133513652379406,-165.22728453716232 L43.133513652379406,-155.79919412134169 " />
			<path d="M43.133513652379406,-164.7558800163713 L49.49747468305833,-162.63455967281166 " />
			<path d="M43.133513652379406,-155.79919412134169 L50.20458146424488,-153.44217151738653 " />
			<path d="M50.20458146424488,-162.87026193320716 L49.497474683058336,-162.63455967281163 " />
			<path d="M50.20458146424488,-153.44217151738653 L50.20458146424488,-162.87026193320716 " />
			<path d="M33.941125496954285,-171.01141800736258 L33.88439851725862,-171.02813460951785 L33.827862024049004,-171.04041029596894 L33.77170586416699,-171.0482038455476 L33.716118607313,-171.0514890878869 L33.66128691283826,-171.05025499130008 L33.607394902951654,-171.04450569982453 L33.55462354444616,-171.03426051930614 L33.503150041020966,-171.01955385257136 " />
			<path d="M33.503150041020966,-171.01955385257136 L33.46069672756842,-171.00364421269475 L33.419400809101916,-170.98460753682772 L33.37936177110613,-170.96248968598988 L33.34067607113061,-170.93734394402117 L33.30343690641505,-170.9092308892165 L33.26773398936903,-170.87821824838733 L33.2336533314469,-170.84438073370177 L33.20127703593874,-170.80779986269656 L33.17068310017622,-170.768563761894 L33.14194522763033,-170.72676695449763 L33.11513265035317,-170.68251013267744 L33.090309962191895,-170.63589991499364 L33.0675369631765,-170.5870485895432 L33.046868515456296,-170.53607384344798 L33.028354411132185,-170.4830984793362 L33.012039252303126,-170.4282501195001 L32.99796234361577,-170.37166089844266 L32.98615759757614,-170.31346714455407 L32.97665345285142,-170.25380905168458 L32.96947280575873,-170.19283034140537 L32.96463295510584,-170.1306779167706 L32.962145560516916,-170.06750150841512 L32.96201661434338,-170.00345331384025 L32.96424642722787,-169.9386876307567 L32.968829627355824,-169.8733604853678 L32.975755173396706,-169.8076292564888 L32.98500638110349,-169.74165229640747 L32.996560963506504,-169.67558854939946 L33.01039108460468,-169.60959716881788 L33.026463426424904,-169.5438371336787 L33.044739269287966,-169.47846686566643 L33.06517458508765,-169.41364384748252 L33.08772014335825,-169.3495242434556 L33.11232162987514,-169.28626252332796 L33.13891977750247,-169.22401109012446 L33.16745050897289,-169.1629199130003 L33.197845091255274,-169.1031361659521 L33.23003030113867,-169.04480387326294 L33.26392860163336,-168.98806356253522 L33.299458328764324,-168.93305192614733 L33.33653388830687,-168.8799014919498 L33.37506596199061,-168.82874030399404 L33.41496172267504,-168.779691614063 L33.45612505797821,-168.73287358474693 L33.4984568018199,-168.68839900477917 L33.54185497332136,-168.6463750173184 L33.58621502248622,-168.60690286183132 L33.631430082070565,-168.57007763019777 L33.67739122503548,-168.5359880376263 L33.72398772696184,-168.50471620893137 L33.771107332795125,-168.4763374806873 L33.81863652727771,-168.4509202197362 L33.86646080841701,-168.4285256584859 L33.91446496333086,-168.40920774739607 L33.96253334580538,-168.3930130250065 L34.010550154896926,-168.37998050582198 L34.058399713906596,-168.3701415863227 L34.105966749055625,-168.36351996932754 L34.15313666718995,-168.3601316068918 L34.199795831845194,-168.3599846618774 L34.24583183700684,-168.36307948828775 L34.29113377790618,-168.36940863041494 L34.3355925181996,-168.3789568408012 L34.3791009528876,-168.39170111697146 " />
			<path d="M34.379100952887605,-168.39170111697146 L34.415359223506236,-168.40506505321449 L34.45078731378513,-168.42070571778964 L34.485323204297195,-168.43859573058555 L34.5189064374754,-168.4587037738446 L34.551478223448065,-168.48099464698691 L34.58298154295478,-168.50542932823146 L34.61336124716277,-168.53196504290648 L34.642564154208834,-168.5605553383297 L34.670539142298104,-168.59115016512706 L34.6972372391964,-168.6236959648478 L34.722611707959636,-168.65813576372233 L34.74661812875027,-168.69440927239893 L34.76921447659737,-168.73245299148465 L34.790361194964404,-168.77220032270552 L34.810021264995775,-168.81358168549173 L34.828160270321035,-168.8565246387833 L34.859750790625725,-168.94679201585748 L34.88491164675138,-169.0423706523384 L34.90346673223058,-169.14259157194212 L34.9152861758642,-169.24675330600542 L34.92028725071901,-169.35412680322202 L34.91843495315196,-169.46396053243595 L34.909742247808595,-169.5754857427765 L34.89426997688057,-169.6879218443177 L34.8721264342575,-169.80048187160205 L34.843466607553786,-169.91237799178802 L34.80849109331561,-170.02282701886855 L34.767444693000726,-170.1310558953653 L34.720614699558304,-170.23630710313122 L34.66832888660117,-170.33784396538954 L34.61095321424489,-170.43495580289968 L34.548889267670965,-170.52696290816027 L34.48257144634223,-170.6132213028344 L34.41246392354364,-170.69312724509803 L34.33905739752958,-170.7661214553644 L34.262865657016796,-170.831693030807 L34.18442198506215,-170.88938302128295 L34.10427542649503,-170.9387876416278 L34.063738507220954,-170.96027254306247 L34.022986945029636,-170.97956109783843 L33.98209207846967,-170.99661953994953 L33.941125496954285,-171.01141800736258 " />
			<path d="M52.32590180780452,-162.1631551520206 L52.32590180780452,-152.73506473619997 " />
			<path d="M52.32590180780452,-161.69175063122958 L58.68986283848344,-159.57043028766995 " />
			<path d="M52.32590180780452,-152.73506473619997 L59.396969619669996,-150.37804213224481 " />
			<path d="M59.396969619669996,-159.80613254806545 L58.68986283848345,-159.57043028766992 " />
			<path d="M59.396969619669996,-150.37804213224481 L59.396969619669996,-159.80613254806545 " />
			<path d="M61.51828996322964,-159.0990257668789 L61.51828996322964,-149.67093535105826 " />
			<path d="M61.51828996322964,-158.62762124608784 L67.88225099390857,-156.5063009025282 " />
			<path d="M61.51828996322964,-149.67093535105826 L68.58935777509512,-147.3139127471031 " />
			<path d="M68.58935777509512,-156.74200316292374 L67.88225099390857,-156.5063009025282 " />
			<path d="M68.58935777509512,-147.3139127471031 L68.58935777509512,-156.74200316292374 " />
			<path d="M70.71067811865476,-156.0348963817372 L70.71067811865476,-146.60680596591658 " />
			<path d="M70.71067811865476,-155.56349186094616 L77.07463914933368,-153.44217151738653 " />
			<path d="M70.71067811865476,-146.60680596591658 L77.78174593052023,-144.24978336196142 " />
			<path d="M77.78174593052023,-153.67787377778205 L77.07463914933368,-153.44217151738653 " />
			<path d="M77.78174593052023,-144.24978336196142 L77.78174593052023,-153.67787377778205 " />
			<path d="M79.90306627407988,-152.9707669965955 L79.90306627407988,-143.54267658077487 " />
			<path d="M79.90306627407988,-152.49936247580445 L86.2670273047588,-150.37804213224481 " />
			<path d="M79.90306627407988,-143.54267658077487 L86.97413408594535,-141.1856539768197 " />
			<path d="M86.97413408594535,-150.61374439264034 L86.2670273047588,-150.37804213224481 " />
			<path d="M86.97413408594535,-141.1856539768197 L86.97413408594535,-150.61374439264034 " />
			<path d="M89.095454429505,-149.9066376114538 L89.095454429505,-140.47854719563315 " />
			<path d="M89.095454429505,-149.43523309066273 L95.45941546018392,-147.3139127471031 " />
			<path d="M89.09545442950498,-140.47854719563315 L96.16652224137046,-138.121524591678 " />
			<path d="M96.16652224137047,-147.54961500749863 L95.45941546018392,-147.3139127471031 " />
			<path d="M96.16652224137046,-138.121524591678 L96.16652224137046,-147.54961500749863 " />
			<path d="M98.64139597552338,-149.44466118117288 L98.58466899582771,-149.46137778332815 L98.52813250261809,-149.47365346977924 L98.47197634273608,-149.4814470193579 L98.41638908588209,-149.4847322616972 L98.36155739140735,-149.48349816511038 L98.30766538152075,-149.47774887363482 L98.25489402301525,-149.46750369311644 L98.20342051959007,-149.45279702638166 " />
			<path d="M98.20342051959005,-149.45279702638166 L98.16096720613751,-149.43688738650505 L98.11967128767101,-149.41785071063802 L98.07963224967523,-149.39573285980018 L98.0409465496997,-149.37058711783146 L98.00370738498414,-149.3424740630268 L97.96800446793812,-149.31146142219762 L97.933923810016,-149.27762390751207 L97.90154751450783,-149.24104303650685 L97.87095357874531,-149.2018069357043 L97.84221570619943,-149.16001012830793 L97.81540312892226,-149.11575330648773 L97.79058044076099,-149.06914308880394 L97.7678074417456,-149.0202917633535 L97.74713899402539,-148.96931701725828 L97.72862488970128,-148.9163416531465 L97.71230973087222,-148.8614932933104 L97.69823282218486,-148.80490407225295 L97.68642807614523,-148.74671031836436 L97.67692393142052,-148.68705222549488 L97.66974328432782,-148.62607351521567 L97.66490343367494,-148.5639210905809 L97.66241603908601,-148.50074468222542 L97.66228709291248,-148.43669648765055 L97.66451690579696,-148.371930804567 L97.66910010592493,-148.3066036591781 L97.6760256519658,-148.2408724302991 L97.68527685967258,-148.17489547021776 L97.6968314420756,-148.10883172320976 L97.71066156317377,-148.04284034262818 L97.72673390499399,-147.977080307489 L97.74500974785707,-147.91171003947673 L97.76544506365674,-147.84688702129282 L97.78799062192734,-147.7827674172659 L97.81259210844424,-147.71950569713826 L97.83919025607157,-147.65725426393476 L97.86772098754199,-147.5961630868106 L97.89811556982437,-147.5363793397624 L97.93030077970776,-147.47804704707323 L97.96419908020246,-147.4213067363455 L97.99972880733343,-147.36629509995763 L98.03680436687596,-147.3131446657601 L98.07533644055971,-147.26198347780434 L98.11523220124414,-147.2129347878733 L98.15639553654731,-147.16611675855722 L98.198727280389,-147.12164217858947 L98.24212545189046,-147.0796181911287 L98.28648550105531,-147.0401460356416 L98.33170056063966,-147.00332080400807 L98.37766170360457,-146.9692312114366 L98.42425820553093,-146.93795938274167 L98.47137781136422,-146.9095806544976 L98.51890700584681,-146.8841633935465 L98.56673128698611,-146.8617688322962 L98.61473544189995,-146.84245092120636 L98.66280382437448,-146.8262561988168 L98.71082063346601,-146.81322367963227 L98.75867019247569,-146.80338476013299 L98.80623722762472,-146.79676314313784 L98.85340714575905,-146.7933747807021 L98.90006631041429,-146.7932278356877 L98.94610231557594,-146.79632266209805 L98.99140425647528,-146.80265180422523 L99.0358629967687,-146.8122000146115 L99.07937143145669,-146.82494429078176 " />
			<path d="M99.0793714314567,-146.82494429078176 L99.11562970207532,-146.83830822702478 L99.15105779235422,-146.85394889159994 L99.1855936828663,-146.87183890439584 L99.2191769160445,-146.8919469476549 L99.25174870201717,-146.9142378207972 L99.28325202152388,-146.93867250204175 L99.31363172573187,-146.96520821671677 L99.34283463277792,-146.99379851214 L99.3708096208672,-147.02439333893736 L99.39750771776549,-147.0569391386581 L99.42288218652872,-147.09137893753262 L99.44688860731937,-147.12765244620923 L99.46948495516646,-147.16569616529495 L99.4906316735335,-147.2054434965158 L99.51029174356488,-147.24682485930202 L99.52843074889013,-147.2897678125936 L99.56002126919482,-147.38003518966778 L99.58518212532047,-147.4756138261487 L99.60373721079968,-147.57583474575242 L99.6155566544333,-147.6799964798157 L99.6205577292881,-147.7873699770323 L99.61870543172105,-147.89720370624624 L99.61001272637769,-148.0087289165868 L99.59454045544967,-148.121165018128 L99.57239691282659,-148.23372504541234 L99.54373708612289,-148.34562116559832 L99.5087615718847,-148.45607019267885 L99.46771517156982,-148.5642990691756 L99.4208851781274,-148.66955027694152 L99.36859936517027,-148.77108713919984 L99.31122369281398,-148.86819897670998 L99.24915974624007,-148.96020608197057 L99.18284192491132,-149.0464644766447 L99.11273440211274,-149.12637041890832 L99.03932787609867,-149.1993646291747 L98.96313613558588,-149.2649362046173 L98.88469246363124,-149.32262619509325 L98.80454590506413,-149.3720308154381 L98.76400898579004,-149.39351571687277 L98.72325742359872,-149.41280427164872 L98.68236255703877,-149.42986271375983 L98.64139597552338,-149.44466118117288 " />
			<path d="M101.11626970967632,-90.36824663561248 L90.50966799187808,-93.90378054154523 " />
			<path d="M90.50966799187808,-93.90378054154523 L90.50966799187808,-94.84658958308958 " />
			<path d="M90.50966799187808,-94.84658958308958 L101.1162697096763,-91.31105567715684 " />
			<path d="M101.11626970967632,-91.31105567715682 L101.11626970967632,-92.53670743125122 " />
			<path d="M90.50966799187808,-96.07224133718398 L101.11626970967632,-92.53670743125124 " />
			<path d="M90.50966799187808,-97.01505037876603 L90.50966799187808,-96.07224133718397 " />
			<path d="M101.1162697096763,-93.47951647283328 L90.50966799187808,-97.01505037876603 " />
			<path d="M50.20458146424488,-162.87026193320716 L43.133513652379406,-165.22728453716232 " />
			<path d="M59.396969619669996,-159.80613254806545 L52.32590180780452,-162.1631551520206 " />
			<path d="M68.58935777509512,-156.74200316292374 L61.51828996322965,-159.0990257668789 " />
			<path d="M77.78174593052023,-153.67787377778205 L70.71067811865476,-156.0348963817372 " />
			<path d="M86.97413408594535,-150.61374439264034 L79.90306627407988,-152.9707669965955 " />
			<path d="M96.16652224137047,-147.54961500749863 L89.095454429505,-149.9066376114538 " />
			<path d="M4.242640687119291,-60.41593145039136 L4.242640687119291,-61.10209842740601 " />
			<path d="M4.242640687119291,-61.10209842740601 L4.242640687119292,-71.18208263943636 " />
			<path d="M8.373489508550747,-72.5590322465801 L8.325199250283262,-71.8093818231802 L8.25568095544142,-71.09938228852523 L8.166573279230136,-70.44576944483227 L8.059976629286737,-69.86394997160555 L7.938403655779837,-69.3676382660449 L7.804720024305283,-68.96853317320145 L7.662076867655202,-68.67604222585743 L7.5138365086774,-68.49705989422883 L7.363493205054226,-68.43580507249271 L7.214590784170483,-68.49372163283685 L7.070639109545695,-68.66944439112847 L6.935031347847911,-68.95883128644458 L6.8109639866353575,-69.35506101594225 L6.7013614881330374,-69.84879382366148 " />
			<path d="M6.701361488133031,-69.84879382366151 L6.678706946700814,-69.97365507689332 L6.656965349506933,-70.10282195151103 L6.636163306668777,-70.23613635675144 L6.616326278358201,-70.37343512557865 L6.5974785436402215,-70.51455021438849 L6.579643170757166,-70.65930890868158 L6.562841988894874,-70.80753403445314 L6.547095561465383,-70.959044175041 L6.532423160938805,-71.11365389316623 L6.518842745255213,-71.27117395789476 L6.506370935845524,-71.43141157624213 L6.495022997288004,-71.59417062913795 L6.484812818625599,-71.75925191146119 L6.475752896366717,-71.92645337585266 " />
			<path d="M8.403964094402113,-73.81797842956354 L8.40380780285112,-73.72779509893843 L8.4033389780827,-73.63753635833342 L8.402557769734656,-73.54723101620505 L8.401464427150202,-73.45690789588392 L8.400059299298462,-73.36659582637505 L8.39834283466304,-73.27632363315627 L8.396315581098847,-73.18612012897785 L8.393978185657332,-73.09601410466618 L8.391331394379861,-73.00603431993432 L8.388376052059627,-72.91620949420268 L8.385113101972081,-72.8265682974324 L8.381543585573723,-72.73713934097461 L8.377668642169837,-72.64795116843835 L8.37348950855075,-72.55903224658014 " />
			<path d="M8.399327997661544,-74.30676090372596 L8.39996620874281,-74.27204934146592 L8.400557268803055,-74.2373000466641 L8.401101149268712,-74.20251469920271 L8.401597823847041,-74.16769498070687 L8.402047268527326,-74.13284257446327 L8.402449461582094,-74.09795916533882 L8.402804383568196,-74.06304643969924 L8.4031120173276,-74.02810608532745 L8.403372347988466,-73.99313979134205 L8.403585362965615,-73.9581492481156 L8.40375105196128,-73.92313614719302 L8.403869406965583,-73.88810218120965 L8.403940422256895,-73.85304904380953 L8.403964094402113,-73.81797842956358 " />
			<path d="M25.102290732122455,-151.91010682490997 L25.102290732122455,-145.31044353383552 " />
			<path d="M4.242640687119292,-71.18208263943636 L4.242640687119292,-71.53563603002964 " />
			<path d="M6.475752896366714,-71.92645337585272 L6.472089679128075,-72.00157808689684 L6.468657908681408,-72.07706482771839 L6.465458418880729,-72.152895256495 L6.462491987140396,-72.22905094789476 L6.4597593342461295,-72.30551339755321 L6.457261124179851,-72.38226402656954 L6.454997963958434,-72.45928418602097 L6.452970403486191,-72.53655516149391 L6.4511789354212254,-72.61405817763142 L6.449623995055703,-72.6917744026951 L6.448305960210163,-72.76968495314092 L6.447225151141652,-72.8477708982075 L6.446381830465938,-72.92601326451597 L6.445776203093672,-73.00439304068009 " />
			<path d="M99.7020561473598,-90.83965115638466 L101.11626970967632,-91.31105567715683 " />

       </g>
    </g>
    
</svg>
