<?xml version="1.0" encoding="UTF-8" standalone="no"?>
<svg
   xmlns:svg="http://www.w3.org/2000/svg"
   xmlns="http://www.w3.org/2000/svg"
   width="1024.0"
   height="320.0"

>
    <g transform="scale(1.6409891457028665, -1.6409891457028665)   translate(47.98505184552202,-5.941661147470304)" stroke-width="0.8666666666666668"  fill="none">
       <!-- hidden lines -->
       <g  stroke="rgb(32,64,32)" fill="none" stroke-dasharray="0.8666666666666668,0.8666666666666668" >

       </g>

       <!-- solid lines -->
       <g  stroke="rgb(64,192,64)" fill="none">
			<path d="M169.35207409417814,-6.246109900481159 L99.70205614730321,-29.462782549439456 " />
			<path d="M99.7020561473032,-45.80239130586938 L99.7020561473032,-29.462782549439495 " />
			<path d="M99.70205614730321,-70.61639721449656 L99.70205614730321,-65.52522838995341 " />
			<path d="M99.70205614730314,-79.57308310952617 L99.70205614730314,-70.61639721449656 " />
			<path d="M99.70205614730314,-80.04448763031719 L99.70205614730314,-79.57308310952617 " />
			<path d="M99.7020561473032,-85.08851600278122 L99.7020561473032,-80.04448763031718 " />
			<path d="M99.70205614730322,-98.75924710569286 L99.70205614730322,-97.34503354334805 " />
			<path d="M107.12667734976195,-97.22718241312198 L107.12667734976193,-114.66914968239017 " />
			<path d="M107.12667734976195,-114.66914968239017 L99.70205614730322,-117.14402341654306 " />
			<path d="M99.70205614730322,-120.91525958289964 L99.70205614730322,-117.14402341654309 " />
			<path d="M99.70205614730322,-123.74368670764582 L99.70205614730322,-120.91525958289964 " />
			<path d="M99.70205614730324,-143.54267658086914 L99.70205614730324,-130.34334999872027 " />
			<path d="M99.70205614730324,-149.19953083036154 L99.70205614730324,-143.54267658086914 " />
			<path d="M99.70205614730324,-152.0279579551077 L99.70205614730324,-149.19953083036154 " />
			<path d="M122.68302653586599,-109.48369995368883 L113.84419177103413,-112.42997820863278 " />
			<path d="M122.68302653586599,-92.04173268442064 L122.68302653586598,-109.48369995368883 " />
			<path d="M111.72287142747449,-141.4213562372152 L111.72287142747449,-132.93607486297665 " />
			<path d="M111.72287142747449,-141.42135623721524 L111.72287142747449,-141.89276075800626 " />
			<path d="M103.1425371462012,-145.47775112474196 L103.15241717177842,-145.57663299890572 L103.15622528438891,-145.678259359436 L103.15393778046568,-145.7819976338509 L103.1455688985589,-145.8872021040772 L103.1311707307082,-145.9932179257174 L103.11083289819614,-146.09938520412345 L103.0846819937012,-146.2050431019059 L103.05288079332276,-146.30953395231094 L103.01562724338248,-146.41220735286205 L102.97315322830896,-146.51242421378498 L102.92572312727499,-146.60956073601707 L102.87363216857143,-146.70301229403964 L102.81720459196107,-146.79219719936475 L102.7567916304507,-146.87656032125062 L102.69276932404415,-146.95557654210853 L102.62553617908412,-147.02875402609322 " />
			<path d="M120.91525958289961,-138.3572268520735 L120.91525958289961,-129.87194547783494 " />
			<path d="M120.91525958289961,-138.35722685207352 L120.91525958289961,-138.82863137286455 " />
			<path d="M130.10764773832474,-135.2930974670261 L130.10764773832474,-126.80781609269323 " />
			<path d="M130.10764773832472,-135.2930974670261 L130.10764773832472,-135.76450198781714 " />
			<path d="M139.30003589374985,-132.2289680818844 L139.30003589374985,-123.74368670755155 " />
			<path d="M139.30003589374982,-132.2289680818844 L139.30003589374982,-132.70037260267543 " />
			<path d="M148.49242404917499,-129.1648386967427 L148.49242404917499,-120.67955732240982 " />
			<path d="M148.49242404917496,-129.1648386967427 L148.49242404917496,-129.63624321753375 " />
			<path d="M157.68481220460012,-126.10070931160097 L152.02795795510772,-127.9863273947651 " />
			<path d="M157.6848122046001,-108.18733752154176 L157.6848122046001,-126.10070931160097 " />
			<path d="M167.8428076247703,-123.91099429855224 L167.8526876503475,-124.009876172716 L167.856495762958,-124.11150253324628 L167.85420825903475,-124.21524080766117 L167.845839377128,-124.32044527788749 L167.8314412092773,-124.42646109952767 L167.8111033767652,-124.53262837793372 L167.78495247227028,-124.63828627571617 L167.75315127189185,-124.74277712612123 L167.71589772195156,-124.84545052667232 L167.67342370687805,-124.94566738759524 L167.6259936058441,-125.04280390982733 L167.57390264714053,-125.1362554678499 L167.51747507053017,-125.225440373175 L167.4570621090198,-125.30980349506086 L167.39303980261323,-125.38881971591879 L167.3258066576532,-125.46199719990348 " />
			<path d="M170.76628765655124,-129.2826898269404 L170.76628765655124,-6.7175144212721705 " />
			<path d="M170.7662876565512,-6.717514421272192 L169.3520740941781,-6.24610990048116 " />
			<path d="M101.11626970967633,-152.49936247589872 L99.70205614730324,-152.0279579551077 " />
			<path d="M170.76628765655124,-129.2826898269404 L101.11626970967636,-152.4993624758987 " />
			<path d="M99.70205614730324,-130.34334999872024 L94.7523086789974,-128.69343417595164 " />
			<path d="M94.75230867899741,-128.69343417595164 L94.75230867899741,-122.0937708848772 " />
			<path d="M94.7523086789974,-122.09377088487719 L99.70205614730324,-123.7436867076458 " />
			<path d="M99.70205614730322,-117.14402341654309 L101.11626970967632,-117.61542793733412 " />
			<path d="M101.11626970967632,-117.6154279373341 L101.11626970967633,-152.49936247589872 " />
			<path d="M94.7523086789974,-122.09377088487719 L99.7020561473032,-120.44385506210858 " />
			<path d="M99.70205614730322,-122.55543755154387 L99.56630240794678,-122.55321450035753 L99.43185605131089,-122.5465667559967 L99.30001186930579,-122.53555833987357 L99.17203959347756,-122.52029526905325 L99.04917166679921,-122.50092453525136 L98.93259137457106,-122.47763268922354 L98.82342144873655,-122.45064404417967 L98.72271325535984,-122.420218515525 L98.63143666939581,-122.38664911773276 L98.55047073426418,-122.35025914245459 L98.48059519618073,-122.3113990450452 L98.45003097632723,-122.29115881967752 L98.42248299477507,-122.27044306948575 L98.39801761702472,-122.24930170052662 L98.37669378231409,-122.22778564420967 L98.35856286162876,-122.20594673459921 L98.34366853394472,-122.18383758354132 L98.33204668100197,-122.16151145391743 L98.32372530086221,-122.13902213132936 L98.31872444045904,-122.11642379452503 L98.31705614730319,-122.0937708848772 " />
			<path d="M98.31705614730319,-122.0937708848772 L98.31872444045904,-122.07111797522937 L98.32372530086221,-122.04851963842505 L98.33204668100197,-122.02603031583698 L98.34366853394472,-122.00370418621308 L98.35856286162876,-121.9815950351552 L98.37669378231409,-121.95975612554473 L98.39801761702472,-121.93824006922779 L98.42248299477507,-121.91709870026865 L98.45003097632723,-121.89638295007688 L98.48059519618073,-121.8761427247092 L98.55047073426418,-121.83728262729981 L98.63143666939581,-121.80089265202164 L98.72271325535984,-121.76732325422941 L98.82342144873655,-121.73689772557474 L98.93259137457106,-121.70990908053086 L99.04917166679921,-121.68661723450305 L99.17203959347756,-121.66724650070115 L99.30001186930579,-121.65198342988083 L99.43185605131089,-121.64097501375771 L99.56630240794678,-121.63432726939688 L99.70205614730322,-121.63210421821053 " />
			<path d="M101.11626970967632,-117.61542793733412 L108.54089091213504,-115.14055420318121 " />
			<path d="M108.54089091213504,-115.1405542031812 L107.12667734976195,-114.66914968239017 " />
			<path d="M108.54089091213504,-115.1405542031812 L108.54089091213504,-96.75577789233097 " />
			<path d="M108.54089091213504,-96.75577789233095 L101.11626970967632,-99.23065162648386 " />
			<path d="M101.11626970967632,-99.23065162648388 L99.70205614730322,-98.75924710569285 " />
			<path d="M96.16652224137049,-96.16652224137044 L99.70205614730321,-97.34503354334802 " />
			<path d="M96.16652224137049,-96.16652224137044 L96.16652224137049,-91.82960065006466 " />
			<path d="M97.65144648186224,-92.32457539689526 L96.16652224137049,-91.82960065006468 " />
			<path d="M97.65144648186222,-93.36166534263555 L97.65144648186222,-92.32457539689527 " />
			<path d="M97.65144648186222,-93.36166534263552 L99.63134546918457,-94.02163167174297 " />
			<path d="M99.63134546918457,-92.98454172600272 L99.63134546918457,-94.021631671743 " />
			<path d="M101.11626970967632,-93.47951647283328 L99.63134546918458,-92.9845417260027 " />
			<path d="M101.11626970967632,-93.47951647283328 L101.11626970967632,-99.23065162648388 " />
			<path d="M99.7020561473032,-82.73149339882606 L96.16652224137046,-83.91000470080364 " />
			<path d="M99.7020561473032,-85.08851600278122 L96.16652224137046,-83.91000470080364 " />
			<path d="M99.7020561473032,-29.46278254943948 L101.11626970967629,-29.93418707023051 " />
			<path d="M101.11626970967629,-29.934187070230507 L101.11626970967632,-90.36824663561248 " />
			<path d="M101.11626970967632,-90.36824663561248 L99.63134546918458,-89.8732718887819 " />
			<path d="M99.63134546918457,-88.95403307326768 L99.63134546918457,-89.87327188878191 " />
			<path d="M99.63134546918454,-88.64762013472523 L99.63134546918454,-88.95403307326768 " />
			<path d="M98.71210665355717,-88.34120719618276 L99.63134546918454,-88.64762013472522 " />
			<path d="M97.65144648186222,-87.98765380561775 L98.71210665355719,-88.34120719618274 " />
			<path d="M97.65144648186222,-89.21330555967447 L97.65144648186222,-87.98765380561778 " />
			<path d="M97.65144648186224,-89.21330555967445 L96.16652224137049,-88.71833081284387 " />
			<path d="M96.16652224137047,-88.71833081284386 L96.16652224137047,-86.6441509213916 " />
			<path d="M96.16652224137046,-86.64415092139163 L96.16652224137046,-83.91000470080364 " />
			<path d="M99.70205614730315,-65.52522838995343 L78.03420785317282,-51.07999619387397 " />
			<path d="M76.09783815892274,-49.789083064366956 L76.22783235406216,-49.76043089164509 L76.36730590485708,-49.74149395277769 L76.51439238993295,-49.732525660023 L76.6671235123755,-49.73364602619487 L76.82345543928692,-49.744840058663115 L76.98129615215724,-49.765957959983346 L77.13853344205083,-49.796717132471755 L77.2930631749791,-49.83670595989952 L77.44281744921518,-49.88538931570087 L77.58579226775196,-49.942115723984244 L77.72007435559341,-50.00612607751877 L77.84386676301294,-50.076563796032815 L77.9555129121584,-50.15248628888705 L78.05351876521418,-50.23287756873001 " />
			<path d="M76.09783815891946,-49.7890830643724 L73.8926586339926,-48.31896338108859 " />
			<path d="M99.7020561473032,-44.36538222111663 L78.53714500686155,-37.31041184096942 " />
			<path d="M78.53714500686155,-37.310411840969415 L73.89265863399423,-37.199258801432464 " />
			<path d="M99.7020561473031,-45.802391305869406 L73.89265863399412,-37.199258801433075 " />
			<path d="M80.20863838522186,-38.63793239231033 L80.2918219774326,-38.63862801639115 L80.36592250878432,-38.63652703997625 L80.43030652717398,-38.63164742336771 L80.48442364259614,-38.62403088021247 L80.52781123217954,-38.613742520911124 L80.56009839494187,-38.60087029601838 L80.57198928673064,-38.59349878275822 L80.58100912245537,-38.58552424439333 L80.58713861517647,-38.576963732724245 L80.5903646583187,-38.567835552526816 " />
			<path d="M80.5903646583187,-38.567835552526816 L80.59060479221118,-38.557547209555636 L80.5875654127659,-38.54666608059496 L80.58125384211418,-38.53521837923752 L80.57168528538254,-38.523231683998596 L80.54287721047633,-38.49775804878749 L80.5014186255567,-38.47049049999404 L80.44770879945997,-38.441691639019076 L80.38226498717226,-38.41163881463685 L80.30571744838112,-38.38062145197471 L80.21880337773024,-38.3489382651909 L80.12235980523205,-38.31689438069395 L80.01731553521114,-38.28479839860852 L79.90468220141085,-38.25295942078756 L79.78554452440731,-38.22168407399243 L79.66104986515735,-38.19127355690961 L79.53239717528524,-38.16202073944269 L79.40082545052319,-38.13420734221509 L79.26760179850504,-38.10810122344647 L79.13400923582721,-38.08395379933162 L79.00133433189741,-38.06199762276509 L78.87085481856795,-38.04244414372968 L78.74382728487956,-38.025481672917536 L78.62147507542197,-38.0112735681952 L78.50497650885677,-37.99995666137808 L78.39545353006459,-37.991639940465284 L78.29396090520254,-37.98640350002558 L78.20147606372956,-37.98429776984294 L78.11888968522639,-37.98534302925012 L78.04699712166433,-37.98952921182764 L77.98649073773093,-37.99681600234887 L77.93795324297966,-38.00713322503774 L77.90185208001824,-38.020381519399784 L77.88857854912386,-38.028066017969856 L77.8785349227809,-38.03643329711803 L77.87174539696491,-38.045463199335956 L77.8682263282383,-38.055133970798266 " />
			<path d="M77.8682263282383,-38.055133970798266 L77.86918557566574,-38.07110561985366 L77.87780244554884,-38.08843063946414 L77.8940284236201,-38.10701148717561 L77.91777215519383,-38.12674355003375 L77.94889995950666,-38.14751573357061 L77.98723658236021,-38.169211087283124 L78.0325661828285,-38.19170746308191 L78.08463354847471,-38.21487820300334 L78.20777270288205,-38.26271789398442 L78.35388478142234,-38.31165429818805 L78.51968388413641,-38.36058688970168 L78.70144137154236,-38.408415228355935 L78.89506971763683,-38.45406370741386 L79.09621443385957,-38.496505742783505 L79.3003519967523,-38.53478685976518 L79.50289157702653,-38.568046158137754 L79.69927828226548,-38.59553567285785 L79.88509559144525,-38.6166371949711 L80.05616467763558,-38.63087617445164 L80.20863838522186,-38.63793239231033 " />
			<path d="M170.7662876565512,-6.717514421272192 L101.11626970967629,-29.93418707023049 " />
			<path d="M113.84419177103415,-113.37278725021483 L124.09724009823908,-109.95510447447985 " />
			<path d="M124.09724009823908,-109.95510447447985 L122.68302653586599,-109.48369995368883 " />
			<path d="M124.09724009823908,-109.95510447447985 L124.09724009823908,-91.57032816362963 " />
			<path d="M113.84419177103415,-94.98801093936459 L113.84419177103415,-113.37278725021483 " />
			<path d="M124.09724009823908,-91.57032816362961 L113.84419177103415,-94.98801093936459 " />
			<path d="M106.06601717798213,-144.24978336196142 L106.06601717798213,-134.8216929461408 " />
			<path d="M106.06601717798213,-143.77837884117037 L112.42997820866105,-141.65705849761073 " />
			<path d="M106.06601717798213,-134.8216929461408 L113.13708498984761,-132.46467034218563 " />
			<path d="M113.13708498984761,-141.89276075800626 L112.42997820866105,-141.65705849761073 " />
			<path d="M113.13708498984761,-132.46467034218563 L113.13708498984761,-141.89276075800626 " />
			<path d="M103.59114344382921,-147.79474535840427 L103.53441646413354,-147.81146196055954 L103.47787997092392,-147.82373764701063 L103.42172381104191,-147.83153119658928 L103.36613655418792,-147.83481643892858 L103.31130485971318,-147.83358234234177 L103.25741284982658,-147.82783305086622 L103.20464149132108,-147.81758787034784 L103.1531679878959,-147.80288120361305 " />
			<path d="M103.15316798789588,-147.80288120361305 L103.11071467444334,-147.78697156373644 L103.06941875597684,-147.76793488786942 L103.02937971798106,-147.74581703703157 L102.99069401800553,-147.72067129506286 L102.95345485328997,-147.6925582402582 L102.91775193624395,-147.66154559942902 L102.88367127832183,-147.62770808474346 L102.85129498281366,-147.59112721373825 L102.82070104705114,-147.5518911129357 L102.79196317450526,-147.51009430553933 L102.76515059722809,-147.46583748371913 L102.74032790906682,-147.41922726603534 L102.71755491005143,-147.3703759405849 L102.69688646233122,-147.31940119448967 L102.67837235800711,-147.2664258303779 L102.66205719917805,-147.21157747054178 L102.6479802904907,-147.15498824948435 L102.63617554445106,-147.09679449559576 L102.62667139972635,-147.03713640272628 L102.61949075263365,-146.97615769244706 L102.61465090198077,-146.91400526781229 L102.61216350739184,-146.8508288594568 L102.61203456121831,-146.78678066488195 L102.61426437410279,-146.7220149817984 L102.61884757423076,-146.6566878364095 L102.62577312027163,-146.5909566075305 L102.63502432797841,-146.52497964744916 L102.64657891038144,-146.45891590044116 L102.6604090314796,-146.39292451985958 L102.67648137329982,-146.32716448472038 L102.6947572161629,-146.26179421670813 L102.71519253196257,-146.1969711985242 L102.73773809023317,-146.13285159449728 L102.76233957675007,-146.06958987436965 L102.7889377243774,-146.00733844116616 L102.81746845584782,-145.946247264042 L102.8478630381302,-145.88646351699379 L102.8800482480136,-145.82813122430463 L102.91394654850829,-145.7713909135769 L102.94947627563926,-145.71637927718902 L102.98655183518179,-145.6632288429915 L103.02508390886554,-145.61206765503573 L103.06497966954996,-145.5630189651047 L103.10614300485314,-145.51620093578862 L103.14847474869482,-145.47172635582086 L103.19187292019629,-145.4297023683601 L103.23623296936114,-145.390230212873 L103.28144802894549,-145.35340498123946 L103.3274091719104,-145.319315388668 L103.37400567383676,-145.28804355997306 L103.42112527967005,-145.259664831729 L103.46865447415264,-145.23424757077788 L103.51647875529194,-145.2118530095276 L103.56448291020578,-145.19253509843776 L103.61255129268031,-145.1763403760482 L103.66056810177184,-145.16330785686367 L103.70841766078152,-145.15346893736438 L103.75598469593055,-145.14684732036923 L103.80315461406488,-145.1434589579335 L103.84981377872012,-145.1433120129191 L103.89584978388177,-145.14640683932944 L103.94115172478111,-145.15273598145663 L103.98561046507453,-145.1622841918429 L104.02911889976252,-145.17502846801315 " />
			<path d="M104.02911889976254,-145.17502846801315 L104.06537717038115,-145.18839240425618 L104.10080526066005,-145.20403306883134 L104.13534115117213,-145.22192308162724 L104.16892438435033,-145.2420311248863 L104.201496170323,-145.2643219980286 L104.23299948982971,-145.28875667927315 L104.2633791940377,-145.31529239394817 L104.29258210108375,-145.34388268937138 L104.32055708917304,-145.37447751616875 L104.34725518607132,-145.4070233158895 L104.37262965483455,-145.44146311476402 L104.3966360756252,-145.47773662344062 L104.4192324234723,-145.51578034252634 L104.44037914183933,-145.5555276737472 L104.46003921187071,-145.59690903653342 L104.47817821719596,-145.639851989825 L104.50976873750065,-145.73011936689917 L104.5349295936263,-145.8256980033801 L104.55348467910551,-145.9259189229838 L104.56530412273914,-146.0300806570471 L104.57030519759392,-146.1374541542637 L104.56845290002688,-146.24728788347764 L104.55976019468352,-146.35881309381818 L104.5442879237555,-146.4712491953594 L104.52214438113242,-146.58380922264374 L104.49348455442872,-146.6957053428297 L104.45850904019053,-146.80615436991025 L104.41746263987565,-146.914383246407 L104.37063264643324,-147.01963445417292 L104.3183468334761,-147.12117131643123 L104.26097116111981,-147.21828315394137 L104.1989072145459,-147.31029025920196 L104.13258939321715,-147.3965486538761 L104.06248187041857,-147.47645459613972 L103.9890753444045,-147.5494488064061 L103.91288360389171,-147.6150203818487 L103.83443993193707,-147.67271037232464 L103.75429337336996,-147.7221149926695 L103.71375645409587,-147.74359989410416 L103.67300489190455,-147.76288844888012 L103.6321100253446,-147.77994689099123 L103.59114344382921,-147.79474535840427 " />
			<path d="M115.25840533340725,-141.1856539768197 L115.25840533340725,-131.75756356099907 " />
			<path d="M115.25840533340725,-140.71424945602865 L121.62236636408618,-138.59292911246902 " />
			<path d="M115.25840533340724,-131.75756356099907 L122.32947314527271,-129.40054095704392 " />
			<path d="M122.32947314527271,-138.82863137286455 L121.62236636408616,-138.59292911246902 " />
			<path d="M122.32947314527271,-129.40054095704392 L122.32947314527271,-138.82863137286455 " />
			<path d="M124.45079348883236,-138.12152459177227 L124.45079348883236,-128.69343417585736 " />
			<path d="M124.45079348883236,-137.65012007098125 L130.81475451951127,-135.5287997274216 " />
			<path d="M124.45079348883236,-128.69343417585736 L131.52186130069782,-126.3364115719022 " />
			<path d="M131.52186130069785,-135.7645019878171 L130.8147545195113,-135.52879972742159 " />
			<path d="M131.52186130069785,-126.3364115719022 L131.52186130069785,-135.7645019878171 " />
			<path d="M133.64318164425748,-135.05739520663056 L133.64318164425748,-125.62930479071565 " />
			<path d="M133.64318164425748,-134.58599068583953 L140.0071426749364,-132.4646703422799 " />
			<path d="M133.64318164425748,-125.62930479071566 L140.71424945612296,-123.2722821867605 " />
			<path d="M140.71424945612296,-132.7003726026754 L140.0071426749364,-132.46467034227987 " />
			<path d="M140.71424945612296,-123.2722821867605 L140.71424945612296,-132.70037260267543 " />
			<path d="M142.8355697996826,-131.99326582148888 L142.8355697996826,-122.56517540557397 " />
			<path d="M142.8355697996826,-131.52186130069785 L149.1995308303615,-129.40054095713822 " />
			<path d="M142.8355697996826,-122.56517540557395 L149.90663761154806,-120.2081528016188 " />
			<path d="M149.90663761154806,-129.63624321753372 L149.1995308303615,-129.4005409571382 " />
			<path d="M149.90663761154806,-120.20815280161877 L149.90663761154806,-129.6362432175337 " />
			<path d="M152.02795795510772,-128.92913643634716 L159.0990257669732,-126.572113832392 " />
			<path d="M159.0990257669732,-126.572113832392 L157.6848122046001,-126.10070931160098 " />
			<path d="M159.0990257669732,-126.572113832392 L159.0990257669732,-107.71593300075074 " />
			<path d="M152.02795795510772,-110.0729556047059 L152.02795795510772,-128.92913643634716 " />
			<path d="M159.0990257669732,-107.71593300075074 L152.02795795510772,-110.0729556047059 " />
			<path d="M168.2914139223983,-126.22798853221452 L168.23468694270264,-126.2447051343698 L168.17815044949302,-126.2569808208209 L168.12199428961102,-126.26477437039956 L168.066407032757,-126.26805961273885 L168.01157533828228,-126.26682551615204 L167.9576833283957,-126.26107622467649 L167.90491196989018,-126.2508310441581 L167.85343846646498,-126.23612437742334 " />
			<path d="M167.85343846646498,-126.23612437742334 L167.81098515301244,-126.22021473754671 L167.76968923454592,-126.20117806167968 L167.72965019655015,-126.17906021084184 L167.69096449657462,-126.15391446887313 L167.65372533185908,-126.12580141406846 L167.61802241481305,-126.09478877323929 L167.58394175689094,-126.06095125855373 L167.55156546138275,-126.0243703875485 L167.52097152562024,-125.98513428674595 L167.49223365307435,-125.9433374793496 L167.4654210757972,-125.89908065752941 L167.4405983876359,-125.8524704398456 L167.4178253886205,-125.80361911439515 L167.39715694090032,-125.75264436829994 L167.3786428365762,-125.69966900418815 L167.36232767774715,-125.64482064435205 L167.34825076905977,-125.58823142329463 L167.33644602302016,-125.53003766940603 L167.32694187829546,-125.47037957653653 L167.31976123120273,-125.40940086625733 L167.31492138054986,-125.34724844162255 L167.31243398596095,-125.28407203326707 L167.3123050397874,-125.22002383869221 L167.3145348526719,-125.15525815560866 L167.31911805279984,-125.08993101021977 L167.32604359884073,-125.02419978134078 L167.33529480654752,-124.95822282125941 L167.34684938895052,-124.89215907425142 L167.3606795100487,-124.82616769366983 L167.37675185186893,-124.76040765853064 L167.395027694732,-124.6950373905184 L167.41546301053165,-124.63021437233449 L167.43800856880227,-124.56609476830756 L167.46261005531915,-124.50283304817992 L167.4892082029465,-124.44058161497644 L167.5177389344169,-124.37949043785227 L167.5481335166993,-124.31970669080405 L167.58031872658268,-124.2613743981149 L167.6142170270774,-124.20463408738718 L167.64974675420834,-124.14962245099929 L167.6868223137509,-124.09647201680175 L167.72535438743463,-124.045310828846 L167.76525014811907,-123.99626213891497 L167.80641348342223,-123.94944410959887 L167.84874522726392,-123.90496952963113 L167.89214339876537,-123.86294554217037 L167.93650344793025,-123.82347338668326 L167.98171850751459,-123.78664815504973 L168.02767965047948,-123.75255856247828 L168.07427615240584,-123.72128673378333 L168.12139575823915,-123.69290800553928 L168.16892495272174,-123.66749074458815 L168.21674923386104,-123.64509618333787 L168.26475338877486,-123.62577827224803 L168.3128217712494,-123.60958354985847 L168.36083858034095,-123.59655103067394 L168.40868813935063,-123.58671211117466 L168.45625517449963,-123.58009049417949 L168.50342509263396,-123.57670213174376 L168.55008425728923,-123.57655518672937 L168.59612026245085,-123.57965001313971 L168.6414222033502,-123.5859791552669 L168.6858809436436,-123.59552736565318 L168.72938937833163,-123.6082716418234 " />
			<path d="M168.72938937833163,-123.6082716418234 L168.76564764895025,-123.62163557806645 L168.80107573922913,-123.63727624264159 L168.8356116297412,-123.6551662554375 L168.86919486291941,-123.67527429869656 L168.90176664889208,-123.69756517183889 L168.9332699683988,-123.72199985308342 L168.96364967260678,-123.74853556775842 L168.99285257965286,-123.77712586318165 L169.02082756774212,-123.80772068997902 L169.0475256646404,-123.84026648969977 L169.07290013340366,-123.8747062885743 L169.09690655419428,-123.91097979725089 L169.11950290204138,-123.94902351633661 L169.14064962040842,-123.98877084755749 L169.1603096904398,-124.03015221034369 L169.17844869576507,-124.07309516363524 L169.21003921606973,-124.16336254070946 L169.2352000721954,-124.25894117719037 L169.2537551576746,-124.3591620967941 L169.26557460130823,-124.46332383085738 L169.27057567616302,-124.57069732807396 L169.26872337859598,-124.6805310572879 L169.26003067325263,-124.79205626762845 L169.2445584023246,-124.90449236916966 L169.22241485970153,-125.01705239645402 L169.1937550329978,-125.12894851663998 L169.15877951875962,-125.2393975437205 L169.11773311844476,-125.34762642021727 L169.07090312500233,-125.45287762798318 L169.0186173120452,-125.55441449024151 L168.9612416396889,-125.65152632775163 L168.89917769311498,-125.74353343301223 L168.83285987178624,-125.82979182768635 L168.76275234898768,-125.90969776995 L168.6893458229736,-125.98269198021636 L168.61315408246082,-126.04826355565896 L168.53471041050616,-126.10595354613491 L168.45456385193904,-126.15535816647977 L168.41402693266497,-126.17684306791442 L168.37327537047366,-126.19613162269039 L168.3323805039137,-126.21319006480148 L168.2914139223983,-126.22798853221452 " />
			<path d="M111.7228714274745,-89.94398256690056 L101.1162697096763,-93.47951647283328 " />
			<path d="M111.7228714274745,-89.0011735253185 L111.7228714274745,-89.94398256690057 " />
			<path d="M101.11626970967632,-92.53670743125124 L111.7228714274745,-89.0011735253185 " />
			<path d="M101.11626970967632,-91.31105567715682 L101.11626970967632,-92.53670743125122 " />
			<path d="M101.1162697096763,-91.31105567715684 L111.72287142749855,-87.77552177121609 " />
			<path d="M111.72287142749855,-87.77552177121609 L111.72287142749855,-86.83271272967174 " />
			<path d="M111.72287142749855,-86.83271272967174 L101.11626970967632,-90.36824663561248 " />
			<path d="M113.13708498984761,-141.89276075800626 L106.06601717798213,-144.24978336196142 " />
			<path d="M122.32947314527271,-138.82863137286455 L115.25840533340724,-141.1856539768197 " />
			<path d="M131.52186130069785,-135.7645019878171 L124.45079348883237,-138.12152459177227 " />
			<path d="M140.71424945612296,-132.7003726026754 L133.64318164425748,-135.05739520663056 " />
			<path d="M149.90663761154806,-129.63624321753372 L142.8355697996826,-131.99326582148888 " />
			<path d="M111.7228714274745,-89.94398256690056 L110.30865786510144,-89.47257804610953 " />
			<path d="M99.63134546918455,-92.9845417260027 L101.04555903155764,-92.51313720521168 " />
			<path d="M97.65144648186222,-93.36166534263555 L100.62129496284574,-92.37171584897438 " />
			<path d="M99.63134546918457,-91.66460906778782 L97.65144648186222,-92.32457539689527 " />
			<path d="M97.58073580374358,-91.35819612927365 L96.16652224137047,-91.82960065006468 " />
			<path d="M96.16652224137049,-89.66113985438822 L97.58073580368702,-89.18973533361604 " />
			<path d="M96.16652224137047,-90.88679160848261 L96.16652224137047,-89.66113985438821 " />
			<path d="M99.48992411294725,-88.60047968264612 L97.65144648186222,-89.21330555967447 " />
			<path d="M73.89265863399412,-37.199258801433075 L73.89265863399412,-37.885425778447726 " />
			<path d="M73.89265863399412,-37.885425778447726 L73.89265863399412,-47.96540999048751 " />
			<path d="M78.04380769686199,-49.3491263447768 L78.00863146548832,-48.54524765850828 L77.949224874751,-47.77266042511819 L77.86712909690299,-47.05140770703972 L77.76447392483989,-46.40020080654889 L77.64392251934645,-45.83593384252233 L77.50860231929595,-45.37324546998847 L77.36202390718427,-45.02413911268642 L77.20798993485232,-44.79767156085659 L77.05049647211703,-44.699718012902785 L76.89362933760182,-44.732819656398846 L76.74145810123348,-44.896117742612496 L76.59793050827523,-45.185375864836836 L76.46677006383075,-45.593089862567425 L76.35137943476165,-46.10868250030483 " />
			<path d="M76.35137943476165,-46.10868250030486 L76.32394818925307,-46.26109788313804 L76.29787568487559,-46.41983070385018 L76.27320911253196,-46.58459365804597 L76.24999311840573,-46.75508852686483 L76.22826972315228,-46.93100671675334 L76.20807824584189,-47.11202981801559 L76.18945523279284,-47.29783018113077 L76.17243439142285,-47.48807150979457 L76.1570465292393,-47.68240946961131 L76.14331949807786,-47.8804923113348 L76.13127814369108,-48.08196150752999 L76.1209442607779,-48.286452401503155 L76.11233655353557,-48.49359486732586 L76.10547060180514,-48.70301397975816 " />
			<path d="M78.05398204127701,-50.07786710489973 L78.05393004168526,-50.025859858341214 L78.053774048432,-49.973823468184385 L78.05351407808259,-49.92176346032023 L78.053150158244,-49.86968536314783 L78.05268232756193,-49.81759470698716 L78.0521106357166,-49.76549702349192 L78.05143514341762,-49.71339784506201 L78.05065592239743,-49.66130270425615 L78.04977305540365,-49.60921713320422 L78.04878663619047,-49.5571466630199 L78.04769676950849,-49.50509682321327 L78.04650357109377,-49.453073141103594 L78.04520716765538,-49.40108114123239 L78.04380769686206,-49.34912634477681 " />
			<path d="M78.0342078531778,-51.07999619386887 L78.03692391084675,-51.00972406193935 L78.03944103824645,-50.93919180444156 L78.04175871501862,-50.868414002299495 L78.04387646203685,-50.79740528719788 L78.04579384150557,-50.72618033855738 L78.04751045705065,-50.654753880499975 L78.04902595380122,-50.58314067880508 L78.05034001846319,-50.51135553785709 L78.05145237938383,-50.439413297584885 L78.0523628066081,-50.367328830393994 L78.05307111192609,-50.29511703809214 L78.05357714891191,-50.22279284880853 L78.05388081295408,-50.15037121390793 L78.05398204127701,-50.077867104899774 " />
			<path d="M73.89265863399417,-47.96540999048749 L73.89265863399417,-48.318963381080756 " />
			<path d="M76.10547060180521,-48.703013979758175 L76.10341067341375,-48.779561662868026 L76.10158264995286,-48.85634140117796 L76.09998696790859,-48.93333486161769 L76.09862400828968,-49.01052366008552 L76.09749409653656,-49.0878893658379 L76.09659750244379,-49.16541350589029 L76.09593444009545,-49.24307756942803 L76.09550506781417,-49.32086301222625 L76.09530948812325,-49.39875126107773 L76.0953477477222,-49.47672371822781 L76.09561983747558,-49.55476176581496 L76.0961256924152,-49.63284677031631 L76.09686519175565,-49.710960086996906 L76.09783815892305,-49.78908306436147 " />
			<path d="M111.72287142749855,-87.77552177121609 L110.30865786518203,-87.30411725044391 " />
			<path d="M99.63134546918458,-90.81608093032625 L101.11626970967632,-91.31105567715683 " />
			<path d="M101.04555903150109,-90.34467640955407 L99.63134546918455,-90.81608093032624 " />
			<path d="M99.63134546918458,-92.04173268442065 L101.11626970967632,-92.53670743125123 " />
			<path d="M99.63134546918457,-90.81608093032627 L99.63134546918457,-92.04173268442065 " />
			<path d="M97.65144648186222,-91.3817663553132 L100.90413767532036,-90.29753595749382 " />
			<path d="M96.16652224137049,-90.88679160848262 L97.65144648186224,-91.3817663553132 " />
			<path d="M96.16652224137049,-89.66113985438822 L97.65144648186224,-90.1561146012188 " />
			<path d="M97.65144648186222,-91.3817663553132 L97.65144648186222,-90.15611460121882 " />
			<path d="M97.65144648186221,-90.1561146012188 L99.63134546918457,-89.49614827211136 " />

       </g>
    </g>
    
</svg>
