<?xml version="1.0" encoding="UTF-8" standalone="no"?>
<svg
   xmlns:svg="http://www.w3.org/2000/svg"
   xmlns="http://www.w3.org/2000/svg"
   width="1024.0"
   height="320.0"

>
    <g transform="scale(3.842391565692937, -3.842391565692937)   translate(67.25371163285386,-18.522269296080957)" stroke-width="1.0"  fill="none">
       <!-- hidden lines -->
       <g  stroke="rgb(32,64,32)" fill="none" stroke-dasharray="1.0,1.0" >

       </g>

       <!-- solid lines -->
       <g  stroke="rgb(64,192,64)" fill="none">
			<path d="M-15.202795795510765,-37.83021279348029 L-15.202795795510768,7.424621202458745 " />
			<path d="M-15.20279579551077,7.4246212024587495 L2.4748737341529186,13.317177712346648 " />
			<path d="M-15.202795795510765,-37.83021279348029 L18.73832970144351,-49.14392129246505 " />
			<path d="M-15.20279579551077,7.4246212024587495 L18.738329701443508,-3.8890872965260117 " />
			<path d="M18.73832970144351,-49.14392129246505 L18.738329701443508,-3.8890872965260144 " />
			<path d="M-13.116830791010456,1.281346194958401 L-11.11683079101059,3.2813461949582665 " />
			<path d="M-13.11683079101045,-33.07758112231349 L-13.116830791010454,1.2813461949583953 " />
			<path d="M-11.116830791010585,-36.4109144556466 L-13.11683079101045,-33.07758112231349 " />
			<path d="M14.65236469694333,-45.00064628496457 L-11.116830791010582,-36.41091445564659 " />
			<path d="M16.652364696943195,-43.0006462849647 L14.65236469694333,-45.00064628496457 " />
			<path d="M16.65236469694319,-8.641718967692816 L16.652364696943195,-43.0006462849647 " />
			<path d="M14.652364696943325,-5.3083856343597065 L16.65236469694319,-8.641718967692817 " />
			<path d="M-11.11683079101059,3.281346194958266 L14.652364696943321,-5.308385634359707 " />
			<path d="M18.738329701443508,-3.889087296526011 L36.41599923110719,2.003469213361888 " />
			<path d="M2.474873734152915,13.317177712346645 L36.41599923110719,2.0034692133618837 " />
			<path d="M18.73832970144351,-49.14392129246505 L36.4159992311072,-43.251364782577156 " />
			<path d="M36.4159992311072,-43.251364782577156 L36.41599923110719,2.003469213361882 " />
			<path d="M30.75914498161482,-39.19728590377429 L30.809428872283526,-39.179121719946 L30.859624737375178,-39.15818355995405 L30.909644705407842,-39.13450807755755 L30.95940121282007,-39.10813671839589 L31.00880715725723,-39.079115647435174 L31.057776050050467,-39.04749566815309 L31.106222167621343,-39.0133321336038 L31.154060701547145,-38.97668484951836 L31.20120790702416,-38.93761796961055 L31.247581249468972,-38.89619988327112 L31.29309954900122,-38.85250309584726 L31.337683122554825,-38.80660410171674 L31.381253923368945,-38.75858325037897 L31.42373567761446,-38.708524605797464 L31.465054017916806,-38.65651579923975 L31.505136613541435,-38.60264787587254 L31.543913297013976,-38.547015135380626 L31.58131618695346,-38.489714966888414 L31.617279806903586,-38.430847678473306 L31.651741199953953,-38.370516321569134 L31.684640038950697,-38.30882651056723 L31.71591873210351,-38.24588623793076 L31.77339959048049,-38.11669702984263 L31.82378145368287,-37.98385292150725 L31.866711687765836,-37.84828371859253 L31.90188981440577,-37.71093830031373 L31.916492724556115,-37.641899618170044 L31.92906961401532,-37.57277797801524 L31.939598466031352,-37.50369438226543 L31.948060849089426,-37.434769766737226 L31.9544419491777,-37.3661247889409 L31.95873059572026,-37.297879616860726 L31.960919281132053,-37.23015371859222 L31.961004173961406,-37.16306565320464 L31.958985125597305,-37.096732863194795 L31.95486567052952,-37.031271468895476 L31.94865302016125,-36.96679606519843 L31.940358050185,-36.90341952094776 L31.929995281543953,-36.841252781354825 L31.91758285501197,-36.78040467378073 L31.903142499436864,-36.720981717226095 L31.886699493702505,-36.66308793586192 L31.868282622476283,-36.60682467692773 L31.847924125819496,-36.55229043331597 L31.825659642748782,-36.49958067115303 L31.801528148847453,-36.448787662679 L31.775571888035934,-36.40000032471835 L31.74783629862072,-36.353304063024694 L31.71836993375135,-36.308780622771835 L31.68722437642463,-36.26650794545292 L31.65445414918485,-36.226560032438286 L31.620116618678164,-36.18900681543068 L31.58427189522812,-36.153914034044774 L31.546982727608214,-36.121343120725264 L31.508314393195633,-36.0913510932049 L31.468334583698503,-36.06399045469087 L31.427113286656663,-36.03930910195411 L31.384722662923433,-36.017350241482596 L31.341236920342844,-35.99815231384524 L31.29673218384345,-35.98174892639891 " />
			<path d="M31.296732183843446,-35.98174892639891 L31.233551710325152,-35.96369742210352 L31.168778201690248,-35.95112211027591 L31.102629164284316,-35.94406521821204 L31.03532672341279,-35.94255044261813 L30.967096877454818,-35.94658287003819 L30.898168738971485,-35.95614895977373 L30.8287737653568,-35.9712165893527 L30.759144981614828,-35.99173516239527 " />
			<path d="M27.930717856868633,-40.140094945356346 L30.759144981614824,-39.19728590377428 " />
			<path d="M27.930717856868633,-36.93454420397734 L27.880433966199927,-36.95270838780563 L27.830238101108275,-36.97364654779758 L27.78021813307561,-36.99732203019408 L27.730461625663384,-37.023693389355735 L27.681055681226223,-37.05271446031645 L27.632086788432986,-37.084334439598535 L27.583640670862113,-37.11849797414783 L27.535802136936308,-37.15514525823327 L27.488654931459294,-37.194212138141076 L27.44228158901448,-37.2356302244805 L27.396763289482234,-37.279327011904364 L27.352179715928628,-37.32522600603489 L27.308608915114508,-37.373246857372656 L27.266127160868994,-37.42330550195416 L27.224808820566647,-37.47531430851188 L27.18472622494202,-37.52918223187908 L27.145949541469477,-37.584814972371 L27.10854665152999,-37.64211514086321 L27.072583031579867,-37.70098242927832 L27.0381216385295,-37.76131378618249 L27.005222799532756,-37.823003597184396 L26.973944106379943,-37.88594386982086 L26.916463248002962,-38.015133077908985 L26.866081384800584,-38.147977186244376 L26.823151150717617,-38.28354638915909 L26.787973024077683,-38.4208918074379 L26.773370113927342,-38.48993048958158 L26.760793224468134,-38.559052129736386 L26.7502643724521,-38.628135725486196 L26.741801989394027,-38.6970603410144 L26.735420889305754,-38.765705318810724 L26.731132242763188,-38.8339504908909 L26.7289435573514,-38.901676389159405 L26.728858664522047,-38.968764454546985 L26.730877712886148,-39.03509724455683 L26.73499716795393,-39.10055863885615 L26.741209818322204,-39.165034042553195 L26.749504788298452,-39.22841058680387 L26.7598675569395,-39.2905773263968 L26.772279983471485,-39.351425433970896 L26.78672033904659,-39.41084839052553 L26.80316334478095,-39.46874217188971 L26.82158021600717,-39.525005430823896 L26.841938712663957,-39.57953967443566 L26.86420319573467,-39.63224943659859 L26.888334689636,-39.68304244507262 L26.91429095044752,-39.73182978303328 L26.942026539862734,-39.77852604472693 L26.971492904732102,-39.82304948497979 L27.002638462058822,-39.8653221622987 L27.035408689298603,-39.90527007531334 L27.06974621980529,-39.942823292320945 L27.105590943255333,-39.97791607370685 L27.14288011087524,-40.01048698702636 L27.18154844528782,-40.040479014546726 L27.22152825478495,-40.06783965306076 L27.26274955182679,-40.092521005797515 L27.30514017556002,-40.11447986626903 L27.34862591814061,-40.13367779390639 L27.393130654639997,-40.15008118135272 " />
			<path d="M27.393130654640007,-40.15008118135272 L27.4563111281583,-40.168132685648104 L27.521084636793205,-40.180707997475714 L27.58723367419914,-40.18776488953959 L27.654536115070663,-40.1892796651335 L27.722765961028635,-40.18524723771343 L27.791694099511968,-40.17568114797789 L27.861089073126653,-40.16061351839892 L27.930717856868633,-40.14009494535635 " />
			<path d="M30.75914498161482,-35.991735162395265 L27.930717856868633,-36.93454420397733 " />
			<path d="M30.759144981614817,-9.027396573148255 L30.809428872283522,-9.009232389319966 L30.859624737375174,-8.988294229328014 L30.90964470540784,-8.964618746931514 L30.959401212820065,-8.938247387769856 L31.008807157257227,-8.90922631680914 L31.057776050050464,-8.87760633752706 L31.10622216762134,-8.843442802977762 L31.15406070154714,-8.806795518892326 L31.201207907024155,-8.767728638984519 L31.24758124946897,-8.726310552645092 L31.293099549001216,-8.682613765221232 L31.33768312255482,-8.636714771090706 L31.38125392336894,-8.588693919752938 L31.423735677614456,-8.53863527517143 L31.465054017916803,-8.486626468613714 L31.50513661354143,-8.43275854524651 L31.543913297013972,-8.377125804754591 L31.581316186953458,-8.31982563626238 L31.617279806903582,-8.260958347847271 L31.65174119995395,-8.200626990943105 L31.684640038950693,-8.138937179941196 L31.715918732103507,-8.075996907304733 L31.773399590480487,-7.946807699216604 L31.823781453682866,-7.813963590881217 L31.866711687765832,-7.678394387966501 L31.901889814405767,-7.541048969687697 L31.91649272455611,-7.472010287544008 L31.929069614015315,-7.402888647389209 L31.93959846603135,-7.333805051639397 L31.948060849089423,-7.2648804361111905 L31.954441949177696,-7.196235458314869 L31.95873059572026,-7.127990286234694 L31.96091928113205,-7.0602643879661855 L31.961004173961403,-6.9931763225786066 L31.9589851255973,-6.926843532568764 L31.954865670529518,-6.861382138269445 L31.948653020161245,-6.796906734572399 L31.940358050184997,-6.733530190321722 L31.92999528154395,-6.671363450728796 L31.917582855011965,-6.610515343154701 L31.90314249943686,-6.551092386600066 L31.8866994937025,-6.493198605235887 L31.86828262247628,-6.4369353463016985 L31.847924125819493,-6.382401102689932 L31.82565964274878,-6.3296913405270026 L31.80152814884745,-6.278898332052969 L31.77557188803593,-6.230110994092319 L31.747836298620715,-6.183414732398664 L31.718369933751347,-6.1388912921458 L31.687224376424627,-6.09661861482689 L31.654454149184847,-6.056670701812256 L31.62011661867816,-6.019117484804645 L31.584271895228117,-5.9840247034187435 L31.54698272760821,-5.951453790099232 L31.50831439319563,-5.92146176257887 L31.4683345836985,-5.894101124064834 L31.427113286656656,-5.869419771328076 L31.38472266292343,-5.847460910856561 L31.34123692034284,-5.828262983219204 L31.296732183843446,-5.811859595772876 " />
			<path d="M31.296732183843442,-5.811859595772874 L31.23355171032515,-5.793808091477487 L31.168778201690245,-5.781232779649876 L31.102629164284313,-5.77417588758601 L31.035326723412787,-5.772661111992094 L30.967096877454814,-5.776693539412161 L30.89816873897148,-5.7862596291476995 L30.828773765356797,-5.801327258726671 L30.759144981614824,-5.821845831769238 " />
			<path d="M27.930717856868625,-9.970205614730322 L30.759144981614817,-9.027396573148257 " />
			<path d="M27.930717856868625,-6.764654873351303 L27.88043396619992,-6.7828190571795925 L27.830238101108268,-6.803757217171544 L27.780218133075604,-6.827432699568046 L27.730461625663377,-6.853804058729702 L27.681055681226216,-6.882825129690419 L27.63208678843298,-6.914445108972498 L27.583640670862106,-6.948608643521796 L27.5358021369363,-6.985255927607232 L27.488654931459287,-7.024322807515041 L27.442281589014474,-7.065740893854466 L27.396763289482227,-7.109437681278326 L27.35217971592862,-7.155336675408854 L27.3086089151145,-7.20335752674662 L27.266127160868987,-7.253416171328129 L27.22480882056664,-7.305424977885844 L27.18472622494201,-7.359292901253047 L27.14594954146947,-7.4149256417449685 L27.108546651529984,-7.472225810237179 L27.07258303157986,-7.531093098652287 L27.038121638529493,-7.591424455556454 L27.00522279953275,-7.653114266558362 L26.973944106379935,-7.716054539194825 L26.916463248002955,-7.845243747282954 L26.866081384800577,-7.978087855618341 L26.82315115071761,-8.113657058533056 L26.787973024077676,-8.25100247681186 L26.773370113927335,-8.320041158955549 L26.760793224468127,-8.389162799110348 L26.750264372452094,-8.458246394860163 L26.74180198939402,-8.527171010388368 L26.735420889305747,-8.595815988184688 L26.73113224276318,-8.664061160264865 L26.728943557351393,-8.731787058533373 L26.72885866452204,-8.798875123920952 L26.73087771288614,-8.865207913930796 L26.734997167953924,-8.930669308230113 L26.741209818322197,-8.995144711927159 L26.749504788298445,-9.058521256177837 L26.759867556939493,-9.120687995770762 L26.772279983471478,-9.181536103344857 L26.786720339046582,-9.240959059899492 L26.80316334478094,-9.298852841263672 L26.821580216007163,-9.35511610019786 L26.84193871266395,-9.409650343809627 L26.864203195734664,-9.462360105972556 L26.888334689635993,-9.51315311444659 L26.914290950447512,-9.561940452407239 L26.942026539862727,-9.608636714100895 L26.971492904732095,-9.653160154353758 L27.002638462058815,-9.695432831672669 L27.035408689298595,-9.735380744687305 L27.069746219805282,-9.772933961694914 L27.105590943255326,-9.808026743080816 L27.142880110875232,-9.840597656400327 L27.181548445287813,-9.87058968392069 L27.221528254784943,-9.897950322434724 L27.262749551826783,-9.922631675171484 L27.305140175560012,-9.944590535642998 L27.348625918140602,-9.963788463280356 L27.39313065463999,-9.980191850726682 " />
			<path d="M27.39313065464,-9.980191850726685 L27.456311128158294,-9.99824335502207 L27.521084636793198,-10.010818666849683 L27.587233674199133,-10.017875558913548 L27.654536115070655,-10.019390334507465 L27.722765961028628,-10.015357907087397 L27.79169409951196,-10.00579181735186 L27.861089073126646,-9.990724187772887 L27.930717856868625,-9.970205614730318 " />
			<path d="M30.759144981614817,-5.821845831769237 L27.930717856868625,-6.764654873351301 " />
			<path d="M-13.116830791010445,1.2813461949584044 L-9.116830791010726,2.614679528291644 " />
			<path d="M16.652364696943195,-40.48186322292984 L-3.33865619795856,-33.81818959129592 " />
			<path d="M-11.116830791010585,-36.4109144556466 L-3.3386561979585627,-33.818189591295926 " />
			<path d="M-3.3386561979585636,-33.81818959129592 L-5.3386561979584295,-30.48485625796281 " />
			<path d="M-13.11683079101045,-33.07758112231349 L-5.3386561979584295,-30.484856257962818 " />
			<path d="M-5.338656197958429,-30.484856257962814 L-5.338656197958431,1.355287997274207 " />
			<path d="M27.223611075682083,-38.01877460179671 L27.30475286732309,-37.98807173045734 L27.385524522831247,-37.95019769831795 L27.4655575944855,-37.90532527144036 L27.544487003686488,-37.853659139741076 L27.621952706297908,-37.79543498327842 L27.69760133502268,-37.73091839717514 L27.771087811322047,-37.66040368008057 L27.842076919524736,-37.584212491698864 L27.91024483594565,-37.502692385507146 L27.97528060603896,-37.41621522335669 L28.036887562847323,-37.32517547918908 L28.094784680276938,-37.229988439605236 L28.148707855025236,-37.131088309495325 L28.198411111313675,-37.028926231371194 L28.243667722930017,-36.92396822743615 L28.284271247461906,-36.81669307377957 " />
			<path d="M26.870057685088817,-38.13662573199446 L27.223611075682086,-38.0187746017967 " />
			<path d="M27.22361107568208,-7.848885271170678 L27.304752867323085,-7.81818239983131 L27.385524522831243,-7.780308367691919 L27.465557594485496,-7.735435940814332 L27.544487003686484,-7.6837698091150495 L27.621952706297904,-7.6255456526523915 L27.69760133502267,-7.561029066549111 L27.77108781132204,-7.490514349454541 L27.84207691952473,-7.414323161072838 L27.910244835945647,-7.332803054881121 L27.975280606038954,-7.246325892730657 L28.03688756284732,-7.155286148563054 L28.09478468027693,-7.060099108979206 L28.148707855025233,-6.961198978869296 L28.19841111131367,-6.859036900745168 L28.243667722930013,-6.754078896810121 L28.284271247461902,-6.646803743153543 " />
			<path d="M26.870057685088803,-7.966736401368439 L27.22361107568208,-7.848885271170681 " />
			<path d="M4.440892098500626e-15,-29.698484809834998 L-0.0028571313723642078,-29.57773241658851 L-0.011416980981771907,-29.455563180481718 L-0.025644961951791556,-29.332470737789237 L-0.04548358478878978,-29.208952455088614 L-0.0708526896736279,-29.08550741960395 L-0.10164977035493838,-28.962634422597088 L-0.13775038833526554,-28.840829943954667 L-0.17900867567650125,-28.7205861461145 L-0.22525792439299375,-28.60238888543702 L-0.2763112600508213,-28.486715749057 L-0.3319623968514973,-28.374034125147897 L-0.3919864711491172,-28.264799314396004 L-0.4561409500330432,-28.159452690315277 L-0.5241666113049125,-28.058419915836183 L-0.5957885908902774,-27.962109223374647 L-0.6707174934527205,-27.870909765330634 L-0.7486505617228953,-27.785190041681304 L-0.8292728998177133,-27.705296411022257 L-0.9122587456067393,-27.631551691073085 L-0.9972727869846809,-27.56425385430204 L-1.083971516731447,-27.50367482394031 L-1.1720046204853394,-27.45005937525064 L-1.2610163922211375,-27.403624146489896 L-1.3506471715137063,-27.364556763561836 L-1.4405347967797333,-27.33301508189703 L-1.530316068625622,-27.309126548623155 L-1.61962821738876,-27.292987687602896 L-1.7081103689424169,-27.284663709420236 L-1.795405002841556,-27.284188247890942 L-1.8811593969177747,-27.29156322416199 L-1.9233504415986604,-27.298186550857974 L-1.9650270524863582,-27.306758838948976 L-2.006147119378482,-27.317271426963288 L-2.0466690944067545,-27.32971369294293 " />
			<path d="M-2.046669094406766,-27.32971369294294 L-2.107973518164955,-27.35268790215105 L-2.1676066134234464,-27.380177686796575 L-2.225424718832519,-27.412116821580472 L-2.2812885455119765,-27.448428362329516 L-2.335063512610253,-27.489024831361522 L-2.3866200715214783,-27.533808428226767 L-2.435834017979415,-27.582671265317813 L-2.482586791276412,-27.63549562778024 L-2.5267657598865383,-27.692154257098 L-2.5682644928047913,-27.75251065767036 L-2.6069830159487113,-27.816419425641747 L-2.642828053004702,-27.883726599192368 L-2.675713250138842,-27.954270029445727 L-2.7055593840308316,-28.027879771099467 L-2.7322945527299125,-28.1043784918385 L-2.755854348872964,-28.183581899544063 L-2.7761820148474836,-28.265299186269594 L-2.7932285795256453,-28.349333487913785 L-2.8069529762400363,-28.435482358483437 L-2.817322141716857,-28.5235382578036 L-2.824311095728242,-28.613289051500026 L-2.8279030012718174,-28.704518522049458 L-2.8280892051325153,-28.797006889666584 L-2.8248692587289255,-28.89053134177279 L-2.818250919193969,-28.984866569771178 L-2.8082501306872825,-29.079785311834712 L-2.794890985984345,-29.175058900399858 L-2.778205668434868,-29.270457813046786 L-2.7582343744302906,-29.365752225438968 L-2.7350252165671476,-29.460712564990143 L-2.7086341077396137,-29.555110063924797 L-2.6791246264404425,-29.64871731039975 L-2.646567863594809,-29.741308796359213 L-2.611042251296044,-29.832661460803454 L-2.572633373855852,-29.922555227162285 L-2.5314337616242053,-30.010773533478776 L-2.4875426680756307,-30.097103854126 L-2.441065830698893,-30.181338211799883 L-2.392115216266122,-30.26327367855472 L-2.3408087510950537,-30.342712864674407 L-2.287270036954201,-30.419464394201526 L-2.2316280532953674,-30.493343365978806 L-2.174016846530849,-30.564171799092207 L-2.1145752071038864,-30.631779061642515 L-2.0534463351303325,-30.696002281812554 L-1.9907774954170272,-30.75668674023964 L-1.9267196626879834,-30.813686242748098 L-1.8614271578730488,-30.86686347254381 L-1.7950572763352703,-30.91609032102243 L-1.7277699089325866,-30.961248196394205 L-1.6597271568267489,-31.002228309382005 L-1.5910929409674217,-31.03893193530421 L-1.5220326071922572,-31.07127065191111 L-1.45271252789429,-31.09916655240187 L-1.3832997012162713,-31.122552433108805 L-1.3139613487375135,-31.141371955396938 L-1.2448645126224605,-31.155579781388678 L-1.176175653201482,-31.165141683186757 L-1.1080602479533566,-31.170034625332214 L-1.040682392855531,-31.170246820298857 L-0.9742044070625402,-31.165777756890414 L-0.9087864418649421,-31.15663820147209 L-0.844586094870835,-31.142850172033413 L-0.7817580303394207,-31.124446885144994 " />
			<path d="M-0.781758030339415,-31.12444688514499 L-0.7383813677674516,-31.10872632293834 L-0.6958136288207627,-31.090753562710688 L-0.6541057640903136,-31.070550116592518 L-0.6133076949580827,-31.048140166688516 L-0.573468253844677,-31.023550536133275 L-0.5346351257603572,-30.996810656985897 L-0.4968547912294333,-30.967952535001874 L-0.4601724706563439,-30.937010711324476 L-0.4246320702000117,-30.9040222211414 L-0.3902761292212582,-30.869026549356267 L-0.35714576936617815,-30.83206558332798 L-0.3252806453464212,-30.79318356273448 L-0.2947188974752897,-30.75242702662098 L-0.2654971060164639,-30.70984475769597 L-0.23765024739999951,-30.665487723941784 L-0.21121165235799966,-30.619409017609488 L-0.18621296603006932,-30.571663791671178 L-0.162684110086311,-30.522309193805764 L-0.12014674590512753,-30.41901003382716 L-0.08380315581171449,-30.310005957012937 L-0.05382729062817182,-30.19581868806683 L-0.030362623423022983,-30.076994759933317 L-0.013521462808051554,-29.954102897934547 L-0.0033844153971491764,-29.82773129768821 L4.440892098500626e-15,-29.698484809835016 " />
			<path d="M-8.881784197001252e-16,-0.4714045207910318 L-0.00044201081322614577,-0.42411673177420633 " />
			<path d="M-2.8279851139329653,0.5183976359323912 L-2.8273320822410426,0.39684997389315946 L-2.8208280549502813,0.27365916061218726 L-2.8084999618861133,0.1493352657660017 L-2.790398847329146,0.02439305053800578 L-2.7665996586671016,-0.10065016374232255 L-2.7372009360763077,-0.22527663756047536 L-2.7023244045176007,-0.34897035690944844 L-2.662114469735994,-0.471219169837838 L-2.6167376203508983,-0.591516907007156 L-2.5663817385125434,-0.7093654774782272 L-2.5112553219788083,-0.8242769310490962 L-2.451586620833451,-0.9357754786053707 L-2.387622692420128,-1.0433994621177656 L-2.3196283784052443,-1.146703266130106 L-2.2478852082050906,-1.2452591628233014 L-2.172690233317602,-1.3386590830158327 L-2.094354797385182,-1.426516305767952 L-2.0132032470811123,-1.5084670595938143 L-1.9295715891571215,-1.5841720286517433 L-1.8438060992125715,-1.6533177576762816 L-1.75626188794564,-1.715617949834918 L-1.66730143082291,-1.7708146521357397 L-1.5772930672552503,-1.8186793234778476 L-1.4866094754941228,-1.8590137809222833 L-1.3956261295629884,-1.8916510202654577 L-1.3047197446128587,-1.9164559075174963 L-1.2142667171389832,-1.933325738422456 L-1.1246415665169205,-1.942190663703727 L-1.0802555871767168,-1.9436085166034882 L-1.0362153843107973,-1.9430139782738898 L-0.9925665566687197,-1.940407664293485 L-0.9493542977743694,-1.9357922732115707 L-0.9066233491330734,-1.9291725837541371 L-0.8644179539067308,-1.9205554498760273 L-0.8227818111049205,-1.9099497936644259 L-0.781758030339426,-1.8973665961010293 " />
			<path d="M-0.7817580303394204,-1.8973665961010273 L-0.7383813677674569,-1.8816460338943761 L-0.695813628820768,-1.8636732736667214 L-0.654105764090319,-1.8434698275485528 L-0.613307694958088,-1.8210598776445512 L-0.5734682538446824,-1.7964702470893106 L-0.5346351257603625,-1.7697303679419305 L-0.49685479122943865,-1.7408722459579105 L-0.46017247065634925,-1.709930422280511 L-0.42463207020001703,-1.676941932097433 L-0.39027612922126353,-1.6419462603123023 L-0.3571457693661835,-1.6049852942840157 L-0.32528064534642653,-1.5661032736905167 L-0.294718897475295,-1.5253467375770118 L-0.26549710601646925,-1.482764468652004 L-0.23765024740000484,-1.43840743489782 L-0.211211652358005,-1.3923287285655224 L-0.18621296603007464,-1.3445835026272117 L-0.16268411008631634,-1.2952289047617989 L-0.12014674590513286,-1.1919297447831934 L-0.08380315581171982,-1.0829256679689712 L-0.05382729062817715,-0.9687383990228658 L-0.030362623423028312,-0.8499144708893525 L-0.013521462808056883,-0.7270226088905819 L-0.0033844153971545055,-0.6006510086442451 L-8.881784197001252e-16,-0.4714045207910487 " />
			<path d="M16.65236469694319,-16.41962621544352 L16.57027642706435,-16.154414200706945 L16.483711114834332,-15.89054861965907 L16.392723933671768,-15.628197650127598 L16.29737287532539,-15.367528504584795 L16.19771871291233,-15.108707323572649 L16.09382496218364,-14.851899069811243 L15.985757841041778,-14.597267423057845 L15.873586227335865,-14.34497467578365 L15.75738161496158,-14.095181629734821 L15.637218068293677,-13.848047493443577 L15.513172174980173,-13.603729780754751 L15.385322997128343,-13.362384210432527 L15.25375202091353,-13.124164606911235 L15.118543104642992,-12.889222802253537 L14.979782425307803,-12.657708539378493 L14.837558423656965,-12.429769376621138 L14.691961747828628,-12.205550593684453 L14.543085195574452,-11.98519509904364 L14.391023655113877,-11.768843338861725 L14.235874044655965,-11.556633207474526 L14.077735250627489,-11.34869995950212 L13.916708064646482,-11.145176123642695 L13.752895119281497,-10.946191418203817 L13.586400822637582,-10.751872668424973 L13.417331291810509,-10.562343725643991 L13.245794285251801,-10.377725388358948 L13.071899134087635,-10.198135325235823 L12.89575667243535,-10.023688000110985 L12.717479166762018,-9.854494599036336 L12.53718024433011,-9.690662959413562 L12.354974820775805,-9.532297501262706 L12.17097902686616,-9.379499160668828 L11.985310134481828,-9.232365325449233 L11.798086481872422,-9.09098977308218 L11.609427398232235,-8.955462610936696 L11.419453127644406,-8.825870218841615 L11.228284752441915,-8.702295194030357 L11.036044116034356,-8.584816298496623 L10.842853745249588,-8.473508408794503 L10.648836772239832,-8.368442468315028 L10.454116856001953,-8.26968544206957 L10.258818103561936,-8.177300274008907 L10.063064990873826,-8.091345846905151 L9.86698228348349,-8.011876944822117 L9.67069495700787,-7.938944218198067 L9.474328117480287,-7.872594151563058 L9.278006921612619,-7.812869033911474 L9.081856497025237,-7.759806931748635 L8.886001862495432,-7.713441664828677 L8.690567848275219,-7.67380278459912 L8.495679016529325,-7.640915555365922 L8.301459581944016,-7.6148009381909585 L8.108033332557419,-7.595475577532252 L7.915523550861756,-7.582951790635434 L7.724052935227805,-7.5772375596832 L7.533743521701629,-7.578336526707771 L7.344716606223509,-7.586247991269607 L7.1570926673185244,-7.60096691090383 L6.970991289308141,-7.622483904334109 L6.78653108609177,-7.6507852574519255 L6.603829625546782,-7.685852932057411 L6.423003354595245,-7.727664577356219 L6.244167524985114,-7.776193544205054 L6.067436119833236,-7.831408902096806 " />
			<path d="M6.067436119833172,-7.831408902096827 L5.897750187468287,-7.891463082216852 L5.730261789163132,-7.957767052741458 L5.565071813666051,-8.030280874638068 L5.402279765241431,-8.108960868291833 L5.241983703732059,-8.193759639816617 L5.0842801854915285,-8.284626109603277 L4.929264205222316,-8.381505543088137 L4.777029138754515,-8.484339583723013 L4.62766668679973,-8.593066288127046 L4.481266819713994,-8.707620163399053 L4.337917723302999,-8.827932206568015 L4.197705745702254,-8.953929946157883 L4.060715345364201,-9.085537485841693 L3.927029040183604,-9.222675550158657 L3.79672735779185,-9.365261532266752 L3.6698887870501196,-9.513209543701993 L3.5465897307706262,-9.666430466114422 L3.426904459694425,-9.824832004949679 L3.3109050677534917,-9.988318745043783 L3.1986614286440336,-10.156792208097661 L3.0902411537371908,-10.330150911996805 L2.985709551352474,-10.508290431940281 L2.8851295874184695,-10.691103463342344 L2.788561847544524,-10.878479886468693 L2.6960645005262354,-11.070306832768495 L2.6076932633067536,-11.266468752862167 L2.523501367414963,-11.466847486144017 L2.4435395269008104,-11.671322331957754 L2.3678559077870585,-11.87977012230207 L2.296496099055867,-12.092065296022424 L2.2295030851877,-12.308079974444398 L2.1669172202690836,-12.527684038403018 L2.1087762036848066,-12.75074520662168 L2.0551150574092247,-12.977129115393446 L2.0059661049103408,-13.206699399516705 L1.9613589516793368,-13.439317774436491 L1.9213204673973543,-13.674844119541916 L1.8858747697501865,-13.913136562569582 L1.8550432099006962,-14.154051565062138 L1.8288443596276718,-14.397444008830478 L1.8072940001388806,-14.643167283367504 L1.7904051125650566,-14.891073374160815 L1.7781878701405587,-15.141012951851128 L1.7706496320753908,-15.392835462182685 L1.7677949391222931,-15.646389216691512 L1.7696255108415535,-15.901521484076879 L1.7761402445652186,-16.158078582200922 L1.7873352160612956,-16.415905970661015 L1.8032036818975623,-16.674848343879145 L1.823736083503558,-16.934749724652157 L1.8489200529283139,-17.195453558106617 L1.8787404202903337,-17.456802806001594 L1.9131792229153772,-17.71864004132263 L1.9522157161564904,-17.9808075431099 L1.9958263858898162,-18.243147391463395 L2.0439849626786115,-18.505501562667995 L2.096662437596989,-18.76771202438101 L2.15382707970379,-19.02962083082499 L2.2154444551561365,-19.29107021792833 L2.281477447951077,-19.551902698356468 L2.3518862822828845,-19.81196115637634 L2.4266285465025144,-20.071088942497063 L2.5056592186647926,-20.329129967829672 L2.5889306936479555,-20.58592879810929 L2.6763928118291958,-20.841330747322882 L2.76799288929894,-21.095181970886337 L2.863675749595667,-21.34732955831469 L2.9633837569421457,-21.597621625329676 L3.067056850963077,-21.84590740534915 L3.1746325828632047,-22.09203734030323 L3.2860461530441505,-22.335863170722494 L3.401230450137259,-22.577238025043933 L3.5201160914289806,-22.816016508080892 L3.6426314646544187,-23.052054788603684 L3.7687027711338894,-23.285210685978164 L3.8982540702264776,-23.515343755810022 L4.031207325073845,-23.742315374543214 L4.167482449606718,-23.965988822961634 L4.306997356785731,-24.186229368543643 L4.449668008047594,-24.402904346619906 L4.59540846392679,-24.61588324028563 L4.744130935822283,-24.825037759019065 L4.895745838878094,-25.03024191595891 L5.050161845945867,-25.231372103794115 L5.207285942596935,-25.428307169220254 L5.367023483150722,-25.62092848591781 L5.529278247685768,-25.809120026008163 L5.693952499999016,-25.99276842994451 L5.860947046478437,-26.171763074795365 L6.030161295853563,-26.345996140879713 L6.201493319787897,-26.515362676713547 L6.374839914276741,-26.6797606622287 L6.550096661813418,-26.839091070225926 L6.727157994286481,-26.993257926025205 L6.905917256570003,-27.142168365277268 L7.086266770768622,-27.28573268990163 L7.268097901078687,-27.423864422117354 L7.451301119226404,-27.55648035653403 L7.6357660704435695,-27.6835006102716 L7.821381639941164,-27.80484867107881 L8.00803601984073,-27.920451443421307 L8.195616776523272,-28.03023929251171 L8.384010918355061,-28.134146086254958 L8.573104963749572,-28.232109235083826 L8.762785009524537,-28.32406972966054 L8.952936799512976,-28.409972176421782 L9.143445793386835,-28.489764830945735 L9.334197235651796,-28.563399629120944 L9.52507622477169,-28.630832216098376 L9.715967782380897,-28.692021973009098 L9.90675692254301,-28.746932041431577 L10.097328721014067,-28.795529345593827 L10.2875683844686,-28.837784612296986 L10.477361319646858,-28.873672388548407 L10.666593202381513,-28.90317105689362 L10.85515004646224,-28.926262848437837 L11.042918272296758,-28.942933853549285 L11.22978477532693,-28.953174030237857 L11.415636994158723,-28.956977210204023 L11.60036297836497,-28.954341102554373 L11.783851455920136,-28.945267295181594 L11.96599190022642,-28.929761253807957 L12.14667459669084,-28.907832318692968 L12.32579070881321,-28.87949369900717 L12.503232343745168,-28.84476246487541 L12.678892617280798,-28.803659537094447 L12.852665718239686,-28.75620967453104 L13.024446972203577,-28.70244145920814 " />
			<path d="M13.024446972203608,-28.70244145920813 L13.173313302451326,-28.650135710069577 L13.320500539757083,-28.593023622709993 L13.465940551856555,-28.531131634039966 L13.60956601526757,-28.464488393563414 L13.75131044645381,-28.39312475011586 L13.891108232599727,-28.31707373758467 L14.028894661982408,-28.23637055961781 L14.164605953926309,-28.151052573328265 L14.298179288327026,-28.061159272001586 L14.42955283473042,-27.96673226681466 L14.558665780953639,-27.867815267574095 L14.685458361234783,-27.764454062483132 L14.809871883898191,-27.65669649694655 L14.931848758522523,-27.544592451423235 L15.051332522599107,-27.428193818336737 L15.168267867668154,-27.30755447805455 L15.282600664920775,-27.18273027394714 L15.394277990254945,-27.0537789865383 L15.503248148773828,-26.92076030675885 L15.609460698715086,-26.783735808315967 L15.71286647480013,-26.642768919191028 L15.813417610992486,-26.497924892279098 L15.911067562654768,-26.34927077518367 L16.005771128093947,-26.196875379180675 L16.097484469485018,-26.040809247366045 L16.186165133163296,-25.881144622001678 L16.271772069276036,-25.717955411074826 L16.354265650784193,-25.55131715408644 L16.4336076918056,-25.381306987084315 L16.509761465291028,-25.208003606957185 L16.582691720024958,-25.031487235006278 L16.652364696943174,-24.85183957981134 " />
			<path d="M11.908871511995272,-13.570602058807328 L11.876459932693265,-13.675036148494375 L11.846315687572556,-13.781314916794637 L11.818459323889993,-13.88936592078772 L11.792909829411135,-13.999115509542154 L11.769684619467611,-14.110488874318165 L11.748799525086273,-14.223410099559636 L11.730268782198284,-14.337802214640533 L11.714105021935465,-14.45358724633046 L11.700319262020516,-14.570686271943655 L11.688920899256992,-14.689019473135158 L11.679917703124154,-14.808506190307462 L11.673315810481053,-14.929064977590633 L11.669119721383446,-15.050613658358335 L11.667332296016422,-15.173069381241989 L11.66795475274481,-15.296348676604836 L11.670986667282708,-15.42036751343746 L11.676425972982685,-15.54504135663593 L11.684268962244474,-15.670285224623559 L11.694510289042183,-15.796013747277009 L11.707142972568324,-15.922141224117212 L11.72215840199214,-16.048581682725498 L11.73954634232901,-16.175248937345067 L11.759294941416952,-16.302056647627893 L11.781390737995409,-16.428918377486994 L11.805818670880873,-16.555747654013956 L11.83256208923305,-16.68245802642157 L11.861602763904598,-16.80896312497139 L11.892920899866677,-16.93517671984601 L11.926495149701864,-17.061012779926024 L11.962302628155209,-17.186385531431508 L12.000318927733545,-17.3112095163881 L12.040518135342396,-17.43539965087781 L12.08287284994914,-17.558871283034886 L12.127354201260426,-17.68154025074716 L12.173931869401041,-17.803322939023555 L12.2225741055809,-17.92413633698868 L12.27324775373601,-18.043898094465625 L12.32591827312866,-18.162526578108405 L12.38054976189149,-18.279940927045804 L12.437104981499298,-18.396061107998655 L12.495545382151992,-18.51080796983301 L12.555831129051334,-18.624103297512036 L12.617921129553578,-18.735869865409814 L12.681773061179499,-18.84603148995073 L12.747343400462707,-18.954513081538575 L12.814587452616609,-19.06124069573996 L12.883459381999756,-19.16614158368714 L12.953912243358856,-19.2691442416659 L13.025898013828112,-19.37017845985474 L13.09936762566311,-19.46917537018205 L13.174270999686922,-19.566067493268754 L13.25055707942563,-19.66078878442435 L13.328173865910012,-19.75327467866503 L13.407068453119665,-19.843462134723172 L13.487187064045383,-19.931289678018256 L13.568475087345261,-20.016697442559842 L13.650877114569472,-20.099627211754093 L13.734336977928399,-20.180022458086015 L13.818797788578355,-20.257828381650395 L13.904201975398781,-20.332991947505086 L13.990491324234526,-20.40546192182132 L14.07760701757643,-20.47518890680625 L14.165489674653154,-20.54212537437403 L14.254079391906973,-20.606225698542453 " />
			<path d="M6.7925570326052975,-7.649749036457992 L6.642926953373856,-7.729711887419322 L6.4955712297820405,-7.814977499348332 L6.350567490185114,-7.905500953533659 L6.207992123891466,-8.001234561384122 L6.067920240920017,-8.10212788955149 L5.930425632431564,-8.20812778649925 L5.79558073185492,-8.319178410503325 L5.663456576728313,-8.435221259070001 L5.534122771276154,-8.55619519975559 L5.407647449740896,-8.682036502371567 L5.284097240489274,-8.812678872558205 L5.16353723091188,-8.948053486709078 L5.046030933134514,-9.088089028227957 L4.9316402505594175,-9.23271172509906 L4.820425445253983,-9.381845388750817 L4.712445106204147,-9.535411454192733 L4.607756118449167,-9.69332902140413 L4.5064136331140645,-9.855514897953045 L4.40847103835549,-10.021883642822747 L4.313979931236364,-10.192347611422877 L4.222990090544061,-10.366817001761408 L4.135549450566483,-10.545199901753183 L4.0517040758398375,-10.727402337640022 L3.971498136881415,-10.913328323496994 L3.8949738869201527,-11.102879911798677 L3.8221716396372383,-11.295957245018803 L3.7531297479285,-11.492458608236156 L3.687884583699738,-11.692280482718905 L3.626470518705675,-11.895317600459235 L3.568919906442593,-12.101462999629513 L3.5152630651042207,-12.31060808093075 L3.46552826160982,-12.522642664803733 L3.4197416967129213,-12.737455049472622 L3.377927491198516,-12.954932069790477 L3.340107673176009,-13.174959156855705 L3.306302166474609,-13.39742039836801 L3.2765287801472667,-13.622198599692071 L3.250803199088704,-13.849175345596754 L3.2291389757724698,-14.078231062637343 L3.211547523111361,-14.309245082147939 L3.1980381084450107,-14.54209570381083 L3.1886178486577537,-14.776660259769342 L3.1832917064293946,-15.012815179250385 L3.1820624876208186,-15.25043605366269 L3.1849308397958405,-15.489397702136408 L3.1918952518800587,-15.72957423746952 L3.202952054956909,-15.97083913244642 L3.218095424200474,-16.21306528649358 L3.237317381944065,-16.45612509263733 L3.2606078018829274,-16.699890504728366 L3.287954414408868,-16.94423310489768 L3.3193428130740044,-17.189024171208246 L3.3547564621802053,-17.43413474546693 L3.394176705490259,-17.679435701160877 L3.4375827760561437,-17.924797811482517 L3.484951807159252,-18.170091817407464 L3.536258844356789,-18.415188495789362 L3.591476858628,-18.659958727435832 L3.650576760613311,-18.90427356512963 L3.7135274159388683,-19.148004301559258 L3.7802956616184202,-19.39102253712316 L3.850846323523877,-19.6332002475718 L3.9251422349153735,-19.87440985145205 L4.003144256021045,-20.114524277318242 L4.084811294656222,-20.3534170306746 L4.170100327871174,-20.590962260613697 L4.258966424615994,-20.827034826115884 L4.351362769410692,-21.061510361974737 L4.447240687008024,-21.294265344313775 L4.546549668036054,-21.52517715566 L4.6492373956069635,-21.7541241495399 L4.755249772878074,-21.980985714563943 L4.864530951550556,-22.205642337965767 L4.97702336129083,-22.42797566856261 L5.092667740059154,-22.647868579103797 L5.211403165329404,-22.865205227974467 L5.333167086183634,-23.079871120222002 L5.457895356264469,-23.29175316787302 L5.585522267568002,-23.500739749509165 L5.715980585059377,-23.706720769070323 L5.849201582092821,-23.909587713854187 L5.985115076617482,-24.109233711681817 L6.123649468149975,-24.305553587198837 L6.264731775494186,-24.498443917282827 L6.40828767518843,-24.687803085527527 L6.554241540659742,-24.873531335775347 L6.702516482064653,-25.0555308246698 L6.8530343867954695,-25.233705673200305 L7.005715960630715,-25.40796201721212 L7.160480769508057,-25.578208056854848 L7.317247281897716,-25.74435410494346 L7.475932911754024,-25.9063126342063 L7.636454062022525,-26.063998323395303 L7.798726168679666,-26.217328102233985 L7.962663745281905,-26.366221195179627 L8.128180428000757,-26.510599163976597 L8.295189021120068,-26.650385948978347 L8.46360154297151,-26.785507909216314 L8.633329272284142,-26.91589386119469 L8.804282794923587,-27.04147511639051 L8.976372050996243,-27.162185517439454 L9.149506382293646,-27.277961472988096 L9.323594580052056,-27.38874199119445 L9.498544933002073,-27.494468711859035 L9.674265275682997,-27.595085937169564 L9.850663036996417,-27.690540661043052 L10.027645288973543,-27.78078259704992 L10.205118795730506,-27.865764204905368 L10.382990062585886,-27.945440715513996 L10.561165385314567,-28.019770154554614 L10.739550899511999,-28.088713364592685 L10.91805263004282,-28.152234025708815 L11.096576540547833,-28.210298674632448 L11.275028582983236,-28.262876722370592 L11.453314747165976,-28.309940470322417 L11.631341110299196,-28.3514651248711 L11.809013886451638,-28.387428810445364 L11.986239475964918,-28.4178125810437 L12.162924514762711,-28.44260043021533 L12.338975923535791,-28.46177929949251 L12.514300956777085,-28.475339085269887 L12.688807251640846,-28.48327264412716 L12.862402876600264,-28.485575796592297 L13.034996379877843,-28.482247329343323 L13.206496837623035,-28.473288995847504 L13.376813901811774,-28.458705515437615 L13.545857847842633,-28.438504570825728 L13.713539621804554,-28.412696804055937 " />
			<path d="M14.495689014324224,-18.97403196183903 L14.493902856031252,-18.823610863360372 L14.488546185893302,-18.67215097872281 L14.479624416309775,-18.519805343556154 L14.467146561869782,-18.36672788845583 L14.451125230243782,-18.213073283450854 L14.431576609444733,-18.05899678172463 L14.408520451471677,-17.904654062746594 L14.381980052352237,-17.750201074973074 L14.351982228604227,-17.595793878276396 L14.318557290140143,-17.441588486261413 L14.281739009641916,-17.28774070862878 L14.241564588436866,-17.134405993744256 L14.198074618909349,-16.981739271573087 L14.151313043486049,-16.829894797138202 L14.101327110236403,-16.67902599466037 L14.048167325132958,-16.529285302537787 L13.991887401019971,-16.38082401932176 L13.932544203341727,-16.233792150844085 L13.870197692685505,-16.0883382586506 L13.80491086419716,-15.944609309894044 L13.736749683930606,-15.802750528837905 L13.66578302219547,-15.662905250121282 L13.592082583970262,-15.525214773933035 L13.51572283645142,-15.38981822324155 L13.436780933811356,-15.256852403224368 L13.355336639241603,-15.126451663039731 L13.271472244359805,-14.998747760079702 L13.18527248606193,-14.873869726841992 L13.096824460903827,-14.75194374055506 L13.006217537098518,-14.633092995688157 L12.91354326421824,-14.517437579475189 L12.818895280692411,-14.405094350578121 L12.72236921919501,-14.296176821012564 L12.624062610016974,-14.190795041454798 L12.524074782521229,-14.08905549004617 L12.42250676477993,-13.991060964807183 L12.319461181495322,-13.896910479769987 L12.215042150307363,-13.806699164934248 L12.109355176592874,-13.720518170147423 L12.00250704686251,-13.638454573006637 L11.894605720863275,-13.560591290875145 L11.785760222495595,-13.487006997102313 L11.676080529655163,-13.417776041531791 L11.565677463110864,-13.352968375378136 L11.45466257453106,-13.292649480547865 L11.343148033771369,-13.236880303476276 L11.231246515537826,-13.185717193546951 L11.119071085539947,-13.139211846156131 L11.006735086248703,-13.097411250479496 L10.89435202237488,-13.060357641994116 L10.782035446183492,-13.028088459803593 L10.669898842760157,-13.000636308809423 L10.558055515345332,-12.978028926766896 L10.446618470852313,-12.960289156258774 L10.335700305684618,-12.947434921615047 L10.22541309196817,-12.939479210802123 L10.115868264313205,-12.936430062299749 L10.007176507220322,-12.938290556978892 L9.89944764324446,-12.945058814988823 L9.792790522029776,-12.956727997656513 L9.687312910327561,-12.97328631439647 L9.583121383108317,-12.994717034623978 L9.480321215878007,-13.020998504659751 L9.379016278307326,-13.05210416960887 " />
			<path d="M9.379016278307297,-13.05210416960888 L9.301886309050532,-13.07940152420889 L9.225755218911825,-13.109539692629166 L9.150668866413152,-13.142500520763988 L9.076672480765597,-13.178264154242974 L9.003810634624973,-13.216809050390601 L8.932127217242915,-13.258111991202721 L8.861665408029635,-13.302148097332202 L8.792467650544271,-13.348890843075328 L8.72457562692846,-13.398312072349889 L8.65803023279858,-13.450382015655345 L8.592871552611765,-13.505069308004874 L8.529138835520516,-13.56234100781845 L8.466870471730491,-13.622162616765635 L8.406103969375675,-13.684498100546072 L8.346875931924878,-13.749309910595208 L8.289222036133182,-13.816559006702136 L8.233177010551595,-13.886204880525968 L8.178774614607867,-13.95820557999654 L8.126047618271079,-14.032517734584768 L8.075027782312233,-14.10909658142744 L8.02574583917276,-14.187895992290688 L7.978231474452435,-14.268868501355904 L7.932513309027887,-14.351965333811387 L7.888618881812457,-14.437136435232453 L7.846574633167781,-14.524330501732365 L7.806405888977107,-14.61349501086585 L7.768136845389929,-14.704576253266692 L7.731790554247134,-14.797519365000209 L7.6973889091954275,-14.892268360611261 L7.664952632499432,-14.988766166847787 L7.634501262559356,-15.086954657039593 L7.6060531421418025,-15.186774686111693 L7.5796254073307665,-15.288166126211085 L7.5552339772055035,-15.391067902925524 L7.532893544251465,-15.49541803207246 L7.5126175655101,-15.601153657035999 L7.4944182544728335,-15.708211086629374 L7.478306573724121,-15.81652583346013 L7.464292228337991,-15.926032652774929 L7.452383660032069,-16.036665581760538 L7.442588042082619,-16.148357979277367 L7.434911275003608,-16.2610425660016 L7.429357982992473,-16.374651464951743 L7.42593151114467,-16.48911624237518 L7.424633923438715,-16.6043679489701 L7.425466001492924,-16.720337161417994 L7.428427244094591,-16.83695402420165 L7.433515867501899,-16.95414829168351 L7.440728806518383,-17.071849370419024 L7.450061716339291,-17.189986361679484 L7.461508975168725,-17.308488104158783 L7.475063687606006,-17.42728321683832 L7.490717688799208,-17.546300141984243 L7.50846154936335,-17.665467188251185 L7.5282845810603165,-17.78471257386641 L7.550174843237042,-17.903964469868498 L7.574119150018122,-18.023151043374416 L7.600103078248487,-18.14220050084895 L7.628110976181371,-18.26104113135047 L7.658125972906344,-18.379601349726897 L7.6901299885117105,-18.49780973973593 L7.724103744975179,-18.61559509706353 L7.760026777776215,-18.73288647221472 L7.797877448223106,-18.849613213250908 L7.837632956487306,-18.965705008347996 L7.879269355337191,-19.081091928149565 L7.922761564562975,-19.195704467889726 L7.9680833860841025,-19.309473589260175 L8.01520751972998,-19.4223307619963 L8.064105579684583,-19.534208005157243 L8.114748111585012,-19.64503792807509 L8.1671046102637,-19.754753770948472 L8.221143538123572,-19.863289445056182 L8.276832344135135,-19.970579572566542 L8.334137483443985,-20.07655952591858 L8.39302443757698,-20.18116546675124 L8.453457735234874,-20.284334384357237 L8.515400973658908,-20.386004133638338 L8.578816840558458,-20.48611347253925 L8.64366713658658,-20.58460209893755 L8.70991279834985,-20.681410686967425 L8.77751392193871,-20.77648092275535 L8.846429786964078,-20.86975553954619 L8.916618881085794,-20.961178352198555 L8.988038925018097,-21.05069429102862 L9.06064689799709,-21.138249434982054 L9.13439906369484,-21.223791044114034 L9.209250996564498,-21.307267591357824 L9.285157608600597,-21.38862879356276 L9.362073176498383,-21.46782564178292 L9.439951369195807,-21.544810430798297 L9.518745275781644,-21.619536787850638 L9.598407433752861,-21.691959700576653 L9.678889857604254,-21.76203554412178 L9.760144067733126,-21.82972210741817 L9.842121119641591,-21.894978618611063 L9.924771633418892,-21.95776576961821 L10.008045823486038,-22.01804573980761 L10.091893528584748,-22.07578221877923 L10.176264241992746,-22.130940428237054 L10.261107141947095,-22.18348714293819 L10.34637112225734,-22.233390710706555 L10.432004823089972,-22.280621071498942 L10.517956661905659,-22.325149775512063 L10.604174864530643,-22.366950000319658 L10.690607496343569,-22.405996567029316 L10.77720249355896,-22.442265955449294 L10.863907694588487,-22.475736318256207 L10.950670871461167,-22.50638749415504 L11.037439761283533,-22.53420102002355 L11.124162097720859,-22.559160142033768 L11.21078564248043,-22.581249825743882 L11.297258216777944,-22.600456765154405 L11.383527732768062,-22.616769390723235 L11.469542224920177,-22.630177876334695 L11.555249881320508,-22.64067414521843 L11.640599074881653,-22.64825187481454 L11.725538394440822,-22.652906500582077 L11.810016675727999,-22.654635218748513 L11.893983032185385,-22.653436987998674 L11.977386885619552,-22.64931253010196 L12.060177996667862,-22.642264329477577 L12.14230649506078,-22.632296631698036 L12.223722909661857,-22.61941544093176 L12.304378198267294,-22.603628516326417 L12.384223777147126,-22.584945367335074 L12.463211550310255,-22.56337724798807 L12.541293938475661,-22.538937150114023 " />
			<path d="M12.541293938475675,-22.538937150114016 L12.649735594905584,-22.49963574459739 L12.756154942272307,-22.454703844028252 L12.860424604098428,-22.40419522873283 L12.962419776929005,-22.34817035397283 L13.06201837971252,-22.286696277584728 L13.15910119992332,-22.219846579716275 L13.253552036250628,-22.147701274756226 L13.345257837683352,-22.070346715562728 L13.434108838824184,-21.987875490105033 L13.519998691271066,-21.900386310642205 L13.602824590908767,-21.80798389557149 L13.68248740095816,-21.71077884408774 L13.758891770635987,-21.608887503803977 L13.831946249283053,-21.50243183149146 L13.901563395824214,-21.391539247106 L13.967659883429214,-21.276342481275254 L14.03015659924904,-21.15697941642948 L14.088978739108434,-21.033592921765948 L14.144055897041241,-20.906330682244583 L14.195322149561393,-20.775345021819433 L14.242716134568692,-20.640792721117606 L14.286181124794926,-20.50283482978388 L14.325665095702428,-20.361636473715606 L14.361120787753784,-20.217366657418616 L14.392505762978175,-20.070198061720703 L14.419782455766654,-19.92030683708483 L14.442918217835533,-19.76787239276938 L14.461885357304084,-19.613077182087906 L14.476661171839766,-19.456106484025334 L14.487227975831338,-19.297148181472064 L14.49357312155728,-19.136392536341315 L14.495689014324224,-18.97403196183907 " />
			<path d="M30.75914498161482,-39.19728590377428 L27.223611075682083,-38.0187746017967 " />
			<path d="M27.930717856868633,-40.140094945356346 L26.969052634454922,-39.81953987121844 " />
			<path d="M30.759144981614817,-9.027396573148259 L27.22361107568208,-7.84888527117068 " />
			<path d="M27.930717856868625,-9.970205614730322 L26.969052634454922,-9.64965054059242 " />

       </g>
    </g>
    
</svg>
