<?xml version="1.0" encoding="UTF-8" standalone="no"?>
<svg
   xmlns:svg="http://www.w3.org/2000/svg"
   xmlns="http://www.w3.org/2000/svg"
   width="1024.0"
   height="320.0"

>
    <g transform="scale(12.192267203479263, -12.192267203479263)   translate(43.10232477349004,-12.42549701614118)" stroke-width="0.28"  fill="none">
       <!-- hidden lines -->
       <g  stroke="rgb(32,64,32)" fill="none" stroke-dasharray="0.28,0.28" >

       </g>

       <!-- solid lines -->
       <g  stroke="rgb(64,192,64)" fill="none">
			<path d="M-3.0000000000005063,10.785113019775626 L3.000000000000507,10.785113019775626 " />
			<path d="M3.0000000000005063,10.785113019775626 L26.698484809833786,2.8856180831645313 " />
			<path d="M26.69848480983378,2.885618083164533 L26.69848480982105,0.8856180831604235 " />
			<path d="M26.69848480982388,-1.0000000000037024 L26.69848480982388,0.8856180831604243 " />
			<path d="M26.69848480982388,0.8856180831604243 L3.0000000000146514,-7.013876853442657 " />
			<path d="M3.000000000014648,-8.899494936606786 L3.000000000014648,-7.0138768534426585 " />
			<path d="M26.69848480982388,-1.0000000000037024 L3.0000000000146514,-8.899494936606784 " />
			<path d="M3.000000000014648,-7.0138768534426585 L-3.000000000001921,-7.013876853446901 " />
			<path d="M-3.0000000000019202,-8.899494936611028 L-3.0000000000019202,-7.0138768534469005 " />
			<path d="M3.000000000014648,-8.899494936606786 L-3.000000000001921,-8.89949493661103 " />
			<path d="M-3.0000000000019202,-7.0138768534469005 L-26.698484809834483,0.8856180831639557 " />
			<path d="M-26.69848480983449,-1.000000000000171 L-26.69848480983449,0.8856180831639557 " />
			<path d="M-3.0000000000019202,-8.899494936611028 L-26.698484809834483,-1.0000000000001714 " />
			<path d="M-26.69848480983449,0.8856180831639557 L-26.69848480983449,2.8856180831642946 " />
			<path d="M-26.69848480983449,2.8856180831642932 L-3.000000000000508,10.785113019775624 " />
			<path d="M10.63014581273465,0.9428090415820646 L10.569993239156062,1.015176116313222 L10.505407272028664,1.0871173936816814 L10.436415000774707,1.1586026992126102 L10.363045362961445,1.229602049680361 L10.285329132163815,1.300085665684398 L10.20329890505699,1.3700239841397295 L10.116989087744308,1.4393876706766133 L10.026435881326249,1.508147631944329 L9.93167726671652,1.5762750278138618 L9.832752988711661,1.6437412834743765 L9.7297045393208,1.7105181014184063 L9.622575140362567,1.7765774733107338 L9.511409725336492,1.8418916917359849 L9.396254920576451,1.9064333618200027 L9.277159025694088,1.9701754127201399 L9.154171993320414,2.0330911089796304 L9.027345408154071,2.095154061741301 L8.896732465325066,2.1563382398159003 L8.76238794808302,2.216617980600413 L8.624368204819323,2.27596800084178 L8.482731125432823,2.334363407241498 L8.337536117048938,2.3917797068966724 L8.188844079102406,2.4481928175731205 L8.036717377794123,2.5035790778062346 L7.881219819932749,2.5579152568253543 L7.722416626172103,2.6111785642974987 L7.56037440365552,2.663346659886361 L7.395161118078689,2.714397662622557 L7.05549984168902,2.813063217363004 L6.704002596501282,2.907009711907183 L6.341259037468352,2.996079546112924 L5.967877685820863,3.0801233006900066 L5.584484908241127,3.1589999878588015 L5.191723866100364,3.2325772878646255 L4.790253436521982,3.3007317709510255 L4.380747107080842,3.3633491044196298 L3.9638918459927535,3.4203242444292106 L3.5403869496894695,3.471561612212204 L3.1109428697124777,3.516975254413074 L2.676280020893496,3.556488987279548 L2.237127572821033,3.5900365244648347 L1.7942222266203958,3.6175615882264216 L1.3483069790991469,3.6390180038349267 L0.9001298763312239,3.654369777034612 L0.45044275877065443,3.663591154425625 L-1.984822627713319e-15,3.666666666666668 L-0.45044275877065837,3.663591154425625 L-0.9001298763312279,3.6543697770346117 L-1.3483069790991509,3.6390180038349267 L-1.7942222266204,3.617561588226421 L-2.2371275728210365,3.5900365244648347 L-2.676280020893499,3.556488987279548 L-3.110942869712481,3.5169752544130737 L-3.5403869496894704,3.4715616122122035 L-3.9638918459927526,3.42032424442921 L-4.380747107080843,3.3633491044196284 L-4.790253436521985,3.300731770951024 L-5.191723866100369,3.232577287864624 L-5.58448490824113,3.1589999878587998 L-5.967877685820866,3.080123300690005 L-6.341259037468355,2.996079546112923 L-6.704002596501285,2.907009711907181 L-7.055499841689021,2.8130632173630032 L-7.39516111807869,2.714397662622556 L-7.56037440365552,2.6633466598863595 L-7.722416626172104,2.611178564297498 L-7.88121981993275,2.557915256825353 L-8.036717377794123,2.5035790778062332 L-8.188844079102406,2.4481928175731196 L-8.337536117048938,2.391779706896671 L-8.482731125432824,2.334363407241497 L-8.624368204819323,2.2759680008417793 L-8.762387948083019,2.2166179806004127 L-8.896732465325066,2.1563382398159 L-9.027345408154074,2.095154061741299 L-9.154171993320416,2.033091108979628 L-9.27715902569409,1.9701754127201376 L-9.396254920576455,1.9064333618199993 L-9.511409725336497,1.841891691735981 L-9.62257514036257,1.7765774733107302 L-9.729704539320803,1.710518101418403 L-9.832752988711665,1.6437412834743734 L-9.931677266716521,1.5762750278138586 L-10.02643588132625,1.5081476319443257 L-10.116989087744312,1.4393876706766102 L-10.203298905056991,1.3700239841397266 L-10.285329132163815,1.3000856656843949 L-10.363045362961447,1.2296020496803581 L-10.436415000774709,1.1586026992126073 L-10.505407272028666,1.087117393681679 L-10.569993239156062,1.0151761163132196 L-10.630145812734638,0.9428090415820779 " />
			<path d="M7.778174593052021,-0.7071067811865483 L7.966717912466134,-0.6426972475384534 L8.150462378904553,-0.5767647512749394 L8.329297311571333,-0.5093490076663874 L8.50311498699011,-0.4404906254359062 L8.671810703892671,-0.3702310822981709 L8.835282846287095,-0.29861269997479534 L8.99343294466742,-0.225678618701306 L9.146165735327997,-0.15147277124108127 L9.293389217746777,-0.0760398564218967 L9.435014710002992,0.0005746877889798441 L9.570956902195825,0.07832471165491794 L9.701133907831903,0.15716338146880116 L9.825467313150666,0.2370432077639013 L9.943882224357875,0.3179160739197575 L10.056307312738834,0.39973326514582874 L10.162674857624152,0.4824454978254622 L10.262920787182125,0.5660029492025012 L10.356984717013225,0.6503552873926506 L10.4448099865234,0.7354517017015216 L10.526343693054294,0.8212409332310948 L10.601536723749836,0.9076713057561625 L10.67034378513998,0.9946907568521552 L10.732723430423814,1.082246869255603 L10.788638084435533,1.1702869024383218 L10.838054066278353,1.258757824376354 L10.880941609612591,1.3476063434944683 L10.91727488058581,1.4367789407670017 L10.947031993394166,1.5262219019557388 L10.970195023465592,1.6158813499653468 L10.986750018256897,1.7057032772969276 L10.996687005658247,1.795633578580115 L11.0,1.8856180831640939 " />
			<path d="M11.0,1.8856180831641285 L10.996687005658247,1.9756025877481402 L10.986750018256897,2.065532889031328 L10.970195023465592,2.1553548163629093 L10.947031993394164,2.2450142643725175 L10.91727488058581,2.3344572255612546 L10.88094160961259,2.4236298228337882 L10.838054066278353,2.5124783419518995 L10.788638084435535,2.600949263889932 L10.732723430423814,2.688989297072651 L10.670343785139984,2.776545409476096 L10.601536723749838,2.8635648605720894 L10.526343693054297,2.949995233097157 L10.444809986523403,3.0357844646267305 L10.356984717013228,3.120880878935602 L10.262920787182127,3.205233217125752 L10.162674857624152,3.288790668502791 L10.056307312738836,3.371502901182425 L9.943882224357875,3.4533200924084966 L9.825467313150668,3.534192958564353 L9.701133907831904,3.614072784859453 L9.570956902195825,3.692911454673337 L9.435014710002992,3.770661478539275 L9.293389217746777,3.8472760227501515 L9.146165735327996,3.9227089375693365 L8.99343294466742,3.996914785029561 L8.835282846287093,4.069848866303051 L8.671810703892668,4.141467248626427 L8.503114986990106,4.211726791764162 L8.32929731157133,4.280585173994643 L8.15046237890455,4.348000917603196 L7.966717912466136,4.413933413866706 L7.778174593052022,4.478342947514802 L7.584945992107735,4.541190720652841 L7.387148503317202,4.602438876132311 L7.184901272491544,4.662050520354572 L6.9783261258001,4.719989745494164 L6.767547496386895,4.776221651128351 L6.552692349416767,4.830712365259826 L6.333890105596297,4.883429064719936 L6.111272563215625,4.934339994940127 L5.884973818758069,4.9834144890797205 L5.655130186125438,5.030622986498459 L5.421880114527625,5.075937050562736 L5.185364105085976,5.119329385774763 L4.945724626200675,5.160773854214351 L4.703106027733104,5.20024549128342 L4.457654454054889,5.237720520743741 L4.209517756015988,5.273176369038847 L3.958845401884871,5.306591678891504 L3.7057883873144206,5.337946322168538 L3.450499144387805,5.367221412005263 L3.1931314497990857,5.394399314182227 L2.9338403322238826,5.419463657747407 L2.672781978935904,5.442399344877456 L2.41011364172557,5.463192559972065 L2.1459935421774117,5.481830777975973 L1.880580776363312,5.498302771923579 L1.6140352190089788,5.512598619701658 L1.3465174271913787,5.524709710026064 L1.078188543625168,5.534628747628849 L0.8092101995963441,5.542349757652659 L0.5397444176015991,5.54786808924976 L0.2699535137520345,5.551180418383543 L3.0065878059364777e-16,5.552284749830795 L-0.26995351375203397,5.551180418383543 L-0.5397444176015984,5.54786808924976 L-0.8092101995963434,5.542349757652659 L-1.0781885436251675,5.53462874762885 L-1.3465174271913782,5.524709710026064 L-1.6140352190089784,5.512598619701658 L-1.8805807763633118,5.49830277192358 L-2.1459935421774103,5.481830777975973 L-2.410113641725568,5.463192559972066 L-2.6727819789359026,5.442399344877456 L-2.9338403322238813,5.419463657747407 L-3.193131449799084,5.394399314182227 L-3.4504991443878037,5.367221412005263 L-3.7057883873144193,5.337946322168538 L-3.95884540188487,5.306591678891503 L-4.209517756015987,5.273176369038845 L-4.4576544540548895,5.237720520743739 L-4.703106027733105,5.200245491283419 L-4.945724626200674,5.16077385421435 L-5.1853641050859745,5.119329385774762 L-5.421880114527624,5.075937050562736 L-5.655130186125438,5.030622986498458 L-5.884973818758067,4.9834144890797205 L-6.111272563215621,4.934339994940127 L-6.333890105596295,4.883429064719936 L-6.552692349416762,4.830712365259826 L-6.76754749638689,4.776221651128351 L-6.978326125800099,4.719989745494163 L-7.184901272491546,4.662050520354571 L-7.387148503317203,4.60243887613231 L-7.584945992107737,4.541190720652839 L-7.778174593052022,4.478342947514801 L-7.966717912466135,4.413933413866706 L-8.150462378904548,4.348000917603195 L-8.329297311571327,4.280585173994643 L-8.503114986990107,4.2117267917641605 L-8.671810703892671,4.141467248626425 L-8.835282846287095,4.069848866303048 L-8.993432944667422,3.996914785029559 L-9.146165735328,3.9227089375693347 L-9.293389217746778,3.84727602275015 L-9.435014710002992,3.770661478539273 L-9.570956902195825,3.692911454673335 L-9.701133907831904,3.6140727848594523 L-9.825467313150668,3.5341929585643514 L-9.943882224357875,3.4533200924084957 L-10.056307312738834,3.3715029011824242 L-10.162674857624154,3.2887906685027897 L-10.262920787182129,3.2052332171257487 L-10.356984717013228,3.1208808789355995 L-10.444809986523403,3.0357844646267282 L-10.526343693054297,2.9499952330971553 L-10.601536723749838,2.8635648605720876 L-10.670343785139984,2.7765454094760944 L-10.732723430423814,2.68898929707265 L-10.788638084435535,2.600949263889931 L-10.838054066278353,2.512478341951899 L-10.88094160961259,2.423629822833788 L-10.91727488058581,2.3344572255612546 L-10.947031993394164,2.2450142643725157 L-10.970195023465592,2.155354816362906 L-10.986750018256897,2.065532889031325 L-10.996687005658247,1.975602587748138 L-11.0,1.8856180831641427 " />
			<path d="M-11.0,1.8856180831641265 L-10.998136399754058,1.818126740176175 L-10.992546230471845,1.7506582657124778 L-10.983231386306242,1.6832355205485983 L-10.970195023465592,1.6158813499653468 L-10.953441559144258,1.5486185760079734 L-10.932976670025917,1.4814699897532215 L-10.908807290360095,1.4144583435868838 L-10.880941609612591,1.3476063434944667 L-10.849389069690586,1.2809366413675711 L-10.81416036174338,1.2144718273286101 L-10.775267422539846,1.148234422076456 L-10.732723430423814,1.082246869255603 L-10.68654280084877,1.0165315278514453 L-10.636741181493374,0.9511106646142394 L-10.583335446959458,0.8860064465143143 L-10.526343693054299,0.8212409332310979 L-10.465785230659092,0.7568360696784981 L-10.401680579185737,0.6928136785691628 L-10.334051459624092,0.6291954530201485 L-10.26292078718213,0.5660029492025043 L-10.188312663521426,0.5032575790372598 L-10.110252368590636,0.4409806029402832 L-10.028766352059728,0.37919312261847793 L-9.943882224357878,0.31791607391975885 L-9.85562874731804,0.2571702197392203 L-9.764035824431396,0.19697614298391364 L-9.66913449071497,0.13735423959861204 L-9.570956902195826,0.07832471165491772 L-9.46953632501544,0.019907560506066124 L-9.364907124157918,-0.03787741999025962 L-9.257104751805885,-0.09501065017881327 L-9.146165735328,-0.15147277124108172 L-8.915029180778546,-0.26230739417614846 L-8.671810703892673,-0.37023108229817137 L-8.41683992184705,-0.47509757409844244 L-8.150462378904553,-0.5767647512749408 L-7.87303907812201,-0.6750948313354401 L-7.584945992107738,-0.769954554324586 L-7.286573553491892,-0.8612153634218909 L-6.9783261258001055,-0.948753579165909 L-6.66062145544759,-1.0324505670684454 L-6.333890105596305,-1.11219289839168 L-5.998574872642514,-1.1878725038702802 L-5.655130186125439,-1.2593868201702056 L-5.304021492870348,-1.3266389288856995 L-4.945724626200676,-1.3895376878860972 L-4.580725161074018,-1.4479978548344552 L-4.209517756015994,-1.5019402027105921 L-3.832605482743783,-1.5512916271819828 L-3.4504991443878152,-1.5959852456770078 L-3.0637165832355997,-1.635960488026281 L-2.6727819789359146,-1.6711631785492016 L-2.2782251381144127,-1.7015456094745085 L-1.8805807763633187,-1.7270666055953252 L-1.48038779357839,-1.7476915800710677 L-1.0781885436251748,-1.7633925813005962 L-0.6745280993243086,-1.7741483308030883 L-0.269953513752046,-1.77994425205529 L0.13498692114291186,-1.780772490246071 L0.5397444176015944,-1.7766319229215064 L0.9437704357888385,-1.7675281615060605 L1.3465174271913716,-1.7534735436978113 L1.747439576672463,-1.7344871167480225 L2.1459935421774015,-1.71059461164772 L2.5416391910873766,-1.681828408256262 L2.9338403322238804,-1.6482274914191541 L3.3220654425115095,-1.609837398134585 L3.7057883873144157,-1.5667101558402843 L4.0844891334702025,-1.5189042119043323 L4.4576544540548815,-1.466484354415487 L4.8247786239238,-1.409521624380372 L5.185364105085974,-1.348093219446509 L5.538922220982895,-1.2822823892816912 L5.884973818758066,-1.212178322751467 L6.223049918619737,-1.1378760270476347 L6.552692349416762,-1.059476198931573 L6.873454369566248,-0.9770850882668873 L7.184901272491544,-0.8908143540263174 L7.486610975749987,-0.8007809129680532 L7.778174593051952,-0.7071067811865714 " />
			<path d="M1.4142135623730947,-5.892556509887899 L1.4819022507099189,-5.868857958994878 L1.5460209067254744,-5.844080845205964 L1.60641506296129,-5.8182848587584886 L1.6629392246050905,-5.791532144443268 L1.715457220000544,-5.763887151892348 L1.7638425286967097,-5.735416480314199 L1.8079785862468862,-5.706188718050388 L1.847759065022573,-5.67627427734026 L1.883088130366041,-5.64574522469168 L1.9138806714644172,-5.614675107266509 L1.9400625063890875,-5.583138775699044 L1.9615705608064606,-5.551212203774286 L1.978353019929562,-5.518972305400441 L1.9903694533443939,-5.486496749316574 L1.9975909124103448,-5.453863771981812 L2.0,-5.421151989096873 " />
			<path d="M2.0,-5.421151989096867 L1.9975909124103448,-5.388440206211921 L1.9903694533443936,-5.355807228877159 L1.9783530199295618,-5.323331672793292 L1.9615705608064609,-5.2910917744194474 L1.940062506389088,-5.259165202494691 L1.9138806714644176,-5.227628870927225 L1.8830881303660414,-5.196558753502053 L1.8477590650225733,-5.166029700853473 L1.8079785862468865,-5.136115260143345 L1.7638425286967099,-5.106887497879534 L1.715457220000544,-5.078416826301385 L1.6629392246050902,-5.050771833750465 L1.6064150629612897,-5.024019119435244 L1.5460209067254738,-4.9982231329877695 L1.481902250709918,-4.973446019198854 L1.414213562373095,-4.9497474683058345 L1.3431179096940367,-4.9271845721935605 L1.268786568327291,-4.905811686855042 L1.1111404660392046,-4.866838914228503 L0.9427934736519956,-4.833204479531297 L0.7653668647301797,-4.805232300756009 L0.5805693545089247,-4.783191765275394 L0.3901806440322566,-4.767295135494713 L0.1960342806591215,-4.757695504648735 L8.321236844764095e-17,-4.7544853224302 L-0.19603428065912132,-4.757695504648735 L-0.39018064403225644,-4.767295135494713 L-0.5805693545089243,-4.783191765275394 L-0.7653668647301795,-4.805232300756009 L-0.9427934736519954,-4.833204479531297 L-1.111140466039204,-4.866838914228503 L-1.2687865683272908,-4.905811686855042 L-1.3431179096940369,-4.9271845721935605 L-1.414213562373095,-4.949747468305835 L-1.4819022507099178,-4.973446019198854 L-1.546020906725474,-4.9982231329877695 L-1.60641506296129,-5.024019119435245 L-1.6629392246050907,-5.050771833750465 L-1.715457220000544,-5.078416826301385 L-1.7638425286967099,-5.106887497879534 L-1.8079785862468862,-5.136115260143345 L-1.8477590650225735,-5.166029700853473 L-1.8830881303660416,-5.196558753502053 L-1.9138806714644176,-5.227628870927225 L-1.940062506389088,-5.259165202494691 L-1.9615705608064609,-5.2910917744194474 L-1.9783530199295618,-5.323331672793292 L-1.9903694533443936,-5.355807228877159 L-1.9975909124103448,-5.388440206211921 L-2.0,-5.421151989096864 " />
			<path d="M-2.0,-5.421151989096867 L-1.998644769176699,-5.445690137724439 L-1.9945809133573804,-5.470195031496645 L-1.9878139400047121,-5.4946334606261225 L-1.978353019929562,-5.518972305400442 L-1.9662109748624328,-5.543178581066961 L-1.9514042600770571,-5.56721948253478 L-1.9339529420897044,-5.59106242883321 L-1.9138806714644179,-5.614675107266509 L-1.8659855976694781,-5.661082013453525 L-1.807978586246887,-5.706188718050388 L-1.740173982217423,-5.749750783916723 L-1.662939224605091,-5.791532144443268 L-1.5766928552532133,-5.831306382817284 L-1.4819022507099187,-5.868857958994879 L-1.379081089474134,-5.903983377731178 L-1.2687865683272919,-5.936492291338691 L-1.1516163828356918,-5.966208531197923 L-1.0282054883864435,-5.992971062430382 L-0.8992226593092139,-6.016634856560543 L-0.7653668647301807,-6.037071677437725 L-0.6273634807977846,-6.054170776158891 L-0.4859603598065299,-6.067839491226563 L-0.3419237775206033,-6.078003750689494 L-0.19603428065912265,-6.084608473544998 L-0.04908245704582651,-6.08761786822767 L0.09813534865483536,-6.0870156265669815 L0.24482135039843123,-6.082805012162673 L0.3901806440322549,-6.07500884269902 L0.5334255149497964,-6.063669366293826 L0.6737797067844392,-6.048848032552214 L0.8104826280099784,-6.030625159565887 L0.9427934736519952,-6.009099498662437 L1.0699952397741939,-5.984387699263339 L1.1913986089848658,-5.95662367675063 L1.3063456859075535,-5.925957886767856 L1.4142135623730823,-5.8925565098879025 " />
			<path d="M-20.506096654409877,1.4142135623730931 L-20.438407966073054,1.4379121132661128 L-20.3742893100575,1.462689227055028 L-20.313895153821683,1.4884852135025028 L-20.257370992177883,1.5152379278177235 L-20.204852996782428,1.5428829203686436 L-20.156467688086263,1.5713535919467931 L-20.112331630536087,1.6005813542106033 L-20.0725511517604,1.6304957949207313 L-20.037222086416932,1.661024847569311 L-20.006429545318554,1.6920949649944828 L-19.980247710393886,1.7236312965619482 L-19.958739655976512,1.755557868486706 L-19.941957196853412,1.7877977668605507 L-19.92994076343858,1.8202733229444181 L-19.922719304372627,1.8529063002791797 L-19.920310216782973,1.885618083164119 " />
			<path d="M-19.920310216782973,1.8856180831641254 L-19.922719304372627,1.9183298660490706 L-19.92994076343858,1.9509628433838324 L-19.941957196853412,1.9834383994676998 L-19.958739655976512,2.015678297841544 L-19.980247710393886,2.0476048697663014 L-20.006429545318554,2.079141201333767 L-20.037222086416932,2.110211318758939 L-20.0725511517604,2.1407403714075186 L-20.112331630536087,2.1706548121176468 L-20.156467688086263,2.199882574381457 L-20.204852996782428,2.2283532459596063 L-20.257370992177883,2.255998238510527 L-20.313895153821683,2.2827509528257472 L-20.3742893100575,2.308546939273222 L-20.438407966073054,2.3333240530621375 L-20.506096654409877,2.3570226039551567 L-20.577192307088936,2.379585500067431 L-20.651523648455683,2.40095838540595 L-20.809169750743767,2.439931158032489 L-20.977516743130977,2.473565592729695 L-21.154943352052793,2.501537771504983 L-21.33974086227405,2.5235783069855975 L-21.530129572750717,2.539474936766279 L-21.724275936123853,2.5490745676122564 L-21.920310216782973,2.552284749830792 L-22.116344497442093,2.5490745676122564 L-22.31049086081523,2.539474936766279 L-22.500879571291897,2.5235783069855975 L-22.685677081513152,2.501537771504983 L-22.86310369043497,2.4735655927296953 L-23.031450682822175,2.4399311580324885 L-23.189096785110262,2.40095838540595 L-23.26342812647701,2.379585500067431 L-23.33452377915607,2.3570226039551567 L-23.40221246749289,2.333324053062137 L-23.466331123508446,2.308546939273222 L-23.526725279744262,2.2827509528257472 L-23.583249441388062,2.2559982385105264 L-23.635767436783517,2.2283532459596063 L-23.684152745479683,2.1998825743814567 L-23.72828880302986,2.1706548121176463 L-23.768069281805545,2.140740371407518 L-23.803398347149013,2.110211318758938 L-23.83419088824739,2.0791412013337665 L-23.86037272317206,2.047604869766301 L-23.881880777589434,2.0156782978415437 L-23.898663236712533,1.9834383994676996 L-23.910679670127365,1.950962843383832 L-23.917901129193318,1.9183298660490702 L-23.920310216782973,1.8856180831641278 " />
			<path d="M-23.920310216782973,1.885618083164125 L-23.918954985959672,1.8610799345365525 L-23.914891130140354,1.8365750407643469 L-23.908124156787686,1.8121366116348694 L-23.898663236712533,1.7877977668605505 L-23.886521191645407,1.7635914911940311 L-23.87171447686003,1.7395505897262116 L-23.854263158872676,1.7157076434277818 L-23.83419088824739,1.6920949649944834 L-23.78629581445245,1.6456880588074663 L-23.72828880302986,1.6005813542106035 L-23.660484199000397,1.5570192883442688 L-23.583249441388062,1.5152379278177235 L-23.497003072036186,1.4754636894437072 L-23.40221246749289,1.4379121132661126 L-23.299391306257107,1.4027866945298135 L-23.189096785110266,1.3702777809223003 L-23.071926599618664,1.3405615410630691 L-22.948515705169417,1.31379900983061 L-22.819532876092186,1.290135215700448 L-22.685677081513152,1.269698394823267 L-22.547673697580755,1.2525992961021006 L-22.406270576589502,1.2389305810344289 L-22.262233994303575,1.2287663215714972 L-22.116344497442096,1.2221615987159935 L-21.9693926738288,1.219152204033322 L-21.822174868128137,1.2197544456940097 L-21.67548886638454,1.223965060098318 L-21.530129572750717,1.2317612295619709 L-21.386884701833175,1.2431007059671648 L-21.246530509998532,1.2579220397087774 L-21.109827588772994,1.276144912695104 L-20.977516743130977,1.2976705735985548 L-20.85031497700878,1.3223823729976534 L-20.728911607798107,1.3501463955103614 L-20.613964530875418,1.3808121854931352 L-20.50609665440989,1.414213562373089 " />
			<path d="M23.33452377915607,1.4142135623730967 L23.40221246749289,1.4379121132661163 L23.466331123508446,1.4626892270550316 L23.526725279744262,1.4884852135025064 L23.583249441388062,1.515237927817727 L23.635767436783517,1.5428829203686472 L23.684152745479683,1.5713535919467967 L23.72828880302986,1.6005813542106069 L23.768069281805545,1.6304957949207348 L23.803398347149013,1.6610248475693146 L23.83419088824739,1.6920949649944863 L23.86037272317206,1.7236312965619518 L23.881880777589434,1.7555578684867095 L23.898663236712533,1.7877977668605542 L23.910679670127365,1.8202733229444217 L23.917901129193318,1.8529063002791832 L23.920310216782973,1.8856180831641225 " />
			<path d="M23.920310216782973,1.885618083164129 L23.917901129193318,1.9183298660490742 L23.910679670127365,1.950962843383836 L23.898663236712533,1.9834383994677034 L23.881880777589434,2.0156782978415477 L23.86037272317206,2.047604869766305 L23.83419088824739,2.0791412013337705 L23.803398347149013,2.1102113187589424 L23.768069281805545,2.140740371407522 L23.72828880302986,2.1706548121176503 L23.684152745479683,2.1998825743814607 L23.635767436783517,2.22835324595961 L23.583249441388062,2.2559982385105304 L23.526725279744262,2.282750952825751 L23.466331123508446,2.3085469392732256 L23.40221246749289,2.333324053062141 L23.33452377915607,2.3570226039551603 L23.26342812647701,2.3795855000674346 L23.189096785110262,2.4009583854059535 L23.03145068282218,2.4399311580324925 L22.86310369043497,2.4735655927296984 L22.685677081513152,2.5015377715049865 L22.500879571291897,2.523578306985601 L22.31049086081523,2.5394749367662826 L22.116344497442093,2.54907456761226 L21.920310216782973,2.5522847498307955 L21.724275936123853,2.54907456761226 L21.530129572750717,2.5394749367662826 L21.33974086227405,2.523578306985601 L21.154943352052793,2.5015377715049865 L20.977516743130977,2.473565592729699 L20.80916975074377,2.439931158032492 L20.651523648455683,2.4009583854059535 L20.577192307088936,2.3795855000674346 L20.506096654409877,2.3570226039551603 L20.438407966073054,2.3333240530621406 L20.3742893100575,2.3085469392732256 L20.313895153821683,2.282750952825751 L20.257370992177883,2.25599823851053 L20.204852996782428,2.22835324595961 L20.156467688086263,2.1998825743814603 L20.112331630536087,2.17065481211765 L20.0725511517604,2.1407403714075217 L20.037222086416932,2.1102113187589415 L20.006429545318554,2.07914120133377 L19.980247710393886,2.0476048697663045 L19.958739655976512,2.0156782978415473 L19.941957196853412,1.9834383994677032 L19.92994076343858,1.9509628433838355 L19.922719304372627,1.9183298660490737 L19.920310216782973,1.8856180831641314 " />
			<path d="M19.920310216782973,1.8856180831641285 L19.921665447606273,1.861079934536556 L19.92572930342559,1.8365750407643504 L19.93249627677826,1.812136611634873 L19.941957196853412,1.787797766860554 L19.954099241920538,1.7635914911940347 L19.968905956705914,1.7395505897262151 L19.98635727469327,1.7157076434277854 L20.006429545318554,1.692094964994487 L20.054324619113494,1.6456880588074698 L20.112331630536087,1.600581354210607 L20.18013623456555,1.5570192883442724 L20.257370992177883,1.515237927817727 L20.34361736152976,1.4754636894437108 L20.438407966073054,1.4379121132661161 L20.54122912730884,1.402786694529817 L20.65152364845568,1.370277780922304 L20.76869383394728,1.3405615410630727 L20.89210472839653,1.3137990098306136 L21.02108755747376,1.2901352157004515 L21.154943352052793,1.2696983948232705 L21.29294673598519,1.2525992961021042 L21.434349856976443,1.2389305810344324 L21.57838643926237,1.2287663215715008 L21.72427593612385,1.222161598715997 L21.871227759737145,1.2191522040333256 L22.01844556543781,1.2197544456940133 L22.165131567181405,1.2239650600983216 L22.31049086081523,1.2317612295619744 L22.45373573173277,1.2431007059671684 L22.594089923567413,1.257922039708781 L22.73079284479295,1.2761449126951077 L22.86310369043497,1.2976705735985583 L22.990305456557167,1.322382372997657 L23.11170882576784,1.350146395510365 L23.226655902690528,1.3808121854931388 L23.334523779156054,1.4142135623730925 " />
			<path d="M1.4142135623730947,8.720983634634088 L1.4819022507099189,8.744682185527108 L1.5460209067254744,8.769459299316022 L1.60641506296129,8.795255285763497 L1.6629392246050905,8.822008000078718 L1.715457220000544,8.849652992629638 L1.7638425286967097,8.878123664207788 L1.8079785862468862,8.907351426471598 L1.847759065022573,8.937265867181726 L1.883088130366041,8.967794919830306 L1.9138806714644172,8.998865037255477 L1.9400625063890875,9.030401368822943 L1.9615705608064606,9.0623279407477 L1.978353019929562,9.094567839121545 L1.9903694533443939,9.127043395205412 L1.9975909124103448,9.159676372540174 L2.0,9.192388155425114 " />
			<path d="M2.0,9.19238815542512 L1.9975909124103448,9.225099938310064 L1.9903694533443936,9.257732915644826 L1.9783530199295618,9.290208471728693 L1.9615705608064609,9.322448370102538 L1.940062506389088,9.354374942027295 L1.9138806714644176,9.385911273594761 L1.8830881303660414,9.416981391019933 L1.8477590650225733,9.447510443668513 L1.8079785862468865,9.47742488437864 L1.7638425286967099,9.50665264664245 L1.715457220000544,9.5351233182206 L1.6629392246050902,9.56276831077152 L1.6064150629612897,9.589521025086741 L1.5460209067254738,9.615317011534216 L1.481902250709918,9.640094125323131 L1.414213562373095,9.66379267621615 L1.3431179096940367,9.686355572328425 L1.268786568327291,9.707728457666944 L1.1111404660392046,9.746701230293484 L0.9427934736519956,9.78033566499069 L0.7653668647301797,9.808307843765977 L0.5805693545089247,9.830348379246592 L0.3901806440322566,9.846245009027273 L0.1960342806591215,9.85584463987325 L8.321236844764095e-17,9.859054822091785 L-0.19603428065912132,9.85584463987325 L-0.39018064403225644,9.846245009027273 L-0.5805693545089243,9.830348379246592 L-0.7653668647301795,9.808307843765977 L-0.9427934736519954,9.78033566499069 L-1.111140466039204,9.746701230293484 L-1.2687865683272908,9.707728457666944 L-1.3431179096940369,9.686355572328425 L-1.414213562373095,9.66379267621615 L-1.4819022507099178,9.640094125323131 L-1.546020906725474,9.615317011534216 L-1.60641506296129,9.589521025086741 L-1.6629392246050907,9.56276831077152 L-1.715457220000544,9.5351233182206 L-1.7638425286967099,9.50665264664245 L-1.8079785862468862,9.47742488437864 L-1.8477590650225735,9.447510443668513 L-1.8830881303660416,9.416981391019933 L-1.9138806714644176,9.385911273594761 L-1.940062506389088,9.354374942027295 L-1.9615705608064609,9.322448370102538 L-1.9783530199295618,9.290208471728693 L-1.9903694533443936,9.257732915644826 L-1.9975909124103448,9.225099938310064 L-2.0,9.192388155425123 " />
			<path d="M-2.0,9.19238815542512 L-1.998644769176699,9.167850006797547 L-1.9945809133573804,9.14334511302534 L-1.9878139400047121,9.118906683895863 L-1.978353019929562,9.094567839121545 L-1.9662109748624328,9.070361563455025 L-1.9514042600770571,9.046320661987206 L-1.9339529420897044,9.022477715688776 L-1.9138806714644179,8.998865037255477 L-1.8659855976694781,8.952458131068461 L-1.807978586246887,8.907351426471598 L-1.740173982217423,8.863789360605264 L-1.662939224605091,8.822008000078718 L-1.5766928552532133,8.7822337617047 L-1.4819022507099187,8.744682185527108 L-1.379081089474134,8.709556766790808 L-1.2687865683272919,8.677047853183295 L-1.1516163828356918,8.647331613324063 L-1.0282054883864435,8.620569082091604 L-0.8992226593092139,8.596905287961443 L-0.7653668647301807,8.576468467084261 L-0.6273634807977846,8.559369368363095 L-0.4859603598065299,8.545700653295423 L-0.3419237775206033,8.535536393832492 L-0.19603428065912265,8.528931670976988 L-0.04908245704582651,8.525922276294317 L0.09813534865483536,8.526524517955004 L0.24482135039843123,8.530735132359313 L0.3901806440322549,8.538531301822966 L0.5334255149497964,8.54987077822816 L0.6737797067844392,8.564692111969771 L0.8104826280099784,8.582914984956098 L0.9427934736519952,8.60444064585955 L1.0699952397741939,8.629152445258647 L1.1913986089848658,8.656916467771357 L1.3063456859075535,8.68758225775413 L1.4142135623730823,8.720983634634083 " />

       </g>
    </g>
    
</svg>
