<?xml version="1.0" encoding="UTF-8" standalone="no"?>
<svg
   xmlns:svg="http://www.w3.org/2000/svg"
   xmlns="http://www.w3.org/2000/svg"
   width="1024.0"
   height="320.0"

>
    <g transform="scale(4.0729350596345135, -4.0729350596345135)   translate(64.3074333779099,-15.870618866631403)" stroke-width="0.30333333333333334"  fill="none">
       <!-- hidden lines -->
       <g  stroke="rgb(32,64,32)" fill="none" stroke-dasharray="0.30333333333333334,0.30333333333333334" >

       </g>

       <!-- solid lines -->
       <g  stroke="rgb(64,192,64)" fill="none">
			<path d="M-15.202795795510767,-37.83021279348029 L-15.20279579551077,5.067598598503594 " />
			<path d="M-15.20279579551077,5.067598598503591 L2.4748737341529186,10.96015510839149 " />
			<path d="M-15.202795795510767,-37.83021279348029 L15.202795795510774,-47.96540999048747 " />
			<path d="M-15.20279579551077,5.067598598503591 L15.20279579551077,-5.067598598503591 " />
			<path d="M15.202795795510774,-47.96540999048748 L15.20279579551077,-5.067598598503594 " />
			<path d="M-14.884597743976824,1.8706018459471925 L-12.884597743912613,3.870601845928438 " />
			<path d="M-14.884597743976821,-32.48832547132093 L-14.884597743976824,1.870601845947192 " />
			<path d="M-12.884597743910486,-35.82165880467996 L-14.884597743976114,-32.488325471320216 " />
			<path d="M12.884597743914737,-44.41139063395504 L-12.884597743910485,-35.82165880467996 " />
			<path d="M14.884597743976828,-42.41139063397214 L12.884597743913321,-44.41139063395268 " />
			<path d="M14.884597743976824,-8.052463316704024 L14.884597743976828,-42.41139063397215 " />
			<path d="M12.884597743914734,-4.719129983350173 L14.884597743976826,-8.052463316704026 " />
			<path d="M-12.88459774391049,3.8706018459249023 L12.884597743914732,-4.719129983350172 " />
			<path d="M15.20279579551077,-5.067598598503591 L32.880465325174455,0.824957911384308 " />
			<path d="M2.474873734152915,10.96015510839149 L32.880465325174455,0.824957911384308 " />
			<path d="M15.202795795510774,-47.96540999048748 L32.88046532517446,-42.07285348059958 " />
			<path d="M32.880465325174455,-42.07285348059958 L32.88046532517445,0.8249579113843026 " />
			<path d="M27.22361107568208,-38.01877460179671 L27.273894966350785,-38.00061041796842 L27.324090831442437,-37.97967225797647 L27.3741107994751,-37.95599677557997 L27.423867306887328,-37.92962541641831 L27.47327325132449,-37.900604345457594 L27.522242144117726,-37.86898436617551 L27.570688261688602,-37.83482083162622 L27.618526795614404,-37.79817354754078 L27.665674001091418,-37.75910666763297 L27.71204734353623,-37.717688581293544 L27.757565643068478,-37.67399179386968 L27.802149216622084,-37.62809279973916 L27.845720017436204,-37.58007194840139 L27.888201771681718,-37.530013303819885 L27.929520111984065,-37.47800449726217 L27.969602707608693,-37.42413657389496 L28.008379391081235,-37.36850383340305 L28.04578228102072,-37.311203664910835 L28.081745900970844,-37.25233637649573 L28.116207294021212,-37.192005019591555 L28.149106133017956,-37.13031520858965 L28.18038482617077,-37.06737493595318 L28.23786568454775,-36.938185727865054 L28.288247547750128,-36.80534161952967 L28.331177781833095,-36.669772416614954 L28.36635590847303,-36.53242699833615 L28.380958818623373,-36.463388316192464 L28.393535708082577,-36.39426667603766 L28.40406456009861,-36.32518308028785 L28.412526943156685,-36.25625846475965 L28.418908043244958,-36.18761348696332 L28.423196689787524,-36.11936831488315 L28.425385375199312,-36.05164241661464 L28.425470268028665,-35.98455435122706 L28.423451219664564,-35.918221561217216 L28.41933176459678,-35.852760166917896 L28.413119114228508,-35.78828476322085 L28.40482414425226,-35.72490821897018 L28.39446137561121,-35.662741479377246 L28.382048949079227,-35.60189337180315 L28.367608593504123,-35.542470415248516 L28.351165587769763,-35.48457663388434 L28.33274871654354,-35.42831337495015 L28.312390219886755,-35.37377913133839 L28.29012573681604,-35.321069369175454 L28.26599424291471,-35.27027636070142 L28.240037982103193,-35.22148902274077 L28.212302392687977,-35.174792761047115 L28.18283602781861,-35.130269320794255 L28.15169047049189,-35.08799664347534 L28.11892024325211,-35.04804873046071 L28.084582712745423,-35.0104955134531 L28.04873798929538,-34.975402732067195 L28.011448821675472,-34.942831818747685 L27.97278048726289,-34.91283979122732 L27.932800677765762,-34.88547915271329 L27.89157938072392,-34.86079779997653 L27.849188756990692,-34.83883893950502 L27.805703014410103,-34.81964101186766 L27.761198277910708,-34.80323762442133 " />
			<path d="M27.761198277910704,-34.80323762442133 L27.69801780439241,-34.78518612012594 L27.633244295757507,-34.77261080829833 L27.567095258351575,-34.76555391623446 L27.49979281748005,-34.76403914064055 L27.431562971522077,-34.76807156806061 L27.362634833038747,-34.77763765779615 L27.29323985942406,-34.79270528737512 L27.223611075682086,-34.81322386041769 " />
			<path d="M24.395183950935888,-38.96158364337877 L27.22361107568208,-38.01877460179671 " />
			<path d="M24.395183950935888,-35.75603290199976 L24.344900060267182,-35.77419708582805 L24.29470419517553,-35.79513524582 L24.244684227142866,-35.8188107282165 L24.19492771973064,-35.845182087378156 L24.145521775293478,-35.87420315833887 L24.09655288250024,-35.905823137620956 L24.04810676492937,-35.93998667217025 L24.000268231003563,-35.97663395625569 L23.95312102552655,-36.0157008361635 L23.906747683081736,-36.05711892250292 L23.86122938354949,-36.100815709926785 L23.816645809995883,-36.14671470405731 L23.773075009181763,-36.19473555539508 L23.73059325493625,-36.24479419997658 L23.689274914633902,-36.2968030065343 L23.649192319009273,-36.350670929901504 L23.610415635536732,-36.40630367039342 L23.573012745597246,-36.46360383888563 L23.537049125647123,-36.52247112730074 L23.502587732596755,-36.58280248420491 L23.46968889360001,-36.64449229520682 L23.438410200447198,-36.707432567843284 L23.380929342070218,-36.836621775931405 L23.33054747886784,-36.969465884266796 L23.287617244784872,-37.10503508718151 L23.252439118144938,-37.24238050546032 L23.237836207994597,-37.311419187604 L23.22525931853539,-37.38054082775881 L23.214730466519356,-37.44962442350862 L23.206268083461282,-37.51854903903682 L23.19988698337301,-37.587194016833145 L23.195598336830443,-37.65543918891332 L23.193409651418655,-37.723165087181826 L23.193324758589302,-37.790253152569406 L23.195343806953403,-37.85658594257925 L23.199463262021187,-37.92204733687857 L23.20567591238946,-37.986522740575616 L23.213970882365707,-38.04989928482629 L23.224333651006756,-38.11206602441922 L23.23674607753874,-38.172914131993316 L23.251186433113844,-38.23233708854795 L23.267629438848203,-38.29023086991213 L23.286046310074425,-38.34649412884632 L23.306404806731212,-38.40102837245808 L23.328669289801926,-38.45373813462101 L23.352800783703255,-38.50453114309504 L23.378757044514774,-38.5533184810557 L23.40649263392999,-38.60001474274935 L23.435958998799357,-38.64453818300221 L23.467104556126078,-38.686810860321124 L23.499874783365858,-38.72675877333576 L23.534212313872544,-38.764311990343366 L23.570057037322588,-38.79940477172927 L23.607346204942495,-38.83197568504878 L23.646014539355075,-38.86196771256915 L23.685994348852205,-38.88932835108318 L23.727215645894045,-38.914009703819936 L23.769606269627275,-38.93596856429145 L23.813092012207864,-38.95516649192881 L23.857596748707252,-38.97156987937514 " />
			<path d="M23.857596748707262,-38.97156987937514 L23.920777222225556,-38.989621383670524 L23.98555073086046,-39.002196695498135 L24.051699768266396,-39.00925358756201 L24.119002209137918,-39.01076836315592 L24.18723205509589,-39.006735935735854 L24.256160193579223,-38.99716984600031 L24.325555167193908,-38.98210221642134 L24.395183950935888,-38.96158364337877 " />
			<path d="M27.22361107568208,-34.813223860417686 L24.395183950935888,-35.75603290199975 " />
			<path d="M27.22361107568208,-7.848885271170675 L27.273894966350785,-7.830721087342386 L27.324090831442437,-7.809782927350435 L27.3741107994751,-7.786107444953933 L27.423867306887328,-7.759736085792276 L27.47327325132449,-7.73071501483156 L27.522242144117726,-7.6990950355494805 L27.570688261688602,-7.664931501000183 L27.618526795614404,-7.628284216914746 L27.665674001091418,-7.589217337006938 L27.71204734353623,-7.547799250667513 L27.757565643068478,-7.504102463243653 L27.802149216622084,-7.4582034691131245 L27.845720017436204,-7.410182617775358 L27.888201771681718,-7.360123973193849 L27.929520111984065,-7.308115166636134 L27.969602707608693,-7.254247243268931 L28.008379391081235,-7.19861450277701 L28.04578228102072,-7.141314334284799 L28.081745900970844,-7.082447045869691 L28.116207294021212,-7.022115688965525 L28.149106133017956,-6.960425877963616 L28.18038482617077,-6.897485605327152 L28.23786568454775,-6.768296397239024 L28.288247547750128,-6.635452288903637 L28.331177781833095,-6.4998830859889205 L28.36635590847303,-6.362537667710117 L28.380958818623373,-6.293498985566428 L28.393535708082577,-6.224377345411629 L28.40406456009861,-6.155293749661816 L28.412526943156685,-6.08636913413361 L28.418908043244958,-6.017724156337289 L28.423196689787524,-5.949478984257114 L28.425385375199312,-5.881753085988605 L28.425470268028665,-5.814665020601026 L28.423451219664564,-5.748332230591183 L28.41933176459678,-5.6828708362918645 L28.413119114228508,-5.618395432594819 L28.40482414425226,-5.555018888344142 L28.39446137561121,-5.492852148751216 L28.382048949079227,-5.4320040411771195 L28.367608593504123,-5.372581084622486 L28.351165587769763,-5.314687303258307 L28.33274871654354,-5.258424044324118 L28.312390219886755,-5.203889800712352 L28.29012573681604,-5.151180038549423 L28.26599424291471,-5.100387030075389 L28.240037982103193,-5.05159969211474 L28.212302392687977,-5.004903430421084 L28.18283602781861,-4.960379990168221 L28.15169047049189,-4.91810731284931 L28.11892024325211,-4.878159399834676 L28.084582712745423,-4.840606182827065 L28.04873798929538,-4.8055134014411625 L28.011448821675472,-4.772942488121652 L27.97278048726289,-4.742950460601289 L27.932800677765762,-4.715589822087255 L27.89157938072392,-4.690908469350495 L27.849188756990692,-4.668949608878981 L27.805703014410103,-4.649751681241623 L27.761198277910708,-4.6333482937952954 " />
			<path d="M27.761198277910704,-4.633348293795294 L27.69801780439241,-4.615296789499908 L27.633244295757507,-4.602721477672296 L27.567095258351575,-4.5956645856084295 L27.49979281748005,-4.594149810014514 L27.431562971522077,-4.598182237434581 L27.362634833038747,-4.607748327170119 L27.29323985942406,-4.622815956749092 L27.223611075682086,-4.643334529791657 " />
			<path d="M24.395183950935888,-8.791694312752739 L27.22361107568208,-7.848885271170675 " />
			<path d="M24.395183950935888,-5.586143571373722 L24.344900060267182,-5.6043077552020115 L24.29470419517553,-5.625245915193963 L24.244684227142866,-5.648921397590465 L24.19492771973064,-5.675292756752121 L24.145521775293478,-5.704313827712838 L24.09655288250024,-5.735933806994917 L24.04810676492937,-5.770097341544215 L24.000268231003563,-5.806744625629651 L23.95312102552655,-5.84581150553746 L23.906747683081736,-5.887229591876885 L23.86122938354949,-5.930926379300745 L23.816645809995883,-5.976825373431273 L23.773075009181763,-6.024846224769039 L23.73059325493625,-6.074904869350548 L23.689274914633902,-6.126913675908263 L23.649192319009273,-6.180781599275466 L23.610415635536732,-6.2364143397673875 L23.573012745597246,-6.2937145082595976 L23.537049125647123,-6.352581796674706 L23.502587732596755,-6.412913153578873 L23.46968889360001,-6.4746029645807806 L23.438410200447198,-6.537543237217244 L23.380929342070218,-6.666732445305373 L23.33054747886784,-6.79957655364076 L23.287617244784872,-6.9351457565554755 L23.252439118144938,-7.07249117483428 L23.237836207994597,-7.141529856977968 L23.22525931853539,-7.210651497132768 L23.214730466519356,-7.279735092882582 L23.206268083461282,-7.348659708410787 L23.19988698337301,-7.417304686207108 L23.195598336830443,-7.485549858287284 L23.193409651418655,-7.553275756555792 L23.193324758589302,-7.6203638219433705 L23.195343806953403,-7.686696611953214 L23.199463262021187,-7.752158006252532 L23.20567591238946,-7.816633409949578 L23.213970882365707,-7.880009954200256 L23.224333651006756,-7.942176693793181 L23.23674607753874,-8.003024801367276 L23.251186433113844,-8.06244775792191 L23.267629438848203,-8.120341539286091 L23.286046310074425,-8.176604798220279 L23.306404806731212,-8.231139041832046 L23.328669289801926,-8.283848803994974 L23.352800783703255,-8.334641812469009 L23.378757044514774,-8.383429150429658 L23.40649263392999,-8.430125412123314 L23.435958998799357,-8.474648852376177 L23.467104556126078,-8.516921529695088 L23.499874783365858,-8.556869442709722 L23.534212313872544,-8.594422659717333 L23.570057037322588,-8.629515441103234 L23.607346204942495,-8.662086354422746 L23.646014539355075,-8.692078381943109 L23.685994348852205,-8.719439020457143 L23.727215645894045,-8.744120373193903 L23.769606269627275,-8.766079233665417 L23.813092012207864,-8.785277161302774 L23.857596748707252,-8.8016805487491 " />
			<path d="M23.857596748707262,-8.801680548749104 L23.920777222225556,-8.81973205304449 L23.98555073086046,-8.832307364872102 L24.051699768266396,-8.839364256935967 L24.119002209137918,-8.840879032529884 L24.18723205509589,-8.836846605109816 L24.256160193579223,-8.827280515374278 L24.325555167193908,-8.812212885795306 L24.395183950935888,-8.791694312752739 " />
			<path d="M27.22361107568208,-4.643334529791661 L24.395183950935888,-5.586143571373724 " />
			<path d="M-14.884597743976817,1.8706018459471947 L-10.884597743977093,3.203935179280436 " />
			<path d="M14.884597743976826,-39.89260757194105 L-5.106423150858461,-33.228933940329284 " />
			<path d="M-12.884597743910486,-35.82165880467996 L-5.106423150858464,-33.22893394032929 " />
			<path d="M-5.106423150858464,-33.228933940329284 L-7.1064231509240905,-29.895600606969538 " />
			<path d="M-14.884597743976821,-32.48832547132093 L-7.1064231509248,-29.895600606970255 " />
			<path d="M-7.1064231509248,-29.895600606970252 L-7.106423150924803,1.9445436482630107 " />
			<path d="M24.748737341529164,-37.1938166904124 L24.8066169790323,-37.17266448233677 L24.86436235194422,-37.14784335032618 L24.921839507130063,-37.11941087247347 L24.978915113645158,-37.0874330041851 L25.03545677202559,-37.05198392518295 L25.09133332141797,-37.01314586742816 L25.146415143835966,-36.97100892436589 L25.200574464837835,-36.925670841933744 L25.253685649927434,-36.87723679181846 L25.30562549599115,-36.82581912748699 L25.356273517094728,-36.77153712355784 L25.40551222397695,-36.71451669911729 L25.45322739659193,-36.65489012562224 L25.499308349067714,-36.592795720067436 L25.543648186466566,-36.528377524128636 L25.586144052751376,-36.46178497002617 L25.626697369382935,-36.39317253388396 L25.66521406399461,-36.32269937738801 L25.701604788613952,-36.250528978575794 L25.735785126925034,-36.17682875261285 L25.76767579009074,-36.10176966343638 L25.79720280068068,-36.02552582716666 L25.82429766427822,-35.948274108206284 L25.848897528368344,-35.87019370896416 L25.87094532813796,-35.79146575415596 L25.890389918850317,-35.71227287064538 L25.907186194486517,-35.632798763800835 L25.921295192378864,-35.553227791350345 L25.93268418359338,-35.47374453572304 L25.94132674885179,-35.39453337586955 L25.947202839816864,-35.315778059554304 L25.950298825598956,-35.23766127711207 " />
			<path d="M23.1936224668661,-37.71218831530009 L24.748737341529164,-37.1938166904124 " />
			<path d="M24.748737341529164,-7.023927359786369 L24.8066169790323,-7.002775151710745 L24.86436235194422,-6.9779540197001495 L24.921839507130063,-6.949521541847444 L24.978915113645158,-6.917543673559068 L25.03545677202559,-6.882094594556921 L25.09133332141797,-6.843256536802129 L25.146415143835966,-6.801119593739863 L25.200574464837835,-6.755781511307717 L25.253685649927434,-6.707347461192431 L25.30562549599115,-6.655929796860962 L25.356273517094728,-6.601647792931816 L25.40551222397695,-6.54462736849126 L25.45322739659193,-6.485000794996212 L25.499308349067714,-6.4229063894414065 L25.543648186466566,-6.358488193502605 L25.586144052751376,-6.291895639400148 L25.626697369382935,-6.223283203257937 L25.665214063994608,-6.152810046761987 L25.70160478861395,-6.0806396479497655 L25.735785126925034,-6.006939421986819 L25.767675790090735,-5.931880332810348 L25.79720280068068,-5.85563649654063 L25.82429766427822,-5.77838477758026 L25.848897528368344,-5.700304378338135 L25.87094532813796,-5.62157642352993 L25.890389918850317,-5.542383540019349 L25.907186194486517,-5.462909433174811 L25.921295192378864,-5.383338460724317 L25.93268418359338,-5.3038552050970145 L25.94132674885179,-5.224644045243526 L25.947202839816864,-5.145888728928281 L25.950298825598956,-5.067771946486044 " />
			<path d="M23.193622466866096,-7.542298984674058 L24.748737341529164,-7.023927359786369 " />
			<path d="M-1.767766952966367,-29.109229158846208 L-1.7706240843387357,-28.98847676559972 L-1.7791839339481434,-28.86630752949293 L-1.793411914918163,-28.743215086800447 L-1.8132505377551613,-28.619696804099824 L-1.8386196426399994,-28.49625176861516 L-1.86941672332131,-28.373378771608298 L-1.905517341301637,-28.251574292965877 L-1.9467756286428728,-28.13133049512571 L-1.9930248773593653,-28.01313323444823 L-2.044078213017193,-27.897460098068212 L-2.099729349817869,-27.784778474159108 L-2.1597534241154888,-27.675543663407215 L-2.223907902999415,-27.570197039326487 L-2.291933564271284,-27.469164264847393 L-2.363555543856649,-27.372853572385857 L-2.438484446419092,-27.281654114341844 L-2.516417514689267,-27.195934390692514 L-2.597039852784085,-27.116040760033467 L-2.680025698573111,-27.042296040084295 L-2.7650397399510522,-26.974998203313252 L-2.8517384696978185,-26.914419172951522 L-2.939771573451711,-26.86080372426185 L-3.028783345187509,-26.814368495501107 L-3.118414124480078,-26.775301112573047 L-3.208301749746105,-26.74375943090824 L-3.2980830215919936,-26.719870897634365 L-3.3873951703551315,-26.703732036614106 L-3.475877321908788,-26.695408058431447 L-3.5631719558079276,-26.694932596902152 L-3.648926349884146,-26.7023075731732 L-3.691117394565032,-26.708930899869184 L-3.73279400545273,-26.717503187960187 L-3.7739140723448537,-26.728015775974498 L-3.814436047373126,-26.740458041954142 " />
			<path d="M-3.8144360473731376,-26.74045804195415 L-3.8757404711313264,-26.76343225116226 L-3.935373566389818,-26.790922035807785 L-3.9931916717988907,-26.822861170591683 L-4.049055498478348,-26.859172711340726 L-4.102830465576624,-26.899769180372733 L-4.15438702448785,-26.944552777237977 L-4.203600970945787,-26.993415614329024 L-4.2503537442427834,-27.04623997679145 L-4.294532712852909,-27.10289860610921 L-4.336031445771162,-27.16325500668157 L-4.374749968915083,-27.227163774652958 L-4.410595005971073,-27.29447094820358 L-4.443480203105214,-27.365014378456937 L-4.473326336997204,-27.438624120110678 L-4.500061505696284,-27.51512284084971 L-4.523621301839336,-27.594326248555273 L-4.543948967813855,-27.676043535280805 L-4.560995532492017,-27.760077836924996 L-4.574719929206408,-27.846226707494647 L-4.585089094683228,-27.93428260681481 L-4.592078048694614,-28.024033400511236 L-4.595669954238189,-28.11526287106067 L-4.595856158098886,-28.207751238677794 L-4.592636211695297,-28.301275690784 L-4.58601787216034,-28.39561091878239 L-4.576017083653654,-28.490529660845922 L-4.562657938950716,-28.585803249411068 L-4.54597262140124,-28.681202162057996 L-4.526001327396662,-28.776496574450178 L-4.502792169533519,-28.871456914001353 L-4.476401060705985,-28.965854412936007 L-4.446891579406814,-29.05946165941096 L-4.414334816561181,-29.152053145370424 L-4.378809204262415,-29.243405809814664 L-4.340400326822223,-29.333299576173495 L-4.299200714590577,-29.421517882489987 L-4.255309621042002,-29.50784820313721 L-4.208832783665264,-29.592082560811093 L-4.159882169232493,-29.674018027565932 L-4.108575704061425,-29.753457213685618 L-4.0550369899205725,-29.830208743212737 L-3.999395006261739,-29.904087714990016 L-3.9417837994972205,-29.974916148103418 L-3.882342160070258,-30.042523410653725 L-3.821213288096704,-30.106746630823764 L-3.7585444483833985,-30.16743108925085 L-3.6944866156543545,-30.224430591759308 L-3.6291941108394203,-30.27760782155502 L-3.5628242293016417,-30.32683467003364 L-3.495536861898958,-30.371992545405416 L-3.4274941097931206,-30.412972658393215 L-3.3588598939337935,-30.44967628431542 L-3.2897995601586287,-30.48201500092232 L-3.2204794808606616,-30.50991090141308 L-3.1510666541826433,-30.533296782120015 L-3.081728301703885,-30.55211630440815 L-3.0126314655888318,-30.566324130399888 L-2.9439426061678535,-30.575886032197968 L-2.875827200919728,-30.580778974343424 L-2.8084493458219026,-30.580991169310067 L-2.741971360028912,-30.576522105901624 L-2.6765533948313136,-30.567382550483302 L-2.612353047837207,-30.553594521044623 L-2.5495249833057922,-30.535191234156205 " />
			<path d="M-2.5495249833057865,-30.5351912341562 L-2.506148320733823,-30.519470671949552 L-2.4635805817871343,-30.5014979117219 L-2.421872717056685,-30.481294465603728 L-2.3810746479244544,-30.458884515699726 L-2.3412352068110485,-30.434294885144485 L-2.302402078726729,-30.407555005997107 L-2.264621744195805,-30.378696884013085 L-2.2279394236227157,-30.347755060335686 L-2.1923990231663835,-30.31476657015261 L-2.1580430821876297,-30.279770898367477 L-2.1249127223325495,-30.242809932339192 L-2.0930475983127925,-30.20392791174569 L-2.062485850441661,-30.16317137563219 L-2.0332640589828355,-30.12058910670718 L-2.005417200366371,-30.076232072952994 L-1.9789786053243712,-30.0301533666207 L-1.9539799189964409,-29.982408140682388 L-1.9304510630526825,-29.933053542816975 L-1.887913698871499,-29.82975438283837 L-1.851570108778086,-29.720750306024147 L-1.8215942435945434,-29.60656303707804 L-1.7981295763893945,-29.487739108944528 L-1.781288415774423,-29.364847246945757 L-1.7711513683635207,-29.23847564669942 L-1.767766952966367,-29.109229158846226 " />
			<path d="M-1.7677669529663698,0.11785113019775773 L-1.7682089637795952,0.1651389192145883 " />
			<path d="M-4.595752066899333,1.1076532869211841 L-4.5950990352074115,0.9861056248819526 L-4.58859500791665,0.8629148116009803 L-4.576266914852482,0.7385909167547948 L-4.558165800295516,0.6136487015267988 L-4.534366611633471,0.4886054872464705 L-4.504967889042677,0.36397901342831773 L-4.470091357483971,0.2402852940793445 L-4.429881422702364,0.11803648115095416 L-4.384504573317268,-0.002261256018364799 L-4.334148691478912,-0.12010982648943591 L-4.279022274945178,-0.23502128006030487 L-4.219353573799821,-0.3465198276165795 L-4.155389645386498,-0.4541438111289746 L-4.087395331371614,-0.557447615141315 L-4.01565216117146,-0.6560035118345102 L-3.9404571862839717,-0.749403432027042 L-3.862121750351551,-0.8372606547791626 L-3.780970200047481,-0.9192114086050247 L-3.6973385421234903,-0.9949163776629537 L-3.61157305217894,-1.064062106687492 L-3.524028840912009,-1.1263622988461284 L-3.435068383789279,-1.1815590011469501 L-3.345060020221619,-1.229423672489058 L-3.2543764284604917,-1.2697581299334937 L-3.1633930825293572,-1.302395369276668 L-3.0724866975792278,-1.3272002565287067 L-2.982033670105352,-1.3440700874336664 L-2.8924085194832894,-1.3529350127149373 L-2.8480225401430856,-1.3543528656146986 L-2.803982337277166,-1.3537583272851001 L-2.7603335096350885,-1.3511520133046955 L-2.717121250740738,-1.346536622222781 L-2.674390302099442,-1.3399169327653475 L-2.6321849068731,-1.3312997988872377 L-2.5905487640712894,-1.3206941426756362 L-2.549524983305795,-1.3081109451122397 " />
			<path d="M-2.549524983305789,-1.3081109451122377 L-2.5061483207338258,-1.2923903829055865 L-2.463580581787137,-1.2744176226779318 L-2.421872717056688,-1.2542141765597632 L-2.381074647924457,-1.2318042266557616 L-2.341235206811051,-1.207214596100521 L-2.3024020787267316,-1.1804747169531409 L-2.2646217441958076,-1.1516165949691208 L-2.2279394236227184,-1.1206747712917213 L-2.192399023166386,-1.0876862811086434 L-2.1580430821876324,-1.0526906093235127 L-2.124912722332552,-1.015729643295226 L-2.093047598312795,-0.9768476227017271 L-2.062485850441664,-0.9360910865882222 L-2.033264058982838,-0.8935088176632142 L-2.0054172003663737,-0.8491517839090303 L-1.9789786053243739,-0.8030730775767327 L-1.9539799189964435,-0.7553278516384221 L-1.9304510630526852,-0.7059732537730092 L-1.8879136988715017,-0.6026740937944037 L-1.8515701087780887,-0.49367001698018154 L-1.821594243594546,-0.3794827480340762 L-1.7981295763893972,-0.26065881990056283 L-1.7812884157744258,-0.13776695790179228 L-1.7711513683635234,-0.011395357655455518 L-1.7677669529663698,0.1178511301977409 " />
			<path d="M14.884597743976826,-15.830370564454741 L14.802509474097985,-15.565158549718166 L14.71594416186797,-15.3012929686703 L14.624956980705406,-15.038941999138828 L14.52960592235903,-14.778272853596023 L14.429951759945972,-14.519451672583877 L14.326058009217277,-14.26264341882247 L14.217990888075414,-14.008011772069064 L14.105819274369502,-13.75571902479487 L13.989614661995219,-13.505925978746038 L13.86945111532731,-13.258791842454787 L13.74540522201381,-13.01447412976597 L13.61755604416198,-12.773128559443746 L13.48598506794717,-12.534908955922454 L13.350776151676634,-12.299967151264765 L13.212015472341449,-12.06845288838972 L13.069791470690607,-11.840513725632364 L12.92419479486227,-11.616294942695681 L12.775318242608098,-11.395939448054866 L12.623256702147515,-11.179587687872942 L12.468107091689605,-10.967377556485744 L12.309968297661127,-10.759444308513338 L12.148941111680113,-10.555920472653906 L11.985128166315135,-10.356935767215035 L11.81863386967122,-10.16261701743619 L11.649564338844145,-9.973088074655209 L11.478027332285446,-9.788469737370171 L11.304132181121279,-9.608879674247046 L11.127989719468994,-9.434432349122208 L10.949712213795664,-9.265238948047557 L10.769413291363755,-9.101407308424783 L10.587207867809443,-8.943041850273922 L10.403212073899802,-8.790243509680044 L10.217543181515468,-8.64310967446045 L10.030319528906055,-8.50173412209339 L9.841660445265868,-8.366206959947906 L9.651686174678039,-8.236614567852826 L9.46051779947555,-8.113039543041568 L9.26827716306799,-7.995560647507833 L9.075086792283226,-7.884252757805715 L8.881069819273472,-7.77918681732624 L8.686349903035593,-7.680429791080783 L8.491051150595581,-7.588044623020124 L8.295298037907465,-7.502090195916365 L8.09921533051713,-7.422621293833329 L7.9029280040415095,-7.349688567209281 L7.7065611645139205,-7.283338500574271 L7.510239968646251,-7.223613382922684 L7.314089544058871,-7.170551280759845 L7.118234909529065,-7.124186013839887 L6.922800895308853,-7.0845471336103305 L6.727912063562958,-7.051659904377132 L6.533692628977649,-7.025545287202169 L6.3402663795910525,-7.006219926543462 L6.147756597895389,-6.993696139646644 L5.956285982261438,-6.98798190869441 L5.765976568735262,-6.989080875718981 L5.576949653257142,-6.996992340280817 L5.389325714352157,-7.011711259915041 L5.203224336341774,-7.033228253345319 L5.018764133125403,-7.061529606463136 L4.836062672580415,-7.0965972810686235 L4.655236401628878,-7.138408926367429 L4.476400572018747,-7.186937893216264 L4.2996691668668685,-7.242153251108016 " />
			<path d="M4.299669166866805,-7.2421532511080375 L4.12998323450192,-7.302207431228062 L3.9624948361967647,-7.368511401752668 L3.7973048606996835,-7.441025223649278 L3.634512812275064,-7.519705217303043 L3.4742167507656916,-7.604503988827828 L3.3165132325251614,-7.695370458614487 L3.1614972522559492,-7.792249892099347 L3.009262185788148,-7.895083932734224 L2.8598997338333625,-8.003810637138256 L2.713499866747627,-8.118364512410263 L2.5701507703366318,-8.238676555579225 L2.4299387927358866,-8.364674295169094 L2.292948392397834,-8.496281834852903 L2.159262087217237,-8.633419899169867 L2.028960404825483,-8.776005881277962 L1.9021218340837525,-8.923953892713204 L1.7788227778042591,-9.077174815125632 L1.659137506728058,-9.235576353960889 L1.5431381147871246,-9.399063094054993 L1.4308944756776665,-9.567536557108872 L1.3224742007708237,-9.740895261008015 L1.2179425983861067,-9.919034780951492 L1.1173626344521024,-10.101847812353554 L1.0207948945781569,-10.289224235479903 L0.9282975475598683,-10.481051181779705 L0.8399263103403865,-10.677213101873377 L0.7557344144485958,-10.877591835155227 L0.6757725739344433,-11.082066680968964 L0.6000889548206914,-11.29051447131328 L0.5287291460895007,-11.502809645033636 L0.4617361322213336,-11.718824323455609 L0.3991502673027165,-11.938428387414229 L0.34100925071843946,-12.16148955563289 L0.28734810444285763,-12.387873464404656 L0.23819915194397456,-12.617443748527915 L0.19359199871297061,-12.850062123447703 L0.1535535144309872,-13.085588468553127 L0.11810781678381943,-13.323880911580792 L0.08727625693432906,-13.56479591407335 L0.06107740666130468,-13.808188357841688 L0.03952704717251354,-14.053911632378714 L0.022638159598688645,-14.301817723172027 L0.01042091717419158,-14.551757300862338 L0.0028826791090237336,-14.803579811193895 L2.798615592602971e-05,-15.057133565702722 L0.0018585578751864062,-15.31226583308809 L0.008373291598851473,-15.568822931212132 L0.01956826309492854,-15.826650319672225 L0.035436728931195205,-16.085592692890355 L0.05596913053719099,-16.345494073663367 L0.08115309996194675,-16.606197907117828 L0.11097346732396662,-16.867547155012804 L0.14541226994901013,-17.12938439033384 L0.18444876319012327,-17.39155189212111 L0.2280594329234491,-17.653891740474606 L0.2762180097122444,-17.916245911679205 L0.328895484630622,-18.17845637339222 L0.38606012673742285,-18.4403651798362 L0.4476775021897694,-18.70181456693954 L0.5137104949847098,-18.96264704736768 L0.5841193293165174,-19.22270550538755 L0.6588615935361473,-19.481833291508273 L0.7378922656984255,-19.739874316840883 L0.8211637406815884,-19.9966731471205 L0.9086258588628287,-20.252075096334092 L1.0002259363325727,-20.505926319897547 L1.0959087966293,-20.7580739073259 L1.1956168039757786,-21.008365974340887 L1.2992898979967098,-21.25665175436036 L1.4068656298968376,-21.50278168931444 L1.5182792000777834,-21.746607519733704 L1.633463497170892,-21.987982374055143 L1.7523491384626135,-22.2267608570921 L1.8748645116880516,-22.462799137614894 L2.0009358181675223,-22.695955034989375 L2.1304871172601096,-22.926088104821233 L2.2634403721074783,-23.153059723554424 L2.3997154966403507,-23.376733171972845 L2.5392304038193636,-23.596973717554853 L2.6819010550812266,-23.813648695631116 L2.827641510960423,-24.02662758929684 L2.976363982855916,-24.23578210803027 L3.127978885911727,-24.44098626497012 L3.2823948929795,-24.642116452805325 L3.4395189896305682,-24.839051518231468 L3.5992565301843555,-25.03167283492902 L3.7615112947194014,-25.219864375019377 L3.9261855470326483,-25.40351277895572 L4.0931800935120695,-25.582507423806575 L4.2623943428871955,-25.756740489890923 L4.43372636682153,-25.926107025724757 L4.607072961310374,-26.09050501123991 L4.782329708847051,-26.249835419237137 L4.9593910413201145,-26.404002275036415 L5.138150303603636,-26.552912714288478 L5.318499817802255,-26.69647703891284 L5.50033094811232,-26.834608771128565 L5.683534166260037,-26.96722470554524 L5.867999117477202,-27.09424495928281 L6.053614686974797,-27.21559302009002 L6.2402690668743634,-27.331195792432517 L6.427849823556905,-27.44098364152292 L6.616243965388694,-27.54489043526617 L6.805338010783204,-27.64285358409504 L6.99501805655817,-27.73481407867175 L7.185169846546609,-27.820716525432992 L7.375678840420468,-27.900509179956945 L7.5664302826854275,-27.974143978132155 L7.7573092718053225,-28.041576565109587 L7.948200829414531,-28.102766322020308 L8.138989969576645,-28.157676390442788 L8.3295617680477,-28.206273694605038 L8.519801431502232,-28.248528961308196 L8.709594366680491,-28.284416737559617 L8.898826249415146,-28.31391540590483 L9.087383093495873,-28.337007197449047 L9.27515131933039,-28.353678202560495 L9.462017822360563,-28.363918379249068 L9.647870041192355,-28.367721559215234 L9.832596025398601,-28.365085451565584 L10.01608450295377,-28.356011644192805 L10.198224947260051,-28.340505602819167 L10.378907643724473,-28.31857666770418 L10.558023755846843,-28.29023804801838 L10.735465390778803,-28.25550681388662 L10.911125664314431,-28.214403886105657 L11.08489876527332,-28.16695402354225 L11.25668001923721,-28.11318580821935 " />
			<path d="M11.25668001923724,-28.11318580821934 L11.405546349484958,-28.060880059080787 L11.552733586790715,-28.003767971721203 L11.698173598890188,-27.941875983051176 L11.841799062301202,-27.875232742574624 L11.983543493487442,-27.80386909912707 L12.123341279633358,-27.72781808659588 L12.26112770901604,-27.64711490862902 L12.396839000959941,-27.561796922339475 L12.530412335360658,-27.471903621012796 L12.661785881764054,-27.37747661582587 L12.790898827987274,-27.278559616585305 L12.91769140826842,-27.175198411494343 L13.042104930931828,-27.067440845957762 L13.16408180555616,-26.95533680043444 L13.283565569632744,-26.83893816734794 L13.40050091470179,-26.71829882706576 L13.51483371195441,-26.593474622958347 L13.626511037288578,-26.46452333554951 L13.735481195807463,-26.33150465577006 L13.84169374574872,-26.194480157327177 L13.945099521833765,-26.053513268202238 L14.045650658026123,-25.9086692412903 L14.143300609688403,-25.760015124194872 L14.238004175127585,-25.607619728191878 L14.329717516518654,-25.451553596377252 L14.418398180196935,-25.29188897101288 L14.50400511630967,-25.12869976008603 L14.586498697817829,-24.962061503097644 L14.665840738839238,-24.79205133609552 L14.741994512324666,-24.618747955968384 L14.814924767058592,-24.442231584017478 L14.884597743976812,-24.262583928822544 " />
			<path d="M10.141104559028904,-12.981346407818538 L10.108692979726897,-13.085780497505585 L10.078548734606187,-13.192059265805849 L10.050692370923624,-13.30011026979893 L10.025142876444766,-13.409859858553364 L10.00191766650124,-13.521233223329375 L9.981032572119904,-13.634154448570849 L9.962501829231915,-13.748546563651745 L9.946338068969098,-13.864331595341671 L9.932552309054147,-13.981430620954866 L9.921153946290623,-14.099763822146366 L9.912150750157787,-14.219250539318672 L9.905548857514686,-14.339809326601845 L9.901352768417077,-14.461358007369546 L9.899565343050053,-14.583813730253198 L9.90018779977844,-14.707093025616047 L9.90321971431634,-14.83111186244867 L9.908659020016316,-14.955785705647138 L9.916502009278103,-15.081029573634769 L9.926743336075814,-15.206758096288219 L9.939376019601955,-15.332885573128422 L9.954391449025769,-15.459326031736706 L9.971779389362641,-15.585993286356278 L9.991527988450583,-15.712800996639103 L10.01362378502904,-15.839662726498203 L10.038051717914504,-15.966492003025166 L10.064795136266682,-16.093202375432785 L10.093835810938229,-16.219707473982602 L10.125153946900308,-16.345921068857223 L10.158728196735495,-16.471757128937234 L10.19453567518884,-16.597129880442722 L10.232551974767176,-16.72195386539931 L10.272751182376027,-16.84614399988902 L10.315105896982772,-16.9696156320461 L10.359587248294057,-17.092284599758372 L10.40616491643467,-17.214067288034766 L10.454807152614531,-17.33488068599989 L10.50548080076964,-17.454642443476835 L10.558151320162292,-17.573270927119616 L10.612782808925122,-17.690685276057017 L10.669338028532929,-17.806805457009865 L10.727778429185623,-17.92155231884422 L10.788064176084964,-18.034847646523247 L10.850154176587209,-18.146614214421025 L10.91400610821313,-18.256775838961943 L10.979576447496338,-18.36525743054979 L11.04682049965024,-18.471985044751175 L11.115692429033388,-18.576885932698353 L11.186145290392487,-18.679888590677113 L11.258131060861743,-18.78092280886595 L11.33160067269674,-18.87991971919326 L11.406504046720553,-18.976811842279968 L11.48279012645926,-19.071533133435565 L11.560406912943645,-19.16401902767624 L11.639301500153296,-19.254206483734382 L11.719420111079016,-19.34203402702947 L11.800708134378892,-19.427441791571056 L11.883110161603103,-19.510371560765307 L11.966570024962031,-19.59076680709723 L12.051030835611986,-19.668572730661605 L12.136435022432412,-19.7437362965163 L12.222724371268157,-19.81620627083253 L12.30984006461006,-19.885933255817463 L12.397722721686785,-19.952869723385245 L12.486312438940605,-20.016970047553666 " />
			<path d="M5.024790079638907,-7.060493385469208 L4.875160000407467,-7.1404562364305395 L4.727804276815651,-7.22572184835955 L4.582800537218724,-7.316245302544878 L4.440225170925078,-7.411978910395341 L4.30015328795363,-7.512872238562711 L4.162658679465177,-7.618872135510472 L4.027813778888532,-7.729922759514547 L3.8956896237619256,-7.845965608081222 L3.766355818309769,-7.966939548766815 L3.63988049677451,-8.092780851382791 L3.516330287522889,-8.223423221569432 L3.395770277945495,-8.358797835720305 L3.2782639801681306,-8.498833377239185 L3.1638732975930335,-8.643456074110288 L3.0526584922875992,-8.792589737762045 L2.9446781532377635,-8.946155803203958 L2.839989165482784,-9.104073370415358 L2.7386466801476814,-9.266259246964275 L2.6407040853891086,-9.432627991833977 L2.546212978269983,-9.603091960434105 L2.455223137577679,-9.777561350772638 L2.3677824976001034,-9.955944250764414 L2.283937122873458,-10.138146686651254 L2.2037311839150373,-10.324072672508226 L2.127206933953774,-10.513624260809909 L2.0544046866708605,-10.706701594030038 L1.9853627949621222,-10.903202957247391 L1.9201176307333618,-11.103024831730139 L1.8587035657392974,-11.306061949470468 L1.8011529534762172,-11.512207348640747 L1.7474961121378447,-11.721352429941986 L1.6977613086434458,-11.933387013814968 L1.6519747437465462,-12.148199398483857 L1.6101605382321411,-12.365676418801716 L1.5723407202096347,-12.58570350586694 L1.5385352135082355,-12.808164747379246 L1.5087618271808942,-13.032942948703308 L1.4830362461223316,-13.25991969460799 L1.4613720228060982,-13.488975411648578 L1.4437805701449902,-13.719989431159174 L1.430271155478641,-13.95284005282207 L1.4208508956913848,-14.187404608780579 L1.4155247534630266,-14.42355952826162 L1.4142955346544515,-14.661180402673926 L1.4171638868294734,-14.900142051147641 L1.4241282989136916,-15.140318586480758 L1.435185101990541,-15.38158348145766 L1.4503284712341058,-15.623809635504818 L1.4695504289776977,-15.866869441648564 L1.4928408489165612,-16.110634853739604 L1.5201874614425037,-16.35497745390892 L1.551575860107639,-16.599768520219484 L1.5869895092138409,-16.844879094478173 L1.6264097525238945,-17.090180050172116 L1.6698158230897802,-17.335542160493752 L1.7171848541928894,-17.5808361664187 L1.7684918913904273,-17.825932844800604 L1.8237099056616382,-18.070703076447067 L1.8828098076469484,-18.315017914140864 L1.9457604629725065,-18.558748650570493 L2.0125287086520585,-18.801766886134395 L2.083079370557517,-19.04394459658304 L2.1573752819490153,-19.28515420046329 L2.235377303054686,-19.525268626329478 L2.317044341689863,-19.764161379685834 L2.402333374904816,-20.001706609624932 L2.4911994716496375,-20.237779175127123 L2.583595816444337,-20.472254710985975 L2.679473734041668,-20.705009693325014 L2.7787827150696964,-20.935921504671235 L2.881470442640608,-21.164868498551133 L2.987482819911719,-21.391730063575178 L3.0967639985842013,-21.616386686977005 L3.2092564083244763,-21.838720017573845 L3.3249007870927976,-22.05861292811503 L3.4436362123630495,-22.2759495769857 L3.5654001332172793,-22.490615469233234 L3.6901284032981145,-22.70249751688425 L3.8177553146016487,-22.911484098520397 L3.9482136320930223,-23.11746511808155 L4.081434629126468,-23.32033206286542 L4.217348123651128,-23.519978060693045 L4.355882515183621,-23.71629793621007 L4.496964822527833,-23.909188266294056 L4.640520722222078,-24.098547434538755 L4.78647458769339,-24.28427568478657 L4.934749529098303,-24.466275173681026 L5.085267433829119,-24.644450022211533 L5.237949007664364,-24.818706366223346 L5.392713816541706,-24.988952405866076 L5.549480328931366,-25.155098453954686 L5.708165958787674,-25.31705698321753 L5.868687109056175,-25.474742672406528 L6.030959215713317,-25.628072451245206 L6.194896792315555,-25.77696554419085 L6.360413475034408,-25.921343512987818 L6.527422068153719,-26.06113029798957 L6.695834590005161,-26.19625225822754 L6.865562319317792,-26.32663821020591 L7.036515841957239,-26.452219465401733 L7.208605098029894,-26.57292986645067 L7.381739429327297,-26.688705821999314 L7.555827627085707,-26.799486340205668 L7.730777980035725,-26.905213060870253 L7.906498322716647,-27.00583028618078 L8.082896084030068,-27.10128501005427 L8.259878336007194,-27.19152694606114 L8.437351842764159,-27.276508553916585 L8.615223109619537,-27.356185064525214 L8.79339843234822,-27.43051450356583 L8.971783946545651,-27.4994577136039 L9.15028567707647,-27.56297837472003 L9.328809587581485,-27.621043023643658 L9.507261630016888,-27.673621071381806 L9.685547794199627,-27.720684819333627 L9.863574157332849,-27.762209473882315 L10.041246933485288,-27.798173159456574 L10.218472522998571,-27.828556930054916 L10.395157561796362,-27.85334477922654 L10.571208970569444,-27.87252364850372 L10.746534003810737,-27.886083434281097 L10.921040298674496,-27.894016993138365 L11.094635923633916,-27.896320145603504 L11.267229426911493,-27.892991678354527 L11.438729884656686,-27.88403334485871 L11.609046948845425,-27.869449864448818 L11.778090894876284,-27.849248919836935 L11.945772668838204,-27.823441153067144 " />
			<path d="M12.727922061357855,-18.384776310850235 L12.726135903064883,-18.23435521237158 L12.720779232926933,-18.08289532773402 L12.711857463343406,-17.93054969256736 L12.699379608903413,-17.777472237467038 L12.683358277277414,-17.62381763246206 L12.663809656478364,-17.469741130735837 L12.640753498505308,-17.3153984117578 L12.614213099385868,-17.16094542398428 L12.584215275637858,-17.006538227287603 L12.550790337173774,-16.85233283527262 L12.513972056675547,-16.69848505763999 L12.473797635470497,-16.545150342755463 L12.43030766594298,-16.392483620584294 L12.38354609051968,-16.24063914614941 L12.333560157270034,-16.089770343671578 L12.28040037216659,-15.940029651548995 L12.224120448053602,-15.791568368332968 L12.164777250375359,-15.644536499855292 L12.102430739719136,-15.499082607661807 L12.03714391123079,-15.355353658905251 L11.968982730964237,-15.213494877849111 L11.8980160692291,-15.073649599132489 L11.824315631003893,-14.935959122944242 L11.747955883485051,-14.800562572252757 L11.669013980844987,-14.667596752235575 L11.587569686275234,-14.537196012050938 L11.503705291393436,-14.409492109090909 L11.41750553309556,-14.284614075853199 L11.329057507937458,-14.162688089566267 L11.23845058413215,-14.043837344699364 L11.145776311251872,-13.928181928486394 L11.051128327726042,-13.815838699589328 L10.95460226622864,-13.70692117002377 L10.856295657050605,-13.601539390466005 L10.75630782955486,-13.499799839057378 L10.654739811813561,-13.40180531381839 L10.551694228528953,-13.307654828781194 L10.447275197340995,-13.217443513945454 L10.341588223626506,-13.131262519158629 L10.234740093896141,-13.049198922017844 L10.126838767896906,-12.971335639886352 L10.017993269529226,-12.89775134611352 L9.908313576688794,-12.828520390542998 L9.797910510144495,-12.763712724389343 L9.686895621564691,-12.703393829559072 L9.575381080805,-12.647624652487483 L9.463479562571457,-12.596461542558158 L9.351304132573578,-12.54995619516734 L9.238968133282334,-12.508155599490703 L9.126585069408511,-12.471101991005323 L9.014268493217124,-12.4388328088148 L8.902131889793788,-12.41138065782063 L8.790288562378963,-12.388773275778103 L8.678851517885944,-12.371033505269981 L8.56793335271825,-12.358179270626254 L8.4576461390018,-12.35022355981333 L8.348101311346836,-12.347174411310956 L8.239409554253953,-12.349034905990099 L8.131680690278092,-12.35580316400003 L8.025023569063407,-12.36747234666772 L7.919545957361192,-12.384030663407676 L7.815354430141948,-12.405461383635185 L7.712554262911639,-12.431742853670958 L7.611249325340958,-12.462848518620078 " />
			<path d="M7.611249325340928,-12.462848518620087 L7.534119356084163,-12.490145873220097 L7.457988265945456,-12.520284041640373 L7.382901913446783,-12.553244869775195 L7.308905527799228,-12.589008503254181 L7.236043681658604,-12.627553399401808 L7.164360264276546,-12.668856340213928 L7.093898455063266,-12.712892446343409 L7.024700697577902,-12.759635192086535 L6.95680867396209,-12.809056421361095 L6.890263279832212,-12.861126364666552 L6.825104599645396,-12.91581365701608 L6.761371882554148,-12.973085356829657 L6.699103518764123,-13.032906965776842 L6.638337016409307,-13.09524244955728 L6.5791089789585095,-13.160054259606415 L6.521455083166813,-13.227303355713342 L6.465410057585226,-13.296949229537175 L6.411007661641499,-13.368949929007746 L6.35828066530471,-13.443262083595975 L6.307260829345865,-13.519840930438647 L6.257978886206391,-13.598640341301895 L6.210464521486066,-13.67961285036711 L6.164746356061518,-13.762709682822594 L6.120851928846088,-13.84788078424366 L6.078807680201412,-13.935074850743572 L6.038638936010738,-14.024239359877058 L6.00036989242356,-14.1153206022779 L5.964023601280765,-14.208263714011416 L5.929621956229059,-14.303012709622468 L5.897185679533063,-14.399510515858994 L5.866734309592987,-14.4976990060508 L5.838286189175434,-14.5975190351229 L5.811858454364398,-14.698910475222291 L5.787467024239135,-14.801812251936731 L5.765126591285096,-14.906162381083668 L5.744850612543731,-15.011898006047206 L5.7266513015064655,-15.118955435640581 L5.710539620757753,-15.227270182471337 L5.696525275371622,-15.336777001786137 L5.6846167070657,-15.447409930771745 L5.67482108911625,-15.559102328288574 L5.667144322037239,-15.671786915012808 L5.661591030026104,-15.78539581396295 L5.658164558178301,-15.899860591386386 L5.656866970472346,-16.015112297981307 L5.657699048526555,-16.1310815104292 L5.660660291128222,-16.247698373212856 L5.66574891453553,-16.364892640694716 L5.672961853552014,-16.48259371943023 L5.682294763372922,-16.60073071069069 L5.693742022202356,-16.71923245316999 L5.7072967346396375,-16.838027565849526 L5.722950735832839,-16.95704449099545 L5.740694596396981,-17.07621153726239 L5.760517628093948,-17.195456922877618 L5.782407890270673,-17.314708818879705 L5.806352197051753,-17.433895392385622 L5.832336125282118,-17.55294484986016 L5.860344023215002,-17.671785480361677 L5.890359019939975,-17.790345698738104 L5.922363035545342,-17.908554088747138 L5.95633679200881,-18.026339446074736 L5.992259824809846,-18.143630821225926 L6.0301104952567375,-18.260357562262115 L6.0698660035209375,-18.376449357359203 L6.111502402370822,-18.491836277160772 L6.1549946115966065,-18.606448816900933 L6.200316433117734,-18.720217938271382 L6.247440566763611,-18.833075111007506 L6.296338626718215,-18.94495235416845 L6.346981158618644,-19.055782277086298 L6.39933765729733,-19.16549811995968 L6.453376585157203,-19.274033794067385 L6.509065391168766,-19.381323921577746 L6.5663705304776165,-19.487303874929786 L6.625257484610611,-19.591909815762445 L6.685690782268505,-19.695078733368444 L6.747634020692539,-19.796748482649544 L6.811049887592089,-19.89685782155046 L6.875900183620209,-19.99534644794876 L6.942145845383481,-20.09215503597863 L7.00974696897234,-20.187225271766557 L7.07866283399771,-20.280499888557397 L7.148851928119425,-20.371922701209762 L7.220271972051728,-20.461438640039827 L7.292879945030722,-20.54899378399326 L7.36663211072847,-20.63453539312524 L7.441484043598129,-20.71801194036903 L7.517390655634229,-20.799373142573966 L7.594306223532013,-20.878569990794126 L7.672184416229438,-20.955554779809503 L7.750978322815276,-21.030281136861845 L7.830640480786492,-21.10270404958786 L7.911122904637885,-21.172779893132986 L7.992377114766759,-21.240466456429377 L8.074354166675223,-21.30572296762227 L8.157004680452523,-21.368510118629416 L8.240278870519669,-21.428790088818815 L8.32412657561838,-21.48652656779044 L8.408497289026377,-21.541684777248257 L8.493340188980726,-21.594231491949394 L8.578604169290971,-21.64413505971776 L8.664237870123603,-21.691365420510145 L8.750189708939288,-21.73589412452327 L8.836407911564274,-21.777694349330865 L8.9228405433772,-21.816740916040523 L9.009435540592591,-21.853010304460497 L9.096140741622118,-21.886480667267413 L9.182903918494798,-21.917131843166246 L9.269672808317164,-21.944945369034755 L9.35639514475449,-21.969904491044975 L9.44301868951406,-21.99199417475509 L9.529491263811575,-22.011201114165612 L9.615760779801693,-22.02751373973444 L9.701775271953808,-22.040922225345902 L9.78748292835414,-22.051418494229637 L9.872832121915284,-22.05899622382575 L9.957771441474453,-22.063650849593284 L10.04224972276163,-22.06537956775972 L10.126216079219015,-22.06418133700988 L10.209619932653183,-22.060056879113162 L10.292411043701494,-22.05300867848878 L10.37453954209441,-22.043040980709243 L10.455955956695488,-22.03015978994297 L10.536611245300925,-22.014372865337624 L10.616456824180757,-21.995689716346277 L10.695444597343887,-21.974121596999275 L10.773526985509292,-21.94968149912523 " />
			<path d="M10.773526985509307,-21.949681499125226 L10.881968641939215,-21.910380093608595 L10.988387989305938,-21.865448193039462 L11.09265765113206,-21.81493957774404 L11.194652823962636,-21.758914702984036 L11.29425142674615,-21.697440626595935 L11.391334246956951,-21.630590928727482 L11.48578508328426,-21.558445623767433 L11.577490884716983,-21.481091064573935 L11.666341885857815,-21.39861983911624 L11.752231738304697,-21.31113065965341 L11.835057637942398,-21.218728244582696 L11.91472044799179,-21.121523193098948 L11.991124817669618,-21.019631852815188 L12.064179296316684,-20.913176180502667 L12.133796442857845,-20.802283596117206 L12.199892930462845,-20.68708683028646 L12.26238964628267,-20.567723765440686 L12.321211786142065,-20.444337270777154 L12.376288944074872,-20.31707503125579 L12.427555196595025,-20.18608937083064 L12.474949181602323,-20.051537070128813 L12.518414171828557,-19.913579178795086 L12.55789814273606,-19.77238082272681 L12.593353834787415,-19.628111006429823 L12.624738810011806,-19.48094241073191 L12.652015502800285,-19.331051186096037 L12.675151264869164,-19.178616741780587 L12.694118404337715,-19.023821531099113 L12.708894218873397,-18.86685083303654 L12.71946102286497,-18.70789253048327 L12.72580616859091,-18.547136885352522 L12.727922061357855,-18.384776310850278 " />
			<path d="M27.22361107568208,-38.01877460179671 L24.748737341529164,-37.193816690412405 " />
			<path d="M24.395183950935888,-38.96158364337877 L23.433518728522174,-38.641028569240866 " />
			<path d="M27.22361107568208,-7.848885271170676 L24.748737341529164,-7.023927359786371 " />
			<path d="M24.395183950935888,-8.791694312752739 L23.433518728522184,-8.471139238614837 " />

       </g>
    </g>
    
</svg>
