<?xml version="1.0" encoding="UTF-8" standalone="no"?>
<svg
   xmlns:svg="http://www.w3.org/2000/svg"
   xmlns="http://www.w3.org/2000/svg"
   width="1024.0"
   height="320.0"

>
    <g transform="scale(4.0729350596345135, -4.0729350596345135)   translate(64.3074333779099,-15.870618866631403)" stroke-width="0.30333333333333334"  fill="none">
       <!-- hidden lines -->
       <g  stroke="rgb(32,64,32)" fill="none" stroke-dasharray="0.30333333333333334,0.30333333333333334" >

       </g>

       <!-- solid lines -->
       <g  stroke="rgb(64,192,64)" fill="none">
			<path d="M-15.202795795510765,-37.83021279348029 L-15.202795795510768,5.067598598503594 " />
			<path d="M-15.20279579551077,5.067598598503591 L2.4748737341529186,10.96015510839149 " />
			<path d="M-15.202795795510765,-37.83021279348029 L15.202795795510776,-47.96540999048747 " />
			<path d="M-15.20279579551077,5.067598598503591 L15.20279579551077,-5.067598598503591 " />
			<path d="M15.202795795510776,-47.96540999048748 L15.202795795510772,-5.067598598503594 " />
			<path d="M-14.884597743976824,1.8706018459471898 L-12.884597743914734,3.8706018459263136 " />
			<path d="M-14.88459774397682,-32.4883254713247 L-14.884597743976823,1.870601845947185 " />
			<path d="M-12.884597743914728,-35.82165880467855 L-14.88459774397682,-32.4883254713247 " />
			<path d="M12.884597743914735,-44.41139063395504 L-12.884597743914725,-35.82165880467855 " />
			<path d="M14.884597743976828,-42.41139063397591 L12.884597743914735,-44.41139063395504 " />
			<path d="M14.884597743976823,-8.052463316704026 L14.884597743976826,-42.41139063397591 " />
			<path d="M12.88459774391473,-4.719129983350175 L14.884597743976823,-8.052463316704028 " />
			<path d="M-12.884597743914734,3.8706018459263136 L12.884597743914727,-4.719129983350174 " />
			<path d="M15.20279579551077,-5.067598598503591 L32.880465325174455,0.824957911384308 " />
			<path d="M2.4748737341529186,10.960155108391488 L32.880465325174455,0.8249579113843062 " />
			<path d="M15.202795795510776,-47.96540999048748 L32.88046532517446,-42.07285348059958 " />
			<path d="M32.88046532517446,-42.07285348059958 L32.880465325174455,0.8249579113843026 " />
			<path d="M27.223611075682083,-38.01877460179671 L27.273894966350788,-38.00061041796842 L27.32409083144244,-37.97967225797647 L27.374110799475105,-37.95599677557997 L27.42386730688733,-37.92962541641831 L27.473273251324493,-37.900604345457594 L27.52224214411773,-37.86898436617551 L27.570688261688606,-37.83482083162622 L27.618526795614407,-37.79817354754078 L27.66567400109142,-37.75910666763297 L27.712047343536234,-37.717688581293544 L27.75756564306848,-37.67399179386968 L27.802149216622087,-37.62809279973916 L27.845720017436207,-37.58007194840139 L27.88820177168172,-37.530013303819885 L27.92952011198407,-37.47800449726217 L27.969602707608697,-37.42413657389496 L28.008379391081238,-37.36850383340305 L28.045782281020724,-37.311203664910835 L28.081745900970848,-37.25233637649573 L28.116207294021216,-37.192005019591555 L28.14910613301796,-37.13031520858965 L28.180384826170773,-37.06737493595318 L28.237865684547753,-36.938185727865054 L28.28824754775013,-36.80534161952967 L28.331177781833098,-36.669772416614954 L28.366355908473032,-36.53242699833615 L28.380958818623377,-36.463388316192464 L28.39353570808258,-36.39426667603766 L28.404064560098615,-36.32518308028785 L28.41252694315669,-36.25625846475965 L28.41890804324496,-36.18761348696332 L28.423196689787524,-36.11936831488315 L28.425385375199316,-36.05164241661464 L28.42547026802867,-35.98455435122706 L28.423451219664567,-35.918221561217216 L28.419331764596784,-35.852760166917896 L28.41311911422851,-35.78828476322085 L28.404824144252263,-35.72490821897018 L28.394461375611215,-35.662741479377246 L28.38204894907923,-35.60189337180315 L28.367608593504126,-35.542470415248516 L28.351165587769767,-35.48457663388434 L28.332748716543545,-35.42831337495015 L28.31239021988676,-35.37377913133839 L28.290125736816044,-35.321069369175454 L28.265994242914715,-35.27027636070142 L28.240037982103196,-35.22148902274077 L28.21230239268798,-35.174792761047115 L28.182836027818613,-35.130269320794255 L28.151690470491893,-35.08799664347534 L28.118920243252113,-35.04804873046071 L28.084582712745426,-35.0104955134531 L28.048737989295383,-34.975402732067195 L28.011448821675476,-34.942831818747685 L27.972780487262895,-34.91283979122732 L27.932800677765766,-34.88547915271329 L27.891579380723925,-34.86079779997653 L27.849188756990696,-34.83883893950502 L27.805703014410106,-34.81964101186766 L27.76119827791071,-34.80323762442133 " />
			<path d="M27.761198277910708,-34.80323762442133 L27.698017804392414,-34.78518612012594 L27.63324429575751,-34.77261080829833 L27.56709525835158,-34.76555391623446 L27.499792817480053,-34.76403914064055 L27.43156297152208,-34.76807156806061 L27.362634833038747,-34.77763765779615 L27.293239859424062,-34.79270528737512 L27.22361107568209,-34.81322386041769 " />
			<path d="M24.395183950935895,-38.961583643378766 L27.223611075682086,-38.0187746017967 " />
			<path d="M24.395183950935895,-35.75603290199976 L24.34490006026719,-35.77419708582805 L24.294704195175537,-35.79513524582 L24.244684227142873,-35.8188107282165 L24.194927719730646,-35.845182087378156 L24.145521775293485,-35.87420315833887 L24.096552882500248,-35.905823137620956 L24.048106764929376,-35.93998667217025 L24.00026823100357,-35.97663395625569 L23.953121025526556,-36.0157008361635 L23.906747683081743,-36.05711892250292 L23.861229383549496,-36.100815709926785 L23.81664580999589,-36.14671470405731 L23.77307500918177,-36.19473555539508 L23.730593254936256,-36.24479419997658 L23.68927491463391,-36.2968030065343 L23.64919231900928,-36.350670929901504 L23.61041563553674,-36.40630367039342 L23.573012745597254,-36.46360383888563 L23.53704912564713,-36.52247112730074 L23.502587732596762,-36.58280248420491 L23.46968889360002,-36.64449229520682 L23.438410200447205,-36.707432567843284 L23.380929342070225,-36.836621775931405 L23.330547478867846,-36.969465884266796 L23.28761724478488,-37.10503508718151 L23.252439118144945,-37.24238050546032 L23.237836207994604,-37.311419187604 L23.225259318535397,-37.38054082775881 L23.214730466519363,-37.44962442350862 L23.20626808346129,-37.51854903903682 L23.199886983373016,-37.587194016833145 L23.19559833683045,-37.65543918891332 L23.193409651418662,-37.723165087181826 L23.19332475858931,-37.790253152569406 L23.19534380695341,-37.85658594257925 L23.199463262021194,-37.92204733687857 L23.205675912389466,-37.986522740575616 L23.213970882365714,-38.04989928482629 L23.224333651006763,-38.11206602441922 L23.236746077538747,-38.172914131993316 L23.25118643311385,-38.23233708854795 L23.26762943884821,-38.29023086991213 L23.286046310074433,-38.34649412884632 L23.30640480673122,-38.40102837245808 L23.328669289801933,-38.45373813462101 L23.352800783703263,-38.50453114309504 L23.37875704451478,-38.5533184810557 L23.406492633929997,-38.60001474274935 L23.435958998799364,-38.64453818300221 L23.467104556126085,-38.686810860321124 L23.499874783365865,-38.72675877333576 L23.53421231387255,-38.764311990343366 L23.570057037322595,-38.79940477172927 L23.607346204942502,-38.83197568504878 L23.646014539355082,-38.86196771256915 L23.685994348852212,-38.88932835108318 L23.727215645894052,-38.914009703819936 L23.769606269627282,-38.93596856429145 L23.81309201220787,-38.95516649192881 L23.85759674870726,-38.97156987937514 " />
			<path d="M23.85759674870727,-38.97156987937514 L23.920777222225563,-38.989621383670524 L23.985550730860467,-39.002196695498135 L24.051699768266403,-39.00925358756201 L24.119002209137925,-39.01076836315592 L24.187232055095897,-39.006735935735854 L24.25616019357923,-38.99716984600031 L24.325555167193915,-38.98210221642134 L24.395183950935895,-38.96158364337877 " />
			<path d="M27.223611075682083,-34.813223860417686 L24.395183950935895,-35.75603290199975 " />
			<path d="M27.22361107568208,-7.848885271170678 L27.273894966350785,-7.830721087342388 L27.324090831442437,-7.809782927350437 L27.3741107994751,-7.786107444953935 L27.423867306887328,-7.759736085792278 L27.47327325132449,-7.730715014831562 L27.522242144117726,-7.699095035549483 L27.570688261688602,-7.6649315010001855 L27.618526795614404,-7.628284216914748 L27.665674001091418,-7.58921733700694 L27.71204734353623,-7.547799250667516 L27.757565643068478,-7.5041024632436555 L27.802149216622084,-7.458203469113127 L27.845720017436204,-7.4101826177753605 L27.888201771681718,-7.360123973193852 L27.929520111984065,-7.308115166636137 L27.969602707608693,-7.254247243268933 L28.008379391081235,-7.198614502777013 L28.04578228102072,-7.141314334284802 L28.081745900970844,-7.082447045869694 L28.116207294021212,-7.022115688965528 L28.149106133017956,-6.960425877963619 L28.18038482617077,-6.897485605327154 L28.23786568454775,-6.768296397239027 L28.288247547750128,-6.63545228890364 L28.331177781833095,-6.499883085988923 L28.36635590847303,-6.36253766771012 L28.380958818623373,-6.293498985566431 L28.393535708082577,-6.224377345411631 L28.40406456009861,-6.155293749661819 L28.412526943156685,-6.086369134133613 L28.418908043244958,-6.017724156337292 L28.423196689787524,-5.949478984257117 L28.425385375199312,-5.881753085988608 L28.425470268028665,-5.814665020601029 L28.423451219664564,-5.748332230591187 L28.41933176459678,-5.682870836291867 L28.413119114228508,-5.618395432594822 L28.40482414425226,-5.5550188883441445 L28.39446137561121,-5.4928521487512185 L28.382048949079227,-5.432004041177123 L28.367608593504123,-5.372581084622489 L28.351165587769763,-5.314687303258309 L28.33274871654354,-5.258424044324121 L28.312390219886755,-5.203889800712354 L28.29012573681604,-5.151180038549425 L28.26599424291471,-5.1003870300753915 L28.240037982103193,-5.051599692114742 L28.212302392687977,-5.004903430421087 L28.18283602781861,-4.960379990168223 L28.15169047049189,-4.918107312849313 L28.11892024325211,-4.878159399834678 L28.084582712745423,-4.8406061828270674 L28.04873798929538,-4.805513401441166 L28.011448821675472,-4.772942488121655 L27.97278048726289,-4.742950460601293 L27.932800677765762,-4.7155898220872565 L27.89157938072392,-4.690908469350498 L27.849188756990692,-4.668949608878983 L27.805703014410103,-4.649751681241627 L27.761198277910708,-4.633348293795298 " />
			<path d="M27.761198277910704,-4.633348293795296 L27.69801780439241,-4.61529678949991 L27.633244295757507,-4.602721477672299 L27.567095258351575,-4.595664585608432 L27.49979281748005,-4.594149810014517 L27.431562971522077,-4.5981822374345835 L27.362634833038744,-4.607748327170122 L27.29323985942406,-4.622815956749093 L27.223611075682086,-4.643334529791661 " />
			<path d="M24.395183950935888,-8.791694312752744 L27.22361107568208,-7.848885271170681 " />
			<path d="M24.395183950935888,-5.586143571373726 L24.344900060267182,-5.604307755202015 L24.29470419517553,-5.625245915193966 L24.244684227142866,-5.648921397590469 L24.19492771973064,-5.675292756752125 L24.145521775293478,-5.704313827712841 L24.09655288250024,-5.735933806994921 L24.04810676492937,-5.7700973415442185 L24.000268231003563,-5.806744625629655 L23.95312102552655,-5.845811505537464 L23.906747683081736,-5.887229591876888 L23.86122938354949,-5.9309263793007485 L23.816645809995883,-5.976825373431277 L23.773075009181763,-6.024846224769043 L23.73059325493625,-6.074904869350552 L23.689274914633902,-6.126913675908266 L23.649192319009273,-6.18078159927547 L23.610415635536732,-6.236414339767391 L23.573012745597246,-6.293714508259601 L23.537049125647123,-6.352581796674709 L23.502587732596755,-6.412913153578876 L23.46968889360001,-6.474602964580784 L23.438410200447198,-6.537543237217248 L23.380929342070218,-6.666732445305376 L23.33054747886784,-6.7995765536407635 L23.287617244784872,-6.935145756555479 L23.252439118144938,-7.072491174834283 L23.237836207994597,-7.1415298569779715 L23.22525931853539,-7.210651497132772 L23.214730466519356,-7.279735092882586 L23.206268083461282,-7.348659708410791 L23.19988698337301,-7.417304686207111 L23.195598336830443,-7.485549858287287 L23.193409651418655,-7.553275756555796 L23.193324758589302,-7.620363821943374 L23.195343806953403,-7.686696611953217 L23.199463262021187,-7.752158006252536 L23.20567591238946,-7.816633409949581 L23.213970882365707,-7.8800099542002595 L23.224333651006756,-7.942176693793185 L23.23674607753874,-8.00302480136728 L23.251186433113844,-8.062447757921914 L23.267629438848203,-8.120341539286095 L23.286046310074425,-8.176604798220282 L23.306404806731212,-8.23113904183205 L23.328669289801926,-8.283848803994978 L23.352800783703255,-8.334641812469012 L23.378757044514774,-8.383429150429661 L23.40649263392999,-8.430125412123317 L23.435958998799357,-8.47464885237618 L23.467104556126078,-8.516921529695091 L23.499874783365858,-8.556869442709726 L23.534212313872544,-8.594422659717337 L23.570057037322588,-8.629515441103237 L23.607346204942495,-8.66208635442275 L23.646014539355075,-8.692078381943112 L23.685994348852205,-8.719439020457147 L23.727215645894045,-8.744120373193907 L23.769606269627275,-8.76607923366542 L23.813092012207864,-8.785277161302778 L23.857596748707252,-8.801680548749104 " />
			<path d="M23.857596748707262,-8.801680548749108 L23.920777222225556,-8.819732053044493 L23.98555073086046,-8.832307364872106 L24.051699768266396,-8.839364256935971 L24.119002209137918,-8.840879032529887 L24.18723205509589,-8.83684660510982 L24.256160193579223,-8.827280515374282 L24.325555167193908,-8.81221288579531 L24.395183950935888,-8.791694312752742 " />
			<path d="M27.22361107568208,-4.64333452979166 L24.395183950935888,-5.586143571373723 " />
			<path d="M-14.884597743976814,1.8706018459471931 L-10.884597743977093,3.2039351792804327 " />
			<path d="M14.884597743976826,-39.89260757194105 L-5.106423150862703,-33.22893394032787 " />
			<path d="M-12.884597743914728,-35.82165880467855 L-5.106423150862706,-33.22893394032788 " />
			<path d="M-5.106423150862707,-33.22893394032787 L-7.1064231509247975,-29.895600606974018 " />
			<path d="M-14.88459774397682,-32.4883254713247 L-7.106423150924798,-29.89560060697403 " />
			<path d="M-7.1064231509247975,-29.895600606974025 L-7.1064231509248,1.9445436482629965 " />
			<path d="M24.748737341529168,-37.1938166904124 L24.806616979032302,-37.17266448233677 L24.864362351944223,-37.14784335032618 L24.921839507130066,-37.11941087247347 L24.97891511364516,-37.087433004185094 L25.035456772025594,-37.05198392518295 L25.091333321417974,-37.01314586742816 L25.14641514383597,-36.97100892436589 L25.20057446483784,-36.925670841933744 L25.253685649927437,-36.87723679181846 L25.30562549599116,-36.82581912748699 L25.35627351709473,-36.77153712355784 L25.405512223976952,-36.71451669911729 L25.453227396591938,-36.65489012562224 L25.49930834906772,-36.592795720067436 L25.54364818646657,-36.52837752412863 L25.586144052751383,-36.46178497002617 L25.626697369382942,-36.39317253388396 L25.665214063994615,-36.32269937738801 L25.701604788613956,-36.25052897857579 L25.73578512692504,-36.17682875261284 L25.767675790090742,-36.10176966343637 L25.797202800680687,-36.02552582716665 L25.824297664278227,-35.948274108206284 L25.848897528368347,-35.87019370896416 L25.870945328137964,-35.79146575415595 L25.890389918850325,-35.71227287064537 L25.90718619448652,-35.632798763800835 L25.921295192378867,-35.55322779135034 L25.932684183593384,-35.473744535723036 L25.941326748851793,-35.39453337586954 L25.947202839816867,-35.315778059554304 L25.95029882559896,-35.23766127711206 " />
			<path d="M23.193622466866106,-37.71218831530008 L24.74873734152917,-37.19381669041239 " />
			<path d="M24.748737341529164,-7.023927359786372 L24.8066169790323,-7.002775151710747 L24.864362351944223,-6.977954019700152 L24.921839507130063,-6.949521541847447 L24.978915113645158,-6.917543673559071 L25.03545677202559,-6.882094594556923 L25.09133332141797,-6.843256536802131 L25.146415143835966,-6.801119593739865 L25.200574464837835,-6.755781511307719 L25.253685649927434,-6.707347461192434 L25.30562549599115,-6.655929796860963 L25.356273517094728,-6.601647792931817 L25.40551222397695,-6.544627368491261 L25.45322739659193,-6.485000794996212 L25.499308349067714,-6.4229063894414065 L25.543648186466566,-6.358488193502606 L25.586144052751376,-6.291895639400148 L25.626697369382935,-6.223283203257937 L25.66521406399461,-6.152810046761986 L25.701604788613952,-6.080639647949765 L25.735785126925038,-6.006939421986818 L25.76767579009074,-5.931880332810347 L25.797202800680683,-5.855636496540629 L25.82429766427822,-5.778384777580258 L25.848897528368344,-5.700304378338133 L25.87094532813796,-5.621576423529929 L25.890389918850317,-5.542383540019347 L25.907186194486517,-5.462909433174809 L25.921295192378864,-5.383338460724314 L25.93268418359338,-5.303855205097012 L25.94132674885179,-5.224644045243522 L25.947202839816864,-5.145888728928278 L25.950298825598956,-5.06777194648604 " />
			<path d="M23.193622466866096,-7.542298984674064 L24.748737341529164,-7.0239273597863745 " />
			<path d="M-1.7677669529663644,-29.109229158846208 L-1.770624084338733,-28.98847676559972 L-1.7791839339481408,-28.86630752949293 L-1.7934119149181604,-28.743215086800447 L-1.8132505377551587,-28.619696804099824 L-1.8386196426399968,-28.49625176861516 L-1.8694167233213073,-28.373378771608298 L-1.9055173413016344,-28.251574292965877 L-1.9467756286428701,-28.13133049512571 L-1.9930248773593626,-28.01313323444823 L-2.0440782130171904,-27.897460098068212 L-2.099729349817866,-27.784778474159108 L-2.159753424115486,-27.675543663407215 L-2.223907902999412,-27.570197039326487 L-2.2919335642712815,-27.469164264847393 L-2.3635555438566462,-27.372853572385857 L-2.438484446419089,-27.281654114341844 L-2.5164175146892642,-27.195934390692514 L-2.597039852784082,-27.116040760033467 L-2.6800256985731084,-27.042296040084295 L-2.7650397399510496,-26.974998203313252 L-2.851738469697816,-26.914419172951522 L-2.9397715734517083,-26.86080372426185 L-3.0287833451875064,-26.814368495501107 L-3.118414124480075,-26.775301112573047 L-3.208301749746102,-26.74375943090824 L-3.298083021591991,-26.719870897634365 L-3.387395170355129,-26.703732036614106 L-3.4758773219087855,-26.695408058431447 L-3.563171955807925,-26.694932596902152 L-3.6489263498841433,-26.7023075731732 L-3.6911173945650293,-26.708930899869184 L-3.7327940054527273,-26.717503187960187 L-3.773914072344851,-26.728015775974498 L-3.8144360473731234,-26.740458041954142 " />
			<path d="M-3.814436047373135,-26.74045804195415 L-3.8757404711313237,-26.76343225116226 L-3.9353735663898153,-26.790922035807785 L-3.993191671798888,-26.822861170591683 L-4.049055498478345,-26.859172711340726 L-4.102830465576622,-26.899769180372733 L-4.154387024487847,-26.944552777237977 L-4.203600970945784,-26.993415614329024 L-4.250353744242781,-27.04623997679145 L-4.294532712852908,-27.10289860610921 L-4.336031445771161,-27.16325500668157 L-4.37474996891508,-27.227163774652958 L-4.4105950059710715,-27.29447094820358 L-4.443480203105211,-27.365014378456937 L-4.4733263369972,-27.438624120110678 L-4.500061505696282,-27.51512284084971 L-4.5236213018393325,-27.594326248555273 L-4.5439489678138525,-27.676043535280805 L-4.560995532492014,-27.760077836924996 L-4.574719929206405,-27.846226707494647 L-4.585089094683226,-27.93428260681481 L-4.592078048694611,-28.024033400511236 L-4.595669954238186,-28.11526287106067 L-4.595856158098885,-28.207751238677794 L-4.592636211695295,-28.301275690784 L-4.586017872160338,-28.39561091878239 L-4.576017083653651,-28.490529660845922 L-4.562657938950714,-28.585803249411068 L-4.545972621401237,-28.681202162057996 L-4.52600132739666,-28.776496574450178 L-4.5027921695335165,-28.871456914001353 L-4.4764010607059825,-28.965854412936007 L-4.446891579406811,-29.05946165941096 L-4.414334816561178,-29.152053145370424 L-4.378809204262413,-29.243405809814664 L-4.340400326822221,-29.333299576173495 L-4.299200714590574,-29.421517882489987 L-4.255309621042,-29.50784820313721 L-4.208832783665262,-29.592082560811093 L-4.159882169232491,-29.674018027565932 L-4.108575704061423,-29.753457213685618 L-4.05503698992057,-29.830208743212737 L-3.9993950062617363,-29.904087714990016 L-3.941783799497218,-29.974916148103418 L-3.8823421600702552,-30.042523410653725 L-3.8212132880967014,-30.106746630823764 L-3.758544448383396,-30.16743108925085 L-3.6944866156543523,-30.224430591759308 L-3.6291941108394177,-30.27760782155502 L-3.562824229301639,-30.32683467003364 L-3.4955368618989553,-30.371992545405416 L-3.427494109793118,-30.412972658393215 L-3.358859893933791,-30.44967628431542 L-3.289799560158626,-30.48201500092232 L-3.220479480860659,-30.50991090141308 L-3.15106665418264,-30.533296782120015 L-3.0817283017038823,-30.55211630440815 L-3.012631465588829,-30.566324130399888 L-2.943942606167851,-30.575886032197968 L-2.8758272009197254,-30.580778974343424 L-2.8084493458219,-30.580991169310067 L-2.7419713600289093,-30.576522105901624 L-2.676553394831311,-30.567382550483302 L-2.612353047837204,-30.553594521044623 L-2.5495249833057896,-30.535191234156205 " />
			<path d="M-2.549524983305784,-30.5351912341562 L-2.5061483207338204,-30.519470671949552 L-2.4635805817871317,-30.5014979117219 L-2.4218727170566825,-30.481294465603728 L-2.381074647924452,-30.458884515699726 L-2.341235206811046,-30.434294885144485 L-2.3024020787267263,-30.407555005997107 L-2.2646217441958023,-30.378696884013085 L-2.227939423622713,-30.347755060335686 L-2.192399023166381,-30.31476657015261 L-2.158043082187627,-30.279770898367477 L-2.124912722332547,-30.242809932339192 L-2.09304759831279,-30.20392791174569 L-2.0624858504416586,-30.16317137563219 L-2.033264058982833,-30.12058910670718 L-2.0054172003663684,-30.076232072952994 L-1.9789786053243685,-30.0301533666207 L-1.9539799189964382,-29.982408140682388 L-1.9304510630526799,-29.933053542816975 L-1.8879136988714964,-29.82975438283837 L-1.8515701087780834,-29.720750306024147 L-1.8215942435945407,-29.60656303707804 L-1.7981295763893919,-29.487739108944528 L-1.7812884157744204,-29.364847246945757 L-1.771151368363518,-29.23847564669942 L-1.7677669529663644,-29.109229158846226 " />
			<path d="M-1.7677669529663698,0.11785113019775784 L-1.7682089637795952,0.16513891921458151 " />
			<path d="M-4.595752066899334,1.107653286921179 L-4.5950990352074115,0.9861056248819474 L-4.58859500791665,0.8629148116009752 L-4.576266914852482,0.7385909167547897 L-4.558165800295514,0.6136487015267942 L-4.53436661163347,0.48860548724646624 L-4.5049678890426765,0.3639790134283134 L-4.47009135748397,0.24028529407934035 L-4.429881422702362,0.11803648115095045 L-4.384504573317267,-0.0022612560183681296 L-4.334148691478911,-0.12010982648943913 L-4.279022274945176,-0.23502128006030798 L-4.219353573799819,-0.3465198276165822 L-4.155389645386496,-0.45414381112897684 L-4.087395331371613,-0.5574476151413172 L-4.015652161171459,-0.6560035118345122 L-3.9404571862839703,-0.7494034320270435 L-3.86212175035155,-0.8372606547791634 L-3.78097020004748,-0.9192114086050256 L-3.6973385421234894,-0.9949163776629548 L-3.6115730521789393,-1.064062106687493 L-3.5240288409120075,-1.126362298846129 L-3.4350683837892775,-1.181559001146951 L-3.345060020221618,-1.2294236724890586 L-3.2543764284604912,-1.2697581299334941 L-3.1633930825293572,-1.302395369276668 L-3.0724866975792278,-1.3272002565287067 L-2.982033670105352,-1.3440700874336664 L-2.8924085194832894,-1.3529350127149373 L-2.8480225401430856,-1.3543528656146986 L-2.803982337277166,-1.3537583272851001 L-2.7603335096350885,-1.3511520133046955 L-2.717121250740738,-1.346536622222781 L-2.674390302099442,-1.3399169327653475 L-2.6321849068731,-1.3312997988872377 L-2.5905487640712894,-1.3206941426756362 L-2.549524983305795,-1.3081109451122397 " />
			<path d="M-2.549524983305789,-1.3081109451122377 L-2.5061483207338258,-1.2923903829055865 L-2.463580581787137,-1.2744176226779318 L-2.421872717056688,-1.2542141765597632 L-2.381074647924457,-1.2318042266557616 L-2.341235206811051,-1.207214596100521 L-2.3024020787267316,-1.1804747169531409 L-2.2646217441958076,-1.1516165949691208 L-2.2279394236227184,-1.1206747712917213 L-2.192399023166386,-1.0876862811086434 L-2.1580430821876324,-1.0526906093235127 L-2.124912722332552,-1.015729643295226 L-2.093047598312795,-0.9768476227017271 L-2.062485850441664,-0.9360910865882222 L-2.033264058982838,-0.8935088176632144 L-2.0054172003663737,-0.8491517839090303 L-1.9789786053243739,-0.8030730775767327 L-1.9539799189964435,-0.7553278516384221 L-1.9304510630526852,-0.7059732537730092 L-1.8879136988715017,-0.6026740937944037 L-1.8515701087780887,-0.49367001698018154 L-1.821594243594546,-0.3794827480340762 L-1.7981295763893972,-0.26065881990056283 L-1.7812884157744258,-0.13776695790179228 L-1.7711513683635234,-0.011395357655455518 L-1.7677669529663698,0.1178511301977409 " />
			<path d="M14.884597743976823,-15.830370564454732 L14.802509474097981,-15.565158549718156 L14.715944161867963,-15.30129296867028 L14.624956980705399,-15.038941999138808 L14.529605922359021,-14.778272853596006 L14.429951759945961,-14.519451672583859 L14.32605800921727,-14.262643418822453 L14.21799088807541,-14.008011772069056 L14.105819274369496,-13.75571902479486 L13.989614661995212,-13.505925978746031 L13.869451115327308,-13.258791842454787 L13.745405222013805,-13.014474129765961 L13.617556044161974,-12.773128559443737 L13.485985067947162,-12.534908955922445 L13.350776151676623,-12.299967151264747 L13.212015472341434,-12.068452888389704 L13.069791470690596,-11.840513725632348 L12.92419479486226,-11.616294942695664 L12.775318242608083,-11.39593944805485 L12.623256702147508,-11.179587687872935 L12.468107091689596,-10.967377556485737 L12.30996829766112,-10.75944430851333 L12.148941111680113,-10.555920472653906 L11.985128166315128,-10.356935767215028 L11.818633869671213,-10.162617017436183 L11.64956433884414,-9.973088074655202 L11.478027332285432,-9.788469737370159 L11.304132181121266,-9.608879674247033 L11.127989719468982,-9.434432349122195 L10.94971221379565,-9.265238948047546 L10.76941329136374,-9.101407308424772 L10.587207867809436,-8.943041850273916 L10.403212073899791,-8.790243509680039 L10.21754318151546,-8.643109674460444 L10.030319528906054,-8.50173412209339 L9.841660445265866,-8.366206959947906 L9.651686174678037,-8.236614567852826 L9.460517799475546,-8.113039543041568 L9.268277163067987,-7.995560647507833 L9.07508679228322,-7.884252757805713 L8.881069819273463,-7.779186817326238 L8.686349903035584,-7.68042979108078 L8.491051150595567,-7.588044623020117 L8.295298037907457,-7.502090195916361 L8.09921533051712,-7.422621293833327 L7.902928004041501,-7.349688567209277 L7.706561164513918,-7.283338500574269 L7.510239968646249,-7.223613382922684 L7.314089544058868,-7.170551280759845 L7.118234909529063,-7.124186013839887 L6.922800895308851,-7.0845471336103305 L6.727912063562956,-7.051659904377132 L6.533692628977647,-7.025545287202169 L6.340266379591051,-7.006219926543462 L6.147756597895387,-6.993696139646644 L5.956285982261436,-6.98798190869441 L5.76597656873526,-6.989080875718981 L5.57694965325714,-6.996992340280817 L5.389325714352156,-7.011711259915041 L5.203224336341772,-7.033228253345319 L5.018764133125401,-7.061529606463136 L4.836062672580413,-7.096597281068622 L4.655236401628876,-7.138408926367429 L4.476400572018745,-7.186937893216264 L4.299669166866867,-7.242153251108016 " />
			<path d="M4.299669166866803,-7.2421532511080375 L4.1299832345019185,-7.302207431228062 L3.962494836196763,-7.368511401752668 L3.7973048606996818,-7.441025223649278 L3.6345128122750623,-7.519705217303043 L3.47421675076569,-7.604503988827828 L3.3165132325251596,-7.695370458614487 L3.1614972522559475,-7.792249892099347 L3.0092621857881463,-7.895083932734224 L2.8598997338333607,-8.003810637138256 L2.7134998667476253,-8.118364512410263 L2.57015077033663,-8.238676555579225 L2.429938792735885,-8.364674295169094 L2.2929483923978324,-8.496281834852903 L2.1592620872172352,-8.633419899169867 L2.0289604048254812,-8.776005881277962 L1.9021218340837507,-8.923953892713204 L1.7788227778042573,-9.077174815125632 L1.6591375067280563,-9.235576353960889 L1.5431381147871228,-9.399063094054993 L1.4308944756776647,-9.567536557108872 L1.322474200770822,-9.740895261008015 L1.217942598386105,-9.919034780951492 L1.1173626344521006,-10.101847812353554 L1.020794894578155,-10.289224235479903 L0.9282975475598665,-10.481051181779705 L0.8399263103403847,-10.677213101873377 L0.755734414448594,-10.877591835155227 L0.6757725739344416,-11.082066680968964 L0.6000889548206896,-11.29051447131328 L0.5287291460894981,-11.502809645033635 L0.4617361322213309,-11.718824323455609 L0.39915026730271475,-11.938428387414229 L0.3410092507184377,-12.16148955563289 L0.28734810444285586,-12.387873464404656 L0.2381991519439719,-12.617443748527915 L0.19359199871296795,-12.850062123447701 L0.15355351443098542,-13.085588468553127 L0.11810781678381765,-13.323880911580792 L0.08727625693432728,-13.564795914073349 L0.0610774066613029,-13.808188357841688 L0.039527047172511764,-14.053911632378714 L0.022638159598687757,-14.301817723172025 L0.010420917174189803,-14.551757300862338 L0.0028826791090219572,-14.803579811193895 L2.7986155924253353e-05,-15.057133565702722 L0.00185855787518463,-15.31226583308809 L0.008373291598849697,-15.568822931212132 L0.019568263094926763,-15.826650319672225 L0.03543672893119343,-16.085592692890355 L0.055969130537189216,-16.345494073663367 L0.08115309996194497,-16.606197907117828 L0.11097346732396485,-16.867547155012804 L0.14541226994900835,-17.12938439033384 L0.1844487631901215,-17.39155189212111 L0.22805943292344732,-17.653891740474606 L0.27621800971224264,-17.916245911679205 L0.32889548463062024,-18.17845637339222 L0.38606012673742107,-18.4403651798362 L0.44767750218976765,-18.70181456693954 L0.513710494984708,-18.96264704736768 L0.5841193293165157,-19.22270550538755 L0.6588615935361455,-19.481833291508273 L0.7378922656984237,-19.739874316840883 L0.8211637406815866,-19.9966731471205 L0.9086258588628269,-20.252075096334092 L1.000225936332571,-20.505926319897547 L1.0959087966292982,-20.7580739073259 L1.1956168039757769,-21.008365974340887 L1.299289897996708,-21.25665175436036 L1.4068656298968358,-21.50278168931444 L1.5182792000777816,-21.746607519733704 L1.6334634971708901,-21.987982374055143 L1.7523491384626118,-22.226760857092103 L1.8748645116880498,-22.462799137614894 L2.0009358181675205,-22.695955034989375 L2.1304871172601088,-22.926088104821233 L2.2634403721074765,-23.153059723554424 L2.399715496640349,-23.376733171972845 L2.539230403819362,-23.596973717554853 L2.681901055081225,-23.813648695631116 L2.8276415109604214,-24.02662758929684 L2.976363982855914,-24.235782108030275 L3.127978885911725,-24.44098626497012 L3.2823948929794984,-24.642116452805325 L3.4395189896305665,-24.839051518231464 L3.599256530184353,-25.03167283492902 L3.7615112947193987,-25.219864375019373 L3.9261855470326466,-25.40351277895572 L4.093180093512068,-25.582507423806575 L4.262394342887194,-25.756740489890923 L4.433726366821528,-25.926107025724757 L4.607072961310372,-26.09050501123991 L4.782329708847049,-26.249835419237137 L4.959391041320112,-26.404002275036415 L5.138150303603634,-26.552912714288478 L5.318499817802254,-26.69647703891284 L5.500330948112318,-26.834608771128565 L5.683534166260035,-26.96722470554524 L5.867999117477201,-27.09424495928281 L6.053614686974795,-27.21559302009002 L6.240269066874362,-27.331195792432517 L6.427849823556903,-27.44098364152292 L6.616243965388692,-27.54489043526617 L6.8053380107832036,-27.642853584095036 L6.995018056558168,-27.73481407867175 L7.185169846546607,-27.820716525432992 L7.375678840420466,-27.900509179956945 L7.566430282685427,-27.974143978132155 L7.757309271805321,-28.041576565109587 L7.948200829414529,-28.102766322020308 L8.138989969576642,-28.157676390442788 L8.329561768047698,-28.206273694605038 L8.51980143150223,-28.248528961308196 L8.70959436668049,-28.284416737559617 L8.898826249415144,-28.31391540590483 L9.087383093495871,-28.337007197449047 L9.275151319330389,-28.353678202560495 L9.462017822360561,-28.363918379249068 L9.647870041192354,-28.367721559215234 L9.832596025398601,-28.365085451565584 L10.016084502953767,-28.356011644192805 L10.198224947260051,-28.340505602819167 L10.378907643724471,-28.31857666770418 L10.558023755846841,-28.29023804801838 L10.7354653907788,-28.25550681388662 L10.91112566431443,-28.214403886105657 L11.084898765273318,-28.16695402354225 L11.256680019237209,-28.11318580821935 " />
			<path d="M11.256680019237239,-28.11318580821934 L11.405546349484958,-28.060880059080787 L11.552733586790714,-28.003767971721203 L11.698173598890186,-27.941875983051176 L11.8417990623012,-27.875232742574624 L11.98354349348744,-27.80386909912707 L12.123341279633358,-27.72781808659588 L12.261127709016039,-27.64711490862902 L12.39683900095994,-27.561796922339475 L12.530412335360657,-27.471903621012796 L12.66178588176405,-27.37747661582587 L12.790898827987272,-27.278559616585305 L12.917691408268418,-27.175198411494343 L13.042104930931824,-27.067440845957762 L13.164081805556158,-26.95533680043444 L13.283565569632742,-26.83893816734794 L13.400500914701789,-26.71829882706576 L13.514833711954408,-26.593474622958347 L13.626511037288576,-26.46452333554951 L13.735481195807461,-26.33150465577006 L13.84169374574872,-26.194480157327177 L13.945099521833763,-26.053513268202238 L14.045650658026121,-25.9086692412903 L14.143300609688403,-25.760015124194872 L14.238004175127584,-25.607619728191878 L14.329717516518652,-25.451553596377252 L14.418398180196931,-25.29188897101288 L14.504005116309669,-25.12869976008603 L14.586498697817827,-24.962061503097644 L14.665840738839236,-24.79205133609552 L14.741994512324665,-24.618747955968384 L14.814924767058592,-24.442231584017478 L14.884597743976808,-24.262583928822544 " />
			<path d="M10.141104559028904,-12.98134640781854 L10.108692979726897,-13.085780497505587 L10.078548734606187,-13.192059265805849 L10.050692370923624,-13.300110269798932 L10.025142876444766,-13.409859858553366 L10.001917666501242,-13.521233223329377 L9.981032572119904,-13.63415444857085 L9.962501829231915,-13.748546563651745 L9.946338068969096,-13.864331595341671 L9.932552309054147,-13.981430620954868 L9.921153946290623,-14.099763822146368 L9.912150750157785,-14.219250539318674 L9.905548857514685,-14.339809326601845 L9.901352768417077,-14.461358007369547 L9.899565343050053,-14.583813730253201 L9.900187799778442,-14.707093025616048 L9.90321971431634,-14.831111862448672 L9.908659020016316,-14.955785705647141 L9.916502009278105,-15.08102957363477 L9.926743336075814,-15.20675809628822 L9.939376019601955,-15.332885573128424 L9.95439144902577,-15.459326031736708 L9.971779389362641,-15.585993286356278 L9.991527988450583,-15.712800996639103 L10.01362378502904,-15.839662726498204 L10.038051717914504,-15.966492003025168 L10.064795136266682,-16.093202375432785 L10.093835810938229,-16.219707473982602 L10.125153946900308,-16.345921068857223 L10.158728196735495,-16.471757128937234 L10.19453567518884,-16.597129880442722 L10.232551974767176,-16.72195386539931 L10.272751182376027,-16.846143999889023 L10.315105896982772,-16.9696156320461 L10.359587248294057,-17.092284599758372 L10.406164916434673,-17.21406728803477 L10.454807152614531,-17.33488068599989 L10.505480800769641,-17.454642443476835 L10.558151320162292,-17.573270927119616 L10.612782808925122,-17.690685276057017 L10.669338028532929,-17.806805457009865 L10.727778429185623,-17.92155231884422 L10.788064176084966,-18.034847646523247 L10.850154176587209,-18.146614214421025 L10.91400610821313,-18.256775838961943 L10.979576447496338,-18.36525743054979 L11.04682049965024,-18.471985044751175 L11.115692429033388,-18.576885932698353 L11.186145290392487,-18.679888590677113 L11.258131060861743,-18.78092280886595 L11.33160067269674,-18.87991971919326 L11.406504046720553,-18.976811842279968 L11.48279012645926,-19.071533133435565 L11.560406912943643,-19.16401902767624 L11.639301500153296,-19.254206483734382 L11.719420111079014,-19.34203402702947 L11.800708134378892,-19.427441791571056 L11.883110161603103,-19.510371560765304 L11.96657002496203,-19.59076680709723 L12.051030835611986,-19.668572730661605 L12.136435022432412,-19.7437362965163 L12.222724371268157,-19.81620627083253 L12.30984006461006,-19.88593325581746 L12.397722721686785,-19.952869723385245 L12.486312438940605,-20.016970047553666 " />
			<path d="M5.024790079638907,-7.060493385469211 L4.875160000407467,-7.140456236430543 L4.727804276815651,-7.225721848359553 L4.582800537218725,-7.316245302544882 L4.440225170925078,-7.411978910395343 L4.30015328795363,-7.512872238562714 L4.162658679465178,-7.618872135510475 L4.027813778888532,-7.729922759514547 L3.8956896237619265,-7.845965608081226 L3.766355818309769,-7.966939548766819 L3.639880496774511,-8.092780851382795 L3.516330287522891,-8.223423221569433 L3.3957702779454966,-8.358797835720308 L3.2782639801681306,-8.498833377239185 L3.1638732975930344,-8.643456074110288 L3.0526584922876,-8.792589737762045 L2.9446781532377644,-8.946155803203961 L2.839989165482786,-9.10407337041536 L2.738646680147683,-9.266259246964275 L2.6407040853891095,-9.432627991833979 L2.5462129782699847,-9.603091960434108 L2.455223137577681,-9.77756135077264 L2.3677824976001034,-9.955944250764414 L2.283937122873459,-10.138146686651252 L2.203731183915038,-10.324072672508226 L2.127206933953775,-10.513624260809907 L2.0544046866708623,-10.706701594030037 L1.985362794962124,-10.903202957247391 L1.9201176307333618,-11.103024831730139 L1.8587035657392992,-11.306061949470468 L1.801152953476219,-11.512207348640745 L1.7474961121378456,-11.721352429941984 L1.6977613086434475,-11.933387013814968 L1.651974743746547,-12.148199398483857 L1.610160538232142,-12.365676418801712 L1.5723407202096356,-12.58570350586694 L1.5385352135082364,-12.808164747379244 L1.5087618271808934,-13.032942948703308 L1.4830362461223325,-13.259919694607989 L1.4613720228060982,-13.488975411648578 L1.4437805701449902,-13.719989431159174 L1.430271155478641,-13.952840052822069 L1.420850895691384,-14.187404608780579 L1.4155247534630266,-14.423559528261618 L1.4142955346544506,-14.661180402673924 L1.4171638868294725,-14.90014205114764 L1.4241282989136916,-15.140318586480756 L1.435185101990541,-15.381583481457653 L1.4503284712341058,-15.623809635504815 L1.4695504289776977,-15.86686944164856 L1.4928408489165603,-16.1106348537396 L1.520187461442502,-16.354977453908916 L1.5515758601076381,-16.59976852021948 L1.586989509213839,-16.844879094478166 L1.6264097525238936,-17.09018005017211 L1.6698158230897775,-17.335542160493745 L1.7171848541928876,-17.580836166418695 L1.7684918913904255,-17.825932844800597 L1.8237099056616364,-18.070703076447064 L1.8828098076469466,-18.315017914140856 L1.9457604629725047,-18.558748650570486 L2.0125287086520567,-18.801766886134388 L2.083079370557515,-19.04394459658303 L2.1573752819490117,-19.285154200463282 L2.2353773030546833,-19.525268626329474 L2.3170443416898605,-19.764161379685827 L2.4023333749048135,-20.001706609624925 L2.491199471649634,-20.23777917512712 L2.5835958164443333,-20.472254710985972 L2.6794737340416637,-20.70500969332501 L2.778782715069692,-20.93592150467123 L2.8814704426406035,-21.16486849855113 L2.9874828199117154,-21.391730063575174 L3.0967639985841977,-21.616386686977002 L3.209256408324471,-21.83872001757384 L3.324900787092793,-22.058612928115025 L3.443636212363044,-22.275949576985695 L3.565400133217276,-22.490615469233227 L3.69012840329811,-22.702497516884243 L3.8177553146016443,-22.911484098520393 L3.948213632093019,-23.117465118081547 L4.081434629126463,-23.320332062865415 L4.2173481236511225,-23.51997806069304 L4.355882515183616,-23.716297936210065 L4.496964822527827,-23.909188266294052 L4.640520722222072,-24.09854743453875 L4.786474587693385,-24.284275684786568 L4.934749529098296,-24.466275173681026 L5.085267433829111,-24.644450022211526 L5.237949007664352,-24.81870636622334 L5.392713816541694,-24.988952405866065 L5.549480328931352,-25.15509845395468 L5.708165958787665,-25.317056983217523 L5.868687109056168,-25.474742672406528 L6.03095921571331,-25.628072451245206 L6.194896792315548,-25.776965544190844 L6.360413475034399,-25.921343512987818 L6.527422068153706,-26.061130297989564 L6.6958345900051475,-26.19625225822753 L6.86556231931778,-26.326638210205903 L7.036515841957229,-26.452219465401733 L7.208605098029887,-26.57292986645067 L7.3817394293272915,-26.688705821999314 L7.5558276270857,-26.799486340205668 L7.73077798003572,-26.905213060870253 L7.906498322716642,-27.00583028618078 L8.082896084030063,-27.10128501005427 L8.259878336007189,-27.19152694606114 L8.437351842764148,-27.27650855391658 L8.615223109619524,-27.35618506452521 L8.793398432348205,-27.43051450356583 L8.971783946545637,-27.499457713603896 L9.150285677076461,-27.562978374720032 L9.328809587581478,-27.62104302364366 L9.507261630016881,-27.67362107138181 L9.68554779419962,-27.72068481933363 L9.863574157332838,-27.762209473882315 L10.041246933485276,-27.798173159456574 L10.218472522998557,-27.828556930054916 L10.39515756179635,-27.85334477922654 L10.57120897056943,-27.87252364850372 L10.746534003810723,-27.886083434281097 L10.921040298674484,-27.894016993138372 L11.094635923633904,-27.89632014560351 L11.26722942691148,-27.892991678354534 L11.438729884656674,-27.884033344858715 L11.609046948845412,-27.869449864448825 L11.778090894876271,-27.84924891983694 L11.945772668838192,-27.823441153067147 " />
			<path d="M12.727922061357855,-18.384776310850242 L12.726135903064883,-18.234355212371582 L12.720779232926933,-18.082895327734022 L12.711857463343406,-17.930549692567364 L12.699379608903413,-17.77747223746704 L12.683358277277414,-17.623817632462064 L12.663809656478364,-17.46974113073584 L12.640753498505308,-17.315398411757805 L12.614213099385868,-17.160945423984284 L12.584215275637858,-17.006538227287606 L12.550790337173774,-16.852332835272623 L12.513972056675547,-16.698485057639992 L12.473797635470497,-16.545150342755466 L12.43030766594298,-16.392483620584297 L12.38354609051968,-16.240639146149412 L12.333560157270034,-16.08977034367158 L12.28040037216659,-15.940029651548999 L12.224120448053602,-15.791568368332971 L12.164777250375359,-15.644536499855295 L12.102430739719136,-15.49908260766181 L12.03714391123079,-15.355353658905255 L11.968982730964237,-15.213494877849115 L11.8980160692291,-15.073649599132493 L11.824315631003893,-14.935959122944245 L11.747955883485051,-14.80056257225276 L11.669013980844987,-14.667596752235578 L11.587569686275234,-14.537196012050941 L11.503705291393436,-14.409492109090912 L11.41750553309556,-14.284614075853202 L11.329057507937458,-14.16268808956627 L11.23845058413215,-14.043837344699368 L11.145776311251872,-13.9281819284864 L11.051128327726042,-13.815838699589332 L10.95460226622864,-13.706921170023774 L10.856295657050605,-13.601539390466009 L10.75630782955486,-13.499799839057381 L10.654739811813561,-13.401805313818393 L10.551694228528953,-13.307654828781198 L10.447275197340995,-13.217443513945458 L10.341588223626506,-13.131262519158634 L10.234740093896141,-13.049198922017847 L10.126838767896906,-12.971335639886355 L10.017993269529226,-12.897751346113523 L9.908313576688794,-12.828520390543002 L9.797910510144495,-12.763712724389347 L9.686895621564691,-12.703393829559076 L9.575381080805,-12.647624652487487 L9.463479562571457,-12.596461542558162 L9.351304132573578,-12.549956195167342 L9.238968133282334,-12.508155599490706 L9.126585069408511,-12.471101991005327 L9.014268493217124,-12.438832808814803 L8.902131889793788,-12.411380657820633 L8.790288562378963,-12.388773275778107 L8.678851517885944,-12.371033505269985 L8.56793335271825,-12.358179270626257 L8.4576461390018,-12.350223559813333 L8.348101311346836,-12.34717441131096 L8.239409554253953,-12.349034905990102 L8.131680690278092,-12.355803164000033 L8.025023569063407,-12.367472346667723 L7.919545957361192,-12.38403066340768 L7.815354430141948,-12.405461383635188 L7.712554262911639,-12.431742853670961 L7.611249325340958,-12.462848518620081 " />
			<path d="M7.611249325340928,-12.46284851862009 L7.534119356084163,-12.4901458732201 L7.457988265945456,-12.520284041640377 L7.382901913446783,-12.553244869775199 L7.308905527799228,-12.589008503254185 L7.236043681658604,-12.627553399401812 L7.164360264276546,-12.668856340213932 L7.093898455063266,-12.712892446343412 L7.024700697577902,-12.759635192086538 L6.95680867396209,-12.809056421361099 L6.890263279832212,-12.861126364666555 L6.825104599645396,-12.915813657016084 L6.761371882554148,-12.97308535682966 L6.699103518764123,-13.032906965776846 L6.638337016409307,-13.095242449557283 L6.5791089789585095,-13.160054259606419 L6.521455083166813,-13.227303355713346 L6.465410057585226,-13.296949229537178 L6.411007661641499,-13.36894992900775 L6.35828066530471,-13.443262083595979 L6.307260829345865,-13.51984093043865 L6.257978886206391,-13.598640341301898 L6.210464521486066,-13.679612850367114 L6.164746356061518,-13.762709682822598 L6.120851928846088,-13.847880784243664 L6.078807680201412,-13.935074850743575 L6.038638936010738,-14.024239359877061 L6.00036989242356,-14.115320602277903 L5.964023601280765,-14.20826371401142 L5.929621956229059,-14.303012709622472 L5.897185679533063,-14.399510515858998 L5.866734309592987,-14.497699006050803 L5.838286189175434,-14.597519035122904 L5.811858454364398,-14.698910475222295 L5.787467024239135,-14.801812251936735 L5.765126591285096,-14.90616238108367 L5.744850612543731,-15.01189800604721 L5.726651301506465,-15.118955435640585 L5.710539620757753,-15.22727018247134 L5.696525275371622,-15.336777001786139 L5.6846167070657,-15.447409930771748 L5.67482108911625,-15.559102328288578 L5.667144322037239,-15.671786915012811 L5.661591030026104,-15.785395813962953 L5.658164558178301,-15.899860591386389 L5.656866970472346,-16.01511229798131 L5.657699048526555,-16.131081510429205 L5.660660291128222,-16.24769837321286 L5.66574891453553,-16.36489264069472 L5.672961853552014,-16.482593719430234 L5.682294763372922,-16.600730710690694 L5.693742022202356,-16.719232453169994 L5.7072967346396375,-16.83802756584953 L5.722950735832839,-16.957044490995454 L5.740694596396981,-17.076211537262395 L5.760517628093948,-17.19545692287762 L5.782407890270673,-17.31470881887971 L5.806352197051753,-17.433895392385626 L5.832336125282118,-17.55294484986016 L5.860344023215002,-17.67178548036168 L5.890359019939975,-17.790345698738108 L5.922363035545342,-17.90855408874714 L5.95633679200881,-18.02633944607474 L5.992259824809846,-18.14363082122593 L6.0301104952567375,-18.26035756226212 L6.0698660035209375,-18.376449357359206 L6.111502402370822,-18.491836277160775 L6.1549946115966065,-18.606448816900937 L6.200316433117734,-18.720217938271386 L6.247440566763611,-18.83307511100751 L6.296338626718215,-18.944952354168453 L6.346981158618644,-19.0557822770863 L6.39933765729733,-19.165498119959683 L6.453376585157203,-19.274033794067392 L6.509065391168766,-19.381323921577753 L6.5663705304776165,-19.48730387492979 L6.625257484610611,-19.59190981576245 L6.685690782268505,-19.695078733368447 L6.747634020692539,-19.796748482649548 L6.811049887592089,-19.896857821550462 L6.875900183620209,-19.995346447948762 L6.942145845383481,-20.092155035978635 L7.00974696897234,-20.18722527176656 L7.07866283399771,-20.2804998885574 L7.148851928119425,-20.371922701209765 L7.220271972051728,-20.46143864003983 L7.292879945030722,-20.548993783993264 L7.36663211072847,-20.634535393125244 L7.441484043598129,-20.718011940369035 L7.517390655634229,-20.79937314257397 L7.594306223532013,-20.87856999079413 L7.672184416229437,-20.955554779809507 L7.750978322815276,-21.03028113686185 L7.830640480786492,-21.102704049587864 L7.911122904637885,-21.17277989313299 L7.992377114766758,-21.24046645642938 L8.074354166675223,-21.305722967622273 L8.157004680452523,-21.36851011862942 L8.240278870519669,-21.428790088818822 L8.32412657561838,-21.486526567790442 L8.408497289026377,-21.541684777248264 L8.493340188980726,-21.5942314919494 L8.578604169290971,-21.644135059717765 L8.664237870123603,-21.691365420510152 L8.75018970893929,-21.735894124523274 L8.836407911564274,-21.77769434933087 L8.9228405433772,-21.816740916040526 L9.009435540592591,-21.853010304460504 L9.096140741622118,-21.886480667267417 L9.182903918494798,-21.91713184316625 L9.269672808317164,-21.94494536903476 L9.35639514475449,-21.96990449104498 L9.44301868951406,-21.991994174755092 L9.529491263811575,-22.011201114165615 L9.615760779801693,-22.027513739734445 L9.701775271953808,-22.040922225345906 L9.78748292835414,-22.05141849422964 L9.872832121915284,-22.05899622382575 L9.957771441474453,-22.063650849593287 L10.04224972276163,-22.065379567759724 L10.126216079219017,-22.064181337009884 L10.209619932653183,-22.06005687911317 L10.292411043701494,-22.053008678488787 L10.37453954209441,-22.043040980709247 L10.455955956695488,-22.03015978994297 L10.536611245300925,-22.014372865337627 L10.616456824180757,-21.995689716346284 L10.695444597343887,-21.97412159699928 L10.773526985509292,-21.949681499125234 " />
			<path d="M10.773526985509307,-21.949681499125226 L10.881968641939215,-21.9103800936086 L10.988387989305938,-21.865448193039462 L11.09265765113206,-21.814939577744042 L11.194652823962636,-21.75891470298404 L11.29425142674615,-21.697440626595938 L11.391334246956951,-21.630590928727486 L11.48578508328426,-21.558445623767437 L11.577490884716983,-21.48109106457394 L11.666341885857815,-21.398619839116243 L11.752231738304697,-21.311130659653415 L11.835057637942398,-21.2187282445827 L11.91472044799179,-21.12152319309895 L11.991124817669618,-21.019631852815188 L12.064179296316684,-20.91317618050267 L12.133796442857845,-20.80228359611721 L12.199892930462845,-20.687086830286464 L12.26238964628267,-20.56772376544069 L12.321211786142065,-20.444337270777158 L12.376288944074872,-20.317075031255794 L12.427555196595025,-20.186089370830643 L12.474949181602323,-20.051537070128816 L12.518414171828557,-19.91357917879509 L12.55789814273606,-19.772380822726817 L12.593353834787415,-19.628111006429826 L12.624738810011806,-19.480942410731913 L12.652015502800285,-19.33105118609604 L12.675151264869164,-19.17861674178059 L12.694118404337715,-19.023821531099117 L12.708894218873397,-18.866850833036544 L12.71946102286497,-18.707892530483274 L12.72580616859091,-18.547136885352526 L12.727922061357855,-18.38477631085028 " />
			<path d="M27.223611075682083,-38.0187746017967 L24.748737341529168,-37.1938166904124 " />
			<path d="M24.395183950935895,-38.961583643378766 L23.433518728522174,-38.64102856924086 " />
			<path d="M27.22361107568208,-7.848885271170681 L24.748737341529164,-7.023927359786375 " />
			<path d="M24.395183950935888,-8.791694312752744 L23.433518728522184,-8.471139238614843 " />

       </g>
    </g>
    
</svg>
