<?xml version="1.0" encoding="UTF-8" standalone="no"?>
<svg
   xmlns:svg="http://www.w3.org/2000/svg"
   xmlns="http://www.w3.org/2000/svg"
   width="1024.0"
   height="320.0"

>
    <g transform="scale(3.842391565692937, -3.842391565692937)   translate(67.25371163285386,-18.522269296080957)" stroke-width="0.32"  fill="none">
       <!-- hidden lines -->
       <g  stroke="rgb(32,64,32)" fill="none" stroke-dasharray="0.32,0.32" >

       </g>

       <!-- solid lines -->
       <g  stroke="rgb(64,192,64)" fill="none">
			<path d="M-15.202795795510767,-37.83021279348029 L-15.20279579551077,7.424621202458745 " />
			<path d="M-15.20279579551077,7.4246212024587495 L2.4748737341529186,13.317177712346648 " />
			<path d="M-15.202795795510767,-37.83021279348029 L18.73832970144351,-49.14392129246505 " />
			<path d="M-15.20279579551077,7.4246212024587495 L18.738329701443508,-3.8890872965260117 " />
			<path d="M18.73832970144351,-49.14392129246505 L18.738329701443508,-3.8890872965260144 " />
			<path d="M-13.116830791010456,1.2813461949584037 L-11.116830791009177,3.2813461949596836 " />
			<path d="M-13.116830791010452,-33.07758112230972 L-13.116830791010456,1.2813461949584024 " />
			<path d="M-11.116830791007759,-36.410914455647536 L-13.116830791010454,-33.07758112230971 " />
			<path d="M14.652364696943332,-45.00064628496457 L-11.116830791007756,-36.410914455647536 " />
			<path d="M16.652364696943195,-43.00064628496093 L14.652364696941916,-45.00064628496221 " />
			<path d="M16.65236469694319,-8.641718967692814 L16.652364696943195,-43.000646284960936 " />
			<path d="M14.652364696943328,-5.308385634359705 L16.652364696943195,-8.641718967692814 " />
			<path d="M-11.116830791007763,3.281346194957326 L14.652364696943325,-5.308385634359706 " />
			<path d="M18.738329701443508,-3.889087296526011 L36.41599923110719,2.003469213361888 " />
			<path d="M2.474873734152915,13.317177712346648 L36.41599923110719,2.003469213361887 " />
			<path d="M18.73832970144351,-49.14392129246505 L36.4159992311072,-43.251364782577156 " />
			<path d="M36.41599923110719,-43.251364782577156 L36.415999231107186,2.003469213361882 " />
			<path d="M30.759144981614817,-39.19728590377429 L30.809428872283522,-39.179121719946 L30.859624737375174,-39.15818355995405 L30.90964470540784,-39.13450807755755 L30.959401212820065,-39.10813671839589 L31.008807157257227,-39.079115647435174 L31.057776050050464,-39.04749566815309 L31.10622216762134,-39.0133321336038 L31.15406070154714,-38.97668484951836 L31.201207907024155,-38.93761796961055 L31.24758124946897,-38.89619988327112 L31.293099549001216,-38.85250309584726 L31.33768312255482,-38.80660410171674 L31.38125392336894,-38.75858325037897 L31.423735677614456,-38.708524605797464 L31.465054017916803,-38.65651579923975 L31.50513661354143,-38.60264787587254 L31.543913297013972,-38.547015135380626 L31.581316186953458,-38.489714966888414 L31.617279806903582,-38.430847678473306 L31.65174119995395,-38.370516321569134 L31.684640038950693,-38.30882651056723 L31.715918732103507,-38.24588623793076 L31.773399590480487,-38.11669702984263 L31.823781453682866,-37.98385292150725 L31.866711687765832,-37.84828371859253 L31.901889814405767,-37.71093830031373 L31.91649272455611,-37.641899618170044 L31.929069614015315,-37.57277797801524 L31.93959846603135,-37.50369438226543 L31.948060849089423,-37.434769766737226 L31.954441949177696,-37.3661247889409 L31.95873059572026,-37.297879616860726 L31.96091928113205,-37.23015371859222 L31.961004173961403,-37.16306565320464 L31.9589851255973,-37.096732863194795 L31.954865670529518,-37.031271468895476 L31.948653020161245,-36.96679606519843 L31.940358050184997,-36.90341952094776 L31.92999528154395,-36.841252781354825 L31.917582855011965,-36.78040467378073 L31.90314249943686,-36.720981717226095 L31.8866994937025,-36.66308793586192 L31.86828262247628,-36.60682467692773 L31.847924125819493,-36.55229043331597 L31.82565964274878,-36.49958067115303 L31.80152814884745,-36.448787662679 L31.77557188803593,-36.40000032471835 L31.747836298620715,-36.353304063024694 L31.718369933751347,-36.308780622771835 L31.687224376424627,-36.26650794545292 L31.654454149184847,-36.226560032438286 L31.62011661867816,-36.18900681543068 L31.584271895228117,-36.153914034044774 L31.54698272760821,-36.121343120725264 L31.50831439319563,-36.0913510932049 L31.4683345836985,-36.06399045469087 L31.427113286656656,-36.03930910195411 L31.38472266292343,-36.017350241482596 L31.34123692034284,-35.99815231384524 L31.296732183843446,-35.98174892639891 " />
			<path d="M31.296732183843442,-35.98174892639891 L31.23355171032515,-35.96369742210352 L31.168778201690245,-35.95112211027591 L31.102629164284313,-35.94406521821204 L31.035326723412787,-35.94255044261813 L30.967096877454814,-35.94658287003819 L30.898168738971485,-35.95614895977373 L30.828773765356797,-35.9712165893527 L30.759144981614824,-35.99173516239527 " />
			<path d="M27.930717856868625,-40.140094945356346 L30.759144981614817,-39.19728590377428 " />
			<path d="M27.930717856868625,-36.93454420397734 L27.88043396619992,-36.95270838780563 L27.830238101108268,-36.97364654779758 L27.780218133075604,-36.99732203019408 L27.730461625663377,-37.023693389355735 L27.681055681226216,-37.05271446031645 L27.63208678843298,-37.084334439598535 L27.583640670862106,-37.11849797414783 L27.5358021369363,-37.15514525823327 L27.488654931459287,-37.194212138141076 L27.442281589014474,-37.2356302244805 L27.396763289482227,-37.279327011904364 L27.35217971592862,-37.32522600603489 L27.3086089151145,-37.373246857372656 L27.266127160868987,-37.42330550195416 L27.22480882056664,-37.47531430851188 L27.18472622494201,-37.52918223187908 L27.14594954146947,-37.584814972371 L27.108546651529984,-37.64211514086321 L27.07258303157986,-37.70098242927832 L27.038121638529493,-37.76131378618249 L27.00522279953275,-37.823003597184396 L26.973944106379935,-37.88594386982086 L26.916463248002955,-38.015133077908985 L26.866081384800577,-38.147977186244376 L26.82315115071761,-38.28354638915909 L26.787973024077676,-38.4208918074379 L26.773370113927335,-38.48993048958158 L26.760793224468127,-38.559052129736386 L26.750264372452094,-38.628135725486196 L26.74180198939402,-38.6970603410144 L26.735420889305747,-38.765705318810724 L26.73113224276318,-38.8339504908909 L26.728943557351393,-38.901676389159405 L26.72885866452204,-38.968764454546985 L26.73087771288614,-39.03509724455683 L26.734997167953924,-39.10055863885615 L26.741209818322197,-39.165034042553195 L26.749504788298445,-39.22841058680387 L26.759867556939493,-39.2905773263968 L26.772279983471478,-39.351425433970896 L26.786720339046582,-39.41084839052553 L26.80316334478094,-39.46874217188971 L26.821580216007163,-39.525005430823896 L26.84193871266395,-39.57953967443566 L26.864203195734664,-39.63224943659859 L26.888334689635993,-39.68304244507262 L26.914290950447512,-39.73182978303328 L26.942026539862727,-39.77852604472693 L26.971492904732095,-39.82304948497979 L27.002638462058815,-39.8653221622987 L27.035408689298595,-39.90527007531334 L27.069746219805282,-39.942823292320945 L27.105590943255326,-39.97791607370685 L27.142880110875232,-40.01048698702636 L27.181548445287813,-40.040479014546726 L27.221528254784943,-40.06783965306076 L27.262749551826783,-40.092521005797515 L27.305140175560012,-40.11447986626903 L27.348625918140602,-40.13367779390639 L27.39313065463999,-40.15008118135272 " />
			<path d="M27.39313065464,-40.15008118135272 L27.456311128158294,-40.168132685648104 L27.521084636793198,-40.180707997475714 L27.587233674199133,-40.18776488953959 L27.654536115070655,-40.1892796651335 L27.722765961028628,-40.18524723771343 L27.79169409951196,-40.17568114797789 L27.861089073126646,-40.16061351839892 L27.930717856868625,-40.14009494535635 " />
			<path d="M30.759144981614817,-35.991735162395265 L27.930717856868625,-36.93454420397733 " />
			<path d="M30.759144981614817,-9.027396573148255 L30.809428872283522,-9.009232389319966 L30.859624737375174,-8.988294229328014 L30.90964470540784,-8.964618746931512 L30.959401212820065,-8.938247387769856 L31.008807157257227,-8.90922631680914 L31.057776050050464,-8.877606337527059 L31.10622216762134,-8.843442802977762 L31.15406070154714,-8.806795518892326 L31.201207907024155,-8.767728638984517 L31.24758124946897,-8.726310552645092 L31.293099549001216,-8.682613765221232 L31.33768312255482,-8.636714771090704 L31.38125392336894,-8.588693919752938 L31.423735677614456,-8.538635275171428 L31.465054017916803,-8.486626468613714 L31.50513661354143,-8.43275854524651 L31.543913297013972,-8.37712580475459 L31.581316186953458,-8.319825636262378 L31.617279806903582,-8.26095834784727 L31.65174119995395,-8.200626990943103 L31.684640038950693,-8.138937179941195 L31.715918732103507,-8.07599690730473 L31.773399590480487,-7.9468076992166035 L31.823781453682866,-7.813963590881216 L31.866711687765832,-7.6783943879665 L31.901889814405767,-7.541048969687696 L31.91649272455611,-7.472010287544007 L31.929069614015315,-7.402888647389208 L31.93959846603135,-7.333805051639395 L31.948060849089423,-7.26488043611119 L31.954441949177696,-7.196235458314868 L31.95873059572026,-7.127990286234693 L31.96091928113205,-7.060264387966185 L31.961004173961403,-6.993176322578606 L31.9589851255973,-6.926843532568762 L31.954865670529518,-6.861382138269444 L31.948653020161245,-6.796906734572398 L31.940358050184997,-6.733530190321721 L31.92999528154395,-6.671363450728795 L31.917582855011965,-6.610515343154699 L31.90314249943686,-6.551092386600065 L31.8866994937025,-6.493198605235886 L31.86828262247628,-6.436935346301698 L31.847924125819493,-6.382401102689931 L31.82565964274878,-6.3296913405270026 L31.80152814884745,-6.278898332052968 L31.77557188803593,-6.230110994092319 L31.747836298620715,-6.1834147323986635 L31.718369933751347,-6.1388912921458 L31.687224376424627,-6.096618614826889 L31.654454149184847,-6.056670701812255 L31.62011661867816,-6.019117484804644 L31.584271895228117,-5.984024703418742 L31.54698272760821,-5.951453790099231 L31.50831439319563,-5.921461762578868 L31.4683345836985,-5.894101124064834 L31.427113286656656,-5.869419771328074 L31.38472266292343,-5.84746091085656 L31.34123692034284,-5.8282629832192026 L31.296732183843446,-5.811859595772875 " />
			<path d="M31.296732183843442,-5.811859595772873 L31.23355171032515,-5.793808091477487 L31.168778201690245,-5.7812327796498755 L31.102629164284313,-5.774175887586009 L31.035326723412787,-5.772661111992093 L30.967096877454814,-5.77669353941216 L30.898168738971485,-5.786259629147699 L30.828773765356797,-5.801327258726671 L30.759144981614824,-5.821845831769236 " />
			<path d="M27.930717856868625,-9.970205614730316 L30.759144981614817,-9.027396573148252 " />
			<path d="M27.930717856868625,-6.764654873351302 L27.88043396619992,-6.782819057179591 L27.830238101108268,-6.803757217171542 L27.780218133075604,-6.827432699568044 L27.730461625663377,-6.8538040587297 L27.681055681226216,-6.882825129690417 L27.63208678843298,-6.9144451089724965 L27.583640670862106,-6.948608643521794 L27.5358021369363,-6.985255927607231 L27.488654931459287,-7.0243228075150395 L27.442281589014474,-7.065740893854464 L27.396763289482227,-7.109437681278324 L27.35217971592862,-7.1553366754088525 L27.3086089151145,-7.203357526746618 L27.266127160868987,-7.253416171328127 L27.22480882056664,-7.305424977885842 L27.18472622494201,-7.3592929012530455 L27.14594954146947,-7.414925641744967 L27.108546651529984,-7.472225810237177 L27.07258303157986,-7.531093098652285 L27.038121638529493,-7.591424455556452 L27.00522279953275,-7.65311426655836 L26.973944106379935,-7.716054539194824 L26.916463248002955,-7.845243747282952 L26.866081384800577,-7.978087855618339 L26.82315115071761,-8.113657058533054 L26.787973024077676,-8.251002476811859 L26.773370113927335,-8.320041158955547 L26.760793224468127,-8.389162799110347 L26.750264372452094,-8.458246394860161 L26.74180198939402,-8.527171010388367 L26.735420889305747,-8.595815988184686 L26.73113224276318,-8.664061160264863 L26.728943557351393,-8.73178705853337 L26.72885866452204,-8.79887512392095 L26.73087771288614,-8.865207913930794 L26.734997167953924,-8.930669308230112 L26.741209818322197,-8.995144711927157 L26.749504788298445,-9.058521256177835 L26.759867556939493,-9.12068799577076 L26.772279983471478,-9.181536103344856 L26.786720339046582,-9.24095905989949 L26.80316334478094,-9.29885284126367 L26.821580216007163,-9.355116100197858 L26.84193871266395,-9.409650343809625 L26.864203195734664,-9.462360105972554 L26.888334689635993,-9.513153114446588 L26.914290950447512,-9.561940452407237 L26.942026539862727,-9.608636714100893 L26.971492904732095,-9.653160154353756 L27.002638462058815,-9.695432831672667 L27.035408689298595,-9.735380744687301 L27.069746219805282,-9.772933961694912 L27.105590943255326,-9.808026743080813 L27.142880110875232,-9.840597656400325 L27.181548445287813,-9.870589683920688 L27.221528254784943,-9.897950322434722 L27.262749551826783,-9.922631675171482 L27.305140175560012,-9.944590535642996 L27.348625918140602,-9.963788463280354 L27.39313065463999,-9.98019185072668 " />
			<path d="M27.39313065464,-9.980191850726683 L27.456311128158294,-9.998243355022069 L27.521084636793198,-10.010818666849682 L27.587233674199133,-10.017875558913547 L27.654536115070655,-10.019390334507463 L27.722765961028628,-10.015357907087395 L27.79169409951196,-10.005791817351858 L27.861089073126646,-9.990724187772885 L27.930717856868625,-9.970205614730318 " />
			<path d="M30.759144981614817,-5.82184583176924 L27.930717856868625,-6.764654873351303 " />
			<path d="M-13.116830791010448,1.281346194958406 L-9.116830791010726,2.6146795282916466 " />
			<path d="M16.652364696943195,-40.48186322292983 L-3.338656197955732,-33.81818959129686 " />
			<path d="M-11.116830791007759,-36.410914455647536 L-3.3386561979557365,-33.818189591296864 " />
			<path d="M-3.3386561979557365,-33.81818959129686 L-5.33865619795843,-30.48485625795903 " />
			<path d="M-13.116830791010452,-33.07758112230972 L-5.338656197958431,-30.484856257959045 " />
			<path d="M-5.338656197958431,-30.48485625795904 L-5.338656197958434,1.3552879972742211 " />
			<path d="M27.22361107568208,-38.01877460179671 L27.304752867323085,-37.98807173045734 L27.385524522831243,-37.95019769831795 L27.465557594485496,-37.90532527144036 L27.544487003686484,-37.85365913974108 L27.621952706297904,-37.79543498327842 L27.69760133502267,-37.73091839717514 L27.77108781132204,-37.66040368008057 L27.84207691952473,-37.58421249169887 L27.910244835945647,-37.50269238550715 L27.975280606038954,-37.41621522335669 L28.03688756284732,-37.325175479189085 L28.09478468027693,-37.229988439605236 L28.148707855025233,-37.131088309495325 L28.198411111313668,-37.0289262313712 L28.243667722930013,-36.923968227436156 L28.284271247461902,-36.816693073779575 " />
			<path d="M26.87005768508881,-38.136625731994464 L27.22361107568208,-38.01877460179671 " />
			<path d="M27.22361107568208,-7.848885271170675 L27.304752867323085,-7.818182399831308 L27.385524522831243,-7.780308367691918 L27.465557594485496,-7.73543594081433 L27.544487003686484,-7.683769809115048 L27.6219527062979,-7.625545652652391 L27.69760133502267,-7.561029066549109 L27.77108781132204,-7.490514349454539 L27.84207691952473,-7.414323161072837 L27.910244835945644,-7.332803054881121 L27.97528060603895,-7.246325892730658 L28.036887562847316,-7.155286148563055 L28.09478468027693,-7.060099108979208 L28.14870785502523,-6.961198978869297 L28.198411111313668,-6.85903690074517 L28.24366772293001,-6.754078896810124 L28.2842712474619,-6.646803743153547 " />
			<path d="M26.870057685088806,-7.966736401368432 L27.22361107568208,-7.848885271170675 " />
			<path d="M1.7763568394002505e-15,-29.698484809834998 L-0.0028571313723668723,-29.57773241658851 L-0.011416980981774572,-29.455563180481718 L-0.02564496195179422,-29.332470737789237 L-0.04548358478879244,-29.208952455088614 L-0.07085268967363056,-29.08550741960395 L-0.10164977035494105,-28.962634422597088 L-0.1377503883352682,-28.840829943954667 L-0.17900867567650391,-28.7205861461145 L-0.2252579243929964,-28.60238888543702 L-0.27631126005082396,-28.486715749057 L-0.3319623968515,-28.374034125147897 L-0.39198647114911966,-28.264799314396004 L-0.4561409500330459,-28.159452690315277 L-0.5241666113049152,-28.058419915836183 L-0.59578859089028,-27.962109223374647 L-0.6707174934527231,-27.870909765330634 L-0.748650561722898,-27.785190041681304 L-0.829272899817716,-27.705296411022257 L-0.9122587456067419,-27.631551691073085 L-0.9972727869846836,-27.56425385430204 L-1.0839715167314496,-27.50367482394031 L-1.172004620485342,-27.45005937525064 L-1.2610163922211401,-27.403624146489896 L-1.350647171513709,-27.364556763561836 L-1.440534796779736,-27.33301508189703 L-1.5303160686256247,-27.309126548623155 L-1.6196282173887626,-27.292987687602896 L-1.7081103689424195,-27.284663709420236 L-1.7954050028415587,-27.284188247890942 L-1.8811593969177773,-27.29156322416199 L-1.923350441598663,-27.298186550857974 L-1.965027052486361,-27.306758838948976 L-2.0061471193784848,-27.317271426963288 L-2.046669094406757,-27.32971369294293 " />
			<path d="M-2.0466690944067687,-27.32971369294294 L-2.1079735181649575,-27.35268790215105 L-2.167606613423449,-27.380177686796575 L-2.225424718832522,-27.412116821580472 L-2.281288545511979,-27.448428362329516 L-2.3350635126102555,-27.489024831361522 L-2.386620071521481,-27.533808428226767 L-2.435834017979418,-27.582671265317813 L-2.4825867912764146,-27.63549562778024 L-2.526765759886541,-27.692154257098 L-2.568264492804794,-27.75251065767036 L-2.606983015948714,-27.816419425641747 L-2.642828053004705,-27.883726599192368 L-2.6757132501388448,-27.954270029445727 L-2.7055593840308343,-28.027879771099467 L-2.732294552729915,-28.1043784918385 L-2.7558543488729668,-28.183581899544063 L-2.7761820148474863,-28.265299186269594 L-2.793228579525648,-28.349333487913785 L-2.806952976240039,-28.435482358483437 L-2.8173221417168595,-28.5235382578036 L-2.8243110957282447,-28.613289051500026 L-2.82790300127182,-28.704518522049458 L-2.828089205132518,-28.797006889666584 L-2.824869258728928,-28.89053134177279 L-2.8182509191939715,-28.984866569771178 L-2.808250130687285,-29.079785311834712 L-2.7948909859843476,-29.175058900399858 L-2.778205668434871,-29.270457813046786 L-2.7582343744302933,-29.365752225438968 L-2.7350252165671503,-29.460712564990143 L-2.7086341077396163,-29.555110063924797 L-2.679124626440445,-29.64871731039975 L-2.6465678635948118,-29.741308796359213 L-2.6110422512960465,-29.832661460803454 L-2.5726333738558544,-29.922555227162285 L-2.531433761624208,-30.010773533478776 L-2.4875426680756334,-30.097103854126 L-2.4410658306988955,-30.181338211799883 L-2.3921152162661246,-30.26327367855472 L-2.3408087510950564,-30.342712864674407 L-2.2872700369542036,-30.419464394201526 L-2.23162805329537,-30.493343365978806 L-2.1740168465308516,-30.564171799092207 L-2.114575207103889,-30.631779061642515 L-2.053446335130335,-30.696002281812554 L-1.9907774954170299,-30.75668674023964 L-1.926719662687986,-30.813686242748098 L-1.8614271578730515,-30.86686347254381 L-1.795057276335273,-30.91609032102243 L-1.7277699089325893,-30.961248196394205 L-1.6597271568267515,-31.002228309382005 L-1.5910929409674246,-31.03893193530421 L-1.5220326071922599,-31.07127065191111 L-1.452712527894293,-31.09916655240187 L-1.3832997012162742,-31.122552433108805 L-1.3139613487375161,-31.141371955396938 L-1.2448645126224631,-31.155579781388678 L-1.1761756532014846,-31.165141683186757 L-1.1080602479533592,-31.170034625332214 L-1.0406823928555338,-31.170246820298857 L-0.9742044070625429,-31.165777756890414 L-0.9087864418649447,-31.15663820147209 L-0.8445860948708377,-31.142850172033413 L-0.7817580303394234,-31.124446885144994 " />
			<path d="M-0.7817580303394177,-31.12444688514499 L-0.7383813677674542,-31.10872632293834 L-0.6958136288207654,-31.090753562710688 L-0.6541057640903163,-31.070550116592518 L-0.6133076949580853,-31.048140166688516 L-0.5734682538446797,-31.023550536133275 L-0.5346351257603599,-30.996810656985897 L-0.496854791229436,-30.967952535001874 L-0.4601724706563466,-30.937010711324476 L-0.42463207020001437,-30.9040222211414 L-0.39027612922126087,-30.869026549356267 L-0.3571457693661808,-30.83206558332798 L-0.32528064534642387,-30.79318356273448 L-0.29471889747529234,-30.75242702662098 L-0.2654971060164666,-30.70984475769597 L-0.23765024740000218,-30.665487723941784 L-0.21121165235800232,-30.619409017609488 L-0.18621296603007198,-30.571663791671178 L-0.16268411008631367,-30.522309193805764 L-0.12014674590513019,-30.41901003382716 L-0.08380315581171716,-30.310005957012937 L-0.053827290628174485,-30.19581868806683 L-0.030362623423025648,-30.076994759933317 L-0.013521462808054219,-29.954102897934547 L-0.003384415397151841,-29.82773129768821 L1.7763568394002505e-15,-29.698484809835016 " />
			<path d="M-8.881784197001252e-16,-0.4714045207910319 L-0.0004420108132263678,-0.4241167317742047 " />
			<path d="M-2.8279851139329653,0.5183976359323927 L-2.8273320822410426,0.39684997389316123 L-2.8208280549502813,0.2736591606121889 L-2.8084999618861137,0.14933526576600342 L-2.790398847329146,0.024393050538007666 L-2.7665996586671024,-0.10065016374232083 L-2.737200936076308,-0.2252766375604736 L-2.7023244045176016,-0.3489703569094468 L-2.662114469735995,-0.47121916983783674 L-2.616737620350899,-0.5915169070071552 L-2.5663817385125434,-0.7093654774782263 L-2.5112553219788087,-0.8242769310490954 L-2.4515866208334516,-0.93577547860537 L-2.387622692420128,-1.043399462117765 L-2.3196283784052447,-1.1467032661301053 L-2.2478852082050906,-1.2452591628233005 L-2.172690233317603,-1.338659083015832 L-2.094354797385182,-1.4265163057679522 L-2.0132032470811123,-1.5084670595938143 L-1.9295715891571215,-1.5841720286517433 L-1.8438060992125715,-1.6533177576762816 L-1.75626188794564,-1.715617949834918 L-1.66730143082291,-1.7708146521357397 L-1.5772930672552503,-1.8186793234778476 L-1.486609475494123,-1.8590137809222833 L-1.3956261295629884,-1.8916510202654577 L-1.3047197446128587,-1.9164559075174963 L-1.2142667171389834,-1.933325738422456 L-1.1246415665169205,-1.942190663703727 L-1.0802555871767168,-1.9436085166034882 L-1.0362153843107973,-1.9430139782738898 L-0.9925665566687197,-1.940407664293485 L-0.9493542977743694,-1.9357922732115707 L-0.9066233491330734,-1.9291725837541371 L-0.8644179539067308,-1.9205554498760273 L-0.8227818111049205,-1.9099497936644259 L-0.781758030339426,-1.8973665961010293 " />
			<path d="M-0.7817580303394204,-1.8973665961010273 L-0.7383813677674569,-1.8816460338943761 L-0.695813628820768,-1.8636732736667214 L-0.654105764090319,-1.8434698275485528 L-0.613307694958088,-1.8210598776445512 L-0.5734682538446824,-1.7964702470893106 L-0.5346351257603625,-1.7697303679419305 L-0.49685479122943865,-1.7408722459579105 L-0.46017247065634925,-1.709930422280511 L-0.42463207020001703,-1.676941932097433 L-0.39027612922126353,-1.6419462603123023 L-0.3571457693661835,-1.6049852942840157 L-0.32528064534642653,-1.5661032736905167 L-0.294718897475295,-1.5253467375770118 L-0.26549710601646925,-1.4827644686520038 L-0.23765024740000484,-1.43840743489782 L-0.211211652358005,-1.3923287285655224 L-0.18621296603007464,-1.3445835026272117 L-0.16268411008631634,-1.2952289047617989 L-0.12014674590513286,-1.1919297447831934 L-0.08380315581171982,-1.0829256679689712 L-0.05382729062817715,-0.9687383990228658 L-0.030362623423028312,-0.8499144708893525 L-0.013521462808056883,-0.7270226088905819 L-0.0033844153971545055,-0.6006510086442451 L-8.881784197001252e-16,-0.4714045207910487 " />
			<path d="M16.65236469694319,-16.41962621544352 L16.57027642706435,-16.154414200706945 L16.483711114834335,-15.89054861965907 L16.392723933671768,-15.628197650127598 L16.297372875325394,-15.367528504584795 L16.197718712912334,-15.108707323572649 L16.09382496218364,-14.851899069811243 L15.985757841041778,-14.597267423057845 L15.873586227335867,-14.34497467578365 L15.75738161496158,-14.09518162973482 L15.637218068293679,-13.848047493443577 L15.513172174980175,-13.603729780754751 L15.385322997128345,-13.362384210432527 L15.25375202091353,-13.124164606911235 L15.118543104642992,-12.889222802253537 L14.979782425307805,-12.657708539378493 L14.837558423656965,-12.429769376621138 L14.691961747828628,-12.205550593684453 L14.543085195574456,-11.98519509904364 L14.391023655113878,-11.768843338861725 L14.235874044655967,-11.556633207474526 L14.07773525062749,-11.34869995950212 L13.916708064646482,-11.145176123642695 L13.752895119281499,-10.946191418203817 L13.586400822637586,-10.751872668424973 L13.417331291810509,-10.562343725643991 L13.245794285251803,-10.377725388358948 L13.071899134087637,-10.198135325235823 L12.89575667243535,-10.023688000110985 L12.71747916676202,-9.854494599036336 L12.537180244330111,-9.69066295941356 L12.354974820775807,-9.532297501262704 L12.170979026866164,-9.379499160668828 L11.98531013448183,-9.232365325449233 L11.798086481872424,-9.09098977308218 L11.609427398232237,-8.955462610936696 L11.419453127644408,-8.825870218841615 L11.228284752441919,-8.702295194030357 L11.03604411603436,-8.584816298496623 L10.84285374524959,-8.473508408794503 L10.648836772239834,-8.368442468315028 L10.454116856001955,-8.26968544206957 L10.258818103561937,-8.177300274008907 L10.063064990873828,-8.091345846905151 L9.866982283483491,-8.011876944822117 L9.670694957007873,-7.938944218198067 L9.47432811748029,-7.87259415156306 L9.278006921612619,-7.812869033911474 L9.081856497025239,-7.759806931748635 L8.886001862495434,-7.713441664828677 L8.690567848275222,-7.67380278459912 L8.495679016529326,-7.640915555365922 L8.301459581944018,-7.6148009381909585 L8.108033332557422,-7.595475577532252 L7.915523550861758,-7.582951790635434 L7.724052935227807,-7.5772375596832 L7.533743521701631,-7.578336526707771 L7.3447166062235105,-7.586247991269607 L7.157092667318526,-7.60096691090383 L6.9709912893081425,-7.622483904334109 L6.786531086091772,-7.6507852574519255 L6.603829625546783,-7.685852932057413 L6.423003354595247,-7.727664577356219 L6.244167524985116,-7.776193544205054 L6.067436119833237,-7.831408902096806 " />
			<path d="M6.067436119833173,-7.831408902096827 L5.897750187468289,-7.891463082216852 L5.730261789163134,-7.957767052741458 L5.565071813666052,-8.030280874638068 L5.402279765241433,-8.108960868291833 L5.2419837037320605,-8.193759639816617 L5.08428018549153,-8.284626109603277 L4.929264205222318,-8.381505543088137 L4.777029138754517,-8.484339583723013 L4.627666686799731,-8.593066288127046 L4.481266819713996,-8.707620163399053 L4.337917723303001,-8.827932206568015 L4.1977057457022555,-8.953929946157883 L4.060715345364203,-9.085537485841693 L3.927029040183606,-9.222675550158657 L3.796727357791852,-9.365261532266752 L3.6698887870501213,-9.513209543701993 L3.546589730770628,-9.666430466114422 L3.426904459694427,-9.824832004949679 L3.3109050677534935,-9.988318745043783 L3.1986614286440354,-10.156792208097661 L3.0902411537371925,-10.330150911996805 L2.9857095513524756,-10.508290431940281 L2.8851295874184713,-10.691103463342344 L2.7885618475445257,-10.878479886468693 L2.696064500526237,-11.070306832768495 L2.6076932633067553,-11.266468752862167 L2.5235013674149647,-11.466847486144017 L2.443539526900812,-11.671322331957754 L2.3678559077870602,-11.87977012230207 L2.2964960990558696,-12.092065296022426 L2.2295030851877025,-12.308079974444398 L2.1669172202690854,-12.527684038403018 L2.1087762036848083,-12.75074520662168 L2.0551150574092265,-12.977129115393446 L2.0059661049103434,-13.206699399516705 L1.9613589516793395,-13.439317774436493 L1.921320467397356,-13.674844119541916 L1.8858747697501883,-13.913136562569582 L1.855043209900698,-14.15405156506214 L1.8288443596276736,-14.397444008830478 L1.8072940001388824,-14.643167283367504 L1.7904051125650575,-14.891073374160817 L1.7781878701405605,-15.141012951851128 L1.7706496320753926,-15.392835462182685 L1.767794939122295,-15.646389216691512 L1.7696255108415553,-15.901521484076879 L1.7761402445652203,-16.158078582200922 L1.7873352160612974,-16.415905970661015 L1.803203681897564,-16.674848343879145 L1.8237360835035599,-16.934749724652157 L1.8489200529283156,-17.195453558106617 L1.8787404202903355,-17.456802806001594 L1.913179222915379,-17.71864004132263 L1.9522157161564921,-17.9808075431099 L1.995826385889818,-18.243147391463395 L2.0439849626786133,-18.505501562667995 L2.096662437596991,-18.76771202438101 L2.1538270797037917,-19.02962083082499 L2.2154444551561383,-19.29107021792833 L2.2814774479510787,-19.551902698356468 L2.3518862822828863,-19.81196115637634 L2.426628546502516,-20.071088942497063 L2.5056592186647944,-20.329129967829672 L2.5889306936479572,-20.58592879810929 L2.6763928118291975,-20.841330747322882 L2.7679928892989416,-21.095181970886337 L2.863675749595669,-21.34732955831469 L2.9633837569421475,-21.597621625329676 L3.0670568509630787,-21.84590740534915 L3.1746325828632065,-22.09203734030323 L3.2860461530441523,-22.335863170722494 L3.4012304501372608,-22.577238025043933 L3.5201160914289824,-22.81601650808089 L3.6426314646544204,-23.052054788603684 L3.768702771133891,-23.285210685978164 L3.8982540702264785,-23.515343755810022 L4.031207325073847,-23.742315374543214 L4.1674824496067195,-23.965988822961634 L4.3069973567857325,-24.186229368543643 L4.449668008047595,-24.402904346619906 L4.595408463926792,-24.61588324028563 L4.744130935822285,-24.82503775901906 L4.895745838878096,-25.03024191595891 L5.050161845945869,-25.231372103794115 L5.207285942596937,-25.428307169220258 L5.367023483150724,-25.62092848591781 L5.52927824768577,-25.809120026008166 L5.693952499999018,-25.99276842994451 L5.860947046478438,-26.171763074795365 L6.030161295853564,-26.345996140879713 L6.2014933197878985,-26.515362676713547 L6.374839914276743,-26.6797606622287 L6.55009666181342,-26.839091070225926 L6.727157994286483,-26.993257926025205 L6.905917256570005,-27.142168365277268 L7.086266770768624,-27.28573268990163 L7.268097901078689,-27.423864422117354 L7.451301119226406,-27.55648035653403 L7.635766070443571,-27.6835006102716 L7.8213816399411655,-27.80484867107881 L8.008036019840732,-27.920451443421307 L8.195616776523273,-28.03023929251171 L8.384010918355063,-28.134146086254958 L8.573104963749573,-28.23210923508383 L8.762785009524539,-28.32406972966054 L8.952936799512978,-28.409972176421782 L9.143445793386837,-28.489764830945735 L9.334197235651796,-28.563399629120944 L9.525076224771691,-28.630832216098376 L9.7159677823809,-28.692021973009098 L9.906756922543014,-28.746932041431577 L10.097328721014069,-28.795529345593827 L10.287568384468601,-28.837784612296986 L10.47736131964686,-28.873672388548407 L10.666593202381515,-28.90317105689362 L10.855150046462242,-28.926262848437837 L11.04291827229676,-28.942933853549285 L11.229784775326932,-28.953174030237857 L11.415636994158724,-28.956977210204023 L11.60036297836497,-28.954341102554373 L11.78385145592014,-28.945267295181594 L11.96599190022642,-28.929761253807957 L12.146674596690842,-28.907832318692968 L12.325790708813212,-28.87949369900717 L12.503232343745172,-28.84476246487541 L12.6788926172808,-28.803659537094447 L12.852665718239688,-28.75620967453104 L13.02444697220358,-28.70244145920814 " />
			<path d="M13.02444697220361,-28.70244145920813 L13.173313302451326,-28.650135710069577 L13.320500539757084,-28.593023622709993 L13.465940551856557,-28.531131634039966 L13.609566015267571,-28.464488393563414 L13.751310446453811,-28.39312475011586 L13.891108232599727,-28.31707373758467 L14.02889466198241,-28.23637055961781 L14.16460595392631,-28.151052573328265 L14.298179288327027,-28.061159272001586 L14.429552834730423,-27.96673226681466 L14.558665780953639,-27.867815267574095 L14.685458361234787,-27.764454062483132 L14.809871883898193,-27.65669649694655 L14.931848758522523,-27.544592451423235 L15.051332522599111,-27.428193818336737 L15.168267867668156,-27.30755447805455 L15.282600664920775,-27.18273027394714 L15.394277990254947,-27.0537789865383 L15.50324814877383,-26.92076030675885 L15.609460698715088,-26.783735808315967 L15.712866474800132,-26.642768919191028 L15.813417610992488,-26.497924892279098 L15.911067562654768,-26.34927077518367 L16.00577112809395,-26.196875379180675 L16.097484469485018,-26.040809247366045 L16.1861651331633,-25.881144622001678 L16.271772069276036,-25.717955411074826 L16.354265650784193,-25.55131715408644 L16.433607691805605,-25.381306987084315 L16.50976146529103,-25.208003606957185 L16.58269172002496,-25.031487235006278 L16.652364696943177,-24.85183957981134 " />
			<path d="M11.908871511995272,-13.570602058807326 L11.876459932693265,-13.675036148494373 L11.846315687572556,-13.781314916794635 L11.818459323889993,-13.889365920787718 L11.792909829411135,-13.999115509542152 L11.76968461946761,-14.110488874318163 L11.748799525086273,-14.223410099559636 L11.730268782198284,-14.337802214640533 L11.714105021935467,-14.453587246330459 L11.700319262020516,-14.570686271943654 L11.688920899256992,-14.689019473135154 L11.679917703124156,-14.80850619030746 L11.673315810481055,-14.929064977590631 L11.669119721383446,-15.050613658358333 L11.667332296016422,-15.173069381241985 L11.667954752744809,-15.296348676604836 L11.670986667282708,-15.420367513437458 L11.676425972982685,-15.545041356635926 L11.684268962244472,-15.670285224623557 L11.694510289042183,-15.796013747277007 L11.707142972568324,-15.922141224117208 L11.722158401992138,-16.048581682725494 L11.73954634232901,-16.175248937345064 L11.759294941416952,-16.302056647627893 L11.781390737995409,-16.42891837748699 L11.805818670880873,-16.555747654013953 L11.83256208923305,-16.68245802642157 L11.861602763904598,-16.80896312497139 L11.892920899866677,-16.93517671984601 L11.926495149701864,-17.061012779926024 L11.962302628155209,-17.186385531431508 L12.000318927733545,-17.311209516388097 L12.040518135342396,-17.43539965087781 L12.08287284994914,-17.558871283034886 L12.127354201260426,-17.681540250747158 L12.17393186940104,-17.803322939023555 L12.2225741055809,-17.924136336988678 L12.273247753736008,-18.04389809446562 L12.32591827312866,-18.162526578108405 L12.38054976189149,-18.279940927045804 L12.437104981499298,-18.39606110799865 L12.495545382151992,-18.510807969833007 L12.555831129051333,-18.624103297512036 L12.617921129553578,-18.735869865409814 L12.681773061179499,-18.84603148995073 L12.747343400462707,-18.954513081538575 L12.814587452616609,-19.06124069573996 L12.883459381999756,-19.16614158368714 L12.953912243358856,-19.2691442416659 L13.025898013828112,-19.37017845985474 L13.09936762566311,-19.46917537018205 L13.174270999686922,-19.566067493268754 L13.25055707942563,-19.66078878442435 L13.328173865910014,-19.75327467866503 L13.407068453119665,-19.843462134723172 L13.487187064045385,-19.931289678018256 L13.568475087345261,-20.016697442559845 L13.650877114569472,-20.099627211754093 L13.7343369779284,-20.180022458086018 L13.818797788578355,-20.257828381650395 L13.904201975398781,-20.332991947505086 L13.990491324234526,-20.40546192182132 L14.07760701757643,-20.47518890680625 L14.165489674653154,-20.54212537437403 L14.254079391906973,-20.606225698542453 " />
			<path d="M6.792557032605291,-7.64974903645799 L6.64292695337385,-7.729711887419324 L6.495571229782034,-7.814977499348332 L6.350567490185108,-7.905500953533661 L6.20799212389146,-8.001234561384122 L6.067920240920011,-8.10212788955149 L5.930425632431558,-8.208127786499253 L5.795580731854915,-8.319178410503326 L5.663456576728306,-8.435221259070003 L5.534122771276149,-8.556195199755592 L5.40764744974089,-8.682036502371568 L5.2840972404892685,-8.812678872558207 L5.163537230911875,-8.948053486709082 L5.046030933134509,-9.08808902822796 L4.931640250559411,-9.232711725099062 L4.820425445253978,-9.38184538875082 L4.712445106204141,-9.535411454192737 L4.607756118449163,-9.693329021404137 L4.506413633114059,-9.855514897953048 L4.408471038355485,-10.021883642822752 L4.313979931236359,-10.192347611422882 L4.222990090544057,-10.366817001761417 L4.1355494505664785,-10.545199901753188 L4.051704075839833,-10.72740233764003 L3.9714981368814115,-10.913328323497003 L3.8949738869201482,-11.10287991179868 L3.8221716396372347,-11.295957245018812 L3.7531297479284964,-11.492458608236165 L3.687884583699735,-11.692280482718912 L3.6264705187056707,-11.895317600459244 L3.5689199064425896,-12.10146299962952 L3.515263065104217,-12.31060808093076 L3.4655282616098173,-12.522642664803744 L3.4197416967129186,-12.737455049472633 L3.3779274911985127,-12.954932069790488 L3.340107673176007,-13.174959156855714 L3.306302166474606,-13.39742039836802 L3.276528780147264,-13.622198599692084 L3.2508031990887023,-13.849175345596764 L3.229138975772467,-14.078231062637354 L3.211547523111361,-14.309245082147951 L3.19803810844501,-14.542095703810846 L3.1886178486577528,-14.776660259769354 L3.1832917064293955,-15.012815179250394 L3.1820624876208194,-15.250436053662703 L3.1849308397958405,-15.489397702136419 L3.1918952518800614,-15.729574237469535 L3.202952054956909,-15.970839132446436 L3.218095424200474,-16.213065286493595 L3.2373173819440657,-16.45612509263734 L3.260607801882929,-16.69989050472838 L3.287954414408871,-16.944233104897695 L3.319342813074006,-17.18902417120826 L3.354756462180207,-17.43413474546695 L3.3941767054902607,-17.67943570116089 L3.4375827760561464,-17.924797811482527 L3.4849518071592556,-18.170091817407474 L3.5362588443567935,-18.41518849578938 L3.5914768586280044,-18.659958727435846 L3.6505767606133155,-18.904273565129643 L3.7135274159388727,-19.14800430155927 L3.780295661618424,-19.39102253712317 L3.850846323523882,-19.633200247571814 L3.9251422349153797,-19.874409851452064 L4.003144256021051,-20.114524277318257 L4.084811294656229,-20.353417030674613 L4.170100327871182,-20.590962260613715 L4.258966424616003,-20.827034826115906 L4.351362769410701,-21.061510361974754 L4.447240687008032,-21.29426534431379 L4.546549668036061,-21.525177155660014 L4.649237395606972,-21.754124149539916 L4.755249772878084,-21.98098571456396 L4.864530951550567,-22.205642337965784 L4.97702336129084,-22.427975668562624 L5.092667740059162,-22.64786857910381 L5.211403165329413,-22.86520522797448 L5.333167086183645,-23.079871120222016 L5.45789535626448,-23.291753167873033 L5.585522267568014,-23.500739749509183 L5.715980585059388,-23.706720769070333 L5.849201582092832,-23.9095877138542 L5.985115076617493,-24.10923371168183 L6.123649468149988,-24.305553587198855 L6.2647317754942,-24.498443917282838 L6.408287675188441,-24.687803085527534 L6.5542415406597545,-24.873531335775354 L6.7025164820646665,-25.05553082466981 L6.853034386795483,-25.233705673200316 L7.005715960630727,-25.40796201721213 L7.160480769508069,-25.578208056854862 L7.317247281897728,-25.74435410494347 L7.47593291175404,-25.906312634206316 L7.636454062022544,-26.063998323395317 L7.798726168679686,-26.217328102233996 L7.962663745281924,-26.36622119517964 L8.128180428000773,-26.510599163976607 L8.29518902112008,-26.650385948978354 L8.463601542971524,-26.78550790921632 L8.633329272284154,-26.915893861194697 L8.804282794923605,-27.041475116390522 L8.976372050996263,-27.16218551743946 L9.149506382293666,-27.277961472988103 L9.323594580052076,-27.388741991194458 L9.498544933002094,-27.494468711859042 L9.674265275683016,-27.59508593716957 L9.850663036996437,-27.69054066104306 L10.027645288973563,-27.780782597049928 L10.205118795730524,-27.865764204905368 L10.382990062585899,-27.945440715514 L10.561165385314581,-28.01977015455462 L10.739550899512013,-28.088713364592685 L10.918052630042837,-28.15223402570882 L11.096576540547854,-28.210298674632448 L11.275028582983257,-28.262876722370596 L11.453314747165996,-28.309940470322417 L11.631341110299218,-28.351465124871105 L11.809013886451657,-28.387428810445364 L11.98623947596494,-28.417812581043705 L12.16292451476273,-28.44260043021533 L12.33897592353581,-28.461779299492505 L12.514300956777099,-28.475339085269887 L12.68880725164086,-28.483272644127155 L12.862402876600278,-28.485575796592293 L13.034996379877859,-28.48224732934332 L13.206496837623055,-28.4732889958475 L13.376813901811794,-28.458705515437607 L13.545857847842653,-28.438504570825724 L13.713539621804573,-28.412696804055933 " />
			<path d="M14.495689014324224,-18.974031961839025 L14.493902856031252,-18.82361086336037 L14.488546185893302,-18.672150978722808 L14.479624416309775,-18.51980534355615 L14.467146561869782,-18.366727888455827 L14.451125230243782,-18.21307328345085 L14.431576609444733,-18.058996781724627 L14.408520451471677,-17.90465406274659 L14.381980052352237,-17.75020107497307 L14.351982228604227,-17.595793878276393 L14.318557290140143,-17.44158848626141 L14.281739009641916,-17.287740708628778 L14.241564588436866,-17.134405993744252 L14.198074618909349,-16.981739271573083 L14.151313043486049,-16.8298947971382 L14.101327110236403,-16.679025994660368 L14.048167325132958,-16.529285302537783 L13.991887401019971,-16.380824019321757 L13.932544203341727,-16.23379215084408 L13.870197692685505,-16.088338258650598 L13.80491086419716,-15.944609309894041 L13.736749683930606,-15.802750528837901 L13.66578302219547,-15.662905250121279 L13.592082583970262,-15.525214773933032 L13.51572283645142,-15.389818223241546 L13.436780933811356,-15.256852403224364 L13.355336639241603,-15.126451663039727 L13.271472244359805,-14.998747760079699 L13.18527248606193,-14.873869726841988 L13.096824460903827,-14.751943740555056 L13.006217537098518,-14.633092995688154 L12.91354326421824,-14.517437579475184 L12.818895280692411,-14.405094350578118 L12.72236921919501,-14.29617682101256 L12.624062610016974,-14.190795041454795 L12.524074782521229,-14.089055490046167 L12.42250676477993,-13.991060964807179 L12.319461181495322,-13.896910479769984 L12.215042150307363,-13.806699164934244 L12.109355176592874,-13.720518170147418 L12.00250704686251,-13.638454573006634 L11.894605720863275,-13.560591290875141 L11.785760222495595,-13.48700699710231 L11.676080529655163,-13.417776041531788 L11.565677463110864,-13.352968375378133 L11.45466257453106,-13.292649480547862 L11.343148033771369,-13.236880303476273 L11.231246515537826,-13.185717193546948 L11.119071085539947,-13.13921184615613 L11.006735086248703,-13.097411250479492 L10.89435202237488,-13.060357641994113 L10.782035446183492,-13.02808845980359 L10.669898842760157,-13.000636308809419 L10.558055515345332,-12.978028926766893 L10.446618470852313,-12.96028915625877 L10.335700305684618,-12.947434921615043 L10.22541309196817,-12.93947921080212 L10.115868264313205,-12.936430062299745 L10.007176507220322,-12.938290556978888 L9.89944764324446,-12.945058814988819 L9.792790522029776,-12.95672799765651 L9.687312910327561,-12.973286314396466 L9.583121383108317,-12.994717034623974 L9.480321215878007,-13.020998504659747 L9.379016278307326,-13.052104169608867 " />
			<path d="M9.379016278307297,-13.052104169608876 L9.301886309050532,-13.079401524208887 L9.225755218911825,-13.109539692629163 L9.150668866413152,-13.142500520763985 L9.076672480765597,-13.17826415424297 L9.003810634624973,-13.216809050390598 L8.932127217242915,-13.258111991202718 L8.861665408029635,-13.302148097332198 L8.792467650544271,-13.348890843075324 L8.72457562692846,-13.398312072349885 L8.65803023279858,-13.450382015655341 L8.592871552611765,-13.50506930800487 L8.529138835520516,-13.562341007818446 L8.466870471730491,-13.622162616765632 L8.406103969375675,-13.684498100546069 L8.346875931924878,-13.749309910595205 L8.289222036133182,-13.816559006702132 L8.233177010551595,-13.886204880525964 L8.178774614607867,-13.958205579996536 L8.126047618271079,-14.032517734584765 L8.075027782312233,-14.109096581427437 L8.02574583917276,-14.187895992290684 L7.978231474452435,-14.2688685013559 L7.932513309027887,-14.351965333811384 L7.888618881812457,-14.43713643523245 L7.846574633167781,-14.524330501732361 L7.806405888977107,-14.613495010865847 L7.768136845389929,-14.704576253266689 L7.731790554247134,-14.797519365000205 L7.6973889091954275,-14.892268360611258 L7.664952632499432,-14.988766166847784 L7.634501262559356,-15.08695465703959 L7.6060531421418025,-15.18677468611169 L7.5796254073307665,-15.288166126211081 L7.5552339772055035,-15.39106790292552 L7.532893544251465,-15.495418032072457 L7.5126175655101,-15.601153657035995 L7.494418254472834,-15.70821108662937 L7.478306573724121,-15.816525833460126 L7.464292228337991,-15.926032652774927 L7.452383660032069,-16.036665581760534 L7.442588042082619,-16.148357979277364 L7.434911275003608,-16.2610425660016 L7.429357982992473,-16.37465146495174 L7.42593151114467,-16.489116242375175 L7.424633923438715,-16.604367948970097 L7.425466001492924,-16.72033716141799 L7.428427244094591,-16.836954024201646 L7.433515867501899,-16.954148291683506 L7.440728806518383,-17.07184937041902 L7.450061716339291,-17.18998636167948 L7.461508975168725,-17.30848810415878 L7.475063687606006,-17.427283216838315 L7.490717688799208,-17.54630014198424 L7.50846154936335,-17.66546718825118 L7.5282845810603165,-17.784712573866408 L7.550174843237042,-17.903964469868495 L7.574119150018122,-18.023151043374412 L7.600103078248487,-18.14220050084895 L7.628110976181371,-18.261041131350467 L7.658125972906344,-18.379601349726894 L7.6901299885117105,-18.497809739735928 L7.724103744975179,-18.615595097063526 L7.760026777776215,-18.732886472214716 L7.797877448223106,-18.849613213250905 L7.837632956487306,-18.965705008347992 L7.879269355337191,-19.08109192814956 L7.922761564562975,-19.195704467889723 L7.9680833860841025,-19.309473589260172 L8.01520751972998,-19.422330761996296 L8.064105579684583,-19.53420800515724 L8.114748111585012,-19.645037928075087 L8.1671046102637,-19.75475377094847 L8.221143538123572,-19.863289445056175 L8.276832344135135,-19.970579572566535 L8.334137483443985,-20.076559525918576 L8.39302443757698,-20.181165466751235 L8.453457735234874,-20.284334384357233 L8.515400973658908,-20.386004133638334 L8.578816840558458,-20.486113472539248 L8.64366713658658,-20.584602098937548 L8.70991279834985,-20.68141068696742 L8.77751392193871,-20.776480922755347 L8.846429786964078,-20.869755539546187 L8.916618881085794,-20.96117835219855 L8.988038925018097,-21.050694291028616 L9.060646897997092,-21.13824943498205 L9.13439906369484,-21.22379104411403 L9.209250996564498,-21.30726759135782 L9.2851576086006,-21.388628793562756 L9.362073176498383,-21.467825641782916 L9.439951369195807,-21.544810430798293 L9.518745275781646,-21.619536787850635 L9.598407433752861,-21.69195970057665 L9.678889857604254,-21.762035544121776 L9.760144067733128,-21.829722107418167 L9.842121119641591,-21.89497861861106 L9.924771633418892,-21.957765769618206 L10.008045823486038,-22.018045739807604 L10.091893528584748,-22.075782218779228 L10.176264241992746,-22.130940428237047 L10.261107141947095,-22.183487142938183 L10.34637112225734,-22.23339071070655 L10.432004823089972,-22.280621071498935 L10.517956661905657,-22.32514977551206 L10.604174864530643,-22.366950000319655 L10.690607496343569,-22.405996567029312 L10.77720249355896,-22.442265955449287 L10.863907694588487,-22.475736318256203 L10.950670871461167,-22.506387494155035 L11.037439761283533,-22.534201020023545 L11.124162097720859,-22.559160142033765 L11.21078564248043,-22.58124982574388 L11.297258216777944,-22.6004567651544 L11.383527732768062,-22.61676939072323 L11.469542224920177,-22.63017787633469 L11.555249881320508,-22.640674145218426 L11.640599074881653,-22.64825187481454 L11.725538394440822,-22.652906500582073 L11.810016675727999,-22.65463521874851 L11.893983032185384,-22.65343698799867 L11.977386885619552,-22.649312530101952 L12.060177996667862,-22.64226432947757 L12.14230649506078,-22.632296631698033 L12.223722909661857,-22.61941544093176 L12.304378198267294,-22.603628516326413 L12.384223777147126,-22.584945367335067 L12.463211550310255,-22.563377247988065 L12.541293938475661,-22.53893715011402 " />
			<path d="M12.541293938475675,-22.538937150114016 L12.649735594905584,-22.499635744597384 L12.756154942272307,-22.454703844028252 L12.860424604098428,-22.404195228732828 L12.962419776929005,-22.348170353972826 L13.06201837971252,-22.286696277584724 L13.15910119992332,-22.219846579716272 L13.253552036250628,-22.147701274756223 L13.345257837683352,-22.070346715562724 L13.434108838824184,-21.98787549010503 L13.519998691271066,-21.9003863106422 L13.602824590908767,-21.807983895571486 L13.68248740095816,-21.710778844087738 L13.758891770635987,-21.608887503803977 L13.831946249283053,-21.502431831491457 L13.901563395824214,-21.391539247105996 L13.967659883429214,-21.27634248127525 L14.03015659924904,-21.156979416429476 L14.088978739108434,-21.033592921765944 L14.144055897041241,-20.90633068224458 L14.195322149561393,-20.77534502181943 L14.242716134568692,-20.640792721117602 L14.286181124794926,-20.502834829783875 L14.325665095702428,-20.3616364737156 L14.361120787753784,-20.217366657418612 L14.392505762978175,-20.0701980617207 L14.419782455766654,-19.920306837084826 L14.442918217835533,-19.767872392769377 L14.461885357304084,-19.613077182087903 L14.476661171839766,-19.45610648402533 L14.487227975831338,-19.29714818147206 L14.49357312155728,-19.13639253634131 L14.495689014324224,-18.974031961839067 " />
			<path d="M30.759144981614817,-39.19728590377428 L27.22361107568208,-38.0187746017967 " />
			<path d="M27.930717856868625,-40.140094945356346 L26.969052634454915,-39.81953987121844 " />
			<path d="M30.759144981614817,-9.027396573148254 L27.22361107568208,-7.8488852711706745 " />
			<path d="M27.930717856868625,-9.970205614730316 L26.96905263445492,-9.649650540592415 " />

       </g>
    </g>
    
</svg>
