<?xml version="1.0" encoding="UTF-8" standalone="no"?>
<svg
   xmlns:svg="http://www.w3.org/2000/svg"
   xmlns="http://www.w3.org/2000/svg"
   width="1024.0"
   height="320.0"

>
    <g transform="scale(15.282503971895817, -15.282503971895817)   translate(-152.68983463769015,-78.04305345517126)" stroke-width="0.1466666680000001"  fill="none">
       <!-- hidden lines -->
       <g  stroke="rgb(32,64,32)" fill="none" stroke-dasharray="0.1466666680000001,0.1466666680000001" >

       </g>

       <!-- solid lines -->
       <g  stroke="rgb(64,192,64)" fill="none">
			<path d="M168.99852070358483,75.66042558696059 L168.80997738417074,75.5960160533125 L168.62623291773232,75.53008355704898 L168.44739798506552,75.46266781344043 L168.27358030964675,75.39380943120995 L168.10488459274418,75.32354988807221 L167.94141245034976,75.25193150574884 L167.78326235196943,75.17899742447534 L167.63052956130886,75.10479157701512 L167.48330607889008,75.02935866219593 L167.34168058663386,74.95274411798506 L167.20573839444103,74.87499409411912 L167.07556138880494,74.79615542430524 L166.9512279834862,74.71627559801014 L166.83281307227898,74.63540273185428 L166.72038798389804,74.5535855406282 L166.6140204390127,74.47087330794858 L166.51377450945472,74.38731585657153 L166.41971057962363,74.30296351838139 L166.33188531011345,74.21786710407251 L166.25035160358257,74.13207787254294 L166.17515857288703,74.04564750001788 L166.10635151149688,73.95862804892188 L166.04397186621304,73.87107193651843 L165.9880572122013,73.78303190333573 L165.9386412303585,73.69456098139769 L165.89575368702427,73.60571246227957 L165.85942041605105,73.51653986500705 L165.82966330324268,73.42709690381831 L165.80650027317125,73.3374374558087 L165.78994527837997,73.24761552847711 L165.7800082909786,73.15768522719392 L165.77669529663686,73.06770072260993 " />
			<path d="M165.77669529663686,73.06770072260991 L165.7800082909786,72.9777162180259 L165.78994527837997,72.88778591674271 L165.80650027317125,72.79796398941113 L165.82966330324268,72.70830454140153 L165.85942041605105,72.6188615802128 L165.89575368702427,72.52968898294026 L165.9386412303585,72.44084046382214 L165.9880572122013,72.35236954188412 L166.04397186621304,72.2643295087014 L166.10635151149688,72.17677339629795 L166.17515857288703,72.08975394520195 L166.25035160358257,72.00332357267689 L166.33188531011345,71.91753434114732 L166.41971057962363,71.83243792683844 L166.51377450945472,71.7480855886483 L166.6140204390127,71.66452813727125 L166.72038798389804,71.58181590459162 L166.83281307227898,71.49999871336554 L166.9512279834862,71.41912584720968 L167.07556138880494,71.33924602091459 L167.20573839444103,71.26040735110071 L167.34168058663386,71.18265732723476 L167.48330607889008,71.1060427830239 L167.63052956130886,71.0306098682047 L167.78326235196943,70.95640402074449 L167.94141245034976,70.883469939471 L168.10488459274418,70.81185155714762 L168.27358030964675,70.74159201400988 L168.44739798506552,70.6727336317794 L168.6262329177323,70.60531788817084 L168.80997738417074,70.53938539190733 L168.99852070358483,70.47497585825924 L169.1917493045291,70.4121280851212 L169.38954679331965,70.35087992964174 L169.59179402414532,70.29126828541946 L169.79836917083676,70.23332906027987 L170.00914780024996,70.1770971546457 L170.2240029472201,70.12260644051422 L170.44280519104055,70.06988974105411 L170.66542273342122,70.01897881083391 L170.89172147787878,69.96990431669433 L171.12156511051143,69.92269581927559 L171.35481518210923,69.8773817552113 L171.5913311915509,69.83398941999928 L171.8309706704362,69.79254495155969 L172.07358926890376,69.75307331449062 L172.31904084258196,69.7155982850303 L172.56717754062086,69.6801424367352 L172.817849894752,69.64672712688254 L173.07090690932242,69.61537248360551 L173.32619615224905,69.58609739376878 L173.58356384683776,69.55891949159182 L173.84285496441296,69.53385514802663 L174.10391331770094,69.51091946089659 L174.3665816549113,69.49012624580197 L174.63070175445944,69.47148802779807 L174.89611452027353,69.45501603385047 L175.1626600776279,69.44072018607238 L175.4301778694455,69.42860909574797 L175.69850675301169,69.41869005814519 L175.9674850970405,69.41096904812139 L176.23695087903525,69.40545071652429 L176.50674178288483,69.4021383873905 L176.77669529663686,69.40103405594324 L177.0466488103889,69.4021383873905 L177.31643971423844,69.40545071652429 L177.5859054962332,69.41096904812139 L177.85488384026203,69.41869005814519 L178.12321272382823,69.42860909574797 L178.39073051564583,69.44072018607238 L178.65727607300016,69.45501603385046 L178.92268883881428,69.47148802779807 L179.18680893836242,69.49012624580197 L179.44947727557278,69.51091946089659 L179.71053562886075,69.53385514802663 L179.96982674643596,69.55891949159181 L180.22719444102466,69.58609739376878 L180.48248368395127,69.6153724836055 L180.73554069852173,69.64672712688254 L180.98621305265286,69.6801424367352 L181.23434975069176,69.7155982850303 L181.47980132436996,69.75307331449062 L181.72241992283753,69.79254495155969 L181.96205940172283,69.83398941999928 L182.19857541116448,69.8773817552113 L182.4318254827623,69.92269581927559 L182.66166911539491,69.96990431669433 L182.88796785985247,70.01897881083391 L183.11058540223314,70.06988974105411 L183.32938764605362,70.12260644051422 L183.54424279302376,70.1770971546457 L183.75502142243695,70.23332906027987 L183.9615965691284,70.29126828541946 L184.16384379995407,70.35087992964172 L184.3616412887446,70.4121280851212 L184.5548698896889,70.47497585825924 L184.74341320910298,70.53938539190733 L184.92715767554142,70.60531788817084 L185.1059926082082,70.6727336317794 L185.27981028362697,70.74159201400988 L185.44850600052953,70.81185155714762 L185.61197814292396,70.88346993947098 L185.7701282413043,70.95640402074449 L185.92286103196486,71.0306098682047 L186.07008451438364,71.1060427830239 L186.21171000663986,71.18265732723476 L186.3476521988327,71.26040735110071 L186.47782920446878,71.33924602091459 L186.6021626097875,71.41912584720968 L186.72057752099474,71.49999871336554 L186.83300260937568,71.58181590459161 L186.939370154261,71.66452813727125 L187.039616083819,71.74808558864828 L187.1336800136501,71.83243792683844 L187.22150528316027,71.9175343411473 L187.30303898969115,72.00332357267688 L187.3782320203867,72.08975394520195 L187.44703908177684,72.17677339629795 L187.50941872706068,72.2643295087014 L187.56533338107238,72.3523695418841 L187.6147493629152,72.44084046382214 L187.65763690624945,72.52968898294026 L187.69397017722267,72.6188615802128 L187.72372729003104,72.70830454140152 L187.74689032010247,72.79796398941113 L187.76344531489374,72.88778591674271 L187.77338230229512,72.9777162180259 L187.77669529663686,73.06770072260989 " />
			<path d="M187.77669529663686,73.06770072260991 L187.77483169639092,73.13519206559786 L187.7692415271087,73.20266054006156 L187.7599266829431,73.27008328522544 L187.74689032010247,73.3374374558087 L187.73013685578113,73.40470022976606 L187.70967196666277,73.47184881602082 L187.68550258699696,73.53886046218716 L187.65763690624945,73.60571246227957 L187.62608436632743,73.67238216440647 L187.59085565838024,73.73884697844542 L187.55196271917671,73.80508438369758 L187.50941872706068,73.87107193651843 L187.46323809748563,73.93678727792259 L187.41343647813022,74.0022081411598 L187.36003074359633,74.06731235925973 L187.30303898969115,74.13207787254294 L187.24248052729595,74.19648273609555 L187.17837587582258,74.26050512720488 L187.11074675626094,74.32412335275389 L187.039616083819,74.38731585657153 L186.9650079601583,74.45006122673678 L186.8869476652275,74.51233820283376 L186.8054616486966,74.57412568315556 L186.72057752099474,74.63540273185428 L186.6323240439549,74.69614858603482 L186.54073112106826,74.75634266279013 L186.44582978735184,74.81596456617542 L186.3476521988327,74.87499409411912 L186.2462316216523,74.93341124526798 L186.14160242079478,74.9911962257643 L186.03380004844274,75.04832945595285 L185.92286103196486,75.10479157701512 L185.6917244774154,75.2156261999502 L185.44850600052953,75.32354988807221 L185.1935352184839,75.42841637987249 L184.92715767554142,75.53008355704898 L184.64973437475888,75.62841363710947 L184.3616412887446,75.72327336009863 L184.06326885012876,75.81453416919592 L183.75502142243695,75.90207238493994 L183.43731675208446,75.98576937284248 L183.11058540223317,76.06551170416571 L182.77527016927937,76.14119130964431 L182.4318254827623,76.21270562594424 L182.08071678950722,76.27995773465973 L181.72241992283753,76.34285649366014 L181.35742045771087,76.4013166606085 L180.98621305265286,76.45525900848463 L180.60930077938065,76.50461043295601 L180.22719444102466,76.54930405145105 L179.84041187987245,76.58927929380032 L179.44947727557278,76.62448198432324 L179.05492043475127,76.65486441524855 L178.6572760730002,76.68038541136936 L178.25708309021525,76.70101038584511 L177.85488384026203,76.71671138707464 L177.45122339596116,76.72746713657713 L177.0466488103889,76.73326305782933 L176.64170837549395,76.73409129602011 L176.23695087903528,76.72995072869554 L175.83292486084804,76.7208469672801 L175.4301778694455,76.70679234947185 L175.0292557199644,76.68780592252206 L174.63070175445947,76.66391341742175 L174.2350561055495,76.6351472140303 L173.842854964413,76.6015462971932 L173.45462985412536,76.56315620390862 L173.07090690932245,76.52002896161433 L172.69220616316665,76.47222301767837 L172.31904084258198,76.41980316018953 L171.95191667271305,76.3628404301544 L171.5913311915509,76.30141202522054 L171.23777307565396,76.23560119505574 L170.8917214778788,76.16549712852552 L170.5536453780171,76.09119483282167 L170.2240029472201,76.01279500470561 L169.9032409270706,75.93040389404094 L169.59179402414532,75.84413315980036 L169.29008432088688,75.7540997187421 L168.9985207035849,75.6604255869606 " />
			<path d="M165.77669529663686,70.23927359786373 L165.7800082909786,70.14928909327972 L165.78994527837997,70.05935879199653 L165.80650027317125,69.96953686466495 L165.82966330324268,69.87987741665533 L165.85942041605105,69.7904344554666 L165.89575368702427,69.70126185819407 L165.9386412303585,69.61241333907596 L165.9880572122013,69.52394241713793 L166.04397186621304,69.43590238395521 L166.10635151149688,69.34834627155176 L166.17515857288703,69.26132682045576 L166.25035160358257,69.1748964479307 L166.33188531011345,69.08910721640113 L166.41971057962363,69.00401080209225 L166.51377450945472,68.91965846390211 L166.6140204390127,68.83610101252506 L166.72038798389804,68.75338877984544 L166.83281307227898,68.67157158861936 L166.9512279834862,68.5906987224635 L167.07556138880494,68.5108188961684 L167.20573839444103,68.43198022635453 L167.34168058663386,68.35423020248858 L167.48330607889008,68.27761565827771 L167.63052956130886,68.20218274345852 L167.78326235196943,68.1279768959983 L167.94141245034976,68.0550428147248 L168.10488459274418,67.98342443240143 L168.27358030964675,67.9131648892637 L168.44739798506552,67.84430650703321 L168.6262329177323,67.77689076342466 L168.80997738417074,67.71095826716115 L168.99852070358483,67.64654873351306 L169.1917493045291,67.58370096037501 L169.38954679331965,67.52245280489555 L169.59179402414532,67.46284116067328 L169.79836917083676,67.40490193553369 L170.00914780024996,67.34867002989951 L170.2240029472201,67.29417931576803 L170.44280519104055,67.24146261630793 L170.66542273342122,67.19055168608773 L170.89172147787878,67.14147719194814 L171.12156511051143,67.09426869452939 L171.35481518210923,67.04895463046512 L171.5913311915509,67.0055622952531 L171.8309706704362,66.9641178268135 L172.07358926890376,66.92464618974444 L172.31904084258196,66.88717116028411 L172.56717754062086,66.85171531198901 L172.817849894752,66.81830000213635 L173.07090690932242,66.78694535885931 L173.32619615224905,66.7576702690226 L173.58356384683776,66.73049236684562 L173.84285496441296,66.70542802328045 L174.10391331770094,66.6824923361504 L174.3665816549113,66.66169912105579 L174.63070175445944,66.64306090305189 L174.89611452027353,66.62658890910427 L175.1626600776279,66.6122930613262 L175.4301778694455,66.60018197100179 L175.69850675301169,66.590262933399 L175.9674850970405,66.5825419233752 L176.23695087903525,66.5770235917781 L176.50674178288483,66.57371126264431 L176.77669529663686,66.57260693119706 L177.0466488103889,66.57371126264431 L177.31643971423844,66.5770235917781 L177.5859054962332,66.5825419233752 L177.85488384026203,66.590262933399 L178.12321272382823,66.60018197100179 L178.39073051564583,66.6122930613262 L178.65727607300016,66.62658890910427 L178.92268883881428,66.64306090305189 L179.18680893836242,66.66169912105579 L179.44947727557278,66.6824923361504 L179.71053562886075,66.70542802328045 L179.96982674643596,66.73049236684562 L180.22719444102466,66.7576702690226 L180.48248368395127,66.78694535885931 L180.73554069852173,66.81830000213635 L180.98621305265286,66.85171531198901 L181.23434975069176,66.88717116028411 L181.47980132436996,66.92464618974444 L181.72241992283753,66.9641178268135 L181.96205940172283,67.0055622952531 L182.19857541116448,67.04895463046512 L182.4318254827623,67.0942686945294 L182.66166911539491,67.14147719194814 L182.88796785985247,67.19055168608773 L183.11058540223314,67.24146261630793 L183.32938764605362,67.29417931576803 L183.54424279302376,67.34867002989951 L183.75502142243695,67.40490193553369 L183.9615965691284,67.46284116067328 L184.16384379995407,67.52245280489554 L184.3616412887446,67.58370096037501 L184.5548698896889,67.64654873351306 L184.74341320910298,67.71095826716115 L184.92715767554142,67.77689076342466 L185.1059926082082,67.84430650703321 L185.27981028362697,67.9131648892637 L185.44850600052953,67.98342443240143 L185.61197814292396,68.0550428147248 L185.7701282413043,68.1279768959983 L185.92286103196486,68.20218274345852 L186.07008451438364,68.27761565827771 L186.21171000663986,68.35423020248858 L186.3476521988327,68.43198022635453 L186.47782920446878,68.5108188961684 L186.6021626097875,68.5906987224635 L186.72057752099474,68.67157158861936 L186.83300260937568,68.75338877984544 L186.939370154261,68.83610101252506 L187.039616083819,68.91965846390211 L187.1336800136501,69.00401080209225 L187.22150528316027,69.08910721640112 L187.30303898969115,69.17489644793069 L187.3782320203867,69.26132682045576 L187.44703908177684,69.34834627155176 L187.50941872706068,69.43590238395521 L187.56533338107238,69.52394241713793 L187.6147493629152,69.61241333907596 L187.65763690624945,69.70126185819407 L187.69397017722267,69.79043445546661 L187.72372729003104,69.87987741665535 L187.74689032010247,69.96953686466495 L187.76344531489374,70.05935879199653 L187.77338230229512,70.14928909327972 L187.77669529663686,70.2392735978637 " />
			<path d="M175.68126746798617,71.77914882344523 L175.54034078918198,71.79173588670446 " />
			<path d="M175.54034078918252,71.79173588670515 L172.80172800166193,72.70460681587869 " />
			<path d="M172.80172800165988,72.70460681587849 L172.7639668118822,72.75158237547987 " />
			<path d="M172.76396681187816,72.7515823754806 L173.76636866324137,73.99858725511123 " />
			<path d="M173.76636866324458,73.99858725511051 L173.86953415227143,74.0329757514528 " />
			<path d="M173.8695341522719,74.03297575145055 L177.610548791164,74.36710970190498 " />
			<path d="M177.6105487911635,74.36710970190703 L177.75147546996817,74.35452263864775 " />
			<path d="M177.75147546996777,74.3545226386473 L180.49008825748837,73.44165170947376 " />
			<path d="M180.49008825748976,73.44165170947389 L180.52784944726758,73.39467614987234 " />
			<path d="M180.52784944727247,73.39467614987153 L179.52544759590918,72.14767127024083 " />
			<path d="M179.5254475959049,72.14767127024163 L179.42228210687804,72.11328277389936 " />
			<path d="M179.4222821068803,72.11328277389818 L175.6812674679884,71.77914882344378 " />
			<path d="M170.05918087536463,71.53563603003906 L169.96032536710035,71.4992792815276 L169.87263662869066,71.45986775595559 L169.83324813214406,71.4391340115424 L169.79695915062192,71.41778100785878 L169.7638571074593,71.39586018616092 L169.73402174837753,71.37342435562833 L169.70752494936994,71.35052756614189 L169.68443054354614,71.32722497807302 L169.66479416735265,71.30357272939742 L169.64866312653962,71.27962780045385 L169.63607628219728,71.25544787667346 L169.62706395713616,71.23109120961057 L169.6216478628367,71.2066164766095 L169.61984104714446,71.18208263944578 " />
			<path d="M169.61984104714446,71.18208263944578 L169.6216478628367,71.15754880228208 L169.62706395713616,71.133074069281 L169.63607628219728,71.1087174022181 L169.64866312653962,71.08453747843771 L169.66479416735265,71.06059254949415 L169.68443054354614,71.03694030081856 L169.70752494936994,71.01363771274967 L169.73402174837753,70.99074092326323 L169.7638571074593,70.96830509273065 L169.79695915062192,70.94638427103278 L169.83324813214406,70.92503126734917 L169.87263662869066,70.90429752293598 L169.96032536710035,70.86488599736396 L170.05918087536463,70.8285292488525 L170.168251120899,70.79557741276442 L170.28648569761506,70.7663478332945 L170.41274594190546,70.7411220072716 L170.54581589859683,70.72014287319014 L170.68441403126278,70.70361247157967 L170.82720556412028,70.69168999924416 L170.97281533665011,70.68449027610968 L171.11984104714446,70.68208263944578 L171.2668667576388,70.68449027610968 L171.41247653016865,70.69168999924416 L171.55526806302615,70.70361247157967 L171.6938661956921,70.72014287319014 L171.82693615238347,70.7411220072716 L171.95319639667386,70.7663478332945 L172.07143097338994,70.79557741276442 L172.1805012189243,70.8285292488525 L172.27935672718857,70.86488599736396 L172.36704546559827,70.90429752293598 L172.40643396214486,70.92503126734917 L172.442722943667,70.94638427103278 L172.47582498682962,70.96830509273065 L172.5056603459114,70.99074092326323 L172.53215714491898,71.01363771274967 L172.55525155074278,71.03694030081854 L172.57488792693627,71.06059254949415 L172.5910189677493,71.08453747843771 L172.60360581209164,71.1087174022181 L172.61261813715277,71.133074069281 L172.6180342314522,71.15754880228207 L172.61984104714446,71.18208263944578 " />
			<path d="M172.61984104714446,71.18208263944578 L172.61882462402698,71.20048625091646 L172.6157767321625,71.21886492124561 L172.60360581209164,71.25544787667346 L172.58339424220225,71.29163325952422 L172.55525155074278,71.327224978073 L172.51933024539656,71.36203015771328 L172.47582498682962,71.39586018616092 L172.42497153380754,71.42853173556067 L172.36704546559827,71.45986775595559 L172.30236068858437,71.4896984347361 L172.2312677351769,71.5178621168693 L172.15415186425005,71.54420618092152 L172.07143097338994,71.56858786612715 L171.98355333427122,71.59087504602157 L171.8909951634343,71.61094694444591 L171.79425804162636,71.62869479004354 L171.6938661956921,71.64402240570142 L171.5903636577428,71.6568467297423 L171.48431131699937,71.66709826604306 L171.37628388028492,71.67472146064026 L171.2668667576388,71.67967500278188 L171.15665288992884,71.68193204879388 L171.04623953565334,71.68148036754836 L170.93622503434563,71.67832240674514 L170.82720556412028,71.6724752796474 L170.7197719109321,71.6639706723435 L170.61450626705613,71.6528546720373 L170.51197907613698,71.63918751729754 L170.41274594190546,71.62304327161996 L170.3173446173138,71.60450942207063 L170.22629209040582,71.5836864051861 L170.1400817827138,71.56068706269902 L170.05918087536463,71.53563603003906 " />
			<path d="M181.37288937434943,71.53563603003906 L181.27403386608515,71.4992792815276 L181.18634512767545,71.45986775595559 L181.14695663112886,71.4391340115424 L181.1106676496067,71.41778100785878 L181.0775656064441,71.39586018616092 L181.04773024736232,71.37342435562833 L181.02123344835474,71.35052756614189 L180.99813904253094,71.32722497807302 L180.97850266633745,71.30357272939742 L180.9623716255244,71.27962780045385 L180.94978478118207,71.25544787667346 L180.94077245612095,71.23109120961057 L180.9353563618215,71.2066164766095 L180.93354954612926,71.18208263944578 " />
			<path d="M180.93354954612926,71.18208263944578 L180.9353563618215,71.15754880228208 L180.94077245612095,71.133074069281 L180.94978478118207,71.1087174022181 L180.9623716255244,71.08453747843771 L180.97850266633745,71.06059254949415 L180.99813904253094,71.03694030081856 L181.02123344835474,71.01363771274967 L181.04773024736232,70.99074092326323 L181.0775656064441,70.96830509273065 L181.1106676496067,70.94638427103278 L181.14695663112886,70.92503126734917 L181.18634512767545,70.90429752293598 L181.27403386608515,70.86488599736396 L181.37288937434943,70.8285292488525 L181.48195961988378,70.79557741276442 L181.60019419659986,70.7663478332945 L181.72645444089025,70.7411220072716 L181.85952439758162,70.72014287319014 L181.99812253024757,70.70361247157967 L182.14091406310507,70.69168999924416 L182.2865238356349,70.68449027610968 L182.43354954612926,70.68208263944578 L182.5805752566236,70.68449027610968 L182.72618502915344,70.69168999924416 L182.86897656201094,70.70361247157967 L183.0075746946769,70.72014287319014 L183.14064465136826,70.7411220072716 L183.26690489565866,70.7663478332945 L183.38513947237473,70.79557741276442 L183.4942097179091,70.8285292488525 L183.59306522617337,70.86488599736396 L183.68075396458306,70.90429752293598 L183.72014246112965,70.92503126734917 L183.7564314426518,70.94638427103278 L183.78953348581442,70.96830509273065 L183.8193688448962,70.99074092326323 L183.84586564390378,71.01363771274967 L183.86896004972758,71.03694030081854 L183.88859642592107,71.06059254949415 L183.9047274667341,71.08453747843771 L183.91731431107644,71.1087174022181 L183.92632663613756,71.133074069281 L183.931742730437,71.15754880228207 L183.93354954612926,71.18208263944578 " />
			<path d="M183.93354954612926,71.18208263944578 L183.93253312301178,71.20048625091646 L183.92948523114728,71.21886492124561 L183.91731431107644,71.25544787667346 L183.89710274118704,71.29163325952422 L183.86896004972758,71.327224978073 L183.83303874438135,71.36203015771328 L183.78953348581442,71.39586018616092 L183.73868003279233,71.42853173556067 L183.68075396458306,71.45986775595559 L183.61606918756917,71.4896984347361 L183.5449762341617,71.5178621168693 L183.46786036323485,71.54420618092152 L183.38513947237473,71.56858786612715 L183.29726183325602,71.59087504602157 L183.2047036624191,71.61094694444591 L183.10796654061116,71.62869479004354 L183.0075746946769,71.64402240570142 L182.9040721567276,71.6568467297423 L182.79801981598416,71.66709826604306 L182.6899923792697,71.67472146064026 L182.5805752566236,71.67967500278188 L182.47036138891363,71.68193204879388 L182.35994803463814,71.68148036754836 L182.24993353333042,71.67832240674514 L182.14091406310507,71.6724752796474 L182.0334804099169,71.6639706723435 L181.92821476604092,71.6528546720373 L181.82568757512178,71.63918751729754 L181.72645444089025,71.62304327161996 L181.6310531162986,71.60450942207063 L181.54000058939062,71.5836864051861 L181.4537902816986,71.56068706269902 L181.37288937434943,71.53563603003906 " />
			<path d="M170.05918087536466,75.30687219636732 L169.96032536710038,75.27051544785587 L169.87263662869069,75.23110392228385 L169.8332481321441,75.21037017787066 L169.79695915062194,75.18901717418704 L169.76385710745933,75.16709635248918 L169.73402174837756,75.1446605219566 L169.70752494936997,75.12176373247016 L169.68443054354617,75.09846114440128 L169.66479416735268,75.07480889572568 L169.64866312653965,75.05086396678212 L169.6360762821973,75.02668404300172 L169.6270639571362,75.00232737593883 L169.62164786283674,74.97785264293776 L169.6198410471445,74.95331880577405 " />
			<path d="M169.6198410471445,74.95331880577405 L169.62164786283674,74.92878496861034 L169.6270639571362,74.90431023560926 L169.6360762821973,74.87995356854637 L169.64866312653965,74.85577364476597 L169.66479416735268,74.83182871582241 L169.68443054354617,74.80817646714682 L169.70752494936997,74.78487387907794 L169.73402174837756,74.7619770895915 L169.76385710745933,74.73954125905891 L169.79695915062194,74.71762043736105 L169.8332481321441,74.69626743367743 L169.87263662869069,74.67553368926424 L169.96032536710038,74.63612216369222 L170.05918087536466,74.59976541518077 L170.16825112089901,74.56681357909268 L170.2864856976151,74.53758399962277 L170.41274594190548,74.51235817359986 L170.54581589859686,74.4913790395184 L170.6844140312628,74.47484863790794 L170.8272055641203,74.46292616557243 L170.97281533665014,74.45572644243795 L171.1198410471445,74.45331880577405 L171.26686675763884,74.45572644243795 L171.41247653016868,74.46292616557243 L171.55526806302618,74.47484863790794 L171.69386619569212,74.4913790395184 L171.8269361523835,74.51235817359986 L171.9531963966739,74.53758399962277 L172.07143097338997,74.56681357909268 L172.18050121892432,74.59976541518077 L172.2793567271886,74.63612216369222 L172.3670454655983,74.67553368926424 L172.4064339621449,74.69626743367743 L172.44272294366704,74.71762043736105 L172.47582498682965,74.73954125905891 L172.50566034591142,74.7619770895915 L172.532157144919,74.78487387907794 L172.5552515507428,74.80817646714681 L172.5748879269363,74.83182871582241 L172.59101896774933,74.85577364476597 L172.60360581209167,74.87995356854637 L172.6126181371528,74.90431023560926 L172.61803423145224,74.92878496861033 L172.6198410471445,74.95331880577405 " />
			<path d="M172.6198410471445,74.95331880577405 L172.618824624027,74.97172241724472 L172.61577673216252,74.99010108757388 L172.60360581209167,75.02668404300172 L172.58339424220227,75.06286942585248 L172.5552515507428,75.09846114440127 L172.5193302453966,75.13326632404154 L172.47582498682965,75.16709635248918 L172.42497153380756,75.19976790188893 L172.3670454655983,75.23110392228385 L172.3023606885844,75.26093460106436 L172.23126773517694,75.28909828319756 L172.15415186425008,75.31544234724979 L172.07143097338997,75.33982403245541 L171.98355333427125,75.36211121234983 L171.89099516343433,75.38218311077418 L171.7942580416264,75.3999309563718 L171.69386619569212,75.41525857202969 L171.59036365774284,75.42808289607056 L171.4843113169994,75.43833443237132 L171.37628388028494,75.44595762696852 L171.26686675763884,75.45091116911014 L171.15665288992886,75.45316821512215 L171.04623953565337,75.45271653387663 L170.93622503434565,75.4495585730734 L170.8272055641203,75.44371144597567 L170.71977191093214,75.43520683867176 L170.61450626705616,75.42409083836556 L170.511979076137,75.41042368362581 L170.41274594190548,75.39427943794823 L170.31734461731384,75.3757455883989 L170.22629209040585,75.35492257151436 L170.14008178271382,75.33192322902728 L170.0591808753647,75.30687219636732 " />
			<path d="M181.3728893743494,75.30687219636731 L181.27403386608512,75.27051544785586 L181.18634512767542,75.23110392228384 L181.14695663112883,75.21037017787064 L181.11066764960668,75.18901717418703 L181.07756560644407,75.16709635248917 L181.0477302473623,75.14466052195658 L181.0212334483547,75.12176373247014 L180.9981390425309,75.09846114440127 L180.97850266633742,75.07480889572567 L180.96237162552438,75.0508639667821 L180.94978478118205,75.02668404300171 L180.94077245612092,75.00232737593882 L180.93535636182148,74.97785264293775 L180.93354954612923,74.95331880577403 " />
			<path d="M180.93354954612923,74.95331880577403 L180.93535636182148,74.92878496861033 L180.94077245612092,74.90431023560924 L180.94978478118205,74.87995356854636 L180.96237162552438,74.85577364476596 L180.97850266633742,74.8318287158224 L180.9981390425309,74.80817646714681 L181.0212334483547,74.78487387907792 L181.0477302473623,74.76197708959148 L181.07756560644407,74.7395412590589 L181.11066764960668,74.71762043736103 L181.14695663112883,74.69626743367742 L181.18634512767542,74.67553368926423 L181.27403386608512,74.6361221636922 L181.3728893743494,74.59976541518076 L181.48195961988375,74.56681357909267 L181.60019419659983,74.53758399962275 L181.72645444089022,74.51235817359985 L181.8595243975816,74.49137903951839 L181.99812253024754,74.47484863790793 L182.14091406310504,74.46292616557241 L182.28652383563488,74.45572644243794 L182.43354954612923,74.45331880577403 L182.58057525662358,74.45572644243794 L182.7261850291534,74.46292616557241 L182.86897656201091,74.47484863790793 L183.00757469467686,74.49137903951839 L183.14064465136823,74.51235817359985 L183.26690489565863,74.53758399962275 L183.3851394723747,74.56681357909267 L183.49420971790906,74.59976541518076 L183.59306522617334,74.6361221636922 L183.68075396458303,74.67553368926423 L183.72014246112963,74.69626743367742 L183.75643144265177,74.71762043736103 L183.7895334858144,74.7395412590589 L183.81936884489616,74.76197708959148 L183.84586564390375,74.78487387907792 L183.86896004972755,74.8081764671468 L183.88859642592104,74.8318287158224 L183.90472746673407,74.85577364476596 L183.9173143110764,74.87995356854636 L183.92632663613753,74.90431023560924 L183.93174273043698,74.92878496861032 L183.93354954612923,74.95331880577403 " />
			<path d="M183.93354954612923,74.95331880577403 L183.93253312301175,74.9717224172447 L183.92948523114725,74.99010108757386 L183.9173143110764,75.02668404300171 L183.897102741187,75.06286942585247 L183.86896004972755,75.09846114440126 L183.83303874438133,75.13326632404153 L183.7895334858144,75.16709635248917 L183.7386800327923,75.19976790188892 L183.68075396458303,75.23110392228384 L183.61606918756914,75.26093460106435 L183.54497623416168,75.28909828319755 L183.46786036323482,75.31544234724977 L183.3851394723747,75.3398240324554 L183.297261833256,75.36211121234982 L183.20470366241906,75.38218311077416 L183.10796654061113,75.39993095637179 L183.00757469467686,75.41525857202967 L182.90407215672758,75.42808289607055 L182.79801981598413,75.4383344323713 L182.68999237926968,75.44595762696851 L182.58057525662358,75.45091116911013 L182.4703613889136,75.45316821512213 L182.3599480346381,75.45271653387661 L182.2499335333304,75.44955857307339 L182.14091406310504,75.44371144597565 L182.03348040991688,75.43520683867175 L181.9282147660409,75.42409083836554 L181.82568757512175,75.4104236836258 L181.72645444089022,75.39427943794821 L181.63105311629857,75.37574558839889 L181.5400005893906,75.35492257151435 L181.45379028169856,75.33192322902727 L181.37288937434943,75.30687219636731 " />
			<path d="M180.49008825748837,73.44165170947376 L180.49008825748837,73.34770059026201 " />
			<path d="M177.75147546996777,74.3545226386473 L177.75147546996777,71.96405234420857 " />
			<path d="M177.61054879116296,74.3671097019063 L177.61054879116296,71.95146528094932 " />
			<path d="M173.86953415226958,74.03297575145342 L173.86953415226958,72.34867143234281 " />
			<path d="M173.76636866324267,73.9985872551111 L173.76636866324267,72.38305992868511 " />
			<path d="M180.3122292025696,61.518289963229634 L180.48145092341164,61.57753634046218 L180.64174756345054,61.63947912493447 L180.79273295404008,61.70396909105316 L180.93404335814958,61.77085087684121 L181.0653383466382,61.83996335821851 L181.18630161837862,61.91114003716388 L181.29664176225407,61.984209442823406 L181.39609295919328,62.05899554459873 L181.44165929081055,62.09697620431557 L181.48441562255195,62.13531817622018 L181.52433619960203,62.17399836454239 L181.5613969752979,62.21299346978311 L181.59557562561406,62.252280002749046 L181.62685156260957,62.29183429870177 L181.6552059468295,62.33163253161243 L181.680621698653,62.371650728513664 L181.70308350858156,62.41186478394005 L181.72257784646075,62.45225047444828 L181.7390929696304,62.49278347320852 L181.75261892999785,62.533439364657944 L181.7631475800303,62.574193659207765 L181.7706725776627,62.61502180799485 L181.77518939011787,62.655899217669024 L181.77669529663686,62.6968012652072 " />
			<path d="M171.77669529663686,62.69680126520721 L171.7800833736951,62.63545589363828 L171.7902430132434,62.574193659207765 L171.8071604466251,62.51309758638408 L171.83081274681297,62.45225047444828 L171.8611678594808,62.391734785281976 L171.8981846464442,62.33163253161243 L171.9418129414126,62.27202516586635 L171.99199361797582,62.21299346978311 L172.04865866973427,62.154617444936775 L172.11173130246317,62.09697620431557 L172.18112603818656,62.04014786510547 L172.25674883101965,61.98420944282341 L172.3384971946226,61.92923674694348 L172.4262603410933,61.87530427815757 L172.51991933111054,61.82248512740976 L172.61934723512414,61.77085087684121 L172.72440930537388,61.720471502779816 L172.83496315850383,61.67141528090617 L172.95085896852456,61.623748693724224 L173.07193966986208,61.57753634046218 L173.19804117021778,61.53284084952559 L173.32899257295153,61.48972279362143 L173.464616408686,61.44824060766811 L173.60472887581864,61.40845050960265 L173.74914008961522,61.37040642419241 L173.89765433954764,61.33415990995457 L174.05007035452664,61.299760089282486 L174.20618157567074,61.267253581873426 L174.36577643624125,61.2366844415482 L174.52863864836382,61.208094096548024 L174.69454749614866,61.18152129338968 L174.8632781348114,61.15700204435507 L175.0346018953897,61.13456957868625 L175.2082865946424,61.11425429755215 L175.3840968497116,61.09608373284794 L175.56179439712054,61.08008250988297 L175.74113841567575,61.06627231400783 L175.92188585283535,61.05467186122564 L176.10379175410122,61.04529687282758 L176.28660959498905,61.03816005408689 L176.47009161512582,61.0332710770403 L176.6539891540223,61.030636567380206 L176.83805298806544,61.030260095475306 L177.02203366827393,61.03214217153192 L177.20568185835907,61.036280244902585 L177.38874867263294,61.042668707542695 L177.57098601330617,61.051298901610785 L177.75214690671748,61.06215913120183 L177.93198583804022,61.075234678197944 L178.11025908401135,61.09050782221481 L178.286725043233,61.10795786461689 L178.46114456359797,61.127561156568845 L178.63328126639604,61.149291131085185 L178.8029018666618,61.17311833903466 L178.9697764893295,61.19901048905062 L179.13367898076686,61.22693249129329 L179.29438721526546,61.25684650500457 L179.45168339607235,61.28871198979103 L179.60535435055493,61.322485760565506 L179.75519181909902,61.35812204607281 L179.9009927373488,61.39557255092039 L180.04255951140576,61.434786521029736 L180.17970028561413,61.47571081241986 L180.31222920256957,61.51828996322962 " />
			<path d="M187.77669529663686,70.23927359786373 L187.77669529663686,73.06770072260991 " />
			<path d="M165.77669529663686,70.23927359786373 L165.77669529663686,73.06770072260991 " />
			<path d="M171.77669529663686,66.97328727415282 L171.77669529663686,62.69680126520721 " />
			<path d="M181.77669529663686,66.97328727415282 L181.77669529663686,62.69680126520721 " />

       </g>
    </g>
    
</svg>
