<?xml version="1.0" encoding="UTF-8" standalone="no"?>
<svg
   xmlns:svg="http://www.w3.org/2000/svg"
   xmlns="http://www.w3.org/2000/svg"
   width="1024.0"
   height="320.0"

>
    <g transform="scale(3.248783628704704, -3.248783628704704)   translate(100.64329384048264,-43.745946692307086)" stroke-width="0.7204666666666685"  fill="none">
       <!-- hidden lines -->
       <g  stroke="rgb(32,64,32)" fill="none" stroke-dasharray="0.7204666666666685,0.7204666666666685" >

       </g>

       <!-- solid lines -->
       <g  stroke="rgb(64,192,64)" fill="none">
			<path d="M33.39796803845257,11.123559424236488 L33.3447409898961,11.166002998806944 L33.292502560163776,11.211620609699075 L33.241382379260344,11.260299056513338 L33.191507302248795,11.311917543365837 L33.14300109445869,11.366347978644118 L33.095984124361635,11.423455292867324 L33.05057306487621,11.483097773862003 L33.00688060384328,11.545127418421798 L32.965015164390444,11.609390299578358 L32.9250806358793,11.675726948572125 L32.88717611610332,11.743972750575102 L32.851395665376046,11.81395835318362 L32.81782807311979,11.885510086667441 L32.786556637534105,11.958450394932322 L32.75765895889076,12.03259827612663 L32.731206746968155,12.107769731798609 L32.70726564310305,12.183778223489755 L32.685895057301146,12.260435135631207 L32.667148020810764,12.337550243594523 L32.65107105452548,12.414932185735333 L32.63770405354218,12.492388938258511 L32.62708018816118,12.569728291726479 L32.619225821573835,12.64675832802818 L32.61416044444217,12.72328789662513 L32.61189662653263,12.799127088892723 L32.61243998552417,12.874087709379724 L32.61578917306789,12.947983742816518 L32.62193587813301,13.020631815713209 L32.63086484763074,13.091851651402136 L32.64255392426493,13.161466517395604 L32.656974101515516,13.22930366394871 L32.67408959561841,13.295194752738945 " />
			<path d="M32.32892203584895,10.465180361560902 L32.281596021101926,10.482276063987527 L32.23435285395684,10.501982567509364 L32.18727523698493,10.524265374470778 L32.14044558294989,10.549085477211161 L32.09394587053844,10.576399426350658 L32.04785750085069,10.60615940685144 L32.00226115490163,10.638313321721366 L31.95723665238323,10.672804883213542 L31.912862811934275,10.709573711362067 L31.869217313162686,10.748555439681526 L31.826376560661746,10.78968182784516 L31.784415550258352,10.83288088114448 L31.743407737727416,10.878076976521202 L31.703424910202227,10.925190994950857 L31.6268122646239,11.024839681939014 L31.555113842589048,11.131129478629962 L31.488831477412116,11.243316438930455 L31.428429094212532,11.360615341178336 L31.374329462798904,11.482205184084808 L31.32691123860843,11.60723493310635 L31.286506312412698,11.734829477026082 L31.253397487339818,11.864095753053192 L31.22781649947201,11.994128997569415 L31.209942395872847,12.124019078772257 L31.199900281396765,12.252856866891312 L31.19776044305216,12.37974059739116 L31.19966072386543,12.442171458576894 L31.203537858046875,12.503782182623311 L31.209385058393487,12.564464915514648 L31.217192088959365,12.624113427750581 L31.22694528297447,12.682623300308629 L31.238627566769278,12.73989210743719 L31.252218489663495,12.795819595959198 L31.267694259766422,12.850307860772542 L31.285027785626394,12.903261516240015 L31.30418872365631,12.954587863168737 L31.325143531252277,13.004197051086786 L31.34785552551235,13.052002235532937 L31.372284947452606,13.097919730084136 L31.3983890316081,13.141869152854635 L31.426122080896917,13.183773567210272 L31.455435546616187,13.223559616451599 L31.486278113430096,13.261157652230079 L31.518595789201093,13.296501856472535 L31.552331999507018,13.329530356600443 L31.587427686678694,13.360185333842336 L31.62382141318465,13.388413124449736 L31.661449469181953,13.414164313639416 L31.700245984044862,13.437393822097542 L31.740143041676134,13.458060984894262 L31.781070799399043,13.476129622670598 L31.822957610222,13.491568104973025 " />
			<path d="M31.822957610222005,13.491568104973027 L31.882421585298047,13.508557756074566 L31.94338488754266,13.520393343677025 L32.00564280510119,13.527035124443016 L32.068986278862624,13.528460795590231 L32.13320260447013,13.524665569783108 L32.198076146572085,13.515662191208484 L32.26338906291532,13.501480892781217 L32.32892203584894,13.482169294623507 " />
			<path d="M-24.07567113639001,30.281439149184013 L-24.128898184946472,30.32388272375447 L-24.181136614678802,30.369500334646602 L-24.232256795582238,30.418178781460863 L-24.28213187259378,30.469797268313364 L-24.330638080383892,30.524227703591645 L-24.37765505048094,30.581335017814848 L-24.42306610996637,30.64097749880953 L-24.4667585709993,30.703007143369323 L-24.508624010452134,30.767270024525885 L-24.54855853896328,30.83360667351965 L-24.58646305873926,30.901852475522627 L-24.62224350946653,30.971838078131146 L-24.655811101722787,31.04338981161497 L-24.68708253730847,31.116330119879848 L-24.715980215951816,31.190478001074155 L-24.74243242787442,31.265649456746136 L-24.766373531739525,31.34165794843728 L-24.787744117541433,31.418314860578732 L-24.80649115403181,31.495429968542048 L-24.8225681203171,31.57281191068286 L-24.835935121300395,31.650268663206038 L-24.8465589866814,31.727608016674004 L-24.854413353268743,31.804638052975704 L-24.859478730400408,31.881167621572658 L-24.861742548309945,31.95700681384025 L-24.86119918931841,32.03196743432725 L-24.85785000177469,32.105863467764046 L-24.85170329670957,32.178511540660736 L-24.842774327211835,32.249731376349665 L-24.831085250577647,32.31934624234313 L-24.81666507332706,32.38718338889623 L-24.799549579224163,32.45307447768647 " />
			<path d="M-25.144717138993634,29.62306008650843 L-25.192043153740652,29.640155788935054 L-25.239286320885736,29.659862292456893 L-25.286363937857654,29.682145099418303 L-25.33319359189269,29.70696520215869 L-25.379693304304137,29.734279151298185 L-25.42578167399189,29.764039131798967 L-25.47137801994095,29.796193046668893 L-25.51640252245935,29.830684608161068 L-25.560776362908307,29.867453436309596 L-25.604421861679896,29.906435164629052 L-25.647262614180836,29.947561552792685 L-25.68922362458423,29.990760606092007 L-25.730231437115165,30.035956701468727 L-25.770214264640355,30.083070719898384 L-25.84682691021868,30.18271940688654 L-25.918525332253534,30.28900920357749 L-25.984807697430465,30.401196163877984 L-26.04521008063005,30.518495066125862 L-26.099309712043677,30.640084909032336 L-26.14672793623415,30.765114658053875 L-26.187132862429884,30.89270920197361 L-26.220241687502764,31.02197547800072 L-26.245822675370572,31.152008722516943 L-26.263696778969734,31.281898803719784 L-26.273738893445817,31.41073659183884 L-26.27587873179042,31.537620322338686 L-26.27397845097715,31.60005118352442 L-26.270101316795706,31.66166190757084 L-26.264254116449095,31.722344640462175 L-26.256447085883217,31.781993152698107 L-26.246693891868112,31.840503025256155 L-26.235011608073304,31.897771832384716 L-26.221420685179087,31.953699320906725 L-26.20594491507616,32.00818758572007 L-26.188611389216188,32.06114124118754 L-26.169450451186272,32.11246758811626 L-26.148495643590305,32.16207677603431 L-26.12578364933023,32.209881960480466 L-26.101354227389976,32.255799455031664 L-26.07525014323448,32.29974887780216 L-26.047517093945665,32.3416532921578 L-26.018203628226395,32.38143934139912 L-25.987361061412486,32.4190373771776 L-25.95504338564149,32.454381581420066 L-25.921307175335563,32.48741008154797 L-25.886211488163887,32.518065058789865 L-25.84981776165793,32.54629284939726 L-25.81218970566063,32.572044038586945 L-25.77339319079772,32.59527354704507 L-25.733496133166447,32.61594070984179 L-25.69256837544354,32.634009347618125 L-25.65068156462058,32.649447829920554 " />
			<path d="M-25.650681564620577,32.649447829920554 L-25.591217589544534,32.66643748102209 L-25.530254287299922,32.67827306862455 L-25.467996369741392,32.684914849390545 L-25.40465289597996,32.686340520537755 L-25.340436570372457,32.68254529473064 L-25.275563028270497,32.67354191615601 L-25.210250111927262,32.659360617728744 L-25.144717138993638,32.64004901957104 " />
			<path d="M28.907839977917998,-32.879695569002365 L28.854612929361533,-32.83725199443191 L28.802374499629202,-32.79163438353977 L28.75125431872577,-32.742955936725515 L28.701379241714225,-32.69133744987301 L28.652873033924113,-32.63690701459473 L28.605856063827066,-32.579799700371524 L28.560445004341634,-32.52015721937685 L28.516752543308705,-32.458127574817055 L28.47488710385587,-32.39386469366049 L28.434952575344724,-32.32752804466673 L28.397048055568746,-32.25928224266375 L28.361267604841476,-32.18929664005523 L28.327700012585222,-32.11774490657141 L28.296428576999535,-32.04480459830653 L28.26753089835619,-31.97065671711222 L28.241078686433585,-31.895485261440243 L28.21713758256848,-31.819476769749095 L28.195766996766572,-31.742819857607643 L28.177019960276194,-31.665704749644327 L28.160942993990904,-31.588322807503516 L28.14757599300761,-31.51086605498034 L28.136952127626607,-31.43352670151237 L28.12909776103926,-31.35649666521067 L28.124032383907597,-31.27996709661372 L28.12176856599806,-31.204127904346127 L28.122311924989596,-31.129167283859125 L28.125661112533315,-31.05527125042233 L28.131807817598435,-30.98262317752564 L28.14073678709617,-30.911403341836714 L28.152425863730357,-30.841788475843245 L28.166846040980946,-30.77395132929014 L28.18396153508384,-30.708060240499904 " />
			<path d="M27.838793975314374,-33.53807463167795 L27.791467960567356,-33.52097892925132 L27.744224793422273,-33.50127242572949 L27.697147176450354,-33.478989618768075 L27.650317522415317,-33.45416951602769 L27.60381781000387,-33.42685556688819 L27.55772944031612,-33.397095586387415 L27.51213309436706,-33.364941671517485 L27.467108591848657,-33.33045011002531 L27.4227347513997,-33.293681281876786 L27.379089252628113,-33.25469955355732 L27.336248500127173,-33.21357316539369 L27.29428748972378,-33.17037411209437 L27.253279677192843,-33.12517801671765 L27.213296849667653,-33.078063998287995 L27.136684204089327,-32.978415311299834 L27.064985782054475,-32.87212551460889 L26.998703416877543,-32.7599385543084 L26.93830103367796,-32.64263965206052 L26.88420140226433,-32.52104980915404 L26.83678317807386,-32.3960200601325 L26.796378251878124,-32.268425516212766 L26.763269426805245,-32.13915924018566 L26.737688438937436,-32.009125995669436 L26.719814335338274,-31.879235914466594 L26.70977222086219,-31.750398126347537 L26.707632382517588,-31.623514395847693 L26.709532663330858,-31.561083534661957 L26.713409797512302,-31.49947281061554 L26.719256997858913,-31.438790077724203 L26.727064028424792,-31.379141565488272 L26.736817222439896,-31.320631692930224 L26.748499506234705,-31.263362885801662 L26.76209042912892,-31.207435397279653 L26.77756619923185,-31.15294713246631 L26.79489972509182,-31.099993476998836 L26.814060663121737,-31.048667130070115 L26.835015470717703,-30.999057942152064 L26.857727464977778,-30.951252757705916 L26.882156886918033,-30.905335263154715 L26.908260971073528,-30.861385840384216 L26.935994020362344,-30.81948142602858 L26.965307486081613,-30.779695376787252 L26.996150052895523,-30.742097341008773 L27.02846772866652,-30.706753136766316 L27.062203938972445,-30.673724636638408 L27.09729962614412,-30.643069659396517 L27.133693352650077,-30.614841868789114 L27.17132140864738,-30.589090679599437 L27.21011792351029,-30.565861171141307 L27.25001498114156,-30.54519400834459 L27.29094273886447,-30.527125370568253 L27.33282954968743,-30.511686888265828 " />
			<path d="M27.332829549687432,-30.511686888265825 L27.392293524763474,-30.494697237164285 L27.453256827008087,-30.482861649561826 L27.515514744566616,-30.476219868795837 L27.578858218328048,-30.47479419764862 L27.64307454393555,-30.47858942345574 L27.70794808603751,-30.487592802030367 L27.773261002380746,-30.501774100457634 L27.83879397531437,-30.521085698615344 " />
			<path d="M-24.075671136390003,-15.21852519756636 L-24.128898184946465,-15.176081622995904 L-24.1811366146788,-15.130464012103772 L-24.23225679558223,-15.081785565289511 L-24.282131872593776,-15.03016707843701 L-24.330638080383885,-14.97573664315873 L-24.377655050480936,-14.918629328935525 L-24.423066109966364,-14.858986847940844 L-24.466758570999293,-14.79695720338105 L-24.50862401045213,-14.73269432222449 L-24.548558538963277,-14.666357673230722 L-24.586463058739255,-14.598111871227745 L-24.622243509466525,-14.528126268619227 L-24.65581110172278,-14.456574535135406 L-24.687082537308466,-14.383634226870525 L-24.715980215951813,-14.309486345676218 L-24.742432427874416,-14.234314890004239 L-24.76637353173952,-14.158306398313094 L-24.78774411754143,-14.08164948617164 L-24.806491154031807,-14.004534378208325 L-24.822568120317097,-13.927152436067514 L-24.83593512130039,-13.849695683544336 L-24.846558986681394,-13.77235633007637 L-24.85441335326874,-13.695326293774668 L-24.859478730400404,-13.618796725177717 L-24.86174254830994,-13.542957532910124 L-24.861199189318405,-13.467996912423123 L-24.857850001774686,-13.394100878986329 L-24.851703296709566,-13.321452806089638 L-24.84277432721183,-13.250232970400711 L-24.831085250577644,-13.180618104407241 L-24.81666507332706,-13.112780957854138 L-24.799549579224163,-13.046889869063902 " />
			<path d="M-25.144717138993627,-15.876904260241945 L-25.192043153740645,-15.85980855781532 L-25.23928632088573,-15.840102054293483 L-25.286363937857647,-15.81781924733207 L-25.333193591892684,-15.792999144591686 L-25.37969330430413,-15.765685195452189 L-25.42578167399188,-15.735925214951408 L-25.471378019940943,-15.703771300081481 L-25.516402522459344,-15.669279738589305 L-25.5607763629083,-15.63251091044078 L-25.60442186167989,-15.59352918212132 L-25.64726261418083,-15.552402793957688 L-25.689223624584223,-15.509203740658368 L-25.730231437115158,-15.464007645281646 L-25.770214264640348,-15.41689362685199 L-25.846826910218674,-15.317244939863834 L-25.918525332253527,-15.210955143172885 L-25.98480769743046,-15.098768182872393 L-26.045210080630042,-14.98146928062451 L-26.09930971204367,-14.859879437718039 L-26.146727936234143,-14.734849688696498 L-26.187132862429877,-14.607255144776765 L-26.220241687502757,-14.477988868749655 L-26.245822675370565,-14.347955624233432 L-26.263696778969727,-14.21806554303059 L-26.27373889344581,-14.089227754911535 L-26.275878731790414,-13.962344024411687 L-26.273978450977143,-13.899913163225953 L-26.2701013167957,-13.838302439179536 L-26.264254116449088,-13.777619706288199 L-26.25644708588321,-13.717971194052266 L-26.246693891868105,-13.659461321494218 L-26.235011608073297,-13.602192514365658 L-26.22142068517908,-13.546265025843649 L-26.205944915076152,-13.491776761030305 L-26.18861138921618,-13.438823105562832 L-26.169450451186265,-13.38749675863411 L-26.148495643590298,-13.337887570716061 L-26.125783649330224,-13.29008238626991 L-26.10135422738997,-13.244164891718711 L-26.075250143234474,-13.200215468948212 L-26.047517093945658,-13.158311054592575 L-26.018203628226388,-13.118525005351248 L-25.98736106141248,-13.080926969572769 L-25.95504338564148,-13.045582765330312 L-25.921307175335556,-13.012554265202404 L-25.88621148816388,-12.98189928796051 L-25.849817761657924,-12.953671497353112 L-25.81218970566062,-12.927920308163431 L-25.773393190797712,-12.904690799705305 L-25.73349613316644,-12.884023636908585 L-25.692568375443532,-12.86595499913225 L-25.650681564620573,-12.850516516829822 " />
			<path d="M-25.65068156462057,-12.85051651682982 L-25.591217589544527,-12.833526865728281 L-25.530254287299915,-12.821691278125822 L-25.467996369741385,-12.815049497359832 L-25.404652895979954,-12.813623826212616 L-25.34043657037245,-12.817419052019739 L-25.27556302827049,-12.826422430594363 L-25.210250111927255,-12.84060372902163 L-25.14471713899363,-12.85991532717934 " />
			<path d="M-34.506810921903515,37.58979648787687 L35.53918682243587,14.241130573097067 " />
			<path d="M35.53918682243587,13.542634506248625 L35.53918682243587,14.241130573097069 " />
			<path d="M37.335238046649536,11.02050391076176 L35.53918682243587,13.542634506248623 " />
			<path d="M37.3352380466497,11.020503910761988 L37.3352380466497,-20.82560416294612 " />
			<path d="M35.53918682243588,-24.074628876797988 L37.335238046649906,-20.82560416294635 " />
			<path d="M35.53918682243588,-35.10549466330813 L35.53918682243588,-24.074628876797988 " />
			<path d="M34.832080041249334,-35.812601444494675 L35.53918682243588,-35.10549466330813 " />
			<path d="M35.92102448427661,10.549099389970955 L35.92102448427661,-21.297008683737154 " />
			<path d="M35.92102448427661,-21.297008683737154 L37.33523804664971,-20.82560416294612 " />
			<path d="M35.92102448427661,10.549099389970955 L37.33523804664971,11.020503910761986 " />
			<path d="M33.417866478876235,-36.28400596528571 L34.832080041249334,-35.812601444494675 " />
			<path d="M33.41786647887624,-36.284005965285715 L-35.92102448427661,-13.171042310901427 " />
			<path d="M-35.9210244842766,-13.171042310901427 L-35.92102448427661,37.118391967085834 " />
			<path d="M-34.506810921903515,37.58979648787687 L-35.92102448427661,37.118391967085834 " />
			<path d="M-35.92102448427661,37.118391967085834 L34.12497326006278,13.769726052306034 " />
			<path d="M34.124973260062774,13.769726052306037 L35.53918682243587,14.241130573097069 " />
			<path d="M34.12497326006278,-24.54603339758902 L35.921024484276806,-21.297008683737385 " />
			<path d="M35.921024484276444,10.549099389970731 L34.12497326006278,13.071229985457592 " />
			<path d="M34.12497326006278,13.071229985457592 L34.12497326006278,13.769726052306037 " />
			<path d="M33.417866478876235,-36.28400596528571 L34.12497326006278,-35.57689918409916 " />
			<path d="M34.12497326006278,-35.57689918409916 L34.12497326006278,-24.54603339758902 " />
			<path d="M32.32892203584895,13.482169294623505 L32.37624805059596,13.46507359219688 L32.42349121774105,13.445367088675043 L32.470568834712964,13.42308428171363 L32.51739848874801,13.398264178973246 L32.56389820115945,13.370950229833749 L32.609986570847205,13.34119024933297 L32.65558291679626,13.309036334463041 L32.700607419314665,13.274544772970867 L32.74498125976362,13.23777594482234 L32.78862675853521,13.198794216502883 L32.831467511036145,13.157667828339248 L32.87342852143954,13.114468775039928 L32.91443633397048,13.069272679663207 L32.954419161495665,13.02215866123355 L33.031031807073994,12.922509974245393 L33.10273022910884,12.816220177554445 L33.169012594285775,12.704033217253953 L33.22941497748536,12.586734315006073 L33.28351460889899,12.465144472099599 L33.33093283308946,12.340114723078058 L33.3713377592852,12.212520179158327 L33.40444658435808,12.083253903131217 L33.43002757222589,11.953220658614992 L33.44790167582505,11.82333057741215 L33.45794379030113,11.694492789293095 L33.460083628645734,11.567609058793249 L33.45818334783246,11.505178197607513 L33.45430621365102,11.443567473561096 L33.44845901330441,11.382884740669759 L33.44065198273853,11.323236228433828 L33.430898788723425,11.26472635587578 L33.41921650492861,11.207457548747218 L33.4056255820344,11.15153006022521 L33.39014981193147,11.097041795411865 L33.3728162860715,11.044088139944392 L33.353655348041585,10.992761793015672 L33.332700540445614,10.94315260509762 L33.309988546185544,10.89534742065147 L33.28555912424529,10.849429926100271 L33.25945504008979,10.805480503329772 L33.23172199080098,10.763576088974137 L33.20240852508171,10.723790039732808 L33.1715659582678,10.686192003954329 L33.1392482824968,10.650847799711872 L33.105512072190876,10.617819299583964 L33.0704163850192,10.58716432234207 L33.034022658513244,10.558936531734672 L32.99639460251594,10.533185342544991 L32.95759808765303,10.509955834086865 L32.91770103002176,10.489288671290145 L32.876773272298855,10.47122003351381 L32.8348864614759,10.455781551211384 " />
			<path d="M32.83488646147589,10.45578155121138 L32.77542248639985,10.438791900109841 L32.71445918415523,10.426956312507382 L32.652201266596705,10.420314531741392 L32.58885779283527,10.418888860594176 L32.52464146722777,10.422684086401299 L32.45976792512581,10.431687464975923 L32.39445500878257,10.44586876340319 L32.32892203584895,10.465180361560902 " />
			<path d="M-25.144717138993634,32.64004901957103 L-25.097391124246617,32.62295331714441 L-25.050147957101533,32.60324681362257 L-25.003070340129614,32.580964006661155 L-24.956240686094578,32.55614390392078 L-24.90974097368313,32.52882995478128 L-24.86365260399538,32.499069974280495 L-24.818056258046322,32.46691605941057 L-24.773031755527917,32.43242449791839 L-24.728657915078962,32.395655669769866 L-24.685012416307373,32.35667394145041 L-24.642171663806433,32.31554755328678 L-24.600210653403042,32.27234849998746 L-24.559202840872103,32.227152404610734 L-24.519220013346914,32.18003838618108 L-24.442607367768588,32.08038969919292 L-24.37090894573374,31.974099902501973 L-24.304626580556803,31.861912942201478 L-24.24422419735722,31.7446140399536 L-24.19012456594359,31.623024197047126 L-24.14270634175312,31.497994448025587 L-24.102301415557385,31.370399904105852 L-24.069192590484505,31.241133628078742 L-24.043611602616696,31.11110038356252 L-24.025737499017534,30.981210302359678 L-24.015695384541452,30.85237251424062 L-24.013555546196848,30.725488783740776 L-24.01545582701012,30.66305792255504 L-24.019332961191562,30.601447198508623 L-24.025180161538174,30.540764465617286 L-24.032987192104052,30.481115953381355 L-24.042740386119156,30.422606080823307 L-24.054422669913965,30.365337273694745 L-24.06801359280818,30.309409785172736 L-24.08348936291111,30.254921520359392 L-24.10082288877108,30.20196786489192 L-24.119983826800997,30.150641517963198 L-24.140938634396964,30.101032330045147 L-24.163650628657038,30.053227145599 L-24.188080050597293,30.007309651047798 L-24.214184134752788,29.9633602282773 L-24.241917184041604,29.921455813921664 L-24.27123064976087,29.881669764680336 L-24.302073216574783,29.844071728901856 L-24.33439089234578,29.8087275246594 L-24.368127102651705,29.77569902453149 L-24.40322278982338,29.7450440472896 L-24.439616516329338,29.7168162566822 L-24.47724457232664,29.69106506749252 L-24.51604108718955,29.667835559034394 L-24.55593814482082,29.647168396237674 L-24.59686590254373,29.629099758461336 L-24.638752713366685,29.61366127615891 " />
			<path d="M-24.638752713366692,29.613661276158908 L-24.698216688442734,29.59667162505737 L-24.75917999068735,29.58483603745491 L-24.821437908245876,29.578194256688917 L-24.884781382007308,29.576768585541704 L-24.94899770761481,29.580563811348824 L-25.01387124971677,29.58956718992345 L-25.079184166060006,29.603748488350718 L-25.144717138993634,29.623060086508428 " />
			<path d="M27.838793975314374,-30.521085698615344 L27.886119990061392,-30.53818140104197 L27.933363157206475,-30.55788790456381 L27.980440774178394,-30.58017071152522 L28.02727042821343,-30.604990814265605 L28.073770140624877,-30.632304763405102 L28.11985851031263,-30.662064743905884 L28.165454856261686,-30.69421865877581 L28.21047935878009,-30.728710220267985 L28.254853199229046,-30.765479048416513 L28.298498698000635,-30.80446077673597 L28.341339450501575,-30.8455871648996 L28.383300460904966,-30.888786218198923 L28.424308273435905,-30.933982313575644 L28.464291100961095,-30.9810963320053 L28.54090374653942,-31.080745018993458 L28.61260216857427,-31.187034815684406 L28.678884533751205,-31.2992217759849 L28.73928691695079,-31.41652067823278 L28.793386548364417,-31.538110521139252 L28.84080477255489,-31.663140270160792 L28.881209698750624,-31.790734814080526 L28.914318523823503,-31.920001090107636 L28.939899511691312,-32.05003433462386 L28.957773615290474,-32.1799244158267 L28.967815729766556,-32.308762203945754 L28.96995556811116,-32.4356459344456 L28.96805528729789,-32.49807679563134 L28.964178153116446,-32.55968751967776 L28.958330952769835,-32.62037025256909 L28.950523922203956,-32.68001876480503 L28.940770728188852,-32.738528637363075 L28.929088444394043,-32.79579744449163 L28.915497521499827,-32.85172493301364 L28.9000217513969,-32.906213197826986 L28.882688225536928,-32.959166853294455 L28.86352728750701,-33.01049320022318 L28.842572479911045,-33.06010238814123 L28.81986048565097,-33.10790757258738 L28.795431063710716,-33.15382506713858 L28.76932697955522,-33.19777448990908 L28.741593930266404,-33.239678904264714 L28.71228046454714,-33.27946495350604 L28.681437897733225,-33.31706298928452 L28.649120221962228,-33.35240719352698 L28.615384011656303,-33.385435693654884 L28.580288324484627,-33.41609067089678 L28.54389459797867,-33.44431846150418 L28.50626654198137,-33.47006965069386 L28.46747002711846,-33.49329915915199 L28.427572969487187,-33.51396632194871 L28.38664521176428,-33.53203495972504 L28.344758400941323,-33.54747344202747 " />
			<path d="M28.344758400941316,-33.54747344202747 L28.285294425865274,-33.56446309312901 L28.224331123620658,-33.57629868073147 L28.162073206062132,-33.58294046149746 L28.0987297323007,-33.584366132644675 L28.034513406693197,-33.58057090683755 L27.969639864591237,-33.571567528262925 L27.904326948248002,-33.55738622983566 L27.838793975314374,-33.53807463167795 " />
			<path d="M-25.144717138993627,-12.859915327179342 L-25.09739112424661,-12.877011029605967 L-25.050147957101526,-12.896717533127804 L-25.003070340129607,-12.919000340089218 L-24.95624068609457,-12.943820442829601 L-24.909740973683125,-12.971134391969098 L-24.863652603995373,-13.000894372469878 L-24.818056258046315,-13.033048287339806 L-24.77303175552791,-13.06753984883198 L-24.728657915078955,-13.104308676980507 L-24.685012416307366,-13.143290405299965 L-24.642171663806426,-13.1844167934636 L-24.600210653403035,-13.22761584676292 L-24.559202840872096,-13.27281194213964 L-24.519220013346906,-13.319925960569297 L-24.44260736776858,-13.419574647557454 L-24.37090894573373,-13.525864444248402 L-24.304626580556796,-13.638051404548895 L-24.244224197357212,-13.755350306796775 L-24.190124565943584,-13.876940149703248 L-24.14270634175311,-14.00196989872479 L-24.102301415557378,-14.12956444264452 L-24.069192590484498,-14.25883071867163 L-24.04361160261669,-14.388863963187855 L-24.025737499017527,-14.518754044390697 L-24.015695384541445,-14.647591832509752 L-24.01355554619684,-14.774475563009599 L-24.01545582701011,-14.836906424195334 L-24.019332961191555,-14.898517148241751 L-24.025180161538167,-14.959199881133088 L-24.032987192104045,-15.01884839336902 L-24.04274038611915,-15.077358265927067 L-24.054422669913958,-15.13462707305563 L-24.068013592808175,-15.190554561577637 L-24.083489362911102,-15.245042826390982 L-24.100822888771074,-15.297996481858455 L-24.11998382680099,-15.349322828787175 L-24.140938634396957,-15.398932016705228 L-24.16365062865703,-15.446737201151377 L-24.188080050597286,-15.492654695702576 L-24.21418413475278,-15.536604118473075 L-24.241917184041597,-15.57850853282871 L-24.271230649760863,-15.618294582070039 L-24.302073216574776,-15.655892617848519 L-24.334390892345773,-15.691236822090975 L-24.368127102651698,-15.724265322218884 L-24.403222789823374,-15.754920299460776 L-24.43961651632933,-15.783148090068176 L-24.477244572326633,-15.808899279257856 L-24.516041087189542,-15.832128787715982 L-24.555938144820814,-15.852795950512702 L-24.596865902543723,-15.870864588289038 L-24.638752713366678,-15.886303070591463 " />
			<path d="M-24.638752713366685,-15.886303070591467 L-24.698216688442727,-15.903292721693006 L-24.759179990687343,-15.915128309295465 L-24.82143790824587,-15.921770090061456 L-24.8847813820073,-15.923195761208671 L-24.948997707614804,-15.919400535401548 L-25.013871249716765,-15.910397156826924 L-25.07918416606,-15.896215858399657 L-25.144717138993627,-15.876904260241945 " />
			<path d="M34.124973260062774,13.071229985457592 L35.53918682243587,13.542634506248623 " />
			<path d="M34.12497326006278,-24.54603339758902 L35.53918682243588,-24.074628876797988 " />
			<path d="M34.12497326006278,-35.57689918409916 L35.53918682243588,-35.10549466330813 " />
			<path d="M28.78257624224038,-31.512282132231167 L28.18760290439737,-31.710606578178837 " />
			<path d="M40.48893429074171,9.857068529740472 L37.3352380466497,8.805836448376468 " />
			<path d="M37.3352380466497,10.908300611104476 L40.48893429074171,9.857068529740474 " />
			<path d="M40.48893429074171,-33.04074286224341 L35.53918682243588,-34.690658685012025 " />
			<path d="M40.48893429074172,9.857068529740467 L40.48893429074171,-33.04074286224341 " />
			<path d="M-6.052834046956848,30.99013319680242 L-10.380327547818514,29.547635363181865 " />
			<path d="M4.5537676708413635,27.454599290869684 L0.22627416997970062,26.01210145724913 " />
			<path d="M-6.052834046956848,30.99013319680242 L4.5537676708413635,27.454599290869684 " />
			<path d="M4.553767670841365,27.454599290869684 L4.553767670841365,26.04038572849659 " />
			<path d="M6.675088014401005,26.747492509683138 L2.34759451353934,25.30499467606258 " />
			<path d="M20.817223638131956,22.03344730177282 L16.489730137270293,20.590949468152264 " />
			<path d="M6.675088014401005,26.747492509683138 L20.817223638131956,22.033447301772824 " />
			<path d="M20.817223638131956,22.03344730177282 L20.817223638131956,20.807795547716143 " />
			<path d="M22.655701269216976,21.420621424744482 L18.328207768355313,19.978123591123925 " />
			<path d="M36.79783689294793,16.70657621683416 L32.47034339208626,15.264078383213604 " />
			<path d="M22.655701269216976,21.420621424744482 L36.79783689294793,16.706576216834165 " />
			<path d="M36.79783689294793,13.68958728377156 L35.696068509236014,13.32233115586759 " />
			<path d="M33.26381992027855,12.5115816262151 L32.672473211804615,12.314466056723788 " />
			<path d="M36.79783689294793,16.70657621683416 L36.79783689294793,13.68958728377156 " />
			<path d="M-39.08179179618048,8.850619877851623 L-35.92102448427661,7.797030773883662 " />
			<path d="M-39.081791796180475,-2.4630886211331378 L-39.08179179618047,8.85061987785162 " />
			<path d="M-35.9210244842766,-3.516677725101092 L-39.08179179618048,-2.46308862113313 " />
			<path d="M-35.92102448427661,9.90420898181958 L-39.08179179618048,8.85061987785162 " />
			<path d="M-35.92102448427661,26.455221706792695 L-35.991735162395265,26.478791932832248 " />
			<path d="M-35.991735162395265,34.02126426548876 L-35.92102448427661,33.99769403944921 " />
			<path d="M-35.991735162395265,26.478791932832248 L-35.991735162395265,34.02126426548875 " />
			<path d="M-28.92066735052979,36.37828686944392 L-29.89647470856723,36.05301775009811 " />
			<path d="M-35.92102448427661,34.04483449152831 L-35.991735162395265,34.02126426548876 " />
			<path d="M-21.14249275747777,33.78556200509324 L-22.1183001155152,33.46029288574743 " />
			<path d="M-28.92066735052979,36.37828686944392 L-21.14249275747777,33.78556200509325 " />
			<path d="M-21.14249275747777,33.78556200509324 L-21.14249275747777,33.135023766401616 " />

       </g>
    </g>
    
</svg>
