<?xml version="1.0" encoding="UTF-8" standalone="no"?>
<svg
   xmlns:svg="http://www.w3.org/2000/svg"
   xmlns="http://www.w3.org/2000/svg"
   width="1024.0"
   height="320.0"

>
    <g transform="scale(3.248783628704704, -3.248783628704704)   translate(100.64329384048264,-43.745946692307086)" stroke-width="0.7204666666666668"  fill="none">
       <!-- hidden lines -->
       <g  stroke="rgb(32,64,32)" fill="none" stroke-dasharray="0.7204666666666668,0.7204666666666668" >

       </g>

       <!-- solid lines -->
       <g  stroke="rgb(64,192,64)" fill="none">
			<path d="M33.39796803845258,11.123559424236488 L33.34474098989612,11.166002998806944 L33.29250256016379,11.211620609699075 L33.24138237926036,11.260299056513336 L33.19150730224881,11.311917543365837 L33.143001094458704,11.366347978644118 L33.09598412436165,11.423455292867322 L33.050573064876225,11.483097773862003 L33.00688060384329,11.545127418421798 L32.96501516439046,11.609390299578356 L32.92508063587931,11.675726948572123 L32.88717611610333,11.7439727505751 L32.85139566537607,11.813958353183619 L32.817828073119806,11.88551008666744 L32.786556637534126,11.95845039493232 L32.75765895889078,12.032598276126627 L32.731206746968176,12.107769731798607 L32.70726564310307,12.183778223489751 L32.68589505730116,12.260435135631203 L32.667148020810785,12.33755024359452 L32.651071054525495,12.41493218573533 L32.6377040535422,12.492388938258507 L32.627080188161194,12.569728291726474 L32.61922582157385,12.646758328028175 L32.614160444442184,12.723287896625125 L32.611896626532655,12.799127088892718 L32.61243998552419,12.874087709379719 L32.6157891730679,12.947983742816513 L32.62193587813302,13.020631815713203 L32.63086484763076,13.09185165140213 L32.642553924264945,13.1614665173956 L32.65697410151554,13.229303663948704 L32.674089595618426,13.29519475273894 " />
			<path d="M32.32892203584896,10.4651803615609 L32.28159602110195,10.482276063987527 L32.23435285395686,10.501982567509364 L32.187275236984945,10.524265374470776 L32.1404455829499,10.54908547721116 L32.093945870538455,10.576399426350656 L32.047857500850704,10.606159406851438 L32.002261154901646,10.638313321721364 L31.957236652383244,10.67280488321354 L31.91286281193429,10.709573711362065 L31.869217313162704,10.748555439681525 L31.82637656066176,10.789681827845158 L31.78441555025837,10.832880881144478 L31.74340773772743,10.8780769765212 L31.703424910202244,10.925190994950855 L31.626812264623915,11.024839681939014 L31.555113842589066,11.13112947862996 L31.48883147741213,11.243316438930453 L31.428429094212547,11.360615341178335 L31.37432946279892,11.482205184084807 L31.326911238608446,11.607234933106348 L31.286506312412712,11.73482947702608 L31.253397487339832,11.864095753053189 L31.227816499472024,11.994128997569414 L31.20994239587286,12.124019078772253 L31.199900281396783,12.252856866891308 L31.197760443052175,12.379740597391157 L31.19966072386545,12.44217145857689 L31.20353785804689,12.503782182623308 L31.2093850583935,12.564464915514645 L31.217192088959383,12.624113427750576 L31.226945282974484,12.682623300308624 L31.238627566769296,12.739892107437186 L31.252218489663512,12.795819595959193 L31.26769425976644,12.850307860772539 L31.28502778562641,12.90326151624001 L31.304188723656328,12.954587863168731 L31.325143531252294,13.004197051086782 L31.347855525512365,13.052002235532932 L31.37228494745262,13.097919730084131 L31.39838903160812,13.141869152854628 L31.426122080896935,13.183773567210267 L31.4554355466162,13.223559616451594 L31.48627811343011,13.261157652230073 L31.51859578920111,13.29650185647253 L31.552331999507032,13.329530356600438 L31.58742768667871,13.36018533384233 L31.623821413184668,13.38841312444973 L31.661449469181967,13.41416431363941 L31.700245984044876,13.437393822097537 L31.740143041676152,13.458060984894257 L31.781070799399057,13.476129622670591 L31.822957610222016,13.491568104973018 " />
			<path d="M31.822957610222023,13.49156810497302 L31.88242158529806,13.508557756074559 L31.943384887542678,13.520393343677018 L32.0056428051012,13.52703512444301 L32.06898627886264,13.528460795590224 L32.13320260447014,13.524665569783103 L32.1980761465721,13.515662191208477 L32.26338906291534,13.50148089278121 L32.328922035848954,13.4821692946235 " />
			<path d="M-24.075671136390003,30.28143914918402 L-24.128898184946465,30.323882723754476 L-24.181136614678795,30.36950033464661 L-24.23225679558223,30.41817878146087 L-24.282131872593773,30.46979726831337 L-24.330638080383885,30.52422770359165 L-24.377655050480932,30.581335017814855 L-24.423066109966364,30.640977498809537 L-24.466758570999293,30.70300714336933 L-24.508624010452127,30.76727002452589 L-24.548558538963274,30.833606673519657 L-24.586463058739252,30.901852475522634 L-24.62224350946652,30.971838078131153 L-24.655811101722776,31.043389811614972 L-24.687082537308463,31.116330119879855 L-24.71598021595181,31.190478001074162 L-24.742432427874412,31.26564945674614 L-24.766373531739518,31.341657948437284 L-24.787744117541422,31.41831486057874 L-24.806491154031804,31.495429968542055 L-24.82256812031709,31.572811910682862 L-24.835935121300388,31.65026866320604 L-24.84655898668139,31.727608016674008 L-24.854413353268733,31.80463805297571 L-24.8594787304004,31.88116762157266 L-24.861742548309934,31.957006813840252 L-24.8611991893184,32.03196743432726 L-24.857850001774683,32.105863467764046 L-24.851703296709562,32.178511540660736 L-24.842774327211828,32.249731376349665 L-24.831085250577637,32.31934624234314 L-24.81666507332705,32.38718338889624 L-24.799549579224156,32.45307447768647 " />
			<path d="M-25.144717138993627,29.623060086508435 L-25.192043153740645,29.64015578893506 L-25.23928632088573,29.659862292456896 L-25.286363937857647,29.68214509941831 L-25.333193591892684,29.706965202158695 L-25.37969330430413,29.734279151298193 L-25.42578167399188,29.76403913179897 L-25.47137801994094,29.7961930466689 L-25.516402522459344,29.830684608161075 L-25.5607763629083,29.8674534363096 L-25.604421861679885,29.90643516462906 L-25.64726261418083,29.947561552792692 L-25.68922362458422,29.990760606092014 L-25.730231437115158,30.035956701468734 L-25.770214264640344,30.083070719898387 L-25.846826910218674,30.182719406886548 L-25.918525332253523,30.289009203577496 L-25.98480769743046,30.401196163877987 L-26.045210080630042,30.51849506612587 L-26.09930971204367,30.640084909032343 L-26.146727936234143,30.765114658053882 L-26.187132862429877,30.892709201973613 L-26.220241687502757,31.021975478000723 L-26.245822675370565,31.152008722516946 L-26.263696778969727,31.281898803719788 L-26.273738893445806,31.410736591838845 L-26.275878731790414,31.53762032233869 L-26.27397845097714,31.600051183524425 L-26.2701013167957,31.661661907570842 L-26.264254116449088,31.72234464046218 L-26.256447085883206,31.78199315269811 L-26.246693891868105,31.840503025256158 L-26.235011608073293,31.89777183238472 L-26.221420685179076,31.95369932090673 L-26.20594491507615,32.00818758572007 L-26.188611389216177,32.06114124118754 L-26.16945045118626,32.11246758811627 L-26.148495643590294,32.16207677603432 L-26.125783649330224,32.209881960480466 L-26.10135422738997,32.255799455031664 L-26.07525014323447,32.299748877802166 L-26.047517093945654,32.3416532921578 L-26.018203628226388,32.38143934139913 L-25.98736106141248,32.41903737717761 L-25.955043385641478,32.454381581420066 L-25.921307175335556,32.48741008154797 L-25.88621148816388,32.518065058789865 L-25.84981776165792,32.54629284939726 L-25.81218970566062,32.572044038586945 L-25.773393190797712,32.59527354704507 L-25.733496133166437,32.61594070984179 L-25.692568375443532,32.634009347618125 L-25.650681564620573,32.649447829920554 " />
			<path d="M-25.650681564620566,32.649447829920554 L-25.591217589544527,32.66643748102209 L-25.53025428729991,32.67827306862455 L-25.467996369741385,32.684914849390545 L-25.40465289597995,32.68634052053776 L-25.34043657037245,32.68254529473064 L-25.27556302827049,32.67354191615601 L-25.210250111927255,32.659360617728744 L-25.14471713899363,32.64004901957104 " />
			<path d="M28.907839977918016,-32.879695569002365 L28.854612929361554,-32.83725199443191 L28.80237449962922,-32.79163438353978 L28.75125431872579,-32.74295593672552 L28.701379241714243,-32.69133744987302 L28.652873033924134,-32.63690701459474 L28.605856063827083,-32.57979970037153 L28.560445004341656,-32.520157219376856 L28.516752543308726,-32.458127574817055 L28.474887103855888,-32.3938646936605 L28.43495257534474,-32.327528044666735 L28.397048055568767,-32.25928224266376 L28.361267604841494,-32.18929664005524 L28.32770001258524,-32.11774490657142 L28.296428576999556,-32.044804598306534 L28.26753089835621,-31.970656717112227 L28.241078686433603,-31.89548526144025 L28.2171375825685,-31.819476769749105 L28.195766996766594,-31.74281985760765 L28.177019960276212,-31.665704749644334 L28.160942993990925,-31.588322807503527 L28.14757599300763,-31.510866054980347 L28.136952127626625,-31.43352670151238 L28.129097761039283,-31.35649666521068 L28.124032383907615,-31.27996709661373 L28.12176856599808,-31.204127904346137 L28.122311924989617,-31.129167283859136 L28.125661112533333,-31.05527125042234 L28.131807817598453,-30.982623177525653 L28.140736787096188,-30.911403341836724 L28.15242586373038,-30.841788475843256 L28.166846040980964,-30.773951329290153 L28.18396153508386,-30.708060240499915 " />
			<path d="M27.838793975314392,-33.53807463167795 L27.791467960567374,-33.52097892925133 L27.74422479342229,-33.50127242572949 L27.697147176450372,-33.478989618768075 L27.650317522415335,-33.4541695160277 L27.60381781000389,-33.4268555668882 L27.557729440316137,-33.397095586387415 L27.51213309436708,-33.36494167151749 L27.467108591848675,-33.33045011002531 L27.42273475139972,-33.293681281876786 L27.379089252628134,-33.25469955355733 L27.33624850012719,-33.2135731653937 L27.2942874897238,-33.17037411209438 L27.25327967719286,-33.125178016717655 L27.213296849667675,-33.078063998288 L27.136684204089345,-32.97841531129984 L27.064985782054496,-32.872125514608896 L26.99870341687756,-32.7599385543084 L26.938301033677977,-32.642639652060524 L26.88420140226435,-32.52104980915405 L26.836783178073876,-32.39602006013251 L26.796378251878142,-32.26842551621277 L26.763269426805262,-32.13915924018566 L26.737688438937454,-32.00912599566944 L26.71981433533829,-31.8792359144666 L26.709772220862213,-31.750398126347545 L26.707632382517605,-31.6235143958477 L26.70953266333088,-31.561083534661964 L26.71340979751232,-31.499472810615547 L26.719256997858935,-31.43879007772421 L26.727064028424813,-31.37914156548828 L26.736817222439914,-31.32063169293023 L26.748499506234726,-31.26336288580167 L26.762090429128943,-31.20743539727966 L26.77756619923187,-31.152947132466316 L26.79489972509184,-31.099993476998844 L26.814060663121758,-31.048667130070125 L26.835015470717725,-30.999057942152074 L26.857727464977796,-30.951252757705923 L26.88215688691805,-30.905335263154726 L26.90826097107355,-30.861385840384226 L26.935994020362365,-30.819481426028588 L26.96530748608163,-30.77969537678726 L26.99615005289554,-30.742097341008783 L27.02846772866654,-30.706753136766324 L27.062203938972466,-30.67372463663842 L27.09729962614414,-30.643069659396524 L27.1336933526501,-30.614841868789124 L27.171321408647398,-30.589090679599444 L27.210117923510307,-30.565861171141318 L27.250014981141582,-30.5451940083446 L27.290942738864487,-30.527125370568264 L27.332829549687446,-30.511686888265835 " />
			<path d="M27.332829549687453,-30.511686888265835 L27.39229352476349,-30.494697237164296 L27.453256827008108,-30.482861649561837 L27.515514744566634,-30.476219868795845 L27.57885821832807,-30.47479419764863 L27.64307454393557,-30.47858942345575 L27.70794808603753,-30.487592802030377 L27.773261002380764,-30.501774100457645 L27.83879397531439,-30.521085698615355 " />
			<path d="M-24.075671136389996,-15.218525197566361 L-24.128898184946458,-15.176081622995907 L-24.181136614678792,-15.130464012103774 L-24.232256795582224,-15.081785565289513 L-24.282131872593766,-15.030167078437012 L-24.330638080383878,-14.975736643158733 L-24.37765505048093,-14.918629328935527 L-24.423066109966356,-14.858986847940848 L-24.466758570999286,-14.796957203381053 L-24.508624010452124,-14.732694322224493 L-24.54855853896327,-14.666357673230726 L-24.586463058739245,-14.59811187122775 L-24.622243509466514,-14.528126268619232 L-24.655811101722772,-14.456574535135411 L-24.687082537308456,-14.38363422687053 L-24.715980215951802,-14.309486345676223 L-24.742432427874405,-14.234314890004244 L-24.76637353173951,-14.1583063983131 L-24.78774411754142,-14.081649486171647 L-24.8064911540318,-14.00453437820833 L-24.822568120317086,-13.927152436067521 L-24.83593512130038,-13.849695683544343 L-24.846558986681387,-13.772356330076377 L-24.85441335326873,-13.695326293774675 L-24.859478730400397,-13.618796725177726 L-24.86174254830993,-13.542957532910133 L-24.861199189318395,-13.46799691242313 L-24.85785000177468,-13.394100878986336 L-24.85170329670956,-13.321452806089647 L-24.842774327211824,-13.25023297040072 L-24.831085250577633,-13.18061810440725 L-24.816665073327048,-13.112780957854145 L-24.799549579224152,-13.04688986906391 " />
			<path d="M-25.14471713899362,-15.876904260241949 L-25.192043153740638,-15.859808557815322 L-25.23928632088572,-15.840102054293485 L-25.28636393785764,-15.817819247332073 L-25.333193591892677,-15.79299914459169 L-25.379693304304123,-15.765685195452193 L-25.425781673991874,-15.735925214951411 L-25.471378019940932,-15.703771300081485 L-25.516402522459337,-15.669279738589308 L-25.560776362908292,-15.632510910440782 L-25.604421861679878,-15.593529182121324 L-25.64726261418082,-15.552402793957691 L-25.689223624584212,-15.509203740658371 L-25.73023143711515,-15.464007645281649 L-25.770214264640337,-15.416893626851994 L-25.846826910218667,-15.317244939863835 L-25.918525332253516,-15.210955143172889 L-25.98480769743045,-15.098768182872394 L-26.045210080630035,-14.981469280624514 L-26.099309712043663,-14.859879437718043 L-26.146727936234136,-14.734849688696501 L-26.18713286242987,-14.607255144776769 L-26.22024168750275,-14.47798886874966 L-26.245822675370558,-14.347955624233435 L-26.26369677896972,-14.218065543030596 L-26.2737388934458,-14.08922775491154 L-26.275878731790407,-13.962344024411692 L-26.273978450977133,-13.899913163225959 L-26.270101316795692,-13.838302439179541 L-26.26425411644908,-13.777619706288204 L-26.2564470858832,-13.717971194052273 L-26.246693891868098,-13.659461321494225 L-26.235011608073286,-13.602192514365663 L-26.22142068517907,-13.546265025843656 L-26.20594491507614,-13.49177676103031 L-26.18861138921617,-13.43882310556284 L-26.169450451186254,-13.387496758634118 L-26.148495643590287,-13.337887570716067 L-26.125783649330216,-13.290082386269917 L-26.10135422738996,-13.244164891718718 L-26.075250143234463,-13.200215468948219 L-26.047517093945647,-13.158311054592582 L-26.01820362822638,-13.118525005351255 L-25.98736106141247,-13.080926969572776 L-25.95504338564147,-13.04558276533032 L-25.92130717533555,-13.01255426520241 L-25.886211488163873,-12.98189928796052 L-25.849817761657913,-12.953671497353119 L-25.812189705660614,-12.927920308163438 L-25.773393190797705,-12.904690799705314 L-25.73349613316643,-12.884023636908594 L-25.692568375443525,-12.865954999132256 L-25.650681564620566,-12.850516516829831 " />
			<path d="M-25.65068156462056,-12.85051651682983 L-25.59121758954452,-12.83352686572829 L-25.530254287299904,-12.821691278125831 L-25.46799636974138,-12.81504949735984 L-25.404652895979943,-12.813623826212625 L-25.340436570372443,-12.817419052019748 L-25.275563028270483,-12.826422430594372 L-25.210250111927248,-12.84060372902164 L-25.144717138993624,-12.85991532717935 " />
			<path d="M-34.506810921903515,37.58979648787687 L35.53918682243587,14.241130573097067 " />
			<path d="M35.53918682243587,13.542634506248886 L35.53918682243587,14.241130573097069 " />
			<path d="M37.33523804664971,11.020503910761995 L35.53918682243587,13.542634506248886 " />
			<path d="M37.3352380466497,11.020503910761994 L37.3352380466497,-20.825604162946014 " />
			<path d="M35.53918682243588,-24.074628876797988 L37.335238046649714,-20.825604162946018 " />
			<path d="M35.53918682243588,-35.10549466330813 L35.53918682243588,-24.074628876797984 " />
			<path d="M34.832080041249334,-35.812601444494675 L35.53918682243588,-35.10549466330813 " />
			<path d="M35.92102448427661,10.549099389970962 L35.92102448427661,-21.29700868373702 " />
			<path d="M35.92102448427661,-21.29700868373705 L37.33523804664971,-20.825604162946018 " />
			<path d="M35.92102448427661,10.549099389970962 L37.33523804664971,11.020503910761994 " />
			<path d="M33.417866478876235,-36.28400596528571 L34.832080041249334,-35.812601444494675 " />
			<path d="M33.41786647887621,-36.2840059652857 L-35.92102448427661,-13.171042310901427 " />
			<path d="M-35.9210244842766,-13.171042310901427 L-35.92102448427661,37.118391967085834 " />
			<path d="M-34.506810921903515,37.58979648787687 L-35.92102448427661,37.118391967085834 " />
			<path d="M-35.92102448427661,37.118391967085834 L34.12497326006278,13.769726052306034 " />
			<path d="M34.124973260062774,13.769726052306037 L35.53918682243587,14.241130573097069 " />
			<path d="M34.12497326006278,-24.54603339758902 L35.92102448427663,-21.297008683737026 " />
			<path d="M35.921024484276614,10.549099389970964 L34.12497326006278,13.071229985457855 " />
			<path d="M34.12497326006278,13.071229985457855 L34.12497326006278,13.769726052306037 " />
			<path d="M33.41786647887623,-36.284005965285715 L34.124973260062774,-35.57689918409917 " />
			<path d="M34.12497326006278,-35.57689918409916 L34.12497326006278,-24.546033397589017 " />
			<path d="M32.32892203584896,13.4821692946235 L32.376248050595976,13.465073592196873 L32.42349121774106,13.445367088675038 L32.47056883471298,13.423084281713624 L32.517398488748015,13.39826417897324 L32.56389820115947,13.370950229833744 L32.60998657084722,13.341190249332962 L32.65558291679628,13.309036334463036 L32.70060741931468,13.27454477297086 L32.744981259763634,13.237775944822335 L32.78862675853522,13.198794216502876 L32.83146751103616,13.157667828339243 L32.87342852143956,13.114468775039922 L32.91443633397049,13.069272679663202 L32.95441916149568,13.022158661233545 L33.03103180707401,12.922509974245388 L33.10273022910886,12.816220177554442 L33.16901259428579,12.704033217253947 L33.229414977485376,12.586734315006067 L33.283514608899004,12.465144472099595 L33.33093283308948,12.340114723078054 L33.37133775928521,12.212520179158322 L33.40444658435809,12.083253903131213 L33.430027572225896,11.953220658614988 L33.44790167582506,11.823330577412147 L33.457943790301144,11.694492789293092 L33.46008362864575,11.567609058793245 L33.458183347832474,11.50517819760751 L33.45430621365103,11.443567473561092 L33.44845901330442,11.382884740669757 L33.440651982738544,11.323236228433824 L33.43089878872344,11.264726355875776 L33.41921650492863,11.207457548747216 L33.40562558203441,11.151530060225207 L33.39014981193149,11.097041795411863 L33.37281628607151,11.04408813994439 L33.3536553480416,10.99276179301567 L33.33270054044563,10.943152605097618 L33.30998854618556,10.895347420651468 L33.2855591242453,10.849429926100271 L33.259455040089804,10.805480503329772 L33.23172199080099,10.763576088974135 L33.20240852508172,10.723790039732807 L33.17156595826781,10.686192003954327 L33.139248282496816,10.65084779971187 L33.10551207219089,10.617819299583964 L33.070416385019215,10.58716432234207 L33.03402265851326,10.55893653173467 L32.996394602515956,10.533185342544991 L32.95759808765305,10.509955834086865 L32.917701030021774,10.489288671290145 L32.87677327229887,10.47122003351381 L32.83488646147591,10.455781551211384 " />
			<path d="M32.834886461475904,10.45578155121138 L32.77542248639986,10.438791900109841 L32.714459184155245,10.426956312507382 L32.65220126659672,10.420314531741392 L32.588857792835284,10.418888860594176 L32.52464146722778,10.422684086401297 L32.459767925125824,10.431687464975923 L32.394455008782586,10.44586876340319 L32.32892203584896,10.4651803615609 " />
			<path d="M-25.144717138993627,32.64004901957103 L-25.09739112424661,32.62295331714441 L-25.050147957101526,32.60324681362257 L-25.003070340129607,32.580964006661155 L-24.95624068609457,32.55614390392078 L-24.909740973683125,32.52882995478128 L-24.863652603995373,32.499069974280495 L-24.818056258046315,32.46691605941057 L-24.77303175552791,32.4324244979184 L-24.728657915078955,32.395655669769866 L-24.68501241630737,32.35667394145041 L-24.64217166380643,32.31554755328678 L-24.600210653403035,32.27234849998746 L-24.5592028408721,32.227152404610734 L-24.51922001334691,32.18003838618108 L-24.44260736776858,32.08038969919292 L-24.37090894573373,31.974099902501976 L-24.3046265805568,31.86191294220148 L-24.244224197357216,31.744614039953603 L-24.190124565943584,31.62302419704713 L-24.14270634175311,31.497994448025587 L-24.102301415557378,31.370399904105856 L-24.069192590484498,31.241133628078746 L-24.04361160261669,31.111100383562523 L-24.025737499017527,30.98121030235968 L-24.01569538454145,30.852372514240624 L-24.01355554619684,30.72548878374078 L-24.015455827010115,30.663057922555044 L-24.019332961191555,30.601447198508627 L-24.025180161538167,30.54076446561729 L-24.03298719210405,30.48111595338136 L-24.04274038611915,30.42260608082331 L-24.05442266991396,30.365337273694752 L-24.068013592808178,30.309409785172743 L-24.083489362911102,30.254921520359396 L-24.100822888771077,30.201967864891927 L-24.119983826800993,30.150641517963205 L-24.14093863439696,30.101032330045154 L-24.16365062865703,30.053227145599003 L-24.188080050597286,30.007309651047805 L-24.214184134752784,29.963360228277306 L-24.2419171840416,29.921455813921668 L-24.271230649760867,29.881669764680343 L-24.302073216574776,29.844071728901863 L-24.334390892345777,29.808727524659407 L-24.368127102651698,29.775699024531498 L-24.403222789823374,29.745044047289603 L-24.439616516329334,29.716816256682204 L-24.477244572326633,29.691065067492524 L-24.516041087189542,29.667835559034398 L-24.555938144820818,29.647168396237678 L-24.596865902543723,29.629099758461344 L-24.638752713366678,29.61366127615892 " />
			<path d="M-24.63875271336669,29.613661276158915 L-24.698216688442727,29.596671625057375 L-24.759179990687343,29.584836037454917 L-24.82143790824587,29.578194256688924 L-24.884781382007304,29.57676858554171 L-24.948997707614804,29.58056381134883 L-25.013871249716765,29.589567189923457 L-25.07918416606,29.603748488350725 L-25.144717138993627,29.623060086508435 " />
			<path d="M27.838793975314392,-30.521085698615355 L27.88611999006141,-30.53818140104198 L27.933363157206493,-30.557887904563817 L27.980440774178412,-30.58017071152523 L28.02727042821345,-30.604990814265612 L28.073770140624895,-30.632304763405113 L28.119858510312646,-30.66206474390589 L28.165454856261704,-30.694218658775817 L28.21047935878011,-30.728710220267995 L28.25485319922906,-30.76547904841652 L28.29849869800065,-30.80446077673598 L28.341339450501593,-30.845587164899612 L28.383300460904984,-30.88878621819893 L28.42430827343592,-30.933982313575655 L28.46429110096111,-30.981096332005308 L28.54090374653944,-31.080745018993465 L28.612602168574288,-31.187034815684413 L28.678884533751223,-31.299221775984908 L28.739286916950803,-31.416520678232786 L28.793386548364435,-31.53811052113926 L28.840804772554907,-31.663140270160802 L28.88120969875064,-31.790734814080533 L28.91431852382352,-31.920001090107643 L28.93989951169133,-32.05003433462387 L28.957773615290492,-32.179924415826704 L28.96781572976657,-32.30876220394576 L28.969955568111178,-32.43564593444561 L28.968055287297904,-32.49807679563134 L28.964178153116464,-32.55968751967776 L28.95833095276985,-32.620370252569096 L28.95052392220397,-32.68001876480503 L28.94077072818887,-32.738528637363075 L28.929088444394058,-32.79579744449164 L28.915497521499844,-32.85172493301365 L28.900021751396917,-32.90621319782699 L28.882688225536945,-32.95916685329446 L28.863527287507026,-33.01049320022319 L28.84257247991106,-33.06010238814124 L28.819860485650988,-33.107907572587386 L28.795431063710733,-33.153825067138584 L28.769326979555235,-33.19777448990909 L28.74159393026642,-33.23967890426472 L28.712280464547153,-33.27946495350605 L28.681437897733243,-33.31706298928453 L28.649120221962242,-33.352407193526986 L28.61538401165632,-33.38543569365489 L28.580288324484645,-33.416090670896786 L28.543894597978685,-33.44431846150418 L28.506266541981386,-33.470069650693866 L28.467470027118477,-33.49329915915199 L28.4275729694872,-33.51396632194871 L28.386645211764296,-33.532034959725046 L28.34475840094134,-33.547473442027474 " />
			<path d="M28.34475840094133,-33.547473442027474 L28.285294425865292,-33.564463093129014 L28.224331123620676,-33.57629868073147 L28.16207320606215,-33.582940461497465 L28.09872973230072,-33.58436613264468 L28.034513406693215,-33.58057090683756 L27.969639864591255,-33.57156752826293 L27.90432694824802,-33.557386229835664 L27.838793975314392,-33.53807463167795 " />
			<path d="M-25.14471713899362,-12.859915327179351 L-25.097391124246602,-12.877011029605976 L-25.05014795710152,-12.896717533127813 L-25.0030703401296,-12.919000340089225 L-24.956240686094564,-12.943820442829608 L-24.909740973683117,-12.971134391969105 L-24.863652603995366,-13.000894372469887 L-24.818056258046308,-13.033048287339813 L-24.773031755527903,-13.06753984883199 L-24.728657915078948,-13.104308676980514 L-24.685012416307362,-13.143290405299972 L-24.642171663806423,-13.184416793463607 L-24.60021065340303,-13.227615846762927 L-24.559202840872093,-13.272811942139647 L-24.519220013346903,-13.319925960569304 L-24.442607367768574,-13.41957464755746 L-24.370908945733724,-13.525864444248409 L-24.304626580556793,-13.638051404548902 L-24.24422419735721,-13.755350306796782 L-24.190124565943577,-13.876940149703254 L-24.142706341753104,-14.001969898724795 L-24.10230141555737,-14.129564442644527 L-24.06919259048449,-14.258830718671636 L-24.043611602616682,-14.38886396318786 L-24.02573749901752,-14.518754044390702 L-24.01569538454144,-14.647591832509757 L-24.013555546196834,-14.774475563009604 L-24.015455827010108,-14.83690642419534 L-24.019332961191548,-14.898517148241757 L-24.02518016153816,-14.959199881133092 L-24.03298719210404,-15.018848393369025 L-24.042740386119142,-15.077358265927073 L-24.054422669913954,-15.134627073055633 L-24.06801359280817,-15.190554561577642 L-24.083489362911095,-15.245042826390986 L-24.10082288877107,-15.297996481858458 L-24.119983826800986,-15.349322828787178 L-24.140938634396953,-15.398932016705231 L-24.163650628657024,-15.44673720115138 L-24.18808005059728,-15.492654695702578 L-24.214184134752777,-15.536604118473079 L-24.241917184041593,-15.578508532828714 L-24.27123064976086,-15.618294582070043 L-24.30207321657477,-15.655892617848522 L-24.33439089234577,-15.691236822090978 L-24.36812710265169,-15.724265322218885 L-24.403222789823367,-15.754920299460778 L-24.439616516329327,-15.78314809006818 L-24.477244572326626,-15.808899279257858 L-24.516041087189535,-15.832128787715984 L-24.55593814482081,-15.852795950512704 L-24.596865902543716,-15.87086458828904 L-24.63875271336667,-15.886303070591465 " />
			<path d="M-24.63875271336668,-15.886303070591469 L-24.69821668844272,-15.903292721693008 L-24.759179990687336,-15.915128309295467 L-24.821437908245862,-15.921770090061457 L-24.884781382007297,-15.923195761208673 L-24.948997707614797,-15.91940053540155 L-25.013871249716757,-15.910397156826926 L-25.079184166059992,-15.896215858399659 L-25.14471713899362,-15.876904260241949 " />
			<path d="M34.124973260062774,13.071229985457855 L35.53918682243587,13.542634506248886 " />
			<path d="M34.12497326006278,-24.54603339758902 L35.53918682243588,-24.074628876797988 " />
			<path d="M34.12497326006278,-35.57689918409916 L35.53918682243588,-35.10549466330813 " />
			<path d="M28.7825762422404,-31.51228213223117 L28.187602904397387,-31.71060657817884 " />
			<path d="M40.488934290741724,9.857068529740465 L37.3352380466497,8.805836448376457 " />
			<path d="M37.3352380466497,10.90830061110447 L40.48893429074172,9.857068529740465 " />
			<path d="M40.48893429074171,-33.04074286224342 L35.53918682243588,-34.69065868501203 " />
			<path d="M40.48893429074172,9.85706852974046 L40.48893429074171,-33.04074286224342 " />
			<path d="M-6.052834046956843,30.99013319680242 L-10.38032754781851,29.547635363181865 " />
			<path d="M4.553767670841367,27.454599290869684 L0.2262741699797015,26.012101457249127 " />
			<path d="M-6.052834046956843,30.99013319680242 L4.553767670841369,27.454599290869684 " />
			<path d="M4.553767670841369,27.454599290869684 L4.553767670841369,26.040385728496574 " />
			<path d="M6.675088014401012,26.747492509683124 L2.347594513539363,25.304994676062574 " />
			<path d="M20.81722363813196,22.03344730177281 L16.48973013727031,20.59094946815226 " />
			<path d="M6.675088014401012,26.747492509683124 L20.81722363813196,22.03344730177281 " />
			<path d="M20.817223638131964,22.03344730177281 L20.817223638131964,20.807795547716125 " />
			<path d="M22.65570126921698,21.420621424744464 L18.328207768355334,19.978123591123914 " />
			<path d="M36.79783689294793,16.706576216834147 L32.47034339208628,15.264078383213597 " />
			<path d="M22.65570126921698,21.420621424744464 L36.79783689294793,16.706576216834147 " />
			<path d="M36.797836892947934,13.689587283771576 L35.69606850923617,13.322331155867655 " />
			<path d="M33.26381992027856,12.511581626215117 L32.67247321180463,12.314466056723807 " />
			<path d="M36.797836892947934,16.706576216834147 L36.797836892947934,13.689587283771576 " />
			<path d="M-39.08179179618048,8.850619877851617 L-35.92102448427661,7.797030773883657 " />
			<path d="M-39.08179179618048,-2.463088621133136 L-39.081791796180475,8.85061987785162 " />
			<path d="M-35.92102448427661,-3.5166777251010983 L-39.08179179618048,-2.4630886211331355 " />
			<path d="M-35.92102448427661,9.904208981819576 L-39.08179179618048,8.850619877851617 " />
			<path d="M-35.92102448427661,26.455221706792695 L-35.991735162395265,26.478791932832248 " />
			<path d="M-35.991735162395265,34.02126426548876 L-35.92102448427661,33.99769403944921 " />
			<path d="M-35.991735162395265,26.478791932832248 L-35.991735162395265,34.02126426548875 " />
			<path d="M-28.92066735052979,36.37828686944392 L-29.89647470856723,36.05301775009811 " />
			<path d="M-35.92102448427661,34.04483449152831 L-35.991735162395265,34.02126426548876 " />
			<path d="M-21.142492757477765,33.78556200509324 L-22.1183001155152,33.46029288574743 " />
			<path d="M-28.92066735052979,36.37828686944392 L-21.14249275747776,33.78556200509324 " />
			<path d="M-21.142492757477765,33.78556200509324 L-21.142492757477765,33.135023766401616 " />

       </g>
    </g>
    
</svg>
