<?xml version="1.0" encoding="UTF-8" standalone="no"?>
<svg
   xmlns:svg="http://www.w3.org/2000/svg"
   xmlns="http://www.w3.org/2000/svg"
   width="1024.0"
   height="320.0"

>
    <g transform="scale(1.7413374260343746, -1.7413374260343746)   translate(107.4296264636406,-104.32175279641439)" stroke-width="1.0"  fill="none">
       <!-- hidden lines -->
       <g  stroke="rgb(32,64,32)" fill="none" stroke-dasharray="1.0,1.0" >

       </g>

       <!-- solid lines -->
       <g  stroke="rgb(64,192,64)" fill="none">
			<path d="M120.56170619230633,10.724452847995902 L120.56018783789534,11.234446827222062 L120.55563287055433,11.74542083394145 L120.54804157795327,12.257342597479468 L120.53741443952191,12.770179787305702 L120.52375212641945,13.283900015075812 L120.5070555014923,13.798470836676984 L120.4873256192194,14.313859754276988 L120.4645637256458,14.83003421837655 L120.4387712583038,15.346961629865037 L120.40994984612232,15.864609342079255 L120.37810130932391,16.382944662865278 L120.34322765930983,16.901934856643088 L120.30533109853306,17.42154714647404 L120.26441402035913,17.94174871613086 L120.22047900891502,18.462506712170203 L120.17352883892593,18.983788246007467 L120.12356647554009,19.505560395993925 L120.07059507414144,20.02779020949587 L120.01461798015032,20.55044470497576 L119.95563872881232,21.073490874075176 L119.89366104497489,21.596895683699458 L119.82868884285215,22.120626078103932 L119.76072622577765,22.644648980981536 L119.68977748594527,23.168931297551786 L119.61584710413813,23.693439916650856 L119.53893974944556,24.218141712822742 L119.45906027896831,24.743003548411302 L119.3762137375117,25.267992275653064 L119.29040535726713,25.793074738770688 L119.20164055748148,26.31821777606693 L119.10992494411505,26.84338822201896 L119.01526430948732,27.368552909372955 L118.9176646319113,27.893678671238774 L118.81713207531587,28.41873234318463 L118.71367298885653,28.943680765331592 L118.60729390651437,29.468490784447788 L118.49800154668353,29.99312925604223 L118.38580281174677,30.517563046458058 L118.27070478763963,31.04175903496508 L118.15271474340284,31.56568411585155 L118.03184013072334,32.08930520051494 L117.90808858346361,32.61258921955168 L117.78146791717958,33.13550312484565 L117.65198612862693,33.65801389165534 L117.51965139525626,34.180088520699535 L117.38447207469642,34.70169404024141 L117.24645670422683,35.222797508170835 L117.10561400023826,35.74336601408488 L116.96195285768235,36.263366681366236 L116.81548234950981,36.78276666925959 L116.66621172609746,37.30153317494563 L116.51415041466402,37.8196334356128 L116.35930801867471,38.33703473052634 L116.20169431723477,38.85370438309487 L116.04131926447178,39.36960976293402 L115.87819298890716,39.884718287927214 L115.7123257928163,40.398997426283465 L115.54372815157811,40.91241469859183 L115.37241071301327,41.424937679872734 L115.19838429671195,41.93653400162573 L115.02165989335035,42.44717135387377 L114.84224866399659,42.95681748720372 L114.66016193940595,43.46544021480305 L114.47541121930516,43.9730074144928 L114.2880081716661,44.47948703075593 L114.09796463196912,44.98484707676198 L113.90529260245526,45.48905563638737 L113.71000425136853,45.99208086623071 L113.51211191218722,46.493890997624106 L113.31162808284509,46.9944543386395 L113.10856542494204,47.493739276090125 L112.90293676294442,47.99171427752708 L112.69475508337513,48.48834789323078 L112.48403353399345,48.9836087581971 L112.27078542296472,49.47746559411833 L112.05502421801978,49.9698872113585 L111.83676354560453,50.46084251092317 L111.61601719001919,50.95030048642357 L111.39279909254795,51.438230226034705 L111.1671233505783,51.92460091444765 L110.93900421671086,52.40938183481575 L110.7084560978592,52.892542370694414 L110.47549355433992,53.37405200797487 L110.24013129895317,53.853880336811145 L110.00238419605344,54.331997053540704 L109.76226726061074,54.808371962598244 L109.51979565726239,55.28297497842266 L109.27498469935531,55.75577612735722 L109.02784984797879,56.22674554954243 L108.77840671098818,56.69585350080193 L108.5266710420191,57.163070354520954 L108.2726587394925,57.62836660351739 L108.01638584561064,58.09171286190538 L107.75786854534391,58.553079866951094 L107.4971231654087,59.012438480920935 L107.23416617323622,59.46975969292164 L106.96901417593253,59.925014620732526 L106.70168391922975,60.37817451262953 L106.43219228642843,60.82921074920104 L106.1605562973313,61.278094845155366 L105.88679310716837,61.72479845111974 L105.61092000551352,62.16929335543067 L105.3329544151925,62.611551485915726 L105.0529138911827,63.051544911666426 L104.77081611950433,63.4892458448022 L104.48667891610361,63.92462664222535 L104.20052022572744,64.35765980736682 L103.91235812079022,64.78831799192284 L103.62221080023235,65.216573997582 L103.33009658837108,65.64240077774306 L103.03603393374303,66.06577143922304 L102.74004140793912,66.48665924395566 L102.4421377044318,66.90503761067998 L102.14234163739425,67.32088011661922 L101.84067214051238,67.73416049914938 L101.53714826578891,68.14485265745795 L101.23178918234024,68.55293065419227 L100.9246141751857,68.95836871709764 L100.61564264402976,69.36114124064497 L100.30489410203671,69.76122278764782 L99.99238817459839,70.15858809086906 L99.67814459809463,70.55321205461644 L99.36218321864692,70.94506975632763 L99.04452399086495,71.3341364481442 L98.72518697658639,71.72038755847456 L98.40419234360988,72.10379869354573 L98.08156036442136,72.48434563894403 L97.75731141491366,72.86200436114432 L97.43146597309979,73.23675100902776 L97.10404461781955,73.60856191538824 L96.77506802743991,73.97741359842706 L96.444556978549,74.34328276323589 L96.1125323446441,74.70614630326797 L95.7790150948132,75.06598130179746 L95.44402629241083,75.42276503336672 L95.10758709372772,75.7764749652215 L94.76971874665468,76.12708875873406 L94.43044258934071,76.47458427081399 L94.08978004884537,76.81893955530657 L93.74775263978557,77.16013286437882 L93.40438196297679,77.4981426498931 L93.05968970406882,77.83294756476779 L92.71369763217632,78.16452646432565 L92.36642759850392,78.49285840762907 L92.01790153496613,78.81792265880273 L91.66814145280242,79.13969868834307 L91.31716944118685,79.45816617441494 L90.96500766583324,79.77330500413493 L90.61167836759516,80.08509527484162 L90.25720386106136,80.39351729535264 L89.90160653314642,80.69855158720814 L89.54490884167701,81.00017888590101 L89.18713331397349,81.29838014209355 L88.82830254542715,81.59313652282053 L88.4684391980733,81.88442941267859 L88.10756599915996,82.1722404150018 L87.74570573971258,82.45655135302373 L87.3828812730946,82.73734427102517 L87.01911551356416,83.01460143546828 L86.654431434827,83.28830533611648 L86.2888520685855,83.55843868714035 L85.92240050308409,83.82498442820932 L85.55509988165116,84.08792572556908 L85.1869734012374,84.34724597310479 L84.81804431095081,84.60292879338974 L84.44833591058841,84.85495803871977 L84.07787154916466,85.10331779213304 L83.70667462343695,85.34799236841529 L83.33476857642793,85.58896631509035 L82.96217689594496,85.8262244133962 L82.58892311309671,86.05975167924599 L82.21503080080709,86.2895333641744 L81.84052357232642,86.51555495626913 L81.46542507974027,86.73780218108732 L81.0897590124756,86.9562610025571 L80.71354909580461,87.17091762386409 L80.3368190893465,87.3817584883226 L79.95959278556684,87.58877028023198 L79.58189400827493,87.79193992571743 L79.20374661111929,87.99125459355578 L78.82517447608105,88.18670169598579 L78.44620151196584,88.37826888950318 L78.06685165289367,88.56594407564012 L77.68714885678749,88.7497154017294 L77.30711710386,88.92957126165292 L76.9267803950993,89.1055002965747 L76.54616275075301,89.27749139565823 L76.16528820881129,89.44553369676822 L75.78418082348877,89.60961658715658 L75.4028646637053,89.76972970413264 L75.021363811566,89.92586293571763 L74.63970236084013,90.07800642128336 L74.25790441543975,90.22615055217487 L73.87599408789723,90.3702859723173 L73.49399549784233,90.51040357880686 L73.11193277047923,90.64649452248561 L72.72983003506262,90.77855020850036 L72.34771142337392,90.90656229684552 L71.96560106819724,91.0305227028898 L71.58352310179522,91.15042359788676 L71.201501654385,91.26625740946926 L70.81956085261423,91.37801682212776 L70.4377248180374,91.48569477767221 L70.05601766559236,91.58928447567789 L69.67446350207743,91.68877937391487 L69.29308642462884,91.78417318876119 L68.91191051919894,91.87545989559972 L68.530959859035,91.96263372919863 L68.15025850315887,92.04568918407546 L67.76983049484755,92.12462101484489 L67.38969986011475,92.19942423654997 L67.00989060619338,92.27009412497696 L66.63042672001959,92.33662621695366 L66.25133216671769,92.39901631063132 L65.8726308880867,92.45726046575 L65.49434680108831,92.5113550038874 L65.11650379633639,92.5612965086912 L64.73912573658811,92.60708182609478 L64.36223645523701,92.64870806451647 L63.98585975480766,92.68617259504211 L63.61001940545252,92.71947305159112 L63.23473914345065,92.74860733106591 L62.86004266970868,92.77357359348476 L62.48595364826397,92.79437026209787 L62.112495704790106,92.81099602348715 L61.73969242510478,92.823449827649 L61.36756735368026,92.83173088806073 L60.99614399215645,92.83583868173015 L60.62544579785657,92.83577294922867 L60.25549618230579,92.83153369470763 L59.88631850975259,92.82312118589806 L59.517936095693244,92.81053595409381 L59.15037220539928,92.79377879411793 L58.78365005244822,92.77285076427248 L58.417792797257434,92.74775318627177 L58.05282354562152,92.71848764515877 L57.68876534725299,92.68505598920515 L57.32564119432662,92.64746032979437 L56.96347402002732,92.60570304128849 L56.60228669710182,92.55978676087818 L56.242102036414096,92.50971438841611 L55.88294278550481,92.45548908623385 L55.524831627154626,92.39711427894218 L55.16779117795169,92.33459365321477 L54.8118439868633,92.2679311575553 L54.45701253381177,92.19713100204824 L54.10331922825476,92.1221976580928 L53.75078640776997,92.04313585812062 L53.39943633664441,91.9599505952969 L53.04929120446829,91.87264712320504 L52.70037312473365,91.78123095551479 L52.35270413343777,91.68570786563413 L52.00630618769145,91.58608388634458 L51.66120116433238,91.48236530942025 L51.3174108585434,91.37455868523047 L50.9749569824765,91.26267082232611 " />
			<path d="M93.98193316076609,-37.75825771254391 L94.35311724300139,-37.631848375685934 L94.72266476939375,-37.5006221391523 L95.09054809220709,-37.36458882064734 L95.45673968821285,-37.22375859751776 L95.82121216074921,-37.07814200599114 L96.18393824177079,-36.9277499403877 L96.54489079388856,-36.772593652305275 L96.90404281240029,-36.6126847497775 L97.2613674273109,-36.448035196405286 L97.61683790534265,-36.27865731046187 L97.97042765193524,-36.104563763971186 L98.32211021323556,-35.92576758175976 L98.67185927807664,-35.7422821404823 L99.01964867994631,-35.55412116762096 L99.36545239894481,-35.361298740458196 L99.7092445637314,-35.163829285023695 L100.05099945346002,-34.96172757501505 L100.39069149970351,-34.75500873069237 L100.7282952883666,-34.543688217747246 L101.0637855615872,-34.32778184614553 L101.39713721962607,-34.107305768944556 L101.72832532274472,-33.88227648108469 L102.05732509307126,-33.65271081815514 L102.38411191645407,-33.4186259551346 L102.70866134430347,-33.18003940510607 L103.03094909542068,-32.93696901794678 L103.35095105781457,-32.689432978992684 L103.66864329050549,-32.43744980767792 L103.98400202531643,-32.181038356149315 L104.29700366865129,-31.920217807855952 L104.60762480326,-31.655007676113886 L104.91584218999051,-31.38542780264633 L105.22163276952745,-31.111498356099187 L105.52497366411717,-30.833239830532104 L105.82584217927958,-30.55067304388523 L106.12421580550581,-30.263819136421677 L106.42007221994241,-29.97269956914597 L106.71338928806136,-29.677336122198437 L107.00414506531615,-29.37775089322565 L107.29231779878344,-29.073966295727235 L107.57788592879061,-28.766005057379036 L107.86082809052873,-28.4538902183327 L108.14112311565093,-28.13764512949194 L108.41875003385616,-27.817293450765494 L108.69368807445804,-27.4928591492971 L108.96591666793883,-27.164366497672315 L109.23541544748839,-26.83184007210259 L109.50216425052788,-26.49530475058653 L109.76614312021826,-26.15478571104877 L110.02733230695326,-25.810308429456203 L110.28571226983709,-25.461898677911957 L110.54126367814636,-25.109582522727354 L110.7939674127762,-24.75338632247171 L111.04380456767075,-24.39333672600031 L111.29075645123767,-24.029460670460626 L111.53480458774644,-23.661785379277095 L111.77593071871068,-23.29033836011435 L112.01411680425417,-22.915147402819247 L112.2493450244605,-22.53624057734174 L112.48159778070621,-22.153646231634863 L112.71085769697753,-21.76739298953383 L112.93710762117028,-21.377509748614624 L113.1603306263732,-20.984025678031895 L113.38051001213421,-20.586970216336734 L113.59762930571002,-20.18637306927428 L113.81167226329836,-19.782264207561166 L114.02262287125342,-19.374673864643373 L114.23046534728384,-18.963632534434172 L114.43518414163341,-18.549170969032897 L114.63676393824457,-18.131320176424115 L114.8351896559041,-17.710111418157712 L115.03044644937161,-17.28557620701017 L115.22251971049006,-16.857746304626847 L115.4113950692787,-16.426653719145808 L115.59705839500819,-15.992330702803063 L115.77949579725778,-15.554809749519617 L115.9586936269545,-15.11412359247051 L116.1346384773943,-14.670305201635802 L116.30731718524517,-14.223387781333944 L116.47671683153186,-13.773404767737578 L116.64282474260244,-13.320389826372033 L116.80562849107653,-12.864376849596628 L116.96511589677495,-12.405399954069015 L117.1212750276311,-11.943493478192696 L117.27409420058359,-11.478691979548092 L117.4235619824503,-11.011030232307025 L117.56966719078378,-10.54054322463109 L117.71239889470789,-10.067266156054021 L117.85174641573558,-9.591234434848278 L117.98769932856773,-9.112483675375916 L118.12024746187325,-8.631049695424135 L118.24938089904992,-8.146968513525504 L118.3750899789664,-7.660276346263348 L118.49736529668498,-7.17100960556213 L118.61619770416522,-6.679204895963235 L118.73157831094835,-6.184899011886447 L118.84349848482243,-5.688128934877216 L118.9519498524682,-5.188931830839824 L119.05692430008543,-4.68734504725683 L119.15841397400007,-4.183406110394905 L119.25641128125174,-3.677152722497336 L119.35090889016186,-3.168622758963256 L119.44189973088211,-2.657854265514029 L119.5293769959234,-2.1448854553469836 L119.61333414066519,-1.6297547062762625 L119.69376488384506,-1.1125005578616367 L119.77066320802874,-0.5931617085254182 L119.84402336006018,-0.07177701265682757 L119.91383985149209,0.45161452229460863 L119.98010745899649,0.9769737387375024 L120.04282122475556,1.504261331868161 L120.10197645683243,2.0334378526112076 L120.1575687295224,2.5644637105709513 L120.20959388368384,3.0972991769933422 L120.25804802704951,3.6319043877382917 L120.30292753451772,4.1682393462621015 L120.34422904842351,4.7062639266098145 L120.38194947878986,5.245937876417262 L120.41608600355895,5.78722081992256 L120.44663606880312,6.33007226098665 L120.47359738891612,6.8744515861233175 L120.49696794678403,7.4203180675375755 L120.51674599393615,7.967630866172467 L120.5329300506759,8.516349034764882 L120.54551890619136,9.066431520908722 L120.55451161864603,9.617837170126354 L120.55990751524921,10.170524728947559 L120.56170619230633,10.724452847995337 " />
			<path d="M103.5911434438292,5.067598598503523 L103.5896250894182,5.577592577729682 L103.58507012207718,6.088566584449071 L103.57747882947612,6.600488347987088 L103.56685169104476,7.113325537813322 L103.55318937794232,7.627045765583432 L103.53649275301515,8.141616587184604 L103.51676287074227,8.657005504784609 L103.49400097716867,9.17317996888417 L103.46820850982667,9.690107380372657 L103.43938709764518,10.207755092586876 L103.40753856084677,10.7260904133729 L103.3726649108327,11.245080607150708 L103.33476835005592,11.76469289698166 L103.29385127188198,12.28489446663848 L103.24991626043787,12.805652462677823 L103.2029660904488,13.326933996515088 L103.15300372706295,13.848706146501543 L103.1000323256643,14.370935960003488 L103.04405523167317,14.89359045548338 L102.98507598033518,15.416636624582798 L102.92309829649776,15.940041434207078 L102.858126094375,16.463771828611552 L102.7901634773005,16.98779473148916 L102.71921473746812,17.512077048059407 L102.64528435566098,18.036585667158477 L102.56837700096841,18.561287463330363 L102.48849753049117,19.086149298918922 L102.40565098903457,19.61113802616068 L102.31984260879,20.13622048927831 L102.23107780900435,20.66136352657455 L102.13936219563791,21.186533972526576 L102.04470156101019,21.711698659880575 L101.94710188343416,22.23682442174639 L101.84656932683873,22.761878093692253 L101.74311024037938,23.286826515839213 L101.63673115803724,23.811636534955408 L101.52743879820639,24.33627500654985 L101.41524006326964,24.860708796965678 L101.30014203916248,25.3849047854727 L101.18215199492569,25.90882986635917 L101.0612773822462,26.43245095102256 L100.93752583498647,26.955734970059297 L100.81090516870245,27.478648875353272 L100.6814233801498,28.001159642162953 L100.54908864677913,28.523234271207155 L100.41390932621928,29.044839790749027 L100.2758939557497,29.56594325867846 L100.13505125176113,30.0865117645925 L99.99139010920521,30.60651243187386 L99.84491960103267,31.125912419767207 L99.69564897762032,31.644678925453256 L99.54358766618688,32.16277918612042 L99.38874527019757,32.680180481033965 L99.23113156875762,33.196850133602496 L99.07075651599465,33.712755513441635 L98.90763024043001,34.22786403843484 L98.74176304433915,34.74214317679109 L98.57316540310096,35.255560449099455 L98.40184796453613,35.76808343038036 L98.2278215482348,36.279679752133354 L98.0510971448732,36.79031710438139 L97.87168591551944,37.29996323771134 L97.68959919092882,37.80858596531067 L97.50484847082801,38.316153165000415 L97.31744542318896,38.82263278126355 L97.12740188349198,39.327992827269604 L96.93472985397813,39.832201386894994 L96.73944150289138,40.335226616738325 L96.54154916371007,40.83703674813172 L96.34106533436795,41.33760008914712 L96.13800267646491,41.83688502659774 L95.93237401446729,42.334860028034704 L95.72419233489799,42.8314936437384 L95.51347078551632,43.326754508704724 L95.30022267448757,43.820611344625945 L95.08446146954265,44.313032961866114 L94.86620079712738,44.803988261430796 L94.64545444154206,45.293446236931196 L94.4222363440708,45.78137597654232 L94.19656060210116,46.267746664955276 L93.96844146823372,46.752527585323364 L93.73789334938206,47.23568812120204 L93.50493080586277,47.717197758482484 L93.26956855047604,48.19702608731877 L93.0318214475763,48.67514280404833 L92.7917045121336,49.15151771310586 L92.54923290878526,49.62612072893028 L92.30442195087818,50.09892187786484 L92.05728709950165,50.56989130005005 L91.80784396251104,51.03899925130955 L91.55610829354195,51.50621610502857 L91.30209599101536,51.97151235402501 L91.04582309713349,52.434858612412995 L90.78730579686678,52.89622561745871 L90.52656041693155,53.35558423142856 L90.26360342475907,53.81290544342926 L89.99845142745538,54.26816037124014 L89.7311211707526,54.721320263137144 L89.4616295379513,55.172356499708656 L89.18999354885415,55.62124059566298 L88.91623035869122,56.067944201627355 L88.64035725703637,56.512439105938284 L88.36239166671535,56.95469723642334 L88.08235114270555,57.39469066217405 L87.8002533710272,57.83239159530982 L87.51611616762648,58.267772392732965 L87.22995747725031,58.70080555787444 L86.94179537231307,59.131463742430455 L86.65164805175522,59.55971974808962 L86.35953383989394,59.98554652825068 L86.06547118526589,60.40891718973066 L85.76947865946198,60.829804994463274 L85.47157495595465,61.24818336118761 L85.17177888891712,61.66402586712684 L84.87010939203523,62.077306249657 L84.56658551731178,62.48799840796556 L84.26122643386309,62.89607640469988 L83.95405142670855,63.30151446760526 L83.64507989555261,63.704286991152586 L83.33433135355958,64.10436853815546 L83.02182542612124,64.50173384137668 L82.7075818496175,64.89635780512405 L82.39162047016978,65.28821550683526 L82.07396124238781,65.67728219865182 L81.75462422810924,66.06353330898219 L81.43362959513274,66.44694444405334 L81.11099761594421,66.82749138945165 L80.78674866643652,67.20515011165193 L80.46090322462265,67.57989675953537 L80.1334818693424,67.95170766589587 L79.80450527896276,68.32055934893468 L79.47399423007187,68.68642851374351 L79.14196959616694,69.04929205377559 L78.80845234633605,69.40912705230508 L78.47346354393369,69.76591078387433 L78.13702434525058,70.11962071572911 L77.79915599817753,70.47023450924169 L77.45987984086356,70.81773002132161 L77.11921730036823,71.16208530581419 L76.77718989130844,71.50327861488644 L76.43381921449964,71.84128840040071 L76.08912695559167,72.17609331527541 L75.74313488369917,72.50767221483326 L75.39586485002677,72.83600415813669 L75.04733878648898,73.16106840931035 L74.69757870432527,73.48284443885069 L74.34660669270971,73.80131192492257 L73.9944449173561,74.11645075464254 L73.64111561911801,74.42824102534924 L73.2866411125842,74.73666304586025 L72.93104378466927,75.04169733771576 L72.57434609319986,75.34332463640862 L72.21657056549634,75.64152589260117 L71.85773979695,75.93628227332815 L71.49787644959615,76.2275751631862 L71.13700325068282,76.51538616550943 L70.77514299123544,76.79969710353134 L70.41231852461745,77.0804900215328 L70.04855276508701,77.3577471859759 L69.68386868634985,77.6314510866241 L69.31828932010835,77.90158443764797 L68.95183775460694,78.16813017871694 L68.58453713317401,78.43107147607671 L68.21641065276026,78.69039172361241 L67.84748156247366,78.94607454389737 L67.47777316211126,79.19810378922739 L67.10730880068752,79.44646354264066 L66.73611187495982,79.69113811892291 L66.3642058279508,79.93211206559796 L65.99161414746783,80.16937016390382 L65.61836036461958,80.40289742975361 L65.24446805232994,80.63267911468202 L64.86996082384928,80.85870070677674 L64.49486233126314,81.08094793159493 L64.11919626399846,81.29940675306472 L63.742986347327474,81.5140633743717 L63.36625634086937,81.72490423883022 L62.9890300370897,81.93191603073961 L62.611331259797794,82.13508567622506 L62.233183862642136,82.3344003440634 L61.8546117276039,82.52984744649342 L61.47563876348869,82.72141464001079 L61.096288904416525,82.90908982614775 L60.71658610831034,83.09286115223702 L60.33655435538285,83.27271701216054 L59.95621764662215,83.44864604708232 L59.57560000227586,83.62063714616585 L59.194725460334155,83.78867944727584 L58.81361807501163,83.9527623376642 L58.432301915228166,84.11287545464026 L58.05080106308886,84.26900868622525 L57.669139612363,84.42115217179098 L57.287341666962604,84.56929630268249 L56.905431339420076,84.71343172282494 L56.52343274936519,84.85354932931449 L56.14137002200209,84.98964027299323 L55.75926728658548,85.12169595900798 L55.37714867489679,85.24970804735314 L54.995038319720095,85.37366845339741 L54.61296035331807,85.49356934839437 L54.23093890590786,85.60940315997688 L53.84899810413709,85.72116257263538 L53.46716206956026,85.82884052817982 L53.085454917115214,85.9324302261855 L52.70390075360028,86.03192512442249 L52.322523676151704,86.1273189392688 L51.94134777072179,86.21860564610733 L51.56039711055786,86.30577947970625 L51.17969575468173,86.38883493458307 L50.79926774637042,86.46776676535251 L50.4191371116376,86.54256998705759 L50.039327857716245,86.61323987548458 L49.65986397154244,86.67977196746128 L49.280769418240546,86.74216206113894 L48.90206813960956,86.80040621625761 L48.52378405261118,86.85450075439502 L48.14594104785924,86.90444225919882 L47.768562988110965,86.9502275766024 L47.39167370675986,86.99185381502409 L47.01529700633052,87.02931834554973 L46.639456656975376,87.06261880209874 L46.264176394973504,87.09175308157353 L45.88947992123154,87.11671934399237 L45.51539089978683,87.13751601260549 L45.141932956312964,87.15414177399477 L44.76912967662763,87.16659557815662 L44.397004605203115,87.17487663856835 L44.025581243679305,87.17898443223777 L43.65488304937943,87.17891869973629 L43.28493343382864,87.17467944521525 L42.91575576127545,87.16626693640568 L42.5473733472161,87.15368170460142 L42.17980945692214,87.13692454462554 L41.81308730397107,87.1159965147801 L41.4472300487803,87.09089893677938 L41.08226079714437,87.06163339566639 L40.71820259877585,87.02820173971277 L40.35507844584948,86.99060608030199 L39.992911271550184,86.94884879179611 L39.63172394862467,86.9029325113858 L39.271539287936946,86.85286013892373 L38.91238003702767,86.79863483674147 L38.554268878677476,86.7402600294498 L38.19722842947455,86.67773940372238 L37.84128123838616,86.61107690806291 L37.48644978533463,86.54027675255585 L37.132756479777626,86.46534340860042 L36.78022365929283,86.38628160862824 L36.428873588167264,86.30309634580452 L36.07872845599115,86.21579287371266 L35.72981037625651,86.1243767060224 L35.38214138496062,86.02885361614175 L35.035743439214315,85.9292296368522 L34.69063841585523,85.82551105992786 L34.346848110066254,85.71770443573809 L34.004394233999356,85.60581657283373 " />
			<path d="M34.004394233998966,85.6058165728336 L33.74091318614641,85.51664023326153 L33.47825165237913,85.42503846861001 L33.2164195217554,85.33101472763376 L32.95542665210695,85.23457255027344 L32.69528286966782,85.13571556752254 L32.435997968704385,85.03444750129057 L32.177581711146615,84.930772164263 L31.920043826220535,84.8246934597577 L31.663394010081973,84.71621538157788 L31.40764192545144,84.6053420138619 L31.152797201250365,84.4920775309294 L30.898869432238577,84.37642619712412 L30.645868178653068,84.25839236665341 L30.393802965848028,84.13798048342431 L30.14268328393625,84.01519508087615 L29.892518587431844,83.89004078180992 L29.643318294894215,83.76252229821426 L29.39509178857354,83.63264443108798 L29.147848414057485,83.50041207025942 L28.901597479919353,83.36583019420218 L28.65634825736764,83.22890386984784 L28.412109979896947,83.08963825239513 L28.16889184294039,82.9480385851158 L27.926703003523354,82.80411019915735 L27.685552579918756,82.65785851334212 L27.445449651303747,82.50928903396343 L27.206403257417872,82.35840735457822 L26.96842239822277,82.20521915579641 L26.731516033563274,82.04973020506712 L26.49569308283011,81.89194635646147 L26.26096242462409,81.73187355045218 L26.027332896421818,81.56951781368991 L25.794813294242992,81.40488525877637 L25.56341237231921,81.23798208403423 L25.33313884276439,81.06881457327367 L25.104001375246774,80.8973890955559 L24.87600859666251,80.72371210495318 L24.649169090810837,80.54779014030612 L24.42349139807095,80.36962982497721 L24.19898401508042,80.18923786660166 L23.975655394415323,80.00662105683473 L23.753513944272015,79.82178627109607 L23.53256802815052,79.63474046831095 L23.312825964539712,79.44549069064809 L23.0942960266041,79.25404406325463 L22.876986441872305,79.06040779398793 L22.660905391927393,78.86458917314405 L22.446061012098745,78.66659557318343 L22.232461391155844,78.46643444845316 L22.020114571003695,78.26411333490648 L21.80902854638005,78.05963984981894 L21.59921126455442,77.85302169150171 L21.390670625028896,77.64426663901165 L21.18341447924068,77.4333825518585 L20.977450630266517,77.22037736970897 L20.772786832528915,77.00525911208776 L20.569430791504182,76.78803587807568 L20.36739016343231,76.56871584600472 L20.166672555028775,76.34730727315011 L19.96728552319808,76.12381849541953 L19.76923657474927,75.89825792703908 L19.572533166113317,75.67063406023672 L19.377182703062395,75.44095546492235 L19.183192540431016,75.20923078836529 L18.99056998183915,74.97546875486864 L18.799322279417275,74.73967816544084 L18.609456633533277,74.5018678974643 L18.42098019252142,74.2620469043612 L18.233900052413183,74.02022421525638 L18.04822325667009,73.7764089346374 L17.863956795918575,73.53061024201182 L17.68110760768672,73.28283739156143 L17.499682576143123,73.03309971179402 L17.319688531837684,72.78140660519213 L17.141132251444432,72.5277675478589 L16.9640204575064,72.2721920891615 L16.788359818182535,72.01468985137153 L16.614156946996623,71.75527052930269 L16.441418402588297,71.4939438899458 L16.270150688466124,71.23071977210117 L16.10036025276274,70.96560808600802 L15.932053487992086,70.69861881297153 L15.765236730808724,70.4297620049869 L15.599916261769273,70.15904778436101 L15.436098305095975,69.88648634333123 L15.27378902844228,69.61208794368179 L15.112994542660736,69.33586291635736 L14.953720901572844,69.05782166107406 L14.795974101741166,68.777974645928 L14.639760082243562,68.49633240700118 L14.485084724449578,68.21290554796465 L14.331953851798993,67.9277047396795 L14.180373229582635,67.64074071979493 L14.030348564725244,67.35202429234415 L13.881885505570658,67.06156632733743 L13.734989641669152,66.76937776035297 L13.589666503566953,66.47546959212522 L13.445921562598109,66.17985288813055 L13.303760230678371,65.88253877817083 L13.163187860101552,65.5835384559542 L13.024209743337956,65.28286317867384 L12.886831112835111,64.98052426658398 L12.751057140820826,64.67653310257379 L12.61689293910839,64.37090113173878 L12.484343558904193,64.06363986094988 L12.353413990617454,63.75476085842028 L12.22410916367243,63.44427575326988 L12.096433946322776,63.13219623508734 L11.970393145468258,62.81853405349018 L11.845991506473794,62.50330101768225 L11.723233712990776,62.186508996009174 L11.602124386780751,61.8681699155115 L11.482668087541391,61.548295761475714 L11.364869312734847,61.22689857698289 L11.248732497418416,60.90399046245538 L11.134262014077557,60.5795835752012 L11.021462172461256,60.25369012895627 L10.910337219419795,59.92632239342468 L10.800891338744869,59.59749269381662 L10.693128651012003,59.26721341038444 L10.587053213425499,58.93549697795648 L10.482669019665614,58.602355885468945 L10.379979999738254,58.26780267549566 L10.278990019826978,57.93184994377588 L10.179702882147446,57.5945103387401 L10.082122324804281,57.255796561033776 L9.986252021650309,56.91572136303918 L9.89209558214825,56.57429754839532 L9.79965655123484,56.23153797151585 L9.708938409187368,55.8874555371051 L9.532678388718175,55.1953739630436 L9.363342064851409,54.4981570511502 L9.200954939014586,53.79590979972724 L9.045541466111551,53.08873796462777 L8.897125050839662,52.37674804332892 L8.755728044165139,51.66004725889394 L8.621371739957091,50.93874354382477 L8.494076371780743,50.2129455238077 L8.373861109850289,49.48276250135488 L8.26074405814201,48.74830443934364 L8.154742251667798,48.009681944456574 L8.055871653909819,47.267006250524545 L7.964147154416402,46.5203892017753 L7.879582566559812,45.76994323599011 L7.8021906254559,45.015781367571044 L7.731982986046333,44.25801717052146 L7.668970221343358,43.49676476134217 L7.613161820837583,42.73213878184589 L7.564566189068813,41.964254381892594 L7.523190644360469,41.19322720204842 L7.489041417717381,40.41917335617064 L7.462123651887467,39.64220941392121 L7.442441400587242,38.86245238321193 L7.429997627891389,38.08001969258346 L7.4247942077862845,37.295029173521 L7.426831923887832,36.5075990427093 L7.436110469323523,35.717847884229656 L7.452628446778512,34.9258946317016 L7.476383368706188,34.13185855037195 L7.507371657702642,33.33585921915383 L7.545588647045577,32.538016512618626 L7.591028581396934,31.738450582943223 L7.643684617669763,30.93728184181564 L7.703548826058679,30.134630942301328 L7.7706121912341,29.330618760673385 L7.844864613699912,28.52536637820896 L7.926294911314407,27.718995062954917 L8.01489082097428,26.91162625146525 L8.11063900046144,26.103381530513253 L8.213525030452224,25.29438261878093 L8.323533416688974,24.484751348528654 L8.440647592313361,23.674609647247678 L8.564849920361326,22.864079519298254 L8.696121696419098,22.05328302753631 L8.834443151440055,21.242342274931172 L8.979793454721886,20.431379386177294 L9.13215071704353,19.620516489302766 L9.2914919939617,18.809875697277267 L9.457793289266213,17.99957908962231 L9.631029558593688,17.1897486940265 L9.811174713199179,16.38050646796861 L9.998201623885024,15.571974280351272 L10.192082125086415,14.764273893147937 L10.392787019113015,13.95752694306595 L10.600286080546041,13.151854923228546 L10.81454806079008,12.347379164878415 L11.03554069277903,11.544220819105677 L11.263230695835382,10.742500838602949 L11.497583780682191,9.94233995945034 L11.738564654606897,9.143858682933029 L11.98613702677627,8.34717725739421 L12.240263613701728,7.552415660126151 L12.500906144854014,6.7596935793020165 L12.768025368426663,5.969130395951337 L13.041581057247136,5.180845165981616 L13.321532014834922,4.394956602248932 L13.607836081605555,3.6115830566802636 L13.900450141219672,2.8308425024500927 L14.19933012707623,2.0528525162141023 L14.504431028948709,1.2777302604025351 L14.815706899763555,0.505592465576008 L15.13311086251958,-0.2634445871537281 L15.456595117347483,-1.0292650836352806 L15.786110948708377,-1.791753694118782 L16.121608732730103,-2.550795590624162 L16.463037944680444,-3.3062764642337683 L16.81034716657596,-4.058082542306899 L17.163484094925323,-4.806100605613572 L17.522395548606077,-5.550218005384874 L17.887027476873477,-6.290322680277484 L18.257324967500352,-7.02630317324968 L18.63323225504665,-7.758048648346371 L19.01469272925761,-8.485448907390577 L19.401648943588874,-9.208394406578876 L19.794042623857962,-9.926776272978287 L20.191814677019927,-10.640486320922157 L20.594905200066698,-11.349417068302508 L21.003253489048177,-12.053461752756412 L21.41679804821407,-12.752514347744068 L21.835476599274912,-13.446469578516002 L22.259226090780913,-14.135222937967022 L22.687982707617344,-14.818670702374632 L23.121681880614787,-15.496709947019426 L23.56025829627309,-16.169238561685198 L24.003645906597228,-16.83615526603632 L24.451777939044007,-17.497359624870235 L24.9045869065777,-18.152752063242602 L25.36200461783337,-18.802233881462925 L25.8239621873862,-19.445707269958362 L26.290390046125435,-20.083075324003495 L26.76121795173121,-20.714242058313793 L27.23637499925279,-21.339112421500715 L27.71578963178655,-21.95759231038597 L28.199389651252293,-22.56958858417326 L28.687102229265903,-23.175009078474886 L29.178853918107045,-23.773762619191253 L29.67457066178022,-24.365759036241563 L30.174177807167197,-24.950909177142933 L30.67760011526959,-25.529124920436487 L31.184761772539545,-26.10031918895814 L31.69558640229694,-26.66440596295206 L32.20999707623152,-27.221300293024974 L32.72791632598791,-27.770918312939173 L33.24926615483218,-28.313177252242525 L33.77396804939778,-28.847995448733343 L34.30194299150938,-29.37529236075848 L34.833111470082756,-29.89498857934249 L35.36739349309881,-30.40700584014649 L35.90470859965013,-30.911267035254312 L36.44497587205807,-31.407696224784836 L36.98811394805866,-31.896218648328087 L37.53404103305547,-32.376760736204034 L38.082674912437604,-32.84925012054181 L38.633932963960824,-33.31361564617806 L39.18773217019028,-33.76978738137274 L39.74398913100256,-34.217696628340434 L40.023013105286985,-34.43853169064054 L40.3026200761454,-34.65727593359608 L40.58279951653336,-34.87392112160994 L40.86354087785329,-35.08845909811322 L41.144833590351624,-35.30088178587239 L41.42666706351673,-35.5111811872933 L41.709030686477604,-35.71934938472235 L41.991913828403476,-35.925378540744575 L42.27530583890392,-36.12926089847868 L42.55919604842989,-36.33098878186914 L42.84357376867547,-36.53055459597516 L43.12842829298026,-36.72795082725665 L43.41374889673239,-36.923170043857056 L43.69952483777237,-37.1162048958832 L43.985745356797565,-37.30704811568203 L44.272399677767226,-37.495692518114176 L44.55947700830816,-37.68213100082452 L44.846966540121116,-37.866356544509536 L45.134857449387724,-38.04836221318164 L45.42313889717799,-38.228141154430304 L45.71180002985834,-38.405686599679974 L46.00082997950023,-38.58099186444499 L46.29021786428946,-38.7540503485812 L46.57995278893573,-38.92485553653453 L46.87002384508288,-39.09340099758616 L47.160420111719574,-39.25968038609475 L47.45113065559052,-39.42368744173531 L47.742144531608076,-39.5854159897349 L48.033450783264286,-39.74485994110508 L48.32503844304337,-39.902013292871196 L48.61689653283478,-40.0568701282984 L48.90901406434642,-40.20942461711435 L49.2013800395183,-40.35967101572877 L49.493983450936696,-40.507603667449665 L49.786813282248566,-40.65321700269631 L50.07985850857628,-40.796505539208944 L50.373108096932675,-40.93746388225515 L50.66655100663648,-41.076086724832976 L50.96017618972803,-41.212368847870735 L51.25397259138514,-41.346305120423565 L51.54792915033934,-41.47789049986648 L51.84203479929229,-41.6071200320843 L52.13627846533258,-41.733988851658204 L52.430649070352494,-41.858492182048835 L52.725135531465114,-41.980625335776175 L53.01972676142161,-42.100383714596 L53.314411669028715,-42.21776280967306 L53.60917915956618,-42.33275820175074 L53.904018135204595,-42.445365561317544 L54.198917495423196,-42.55558064877003 L54.49386613742773,-42.66339931457244 L54.788852956568505,-42.76881749941295 L55.08386684675856,-42.871831234356485 L55.37889670089165,-42.97243664099415 L55.6739314112605,-43.07062993158924 L55.96895986997504,-43.16640740921987 L56.263970969380544,-43.25976546791813 L56.55895360247585,-43.35070059280589 L56.853896663331554,-43.43920936022708 L57.14878904750814,-43.525288437876654 L57.443619652474,-43.608934584925976 L57.73837737802346,-43.69014465214488 L58.0330511266948,-43.76891558202024 L58.327629804187936,-43.84524440887108 L58.62210231978213,-43.919128258960214 L58.9164575867536,-43.99056435060241 L59.21068452279293,-44.05954999426922 L59.504772050422304,-44.12608259269017 L59.798709097412484,-44.19015964095048 L60.09248459719978,-44.25177872658554 L60.38608748930268,-44.310937529671605 L60.679506719738285,-44.36763382291316 L60.97273124143836,-44.421865471726804 L61.265750014665386,-44.473630434321635 L61.55855200742819,-44.522926761776034 L61.85112619589725,-44.56975259811118 L62.14346156481972,-44.61410618036075 L62.43554710793416,-44.65598583863748 L62.72737182838501,-44.695389996195914 L63.01892473913646,-44.732317169491736 L63.31019486338618,-44.76676596823779 L63.60117123497867,-44.798735095456266 L63.89184289881798,-44.8282233475276 L64.18219891128021,-44.85522961423574 L64.47222834062569,-44.879752878810024 L64.76192026741026,-44.90179221796342 L65.0512637848966,-44.92134680192723 L65.34024799946489,-44.938415894482446 L65.62886203102273,-44.95299885298738 L65.91709501341496,-44.965095128401856 L66.2049360948327,-44.97470426530798 L66.49237443822196,-44.98182590192717 L66.77939922169156,-44.98645977013382 L67.06599963892057,-44.98860569546541 L67.35216489956534,-44.98826359712909 L67.63788422966553,-44.98543348800463 L67.92314687204986,-44.98011547464408 L68.20794208674101,-44.972309757267624 L68.49225915136019,-44.962016629756064 L68.77608736153059,-44.94923647963989 L69.05941603128052,-44.93396978808451 L69.34223449344569,-44.91621712987225 L69.62453210007084,-44.89597917338064 L69.90629822281068,-44.87325668055729 L70.1875222533299,-44.84805050689123 L70.46819360370272,-44.820361601380654 L70.7483017068114,-44.790191006497196 L71.02783601674425,-44.7575398581467 L71.30678600919244,-44.72240938562646 L71.5851411818464,-44.684800911578904 L71.86289105479123,-44.64471585194181 L72.14002517090124,-44.60215571589505 L72.41653309623354,-44.55712210580366 L72.69240442042103,-44.50961671715761 L72.96762875706429,-44.45964133850795 L73.24219574412263,-44.40719785139943 L73.51609504430412,-44.35228823029966 L73.78931634545494,-44.29491454252492 L74.06184936094752,-44.235078948162084 L74.3336838300679,-44.17278369998745 L74.60480951840192,-44.10803114338189 L74.87521621822066,-44.04082371624263 L75.14489374886469,-43.97116394889123 L75.41383195712746,-43.899054463978615 L75.68202071763739,-43.82449797638613 L75.94944993323922,-43.747497293123374 L76.21610953537419,-43.66805531322255 L76.48198948445892,-43.58617502762931 L76.74707977026365,-43.50185951909016 L77.01137041228876,-43.41511196203635 " />
			<path d="M77.01137041228894,-43.41511196203629 L77.38255449452424,-43.28870262517832 L77.75210202091661,-43.15747638864468 L78.11998534372994,-43.021443070139725 L78.4861769397357,-42.880612847010134 L78.85064941227208,-42.734996255483516 L79.21337549329364,-42.584604189880075 L79.5743280454114,-42.42944790179766 L79.93348006392316,-42.26953899926988 L80.29080467883375,-42.10488944589767 L80.6462751568655,-41.93551155995425 L80.9998649034581,-41.76141801346356 L81.35154746475841,-41.58262183125213 L81.7012965295995,-41.399136389974686 L82.04908593146916,-41.210975417113346 L82.39488965046766,-41.01815298995057 L82.73868181525427,-40.82068353451608 L83.08043670498287,-40.61858182450742 L83.42012875122637,-40.41186298018474 L83.75773253988946,-40.20054246723962 L84.09322281311006,-39.98463609563791 L84.42657447114894,-39.76416001843694 L84.75776257426759,-39.539130730577064 L85.0867623445941,-39.309565067647526 L85.41354916797692,-39.075480204626984 L85.73809859582632,-38.836893654598455 L86.06038634694355,-38.59382326743916 L86.38038830933743,-38.34628722848506 L86.69808054202834,-38.0943040571703 L87.01343927683928,-37.8378926056417 L87.32644092017414,-37.57707205734833 L87.63706205478286,-37.311861925606266 L87.94527944151338,-37.04228205213871 L88.25107002105031,-36.768352605591566 L88.55441091564003,-36.490094080024484 L88.85527943080243,-36.20752729337761 L89.15365305702866,-35.92067338591406 L89.44950947146526,-35.62955381863835 L89.74282653958423,-35.334190371690816 L90.03358231683902,-35.03460514271803 L90.3217550503063,-34.730820545219615 L90.60732318031347,-34.422859306871416 L90.89026534205158,-34.11074446782508 L91.17056036717378,-33.79449937898432 L91.44818728537902,-33.47414770025787 L91.7231253259809,-33.14971339878948 L91.99535391946168,-32.821220747164695 L92.26485269901124,-32.48869432159497 L92.53160150205073,-32.15215900007891 L92.79558037174111,-31.81163996054115 L93.0567695584761,-31.467162678948583 L93.31514952135996,-31.118752927404337 L93.57070092966921,-30.766436772219734 L93.82340466429906,-30.41024057196409 L94.07324181919361,-30.05019097549269 L94.32019370276052,-29.686314919953006 L94.5642418392693,-29.318639628769475 L94.80536797023353,-28.94719260960673 L95.04355405577704,-28.572001652311627 L95.27878227598335,-28.19309482683412 L95.51103503222907,-27.810500481127242 L95.74029494850038,-27.424247239026208 L95.96654487269313,-27.034363998107004 L96.18976787789606,-26.640879927524274 L96.40994726365707,-26.243824465829114 L96.62706655723287,-25.843227318766658 L96.84110951482121,-25.439118457053546 L97.05206012277628,-25.031528114135753 L97.25990259880669,-24.62048678392655 L97.46462139315628,-24.206025218525276 L97.66620118976742,-23.788174425916495 L97.86462690742695,-23.366965667650092 L98.05988370089446,-22.94243045650255 L98.25195696201291,-22.514600554119227 L98.44083232080155,-22.083507968638187 L98.62649564653105,-21.649184952295442 L98.80893304878063,-21.211663999011996 L98.98813087847736,-20.77097784196289 L99.16407572891715,-20.327159451128182 L99.33675443676802,-19.880242030826324 L99.50615408305471,-19.430259017229957 L99.67226199412531,-18.977244075864412 L99.83506574259938,-18.521231099089007 L99.9945531482978,-18.062254203561395 L100.15071227915396,-17.600347727685076 L100.30353145210645,-17.13554622904047 L100.45299923397315,-16.667884481799405 L100.59910444230664,-16.19739747412347 L100.74183614623075,-15.724120405546401 L100.88118366725843,-15.248088684340658 L101.01713658009058,-14.769337924868296 L101.14968471339611,-14.287903944916515 L101.27881815057277,-13.803822763017884 L101.40452723048926,-13.317130595755728 L101.52680254820783,-12.82786385505451 L101.64563495568807,-12.336059145455614 L101.7610155624712,-11.841753261378827 L101.87293573634528,-11.344983184369596 L101.98138710399107,-10.845786080332203 L102.08636155160829,-10.34419929674921 L102.18785122552292,-9.840260359887285 L102.2858485327746,-9.334006971989716 L102.38034614168473,-8.825477008455636 L102.47133698240496,-8.314708515006409 L102.55881424744626,-7.801739704839363 L102.64277139218805,-7.286608955768642 L102.72320213536793,-6.769354807354016 L102.8001004595516,-6.250015958017798 L102.87346061158303,-5.728631262149207 L102.94327710301494,-5.205239727197771 L103.00954471051935,-4.679880510754877 L103.07225847627842,-4.152592917624219 L103.1314137083553,-3.623416396881172 L103.18700598104525,-3.0923905389214283 L103.23903113520669,-2.5595550724990375 L103.28748527857238,-2.024949861754088 L103.33236478604059,-1.4886149032302782 L103.37366629994636,-0.9505903228825652 L103.41138673031273,-0.41091637307511775 L103.4455232550818,0.13036657043017996 L103.47607332032597,0.6732180114942707 L103.50303464043898,1.2175973366309378 L103.52640519830689,1.7634638180451958 L103.54618324545902,2.310776616680087 L103.56236730219877,2.859494785272503 L103.57495615771421,3.4095772714163424 L103.58394887016888,3.960982920633974 L103.58934476677206,4.513670479455179 L103.5911434438292,5.067598598502958 " />
			<path d="M59.043416229076705,19.91684100342108 L59.04163007078373,20.06726210189974 L59.03627340064578,20.218721986537304 L59.02735163106225,20.37106762170396 L59.01487377662227,20.52414507680428 L58.99885244499626,20.67779968180926 L58.97930382419722,20.83187618353548 L58.95624766622416,20.986218902513517 L58.92970726710472,21.140671890287038 L58.899709443356706,21.29507908698372 L58.866284504892626,21.4492844789987 L58.829466224394395,21.60313225663133 L58.78929180318935,21.756466971515856 L58.74580183366183,21.90913369368703 L58.699040258238526,22.06097816812191 L58.64905432498888,22.211846970599744 L58.59589453988544,22.36158766272232 L58.53961461577246,22.510048945938344 L58.48027141809421,22.65708081441602 L58.417924907437985,22.802534706609507 L58.352638078949646,22.94626365536606 L58.28447689868309,23.0881224364222 L58.213510236947954,23.227967715138824 L58.139809798722744,23.36565819132707 L58.0634500512039,23.50105474201856 L57.98450814856383,23.634020562035744 L57.903063853994084,23.764421302220384 L57.81919945911228,23.892125205180413 L57.73299970081441,24.01700323841812 L57.64455167565631,24.138929224705052 L57.553944751851,24.257779969571956 L57.46127047897072,24.373435385784923 L57.366622495444894,24.48577861468199 L57.27009643394749,24.59469614424755 L57.171789824769455,24.700077923805313 L57.07180199727371,24.80181747521394 L56.97023397953241,24.89981200045293 L56.8671883962478,24.993962485490123 L56.762769365059846,25.084173800325864 L56.657082391345355,25.17035479511269 L56.55023426161499,25.252418392253475 L56.44233293561575,25.330281674384967 L56.333487437248074,25.4038659681578 L56.223807744407644,25.47309692372832 L56.11340467786334,25.537904589881975 L56.00238978928354,25.598223484712246 L55.89087524852385,25.653992661783835 L55.7789737302903,25.705155771713162 L55.66679830029243,25.75166111910398 L55.55446230100118,25.793461714780616 L55.44207923712736,25.830515323265992 L55.32976266093597,25.862784505456517 L55.21762605751263,25.89023665645069 L55.10578273009781,25.912844038493215 L54.99434568560479,25.930583809001334 L54.883427520437095,25.943438043645063 L54.77314030672065,25.95139375445799 L54.663595479065684,25.954442902960363 L54.5549037219728,25.95258240828122 L54.44717485799694,25.94581415027129 L54.34051773678225,25.9341449676036 L54.23504012508004,25.91758665086364 L54.1308485978608,25.896155930636134 L54.028048430630484,25.86987446060036 L53.9267434930598,25.83876879565124 " />
			<path d="M53.926743493059774,25.838768795651234 L53.84961352380301,25.81147144105122 L53.773482433664306,25.781333272630945 L53.69839608116563,25.748372444496123 L53.62439969551807,25.712608811017137 L53.55153784937745,25.674063914869507 L53.47985443199539,25.63276097405739 L53.409392622782114,25.58872486792791 L53.34019486529675,25.541982122184784 L53.27230284168094,25.492560892910223 L53.20575744755106,25.440490949604765 L53.140598767364246,25.385803657255238 L53.076866050273,25.328531957441662 L53.01459768648297,25.268710348494473 L52.953831184128155,25.206374864714036 L52.894603146677355,25.141563054664903 L52.83694925088566,25.074313958557976 L52.78090422530408,25.004668084734142 L52.726501829360345,24.93266738526357 L52.67377483302356,24.858355230675343 L52.62275499706471,24.78177638383267 L52.57347305392524,24.702976972969424 L52.52595868920491,24.622004463904204 L52.48024052378037,24.538907631448723 L52.43634609656494,24.453736530027655 L52.39430184792026,24.366542463527747 L52.35413310372959,24.277377954394257 L52.31586406014241,24.186296711993418 L52.27951776899961,24.093353600259903 L52.24511612394791,23.99860460464885 L52.21267984725191,23.902106798412323 L52.18222847731184,23.803918308220517 L52.15378035689428,23.70409827914842 L52.12735262208325,23.602706839049027 L52.10296119195798,23.499805062334588 L52.08062075900394,23.39545493318765 L52.06034478026258,23.28971930822411 L52.04214546922532,23.18266187863074 L52.0260337884766,23.074347131799982 L52.012019443090466,22.96484031248518 L52.00011087478455,22.854207383499574 L51.990315256835096,22.742514985982744 L51.98263848975609,22.62983039925851 L51.977085197744955,22.51622150030837 L51.97365872589715,22.401756722884933 L51.9723611381912,22.28650501629001 L51.973193216245406,22.170535803842117 L51.97615445884707,22.053918941058463 L51.98124308225438,21.936724673576602 L51.98845602127086,21.819023594841088 L51.99778893109177,21.700886603580628 L52.009236189921204,21.58238486110133 L52.02279090235849,21.463589748421793 L52.03844490355169,21.34457282327587 L52.05618876411583,21.225405777008927 L52.076011795812796,21.1061603913937 L52.09790205798952,20.98690849539161 L52.121846364770605,20.867721921885696 L52.147830293000965,20.748672464411158 L52.17583819093385,20.629831833909638 L52.205853187658825,20.511271615533214 L52.23785720326419,20.393063225524177 L52.27183095972766,20.275277868196582 L52.307753992528696,20.157986493045396 L52.34560466297559,20.041259752009204 L52.38536017123979,19.925167956912116 L52.42699657008967,19.809781037110547 L52.47048877931546,19.695168497370386 L52.51581060083658,19.58139937599994 L52.56293473448246,19.468542203263812 L52.61183279443706,19.35666496010287 L52.66247532633749,19.245835037185017 L52.714831825016184,19.13611919431164 L52.768870752876055,19.027583520203933 L52.824559558887614,18.920293392693573 L52.881864698196466,18.814313439341532 L52.94075165232946,18.70970749850887 L53.001184949987355,18.606538580902875 L53.06312818841139,18.504868831621774 L53.12654405531094,18.404759492720864 L53.191394351339056,18.30627086632256 L53.25764001310233,18.209462278292687 L53.32524113669119,18.114392042504765 L53.39415700171656,18.021117425713925 L53.46434609583827,17.929694613061557 L53.53576613977058,17.840178674231492 L53.60837411274957,17.752623530278058 L53.68212627844732,17.667081921146078 L53.75697821131698,17.583605373902287 L53.83288482335308,17.502244171697352 L53.90980039125087,17.423047323477192 L53.98767858394829,17.346062534461815 L54.066472490534125,17.271336177409474 L54.14613464850534,17.198913264683462 L54.22661707235673,17.128837421138336 L54.30787128248561,17.061150857841945 L54.389848334394074,16.99589434664905 L54.47249884817138,16.933107195641902 L54.55577303823852,16.872827225452504 L54.63962074333723,16.815090746480877 L54.723991456745225,16.75993253702306 L54.80883435669958,16.707385822321925 L54.89409833700982,16.657482254553557 L54.97973203784245,16.610251893761173 L55.06568387665814,16.565723189748052 L55.151902079283126,16.523922964940454 L55.23833471109605,16.484876398230796 L55.32492970831144,16.44860700981082 L55.41163490934097,16.415136647003905 L55.49839808621365,16.384485471105073 L55.585166976036014,16.356671945236563 L55.67188931247334,16.331712823226344 L55.75851285723291,16.309623139516233 L55.844985431530425,16.290416200105707 L55.93125494752054,16.274103574536877 L56.01726943967266,16.260695088925416 L56.10297709607299,16.250198820041682 L56.188326289634134,16.242621090445567 L56.2732656091933,16.23796646467804 L56.357743890480485,16.2362377465116 L56.441710246937866,16.237435977261438 L56.525114100372036,16.241560435158153 L56.607905211420345,16.248608635782535 L56.690033709813264,16.258576333562075 L56.771450124414336,16.271457524328348 L56.85210541301977,16.28724444893369 L56.931950991899605,16.305927597925038 L57.01093876506273,16.327495717272043 L57.089021153228146,16.35193581514609 " />
			<path d="M57.08902115322816,16.351935815146092 L57.19746280965806,16.39123722066272 L57.30388215702479,16.43616912123186 L57.40815181885091,16.48667773652728 L57.51014699168149,16.542702611287282 L57.609745594465004,16.604176687675388 L57.706828414675805,16.671026385543836 L57.80127925100311,16.743171690503885 L57.89298505243583,16.820526249697387 L57.981836053576664,16.902997475155082 L58.06772590602355,16.990486654617907 L58.15055180566125,17.082889069688623 L58.23021461571064,17.18009412117237 L58.30661898538847,17.281985461456134 L58.379673464035534,17.38844113376865 L58.449290610576696,17.499333718154112 L58.5153870981817,17.614530483984858 L58.577883814001524,17.733893548830633 L58.63670595386092,17.857280043494164 L58.691783111793725,17.98454228301553 L58.743049364313876,18.115527943440675 L58.79044334932117,18.250080244142506 L58.833908339547406,18.388038135476233 L58.87339231045491,18.529236491544506 L58.90884800250626,18.673506307841496 L58.94023297773066,18.820674903539402 L58.967509670519135,18.970566128175278 L58.99064543258802,19.12300057249073 L59.00961257205657,19.277795783172206 L59.02438838659225,19.43476648123477 L59.03495519058382,19.593724783788048 L59.04130033630976,19.754480428918797 L59.043416229076705,19.916841003421037 " />
			<path d="M77.01137041228898,-43.41511196203628 L93.98193316076612,-37.75825771254389 " />
			<path d="M34.004394233998966,85.6058165728336 L50.97495698247611,91.26267082232599 " />

       </g>
    </g>
    
</svg>
